<?xml version="1.0" standalone="no"?>
<!DOCTYPE svg PUBLIC "-//W3C//DTD SVG 1.1//EN" "http://www.w3.org/Graphics/SVG/1.1/DTD/svg11.dtd" >
<svg xmlns="http://www.w3.org/2000/svg" xmlns:xlink="http://www.w3.org/1999/xlink" version="1.1">
<metadata>
Created by FontForge 20170731 at Thu Aug 17 18:06:12 2023
 By Aleksey,,,
Copyright (c) 2017 by Botio Nikoltchev. All rights reserved.
</metadata>
<defs>
<font id="Apparat-Semibold" horiz-adv-x="0" >
  <font-face 
    font-family="Apparat Semibold"
    font-weight="600"
    font-stretch="normal"
    units-per-em="2048"
    panose-1="0 0 7 0 0 0 0 0 0 0"
    ascent="1556"
    descent="-492"
    x-height="1006"
    cap-height="1450"
    bbox="-1708 -526 2720 1960"
    underline-thickness="102"
    underline-position="-307"
    unicode-range="U+000D-FB02"
  />
<missing-glyph horiz-adv-x="1343" 
d="M205 1522h934v-1522h-934v1522zM1020 109v1304h-696v-1304h696zM500 995l-21 -8l-78 17q19 104 91.5 164.5t179.5 60.5q113 0 183.5 -64t70.5 -166q0 -75 -27.5 -128t-95.5 -109q-61 -51 -79 -83t-19 -91l-3 -68h-96l-2 70q-2 65 23.5 115.5t83.5 101.5q66 56 87 94.5
t21 93.5q0 63 -41.5 103.5t-109.5 40.5q-66 0 -110.5 -37.5t-57.5 -106.5zM662 252q-32 0 -55 22t-23 54q0 33 22.5 55.5t55.5 22.5q31 0 53 -22.5t22 -55.5q0 -32 -22 -54t-53 -22z" />
    <glyph glyph-name="f_i" unicode="fi" horiz-adv-x="1310" 
d="M444 0h-223v827h-176v179h176v129q0 213 87 312t267 99q130 0 238 -41l-16 -186l-21 -10q-87 43 -174 43q-81 0 -119.5 -47t-38.5 -162v-137h304v-179h-304v-827zM1036 1188q-61 0 -103 40t-42 99q0 60 41.5 99.5t103.5 39.5q63 0 105.5 -40t42.5 -99q0 -58 -43 -98.5
t-105 -40.5zM1149 0h-223v1006h223v-1006z" />
    <glyph glyph-name="f_l" unicode="fl" horiz-adv-x="1320" 
d="M444 0h-223v827h-176v179h176v129q0 213 87 312t267 99q130 0 238 -41l-16 -186l-21 -10q-87 43 -174 43q-81 0 -119.5 -47t-38.5 -162v-137h304v-179h-304v-827zM1159 0h-223v1505h223v-1505z" />
    <glyph glyph-name=".notdef" horiz-adv-x="1343" 
d="M205 1522h934v-1522h-934v1522zM1020 109v1304h-696v-1304h696zM500 995l-21 -8l-78 17q19 104 91.5 164.5t179.5 60.5q113 0 183.5 -64t70.5 -166q0 -75 -27.5 -128t-95.5 -109q-61 -51 -79 -83t-19 -91l-3 -68h-96l-2 70q-2 65 23.5 115.5t83.5 101.5q66 56 87 94.5
t21 93.5q0 63 -41.5 103.5t-109.5 40.5q-66 0 -110.5 -37.5t-57.5 -106.5zM662 252q-32 0 -55 22t-23 54q0 33 22.5 55.5t55.5 22.5q31 0 53 -22.5t22 -55.5q0 -32 -22 -54t-53 -22z" />
    <glyph glyph-name=".null" 
 />
    <glyph glyph-name="nonmarkingreturn" horiz-adv-x="682" 
 />
    <glyph glyph-name="NULL" horiz-adv-x="231" 
 />
    <glyph glyph-name="NULL" horiz-adv-x="231" 
 />
    <glyph glyph-name="CR" unicode="&#xd;" horiz-adv-x="614" 
 />
    <glyph glyph-name="space" unicode=" " horiz-adv-x="471" 
 />
    <glyph glyph-name="exclam" unicode="!" horiz-adv-x="663" 
d="M432 428h-203l-16 1022h236zM332 -20q-65 0 -106.5 41.5t-41.5 101.5q0 63 42.5 105t105.5 42t105 -42t42 -105q0 -59 -41.5 -101t-105.5 -42z" />
    <glyph glyph-name="quotedbl" unicode="&#x22;" horiz-adv-x="718" 
d="M281 881h-177v569h177v-569zM614 881h-176v569h176v-569z" />
    <glyph glyph-name="numbersign" unicode="#" horiz-adv-x="1466" 
d="M1335 1063v-172h-215l-45 -332h240v-172h-264l-56 -387h-190l55 387h-348l-55 -387h-191l56 387h-191v172h215l45 332h-239v172h264l55 387h191l-56 -387h348l56 387h190l-55 -387h190zM537 559h348l45 332h-348z" />
    <glyph glyph-name="dollar" unicode="$" horiz-adv-x="1234" 
d="M1098 385q0 -158 -106.5 -273.5t-286.5 -144.5v-147h-160v141q-201 12 -406 125l33 227h10q179 -134 363 -153v508q-215 88 -304 190t-89 252t105.5 254.5t287.5 122.5v143h160v-143q168 -19 311 -103l-31 -219h-10q-132 95 -270 121v-448q152 -69 239 -140t120.5 -144
t33.5 -169zM389 1120q0 -63 32.5 -108t123.5 -97v373q-75 -13 -115.5 -59t-40.5 -109zM705 592v-420q75 23 116 77t41 124q0 66 -33.5 116t-123.5 103z" />
    <glyph glyph-name="percent" unicode="%" horiz-adv-x="2017" 
d="M551 745q-155 0 -260 103t-105 264t105 264t260 103q156 0 261.5 -103t105.5 -264t-105.5 -264t-261.5 -103zM670 0h-191l871 1450h190zM551 907q85 0 139.5 55.5t54.5 149.5q0 92 -54.5 147.5t-139.5 55.5q-84 0 -139.5 -55.5t-55.5 -147.5q0 -93 55.5 -149t139.5 -56z
M1466 -29q-156 0 -261 103t-105 262q0 162 105 265.5t261 103.5t261.5 -103.5t105.5 -265.5q0 -159 -105.5 -262t-261.5 -103zM1466 133q84 0 139.5 55.5t55.5 147.5q0 93 -55.5 149t-139.5 56t-139 -56t-55 -149q0 -92 55 -147.5t139 -55.5z" />
    <glyph glyph-name="ampersand" unicode="&#x26;" horiz-adv-x="1435" 
d="M1167 287l287 -287h-291l-129 129q-183 -168 -450 -168q-212 0 -346.5 118.5t-135.5 307.5q-3 250 279 399q-170 170 -170 355q0 157 107.5 252.5t285.5 95.5q173 0 283 -92.5t110 -237.5q0 -258 -290 -414l307 -305q72 141 106 332l17 12h217q-63 -300 -187 -497z
M606 1315q-82 0 -131 -48t-49 -124q0 -62 43.5 -134.5t103.5 -129.5q115 63 163 126.5t48 143.5q0 71 -49.5 118.5t-128.5 47.5zM594 154q168 0 297 120l-375 377q-97 -53 -141 -115.5t-43 -146.5q2 -104 74.5 -169.5t187.5 -65.5z" />
    <glyph glyph-name="quotesingle" unicode="'" horiz-adv-x="385" 
d="M281 881h-177v569h177v-569z" />
    <glyph glyph-name="parenleft" unicode="(" horiz-adv-x="679" 
d="M608 -340h-202q-133 189 -211 437t-78 493t78 493t211 437h202q-152 -246 -224.5 -471.5t-72.5 -458.5t72.5 -458.5t224.5 -471.5z" />
    <glyph glyph-name="parenright" unicode=")" horiz-adv-x="679" 
d="M276 -340h-204q152 246 224.5 471.5t72.5 458.5t-72.5 458.5t-224.5 471.5h204q131 -189 209 -437t78 -493t-78 -493t-209 -437z" />
    <glyph glyph-name="asterisk" unicode="*" horiz-adv-x="937" 
d="M297 707h-31l-92 67l-4 31l178 221l-272 80l-10 24l38 111l27 14l266 -96l-6 273l19 18h116l21 -18l-6 -273l266 96l27 -14l38 -111l-10 -24l-272 -80l176 -221l-2 -31l-94 -67h-29l-172 245z" />
    <glyph glyph-name="plus" unicode="+" horiz-adv-x="1368" 
d="M770 709h467v-177h-467v-464h-174v464h-465v177h465v465h174v-465z" />
    <glyph glyph-name="comma" unicode="," horiz-adv-x="532" 
d="M422 289l8 -15l-221 -647h-172l160 662h225z" />
    <glyph glyph-name="hyphen" unicode="-" horiz-adv-x="782" 
d="M670 367h-557v172h557v-172z" />
    <glyph glyph-name="period" unicode="." horiz-adv-x="497" 
d="M250 -20q-64 0 -107 42t-43 101q0 63 43.5 105t106.5 42q62 0 103.5 -42t41.5 -105q0 -59 -42 -101t-103 -42z" />
    <glyph glyph-name="slash" unicode="/" horiz-adv-x="819" 
d="M592 1450h209l-572 -1448h-211z" />
    <glyph glyph-name="zero" unicode="0" horiz-adv-x="1329" 
d="M664 -41q-255 0 -399 204t-144 564q0 358 144 561t399 203q256 0 400 -203t144 -561q0 -360 -144 -564t-400 -204zM664 180q142 0 219.5 143t77.5 406q0 260 -77.5 400.5t-219.5 140.5q-141 0 -218 -141t-77 -400q0 -262 77 -405.5t218 -143.5z" />
    <glyph glyph-name="one" unicode="1" horiz-adv-x="759" 
d="M571 0h-237v985q0 86 16 184l-8 5q-65 -46 -121 -76l-166 -99l-22 13l18 239l455 226h65v-1477z" />
    <glyph glyph-name="two" unicode="2" horiz-adv-x="1058" 
d="M958 0h-923l-21 90l334 361q192 201 283.5 347.5t91.5 272.5q0 99 -55.5 153t-159.5 54q-179 0 -381 -156h-10l-33 228q99 59 219.5 100t233.5 41q206 0 318 -106.5t112 -290.5q0 -310 -340 -666l-105 -113q-45 -47 -125 -110l4 -8q112 16 215 16h342v-213z" />
    <glyph glyph-name="three" unicode="3" horiz-adv-x="1073" 
d="M707 752v-9q133 -24 208.5 -119t75.5 -229q0 -194 -135.5 -315t-361.5 -121q-118 0 -233.5 32t-203.5 85l35 221h8q189 -129 381 -129q128 0 197.5 65.5t69.5 180.5q0 116 -72.5 177.5t-214.5 61.5h-185v181h177q135 0 207.5 62.5t72.5 180.5q0 95 -62 151t-173 56
q-191 0 -389 -139h-11l-32 215q97 56 219.5 93.5t244.5 37.5q202 0 319.5 -104t117.5 -273q0 -133 -68.5 -231t-191.5 -131z" />
    <glyph glyph-name="four" unicode="4" horiz-adv-x="1134" 
d="M920 0h-234v299h-651l-35 164l709 991h211v-946h167v-209h-167v-299zM543 877l-271 -369h418v250q0 188 31 393h-8q-89 -163 -170 -274z" />
    <glyph glyph-name="five" unicode="5" horiz-adv-x="1148" 
d="M526 -41q-111 0 -225 32.5t-205 84.5l35 223h10q188 -131 379 -131q136 0 215.5 83t79.5 222q0 137 -79 209t-204 72q-165 0 -321 -107l-66 25l52 778h749v-207h-545l-22 -354q121 51 244 51q188 -2 312 -130.5t124 -330.5q0 -231 -147.5 -375.5t-385.5 -144.5z" />
    <glyph glyph-name="six" unicode="6" horiz-adv-x="1224" 
d="M698 920q193 0 310.5 -124.5t117.5 -326.5q0 -231 -143.5 -370.5t-378.5 -139.5q-234 0 -372 136.5t-138 365.5q0 131 64.5 268.5t232.5 362.5l260 358h250l8 -35l-209 -287q-97 -135 -241 -268l8 -6q116 66 231 66zM608 170q121 0 198 80.5t77 208.5q0 129 -70 203.5
t-197 74.5q-112 0 -221 -69q-55 -90 -55 -217t73 -204t195 -77z" />
    <glyph glyph-name="seven" unicode="7" horiz-adv-x="962" 
d="M678 1239l-2 4q-106 -6 -303 -6h-361v213h971l16 -51l-663 -1399h-217l-21 35l428 907q89 193 152 297z" />
    <glyph glyph-name="eight" unicode="8" horiz-adv-x="1179" 
d="M854 754q117 -48 182.5 -140.5t65.5 -214.5q0 -203 -140.5 -321.5t-375.5 -118.5q-241 0 -374.5 113t-133.5 311q0 103 65 196.5t172 151.5q-85 51 -132.5 141t-47.5 203q0 186 127.5 301t339.5 115q207 0 328 -108t121 -285q0 -96 -54.5 -187t-142.5 -157zM592 1298
q-104 0 -161.5 -59.5t-57.5 -171.5q0 -188 190 -236l101 -26q72 61 110.5 127.5t38.5 154.5q0 94 -58.5 152.5t-162.5 58.5zM592 152q120 0 192 62.5t72 184.5q0 192 -244 244l-112 25q-176 -118 -176 -258q0 -122 75 -190t193 -68z" />
    <glyph glyph-name="nine" unicode="9" horiz-adv-x="1230" 
d="M625 1491q230 0 367.5 -134.5t137.5 -355.5q0 -138 -63.5 -278t-230.5 -365l-263 -358h-249l-9 35l209 287q99 134 244 268l-8 6q-116 -66 -234 -66q-193 0 -309.5 124.5t-116.5 326.5q0 232 143.5 371t381.5 139zM829 782q58 94 58 209q0 132 -73 210.5t-196 78.5
t-199.5 -80.5t-76.5 -208.5q0 -129 69.5 -203.5t196.5 -74.5q112 0 221 69z" />
    <glyph glyph-name="colon" unicode=":" horiz-adv-x="483" 
d="M244 639q-64 0 -107 42t-43 103t43.5 103.5t106.5 42.5q61 0 103 -42t42 -104q0 -61 -41.5 -103t-103.5 -42zM244 -20q-64 0 -107 42t-43 101q0 63 43.5 105t106.5 42q62 0 103.5 -42t41.5 -105q0 -59 -41.5 -101t-103.5 -42z" />
    <glyph glyph-name="semicolon" unicode=";" horiz-adv-x="538" 
d="M297 639q-63 0 -105 42.5t-42 102.5q0 62 42 104t105 42q62 0 104.5 -42.5t42.5 -103.5t-41.5 -103t-105.5 -42zM422 289l8 -15l-221 -647h-172l160 662h225z" />
    <glyph glyph-name="less" unicode="&#x3c;" horiz-adv-x="1368" 
d="M152 688l1065 475v-190l-793 -352l793 -353v-188l-1065 473v135z" />
    <glyph glyph-name="equal" unicode="=" horiz-adv-x="1368" 
d="M1237 739h-1106v174h1106v-174zM1237 328h-1106v176h1106v-176z" />
    <glyph glyph-name="greater" unicode="&#x3e;" horiz-adv-x="1368" 
d="M152 973v190l1065 -475v-135l-1065 -473v188l790 353z" />
    <glyph glyph-name="question" unicode="?" horiz-adv-x="1032" 
d="M487 1292q-87 0 -181 -34.5t-175 -98.5h-8l-29 205q88 57 199.5 92t210.5 35q188 0 301 -101.5t113 -261.5q0 -123 -46.5 -209t-158.5 -171q-61 -48 -90.5 -86t-36.5 -67t-8 -81l-3 -86h-213l-2 94q-2 93 37.5 171.5t137.5 160.5q90 75 120.5 130t30.5 128q0 82 -54 131
t-145 49zM479 -20q-62 0 -104.5 42t-42.5 101q0 63 42 105t105 42t105.5 -42t42.5 -105q0 -59 -43 -101t-105 -42z" />
    <glyph glyph-name="at" unicode="@" horiz-adv-x="1894" 
d="M1208 844h152l-68 -350q-28 -150 -28 -195q0 -38 26 -61t72 -23q94 0 158.5 103t64.5 251q0 266 -162 419t-446 153q-191 0 -342.5 -86t-236.5 -240.5t-85 -349.5q0 -305 181.5 -482.5t488.5 -177.5q132 0 225 20t199 71l16 -5l31 -149q-105 -52 -217 -74t-266 -22
q-251 0 -441 101.5t-293.5 288t-103.5 433.5q1 175 66 329.5t177 265.5t269 175t334 64q229 0 407 -90t276.5 -252.5t98.5 -370.5q0 -234 -123 -381.5t-319 -147.5q-77 0 -129 34t-66 91q-147 -123 -282 -123q-130 0 -209.5 95.5t-79.5 261.5q0 202 114.5 335.5t290.5 133.5
q61 0 124.5 -26.5t109.5 -71.5zM737 422q0 -100 41 -151.5t119 -51.5q99 0 199 78l63 365q-77 71 -182 71t-172.5 -88t-67.5 -223z" />
    <glyph glyph-name="A" unicode="A" horiz-adv-x="1404" 
d="M586 1450h239l588 -1442l-8 -8h-256l-131 340h-635l-129 -340h-254l-8 8zM600 905l-145 -383h491l-147 383q-60 162 -97 295h-6q-39 -143 -96 -295z" />
    <glyph glyph-name="B" unicode="B" horiz-adv-x="1271" 
d="M608 0h-422v1450h416q254 0 381 -96.5t127 -280.5q0 -109 -62 -192.5t-167 -114.5v-4q139 -29 219 -121.5t80 -226.5q0 -206 -140 -310t-432 -104zM422 1253v-422h184q275 0 275 222q0 102 -71.5 151t-221.5 49h-166zM422 659v-460h176q185 0 266.5 56t81.5 175
q0 116 -80.5 172.5t-249.5 56.5h-194z" />
    <glyph glyph-name="C" unicode="C" horiz-adv-x="1523" 
d="M846 -41q-215 0 -382.5 96t-261 270t-93.5 398q0 223 94 398.5t261.5 272.5t379.5 97q274 0 522 -172l-31 -240h-10q-220 189 -469 189q-220 0 -357 -150t-137 -391q0 -243 138.5 -394t361.5 -151q247 0 469 191h10l31 -240q-245 -174 -526 -174z" />
    <glyph glyph-name="D" unicode="D" horiz-adv-x="1554" 
d="M618 0h-432v1450h432q404 0 618 -186.5t214 -532.5q0 -345 -220 -538t-612 -193zM422 1239v-1028h174q309 0 458.5 128t149.5 396q0 257 -148 380.5t-460 123.5h-174z" />
    <glyph glyph-name="E" unicode="E" horiz-adv-x="1198" 
d="M1016 645h-594v-436h649l-24 -209h-861v1450h861l24 -209h-649v-403h594v-193z" />
    <glyph glyph-name="F" unicode="F" horiz-adv-x="1128" 
d="M1040 1241h-618v-410h569v-202h-569v-629h-236v1450h830z" />
    <glyph glyph-name="G" unicode="G" horiz-adv-x="1617" 
d="M844 -41q-222 0 -390 99t-256.5 271t-88.5 392q0 222 96 397.5t271 274t398 98.5q295 0 570 -186l-37 -238h-8q-253 201 -512 201q-242 0 -383.5 -151.5t-141.5 -393.5q0 -240 135 -392.5t359 -152.5q194 0 361 96v316h-381v190h600v-639q-283 -182 -592 -182z" />
    <glyph glyph-name="H" unicode="H" horiz-adv-x="1564" 
d="M1143 840v610h235v-1450h-235v629h-721v-629h-236v1450h236v-610h721z" />
    <glyph glyph-name="I" unicode="I" horiz-adv-x="608" 
d="M186 0v1450h236v-1450h-236z" />
    <glyph glyph-name="J" unicode="J" horiz-adv-x="626" 
d="M209 205v1245h235v-1225q0 -191 -69.5 -300t-235.5 -183l-102 156l2 10q91 44 130.5 110t39.5 187z" />
    <glyph glyph-name="K" unicode="K" horiz-adv-x="1355" 
d="M1327 1440l-536 -611l565 -819l-6 -10h-279l-440 647l-209 -239v-408h-236v1450h236v-266q0 -167 -8 -475h6q214 262 280 340l347 401h276z" />
    <glyph glyph-name="L" unicode="L" horiz-adv-x="1103" 
d="M186 0v1450h236v-1235h657l-26 -215h-867z" />
    <glyph glyph-name="M" unicode="M" horiz-adv-x="1886" 
d="M418 0h-232v1450h303l453 -905h6l451 905h301v-1450h-232v709q0 75 5 438h-7l-170 -336l-335 -655h-37l-332 655q-10 20 -74 144.5t-96 191.5h-6q2 -145 2 -438v-709z" />
    <glyph glyph-name="N" unicode="N" horiz-adv-x="1630" 
d="M420 0h-234v1450h193l569 -670q172 -208 266 -331h7q-11 169 -11 380v621h234v-1473h-131l-629 736q-143 167 -268 329h-4q8 -125 8 -385v-657z" />
    <glyph glyph-name="O" unicode="O" horiz-adv-x="1718" 
d="M858 -41q-220 0 -392 101t-264.5 275t-92.5 390q0 162 54 303t150 243t237 161t308 59q223 0 395.5 -101t264.5 -275t92 -390t-93.5 -390t-266 -275t-392.5 -101zM858 182q149 0 264 72t175.5 195t60.5 276q0 155 -60.5 278t-175 194t-264.5 71q-226 0 -362 -152.5
t-136 -390.5q0 -154 60 -276.5t174.5 -194.5t263.5 -72z" />
    <glyph glyph-name="P" unicode="P" horiz-adv-x="1222" 
d="M645 1450q251 0 380.5 -115t129.5 -334q0 -204 -131 -322t-367 -118h-235v-561h-236v1450h459zM422 760h190q159 0 234.5 59t75.5 182q0 128 -75.5 188t-234.5 60h-190v-489z" />
    <glyph glyph-name="Q" unicode="Q" horiz-adv-x="1718" 
d="M1610 725q0 -237 -113 -422.5t-309 -275.5l307 -324l-16 -35h-252l-269 297q-50 -6 -100 -6q-220 0 -392 101t-264.5 275t-92.5 390q0 162 54 303t150 243t237 161t308 59q223 0 395.5 -101t264.5 -275t92 -390zM360 725q0 -154 60 -276.5t174.5 -194.5t263.5 -72t264 72
t175.5 195t60.5 276q0 155 -60.5 278t-175 194t-264.5 71q-226 0 -362 -152.5t-136 -390.5z" />
    <glyph glyph-name="R" unicode="R" horiz-adv-x="1298" 
d="M858 641l434 -606l-14 -35h-246l-414 602h-196v-602h-236v1450h453q247 0 375.5 -108.5t128.5 -323.5q0 -142 -73.5 -239t-211.5 -138zM604 1247h-182v-450h182q162 0 232.5 53.5t70.5 167.5q0 120 -71.5 174.5t-231.5 54.5z" />
    <glyph glyph-name="S" unicode="S" horiz-adv-x="1169" 
d="M565 -41q-245 0 -461 131l33 229h8q211 -155 420 -155q118 0 187 60t69 151q0 57 -23 99t-92 89t-194 99q-216 91 -305.5 194.5t-89.5 253.5q0 165 125 273t340 108q219 0 405 -107l-31 -227h-10q-177 131 -371 131q-100 0 -156.5 -49t-56.5 -125q0 -51 23.5 -87.5
t88.5 -77.5t194 -99q156 -70 245 -142.5t122.5 -146.5t33.5 -174q0 -183 -138.5 -305.5t-365.5 -122.5z" />
    <glyph glyph-name="T" unicode="T" horiz-adv-x="1216" 
d="M20 1450h1176v-217h-469v-1233h-235v1233h-472v217z" />
    <glyph glyph-name="U" unicode="U" horiz-adv-x="1517" 
d="M760 -41q-586 0 -586 625v866h236v-850q0 -218 84 -319t266 -101q180 0 264 101.5t84 320.5v848h235v-862q0 -303 -148.5 -466t-434.5 -163z" />
    <glyph glyph-name="V" unicode="V" horiz-adv-x="1394" 
d="M791 -23h-189l-588 1465l6 8h259l321 -846q56 -136 96 -270h4q46 144 95 266l323 850h254l8 -8z" />
    <glyph glyph-name="W" unicode="W" horiz-adv-x="1992" 
d="M37 1450h252l207 -745q29 -103 88 -334h6q51 176 104 331l244 736h117l241 -736q52 -164 105 -333h6q40 166 88 336l207 745h254l6 -8l-444 -1465h-191l-237 719q-14 40 -91 295h-4q-62 -204 -92 -293l-241 -721h-189l-442 1465z" />
    <glyph glyph-name="X" unicode="X" horiz-adv-x="1323" 
d="M285 0h-273l-6 8l514 750l-477 684l4 8h281l153 -231q139 -219 187 -299h4q108 183 180 294l154 236h270l4 -8l-471 -694l508 -740l-4 -8h-283l-196 301q-110 174 -168 277h-7q-26 -46 -170 -273z" />
    <glyph glyph-name="Y" unicode="Y" horiz-adv-x="1269" 
d="M16 1450h267l200 -369q61 -115 150 -297h6q100 205 149 295l199 371h266l7 -8l-506 -854v-588h-238v588l-506 854z" />
    <glyph glyph-name="Z" unicode="Z" horiz-adv-x="1286" 
d="M47 37l803 1200h-750v213h1135l4 -39l-809 -1192h774v-219h-1153z" />
    <glyph glyph-name="bracketleft" unicode="[" horiz-adv-x="638" 
d="M524 -340h-391v1860h391v-170h-196v-1520h196v-170z" />
    <glyph glyph-name="backslash" unicode="\" horiz-adv-x="819" 
d="M590 2l-572 1448h209l574 -1448h-211z" />
    <glyph glyph-name="bracketright" unicode="]" horiz-adv-x="638" 
d="M504 1520v-1860h-389v170h196v1520h-196v170h389z" />
    <glyph glyph-name="asciicircum" unicode="^" horiz-adv-x="1267" 
d="M328 557h-242l465 893h164l467 -893h-242l-307 649z" />
    <glyph glyph-name="underscore" unicode="_" horiz-adv-x="1024" 
d="M1024 -150v-141h-1024v141h1024z" />
    <glyph glyph-name="grave" unicode="`" horiz-adv-x="548" 
d="M293 1509l196 -335h-167l-263 321l11 14h223z" />
    <glyph glyph-name="a" unicode="a" horiz-adv-x="1075" 
d="M369 -41q-133 0 -208 70t-75 196q0 168 141.5 261.5t464.5 134.5v57q-2 97 -42 139.5t-132 42.5q-80 0 -173.5 -36.5t-162.5 -94.5h-10l-27 195q87 54 200.5 88.5t209.5 34.5q358 0 358 -347v-700h-182l-20 129q-90 -93 -168 -131.5t-174 -38.5zM426 125q62 0 125 31.5
t141 99.5v223q-155 -23 -241.5 -55t-118 -72.5t-31.5 -103.5q0 -123 125 -123z" />
    <glyph glyph-name="b" unicode="b" horiz-adv-x="1224" 
d="M702 1047q194 0 311 -145.5t117 -389.5q0 -241 -130.5 -397t-333.5 -156q-166 0 -308 107l-8 -66h-188v1505h223v-590q155 132 317 132zM610 154q133 0 213 98t80 260q0 158 -71 249t-195 91q-133 0 -252 -104v-529q111 -65 225 -65z" />
    <glyph glyph-name="c" unicode="c" horiz-adv-x="1032" 
d="M582 -41q-222 0 -356 148.5t-134 390.5q0 244 139.5 396.5t368.5 152.5q173 0 334 -103l-29 -207h-10q-131 117 -279 117q-133 0 -215 -95.5t-82 -258.5q0 -158 80.5 -254t204.5 -96q156 0 295 120h8l29 -198q-165 -113 -354 -113z" />
    <glyph glyph-name="d" unicode="d" horiz-adv-x="1220" 
d="M836 961v544h223v-1505h-197l-12 94q-156 -135 -320 -135q-197 0 -316.5 146t-119.5 391q0 236 133.5 393.5t329.5 157.5q145 0 279 -86zM322 496q0 -160 71.5 -251t200.5 -91q125 0 242 102v535q-107 59 -222 59q-132 0 -212 -96.5t-80 -257.5z" />
    <glyph glyph-name="e" unicode="e" horiz-adv-x="1136" 
d="M1044 512q0 -34 -4 -61h-718q3 -143 82.5 -225.5t205.5 -82.5q204 0 340 125h11l24 -192q-82 -54 -184 -85.5t-205 -31.5q-235 0 -369.5 148t-134.5 393q0 242 135.5 394.5t354.5 152.5q215 0 338.5 -143.5t123.5 -391.5zM326 604l499 -2q-7 127 -70.5 197.5t-168.5 70.5
t-176 -71.5t-84 -194.5z" />
    <glyph glyph-name="f" unicode="f" horiz-adv-x="763" 
d="M444 0h-223v827h-176v179h176v129q0 213 87 312t267 99q130 0 238 -41l-16 -186l-21 -10q-87 43 -174 43q-81 0 -119.5 -47t-38.5 -162v-137h304v-179h-304v-827z" />
    <glyph glyph-name="g" unicode="g" horiz-adv-x="1218" 
d="M860 944l10 62h187v-1014q0 -234 -119.5 -359t-347.5 -125q-229 0 -408 115l25 205h10q70 -64 165.5 -93.5t192.5 -29.5q134 0 196.5 61t62.5 191v158q-148 -123 -304 -123q-196 0 -315 142t-119 376q0 227 133 382t328 155q163 0 303 -103zM594 178q125 0 240 103v512
q-108 57 -222 57q-130 0 -210 -94t-80 -244q0 -156 72 -245t200 -89z" />
    <glyph glyph-name="h" unicode="h" horiz-adv-x="1230" 
d="M748 1047q154 0 237.5 -98.5t83.5 -282.5v-666h-223v614q0 122 -41.5 179t-128.5 57q-142 0 -291 -156v-694h-223v1505h223v-635q170 177 363 177z" />
    <glyph glyph-name="i" unicode="i" horiz-adv-x="546" 
d="M272 1188q-61 0 -103 40t-42 99q0 60 41.5 99.5t103.5 39.5q63 0 105.5 -40t42.5 -99q0 -58 -43 -98.5t-105 -40.5zM385 0h-223v1006h223v-1006z" />
    <glyph glyph-name="j" unicode="j" horiz-adv-x="546" 
d="M272 1188q-61 0 -103 40t-42 99q0 60 41.5 99.5t103.5 39.5q64 0 106 -40t42 -99q0 -58 -43 -98.5t-105 -40.5zM104 -492l-100 144l2 16q82 43 119 106.5t37 178.5v1053h223v-1024q0 -188 -65 -293.5t-216 -180.5z" />
    <glyph glyph-name="k" unicode="k" horiz-adv-x="1097" 
d="M385 0h-223v1505h223v-344q0 -210 -8 -590l4 -2q131 150 233 260l164 177h264l5 -9l-377 -383l422 -606l-5 -8h-245l-322 465l-135 -135v-330z" />
    <glyph glyph-name="l" unicode="l" horiz-adv-x="546" 
d="M385 0h-223v1505h223v-1505z" />
    <glyph glyph-name="m" unicode="m" horiz-adv-x="1863" 
d="M1399 1047q141 0 222 -99.5t81 -281.5v-666h-223v616q0 117 -40 175.5t-114 58.5q-130 0 -283 -156v-28v-666h-223v616q0 234 -151 234q-134 0 -283 -156v-694h-223v1006h196l11 -152q178 193 372 193q102 0 173.5 -53.5t103.5 -155.5v6q177 203 381 203z" />
    <glyph glyph-name="n" unicode="n" horiz-adv-x="1230" 
d="M748 1047q154 0 237.5 -98.5t83.5 -282.5v-666h-223v614q0 122 -41.5 179t-128.5 57q-142 0 -291 -156v-694h-223v1006h196l11 -152q178 193 379 193z" />
    <glyph glyph-name="o" unicode="o" horiz-adv-x="1236" 
d="M618 -41q-236 0 -381 152.5t-145 390.5q0 236 145.5 390.5t380.5 154.5t382 -154.5t147 -390.5q0 -238 -146 -390.5t-383 -152.5zM618 156q138 0 220 95.5t82 250.5q0 154 -82 251t-220 97q-137 0 -218 -96.5t-81 -251.5q0 -156 80.5 -251t218.5 -95z" />
    <glyph glyph-name="p" unicode="p" horiz-adv-x="1224" 
d="M702 1047q194 0 311 -145.5t117 -389.5q0 -239 -132 -396t-332 -157q-151 0 -281 88v-498h-223v1457h196l9 -107q161 148 335 148zM610 154q133 0 213 98t80 260q0 158 -71 249t-195 91q-133 0 -252 -104v-529q111 -65 225 -65z" />
    <glyph glyph-name="q" unicode="q" horiz-adv-x="1218" 
d="M860 942l12 64h187v-1457h-223v531q-152 -121 -308 -121q-190 0 -312 143t-122 394q0 122 37 226t100.5 174.5t148.5 110.5t181 40q155 0 299 -105zM594 154q129 0 240 100v537q-109 59 -220 59q-128 0 -210 -94t-82 -260t73.5 -254t198.5 -88z" />
    <glyph glyph-name="r" unicode="r" horiz-adv-x="778" 
d="M725 1040q17 0 33 -4l-19 -231l-12 -6q-24 6 -53 6q-167 0 -289 -180v-625h-223v1006h196l15 -195q81 112 165 170.5t187 58.5z" />
    <glyph glyph-name="s" unicode="s" horiz-adv-x="917" 
d="M444 -41q-199 0 -354 98l27 193h10q152 -117 309 -117q84 0 128 33t44 92q0 56 -40.5 95t-166.5 89q-176 69 -240.5 144t-64.5 186q0 117 95.5 196t257.5 79q182 0 342 -95l-27 -192h-10q-145 112 -297 112q-68 0 -106 -29t-38 -75q0 -48 39 -85t168 -93
q174 -72 239.5 -145t65.5 -187q0 -135 -102 -217t-279 -82z" />
    <glyph glyph-name="t" unicode="t" horiz-adv-x="792" 
d="M518 -41q-158 0 -235.5 84t-77.5 256v528h-174v179h180v225l178 108h39v-333h289v-179h-289v-503q0 -94 30.5 -130t102.5 -36q78 0 139 30l17 -8l6 -184q-87 -37 -205 -37z" />
    <glyph glyph-name="u" unicode="u" horiz-adv-x="1210" 
d="M825 338v668h224v-1006h-199l-12 178q-165 -219 -371 -219q-143 0 -224 100.5t-81 290.5v656h223v-621q0 -227 156 -227q69 0 142.5 47t141.5 133z" />
    <glyph glyph-name="v" unicode="v" horiz-adv-x="1009" 
d="M18 1006h228l121 -322q134 -379 137 -387h6q72 209 133 379l123 330h225l8 -7l-413 -1028h-160l-416 1028z" />
    <glyph glyph-name="w" unicode="w" horiz-adv-x="1525" 
d="M45 1006h231l70 -252q75 -264 123 -455h6q42 140 154 453l84 243h102l82 -239q97 -274 154 -457h4q24 95 70.5 259t54.5 194l71 254h228l6 -9l-332 -1026h-149l-136 371q-69 201 -104 326h-4q-25 -95 -105 -328l-133 -369h-149l-334 1026z" />
    <glyph glyph-name="x" unicode="x" horiz-adv-x="1021" 
d="M41 1006h250l139 -224q69 -132 76 -147h6q14 27 40 75.5t38 71.5l141 224h250l4 -9l-336 -483l346 -504l-4 -10h-252l-155 244q-11 19 -72 143h-6q-42 -89 -74 -143l-151 -244h-252l-2 10l344 504l-334 483z" />
    <glyph glyph-name="y" unicode="y" horiz-adv-x="1062" 
d="M37 1006h246l108 -328q94 -266 139 -404h5l151 404l117 328h241l7 -7l-617 -1450h-229v7l209 479l-385 964z" />
    <glyph glyph-name="z" unicode="z" horiz-adv-x="1007" 
d="M944 0h-883l-4 23l541 798h-514v185h862l4 -23l-540 -797h534v-186z" />
    <glyph glyph-name="braceleft" unicode="{" horiz-adv-x="702" 
d="M57 510v160h15q72 1 109.5 55t37.5 154v364q0 128 67.5 202.5t188.5 74.5h143v-162h-92q-114 0 -114 -160v-340q0 -115 -51.5 -186t-129.5 -80v-4q78 -9 129.5 -80t51.5 -186v-340q0 -160 114 -160h92v-162h-143q-121 0 -188.5 74.5t-67.5 202.5v364q0 100 -37.5 154.5
t-109.5 54.5h-15z" />
    <glyph glyph-name="bar" unicode="|" horiz-adv-x="1118" 
d="M657 -522h-196v2126h196v-2126z" />
    <glyph glyph-name="braceright" unicode="}" horiz-adv-x="702" 
d="M631 670h14v-160h-14q-72 0 -110 -54.5t-38 -154.5v-364q0 -128 -67.5 -202.5t-186.5 -74.5h-145v162h92q115 0 115 160v340q0 115 51 186t129 80v4q-78 9 -129 80t-51 186v340q0 160 -115 160h-92v162h143q121 0 188.5 -74.5t67.5 -202.5v-364q0 -100 38 -154t110 -55z
" />
    <glyph glyph-name="asciitilde" unicode="~" horiz-adv-x="1368" 
d="M899 461q-71 0 -135.5 22.5t-104.5 49t-95.5 49t-110.5 22.5q-112 0 -195 -135l-16 -4l-117 84q141 229 315 229q72 0 137.5 -23t106.5 -50.5t95.5 -50.5t107.5 -23q109 0 196 139l17 2l117 -84q-138 -227 -318 -227z" />
    <glyph glyph-name="uni00A0" unicode="&#xa0;" horiz-adv-x="471" 
 />
    <glyph glyph-name="exclamdown" unicode="&#xa1;" horiz-adv-x="663" 
d="M332 1047q63 0 105 -42t42 -102q0 -63 -42 -105t-105 -42t-105.5 42t-42.5 105q0 60 41.5 102t106.5 42zM213 -424l16 1022h203l17 -1022h-236z" />
    <glyph glyph-name="cent" unicode="&#xa2;" horiz-adv-x="1157" 
d="M971 473h8l29 -199q-118 -83 -265 -104v-190h-159v186q-196 22 -311 162.5t-115 351.5q0 209 115 352.5t311 169.5v187h159v-187q138 -18 265 -94l-31 -207h-10q-105 92 -224 111v-652q120 20 228 113zM385 682q0 -118 54 -202.5t145 -114.5v636q-93 -29 -146 -113.5
t-53 -205.5z" />
    <glyph glyph-name="sterling" unicode="&#xa3;" horiz-adv-x="1136" 
d="M487 215h611l-27 -215h-956v215h143q59 79 59 238v213h-192v161h192v172q0 227 115.5 359t323.5 133q140 0 280 -55l-18 -199l-19 -10q-117 57 -231 57q-105 0 -160 -77t-55 -222v-158h354v-161h-354v-170q0 -184 -66 -281z" />
    <glyph glyph-name="currency" unicode="&#xa4;" horiz-adv-x="1183" 
d="M362 379l-147 -150l-100 101l149 149q-69 101 -69 234q0 134 67 229l-147 148l98 102l147 -150q104 74 236 74q128 0 229 -69l146 145l98 -102l-141 -144q71 -104 71 -233q0 -131 -73 -238l143 -145l-98 -101l-148 148q-97 -72 -227 -72t-234 74zM596 489
q90 0 148.5 63.5t58.5 160.5q0 96 -58.5 158.5t-148.5 62.5q-92 0 -150.5 -62.5t-58.5 -158.5q0 -97 59 -160.5t150 -63.5z" />
    <glyph glyph-name="yen" unicode="&#xa5;" horiz-adv-x="1419" 
d="M1063 1450h274l-436 -633h260v-162h-332v-172h332v-159h-332v-324h-237v324h-332v159h332v172h-332v162h258l-434 633h272l351 -586h8z" />
    <glyph glyph-name="brokenbar" unicode="&#xa6;" horiz-adv-x="1118" 
d="M657 698h-196v906h196v-906zM657 -522h-196v905h196v-905z" />
    <glyph glyph-name="section" unicode="&#xa7;" horiz-adv-x="1185" 
d="M874 326q127 -100 127 -250q0 -160 -118 -258.5t-312 -98.5q-210 0 -434 129l33 209h8q89 -65 194.5 -108t202.5 -43q90 0 142.5 41.5t52.5 113.5q0 57 -34 96.5t-111 73.5l-213 101q-133 54 -192.5 126t-59.5 177q0 87 49.5 156t136.5 104q-127 102 -127 252
q0 153 113.5 248.5t296.5 95.5q197 0 383 -107l-31 -208h-10q-82 62 -174.5 96.5t-175.5 34.5q-81 0 -126.5 -39.5t-45.5 -106.5q0 -62 42 -103t136 -83l153 -68q133 -57 196.5 -135.5t63.5 -185.5q0 -87 -45 -157.5t-121 -102.5zM545 481l172 -73q48 12 78 54t30 97
q0 70 -42 113t-136 82l-141 57q-56 -9 -94.5 -53t-38.5 -101q0 -59 37 -95.5t135 -80.5z" />
    <glyph glyph-name="dieresis" unicode="&#xa8;" horiz-adv-x="761" 
d="M190 1204q-56 0 -90 36t-34 91t35.5 93t88.5 38q55 0 91 -38t36 -93t-35.5 -91t-91.5 -36zM571 1204q-57 0 -92 36t-35 91t36 93t91 38q53 0 89 -38t36 -93t-34.5 -91t-90.5 -36z" />
    <glyph glyph-name="copyright" unicode="&#xa9;" horiz-adv-x="1773" 
d="M889 -39q-214 0 -388.5 100.5t-273 275t-98.5 386.5q0 213 98.5 388.5t273 276.5t388.5 101q159 0 300 -59.5t240.5 -161.5t157.5 -243.5t58 -301.5q0 -159 -58 -300t-157.5 -242.5t-240.5 -160.5t-300 -59zM887 90q174 0 315.5 83.5t221 228.5t79.5 321q0 177 -79.5 323
t-220.5 230t-314 84q-175 0 -317.5 -84t-223 -230t-80.5 -323q0 -176 80.5 -321t222.5 -228.5t316 -83.5zM903 281q-181 0 -299.5 123t-118.5 317q0 196 121.5 321t308.5 125q140 0 271 -84l-23 -161h-8q-111 94 -231 94q-113 0 -187.5 -80.5t-74.5 -212.5q0 -130 73 -210.5
t178 -80.5q132 0 244 96h8l23 -155q-132 -92 -285 -92z" />
    <glyph glyph-name="ordfeminine" unicode="&#xaa;" horiz-adv-x="747" 
d="M403 1479q207 0 207 -205v-363h-133l-16 64q-78 -84 -174 -84q-72 0 -113 36.5t-41 100.5q0 84 72.5 132t240.5 71v29q0 49 -17 68.5t-58 19.5q-40 0 -90.5 -19t-85.5 -47h-9l-16 129q48 30 113 49t120 19zM279 1049q0 -60 59 -60q49 0 108 53v119q-93 -17 -130 -42.5
t-37 -69.5z" />
    <glyph glyph-name="guillemotleft" unicode="&#xab;" horiz-adv-x="1024" 
d="M522 117h-174l-254 360l250 361h174l4 -15l-227 -346l231 -348zM915 117h-174l-254 360l250 361h176l2 -15l-227 -346l232 -348z" />
    <glyph glyph-name="logicalnot" unicode="&#xac;" horiz-adv-x="1368" 
d="M1237 193h-176v339h-930v177h1106v-516z" />
    <glyph glyph-name="uni00AD" unicode="&#xad;" horiz-adv-x="782" 
d="M670 367h-557v172h557v-172z" />
    <glyph glyph-name="registered" unicode="&#xae;" horiz-adv-x="1241" 
d="M621 563q-196 0 -327.5 130.5t-131.5 330.5t131.5 332.5t327.5 132.5t327 -132.5t131 -332.5t-131 -330.5t-327 -130.5zM621 637q162 0 269 110.5t107 276.5q0 168 -106.5 277.5t-269.5 109.5t-270 -109.5t-107 -277.5q0 -166 107.5 -276.5t269.5 -110.5zM559 776h-104
v498h170q180 0 180 -154q0 -97 -92 -133l141 -201l-4 -10h-111l-131 195h-49v-195zM559 1190v-135h53q46 0 68 15.5t22 51.5q0 68 -90 68h-53z" />
    <glyph glyph-name="macron" unicode="&#xaf;" horiz-adv-x="714" 
d="M657 1231h-600v160h600v-160z" />
    <glyph glyph-name="degree" unicode="&#xb0;" horiz-adv-x="831" 
d="M416 874q-136 0 -225 91t-89 229q0 137 89 227t225 90t223.5 -90t87.5 -227q0 -139 -87.5 -229.5t-223.5 -90.5zM416 989q84 0 137 58t53 147q0 87 -53 145t-137 58t-138.5 -58t-54.5 -145q0 -88 54.5 -146.5t138.5 -58.5z" />
    <glyph glyph-name="plusminus" unicode="&#xb1;" horiz-adv-x="1368" 
d="M770 408h-174v297h-465v174h465v299h174v-299h465v-174h-465v-297zM1237 100h-1106v174h1106v-174z" />
    <glyph glyph-name="uni00B2" unicode="&#xb2;" horiz-adv-x="778" 
d="M676 942h-570l-10 55l226 250q92 99 135 169t43 124q0 49 -29.5 78t-83.5 29q-108 0 -221 -82h-10l-27 174q52 28 132.5 48.5t148.5 20.5q125 0 198.5 -69t73.5 -180q0 -174 -180 -357l-53 -53q-19 -22 -78 -64v-4q96 15 139 15h166v-154z" />
    <glyph glyph-name="uni00B3" unicode="&#xb3;" horiz-adv-x="778" 
d="M373 915q-70 0 -144 20t-127 50l29 158h10q101 -72 217 -72q64 0 100 32t36 85q0 55 -39 86t-111 31h-100v118h94q68 0 106.5 32.5t38.5 88.5q0 52 -31 81.5t-87 29.5q-112 0 -222 -76h-8l-29 152q54 31 137 54t158 23q119 0 190 -62.5t71 -164.5q0 -75 -39.5 -130.5
t-112.5 -78.5v-2q79 -20 124.5 -76.5t45.5 -130.5q0 -107 -85.5 -177.5t-221.5 -70.5z" />
    <glyph glyph-name="acute" unicode="&#xb4;" horiz-adv-x="546" 
d="M227 1174h-168l197 335h223l8 -14z" />
    <glyph glyph-name="uni00B5" unicode="&#xb5;" horiz-adv-x="1249" 
d="M1217 160l10 -6l-17 -177q-63 -18 -120 -18q-110 0 -171.5 51t-80.5 162q-156 -205 -336 -205q-74 0 -125 58l-4 -2q12 -86 12 -222v-252h-223v1457h223v-619q0 -229 156 -229q141 0 286 178v670h224v-715q0 -74 24 -106.5t78 -32.5q31 0 64 8z" />
    <glyph glyph-name="paragraph" unicode="&#xb6;" horiz-adv-x="1404" 
d="M739 0h-194v645q-188 2 -309 110t-121 275q0 199 127.5 309.5t357.5 110.5h553v-1450h-195v1282h-219v-1282z" />
    <glyph glyph-name="periodcentered" unicode="&#xb7;" horiz-adv-x="538" 
d="M270 446q-64 0 -106.5 42.5t-42.5 103.5t43 103t106 42q62 0 104 -42t42 -103q0 -60 -42.5 -103t-103.5 -43z" />
    <glyph glyph-name="cedilla" unicode="&#xb8;" horiz-adv-x="593" 
d="M270 -492q-106 0 -196 46l20 124h10q76 -49 162 -49q51 0 78 22.5t27 59.5q0 68 -86 68q-46 0 -107 -25l-18 19l100 227h135l-67 -141q24 6 53 6q63 0 106 -43t43 -109q0 -95 -69 -150t-191 -55z" />
    <glyph glyph-name="uni00B9" unicode="&#xb9;" horiz-adv-x="778" 
d="M539 942h-179v506q0 54 15 127l-4 2l-78 -47l-92 -55l-17 6l15 176l284 137h56v-852z" />
    <glyph glyph-name="ordmasculine" unicode="&#xba;" horiz-adv-x="747" 
d="M375 891q-131 0 -214 84t-83 211q0 126 82.5 209.5t214.5 83.5q130 0 212.5 -83.5t82.5 -209.5q0 -127 -83 -211t-212 -84zM375 1028q62 0 97.5 44t35.5 114q0 69 -35 112t-98 43q-65 0 -100 -42.5t-35 -112.5q0 -71 35.5 -114.5t99.5 -43.5z" />
    <glyph glyph-name="guillemotright" unicode="&#xbb;" horiz-adv-x="1024" 
d="M283 117h-177l-2 12l230 348l-225 346l2 15h174l250 -361zM676 117h-176l-2 12l229 348l-225 346l2 15h174l250 -361z" />
    <glyph glyph-name="onequarter" unicode="&#xbc;" horiz-adv-x="1843" 
d="M514 614h-176v506q0 66 12 127l-4 2q-46 -31 -76 -47l-92 -55l-16 4l12 176l287 139h53v-852zM1153 1450h190l-393 -725l-368 -725h-191l426 782zM1583 0h-174v164h-401l-17 104l422 580h170v-533h98v-151h-98v-164zM1300 461l-104 -146h217v84q0 144 17 256h-7
q-38 -74 -123 -194z" />
    <glyph glyph-name="onehalf" unicode="&#xbd;" horiz-adv-x="1843" 
d="M492 614h-179v506q0 50 15 127l-4 2q-46 -31 -76 -47l-94 -55l-15 4l13 176l286 139h54v-852zM1128 1450h191l-393 -725l-369 -725h-190l424 782zM1698 0h-570l-10 55l225 250q92 100 135.5 169.5t43.5 123.5q0 49 -29.5 78t-83.5 29q-108 0 -221 -82h-10l-27 174
q52 28 132.5 48.5t148.5 20.5q125 0 198.5 -69t73.5 -181q0 -173 -180 -356l-54 -53q-21 -24 -77 -64v-4q96 15 139 15h166v-154z" />
    <glyph glyph-name="threequarters" unicode="&#xbe;" horiz-adv-x="1843" 
d="M373 588q-71 0 -145.5 19.5t-127.5 49.5l29 158h10q104 -74 217 -74q63 0 99.5 33t36.5 86q0 55 -38.5 86t-109.5 31h-100v119h94q68 0 105.5 32.5t37.5 88.5q0 52 -31 81t-85 29q-115 0 -222 -76h-10l-27 152q56 31 137.5 54.5t157.5 23.5q118 0 189.5 -63t71.5 -165
q0 -74 -40.5 -131t-111.5 -78v-2q79 -20 123.5 -76t44.5 -132q0 -107 -85 -176.5t-220 -69.5zM1219 1450h190l-395 -725l-367 -725h-192l426 782zM1647 0h-174v164h-402l-14 104l420 580h170v-533h98v-151h-98v-164zM1364 461l-104 -146h217v84q0 150 16 256h-6
q-38 -74 -123 -194z" />
    <glyph glyph-name="questiondown" unicode="&#xbf;" horiz-adv-x="1101" 
d="M623 1047q62 0 104.5 -42.5t42.5 -101.5q0 -63 -42 -105t-105 -42q-62 0 -105 42t-43 105q0 59 43 101.5t105 42.5zM616 -266q87 0 180.5 34.5t174.5 98.5h10l27 -205q-87 -57 -198.5 -92t-211.5 -35q-187 0 -300.5 101.5t-113.5 261.5q0 122 46.5 209.5t158.5 171.5
q62 48 91.5 86t36 66t7.5 81l2 86h213l2 -94q2 -94 -37 -172.5t-137 -159.5q-89 -74 -119 -129.5t-30 -128.5q0 -82 53.5 -131t144.5 -49z" />
    <glyph glyph-name="Agrave" unicode="&#xc0;" horiz-adv-x="1404" 
d="M635 1849l188 -274h-172l-250 258l11 16h223zM586 1450h239l588 -1442l-8 -8h-256l-131 340h-635l-129 -340h-254l-8 8zM600 905l-145 -383h491l-147 383q-60 162 -97 295h-6q-39 -143 -96 -295z" />
    <glyph glyph-name="Aacute" unicode="&#xc1;" horiz-adv-x="1404" 
d="M989 1849l10 -16l-249 -258h-170l186 274h223zM586 1450h239l588 -1442l-8 -8h-256l-131 340h-635l-129 -340h-254l-8 8zM600 905l-145 -383h491l-147 383q-60 162 -97 295h-6q-39 -143 -96 -295z" />
    <glyph glyph-name="Acircumflex" unicode="&#xc2;" horiz-adv-x="1404" 
d="M702 1755l-151 -180h-162l-10 16l211 258h223l211 -258l-10 -16h-162zM586 1450h239l588 -1442l-8 -8h-256l-131 340h-635l-129 -340h-254l-8 8zM600 905l-145 -383h491l-147 383q-60 162 -97 295h-6q-39 -143 -96 -295z" />
    <glyph glyph-name="Atilde" unicode="&#xc3;" horiz-adv-x="1404" 
d="M500 1604l-15 -13h-127q17 107 74 174.5t133 67.5q44 0 93.5 -25t92 -49t70.5 -22q32 0 49 19t31 65l17 12h120q-12 -106 -68 -173.5t-134 -70.5q-45 -1 -94 24t-91 50t-71 25q-31 0 -48.5 -19t-31.5 -65zM586 1450h239l588 -1442l-8 -8h-256l-131 340h-635l-129 -340
h-254l-8 8zM600 905l-145 -383h491l-147 383q-60 162 -97 295h-6q-39 -143 -96 -295z" />
    <glyph glyph-name="Adieresis" unicode="&#xc4;" horiz-adv-x="1404" 
d="M494 1606q-57 0 -93 36.5t-36 92.5q0 54 37.5 91.5t91.5 37.5q53 0 90 -37.5t37 -91.5q0 -56 -36 -92.5t-91 -36.5zM909 1606q-57 0 -93 36.5t-36 92.5q0 54 37.5 91.5t91.5 37.5q53 0 90 -37.5t37 -91.5q0 -56 -36 -92.5t-91 -36.5zM586 1450h239l588 -1442l-8 -8h-256
l-131 340h-635l-129 -340h-254l-8 8zM600 905l-145 -383h491l-147 383q-60 162 -97 295h-6q-39 -143 -96 -295z" />
    <glyph glyph-name="Aring" unicode="&#xc5;" horiz-adv-x="1404" 
d="M700 1554q-86 0 -145 58t-59 145t59 145t145 58t146.5 -58t60.5 -145t-60.5 -145t-146.5 -58zM700 1864q-45 0 -74.5 -30.5t-29.5 -76.5q0 -45 29.5 -74.5t74.5 -29.5q47 0 77 29.5t30 74.5q0 46 -30 76.5t-77 30.5zM586 1450h239l588 -1442l-8 -8h-256l-131 340h-635
l-129 -340h-254l-8 8zM600 905l-145 -383h491l-147 383q-60 162 -97 295h-6q-39 -143 -96 -295z" />
    <glyph glyph-name="AE" unicode="&#xc6;" horiz-adv-x="1925" 
d="M1743 645h-594v-436h649l-24 -209h-861v338h-467l-186 -338h-262l-6 8l809 1442h973l24 -209h-649v-403h594v-193zM758 899l-205 -371h360v373q0 150 11 344h-6q-46 -127 -160 -346z" />
    <glyph glyph-name="Ccedilla" unicode="&#xc7;" horiz-adv-x="1523" 
d="M883 -135q63 0 106 -43t43 -109q0 -95 -69 -150t-191 -55q-107 0 -197 46l21 124h10q76 -49 162 -49q51 0 77.5 22.5t26.5 59.5q0 68 -86 68q-45 0 -106 -25l-18 19l83 192q-141 16 -259 78t-201 160t-129.5 231.5t-46.5 288.5q0 223 94 398.5t261.5 272.5t379.5 97
q274 0 522 -172l-31 -240h-10q-220 189 -469 189q-220 0 -357 -150t-137 -391q0 -243 138.5 -394t361.5 -151q247 0 469 191h10l31 -240q-233 -165 -493 -174l-50 -100q24 6 54 6z" />
    <glyph glyph-name="Egrave" unicode="&#xc8;" horiz-adv-x="1198" 
d="M557 1849l188 -274h-172l-249 258l10 16h223zM1016 645h-594v-436h649l-24 -209h-861v1450h861l24 -209h-649v-403h594v-193z" />
    <glyph glyph-name="Eacute" unicode="&#xc9;" horiz-adv-x="1198" 
d="M909 1849l11 -16l-250 -258h-170l186 274h223zM1016 645h-594v-436h649l-24 -209h-861v1450h861l24 -209h-649v-403h594v-193z" />
    <glyph glyph-name="Ecircumflex" unicode="&#xca;" horiz-adv-x="1198" 
d="M623 1755l-152 -180h-162l-10 16l211 258h223l211 -258l-10 -16h-162zM1016 645h-594v-436h649l-24 -209h-861v1450h861l24 -209h-649v-403h594v-193z" />
    <glyph glyph-name="Edieresis" unicode="&#xcb;" horiz-adv-x="1198" 
d="M416 1606q-57 0 -93 36.5t-36 92.5q0 54 37.5 91.5t91.5 37.5q53 0 90 -37.5t37 -91.5q0 -56 -36 -92.5t-91 -36.5zM831 1606q-57 0 -93 36.5t-36 92.5q0 54 37.5 91.5t91.5 37.5q53 0 90 -37.5t37 -91.5q0 -56 -36 -92.5t-91 -36.5zM1016 645h-594v-436h649l-24 -209
h-861v1450h861l24 -209h-649v-403h594v-193z" />
    <glyph glyph-name="Igrave" unicode="&#xcc;" horiz-adv-x="608" 
d="M428 1575h-172l-250 258l10 16h224zM186 0v1450h236v-1450h-236z" />
    <glyph glyph-name="Iacute" unicode="&#xcd;" horiz-adv-x="608" 
d="M352 1575h-170l187 274h223l10 -16zM186 0v1450h236v-1450h-236z" />
    <glyph glyph-name="Icircumflex" unicode="&#xce;" horiz-adv-x="608" 
d="M154 1575h-162l-10 16l211 258h223l211 -258l-11 -16h-161l-150 180zM186 0v1450h236v-1450h-236z" />
    <glyph glyph-name="Idieresis" unicode="&#xcf;" horiz-adv-x="608" 
d="M98 1606q-57 0 -93 36.5t-36 92.5q0 54 37.5 91.5t91.5 37.5q53 0 90 -37.5t37 -91.5q0 -56 -36 -92.5t-91 -36.5zM514 1606q-57 0 -93 36.5t-36 92.5q0 54 37.5 91.5t91.5 37.5q53 0 90 -37.5t37 -91.5q0 -56 -36 -92.5t-91 -36.5zM186 0v1450h236v-1450h-236z" />
    <glyph glyph-name="Eth" unicode="&#xd0;" horiz-adv-x="1554" 
d="M186 1450h432q404 0 618 -186.5t214 -532.5q0 -345 -220 -538t-612 -193h-432v651h-131v170h131v629zM422 211h174q309 0 458.5 128t149.5 396q0 257 -148 380.5t-460 123.5h-174v-418h338v-170h-338v-440z" />
    <glyph glyph-name="Ntilde" unicode="&#xd1;" horiz-adv-x="1630" 
d="M627 1591h-127q17 107 74 174.5t133 67.5q44 0 93.5 -25t92 -49t70.5 -22q32 0 48.5 18.5t30.5 65.5l17 12h121q-12 -106 -68.5 -173.5t-134.5 -70.5q-45 -1 -94 24t-91 50t-71 25q-31 0 -48.5 -19t-31.5 -65zM420 0h-234v1450h193l569 -670q172 -208 266 -331h7
q-11 169 -11 380v621h234v-1473h-131l-629 736q-143 167 -268 329h-4q8 -125 8 -385v-657z" />
    <glyph glyph-name="Ograve" unicode="&#xd2;" horiz-adv-x="1718" 
d="M981 1575h-172l-250 258l10 16h224zM858 -41q-220 0 -392 101t-264.5 275t-92.5 390q0 162 54 303t150 243t237 161t308 59q223 0 395.5 -101t264.5 -275t92 -390t-93.5 -390t-266 -275t-392.5 -101zM858 182q149 0 264 72t175.5 195t60.5 276q0 155 -60.5 278t-175 194
t-264.5 71q-226 0 -362 -152.5t-136 -390.5q0 -154 60 -276.5t174.5 -194.5t263.5 -72z" />
    <glyph glyph-name="Oacute" unicode="&#xd3;" horiz-adv-x="1718" 
d="M905 1575h-170l187 274h223l10 -16zM858 -41q-220 0 -392 101t-264.5 275t-92.5 390q0 162 54 303t150 243t237 161t308 59q223 0 395.5 -101t264.5 -275t92 -390t-93.5 -390t-266 -275t-392.5 -101zM858 182q149 0 264 72t175.5 195t60.5 276q0 155 -60.5 278t-175 194
t-264.5 71q-226 0 -362 -152.5t-136 -390.5q0 -154 60 -276.5t174.5 -194.5t263.5 -72z" />
    <glyph glyph-name="Ocircumflex" unicode="&#xd4;" horiz-adv-x="1718" 
d="M707 1575h-162l-10 16l210 258h224l211 -258l-11 -16h-161l-150 180zM858 -41q-220 0 -392 101t-264.5 275t-92.5 390q0 162 54 303t150 243t237 161t308 59q223 0 395.5 -101t264.5 -275t92 -390t-93.5 -390t-266 -275t-392.5 -101zM858 182q149 0 264 72t175.5 195
t60.5 276q0 155 -60.5 278t-175 194t-264.5 71q-226 0 -362 -152.5t-136 -390.5q0 -154 60 -276.5t174.5 -194.5t263.5 -72z" />
    <glyph glyph-name="Otilde" unicode="&#xd5;" horiz-adv-x="1718" 
d="M643 1591h-127q17 107 74 174.5t133 67.5q44 0 93.5 -25t92 -49t70.5 -22q32 0 49 19t31 65l16 12h121q-12 -106 -68.5 -173.5t-134.5 -70.5q-45 -1 -94 24t-91 50t-71 25q-31 0 -48.5 -19t-31.5 -65zM858 -41q-220 0 -392 101t-264.5 275t-92.5 390q0 162 54 303
t150 243t237 161t308 59q223 0 395.5 -101t264.5 -275t92 -390t-93.5 -390t-266 -275t-392.5 -101zM858 182q149 0 264 72t175.5 195t60.5 276q0 155 -60.5 278t-175 194t-264.5 71q-226 0 -362 -152.5t-136 -390.5q0 -154 60 -276.5t174.5 -194.5t263.5 -72z" />
    <glyph glyph-name="Odieresis" unicode="&#xd6;" horiz-adv-x="1718" 
d="M651 1606q-57 0 -93 36.5t-36 92.5q0 54 37.5 91.5t91.5 37.5q53 0 90 -37.5t37 -91.5q0 -56 -36 -92.5t-91 -36.5zM1067 1606q-57 0 -93 36.5t-36 92.5q0 54 37.5 91.5t91.5 37.5q53 0 90 -37.5t37 -91.5q0 -56 -36 -92.5t-91 -36.5zM858 -41q-220 0 -392 101
t-264.5 275t-92.5 390q0 162 54 303t150 243t237 161t308 59q223 0 395.5 -101t264.5 -275t92 -390t-93.5 -390t-266 -275t-392.5 -101zM858 182q149 0 264 72t175.5 195t60.5 276q0 155 -60.5 278t-175 194t-264.5 71q-226 0 -362 -152.5t-136 -390.5q0 -154 60 -276.5
t174.5 -194.5t263.5 -72z" />
    <glyph glyph-name="multiply" unicode="&#xd7;" horiz-adv-x="1368" 
d="M1014 1073l123 -125l-328 -327l328 -328l-123 -125l-328 330l-330 -330l-123 125l328 328l-328 327l123 125l330 -328z" />
    <glyph glyph-name="Oslash" unicode="&#xd8;" horiz-adv-x="1718" 
d="M1563 1546l-185 -248q111 -105 171.5 -253t60.5 -320q0 -216 -93.5 -390t-266 -275t-392.5 -101q-221 0 -399 104l-119 -159h-184l186 250q-111 104 -172 251.5t-61 319.5q0 162 54 303t150 243t237 161t308 59q224 0 404 -105l118 160h183zM360 725q0 -228 127 -377
l633 850q-115 70 -262 70q-226 0 -362 -152.5t-136 -390.5zM858 182q149 0 264 72t175.5 195t60.5 276q0 227 -125 377l-635 -850q115 -70 260 -70z" />
    <glyph glyph-name="Ugrave" unicode="&#xd9;" horiz-adv-x="1517" 
d="M883 1575h-172l-250 258l10 16h223zM760 -41q-586 0 -586 625v866h236v-850q0 -218 84 -319t266 -101q180 0 264 101.5t84 320.5v848h235v-862q0 -303 -148.5 -466t-434.5 -163z" />
    <glyph glyph-name="Uacute" unicode="&#xda;" horiz-adv-x="1517" 
d="M807 1575h-170l186 274h224l10 -16zM760 -41q-586 0 -586 625v866h236v-850q0 -218 84 -319t266 -101q180 0 264 101.5t84 320.5v848h235v-862q0 -303 -148.5 -466t-434.5 -163z" />
    <glyph glyph-name="Ucircumflex" unicode="&#xdb;" horiz-adv-x="1517" 
d="M608 1575h-162l-10 16l211 258h223l211 -258l-10 -16h-162l-149 180zM760 -41q-586 0 -586 625v866h236v-850q0 -218 84 -319t266 -101q180 0 264 101.5t84 320.5v848h235v-862q0 -303 -148.5 -466t-434.5 -163z" />
    <glyph glyph-name="Udieresis" unicode="&#xdc;" horiz-adv-x="1517" 
d="M553 1606q-57 0 -93 36.5t-36 92.5q0 54 37.5 91.5t91.5 37.5q53 0 90 -37.5t37 -91.5q0 -56 -36 -92.5t-91 -36.5zM969 1606q-57 0 -93 36.5t-36 92.5q0 54 37.5 91.5t91.5 37.5q53 0 90 -37.5t37 -91.5q0 -56 -36 -92.5t-91 -36.5zM760 -41q-586 0 -586 625v866h236
v-850q0 -218 84 -319t266 -101q180 0 264 101.5t84 320.5v848h235v-862q0 -303 -148.5 -466t-434.5 -163z" />
    <glyph glyph-name="Yacute" unicode="&#xdd;" horiz-adv-x="1269" 
d="M684 1575h-170l186 274h224l10 -16zM16 1450h267l200 -369q61 -115 150 -297h6q100 205 149 295l199 371h266l7 -8l-506 -854v-588h-238v588l-506 854z" />
    <glyph glyph-name="Thorn" unicode="&#xde;" horiz-adv-x="1222" 
d="M422 1188h223q251 0 380.5 -116t129.5 -335q0 -203 -131.5 -321.5t-366.5 -118.5h-235v-297h-236v1450h236v-262zM422 496h190q159 0 234.5 59.5t75.5 183.5q0 128 -75.5 188t-234.5 60h-190v-491z" />
    <glyph glyph-name="germandbls" unicode="&#xdf;" horiz-adv-x="1228" 
d="M813 786v-4q151 -29 238.5 -136.5t87.5 -256.5q0 -183 -118 -306.5t-304 -123.5q-111 0 -201 37l19 184l12 8q61 -34 153 -34q96 0 153.5 65.5t57.5 177.5q0 129 -84.5 206t-230.5 77h-43v170h45q103 0 160.5 67t58.5 197q0 113 -59 178.5t-158 65.5q-111 0 -163 -74.5
t-52 -236.5v-1047h-223v1040q0 506 440 506q190 0 307.5 -110t116.5 -295q0 -132 -57 -226.5t-156 -128.5z" />
    <glyph glyph-name="agrave" unicode="&#xe0;" horiz-adv-x="1075" 
d="M461 1509l196 -335h-168l-262 321l11 14h223zM369 -41q-133 0 -208 70t-75 196q0 168 141.5 261.5t464.5 134.5v57q-2 97 -42 139.5t-132 42.5q-80 0 -173.5 -36.5t-162.5 -94.5h-10l-27 195q87 54 200.5 88.5t209.5 34.5q358 0 358 -347v-700h-182l-20 129
q-90 -93 -168 -131.5t-174 -38.5zM426 125q62 0 125 31.5t141 99.5v223q-155 -23 -241.5 -55t-118 -72.5t-31.5 -103.5q0 -123 125 -123z" />
    <glyph glyph-name="aacute" unicode="&#xe1;" horiz-adv-x="1075" 
d="M598 1174h-168l195 335h223l10 -14zM369 -41q-133 0 -208 70t-75 196q0 168 141.5 261.5t464.5 134.5v57q-2 97 -42 139.5t-132 42.5q-80 0 -173.5 -36.5t-162.5 -94.5h-10l-27 195q87 54 200.5 88.5t209.5 34.5q358 0 358 -347v-700h-182l-20 129q-90 -93 -168 -131.5
t-174 -38.5zM426 125q62 0 125 31.5t141 99.5v223q-155 -23 -241.5 -55t-118 -72.5t-31.5 -103.5q0 -123 125 -123z" />
    <glyph glyph-name="acircumflex" unicode="&#xe2;" horiz-adv-x="1075" 
d="M692 1174l-147 219l-150 -219h-162l-12 18l215 317h215l217 -317l-14 -18h-162zM369 -41q-133 0 -208 70t-75 196q0 168 141.5 261.5t464.5 134.5v57q-2 97 -42 139.5t-132 42.5q-80 0 -173.5 -36.5t-162.5 -94.5h-10l-27 195q87 54 200.5 88.5t209.5 34.5
q358 0 358 -347v-700h-182l-20 129q-90 -93 -168 -131.5t-174 -38.5zM426 125q62 0 125 31.5t141 99.5v223q-155 -23 -241.5 -55t-118 -72.5t-31.5 -103.5q0 -123 125 -123z" />
    <glyph glyph-name="atilde" unicode="&#xe3;" horiz-adv-x="1075" 
d="M338 1190h-131q15 108 71.5 176t131.5 68q44 0 92.5 -25t89 -50t65.5 -24q29 1 45.5 20.5t30.5 65.5l15 13h126q-12 -108 -67 -175.5t-131 -70.5q-45 -2 -93 22t-88 49t-65 25q-30 0 -47 -18.5t-31 -63.5zM369 -41q-133 0 -208 70t-75 196q0 168 141.5 261.5t464.5 134.5
v57q-2 97 -42 139.5t-132 42.5q-80 0 -173.5 -36.5t-162.5 -94.5h-10l-27 195q87 54 200.5 88.5t209.5 34.5q358 0 358 -347v-700h-182l-20 129q-90 -93 -168 -131.5t-174 -38.5zM426 125q62 0 125 31.5t141 99.5v223q-155 -23 -241.5 -55t-118 -72.5t-31.5 -103.5
q0 -123 125 -123z" />
    <glyph glyph-name="adieresis" unicode="&#xe4;" horiz-adv-x="1075" 
d="M354 1204q-56 0 -90.5 36t-34.5 91t36 93t89 38q55 0 91 -38t36 -93t-35.5 -91t-91.5 -36zM735 1204q-57 0 -92 36t-35 91t36 93t91 38q53 0 89 -38t36 -93t-34.5 -91t-90.5 -36zM369 -41q-133 0 -208 70t-75 196q0 168 141.5 261.5t464.5 134.5v57q-2 97 -42 139.5
t-132 42.5q-80 0 -173.5 -36.5t-162.5 -94.5h-10l-27 195q87 54 200.5 88.5t209.5 34.5q358 0 358 -347v-700h-182l-20 129q-90 -93 -168 -131.5t-174 -38.5zM426 125q62 0 125 31.5t141 99.5v223q-155 -23 -241.5 -55t-118 -72.5t-31.5 -103.5q0 -123 125 -123z" />
    <glyph glyph-name="aring" unicode="&#xe5;" horiz-adv-x="1075" 
d="M543 1153q-85 0 -145 59t-60 146q0 86 60 144.5t145 58.5t146 -58.5t61 -144.5q0 -87 -60.5 -146t-146.5 -59zM543 1251q46 0 76 31t30 76t-29.5 75.5t-76.5 30.5q-45 0 -75 -30.5t-30 -75.5t30 -76t75 -31zM369 -41q-133 0 -208 70t-75 196q0 168 141.5 261.5
t464.5 134.5v57q-2 97 -42 139.5t-132 42.5q-80 0 -173.5 -36.5t-162.5 -94.5h-10l-27 195q87 54 200.5 88.5t209.5 34.5q358 0 358 -347v-700h-182l-20 129q-90 -93 -168 -131.5t-174 -38.5zM426 125q62 0 125 31.5t141 99.5v223q-155 -23 -241.5 -55t-118 -72.5
t-31.5 -103.5q0 -123 125 -123z" />
    <glyph glyph-name="ae" unicode="&#xe6;" horiz-adv-x="1746" 
d="M371 -41q-134 0 -209.5 69t-75.5 187q0 157 141.5 244.5t470.5 130.5v78q0 103 -40.5 147.5t-135.5 44.5q-76 0 -171 -34t-167 -97h-10l-27 195q85 54 198.5 88.5t209.5 34.5q222 0 297 -179h4q62 86 150.5 132.5t191.5 46.5q211 0 334 -144t123 -391q0 -25 -2 -45h-719
q1 -151 79 -237.5t208 -86.5q205 0 338 125h10l24 -192q-80 -54 -182.5 -85.5t-206.5 -31.5q-134 0 -239.5 54t-169.5 151q-183 -205 -424 -205zM938 604l498 -2q-6 127 -70.5 197.5t-171.5 70.5q-104 0 -172.5 -70.5t-83.5 -195.5zM432 117q76 0 159 44t148 111
q-34 98 -37 191q-226 -33 -313.5 -80.5t-87.5 -144.5q0 -58 34.5 -89.5t96.5 -31.5z" />
    <glyph glyph-name="ccedilla" unicode="&#xe7;" horiz-adv-x="1032" 
d="M666 -135q63 0 106 -43t43 -109q0 -95 -69 -150t-191 -55q-107 0 -197 46l21 124h10q76 -49 162 -49q51 0 77.5 22.5t26.5 59.5q0 68 -86 68q-45 0 -106 -25l-19 19l84 188q-199 19 -317.5 165t-118.5 372q0 244 139.5 396.5t368.5 152.5q173 0 334 -103l-29 -207h-10
q-131 117 -279 117q-133 0 -215 -95.5t-82 -258.5q0 -158 80.5 -254t204.5 -96q156 0 295 120h8l29 -198q-125 -86 -272 -107l-52 -106q24 6 54 6z" />
    <glyph glyph-name="egrave" unicode="&#xe8;" horiz-adv-x="1136" 
d="M502 1509l196 -335h-168l-262 321l11 14h223zM1044 512q0 -34 -4 -61h-718q3 -143 82.5 -225.5t205.5 -82.5q204 0 340 125h11l24 -192q-82 -54 -184 -85.5t-205 -31.5q-235 0 -369.5 148t-134.5 393q0 242 135.5 394.5t354.5 152.5q215 0 338.5 -143.5t123.5 -391.5z
M326 604l499 -2q-7 127 -70.5 197.5t-168.5 70.5t-176 -71.5t-84 -194.5z" />
    <glyph glyph-name="eacute" unicode="&#xe9;" horiz-adv-x="1136" 
d="M889 1509l10 -14l-260 -321h-168l195 335h223zM1044 512q0 -34 -4 -61h-718q3 -143 82.5 -225.5t205.5 -82.5q204 0 340 125h11l24 -192q-82 -54 -184 -85.5t-205 -31.5q-235 0 -369.5 148t-134.5 393q0 242 135.5 394.5t354.5 152.5q215 0 338.5 -143.5t123.5 -391.5z
M326 604l499 -2q-7 127 -70.5 197.5t-168.5 70.5t-176 -71.5t-84 -194.5z" />
    <glyph glyph-name="ecircumflex" unicode="&#xea;" horiz-adv-x="1136" 
d="M586 1393l-150 -219h-162l-12 18l215 317h215l217 -317l-14 -18h-162zM1044 512q0 -34 -4 -61h-718q3 -143 82.5 -225.5t205.5 -82.5q204 0 340 125h11l24 -192q-82 -54 -184 -85.5t-205 -31.5q-235 0 -369.5 148t-134.5 393q0 242 135.5 394.5t354.5 152.5
q215 0 338.5 -143.5t123.5 -391.5zM326 604l499 -2q-7 127 -70.5 197.5t-168.5 70.5t-176 -71.5t-84 -194.5z" />
    <glyph glyph-name="edieresis" unicode="&#xeb;" horiz-adv-x="1136" 
d="M393 1204q-56 0 -90.5 36t-34.5 91t36 93t89 38q55 0 91 -38t36 -93t-35.5 -91t-91.5 -36zM774 1204q-57 0 -92 36t-35 91t36 93t91 38q53 0 89 -38t36 -93t-34.5 -91t-90.5 -36zM1044 512q0 -34 -4 -61h-718q3 -143 82.5 -225.5t205.5 -82.5q204 0 340 125h11l24 -192
q-82 -54 -184 -85.5t-205 -31.5q-235 0 -369.5 148t-134.5 393q0 242 135.5 394.5t354.5 152.5q215 0 338.5 -143.5t123.5 -391.5zM326 604l499 -2q-7 127 -70.5 197.5t-168.5 70.5t-176 -71.5t-84 -194.5z" />
    <glyph glyph-name="igrave" unicode="&#xec;" horiz-adv-x="546" 
d="M190 1509l197 -335h-168l-262 321l10 14h223zM385 0h-223v1006h223v-1006z" />
    <glyph glyph-name="iacute" unicode="&#xed;" horiz-adv-x="546" 
d="M328 1174h-168l194 335h224l10 -14zM385 0h-223v1006h223v-1006z" />
    <glyph glyph-name="icircumflex" unicode="&#xee;" horiz-adv-x="546" 
d="M422 1174l-148 219l-149 -219h-162l-12 18l215 317h215l217 -317l-14 -18h-162zM385 0h-223v1006h223v-1006z" />
    <glyph glyph-name="idieresis" unicode="&#xef;" horiz-adv-x="546" 
d="M82 1204q-56 0 -90.5 36t-34.5 91t36 93t89 38q55 0 91 -38t36 -93t-35.5 -91t-91.5 -36zM463 1204q-57 0 -92 36t-35 91t36 93t91 38q53 0 89 -38t36 -93t-34.5 -91t-90.5 -36zM385 0h-223v1006h223v-1006z" />
    <glyph glyph-name="eth" unicode="&#xf0;" horiz-adv-x="1234" 
d="M1069 1303l-172 -58q234 -296 231 -645q0 -307 -142 -474t-388 -167q-237 0 -371.5 137t-134.5 359q0 233 129.5 372.5t333.5 139.5q84 0 169.5 -32t156.5 -89q-58 171 -193 330l-235 -80l-39 114l186 62q-109 112 -250 223l4 10h279q107 -86 178 -162l219 74zM590 156
q350 0 317 512q-83 55 -153 78.5t-150 23.5q-130 0 -207.5 -84t-77.5 -231q0 -135 73 -217t198 -82z" />
    <glyph glyph-name="ntilde" unicode="&#xf1;" horiz-adv-x="1230" 
d="M442 1202l-14 -12h-131q15 108 71.5 176t131.5 68q35 0 73.5 -15.5t66 -34.5t57.5 -34.5t51 -14.5q29 1 45 20.5t30 65.5l15 13h127q-12 -108 -67.5 -175.5t-131.5 -70.5q-45 -2 -93 22t-88 49t-65 25q-30 0 -47 -18.5t-31 -63.5zM748 1047q154 0 237.5 -98.5
t83.5 -282.5v-666h-223v614q0 122 -41.5 179t-128.5 57q-142 0 -291 -156v-694h-223v1006h196l11 -152q178 193 379 193z" />
    <glyph glyph-name="ograve" unicode="&#xf2;" horiz-adv-x="1236" 
d="M539 1509l196 -335h-168l-262 321l10 14h224zM618 -41q-236 0 -381 152.5t-145 390.5q0 236 145.5 390.5t380.5 154.5t382 -154.5t147 -390.5q0 -238 -146 -390.5t-383 -152.5zM618 156q138 0 220 95.5t82 250.5q0 154 -82 251t-220 97q-137 0 -218 -96.5t-81 -251.5
q0 -156 80.5 -251t218.5 -95z" />
    <glyph glyph-name="oacute" unicode="&#xf3;" horiz-adv-x="1236" 
d="M674 1174h-168l194 335h224l10 -14zM618 -41q-236 0 -381 152.5t-145 390.5q0 236 145.5 390.5t380.5 154.5t382 -154.5t147 -390.5q0 -238 -146 -390.5t-383 -152.5zM618 156q138 0 220 95.5t82 250.5q0 154 -82 251t-220 97q-137 0 -218 -96.5t-81 -251.5
q0 -156 80.5 -251t218.5 -95z" />
    <glyph glyph-name="ocircumflex" unicode="&#xf4;" horiz-adv-x="1236" 
d="M768 1174l-147 219l-150 -219h-162l-12 18l215 317h215l217 -317l-14 -18h-162zM618 -41q-236 0 -381 152.5t-145 390.5q0 236 145.5 390.5t380.5 154.5t382 -154.5t147 -390.5q0 -238 -146 -390.5t-383 -152.5zM618 156q138 0 220 95.5t82 250.5q0 154 -82 251t-220 97
q-137 0 -218 -96.5t-81 -251.5q0 -156 80.5 -251t218.5 -95z" />
    <glyph glyph-name="otilde" unicode="&#xf5;" horiz-adv-x="1236" 
d="M416 1190h-131q15 108 71 176t131 68q35 0 73.5 -15.5t66 -34.5t57.5 -34.5t51 -14.5q29 1 45.5 20.5t30.5 65.5l14 13h127q-12 -108 -67 -175.5t-131 -70.5q-45 -2 -93 22t-88 49t-65 25q-30 0 -47 -18.5t-31 -63.5zM618 -41q-236 0 -381 152.5t-145 390.5
q0 236 145.5 390.5t380.5 154.5t382 -154.5t147 -390.5q0 -238 -146 -390.5t-383 -152.5zM618 156q138 0 220 95.5t82 250.5q0 154 -82 251t-220 97q-137 0 -218 -96.5t-81 -251.5q0 -156 80.5 -251t218.5 -95z" />
    <glyph glyph-name="odieresis" unicode="&#xf6;" horiz-adv-x="1236" 
d="M430 1204q-56 0 -90.5 36t-34.5 91t36 93t89 38q55 0 91 -38t36 -93t-35.5 -91t-91.5 -36zM811 1204q-57 0 -92 36t-35 91t36 93t91 38q53 0 89 -38t36 -93t-34.5 -91t-90.5 -36zM618 -41q-236 0 -381 152.5t-145 390.5q0 236 145.5 390.5t380.5 154.5t382 -154.5
t147 -390.5q0 -238 -146 -390.5t-383 -152.5zM618 156q138 0 220 95.5t82 250.5q0 154 -82 251t-220 97q-137 0 -218 -96.5t-81 -251.5q0 -156 80.5 -251t218.5 -95z" />
    <glyph glyph-name="divide" unicode="&#xf7;" horiz-adv-x="1368" 
d="M684 842q-56 0 -94.5 39t-38.5 94q0 56 38 94.5t95 38.5t95 -38.5t38 -94.5q0 -55 -38.5 -94t-94.5 -39zM1237 532h-1106v177h1106v-177zM684 133q-57 0 -95 39t-38 96q0 56 38 93.5t95 37.5t95 -37.5t38 -93.5q0 -57 -38 -96t-95 -39z" />
    <glyph glyph-name="oslash" unicode="&#xf8;" horiz-adv-x="1236" 
d="M1145 1081l-146 -186q148 -154 148 -393q0 -238 -146 -390.5t-383 -152.5q-159 0 -290 78l-88 -113h-144l144 185q-148 151 -148 393q0 236 145.5 390.5t380.5 154.5q164 0 293 -80l90 114h144zM313 502q0 -135 60 -223l413 528q-68 47 -168 47q-141 0 -223 -97.5
t-82 -254.5zM618 152q143 0 224.5 95.5t81.5 254.5q0 131 -58 223l-413 -528q70 -45 165 -45z" />
    <glyph glyph-name="ugrave" unicode="&#xf9;" horiz-adv-x="1210" 
d="M522 1509l197 -335h-168l-262 321l10 14h223zM825 338v668h224v-1006h-199l-12 178q-165 -219 -371 -219q-143 0 -224 100.5t-81 290.5v656h223v-621q0 -227 156 -227q69 0 142.5 47t141.5 133z" />
    <glyph glyph-name="uacute" unicode="&#xfa;" horiz-adv-x="1210" 
d="M907 1509l11 -14l-261 -321h-168l195 335h223zM825 338v668h224v-1006h-199l-12 178q-165 -219 -371 -219q-143 0 -224 100.5t-81 290.5v656h223v-621q0 -227 156 -227q69 0 142.5 47t141.5 133z" />
    <glyph glyph-name="ucircumflex" unicode="&#xfb;" horiz-adv-x="1210" 
d="M604 1393l-149 -219h-162l-12 18l215 317h215l217 -317l-15 -18h-161zM825 338v668h224v-1006h-199l-12 178q-165 -219 -371 -219q-143 0 -224 100.5t-81 290.5v656h223v-621q0 -227 156 -227q69 0 142.5 47t141.5 133z" />
    <glyph glyph-name="udieresis" unicode="&#xfc;" horiz-adv-x="1210" 
d="M414 1204q-56 0 -90.5 36t-34.5 91t36 93t89 38q55 0 91 -38t36 -93t-35.5 -91t-91.5 -36zM795 1204q-57 0 -92 36t-35 91t36 93t91 38q53 0 89 -38t36 -93t-34.5 -91t-90.5 -36zM825 338v668h224v-1006h-199l-12 178q-165 -219 -371 -219q-143 0 -224 100.5t-81 290.5
v656h223v-621q0 -227 156 -227q69 0 142.5 47t141.5 133z" />
    <glyph glyph-name="yacute" unicode="&#xfd;" horiz-adv-x="1062" 
d="M594 1174h-168l195 335h223l10 -14zM37 1006h246l108 -328q94 -266 139 -404h5l151 404l117 328h241l7 -7l-617 -1450h-229v7l209 479l-385 964z" />
    <glyph glyph-name="thorn" unicode="&#xfe;" horiz-adv-x="1232" 
d="M709 1047q194 0 311 -146t117 -389q0 -239 -132 -396t-333 -157q-153 0 -287 92v-502h-223v1956h223v-596q157 138 324 138zM618 154q132 0 211.5 97.5t79.5 260.5q0 158 -71 249t-195 91q-137 0 -258 -109v-522q117 -67 233 -67z" />
    <glyph glyph-name="ydieresis" unicode="&#xff;" horiz-adv-x="1062" 
d="M350 1204q-56 0 -90.5 36t-34.5 91t36 93t89 38q55 0 91 -38t36 -93t-35.5 -91t-91.5 -36zM731 1204q-57 0 -92 36t-35 91t36 93t91 38q53 0 89 -38t36 -93t-34.5 -91t-90.5 -36zM37 1006h246l108 -328q94 -266 139 -404h5l151 404l117 328h241l7 -7l-617 -1450h-229v7
l209 479l-385 964z" />
    <glyph glyph-name="Amacron" unicode="&#x100;" horiz-adv-x="1404" 
d="M406 1802h591v-157h-591v157zM586 1450h239l588 -1442l-8 -8h-256l-131 340h-635l-129 -340h-254l-8 8zM600 905l-145 -383h491l-147 383q-60 162 -97 295h-6q-39 -143 -96 -295z" />
    <glyph glyph-name="amacron" unicode="&#x101;" horiz-adv-x="1075" 
d="M844 1231h-598v160h598v-160zM369 -41q-133 0 -208 70t-75 196q0 168 141.5 261.5t464.5 134.5v57q-2 97 -42 139.5t-132 42.5q-80 0 -173.5 -36.5t-162.5 -94.5h-10l-27 195q87 54 200.5 88.5t209.5 34.5q358 0 358 -347v-700h-182l-20 129q-90 -93 -168 -131.5
t-174 -38.5zM426 125q62 0 125 31.5t141 99.5v223q-155 -23 -241.5 -55t-118 -72.5t-31.5 -103.5q0 -123 125 -123z" />
    <glyph glyph-name="Abreve" unicode="&#x102;" horiz-adv-x="1404" 
d="M702 1573q-144 0 -231 71t-98 195l16 16h131q27 -137 182 -137q158 0 185 137h129l16 -16q-9 -124 -96.5 -195t-233.5 -71zM586 1450h239l588 -1442l-8 -8h-256l-131 340h-635l-129 -340h-254l-8 8zM600 905l-145 -383h491l-147 383q-60 162 -97 295h-6
q-39 -143 -96 -295z" />
    <glyph glyph-name="abreve" unicode="&#x103;" horiz-adv-x="1075" 
d="M545 1180q-137 0 -226 74.5t-100 195.5l19 16h129q26 -139 178 -139t178 139h131l16 -16q-9 -121 -97.5 -195.5t-227.5 -74.5zM369 -41q-133 0 -208 70t-75 196q0 168 141.5 261.5t464.5 134.5v57q-2 97 -42 139.5t-132 42.5q-80 0 -173.5 -36.5t-162.5 -94.5h-10
l-27 195q87 54 200.5 88.5t209.5 34.5q358 0 358 -347v-700h-182l-20 129q-90 -93 -168 -131.5t-174 -38.5zM426 125q62 0 125 31.5t141 99.5v223q-155 -23 -241.5 -55t-118 -72.5t-31.5 -103.5q0 -123 125 -123z" />
    <glyph glyph-name="Aogonek" unicode="&#x104;" horiz-adv-x="1404" 
d="M1397 -289h8l18 -131q-92 -45 -188 -45q-93 0 -147 48t-54 128q0 84 52.5 159.5t142.5 129.5h-80l-131 340h-635l-129 -340h-254l-8 8l594 1442h239l588 -1442l-8 -8h-47q-166 -134 -166 -256q0 -74 82 -74q69 0 123 41zM600 905l-145 -383h491l-147 383q-60 162 -97 295
h-6q-39 -143 -96 -295z" />
    <glyph glyph-name="aogonek" unicode="&#x105;" horiz-adv-x="1075" 
d="M926 -289h8l18 -131q-92 -45 -188 -45q-93 0 -147 48t-54 128q0 84 52.5 159.5t142.5 129.5h-27l-20 129q-90 -93 -168 -131.5t-174 -38.5q-133 0 -208 70t-75 196q0 168 141.5 261.5t464.5 134.5v57q-2 97 -42 139.5t-132 42.5q-80 0 -173.5 -36.5t-162.5 -94.5h-10
l-27 195q87 54 200.5 88.5t209.5 34.5q358 0 358 -347v-700h-26q-166 -134 -166 -256q0 -74 82 -74q69 0 123 41zM692 256v223q-155 -23 -241.5 -55t-118 -72.5t-31.5 -103.5q0 -123 125 -123q62 0 125 31.5t141 99.5z" />
    <glyph glyph-name="Cacute" unicode="&#x106;" horiz-adv-x="1523" 
d="M885 1575h-170l186 274h223l11 -16zM846 -41q-215 0 -382.5 96t-261 270t-93.5 398q0 223 94 398.5t261.5 272.5t379.5 97q274 0 522 -172l-31 -240h-10q-220 189 -469 189q-220 0 -357 -150t-137 -391q0 -243 138.5 -394t361.5 -151q247 0 469 191h10l31 -240
q-245 -174 -526 -174z" />
    <glyph glyph-name="cacute" unicode="&#x107;" horiz-adv-x="1032" 
d="M631 1174h-168l194 335h224l10 -14zM582 -41q-222 0 -356 148.5t-134 390.5q0 244 139.5 396.5t368.5 152.5q173 0 334 -103l-29 -207h-10q-131 117 -279 117q-133 0 -215 -95.5t-82 -258.5q0 -158 80.5 -254t204.5 -96q156 0 295 120h8l29 -198q-165 -113 -354 -113z
" />
    <glyph glyph-name="Cdotaccent" unicode="&#x10a;" horiz-adv-x="1523" 
d="M838 1604q-60 0 -99 38t-39 97q0 57 39 95t99 38q61 0 100 -38t39 -95q0 -59 -39 -97t-100 -38zM846 -41q-215 0 -382.5 96t-261 270t-93.5 398q0 223 94 398.5t261.5 272.5t379.5 97q274 0 522 -172l-31 -240h-10q-220 189 -469 189q-220 0 -357 -150t-137 -391
q0 -243 138.5 -394t361.5 -151q247 0 469 191h10l31 -240q-245 -174 -526 -174z" />
    <glyph glyph-name="cdotaccent" unicode="&#x10b;" horiz-adv-x="1032" 
d="M575 1196q-61 0 -101 38t-40 97q0 57 40.5 96t100.5 39q61 0 102.5 -39t41.5 -96q0 -59 -41 -97t-103 -38zM582 -41q-222 0 -356 148.5t-134 390.5q0 244 139.5 396.5t368.5 152.5q173 0 334 -103l-29 -207h-10q-131 117 -279 117q-133 0 -215 -95.5t-82 -258.5
q0 -158 80.5 -254t204.5 -96q156 0 295 120h8l29 -198q-165 -113 -354 -113z" />
    <glyph glyph-name="Ccaron" unicode="&#x10c;" horiz-adv-x="1523" 
d="M948 1575h-223l-211 256l10 18h162l152 -180l149 180h162l10 -18zM846 -41q-215 0 -382.5 96t-261 270t-93.5 398q0 223 94 398.5t261.5 272.5t379.5 97q274 0 522 -172l-31 -240h-10q-220 189 -469 189q-220 0 -357 -150t-137 -391q0 -243 138.5 -394t361.5 -151
q247 0 469 191h10l31 -240q-245 -174 -526 -174z" />
    <glyph glyph-name="ccaron" unicode="&#x10d;" horiz-adv-x="1032" 
d="M428 1509l150 -219l147 219h162l14 -16l-217 -319h-215l-215 319l12 16h162zM582 -41q-222 0 -356 148.5t-134 390.5q0 244 139.5 396.5t368.5 152.5q173 0 334 -103l-29 -207h-10q-131 117 -279 117q-133 0 -215 -95.5t-82 -258.5q0 -158 80.5 -254t204.5 -96
q156 0 295 120h8l29 -198q-165 -113 -354 -113z" />
    <glyph glyph-name="Dcaron" unicode="&#x10e;" horiz-adv-x="1554" 
d="M834 1575h-224l-211 256l11 18h161l152 -180l149 180h162l10 -18zM618 0h-432v1450h432q404 0 618 -186.5t214 -532.5q0 -345 -220 -538t-612 -193zM422 1239v-1028h174q309 0 458.5 128t149.5 396q0 257 -148 380.5t-460 123.5h-174z" />
    <glyph glyph-name="dcaron" unicode="&#x10f;" horiz-adv-x="1382" 
d="M836 961v544h223v-1505h-197l-12 94q-156 -135 -320 -135q-197 0 -316.5 146t-119.5 391q0 236 133.5 393.5t329.5 157.5q145 0 279 -86zM1223 1505h190l12 -18l-112 -379h-148zM322 496q0 -160 71.5 -251t200.5 -91q125 0 242 102v535q-107 59 -222 59
q-132 0 -212 -96.5t-80 -257.5z" />
    <glyph glyph-name="Dcroat" unicode="&#x110;" horiz-adv-x="1554" 
d="M186 1450h432q404 0 618 -186.5t214 -532.5q0 -345 -220 -538t-612 -193h-432v651h-131v170h131v629zM422 211h174q309 0 458.5 128t149.5 396q0 257 -148 380.5t-460 123.5h-174v-418h338v-170h-338v-440z" />
    <glyph glyph-name="dcroat" unicode="&#x111;" horiz-adv-x="1220" 
d="M1059 1343h129v-149h-129v-1194h-197l-12 94q-156 -135 -320 -135q-197 0 -316.5 146t-119.5 391q0 236 133.5 393.5t329.5 157.5q145 0 279 -86v233h-314v149h314v162h223v-162zM322 496q0 -160 71.5 -251t200.5 -91q125 0 242 102v535q-107 59 -222 59
q-132 0 -212 -96.5t-80 -257.5z" />
    <glyph glyph-name="Emacron" unicode="&#x112;" horiz-adv-x="1198" 
d="M328 1802h592v-157h-592v157zM1016 645h-594v-436h649l-24 -209h-861v1450h861l24 -209h-649v-403h594v-193z" />
    <glyph glyph-name="emacron" unicode="&#x113;" horiz-adv-x="1136" 
d="M285 1391h598v-160h-598v160zM1044 512q0 -34 -4 -61h-718q3 -143 82.5 -225.5t205.5 -82.5q204 0 340 125h11l24 -192q-82 -54 -184 -85.5t-205 -31.5q-235 0 -369.5 148t-134.5 393q0 242 135.5 394.5t354.5 152.5q215 0 338.5 -143.5t123.5 -391.5zM326 604l499 -2
q-7 127 -70.5 197.5t-168.5 70.5t-176 -71.5t-84 -194.5z" />
    <glyph glyph-name="Edotaccent" unicode="&#x116;" horiz-adv-x="1198" 
d="M623 1604q-60 0 -99 38t-39 97q0 57 39 95t99 38q61 0 100 -38t39 -95q0 -59 -39 -97t-100 -38zM1016 645h-594v-436h649l-24 -209h-861v1450h861l24 -209h-649v-403h594v-193z" />
    <glyph glyph-name="edotaccent" unicode="&#x117;" horiz-adv-x="1136" 
d="M584 1196q-61 0 -101.5 38t-40.5 97q0 57 41 96t101 39q61 0 102 -39t41 -96q0 -60 -40.5 -97.5t-102.5 -37.5zM1044 512q0 -34 -4 -61h-718q3 -143 82.5 -225.5t205.5 -82.5q204 0 340 125h11l24 -192q-82 -54 -184 -85.5t-205 -31.5q-235 0 -369.5 148t-134.5 393
q0 242 135.5 394.5t354.5 152.5q215 0 338.5 -143.5t123.5 -391.5zM326 604l499 -2q-7 127 -70.5 197.5t-168.5 70.5t-176 -71.5t-84 -194.5z" />
    <glyph glyph-name="Eogonek" unicode="&#x118;" horiz-adv-x="1198" 
d="M1016 645h-594v-436h649l-24 -209h-68q-166 -134 -166 -256q0 -74 82 -74q69 0 123 41h8l18 -131q-92 -45 -188 -45q-93 0 -147 48t-54 128q0 84 52.5 159.5t142.5 129.5h-664v1450h861l24 -209h-649v-403h594v-193z" />
    <glyph glyph-name="eogonek" unicode="&#x119;" horiz-adv-x="1136" 
d="M1044 512q0 -34 -4 -61h-718q3 -143 82.5 -225.5t205.5 -82.5q204 0 340 125h11l24 -192q-71 -47 -160 -78q-163 -131 -163 -254q0 -74 81 -74q69 0 123 41h8l19 -131q-92 -45 -188 -45q-93 0 -147 48t-54 128q0 139 137 250q-14 -2 -45 -2q-235 0 -369.5 148t-134.5 393
q0 242 135.5 394.5t354.5 152.5q215 0 338.5 -143.5t123.5 -391.5zM326 604l499 -2q-7 127 -70.5 197.5t-168.5 70.5t-176 -71.5t-84 -194.5z" />
    <glyph glyph-name="Ecaron" unicode="&#x11a;" horiz-adv-x="1198" 
d="M944 1831l-211 -256h-223l-211 256l10 18h162l152 -180l149 180h162zM1016 645h-594v-436h649l-24 -209h-861v1450h861l24 -209h-649v-403h594v-193z" />
    <glyph glyph-name="ecaron" unicode="&#x11b;" horiz-adv-x="1136" 
d="M909 1493l-217 -319h-215l-215 319l12 16h162l150 -219l147 219h162zM1044 512q0 -34 -4 -61h-718q3 -143 82.5 -225.5t205.5 -82.5q204 0 340 125h11l24 -192q-82 -54 -184 -85.5t-205 -31.5q-235 0 -369.5 148t-134.5 393q0 242 135.5 394.5t354.5 152.5
q215 0 338.5 -143.5t123.5 -391.5zM326 604l499 -2q-7 127 -70.5 197.5t-168.5 70.5t-176 -71.5t-84 -194.5z" />
    <glyph glyph-name="Gbreve" unicode="&#x11e;" horiz-adv-x="1617" 
d="M848 1573q-144 0 -231.5 71t-98.5 195l17 16h131q27 -137 182 -137q157 0 184 137h129l17 -16q-9 -124 -96.5 -195t-233.5 -71zM844 -41q-222 0 -390 99t-256.5 271t-88.5 392q0 222 96 397.5t271 274t398 98.5q295 0 570 -186l-37 -238h-8q-253 201 -512 201
q-242 0 -383.5 -151.5t-141.5 -393.5q0 -240 135 -392.5t359 -152.5q194 0 361 96v316h-381v190h600v-639q-283 -182 -592 -182z" />
    <glyph glyph-name="gbreve" unicode="&#x11f;" horiz-adv-x="1218" 
d="M625 1180q-137 0 -226 74.5t-100 195.5l18 16h129q26 -139 179 -139q152 0 178 139h131l16 -16q-9 -121 -97.5 -195.5t-227.5 -74.5zM860 944l10 62h187v-1014q0 -234 -119.5 -359t-347.5 -125q-229 0 -408 115l25 205h10q70 -64 165.5 -93.5t192.5 -29.5q134 0 196.5 61
t62.5 191v158q-148 -123 -304 -123q-196 0 -315 142t-119 376q0 227 133 382t328 155q163 0 303 -103zM594 178q125 0 240 103v512q-108 57 -222 57q-130 0 -210 -94t-80 -244q0 -156 72 -245t200 -89z" />
    <glyph glyph-name="Gdotaccent" unicode="&#x120;" horiz-adv-x="1617" 
d="M846 1604q-60 0 -98.5 38t-38.5 97q0 57 38.5 95t98.5 38q61 0 100 -38t39 -95q0 -59 -39 -97t-100 -38zM844 -41q-222 0 -390 99t-256.5 271t-88.5 392q0 222 96 397.5t271 274t398 98.5q295 0 570 -186l-37 -238h-8q-253 201 -512 201q-242 0 -383.5 -151.5
t-141.5 -393.5q0 -240 135 -392.5t359 -152.5q194 0 361 96v316h-381v190h600v-639q-283 -182 -592 -182z" />
    <glyph glyph-name="gdotaccent" unicode="&#x121;" horiz-adv-x="1218" 
d="M625 1196q-61 0 -101.5 38t-40.5 97q0 57 41 96t101 39q61 0 102 -39t41 -96q0 -60 -40.5 -97.5t-102.5 -37.5zM860 944l10 62h187v-1014q0 -234 -119.5 -359t-347.5 -125q-229 0 -408 115l25 205h10q70 -64 165.5 -93.5t192.5 -29.5q134 0 196.5 61t62.5 191v158
q-148 -123 -304 -123q-196 0 -315 142t-119 376q0 227 133 382t328 155q163 0 303 -103zM594 178q125 0 240 103v512q-108 57 -222 57q-130 0 -210 -94t-80 -244q0 -156 72 -245t200 -89z" />
    <glyph glyph-name="uni0122" unicode="&#x122;" horiz-adv-x="1617" 
d="M844 -41q-222 0 -390 99t-256.5 271t-88.5 392q0 222 96 397.5t271 274t398 98.5q295 0 570 -186l-37 -238h-8q-253 201 -512 201q-242 0 -383.5 -151.5t-141.5 -393.5q0 -240 135 -392.5t359 -152.5q194 0 361 96v316h-381v190h600v-639q-283 -182 -592 -182zM788 -129
h189l12 -21l-170 -376h-145z" />
    <glyph glyph-name="uni0123" unicode="&#x123;" horiz-adv-x="1218" 
d="M827 1569l-114 -398h-191l-10 19l168 379h147zM860 944l10 62h187v-1014q0 -234 -119.5 -359t-347.5 -125q-229 0 -408 115l25 205h10q70 -64 165.5 -93.5t192.5 -29.5q134 0 196.5 61t62.5 191v158q-148 -123 -304 -123q-196 0 -315 142t-119 376q0 227 133 382t328 155
q163 0 303 -103zM594 178q125 0 240 103v512q-108 57 -222 57q-130 0 -210 -94t-80 -244q0 -156 72 -245t200 -89z" />
    <glyph glyph-name="Hbar" unicode="&#x126;" horiz-adv-x="1564" 
d="M1378 1450v-203h138v-153h-138v-1094h-235v629h-721v-629h-236v1094h-137v153h137v203h236v-203h721v203h235zM422 840h721v254h-721v-254z" />
    <glyph glyph-name="hbar" unicode="&#x127;" horiz-adv-x="1230" 
d="M748 1047q154 0 237.5 -98.5t83.5 -282.5v-666h-223v614q0 122 -41.5 179t-128.5 57q-142 0 -291 -156v-694h-223v1194h-131v149h131v162h223v-162h311v-149h-311v-324q170 177 363 177z" />
    <glyph glyph-name="Imacron" unicode="&#x12a;" horiz-adv-x="608" 
d="M602 1645h-592v157h592v-157zM186 0v1450h236v-1450h-236z" />
    <glyph glyph-name="imacron" unicode="&#x12b;" horiz-adv-x="546" 
d="M571 1231h-598v160h598v-160zM385 0h-223v1006h223v-1006z" />
    <glyph glyph-name="Iogonek" unicode="&#x12e;" horiz-adv-x="608" 
d="M426 -289h8l19 -131q-92 -45 -189 -45q-93 0 -147 48t-54 128q0 84 52.5 159.5t142.5 129.5h-72v1450h236v-1450h-35q-166 -134 -166 -256q0 -74 82 -74q69 0 123 41z" />
    <glyph glyph-name="iogonek" unicode="&#x12f;" horiz-adv-x="546" 
d="M272 1188q-61 0 -103 40t-42 99q0 60 41.5 99.5t103.5 39.5q63 0 105.5 -40t42.5 -99q0 -58 -43 -98.5t-105 -40.5zM387 -289h10l19 -131q-92 -45 -189 -45q-93 0 -146.5 48t-53.5 128q0 84 52 159.5t142 129.5h-59v1006h223v-1006h-35q-166 -132 -166 -256q0 -74 82 -74
q70 0 121 41z" />
    <glyph glyph-name="Idotaccent" unicode="&#x130;" horiz-adv-x="608" 
d="M305 1606q-63 0 -105 39.5t-42 99.5t42 99.5t105 39.5t104.5 -40.5t41.5 -100.5q0 -58 -42 -97.5t-104 -39.5zM186 0v1450h236v-1450h-236z" />
    <glyph glyph-name="dotlessi" unicode="&#x131;" horiz-adv-x="546" 
d="M385 0h-223v1006h223v-1006z" />
    <glyph glyph-name="uni0136" unicode="&#x136;" horiz-adv-x="1355" 
d="M1327 1440l-536 -611l565 -819l-6 -10h-279l-440 647l-209 -239v-408h-236v1450h236v-266q0 -167 -8 -475h6q214 262 280 340l347 401h276zM537 -526l114 397h189l12 -21l-170 -376h-145z" />
    <glyph glyph-name="uni0137" unicode="&#x137;" horiz-adv-x="1097" 
d="M385 0h-223v1505h223v-344q0 -210 -8 -590l4 -2q131 150 233 260l164 177h264l5 -9l-377 -383l422 -606l-5 -8h-245l-322 465l-135 -135v-330zM502 -129h188l12 -21l-170 -376h-145z" />
    <glyph glyph-name="kgreenlandic" unicode="&#x138;" horiz-adv-x="1097" 
d="M385 0h-223v1006h223v-58q0 -168 -8 -379l4 -2q118 138 233 262l164 177h264l5 -9l-377 -383l422 -606l-5 -8h-245l-322 465l-135 -135v-330z" />
    <glyph glyph-name="Lacute" unicode="&#x139;" horiz-adv-x="1103" 
d="M352 1575h-170l187 274h223l10 -16zM186 0v1450h236v-1235h657l-26 -215h-867z" />
    <glyph glyph-name="lacute" unicode="&#x13a;" horiz-adv-x="546" 
d="M322 1630h-170l186 275h223l10 -17zM385 0h-223v1505h223v-1505z" />
    <glyph glyph-name="uni013B" unicode="&#x13b;" horiz-adv-x="1103" 
d="M186 0v1450h236v-1235h657l-26 -215h-867zM557 -129h188l13 -21l-170 -376h-146z" />
    <glyph glyph-name="uni013C" unicode="&#x13c;" horiz-adv-x="546" 
d="M385 0h-223v1505h223v-1505zM172 -129h188l13 -21l-170 -376h-146z" />
    <glyph glyph-name="Lcaron" unicode="&#x13d;" horiz-adv-x="1103" 
d="M186 0v1450h236v-1235h657l-26 -215h-867zM731 1053h-147l55 397h192l11 -18z" />
    <glyph glyph-name="lcaron" unicode="&#x13e;" horiz-adv-x="708" 
d="M385 0h-223v1505h223v-1505zM639 1108h-147l57 397h190l13 -18z" />
    <glyph glyph-name="Lslash" unicode="&#x141;" horiz-adv-x="1103" 
d="M422 702v-487h657l-26 -215h-867v571l-163 -90v176l163 93v700h236v-569l301 168v-179z" />
    <glyph glyph-name="lslash" unicode="&#x142;" horiz-adv-x="565" 
d="M395 1030l150 90v-159l-150 -91v-870h-223v735l-143 -88v162l143 86v610h223v-475z" />
    <glyph glyph-name="Nacute" unicode="&#x143;" horiz-adv-x="1630" 
d="M891 1575h-170l186 274h223l11 -16zM420 0h-234v1450h193l569 -670q172 -208 266 -331h7q-11 169 -11 380v621h234v-1473h-131l-629 736q-143 167 -268 329h-4q8 -125 8 -385v-657z" />
    <glyph glyph-name="nacute" unicode="&#x144;" horiz-adv-x="1230" 
d="M936 1509l10 -14l-260 -321h-168l195 335h223zM748 1047q154 0 237.5 -98.5t83.5 -282.5v-666h-223v614q0 122 -41.5 179t-128.5 57q-142 0 -291 -156v-694h-223v1006h196l11 -152q178 193 379 193z" />
    <glyph glyph-name="uni0145" unicode="&#x145;" horiz-adv-x="1630" 
d="M420 0h-234v1450h193l569 -670q172 -208 266 -331h7q-11 169 -11 380v621h234v-1473h-131l-629 736q-143 167 -268 329h-4q8 -125 8 -385v-657zM786 -129h189l12 -21l-170 -376h-145z" />
    <glyph glyph-name="uni0146" unicode="&#x146;" horiz-adv-x="1230" 
d="M748 1047q154 0 237.5 -98.5t83.5 -282.5v-666h-223v614q0 122 -41.5 179t-128.5 57q-142 0 -291 -156v-694h-223v1006h196l11 -152q178 193 379 193zM436 -526l115 397h188l13 -21l-170 -376h-146z" />
    <glyph glyph-name="Ncaron" unicode="&#x147;" horiz-adv-x="1630" 
d="M954 1575h-223l-211 256l10 18h162l152 -180l149 180h162l10 -18zM420 0h-234v1450h193l569 -670q172 -208 266 -331h7q-11 169 -11 380v621h234v-1473h-131l-629 736q-143 167 -268 329h-4q8 -125 8 -385v-657z" />
    <glyph glyph-name="ncaron" unicode="&#x148;" horiz-adv-x="1230" 
d="M956 1493l-217 -319h-215l-215 319l13 16h161l150 -219l147 219h162zM748 1047q154 0 237.5 -98.5t83.5 -282.5v-666h-223v614q0 122 -41.5 179t-128.5 57q-142 0 -291 -156v-694h-223v1006h196l11 -152q178 193 379 193z" />
    <glyph glyph-name="Eng" unicode="&#x14a;" horiz-adv-x="1630" 
d="M1210 829v621h234v-1458q0 -191 -70 -300.5t-235 -183.5l-105 156l2 14q92 44 132 109.5t40 183.5v129l-524 613q-143 167 -268 329h-6q10 -156 10 -385v-657h-234v1450h193l569 -670q136 -165 266 -331h5q-9 185 -9 380z" />
    <glyph glyph-name="eng" unicode="&#x14b;" horiz-adv-x="1230" 
d="M748 1047q154 0 237.5 -98.5t83.5 -282.5v-684q0 -188 -65 -293.5t-216 -180.5l-98 144l2 16q82 43 118 106t36 179v661q0 122 -41.5 179t-128.5 57q-142 0 -291 -156v-694h-223v1006h196l13 -152q174 193 377 193z" />
    <glyph glyph-name="Omacron" unicode="&#x14c;" horiz-adv-x="1718" 
d="M1155 1645h-592v157h592v-157zM858 -41q-220 0 -392 101t-264.5 275t-92.5 390q0 162 54 303t150 243t237 161t308 59q223 0 395.5 -101t264.5 -275t92 -390t-93.5 -390t-266 -275t-392.5 -101zM858 182q149 0 264 72t175.5 195t60.5 276q0 155 -60.5 278t-175 194
t-264.5 71q-226 0 -362 -152.5t-136 -390.5q0 -154 60 -276.5t174.5 -194.5t263.5 -72z" />
    <glyph glyph-name="omacron" unicode="&#x14d;" horiz-adv-x="1236" 
d="M920 1231h-598v160h598v-160zM618 -41q-236 0 -381 152.5t-145 390.5q0 236 145.5 390.5t380.5 154.5t382 -154.5t147 -390.5q0 -238 -146 -390.5t-383 -152.5zM618 156q138 0 220 95.5t82 250.5q0 154 -82 251t-220 97q-137 0 -218 -96.5t-81 -251.5q0 -156 80.5 -251
t218.5 -95z" />
    <glyph glyph-name="Ohungarumlaut" unicode="&#x150;" horiz-adv-x="1718" 
d="M694 1575h-174l197 274h221l8 -16zM1063 1575h-172l196 274h222l8 -16zM858 -41q-220 0 -392 101t-264.5 275t-92.5 390q0 162 54 303t150 243t237 161t308 59q223 0 395.5 -101t264.5 -275t92 -390t-93.5 -390t-266 -275t-392.5 -101zM858 182q149 0 264 72t175.5 195
t60.5 276q0 155 -60.5 278t-175 194t-264.5 71q-226 0 -362 -152.5t-136 -390.5q0 -154 60 -276.5t174.5 -194.5t263.5 -72z" />
    <glyph glyph-name="ohungarumlaut" unicode="&#x151;" horiz-adv-x="1236" 
d="M506 1174h-176l200 335h224l8 -14zM870 1174h-174l199 335h223l10 -14zM618 -41q-236 0 -381 152.5t-145 390.5q0 236 145.5 390.5t380.5 154.5t382 -154.5t147 -390.5q0 -238 -146 -390.5t-383 -152.5zM618 156q138 0 220 95.5t82 250.5q0 154 -82 251t-220 97
q-137 0 -218 -96.5t-81 -251.5q0 -156 80.5 -251t218.5 -95z" />
    <glyph glyph-name="OE" unicode="&#x152;" horiz-adv-x="2088" 
d="M1909 645h-594v-436h649l-27 -209h-804q-125 -41 -265 -41q-224 0 -398 101t-267.5 275t-93.5 390q0 162 54 302.5t151.5 243t240.5 161.5t313 59q144 0 265 -41h804l27 -209h-649v-403h594v-193zM360 725q0 -235 139 -389t369 -154q122 0 211 41v1006q-98 39 -211 39
q-232 0 -370 -152.5t-138 -390.5z" />
    <glyph glyph-name="oe" unicode="&#x153;" horiz-adv-x="1931" 
d="M606 -41q-230 0 -372 152.5t-142 390.5q0 235 143.5 390t370.5 155q126 0 226.5 -56t164.5 -164h4q60 108 158 164t223 56q211 0 334 -144t123 -391q0 -25 -2 -45h-721v-10q1 -145 81.5 -229.5t209.5 -84.5q202 0 338 125h10l25 -192q-82 -54 -184 -85.5t-205 -31.5
q-279 0 -398 221h-4q-63 -111 -162 -166t-221 -55zM1120 602l500 -2q-6 126 -70 197t-166 71q-108 0 -179.5 -71t-84.5 -195zM610 154q134 0 211.5 95t77.5 253q0 157 -78 253.5t-211 96.5q-137 0 -215 -96t-78 -254q0 -159 77.5 -253.5t215.5 -94.5z" />
    <glyph glyph-name="Racute" unicode="&#x154;" horiz-adv-x="1298" 
d="M924 1849l10 -16l-250 -258h-170l186 274h224zM858 641l434 -606l-14 -35h-246l-414 602h-196v-602h-236v1450h453q247 0 375.5 -108.5t128.5 -323.5q0 -142 -73.5 -239t-211.5 -138zM604 1247h-182v-450h182q162 0 232.5 53.5t70.5 167.5q0 120 -71.5 174.5t-231.5 54.5
z" />
    <glyph glyph-name="racute" unicode="&#x155;" horiz-adv-x="778" 
d="M764 1509l10 -14l-260 -321h-168l195 335h223zM358 1006l15 -195q81 112 165 170.5t187 58.5q17 0 33 -4l-19 -231l-12 -6q-24 6 -53 6q-167 0 -289 -180v-625h-223v1006h196z" />
    <glyph glyph-name="uni0156" unicode="&#x156;" horiz-adv-x="1298" 
d="M858 641l434 -606l-14 -35h-246l-414 602h-196v-602h-236v1450h453q247 0 375.5 -108.5t128.5 -323.5q0 -142 -73.5 -239t-211.5 -138zM604 1247h-182v-450h182q162 0 232.5 53.5t70.5 167.5q0 120 -71.5 174.5t-231.5 54.5zM512 -526l115 397h188l12 -21l-170 -376h-145
z" />
    <glyph glyph-name="uni0157" unicode="&#x157;" horiz-adv-x="778" 
d="M725 1040q17 0 33 -4l-19 -231l-12 -6q-24 6 -53 6q-167 0 -289 -180v-625h-223v1006h196l15 -195q81 112 165 170.5t187 58.5zM59 -526l115 397h188l13 -21l-170 -376h-146z" />
    <glyph glyph-name="Rcaron" unicode="&#x158;" horiz-adv-x="1298" 
d="M958 1831l-210 -256h-224l-211 256l11 18h161l152 -180l149 180h162zM858 641l434 -606l-14 -35h-246l-414 602h-196v-602h-236v1450h453q247 0 375.5 -108.5t128.5 -323.5q0 -142 -73.5 -239t-211.5 -138zM604 1247h-182v-450h182q162 0 232.5 53.5t70.5 167.5
q0 120 -71.5 174.5t-231.5 54.5z" />
    <glyph glyph-name="rcaron" unicode="&#x159;" horiz-adv-x="778" 
d="M784 1493l-217 -319h-215l-215 319l13 16h161l150 -219l147 219h162zM358 1006l15 -195q81 112 165 170.5t187 58.5q17 0 33 -4l-19 -231l-12 -6q-24 6 -53 6q-167 0 -289 -180v-625h-223v1006h196z" />
    <glyph glyph-name="Sacute" unicode="&#x15a;" horiz-adv-x="1169" 
d="M627 1575h-170l186 274h223l11 -16zM565 -41q-245 0 -461 131l33 229h8q211 -155 420 -155q118 0 187 60t69 151q0 57 -23 99t-92 89t-194 99q-216 91 -305.5 194.5t-89.5 253.5q0 165 125 273t340 108q219 0 405 -107l-31 -227h-10q-177 131 -371 131q-100 0 -156.5 -49
t-56.5 -125q0 -51 23.5 -87.5t88.5 -77.5t194 -99q156 -70 245 -142.5t122.5 -146.5t33.5 -174q0 -183 -138.5 -305.5t-365.5 -122.5z" />
    <glyph glyph-name="sacute" unicode="&#x15b;" horiz-adv-x="917" 
d="M518 1174h-168l195 335h223l10 -14zM444 -41q-199 0 -354 98l27 193h10q152 -117 309 -117q84 0 128 33t44 92q0 56 -40.5 95t-166.5 89q-176 69 -240.5 144t-64.5 186q0 117 95.5 196t257.5 79q182 0 342 -95l-27 -192h-10q-145 112 -297 112q-68 0 -106 -29t-38 -75
q0 -48 39 -85t168 -93q174 -72 239.5 -145t65.5 -187q0 -135 -102 -217t-279 -82z" />
    <glyph glyph-name="Scedilla" unicode="&#x15e;" horiz-adv-x="1169" 
d="M1069 387q0 -161 -108 -277t-293 -143l-52 -108q24 6 54 6q63 0 106 -43t43 -109q0 -95 -69 -150t-191 -55q-107 0 -197 46l21 124h10q76 -49 162 -49q51 0 77.5 22.5t26.5 59.5q0 68 -86 68q-45 0 -106 -25l-18 19l81 186q-224 10 -426 131l33 229h8q211 -155 420 -155
q118 0 187 60t69 151q0 57 -23 99t-92 89t-194 99q-216 91 -305.5 194.5t-89.5 253.5q0 165 125 273t340 108q219 0 405 -107l-31 -227h-10q-177 131 -371 131q-100 0 -156.5 -49t-56.5 -125q0 -51 23.5 -87.5t88.5 -77.5t194 -99q156 -70 245 -142.5t122.5 -146.5
t33.5 -174z" />
    <glyph glyph-name="scedilla" unicode="&#x15f;" horiz-adv-x="917" 
d="M825 258q0 -116 -77 -194.5t-213 -98.5l-52 -106q24 6 54 6q63 0 106 -43t43 -109q0 -95 -69 -150t-191 -55q-107 0 -197 46l21 124h10q76 -49 162 -49q51 0 77.5 22.5t26.5 59.5q0 68 -86 68q-45 0 -106 -25l-19 19l82 188q-171 10 -307 96l27 193h10q152 -117 309 -117
q84 0 128 33t44 92q0 56 -40.5 95t-166.5 89q-176 69 -240.5 144t-64.5 186q0 117 95.5 196t257.5 79q182 0 342 -95l-27 -192h-10q-145 112 -297 112q-68 0 -106 -29t-38 -75q0 -48 39 -85t168 -93q174 -72 239.5 -145t65.5 -187z" />
    <glyph glyph-name="Scaron" unicode="&#x160;" horiz-adv-x="1169" 
d="M690 1575h-223l-211 256l10 18h162l152 -180l149 180h162l10 -18zM565 -41q-245 0 -461 131l33 229h8q211 -155 420 -155q118 0 187 60t69 151q0 57 -23 99t-92 89t-194 99q-216 91 -305.5 194.5t-89.5 253.5q0 165 125 273t340 108q219 0 405 -107l-31 -227h-10
q-177 131 -371 131q-100 0 -156.5 -49t-56.5 -125q0 -51 23.5 -87.5t88.5 -77.5t194 -99q156 -70 245 -142.5t122.5 -146.5t33.5 -174q0 -183 -138.5 -305.5t-365.5 -122.5z" />
    <glyph glyph-name="scaron" unicode="&#x161;" horiz-adv-x="917" 
d="M313 1509l150 -219l147 219h162l14 -16l-217 -319h-215l-215 319l13 16h161zM444 -41q-199 0 -354 98l27 193h10q152 -117 309 -117q84 0 128 33t44 92q0 56 -40.5 95t-166.5 89q-176 69 -240.5 144t-64.5 186q0 117 95.5 196t257.5 79q182 0 342 -95l-27 -192h-10
q-145 112 -297 112q-68 0 -106 -29t-38 -75q0 -48 39 -85t168 -93q174 -72 239.5 -145t65.5 -187q0 -135 -102 -217t-279 -82z" />
    <glyph glyph-name="uni0162" unicode="&#x162;" horiz-adv-x="1216" 
d="M727 1233v-1233h-39l-65 -141q21 6 51 6q65 0 107 -43t42 -109q0 -95 -68 -150t-190 -55q-109 0 -196 46l20 124h10q76 -49 162 -49q51 0 78 22.5t27 59.5q0 68 -86 68q-49 0 -107 -25l-18 19l98 227h-61v1233h-472v217h1176v-217h-469z" />
    <glyph glyph-name="uni0163" unicode="&#x163;" horiz-adv-x="792" 
d="M526 -135q64 0 107 -43.5t43 -108.5q0 -95 -68.5 -150t-191.5 -55q-108 0 -195 46l19 124h10q76 -49 162 -49q51 0 78.5 22.5t27.5 59.5q0 68 -88 68q-45 0 -106 -25l-19 19l90 202q-190 57 -190 324v528h-174v179h180v225l178 108h39v-333h289v-179h-289v-503
q0 -94 30.5 -130t102.5 -36q78 0 139 30l17 -8l6 -184q-87 -37 -203 -37l-47 -100q24 6 53 6z" />
    <glyph glyph-name="Tcaron" unicode="&#x164;" horiz-adv-x="1216" 
d="M932 1831l-211 -256h-223l-211 256l10 18h162l151 -180l150 180h162zM20 1450h1176v-217h-469v-1233h-235v1233h-472v217z" />
    <glyph glyph-name="tcaron" unicode="&#x165;" horiz-adv-x="792" 
d="M709 1171h-148l55 398h193l10 -19zM518 -41q-158 0 -235.5 84t-77.5 256v528h-174v179h180v225l178 108h39v-333h289v-179h-289v-503q0 -94 30.5 -130t102.5 -36q78 0 139 30l17 -8l6 -184q-87 -37 -205 -37z" />
    <glyph glyph-name="Tbar" unicode="&#x166;" horiz-adv-x="1216" 
d="M1196 1450v-217h-469v-432h248v-154h-248v-647h-235v647h-250v154h250v432h-472v217h1176z" />
    <glyph glyph-name="tbar" unicode="&#x167;" horiz-adv-x="792" 
d="M700 188l17 -8l6 -184q-87 -37 -205 -37q-158 0 -235.5 84t-77.5 256v236h-172v116h172v176h-174v179h180v225l178 108h39v-333h289v-179h-289v-176h250v-116h-250v-211q0 -94 30.5 -130t102.5 -36q78 0 139 30z" />
    <glyph glyph-name="Umacron" unicode="&#x16a;" horiz-adv-x="1517" 
d="M1057 1645h-592v157h592v-157zM760 -41q-586 0 -586 625v866h236v-850q0 -218 84 -319t266 -101q180 0 264 101.5t84 320.5v848h235v-862q0 -303 -148.5 -466t-434.5 -163z" />
    <glyph glyph-name="umacron" unicode="&#x16b;" horiz-adv-x="1210" 
d="M305 1391h598v-160h-598v160zM825 338v668h224v-1006h-199l-12 178q-165 -219 -371 -219q-143 0 -224 100.5t-81 290.5v656h223v-621q0 -227 156 -227q69 0 142.5 47t141.5 133z" />
    <glyph glyph-name="Uring" unicode="&#x16e;" horiz-adv-x="1517" 
d="M758 1554q-86 0 -145.5 58t-59.5 145t59.5 145t145.5 58t146.5 -58t60.5 -145t-60.5 -145t-146.5 -58zM758 1653q47 0 76.5 29.5t29.5 74.5q0 46 -29.5 76.5t-76.5 30.5q-46 0 -75.5 -30.5t-29.5 -76.5q0 -45 29.5 -74.5t75.5 -29.5zM760 -41q-586 0 -586 625v866h236
v-850q0 -218 84 -319t266 -101q180 0 264 101.5t84 320.5v848h235v-862q0 -303 -148.5 -466t-434.5 -163z" />
    <glyph glyph-name="uring" unicode="&#x16f;" horiz-adv-x="1210" 
d="M604 1153q-85 0 -145 59t-60 146q0 86 60 144.5t145 58.5t146 -58.5t61 -144.5q0 -87 -60.5 -146t-146.5 -59zM604 1464q-45 0 -74.5 -30.5t-29.5 -75.5t29.5 -76t74.5 -31q47 0 77 31t30 76t-30 75.5t-77 30.5zM825 338v668h224v-1006h-199l-12 178q-165 -219 -371 -219
q-143 0 -224 100.5t-81 290.5v656h223v-621q0 -227 156 -227q69 0 142.5 47t141.5 133z" />
    <glyph glyph-name="Uhungarumlaut" unicode="&#x170;" horiz-adv-x="1517" 
d="M596 1575h-174l196 274h222l8 -16zM965 1575h-172l196 274h221l9 -16zM760 -41q-586 0 -586 625v866h236v-850q0 -218 84 -319t266 -101q180 0 264 101.5t84 320.5v848h235v-862q0 -303 -148.5 -466t-434.5 -163z" />
    <glyph glyph-name="uhungarumlaut" unicode="&#x171;" horiz-adv-x="1210" 
d="M737 1509l8 -14l-256 -321h-176l201 335h223zM1112 1495l-258 -321h-174l199 335h223zM825 338v668h224v-1006h-199l-12 178q-165 -219 -371 -219q-143 0 -224 100.5t-81 290.5v656h223v-621q0 -227 156 -227q69 0 142.5 47t141.5 133z" />
    <glyph glyph-name="Uogonek" unicode="&#x172;" horiz-adv-x="1517" 
d="M1108 602v848h235v-862q0 -230 -85 -380t-252 -210q-164 -135 -164 -254q0 -74 82 -74q69 0 123 41h8l18 -131q-92 -45 -188 -45q-93 0 -147 48t-54 128q0 139 137 250q-18 -2 -61 -2q-586 0 -586 625v866h236v-850q0 -218 84 -319t266 -101q180 0 264 101.5t84 320.5z
" />
    <glyph glyph-name="uogonek" unicode="&#x173;" horiz-adv-x="1210" 
d="M1061 -289h8l18 -131q-92 -45 -188 -45q-93 0 -147 48t-54 128q0 84 52.5 159.5t142.5 129.5h-43l-12 178q-165 -219 -371 -219q-143 0 -224 100.5t-81 290.5v656h223v-621q0 -227 156 -227q69 0 142.5 47t141.5 133v668h224v-1006h-27q-166 -134 -166 -256q0 -74 82 -74
q69 0 123 41z" />
    <glyph glyph-name="Wcircumflex" unicode="&#x174;" horiz-adv-x="1992" 
d="M844 1575h-162l-10 16l211 258h223l211 -258l-10 -16h-162l-150 180zM37 1450h252l207 -745q29 -103 88 -334h6q51 176 104 331l244 736h117l241 -736q52 -164 105 -333h6q40 166 88 336l207 745h254l6 -8l-444 -1465h-191l-237 719q-14 40 -91 295h-4q-62 -204 -92 -293
l-241 -721h-189l-442 1465z" />
    <glyph glyph-name="wcircumflex" unicode="&#x175;" horiz-adv-x="1525" 
d="M911 1174l-147 219l-150 -219h-161l-13 18l215 317h215l217 -317l-14 -18h-162zM45 1006h231l70 -252q75 -264 123 -455h6q42 140 154 453l84 243h102l82 -239q97 -274 154 -457h4q24 95 70.5 259t54.5 194l71 254h228l6 -9l-332 -1026h-149l-136 371q-69 201 -104 326
h-4q-25 -95 -105 -328l-133 -369h-149l-334 1026z" />
    <glyph glyph-name="Ycircumflex" unicode="&#x176;" horiz-adv-x="1269" 
d="M485 1575h-161l-11 16l211 258h224l210 -258l-10 -16h-162l-149 180zM16 1450h267l200 -369q61 -115 150 -297h6q100 205 149 295l199 371h266l7 -8l-506 -854v-588h-238v588l-506 854z" />
    <glyph glyph-name="ycircumflex" unicode="&#x177;" horiz-adv-x="1062" 
d="M688 1174l-147 219l-150 -219h-162l-12 18l215 317h215l217 -317l-14 -18h-162zM37 1006h246l108 -328q94 -266 139 -404h5l151 404l117 328h241l7 -7l-617 -1450h-229v7l209 479l-385 964z" />
    <glyph glyph-name="Ydieresis" unicode="&#x178;" horiz-adv-x="1269" 
d="M428 1606q-57 0 -93 36.5t-36 92.5q0 54 37.5 91.5t91.5 37.5q53 0 90 -37.5t37 -91.5q0 -56 -36 -92.5t-91 -36.5zM844 1606q-57 0 -93 36.5t-36 92.5q0 54 37.5 91.5t91.5 37.5q53 0 90 -37.5t37 -91.5q0 -56 -36 -92.5t-91 -36.5zM16 1450h267l200 -369
q61 -115 150 -297h6q100 205 149 295l199 371h266l7 -8l-506 -854v-588h-238v588l-506 854z" />
    <glyph glyph-name="Zacute" unicode="&#x179;" horiz-adv-x="1286" 
d="M715 1575h-170l186 274h223l11 -16zM47 37l803 1200h-750v213h1135l4 -39l-809 -1192h774v-219h-1153z" />
    <glyph glyph-name="zacute" unicode="&#x17a;" horiz-adv-x="1007" 
d="M559 1174h-168l195 335h223l10 -14zM944 0h-883l-4 23l541 798h-514v185h862l4 -23l-540 -797h534v-186z" />
    <glyph glyph-name="Zdotaccent" unicode="&#x17b;" horiz-adv-x="1286" 
d="M666 1604q-60 0 -99 38t-39 97q0 57 39 95t99 38q61 0 100 -38t39 -95q0 -59 -39 -97t-100 -38zM47 37l803 1200h-750v213h1135l4 -39l-809 -1192h774v-219h-1153z" />
    <glyph glyph-name="zdotaccent" unicode="&#x17c;" horiz-adv-x="1007" 
d="M504 1196q-61 0 -101.5 38t-40.5 97q0 57 41 96t101 39q61 0 102 -39t41 -96q0 -60 -40.5 -97.5t-102.5 -37.5zM944 0h-883l-4 23l541 798h-514v185h862l4 -23l-540 -797h534v-186z" />
    <glyph glyph-name="Zcaron" unicode="&#x17d;" horiz-adv-x="1286" 
d="M778 1575h-223l-211 256l10 18h162l152 -180l149 180h162l10 -18zM47 37l803 1200h-750v213h1135l4 -39l-809 -1192h774v-219h-1153z" />
    <glyph glyph-name="zcaron" unicode="&#x17e;" horiz-adv-x="1007" 
d="M356 1509l150 -219l147 219h162l14 -16l-217 -319h-215l-215 319l13 16h161zM944 0h-883l-4 23l541 798h-514v185h862l4 -23l-540 -797h534v-186z" />
    <glyph glyph-name="florin" unicode="&#x192;" horiz-adv-x="919" 
d="M725 1489q79 0 162 -27l-37 -184l-19 -6q-44 20 -88 20q-63 0 -96.5 -44.5t-48.5 -157.5l-29 -209h211l-26 -179h-209l-86 -610q-32 -223 -117 -316t-246 -93q-85 0 -164 28l43 185l17 6q54 -23 92 -23q64 0 98 45.5t51 163.5l89 614h-170l24 179h170l29 204
q30 221 111.5 312.5t238.5 91.5z" />
    <glyph glyph-name="uni0218" unicode="&#x218;" horiz-adv-x="1169" 
d="M565 -41q-245 0 -461 131l33 229h8q211 -155 420 -155q118 0 187 60t69 151q0 57 -23 99t-92 89t-194 99q-216 91 -305.5 194.5t-89.5 253.5q0 165 125 273t340 108q219 0 405 -107l-31 -227h-10q-177 131 -371 131q-100 0 -156.5 -49t-56.5 -125q0 -51 23.5 -87.5
t88.5 -77.5t194 -99q156 -70 245 -142.5t122.5 -146.5t33.5 -174q0 -183 -138.5 -305.5t-365.5 -122.5zM512 -129h188l13 -21l-170 -376h-146z" />
    <glyph glyph-name="uni0219" unicode="&#x219;" horiz-adv-x="917" 
d="M444 -41q-199 0 -354 98l27 193h10q152 -117 309 -117q84 0 128 33t44 92q0 56 -40.5 95t-166.5 89q-176 69 -240.5 144t-64.5 186q0 117 95.5 196t257.5 79q182 0 342 -95l-27 -192h-10q-145 112 -297 112q-68 0 -106 -29t-38 -75q0 -48 39 -85t168 -93
q174 -72 239.5 -145t65.5 -187q0 -135 -102 -217t-279 -82zM379 -129h188l13 -21l-170 -376h-146z" />
    <glyph glyph-name="uni021A" unicode="&#x21a;" horiz-adv-x="1216" 
d="M20 1450h1176v-217h-469v-1233h-235v1233h-472v217zM399 -526l115 397h188l13 -21l-170 -376h-146z" />
    <glyph glyph-name="uni021B" unicode="&#x21b;" horiz-adv-x="792" 
d="M518 -41q-158 0 -235.5 84t-77.5 256v528h-174v179h180v225l178 108h39v-333h289v-179h-289v-503q0 -94 30.5 -130t102.5 -36q78 0 139 30l17 -8l6 -184q-87 -37 -205 -37zM373 -129h188l12 -21l-170 -376h-145z" />
    <glyph glyph-name="uni0237" unicode="&#x237;" horiz-adv-x="546" 
d="M104 -492l-98 144l2 16q82 43 118 106t36 179v1053h223v-1024q0 -188 -65 -293.5t-216 -180.5z" />
    <glyph glyph-name="uni02BC" unicode="&#x2bc;" horiz-adv-x="505" 
d="M188 1505h191l10 -18l-168 -379h-147z" />
    <glyph glyph-name="circumflex" unicode="&#x2c6;" horiz-adv-x="763" 
d="M528 1174l-147 219l-148 -219h-163l-13 18l217 317h215l216 -317l-13 -18h-164z" />
    <glyph glyph-name="caron" unicode="&#x2c7;" horiz-adv-x="763" 
d="M233 1509l148 -219l147 219h164l13 -16l-216 -319h-215l-217 319l13 16h163z" />
    <glyph glyph-name="breve" unicode="&#x2d8;" horiz-adv-x="790" 
d="M395 1180q-137 0 -225.5 74.5t-99.5 195.5l18 16h129q26 -139 178 -139t178 139h132l14 -16q-8 -120 -97 -195t-227 -75z" />
    <glyph glyph-name="dotaccent" unicode="&#x2d9;" horiz-adv-x="409" 
d="M205 1196q-61 0 -101.5 38t-40.5 97q0 57 41 96t101 39q61 0 102 -39t41 -96q0 -60 -40.5 -97.5t-102.5 -37.5z" />
    <glyph glyph-name="ring" unicode="&#x2da;" horiz-adv-x="534" 
d="M268 1153q-87 0 -147 59t-60 146q0 86 60 144.5t147 58.5q84 0 144.5 -59t60.5 -144q0 -87 -60.5 -146t-144.5 -59zM268 1251q45 0 75 31t30 76t-30 75.5t-75 30.5q-47 0 -76.5 -30.5t-29.5 -75.5t30 -76t76 -31z" />
    <glyph glyph-name="ogonek" unicode="&#x2db;" horiz-adv-x="526" 
d="M262 -465q-93 0 -147 48t-54 128q0 84 52.5 159.5t142.5 129.5h129q-166 -134 -166 -256q0 -74 82 -74q69 0 123 41h8l19 -131q-92 -45 -189 -45z" />
    <glyph glyph-name="tilde" unicode="&#x2dc;" horiz-adv-x="823" 
d="M207 1190h-133q17 108 74 176t131 68q44 0 92 -25t88.5 -50t64.5 -24q30 1 47 20.5t31 65.5l14 13h127q-12 -108 -67.5 -175.5t-132.5 -70.5q-45 -2 -92 22t-87 49t-65 25q-30 0 -47 -18.5t-31 -63.5z" />
    <glyph glyph-name="hungarumlaut" unicode="&#x2dd;" horiz-adv-x="919" 
d="M238 1174h-175l199 335h223l11 -14zM604 1174h-176l201 335h223l8 -14z" />
    <glyph glyph-name="gravecomb" unicode="&#x300;" 
d="M-299 1509l197 -335h-168l-262 321l10 14h223z" />
    <glyph glyph-name="acutecomb" unicode="&#x301;" 
d="M-285 1174h-168l195 335h223l10 -14z" />
    <glyph glyph-name="uni0302" unicode="&#x302;" 
d="M-252 1174l-147 219l-150 -219h-162l-12 18l215 317h215l217 -317l-14 -18h-162z" />
    <glyph glyph-name="tildecomb" unicode="&#x303;" 
d="M-608 1190h-131q15 108 71 176t131 68q35 0 73.5 -15.5t66 -34.5t57.5 -34.5t51 -14.5q29 1 45.5 20.5t30.5 65.5l14 13h127q-12 -108 -67 -175.5t-131 -70.5q-45 -2 -93 22t-88 49t-65 25q-30 0 -47 -18.5t-31 -63.5z" />
    <glyph glyph-name="uni0304" unicode="&#x304;" 
d="M-59 1231h-598v160h598v-160z" />
    <glyph glyph-name="uni0306" unicode="&#x306;" 
d="M-379 1180q-137 0 -226 74.5t-100 195.5l19 16h129q26 -139 178 -139t178 139h131l17 -16q-9 -121 -98 -195.5t-228 -74.5z" />
    <glyph glyph-name="uni0307" unicode="&#x307;" 
d="M-209 1196q-61 0 -101 38t-40 97q0 57 40.5 96t100.5 39q61 0 102 -39t41 -96q0 -60 -40.5 -97.5t-102.5 -37.5z" />
    <glyph glyph-name="uni0308" unicode="&#x308;" 
d="M-567 1204q-56 0 -90.5 36t-34.5 91t36 93t89 38q55 0 91 -38t36 -93t-35.5 -91t-91.5 -36zM-186 1204q-57 0 -92 36t-35 91t36 93t91 38q53 0 89 -38t36 -93t-34.5 -91t-90.5 -36z" />
    <glyph glyph-name="uni030A" unicode="&#x30a;" 
d="M-268 1153q-85 0 -145 59t-60 146q0 86 60 144.5t145 58.5t146 -58.5t61 -144.5q0 -87 -60.5 -146t-146.5 -59zM-268 1251q46 0 76 31t30 76t-29.5 75.5t-76.5 30.5q-45 0 -75 -30.5t-30 -75.5t30 -76t75 -31z" />
    <glyph glyph-name="uni030B" unicode="&#x30b;" 
d="M-662 1174h-176l201 335h223l8 -14zM-297 1174h-174l199 335h223l10 -14z" />
    <glyph glyph-name="uni030C" unicode="&#x30c;" 
d="M-549 1509l150 -219l147 219h162l14 -16l-217 -319h-215l-215 319l12 16h162z" />
    <glyph glyph-name="uni0312" unicode="&#x312;" 
d="M-199 1171h-190l-10 19l168 379h147z" />
    <glyph glyph-name="uni0315" unicode="&#x315;" 
d="M-285 1569h189l12 -21l-170 -377h-145z" />
    <glyph glyph-name="dotbelowcomb" unicode="&#x323;" 
d="M-172 -422q-61 0 -101 38t-40 97q0 57 40.5 96t100.5 39q61 0 102 -39t41 -96q0 -60 -40.5 -97.5t-102.5 -37.5z" />
    <glyph glyph-name="uni0324" unicode="&#x324;" 
d="M-596 -340q-56 0 -90.5 36t-34.5 91t36 93t89 38q55 0 91 -38t36 -93t-35 -91t-92 -36zM-215 -340q-57 0 -92 36t-35 91t36 93t91 38q53 0 89 -38t36 -93t-34.5 -91t-90.5 -36z" />
    <glyph glyph-name="uni0325" unicode="&#x325;" 
d="M-268 -483q-86 0 -145.5 57.5t-59.5 144.5t59.5 145t145.5 58t146.5 -58t60.5 -145t-60.5 -144.5t-146.5 -57.5zM-268 -387q47 0 76.5 30.5t29.5 75.5t-30 76t-76 31q-45 0 -75 -31t-30 -76t30 -75.5t75 -30.5z" />
    <glyph glyph-name="uni0326" unicode="&#x326;" 
d="M-260 -129h188l13 -21l-170 -376h-146z" />
    <glyph glyph-name="uni0327" unicode="&#x327;" 
d="M-324 -492q-106 0 -196 46l20 124h11q76 -49 161 -49q51 0 78 22.5t27 59.5q0 68 -86 68q-46 0 -107 -25l-18 19l100 227h135l-67 -141q24 6 53 6q63 0 106.5 -43.5t43.5 -108.5q0 -94 -69.5 -149.5t-191.5 -55.5z" />
    <glyph glyph-name="uni0328" unicode="&#x328;" 
d="M-268 -465q-93 0 -147 48t-54 128q0 84 52.5 159.5t142.5 129.5h129q-166 -134 -166 -256q0 -74 82 -74q69 0 123 41h8l18 -131q-92 -45 -188 -45z" />
    <glyph glyph-name="uni0330" unicode="&#x330;" 
d="M-608 -354h-131q15 109 71 176t131 67q44 0 93 -25t89.5 -49t65.5 -22q29 1 45.5 20t30.5 64l14 12h127q-12 -107 -67 -174.5t-131 -70.5q-45 -1 -93 23.5t-88 49.5t-65 25q-30 0 -47 -18.5t-31 -65.5z" />
    <glyph glyph-name="uni0331" unicode="&#x331;" 
d="M-59 -324h-598v160h598v-160z" />
    <glyph glyph-name="uni0335" unicode="&#x335;" 
d="M-678 1194v149h666v-149h-666z" />
    <glyph glyph-name="uni0336" unicode="&#x336;" 
d="M-61 365h-1647v176h1647v-176z" />
    <glyph glyph-name="uni0337" unicode="&#x337;" 
d="M-63 969l-517 -314v162l519 311z" />
    <glyph glyph-name="uni0338" unicode="&#x338;" 
d="M-61 1081l-906 -1157h-143l905 1157h144z" />
    <glyph glyph-name="uni037E" unicode="&#x37e;" horiz-adv-x="526" 
d="M297 639q-63 0 -105 42.5t-42 102.5q0 62 42 104t105 42q62 0 104.5 -42.5t42.5 -103.5t-41.5 -103t-105.5 -42zM422 289l8 -15l-221 -647h-172l160 662h225z" />
    <glyph glyph-name="tonos" unicode="&#x384;" horiz-adv-x="1228" 
d="M369 1171h-152l102 353h209l11 -17z" />
    <glyph glyph-name="dieresistonos" unicode="&#x385;" horiz-adv-x="1228" 
d="M403 1171h-127l105 353h182l8 -15zM143 1204q-53 0 -84.5 34.5t-31.5 86.5t32.5 86.5t83.5 34.5q52 0 85.5 -34.5t33.5 -86.5q0 -53 -33 -87t-86 -34zM668 1204q-53 0 -85 34.5t-32 86.5q0 51 33 86t84 35q52 0 85 -34.5t33 -86.5t-32 -86.5t-86 -34.5z" />
    <glyph glyph-name="Alphatonos" unicode="&#x386;" horiz-adv-x="1404" 
d="M586 1450h239l588 -1442l-8 -8h-256l-131 340h-635l-129 -340h-254l-8 8zM385 1450l10 -16l-170 -336h-151l102 352h209zM600 905l-145 -383h491l-147 383q-60 162 -97 295h-6q-39 -143 -96 -295z" />
    <glyph glyph-name="anoteleia" unicode="&#x387;" horiz-adv-x="538" 
d="M270 715q-64 0 -106.5 42t-42.5 103q0 62 43 104t106 42q62 0 104 -42t42 -104q0 -60 -42.5 -102.5t-103.5 -42.5z" />
    <glyph glyph-name="Epsilontonos" unicode="&#x388;" horiz-adv-x="1198" 
d="M-287 1098l103 352h209l10 -16l-170 -336h-152zM1016 645h-594v-436h649l-24 -209h-861v1450h861l24 -209h-649v-403h594v-193z" />
    <glyph glyph-name="Etatonos" unicode="&#x389;" horiz-adv-x="1564" 
d="M-287 1098l103 352h209l10 -16l-170 -336h-152zM1143 840v610h235v-1450h-235v629h-721v-629h-236v1450h236v-610h721z" />
    <glyph glyph-name="Iotatonos" unicode="&#x38a;" horiz-adv-x="608" 
d="M-135 1098h-152l103 352h209l10 -16zM186 0v1450h236v-1450h-236z" />
    <glyph glyph-name="Omicrontonos" unicode="&#x38c;" horiz-adv-x="1718" 
d="M858 -41q-220 0 -392 101t-264.5 275t-92.5 390q0 162 54 303t150 243t237 161t308 59q223 0 395.5 -101t264.5 -275t92 -390t-93.5 -390t-266 -275t-392.5 -101zM-14 1098h-152l103 352h208l11 -16zM858 182q149 0 264 72t175.5 195t60.5 276q0 155 -60.5 278t-175 194
t-264.5 71q-226 0 -362 -152.5t-136 -390.5q0 -154 60 -276.5t174.5 -194.5t263.5 -72z" />
    <glyph glyph-name="Upsilontonos" unicode="&#x38e;" horiz-adv-x="1269" 
d="M-238 1098h-151l102 352h209l10 -16zM16 1450h267l200 -369q61 -115 150 -297h6q100 205 149 295l199 371h266l7 -8l-506 -854v-588h-238v588l-506 854z" />
    <glyph glyph-name="Omegatonos" unicode="&#x38f;" horiz-adv-x="1705" 
d="M1597 764q0 -167 -71 -306t-187 -237h238v-221h-604v207q61 0 127.5 39.5t122.5 106.5t92.5 169t36.5 215q0 228 -139 379.5t-361 151.5q-146 0 -260.5 -70.5t-176 -191t-61.5 -269.5q0 -113 36.5 -215t92.5 -169t122.5 -106.5t127.5 -39.5v-207h-606v221h240
q-116 98 -187 237t-71 306q0 147 53 279.5t148 231.5t235.5 157.5t306.5 58.5t307.5 -58.5t236.5 -157.5t148 -231.5t53 -279.5zM-68 1450h209l11 -16l-170 -336h-152z" />
    <glyph glyph-name="iotadieresistonos" unicode="&#x390;" horiz-adv-x="630" 
d="M279 1171h-127l104 353h182l8 -15zM18 1204q-53 0 -84.5 34.5t-31.5 86.5t32.5 86.5t83.5 34.5q52 0 85.5 -34.5t33.5 -86.5q0 -53 -33 -87t-86 -34zM543 1204q-53 0 -85 34.5t-32 86.5q0 51 33 86t84 35q52 0 85.5 -34.5t33.5 -86.5t-32.5 -86.5t-86.5 -34.5zM598 162
l10 -4l-16 -176q-67 -23 -148 -23q-153 0 -219.5 75.5t-66.5 246.5l-2 725h223v-715q0 -75 28 -107t99 -32q50 0 92 10z" />
    <glyph glyph-name="Alpha" unicode="&#x391;" horiz-adv-x="1417" 
d="M586 1450h239l588 -1442l-8 -8h-256l-131 340h-635l-129 -340h-254l-8 8zM600 905l-145 -383h491l-147 383q-60 162 -97 295h-6q-39 -143 -96 -295z" />
    <glyph glyph-name="Beta" unicode="&#x392;" horiz-adv-x="1271" 
d="M608 0h-422v1450h416q254 0 381 -96.5t127 -280.5q0 -109 -62 -192.5t-167 -114.5v-4q139 -29 219 -121.5t80 -226.5q0 -206 -140 -310t-432 -104zM422 1253v-422h184q275 0 275 222q0 102 -71.5 151t-221.5 49h-166zM422 659v-460h176q185 0 266.5 56t81.5 175
q0 116 -80.5 172.5t-249.5 56.5h-194z" />
    <glyph glyph-name="Gamma" unicode="&#x393;" horiz-adv-x="974" 
d="M186 0v1450h768v-215h-532v-1235h-236z" />
    <glyph glyph-name="uni0394" unicode="&#x394;" horiz-adv-x="1404" 
d="M586 1450h239l588 -1442l-8 -8h-1405l-8 8zM600 905l-270 -708h743l-274 708q-60 162 -97 295h-6q-39 -143 -96 -295z" />
    <glyph glyph-name="Epsilon" unicode="&#x395;" horiz-adv-x="1198" 
d="M1016 645h-594v-436h649l-24 -209h-861v1450h861l24 -209h-649v-403h594v-193z" />
    <glyph glyph-name="Zeta" unicode="&#x396;" horiz-adv-x="1286" 
d="M47 37l803 1200h-750v213h1135l4 -39l-809 -1192h774v-219h-1153z" />
    <glyph glyph-name="Eta" unicode="&#x397;" horiz-adv-x="1564" 
d="M1143 840v610h235v-1450h-235v629h-721v-629h-236v1450h236v-610h721z" />
    <glyph glyph-name="Theta" unicode="&#x398;" horiz-adv-x="1718" 
d="M858 -41q-220 0 -392 101t-264.5 275t-92.5 390q0 162 54 303t150 243t237 161t308 59q223 0 395.5 -101t264.5 -275t92 -390t-93.5 -390t-266 -275t-392.5 -101zM858 180q150 0 265.5 72.5t176 195.5t60.5 277q0 239 -137 392t-365 153q-150 0 -264.5 -71t-175 -194.5
t-60.5 -279.5q0 -154 60 -277t175 -195.5t265 -72.5zM1122 639h-526v170h526v-170z" />
    <glyph glyph-name="Iota" unicode="&#x399;" horiz-adv-x="608" 
d="M186 0v1450h236v-1450h-236z" />
    <glyph glyph-name="Kappa" unicode="&#x39a;" horiz-adv-x="1337" 
d="M426 0h-240v1450h240v-1450zM1352 0h-283l-616 762l610 688h266l4 -8l-596 -672l619 -760z" />
    <glyph glyph-name="Lambda" unicode="&#x39b;" horiz-adv-x="1372" 
d="M569 1450h238l573 -1442l-6 -8h-256l-340 913q-27 75 -92 293h-6q-55 -186 -94 -293l-336 -913h-252l-6 8z" />
    <glyph glyph-name="Mu" unicode="&#x39c;" horiz-adv-x="1886" 
d="M418 0h-232v1450h303l453 -905h6l451 905h301v-1450h-232v709q0 75 5 438h-7l-170 -336l-335 -655h-37l-332 655q-10 20 -74 144.5t-96 191.5h-6q2 -145 2 -438v-709z" />
    <glyph glyph-name="Nu" unicode="&#x39d;" horiz-adv-x="1630" 
d="M420 0h-234v1450h193l569 -670q172 -208 266 -331h7q-11 169 -11 380v621h234v-1473h-131l-629 736q-143 167 -268 329h-4q8 -125 8 -385v-657z" />
    <glyph glyph-name="Xi" unicode="&#x39e;" horiz-adv-x="1320" 
d="M1194 1241h-1067l25 209h1017zM1120 641h-921v199h921v-199zM1169 0h-1017l-25 209h1067z" />
    <glyph glyph-name="Omicron" unicode="&#x39f;" horiz-adv-x="1718" 
d="M858 -41q-220 0 -392 101t-264.5 275t-92.5 390q0 162 54 303t150 243t237 161t308 59q223 0 395.5 -101t264.5 -275t92 -390t-93.5 -390t-266 -275t-392.5 -101zM858 182q149 0 264 72t175.5 195t60.5 276q0 155 -60.5 278t-175 194t-264.5 71q-226 0 -362 -152.5
t-136 -390.5q0 -154 60 -276.5t174.5 -194.5t263.5 -72z" />
    <glyph glyph-name="Pi" unicode="&#x3a0;" horiz-adv-x="1554" 
d="M422 0h-236v1450h1182v-1450h-238v1237h-708v-1237z" />
    <glyph glyph-name="Rho" unicode="&#x3a1;" horiz-adv-x="1222" 
d="M645 1450q251 0 380.5 -115t129.5 -334q0 -204 -131 -322t-367 -118h-235v-561h-236v1450h459zM422 760h190q159 0 234.5 59t75.5 182q0 128 -75.5 188t-234.5 60h-190v-489z" />
    <glyph glyph-name="Sigma" unicode="&#x3a3;" horiz-adv-x="1241" 
d="M35 1450h1159v-215h-766l379 -487v-39l-377 -494h764v-215h-1159l-4 39l524 696l-524 676z" />
    <glyph glyph-name="Tau" unicode="&#x3a4;" horiz-adv-x="1216" 
d="M20 1450h1176v-217h-469v-1233h-235v1233h-472v217z" />
    <glyph glyph-name="Upsilon" unicode="&#x3a5;" horiz-adv-x="1269" 
d="M16 1450h267l200 -369q61 -115 150 -297h6q100 205 149 295l199 371h266l7 -8l-506 -854v-588h-238v588l-506 854z" />
    <glyph glyph-name="Phi" unicode="&#x3a6;" horiz-adv-x="1755" 
d="M1647 754q0 -266 -176 -435t-478 -182v-137h-231v137q-303 13 -478 181.5t-175 435.5q0 264 174.5 430.5t478.5 179.5v127h231v-127q303 -13 478.5 -179.5t175.5 -430.5zM348 754q0 -181 111 -293t311 -125v829q-202 -13 -312 -122.5t-110 -288.5zM985 1165v-829
q201 15 311.5 126.5t110.5 291.5q0 179 -110 288.5t-312 122.5z" />
    <glyph glyph-name="Chi" unicode="&#x3a7;" horiz-adv-x="1323" 
d="M285 0h-273l-6 8l514 750l-477 684l4 8h281l153 -231q139 -219 187 -299h4q108 183 180 294l154 236h270l4 -8l-471 -694l508 -740l-4 -8h-283l-196 301q-110 174 -168 277h-7q-26 -46 -170 -273z" />
    <glyph glyph-name="Psi" unicode="&#x3a8;" horiz-adv-x="1804" 
d="M1403 987v463h235v-475q0 -572 -618 -613v-362h-236v362q-324 20 -471 172.5t-147 440.5v475h235v-465q0 -100 18.5 -169t62.5 -120t118 -78t184 -34v866h236v-866q110 7 184 34.5t118 78.5t62.5 120.5t18.5 169.5z" />
    <glyph glyph-name="uni03A9" unicode="&#x3a9;" horiz-adv-x="1705" 
d="M1597 764q0 -167 -71 -306t-187 -237h238v-221h-604v207q61 0 127.5 39.5t122.5 106.5t92.5 169t36.5 215q0 228 -139 379.5t-361 151.5q-146 0 -260.5 -70.5t-176 -191t-61.5 -269.5q0 -113 36.5 -215t92.5 -169t122.5 -106.5t127.5 -39.5v-207h-606v221h240
q-116 98 -187 237t-71 306q0 147 53 279.5t148 231.5t235.5 157.5t306.5 58.5t307.5 -58.5t236.5 -157.5t148 -231.5t53 -279.5z" />
    <glyph glyph-name="Iotadieresis" unicode="&#x3aa;" horiz-adv-x="608" 
d="M98 1606q-57 0 -93 36.5t-36 92.5q0 54 37.5 91.5t91.5 37.5q53 0 90 -37.5t37 -91.5q0 -56 -36 -92.5t-91 -36.5zM514 1606q-57 0 -93 36.5t-36 92.5q0 54 37.5 91.5t91.5 37.5q53 0 90 -37.5t37 -91.5q0 -56 -36 -92.5t-91 -36.5zM186 0v1450h236v-1450h-236z" />
    <glyph glyph-name="Upsilondieresis" unicode="&#x3ab;" horiz-adv-x="1269" 
d="M428 1606q-57 0 -93 36.5t-36 92.5q0 54 37.5 91.5t91.5 37.5q53 0 90 -37.5t37 -91.5q0 -56 -36 -92.5t-91 -36.5zM844 1606q-57 0 -93 36.5t-36 92.5q0 54 37.5 91.5t91.5 37.5q53 0 90 -37.5t37 -91.5q0 -56 -36 -92.5t-91 -36.5zM16 1450h267l200 -369
q61 -115 150 -297h6q100 205 149 295l199 371h266l7 -8l-506 -854v-588h-238v588l-506 854z" />
    <glyph glyph-name="alphatonos" unicode="&#x3ac;" horiz-adv-x="1257" 
d="M836 1524l10 -17l-170 -336h-152l103 353h209zM1225 160l8 -6l-14 -177q-67 -18 -123 -18q-180 0 -234 145q-163 -145 -334 -145q-190 0 -312 143t-122 394q0 122 37 226t100.5 174.5t148.5 110.5t181 40q155 0 299 -105l12 64h187v-715q0 -74 23 -106.5t77 -32.5
q33 0 66 8zM322 496q0 -166 73.5 -254t198.5 -88q131 0 242 100l-2 537q-109 59 -220 59q-128 0 -210 -94t-82 -260z" />
    <glyph glyph-name="epsilontonos" unicode="&#x3ad;" horiz-adv-x="962" 
d="M547 1171h-152l103 353h209l10 -17zM487 -41q-185 0 -295 84.5t-112 224.5q-1 96 50.5 162t150.5 94v4q-77 30 -124.5 98.5t-47.5 145.5q0 134 94 204.5t272 70.5q201 0 389 -93l-28 -184h-11q-151 100 -338 100q-83 0 -125.5 -35t-42.5 -100q0 -71 54.5 -109t148.5 -38
h215v-154h-239q-208 0 -205 -147q0 -71 53 -109.5t152 -38.5q179 0 333 105h11l30 -189q-194 -96 -385 -96z" />
    <glyph glyph-name="etatonos" unicode="&#x3ae;" horiz-adv-x="1230" 
d="M840 1524l10 -17l-170 -336h-152l103 353h209zM748 1047q154 0 237.5 -98.5t83.5 -282.5v-1117h-223v1065q0 122 -41.5 179t-128.5 57q-142 0 -291 -156v-694h-223v1006h196l11 -152q178 193 379 193z" />
    <glyph glyph-name="iotatonos" unicode="&#x3af;" horiz-adv-x="630" 
d="M346 1171h-151l102 353h209l10 -17zM598 162l10 -4l-16 -176q-67 -23 -148 -23q-153 0 -219.5 75.5t-66.5 246.5l-2 725h223v-715q0 -75 28 -107t99 -32q50 0 92 10z" />
    <glyph glyph-name="upsilondieresistonos" unicode="&#x3b0;" horiz-adv-x="1169" 
d="M586 1171h-127l104 353h182l9 -15zM326 1204q-53 0 -85 34.5t-32 86.5q0 51 33 86t84 35q52 0 85 -34.5t33 -86.5q0 -53 -32.5 -87t-85.5 -34zM850 1204q-53 0 -85 34.5t-32 86.5q0 51 33 86t84 35q52 0 85.5 -34.5t33.5 -86.5t-32.5 -86.5t-86.5 -34.5zM162 412v594h223
v-588q0 -135 51.5 -197.5t159.5 -62.5q126 0 187 78t61 241q0 116 -26 267t-62 253l2 9h219q92 -323 92 -527q0 -254 -123.5 -387t-357.5 -133q-221 0 -323.5 109t-102.5 344z" />
    <glyph glyph-name="alpha" unicode="&#x3b1;" horiz-adv-x="1257" 
d="M1225 160l8 -6l-14 -177q-67 -18 -123 -18q-180 0 -234 145q-163 -145 -334 -145q-190 0 -312 143t-122 394q0 122 37 226t100.5 174.5t148.5 110.5t181 40q155 0 299 -105l12 64h187v-715q0 -74 23 -106.5t77 -32.5q33 0 66 8zM322 496q0 -166 73.5 -254t198.5 -88
q131 0 242 100l-2 537q-109 59 -220 59q-128 0 -210 -94t-82 -260z" />
    <glyph glyph-name="beta" unicode="&#x3b2;" horiz-adv-x="1226" 
d="M377 92l-4 -2q12 -127 12 -289v-252h-223v1481q0 245 125 380.5t348 135.5q187 0 303.5 -102.5t116.5 -263.5q0 -134 -67 -228t-167 -123v-4q154 -36 235 -138.5t81 -244.5q0 -138 -62.5 -249.5t-168.5 -172.5t-232 -61q-191 0 -297 133zM651 152q120 0 190 81t70 211
q0 127 -72 199t-210 72h-121v170h110q96 0 156 65t60 189q0 100 -54.5 157.5t-152.5 57.5q-122 0 -183 -83.5t-61 -240.5v-573q0 -147 70.5 -226t197.5 -79z" />
    <glyph glyph-name="gamma" unicode="&#x3b3;" horiz-adv-x="1019" 
d="M623 -451h-224v486l-389 964l8 7h234l121 -351q43 -121 137 -395h6q128 377 131 387l123 359h231l9 -7l-387 -962v-488z" />
    <glyph glyph-name="delta" unicode="&#x3b4;" horiz-adv-x="1210" 
d="M604 -41q-231 0 -371.5 140.5t-140.5 365.5q0 189 96 319t275 189v4q-116 70 -176 152.5t-60 168.5q0 112 83.5 180t267.5 68q194 0 407 -94l-29 -195h-10q-194 115 -350 115q-141 0 -141 -90q0 -53 57.5 -104.5t206.5 -126.5q201 -102 300 -240t99 -342
q0 -226 -141 -368t-373 -142zM606 156q130 0 207.5 84.5t77.5 234.5q0 137 -67 232t-201 167q-142 -45 -223 -145.5t-81 -255.5q0 -148 78.5 -232.5t208.5 -84.5z" />
    <glyph glyph-name="epsilon" unicode="&#x3b5;" horiz-adv-x="962" 
d="M487 -41q-185 0 -295 84.5t-112 224.5q-1 96 50.5 162t150.5 94v4q-77 30 -124.5 98.5t-47.5 145.5q0 134 94 204.5t272 70.5q201 0 389 -93l-28 -184h-11q-151 100 -338 100q-83 0 -125.5 -35t-42.5 -100q0 -71 54.5 -109t148.5 -38h215v-154h-239q-208 0 -205 -147
q0 -71 53 -109.5t152 -38.5q179 0 333 105h11l30 -189q-194 -96 -385 -96z" />
    <glyph glyph-name="zeta" unicode="&#x3b6;" horiz-adv-x="968" 
d="M887 -297h-187l-8 10q39 80 39 156q0 74 -36.5 109t-129.5 45q-258 29 -369.5 138.5t-109.5 321.5q1 244 145 458.5t398 383.5v6h-490v174h776v-162q-596 -358 -602 -821q-1 -147 73 -215t259 -98q159 -26 227 -96t68 -193q0 -111 -53 -217z" />
    <glyph glyph-name="eta" unicode="&#x3b7;" horiz-adv-x="1230" 
d="M748 1047q154 0 237.5 -98.5t83.5 -282.5v-1117h-223v1065q0 122 -41.5 179t-128.5 57q-142 0 -291 -156v-694h-223v1006h196l11 -152q178 193 379 193z" />
    <glyph glyph-name="theta" unicode="&#x3b8;" horiz-adv-x="1226" 
d="M614 1546q239 0 375.5 -195.5t136.5 -598.5q0 -205 -36.5 -358.5t-105 -248t-161 -140.5t-209.5 -46q-242 0 -378 195t-136 598q0 205 36.5 358.5t105 248t161.5 141t211 46.5zM614 1350q-67 0 -117 -28.5t-88 -91.5t-59 -170t-24 -257h575q-3 150 -24 257t-59 170
t-88 91.5t-116 28.5zM614 158q127 0 200.5 114.5t84.5 376.5h-571q8 -178 45.5 -289t96.5 -156.5t144 -45.5z" />
    <glyph glyph-name="iota" unicode="&#x3b9;" horiz-adv-x="630" 
d="M598 162l10 -4l-16 -176q-67 -23 -148 -23q-153 0 -219.5 75.5t-66.5 246.5l-2 725h223v-715q0 -75 28 -107t99 -32q50 0 92 10z" />
    <glyph glyph-name="kappa" unicode="&#x3ba;" horiz-adv-x="1112" 
d="M1106 8l-4 -8h-260l-426 516l209 287q82 118 157.5 167.5t165.5 49.5q49 0 107 -14l-29 -189l-8 -2q-30 10 -51 10q-36 0 -70.5 -25.5t-85.5 -86.5l-141 -178zM385 0h-223v1006h223l-4 -490z" />
    <glyph glyph-name="lambda" unicode="&#x3bb;" horiz-adv-x="1042" 
d="M31 0l-4 8l409 977l-86 236q-29 79 -63.5 106t-93.5 27q-35 0 -66 -8l-10 4l16 178q63 18 121 18q61 0 103.5 -12.5t82 -47.5t72 -97t66.5 -162l307 -936q28 -85 58.5 -113t84.5 -28q33 0 66 8l10 -4l-17 -177q-63 -18 -122 -18q-78 0 -124.5 23.5t-87 91.5t-83.5 205
q-90 290 -133 466h-7q-34 -99 -95 -266t-75 -207l-104 -272h-225z" />
    <glyph glyph-name="uni03BC" unicode="&#x3bc;" horiz-adv-x="1249" 
d="M1217 160l10 -6l-17 -177q-63 -18 -120 -18q-110 0 -171.5 51t-80.5 162q-156 -205 -336 -205q-74 0 -125 58l-4 -2q12 -86 12 -222v-252h-223v1457h223v-619q0 -229 156 -229q141 0 286 178v670h224v-715q0 -74 24 -106.5t78 -32.5q31 0 64 8z" />
    <glyph glyph-name="nu" unicode="&#x3bd;" horiz-adv-x="1009" 
d="M18 1006h228l121 -322q134 -379 137 -387h6q72 209 133 379l123 330h225l8 -7l-413 -1028h-160l-416 1028z" />
    <glyph glyph-name="xi" unicode="&#x3be;" horiz-adv-x="999" 
d="M889 -297h-187l-8 10q39 76 39 156q0 73 -35.5 107.5t-132.5 43.5q-252 23 -367.5 119.5t-115.5 270.5q0 299 301 364v4q-102 27 -161.5 97.5t-59.5 175.5q0 208 182 274v6h-227v174h815v-174h-187q-181 0 -277.5 -67t-96.5 -195q0 -100 79 -151.5t207 -51.5h199v-172
h-180q-187 0 -277 -68t-90 -186q0 -107 75 -156.5t263 -76.5q152 -21 222.5 -92.5t70.5 -194.5q0 -115 -51 -217z" />
    <glyph glyph-name="omicron" unicode="&#x3bf;" horiz-adv-x="1236" 
d="M618 -41q-236 0 -381 152.5t-145 390.5q0 236 145.5 390.5t380.5 154.5t382 -154.5t147 -390.5q0 -238 -146 -390.5t-383 -152.5zM618 156q138 0 220 95.5t82 250.5q0 154 -82 251t-220 97q-137 0 -218 -96.5t-81 -251.5q0 -156 80.5 -251t218.5 -95z" />
    <glyph glyph-name="pi" unicode="&#x3c0;" horiz-adv-x="1189" 
d="M780 162v661h-391v-823h-223v823h-129v183h1112v-183h-145v-633q0 -31 10.5 -41t42.5 -10q22 0 63 13l13 -9l-15 -159q-70 -25 -137 -25q-103 0 -152 49t-49 154z" />
    <glyph glyph-name="rho" unicode="&#x3c1;" horiz-adv-x="1228" 
d="M641 1047q242 0 369 -141.5t127 -385.5t-132 -402.5t-333 -158.5q-153 0 -287 92v-502h-223v938q0 275 119.5 417.5t359.5 142.5zM618 154q133 0 212 99t79 267q0 154 -71 243t-201 89q-122 0 -187 -87t-65 -263v-281q117 -67 233 -67z" />
    <glyph glyph-name="uni03C2" unicode="&#x3c2;" horiz-adv-x="1075" 
d="M868 -297h-188l-6 10q39 76 39 156q0 76 -33.5 110.5t-130.5 47.5q-219 27 -338 161t-119 340q0 229 142 374t366 145q185 0 348 -105l-30 -203h-11q-142 115 -291 115q-132 0 -214.5 -89t-82.5 -235q0 -272 308 -319q153 -26 223 -97.5t70 -193.5q0 -113 -52 -217z" />
    <glyph glyph-name="sigma" unicode="&#x3c3;" horiz-adv-x="1241" 
d="M614 -41q-234 0 -378 148.5t-144 373.5q0 145 63.5 264.5t182.5 190t272 70.5h631v-183l-268 6q79 -63 119.5 -155.5t40.5 -198.5q0 -108 -37.5 -202.5t-104 -164t-164.5 -109.5t-213 -40zM612 156q136 0 215.5 92t79.5 237q0 151 -79.5 246.5t-217.5 95.5
q-134 0 -212.5 -95.5t-78.5 -246.5q0 -144 79 -236.5t214 -92.5z" />
    <glyph glyph-name="tau" unicode="&#x3c4;" horiz-adv-x="1007" 
d="M971 1006v-183h-371v-532q0 -75 26 -107t91 -32q51 0 82 10l10 -8l-16 -174q-61 -21 -140 -21q-145 0 -210.5 76t-65.5 246l-2 542h-338v183h934z" />
    <glyph glyph-name="upsilon" unicode="&#x3c5;" horiz-adv-x="1169" 
d="M162 412v594h223v-588q0 -135 51.5 -197.5t159.5 -62.5q126 0 187 78t61 241q0 116 -26 267t-62 253l2 9h219q92 -323 92 -527q0 -254 -123.5 -387t-357.5 -133q-221 0 -323.5 109t-102.5 344z" />
    <glyph glyph-name="phi" unicode="&#x3c6;" horiz-adv-x="1431" 
d="M1339 504q0 -233 -137.5 -380t-376.5 -157v-418h-219v418q-239 10 -376.5 157t-137.5 380q0 234 136.5 379t377.5 155v334h219v-334q239 -10 376.5 -155t137.5 -379zM317 506q0 -163 77 -258t227 -107v723q-152 -12 -228 -104t-76 -254zM811 864v-723q149 13 225 108.5
t76 256.5t-75 253.5t-226 104.5z" />
    <glyph glyph-name="chi" unicode="&#x3c7;" horiz-adv-x="989" 
d="M915 -469q-58 0 -96 12t-74 47t-65.5 93.5t-65.5 156.5l-57 150q-7 22 -24 67.5t-25 71.5h-4q-38 -80 -64 -149l-178 -431h-244l-6 9l365 729l-174 405q-37 84 -68.5 110.5t-85.5 26.5q-32 0 -63 -8l-11 4l15 179q67 18 123 18q75 0 121.5 -23.5t87.5 -89t86 -196.5
l43 -115q5 -15 24.5 -73t30.5 -91h4q9 20 35 79t35 83l170 410h239l6 -7l-356 -712l186 -426q33 -74 69.5 -105.5t82.5 -31.5q30 0 63 8l11 -4l-17 -177q-58 -20 -119 -20z" />
    <glyph glyph-name="psi" unicode="&#x3c8;" horiz-adv-x="1609" 
d="M1509 483q0 -122 -29.5 -211t-95.5 -156.5t-177.5 -105t-270.5 -47.5v-414h-223v412q-298 18 -424.5 134t-126.5 341v570h223v-560q0 -128 76 -196.5t260 -81.5v1204h209v-1206q107 7 177 30t108.5 65t53.5 96t15 135q0 109 -25 256.5t-59 248.5l4 9h217q88 -320 88 -523
z" />
    <glyph glyph-name="omega" unicode="&#x3c9;" horiz-adv-x="1626" 
d="M514 -41q-192 0 -303 131.5t-111 388.5q0 132 37.5 277.5t87.5 249.5h224l2 -9q-52 -88 -88.5 -236t-36.5 -284q0 -313 211 -313q95 0 135.5 55.5t40.5 175.5v371h200v-371q0 -119 41 -175t136 -56q213 0 213 313q0 136 -37 283.5t-90 236.5l2 9h225q50 -107 87.5 -251.5
t37.5 -275.5q0 -257 -112 -388.5t-304 -131.5q-227 0 -297 215h-4q-70 -215 -297 -215z" />
    <glyph glyph-name="iotadieresis" unicode="&#x3ca;" horiz-adv-x="630" 
d="M92 1204q-56 0 -90.5 36t-34.5 91t36 93t89 38q55 0 91 -38t36 -93t-35.5 -91t-91.5 -36zM473 1204q-57 0 -92 36t-35 91t36 93t91 38q53 0 89 -38t36 -93t-34.5 -91t-90.5 -36zM598 162l10 -4l-16 -176q-67 -23 -148 -23q-153 0 -219.5 75.5t-66.5 246.5l-2 725h223
v-715q0 -75 28 -107t99 -32q50 0 92 10z" />
    <glyph glyph-name="upsilondieresis" unicode="&#x3cb;" horiz-adv-x="1169" 
d="M399 1204q-56 0 -90.5 36t-34.5 91t36 93t89 38q55 0 91 -38t36 -93t-35.5 -91t-91.5 -36zM780 1204q-57 0 -92 36t-35 91t36 93t91 38q53 0 89 -38t36 -93t-34.5 -91t-90.5 -36zM162 412v594h223v-588q0 -135 51.5 -197.5t159.5 -62.5q126 0 187 78t61 241
q0 116 -26 267t-62 253l2 9h219q92 -323 92 -527q0 -254 -123.5 -387t-357.5 -133q-221 0 -323.5 109t-102.5 344z" />
    <glyph glyph-name="omicrontonos" unicode="&#x3cc;" horiz-adv-x="1236" 
d="M684 1171h-152l103 353h209l10 -17zM618 -41q-236 0 -381 152.5t-145 390.5q0 236 145.5 390.5t380.5 154.5t382 -154.5t147 -390.5q0 -238 -146 -390.5t-383 -152.5zM618 156q138 0 220 95.5t82 250.5q0 154 -82 251t-220 97q-137 0 -218 -96.5t-81 -251.5
q0 -156 80.5 -251t218.5 -95z" />
    <glyph glyph-name="upsilontonos" unicode="&#x3cd;" horiz-adv-x="1169" 
d="M653 1171h-151l102 353h209l10 -17zM162 412v594h223v-588q0 -135 51.5 -197.5t159.5 -62.5q126 0 187 78t61 241q0 116 -26 267t-62 253l2 9h219q92 -323 92 -527q0 -254 -123.5 -387t-357.5 -133q-221 0 -323.5 109t-102.5 344z" />
    <glyph glyph-name="omegatonos" unicode="&#x3ce;" horiz-adv-x="1626" 
d="M877 1171h-152l102 353h209l11 -17zM514 -41q-192 0 -303 131.5t-111 388.5q0 132 37.5 277.5t87.5 249.5h224l2 -9q-52 -88 -88.5 -236t-36.5 -284q0 -313 211 -313q95 0 135.5 55.5t40.5 175.5v371h200v-371q0 -119 41 -175t136 -56q213 0 213 313q0 136 -37 283.5
t-90 236.5l2 9h225q50 -107 87.5 -251.5t37.5 -275.5q0 -257 -112 -388.5t-304 -131.5q-227 0 -297 215h-4q-70 -215 -297 -215z" />
    <glyph glyph-name="uni0400" unicode="&#x400;" horiz-adv-x="1198" 
d="M557 1849l188 -274h-172l-249 258l10 16h223zM1016 645h-594v-436h649l-24 -209h-861v1450h861l24 -209h-649v-403h594v-193z" />
    <glyph glyph-name="uni0401" unicode="&#x401;" horiz-adv-x="1198" 
d="M416 1606q-57 0 -93 36.5t-36 92.5q0 54 37.5 91.5t91.5 37.5q53 0 90 -37.5t37 -91.5q0 -56 -36 -92.5t-91 -36.5zM831 1606q-57 0 -93 36.5t-36 92.5q0 54 37.5 91.5t91.5 37.5q53 0 90 -37.5t37 -91.5q0 -56 -36 -92.5t-91 -36.5zM1016 645h-594v-436h649l-24 -209
h-861v1450h861l24 -209h-649v-403h594v-193z" />
    <glyph glyph-name="uni0402" unicode="&#x402;" horiz-adv-x="1611" 
d="M1030 981q204 0 312 -112.5t108 -327.5v-125q0 -217 -107 -330t-311 -113q-105 0 -205 29l19 188h10q66 -20 125 -20q113 0 172 66.5t59 195.5v92q0 260 -239 260q-132 0 -268 -82v-702h-236v1235h-449v215h1154v-215h-469v-342q153 88 325 88z" />
    <glyph glyph-name="uni0403" unicode="&#x403;" horiz-adv-x="974" 
d="M639 1575h-170l186 274h224l10 -16zM186 0v1450h768v-215h-532v-1235h-236z" />
    <glyph glyph-name="uni0404" unicode="&#x404;" horiz-adv-x="1525" 
d="M1333 354h10l33 -231q-253 -164 -551 -164q-213 0 -376 95.5t-251.5 268.5t-88.5 398q0 227 87.5 401.5t250 271.5t374.5 97q288 0 545 -162l-33 -231h-10q-112 86 -240.5 131t-257.5 45q-197 0 -320 -116t-151 -320h787v-193h-789q20 -218 146 -343.5t333 -125.5
q132 0 261 45.5t241 132.5z" />
    <glyph glyph-name="uni0405" unicode="&#x405;" horiz-adv-x="1169" 
d="M565 -41q-245 0 -461 131l33 229h8q211 -155 420 -155q118 0 187 60t69 151q0 57 -23 99t-92 89t-194 99q-216 91 -305.5 194.5t-89.5 253.5q0 165 125 273t340 108q219 0 405 -107l-31 -227h-10q-177 131 -371 131q-100 0 -156.5 -49t-56.5 -125q0 -51 23.5 -87.5
t88.5 -77.5t194 -99q156 -70 245 -142.5t122.5 -146.5t33.5 -174q0 -183 -138.5 -305.5t-365.5 -122.5z" />
    <glyph glyph-name="uni0406" unicode="&#x406;" horiz-adv-x="608" 
d="M186 0v1450h236v-1450h-236z" />
    <glyph glyph-name="uni0407" unicode="&#x407;" horiz-adv-x="608" 
d="M152 1608q-55 0 -86 37t-31 102q0 61 32 99t85 38t84.5 -38t31.5 -99q0 -65 -30.5 -102t-85.5 -37zM457 1608q-57 0 -88 37t-31 102q0 61 32.5 99t86.5 38q52 0 84 -38.5t32 -100.5q0 -64 -30.5 -100.5t-85.5 -36.5zM186 0v1450h236v-1450h-236z" />
    <glyph glyph-name="uni0408" unicode="&#x408;" horiz-adv-x="626" 
d="M209 205v1245h235v-1225q0 -191 -69.5 -300t-235.5 -183l-102 156l2 10q91 44 130.5 110t39.5 187z" />
    <glyph glyph-name="uni0409" unicode="&#x409;" horiz-adv-x="2107" 
d="M1309 860h241q244 0 374 -111.5t130 -320.5q0 -207 -130 -317.5t-374 -110.5h-477v1239h-514v-375q0 -210 -11 -355t-35 -249.5t-66 -163.5t-99.5 -85.5t-140.5 -26.5q-58 0 -127 16v190l10 9q32 -11 68 -11q51 0 82.5 31.5t51 118t27 223t7.5 361.5v528h983v-590z
M1309 201h200q163 0 237.5 55t74.5 176q0 119 -75 174.5t-237 55.5h-200v-461z" />
    <glyph glyph-name="uni040A" unicode="&#x40a;" horiz-adv-x="2119" 
d="M1321 860h240q245 0 375 -111.5t130 -320.5q0 -207 -129.5 -317.5t-375.5 -110.5h-476v649h-663v-649h-236v1450h236v-590h663v590h236v-590zM1321 201h201q162 0 235.5 55t73.5 176q0 120 -74 175t-235 55h-201v-461z" />
    <glyph glyph-name="uni040B" unicode="&#x40b;" horiz-adv-x="1609" 
d="M1042 981q204 0 305 -117.5t101 -367.5v-496h-236v442q0 179 -52.5 255.5t-178.5 76.5q-142 0 -276 -82v-692h-236v1235h-449v215h1154v-215h-469v-344q170 90 337 90z" />
    <glyph glyph-name="uni040C" unicode="&#x40c;" horiz-adv-x="1337" 
d="M958 1849l11 -16l-250 -258h-170l186 274h223zM1325 1440l-518 -682l545 -748l-2 -10h-281l-457 631h-190v-631h-236v1450h236v-610h184l455 610h260z" />
    <glyph glyph-name="uni040D" unicode="&#x40d;" horiz-adv-x="1595" 
d="M932 1575h-172l-250 258l10 16h223zM186 1450h236v-713q0 -145 -4 -383h6q61 96 170 252l596 844h221v-1450h-237v713q0 213 6 383h-6q-24 -37 -170 -252l-596 -844h-222v1450z" />
    <glyph glyph-name="uni040E" unicode="&#x40e;" horiz-adv-x="1327" 
d="M657 1554q-144 0 -231 71.5t-98 195.5l16 16h131q27 -137 182 -137q158 0 185 137h129l16 -16q-9 -124 -97 -195.5t-233 -71.5zM14 1442l547 -1114q-39 -82 -85.5 -119t-115.5 -37q-55 0 -129 33l-6 -6l-24 -195q101 -37 202 -37q128 0 213 67t158 226l539 1182l-4 8
h-252l-240 -561q-70 -165 -131 -334h-4q-44 114 -139 324l-273 571h-252z" />
    <glyph glyph-name="uni040F" unicode="&#x40f;" horiz-adv-x="1523" 
d="M1102 1450h237v-1450h-469v-338h-217v338h-467v1450h236v-1239h680v1239z" />
    <glyph glyph-name="uni0410" unicode="&#x410;" horiz-adv-x="1404" 
d="M586 1450h239l588 -1442l-8 -8h-256l-131 340h-635l-129 -340h-254l-8 8zM600 905l-145 -383h491l-147 383q-60 162 -97 295h-6q-39 -143 -96 -295z" />
    <glyph glyph-name="uni0411" unicode="&#x411;" horiz-adv-x="1249" 
d="M422 866h240q243 0 372 -111.5t129 -320.5q0 -210 -130 -322t-374 -112h-473v1450h826l24 -213h-614v-371zM422 199h194q163 0 238.5 56.5t75.5 180.5q0 123 -75.5 179.5t-238.5 56.5h-194v-473z" />
    <glyph glyph-name="uni0412" unicode="&#x412;" horiz-adv-x="1271" 
d="M608 0h-422v1450h416q254 0 381 -96.5t127 -280.5q0 -109 -62 -192.5t-167 -114.5v-4q139 -29 219 -121.5t80 -226.5q0 -206 -140 -310t-432 -104zM422 1253v-422h184q275 0 275 222q0 102 -71.5 151t-221.5 49h-166zM422 659v-460h176q185 0 266.5 56t81.5 175
q0 116 -80.5 172.5t-249.5 56.5h-194z" />
    <glyph glyph-name="uni0413" unicode="&#x413;" horiz-adv-x="974" 
d="M186 0v1450h768v-215h-532v-1235h-236z" />
    <glyph glyph-name="uni0414" unicode="&#x414;" horiz-adv-x="1458" 
d="M1257 1450v-1239h154v-549h-217v338h-948v-338h-217v535h4q90 11 139.5 74t75.5 224t26 451v504h983zM362 217v-6h660v1028h-514v-379q0 -273 -35 -421t-111 -222z" />
    <glyph glyph-name="uni0415" unicode="&#x415;" horiz-adv-x="1198" 
d="M1016 645h-594v-436h649l-24 -209h-861v1450h861l24 -209h-649v-403h594v-193z" />
    <glyph glyph-name="uni0416" unicode="&#x416;" horiz-adv-x="1982" 
d="M1962 1440l-467 -672l494 -758l-7 -10h-274l-403 633h-197v-633h-236v633h-198l-404 -633h-270l-6 10l491 758l-462 672l4 10h256l407 -608h182v608h236v-608h182l408 608h258z" />
    <glyph glyph-name="uni0417" unicode="&#x417;" horiz-adv-x="1142" 
d="M133 1155l-31 217q102 56 221.5 87.5t231.5 31.5q207 0 330 -103.5t123 -275.5q0 -126 -69 -220.5t-189 -129.5v-4q133 -26 209.5 -124.5t76.5 -238.5q0 -194 -142.5 -315t-371.5 -121q-221 0 -432 117l33 219h10q184 -125 371 -125q139 0 216 67t77 187q0 238 -326 238
h-211v184h201q154 0 233.5 55.5t79.5 163.5q0 104 -67.5 160.5t-186.5 56.5q-92 0 -191.5 -33.5t-185.5 -93.5h-10z" />
    <glyph glyph-name="uni0418" unicode="&#x418;" horiz-adv-x="1595" 
d="M186 1450h236v-713q0 -145 -4 -383h6q61 96 170 252l596 844h221v-1450h-237v713q0 213 6 383h-6q-24 -37 -170 -252l-596 -844h-222v1450z" />
    <glyph glyph-name="uni0419" unicode="&#x419;" horiz-adv-x="1595" 
d="M809 1554q-144 0 -231.5 71.5t-98.5 195.5l17 16h131q27 -137 182 -137q157 0 184 137h129l17 -16q-9 -124 -97 -195.5t-233 -71.5zM186 1450h236v-713q0 -145 -4 -383h6q61 96 170 252l596 844h221v-1450h-237v713q0 213 6 383h-6q-24 -37 -170 -252l-596 -844h-222
v1450z" />
    <glyph glyph-name="uni041A" unicode="&#x41a;" horiz-adv-x="1337" 
d="M1325 1440l-518 -682l545 -748l-2 -10h-281l-457 631h-190v-631h-236v1450h236v-610h184l455 610h260z" />
    <glyph glyph-name="uni041B" unicode="&#x41b;" horiz-adv-x="1495" 
d="M80 0v190l10 9q32 -11 68 -11q51 0 82.5 31.5t51 118t27 223t7.5 361.5v528h983v-1450h-236v1239h-514v-375q0 -210 -11 -355t-35 -249.5t-66 -163.5t-99.5 -85.5t-140.5 -26.5q-58 0 -127 16z" />
    <glyph glyph-name="uni041C" unicode="&#x41c;" horiz-adv-x="1886" 
d="M418 0h-232v1450h303l453 -905h6l451 905h301v-1450h-232v709q0 75 5 438h-7l-170 -336l-335 -655h-37l-332 655q-10 20 -74 144.5t-96 191.5h-6q2 -145 2 -438v-709z" />
    <glyph glyph-name="uni041D" unicode="&#x41d;" horiz-adv-x="1564" 
d="M1143 840v610h235v-1450h-235v629h-721v-629h-236v1450h236v-610h721z" />
    <glyph glyph-name="uni041E" unicode="&#x41e;" horiz-adv-x="1718" 
d="M858 -41q-220 0 -392 101t-264.5 275t-92.5 390q0 162 54 303t150 243t237 161t308 59q223 0 395.5 -101t264.5 -275t92 -390t-93.5 -390t-266 -275t-392.5 -101zM858 182q149 0 264 72t175.5 195t60.5 276q0 155 -60.5 278t-175 194t-264.5 71q-226 0 -362 -152.5
t-136 -390.5q0 -154 60 -276.5t174.5 -194.5t263.5 -72z" />
    <glyph glyph-name="uni041F" unicode="&#x41f;" horiz-adv-x="1554" 
d="M422 0h-236v1450h1182v-1450h-238v1237h-708v-1237z" />
    <glyph glyph-name="uni0420" unicode="&#x420;" horiz-adv-x="1222" 
d="M645 1450q251 0 380.5 -115t129.5 -334q0 -204 -131 -322t-367 -118h-235v-561h-236v1450h459zM422 760h190q159 0 234.5 59t75.5 182q0 128 -75.5 188t-234.5 60h-190v-489z" />
    <glyph glyph-name="uni0421" unicode="&#x421;" horiz-adv-x="1523" 
d="M846 -41q-215 0 -382.5 96t-261 270t-93.5 398q0 223 94 398.5t261.5 272.5t379.5 97q274 0 522 -172l-31 -240h-10q-220 189 -469 189q-220 0 -357 -150t-137 -391q0 -243 138.5 -394t361.5 -151q247 0 469 191h10l31 -240q-245 -174 -526 -174z" />
    <glyph glyph-name="uni0422" unicode="&#x422;" horiz-adv-x="1216" 
d="M20 1450h1176v-217h-469v-1233h-235v1233h-472v217z" />
    <glyph glyph-name="uni0423" unicode="&#x423;" horiz-adv-x="1327" 
d="M14 1442l547 -1114q-39 -82 -85.5 -119t-115.5 -37q-55 0 -129 33l-6 -6l-24 -195q101 -37 202 -37q128 0 213 67t158 226l539 1182l-4 8h-252l-240 -561q-70 -165 -131 -334h-4q-44 114 -139 324l-273 571h-252z" />
    <glyph glyph-name="uni0424" unicode="&#x424;" horiz-adv-x="1755" 
d="M1647 754q0 -266 -176 -435t-478 -182v-137h-231v137q-303 13 -478 181.5t-175 435.5q0 264 174.5 430.5t478.5 179.5v127h231v-127q303 -13 478.5 -179.5t175.5 -430.5zM348 754q0 -181 111 -293t311 -125v829q-202 -13 -312 -122.5t-110 -288.5zM985 1165v-829
q201 15 311.5 126.5t110.5 291.5q0 179 -110 288.5t-312 122.5z" />
    <glyph glyph-name="uni0425" unicode="&#x425;" horiz-adv-x="1323" 
d="M285 0h-273l-6 8l514 750l-477 684l4 8h281l153 -231q139 -219 187 -299h4q108 183 180 294l154 236h270l4 -8l-471 -694l508 -740l-4 -8h-283l-196 301q-110 174 -168 277h-7q-26 -46 -170 -273z" />
    <glyph glyph-name="uni0426" unicode="&#x426;" horiz-adv-x="1540" 
d="M1339 1450v-1239h154v-549h-217v338h-1090v1450h236v-1239h680v1239h237z" />
    <glyph glyph-name="uni0427" unicode="&#x427;" horiz-adv-x="1435" 
d="M1014 784v666h235v-1450h-235v580q-118 -66 -220 -96.5t-210 -30.5q-217 0 -328 118.5t-111 368.5v510h236v-459q0 -177 61.5 -253t200.5 -76q182 0 371 122z" />
    <glyph glyph-name="uni0428" unicode="&#x428;" horiz-adv-x="2183" 
d="M1761 211v1239h236v-1450h-1811v1450h236v-1239h551v1239h237v-1239h551z" />
    <glyph glyph-name="uni0429" unicode="&#x429;" horiz-adv-x="2199" 
d="M1997 1450v-1239h153v-549h-217v338h-1747v1450h236v-1239h551v1239h237v-1239h551v1239h236z" />
    <glyph glyph-name="uni042A" unicode="&#x42a;" horiz-adv-x="1378" 
d="M580 893h245q237 0 368.5 -118t131.5 -329q0 -217 -131.5 -331.5t-382.5 -114.5h-467v1237h-319l24 213h531v-557zM580 201h196q163 0 238.5 59t75.5 186q0 129 -75.5 188.5t-238.5 59.5h-196v-493z" />
    <glyph glyph-name="uni042B" unicode="&#x42b;" horiz-adv-x="1826" 
d="M653 0h-467v1450h236v-557h246q237 0 368 -118t131 -329q0 -217 -132 -331.5t-382 -114.5zM1405 0v1450h237v-1450h-237zM422 694v-493h196q163 0 238.5 59t75.5 186q0 129 -75.5 188.5t-238.5 59.5h-196z" />
    <glyph glyph-name="uni042C" unicode="&#x42c;" horiz-adv-x="1220" 
d="M653 0h-467v1450h236v-557h246q237 0 368 -118t131 -329q0 -217 -132 -331.5t-382 -114.5zM422 694v-493h196q163 0 238.5 59t75.5 186q0 129 -75.5 188.5t-238.5 59.5h-196z" />
    <glyph glyph-name="uni042D" unicode="&#x42d;" horiz-adv-x="1525" 
d="M705 1491q212 0 375 -97t251 -271.5t88 -401.5q0 -341 -197.5 -551.5t-521.5 -210.5q-297 0 -550 164l34 231h9q111 -87 241 -132.5t262 -45.5q207 0 333.5 125.5t146.5 343.5h-791v193h789q-28 203 -152 319.5t-320 116.5q-266 0 -499 -176h-8l-35 231q257 162 545 162z
" />
    <glyph glyph-name="uni042E" unicode="&#x42e;" horiz-adv-x="2220" 
d="M1384 1491q161 0 297 -57.5t230.5 -158.5t147 -243t52.5 -307q0 -220 -91.5 -394.5t-257.5 -273t-378 -98.5q-296 0 -491 186t-225 484h-246v-629h-236v1450h236v-610h248q34 292 226.5 471.5t487.5 179.5zM1382 182q217 0 347.5 152.5t130.5 390.5q0 241 -129.5 392
t-346.5 151q-219 0 -350 -151t-131 -392q0 -156 58.5 -279t168 -193.5t252.5 -70.5z" />
    <glyph glyph-name="uni042F" unicode="&#x42f;" horiz-adv-x="1263" 
d="M666 1450h411v-1450h-235v590h-180l-388 -590h-264l-6 10l414 613q-297 78 -297 397q0 210 137.5 320t407.5 110zM670 784h172v465h-172q-170 0 -247 -55.5t-77 -177.5t77 -177t247 -55z" />
    <glyph glyph-name="uni0430" unicode="&#x430;" horiz-adv-x="1075" 
d="M369 -41q-133 0 -208 70t-75 196q0 168 141.5 261.5t464.5 134.5v57q-2 97 -42 139.5t-132 42.5q-80 0 -173.5 -36.5t-162.5 -94.5h-10l-27 195q87 54 200.5 88.5t209.5 34.5q358 0 358 -347v-700h-182l-20 129q-90 -93 -168 -131.5t-174 -38.5zM426 125q62 0 125 31.5
t141 99.5v223q-155 -23 -241.5 -55t-118 -72.5t-31.5 -103.5q0 -123 125 -123z" />
    <glyph glyph-name="uni0431" unicode="&#x431;" horiz-adv-x="1220" 
d="M711 993q191 0 305 -131.5t114 -359.5q0 -156 -63.5 -279t-181 -193.5t-269.5 -70.5q-242 0 -368.5 132t-126.5 394v195q0 319 84.5 479t281.5 230q73 26 181.5 51t190 50.5t140.5 65.5l11 -4l24 -192q-51 -37 -124.5 -59.5t-171.5 -41t-146 -32.5q-141 -43 -198 -144
t-66 -301q61 91 168.5 151t214.5 60zM616 154q130 0 208.5 94t78.5 250q0 143 -68.5 221t-187.5 78q-85 0 -168 -54t-135 -133l-2 -151q-1 -148 70.5 -226.5t203.5 -78.5z" />
    <glyph glyph-name="uni0432" unicode="&#x432;" horiz-adv-x="1097" 
d="M627 0h-465v1006h459q161 0 253.5 -68.5t92.5 -183.5q0 -72 -42 -130t-124 -85v-4q101 -25 156 -86.5t55 -149.5q0 -139 -100 -219t-285 -80zM381 836v-250h186q90 0 139.5 34.5t49.5 98.5q0 60 -39 88.5t-123 28.5h-213zM381 449v-275h233q98 0 142.5 31t44.5 104
q0 68 -45.5 104t-134.5 36h-240z" />
    <glyph glyph-name="uni0433" unicode="&#x433;" horiz-adv-x="858" 
d="M385 0h-223v1006h655v-183h-432v-823z" />
    <glyph glyph-name="uni0434" unicode="&#x434;" horiz-adv-x="1210" 
d="M1032 1006v-822h121v-481h-197v297h-706v-297h-197v469q66 5 105 44t59.5 133t20.5 255v402h794zM356 188v-4h455v639h-360v-272q0 -153 -22 -235t-73 -128z" />
    <glyph glyph-name="uni0435" unicode="&#x435;" horiz-adv-x="1136" 
d="M1044 512q0 -34 -4 -61h-718q3 -143 82.5 -225.5t205.5 -82.5q204 0 340 125h11l24 -192q-82 -54 -184 -85.5t-205 -31.5q-235 0 -369.5 148t-134.5 393q0 242 135.5 394.5t354.5 152.5q215 0 338.5 -143.5t123.5 -391.5zM326 604l499 -2q-7 127 -70.5 197.5t-168.5 70.5
t-176 -71.5t-84 -194.5z" />
    <glyph glyph-name="uni0436" unicode="&#x436;" horiz-adv-x="1583" 
d="M1526 997l-342 -452l391 -535l-4 -10h-252l-297 424h-121v-424h-217v424h-125l-303 -424h-244l-4 10l393 533l-344 454l4 9h236l295 -400h92v400h217v-400h96l293 400h232z" />
    <glyph glyph-name="uni0437" unicode="&#x437;" horiz-adv-x="970" 
d="M465 -41q-189 0 -381 92l31 191h10q156 -103 334 -103q100 0 153 40t54 116q3 139 -207 139h-213v154h188q95 0 149 39t54 114q0 129 -170 129q-173 0 -338 -112h-10l-29 186q208 103 404 103q170 0 263 -68.5t93 -194.5q0 -85 -47.5 -153t-126.5 -99v-4
q98 -28 151.5 -94t51.5 -158q-3 -146 -114 -231.5t-300 -85.5z" />
    <glyph glyph-name="uni0438" unicode="&#x438;" horiz-adv-x="1220" 
d="M520 512l340 494h199v-1006h-221v500q0 130 8 221h-4q-83 -132 -144 -221l-340 -500h-196v1006h219v-494q0 -83 -4 -219h4q101 161 139 219z" />
    <glyph glyph-name="uni0439" unicode="&#x439;" horiz-adv-x="1220" 
d="M616 1180q-130 0 -214.5 70.5t-94.5 199.5l17 16h133q28 -139 159 -139q135 0 160 139h135l15 -16q-9 -129 -94 -199.5t-216 -70.5zM520 512l340 494h199v-1006h-221v500q0 130 8 221h-4q-83 -132 -144 -221l-340 -500h-196v1006h219v-494q0 -83 -4 -219h4
q101 161 139 219z" />
    <glyph glyph-name="uni043A" unicode="&#x43a;" horiz-adv-x="1085" 
d="M1040 997l-370 -456l415 -531l-4 -10h-256l-325 424h-115v-424h-223v1006h223v-398h100l308 398h243z" />
    <glyph glyph-name="uni043B" unicode="&#x43b;" horiz-adv-x="1193" 
d="M51 0v162l8 8q21 -8 45 -8q73 0 100 66t27 249v529h801v-1006h-223v823h-360v-395q0 -231 -68.5 -335.5t-218.5 -104.5q-56 0 -111 12z" />
    <glyph glyph-name="uni043C" unicode="&#x43c;" horiz-adv-x="1409" 
d="M377 0h-215v1006h221l319 -580h5l321 580h221v-1006h-217v438q0 162 4 256h-4q-57 -111 -108 -200l-205 -365h-29l-205 365q-86 159 -106 200h-6q4 -94 4 -256v-438z" />
    <glyph glyph-name="uni043D" unicode="&#x43d;" horiz-adv-x="1220" 
d="M836 604v402h223v-1006h-223v422h-451v-422h-223v1006h223v-402h451z" />
    <glyph glyph-name="uni043E" unicode="&#x43e;" horiz-adv-x="1236" 
d="M618 -41q-236 0 -381 152.5t-145 390.5q0 236 145.5 390.5t380.5 154.5t382 -154.5t147 -390.5q0 -238 -146 -390.5t-383 -152.5zM618 156q138 0 220 95.5t82 250.5q0 154 -82 251t-220 97q-137 0 -218 -96.5t-81 -251.5q0 -156 80.5 -251t218.5 -95z" />
    <glyph glyph-name="uni043F" unicode="&#x43f;" horiz-adv-x="1218" 
d="M1057 1006v-1006h-223v823h-449v-823h-223v1006h895z" />
    <glyph glyph-name="uni0440" unicode="&#x440;" horiz-adv-x="1224" 
d="M702 1047q194 0 311 -145.5t117 -389.5q0 -239 -132 -396t-332 -157q-151 0 -281 88v-498h-223v1457h196l9 -107q161 148 335 148zM610 154q133 0 213 98t80 260q0 158 -71 249t-195 91q-133 0 -252 -104v-529q111 -65 225 -65z" />
    <glyph glyph-name="uni0441" unicode="&#x441;" horiz-adv-x="1032" 
d="M582 -41q-222 0 -356 148.5t-134 390.5q0 244 139.5 396.5t368.5 152.5q173 0 334 -103l-29 -207h-10q-131 117 -279 117q-133 0 -215 -95.5t-82 -258.5q0 -158 80.5 -254t204.5 -96q156 0 295 120h8l29 -198q-165 -113 -354 -113z" />
    <glyph glyph-name="uni0442" unicode="&#x442;" horiz-adv-x="958" 
d="M590 0h-221v823h-332v183h885v-183h-332v-823z" />
    <glyph glyph-name="uni0443" unicode="&#x443;" horiz-adv-x="1062" 
d="M37 1006h246l108 -328q94 -266 139 -404h5l151 404l117 328h241l7 -7l-617 -1450h-229v7l209 479l-385 964z" />
    <glyph glyph-name="uni0444" unicode="&#x444;" horiz-adv-x="1431" 
d="M1339 504q0 -233 -137.5 -380t-376.5 -157v-418h-219v418q-239 10 -376.5 157t-137.5 380q0 234 136.5 379t377.5 155v467h219v-467q239 -10 376.5 -155t137.5 -379zM317 506q0 -163 77 -258t227 -107v723q-152 -12 -228 -104t-76 -254zM811 864v-723q149 13 225 108.5
t76 256.5t-75 253.5t-226 104.5z" />
    <glyph glyph-name="uni0445" unicode="&#x445;" horiz-adv-x="1021" 
d="M41 1006h250l139 -224q69 -132 76 -147h6q14 27 40 75.5t38 71.5l141 224h250l4 -9l-336 -483l346 -504l-4 -10h-252l-155 244q-11 19 -72 143h-6q-42 -89 -74 -143l-151 -244h-252l-2 10l344 504l-334 483z" />
    <glyph glyph-name="uni0446" unicode="&#x446;" horiz-adv-x="1220" 
d="M1044 1006v-822h119v-481h-196v297h-805v1006h223v-822h436v822h223z" />
    <glyph glyph-name="uni0447" unicode="&#x447;" horiz-adv-x="1157" 
d="M772 532v474h223v-1006h-223v352q-156 -78 -301 -78q-169 0 -256.5 95.5t-87.5 285.5v351h223v-328q0 -115 47.5 -165.5t143.5 -47.5q118 0 231 67z" />
    <glyph glyph-name="uni0448" unicode="&#x448;" horiz-adv-x="1726" 
d="M1341 178v828h224v-1006h-1403v1006h223v-828h367v828h223v-828h366z" />
    <glyph glyph-name="uni0449" unicode="&#x449;" horiz-adv-x="1736" 
d="M1565 1006v-822h116v-481h-198v297h-1321v1006h223v-828h367v828h223v-828h366v828h224z" />
    <glyph glyph-name="uni044A" unicode="&#x44a;" horiz-adv-x="1157" 
d="M500 666h241q167 0 263 -87t96 -231q0 -166 -109.5 -257t-310.5 -91h-404v823h-247v183h471v-340zM500 172h186q203 0 203 174q0 76 -47 118t-137 42h-205v-334z" />
    <glyph glyph-name="uni044B" unicode="&#x44b;" horiz-adv-x="1587" 
d="M385 666h242q168 0 263 -86.5t95 -231.5q0 -166 -109.5 -257t-308.5 -91h-405v1006h223v-340zM1202 0v1006h223v-1006h-223zM385 172h186q203 0 203 174q0 76 -47 118t-137 42h-205v-334z" />
    <glyph glyph-name="uni044C" unicode="&#x44c;" horiz-adv-x="1042" 
d="M385 666h242q168 0 263 -86.5t95 -231.5q0 -166 -109.5 -257t-308.5 -91h-405v1006h223v-340zM385 172h186q203 0 203 174q0 76 -47 118t-137 42h-205v-334z" />
    <glyph glyph-name="uni044D" unicode="&#x44d;" horiz-adv-x="1036" 
d="M469 1047q229 0 352 -147t123 -404q0 -246 -130 -391.5t-347 -145.5q-205 0 -371 109l27 188h10q132 -113 313 -113q122 0 195 75t86 214h-463v162h463q-18 139 -88 201.5t-188 62.5q-168 0 -308 -100h-10l-29 190q178 99 365 99z" />
    <glyph glyph-name="uni044E" unicode="&#x44e;" horiz-adv-x="1667" 
d="M1057 1047q228 0 373 -155t145 -390q0 -238 -144 -390.5t-374 -152.5q-216 0 -355 127.5t-163 335.5h-164v-422h-213v1006h213v-402h168q30 198 167.5 320.5t346.5 122.5zM1057 156q131 0 211 95.5t80 250.5q0 154 -80 251t-211 97q-139 0 -217 -96t-78 -252
q0 -157 77.5 -251.5t217.5 -94.5z" />
    <glyph glyph-name="uni044F" unicode="&#x44f;" horiz-adv-x="1097" 
d="M936 1006v-1006h-223v373h-176l-228 -373h-231l-4 10l237 381q-97 31 -151 105.5t-54 179.5q0 158 108 244t306 86h416zM473 526h240v312h-195q-196 0 -196 -162q0 -71 38 -110.5t113 -39.5z" />
    <glyph glyph-name="uni0450" unicode="&#x450;" horiz-adv-x="1136" 
d="M502 1509l196 -335h-168l-262 321l11 14h223zM1044 512q0 -34 -4 -61h-718q3 -143 82.5 -225.5t205.5 -82.5q204 0 340 125h11l24 -192q-82 -54 -184 -85.5t-205 -31.5q-235 0 -369.5 148t-134.5 393q0 242 135.5 394.5t354.5 152.5q215 0 338.5 -143.5t123.5 -391.5z
M326 604l499 -2q-7 127 -70.5 197.5t-168.5 70.5t-176 -71.5t-84 -194.5z" />
    <glyph glyph-name="uni0451" unicode="&#x451;" horiz-adv-x="1136" 
d="M393 1204q-56 0 -90.5 36t-34.5 91t36 93t89 38q55 0 91 -38t36 -93t-35.5 -91t-91.5 -36zM774 1204q-57 0 -92 36t-35 91t36 93t91 38q53 0 89 -38t36 -93t-34.5 -91t-90.5 -36zM1044 512q0 -34 -4 -61h-718q3 -143 82.5 -225.5t205.5 -82.5q204 0 340 125h11l24 -192
q-82 -54 -184 -85.5t-205 -31.5q-235 0 -369.5 148t-134.5 393q0 242 135.5 394.5t354.5 152.5q215 0 338.5 -143.5t123.5 -391.5zM326 604l499 -2q-7 127 -70.5 197.5t-168.5 70.5t-176 -71.5t-84 -194.5z" />
    <glyph glyph-name="uni0452" unicode="&#x452;" horiz-adv-x="1230" 
d="M748 1047q154 0 237.5 -98.5t83.5 -282.5v-521q0 -212 -76.5 -324t-259.5 -179l-82 155l4 17q72 29 111.5 65.5t59.5 100t20 165.5v469q0 122 -41.5 179t-128.5 57q-142 0 -291 -156v-694h-223v1194h-131v149h131v162h223v-162h313v-149h-313v-324q162 177 363 177z" />
    <glyph glyph-name="uni0453" unicode="&#x453;" horiz-adv-x="858" 
d="M524 1174h-168l195 335h223l10 -14zM385 0h-223v1006h655v-183h-432v-823z" />
    <glyph glyph-name="uni0454" unicode="&#x454;" horiz-adv-x="1036" 
d="M903 256h10l27 -188q-166 -109 -362 -109q-220 0 -353 146.5t-133 390.5q0 249 136.5 400t359.5 151q177 0 342 -101l-27 -190h-10q-132 102 -293 102q-112 0 -190 -64t-97 -202h459v-160h-461q15 -139 91 -214t198 -75q171 0 303 113z" />
    <glyph glyph-name="uni0455" unicode="&#x455;" horiz-adv-x="917" 
d="M444 -41q-199 0 -354 98l27 193h10q152 -117 309 -117q84 0 128 33t44 92q0 56 -40.5 95t-166.5 89q-176 69 -240.5 144t-64.5 186q0 117 95.5 196t257.5 79q182 0 342 -95l-27 -192h-10q-145 112 -297 112q-68 0 -106 -29t-38 -75q0 -48 39 -85t168 -93
q174 -72 239.5 -145t65.5 -187q0 -135 -102 -217t-279 -82z" />
    <glyph glyph-name="uni0456" unicode="&#x456;" horiz-adv-x="546" 
d="M272 1188q-61 0 -103 40t-42 99q0 60 41.5 99.5t103.5 39.5q63 0 105.5 -40t42.5 -99q0 -58 -43 -98.5t-105 -40.5zM385 0h-223v1006h223v-1006z" />
    <glyph glyph-name="uni0457" unicode="&#x457;" horiz-adv-x="546" 
d="M121 1192q-57 0 -88 37t-31 102q0 62 32.5 100.5t86.5 38.5q53 0 85 -38.5t32 -100.5q0 -65 -31 -102t-86 -37zM424 1192q-55 0 -86 37t-31 102q0 62 32.5 100.5t84.5 38.5q53 0 86 -39t33 -100q0 -65 -31 -102t-88 -37zM385 0h-223v1006h223v-1006z" />
    <glyph glyph-name="uni0458" unicode="&#x458;" horiz-adv-x="546" 
d="M272 1188q-61 0 -103 40t-42 99q0 60 41.5 99.5t103.5 39.5q64 0 106 -40t42 -99q0 -58 -43 -98.5t-105 -40.5zM104 -492l-100 144l2 16q82 43 119 106.5t37 178.5v1053h223v-1024q0 -188 -65 -293.5t-216 -180.5z" />
    <glyph glyph-name="uni0459" unicode="&#x459;" horiz-adv-x="1693" 
d="M1032 625h215q193 0 291 -79.5t98 -234.5q0 -154 -98 -232.5t-291 -78.5h-438v823h-360v-395q0 -231 -68.5 -335.5t-218.5 -104.5q-56 0 -111 12v162l8 8q21 -8 45 -8q73 0 100 66t27 249v529h801v-381zM1032 172h195q196 0 196 139q0 142 -196 142h-195v-281z" />
    <glyph glyph-name="uni045A" unicode="&#x45a;" horiz-adv-x="1710" 
d="M1047 625h217q193 0 291 -79t98 -233q0 -313 -389 -313h-441v442h-438v-442h-223v1006h223v-381h438v381h224v-381zM1047 172h196q197 0 197 141q0 140 -197 140h-196v-281z" />
    <glyph glyph-name="uni045B" unicode="&#x45b;" horiz-adv-x="1230" 
d="M748 1047q154 0 237.5 -98.5t83.5 -282.5v-666h-223v614q0 122 -41.5 179t-128.5 57q-142 0 -291 -156v-694h-223v1194h-131v149h131v162h223v-162h313v-149h-313v-324q170 177 363 177z" />
    <glyph glyph-name="uni045C" unicode="&#x45c;" horiz-adv-x="1085" 
d="M850 1509l10 -14l-260 -321h-168l195 335h223zM1040 997l-370 -456l415 -531l-4 -10h-256l-325 424h-115v-424h-223v1006h223v-398h100l308 398h243z" />
    <glyph glyph-name="uni045D" unicode="&#x45d;" horiz-adv-x="1220" 
d="M535 1509l196 -335h-168l-262 321l10 14h224zM520 512l340 494h199v-1006h-221v500q0 130 8 221h-4q-83 -132 -144 -221l-340 -500h-196v1006h219v-494q0 -83 -4 -219h4q101 161 139 219z" />
    <glyph glyph-name="uni045E" unicode="&#x45e;" horiz-adv-x="1062" 
d="M541 1180q-130 0 -215 70.5t-95 199.5l17 16h133q28 -139 160 -139q134 0 159 139h136l14 -16q-9 -129 -93.5 -199.5t-215.5 -70.5zM37 1006h246l108 -328q94 -266 139 -404h5l151 404l117 328h241l7 -7l-617 -1450h-229v7l209 479l-385 964z" />
    <glyph glyph-name="uni045F" unicode="&#x45f;" horiz-adv-x="1206" 
d="M821 184v822h223v-1006h-342v-297h-196v297h-344v1006h223v-822h436z" />
    <glyph glyph-name="uni0490" unicode="&#x490;" horiz-adv-x="985" 
d="M748 1450v260h217v-475h-543v-1235h-236v1450h562z" />
    <glyph glyph-name="uni0491" unicode="&#x491;" horiz-adv-x="858" 
d="M629 1006v206h188v-389h-432v-823h-223v1006h467z" />
    <glyph glyph-name="Wgrave" unicode="&#x1e80;" horiz-adv-x="1992" 
d="M1118 1575h-172l-250 258l11 16h223zM37 1450h252l207 -745q29 -103 88 -334h6q51 176 104 331l244 736h117l241 -736q52 -164 105 -333h6q40 166 88 336l207 745h254l6 -8l-444 -1465h-191l-237 719q-14 40 -91 295h-4q-62 -204 -92 -293l-241 -721h-189l-442 1465z" />
    <glyph glyph-name="wgrave" unicode="&#x1e81;" horiz-adv-x="1525" 
d="M680 1509l197 -335h-168l-263 321l11 14h223zM45 1006h231l70 -252q75 -264 123 -455h6q42 140 154 453l84 243h102l82 -239q97 -274 154 -457h4q24 95 70.5 259t54.5 194l71 254h228l6 -9l-332 -1026h-149l-136 371q-69 201 -104 326h-4q-25 -95 -105 -328l-133 -369
h-149l-334 1026z" />
    <glyph glyph-name="Wacute" unicode="&#x1e82;" horiz-adv-x="1992" 
d="M1042 1575h-170l187 274h223l10 -16zM37 1450h252l207 -745q29 -103 88 -334h6q51 176 104 331l244 736h117l241 -736q52 -164 105 -333h6q40 166 88 336l207 745h254l6 -8l-444 -1465h-191l-237 719q-14 40 -91 295h-4q-62 -204 -92 -293l-241 -721h-189l-442 1465z" />
    <glyph glyph-name="wacute" unicode="&#x1e83;" horiz-adv-x="1525" 
d="M817 1174h-168l195 335h223l10 -14zM45 1006h231l70 -252q75 -264 123 -455h6q42 140 154 453l84 243h102l82 -239q97 -274 154 -457h4q24 95 70.5 259t54.5 194l71 254h228l6 -9l-332 -1026h-149l-136 371q-69 201 -104 326h-4q-25 -95 -105 -328l-133 -369h-149
l-334 1026z" />
    <glyph glyph-name="Wdieresis" unicode="&#x1e84;" horiz-adv-x="1992" 
d="M788 1606q-57 0 -93 36.5t-36 92.5q0 54 37.5 91.5t91.5 37.5q53 0 90 -37.5t37 -91.5q0 -56 -36 -92.5t-91 -36.5zM1204 1606q-57 0 -93 36.5t-36 92.5q0 54 37.5 91.5t91.5 37.5q53 0 90 -37.5t37 -91.5q0 -56 -36 -92.5t-91 -36.5zM37 1450h252l207 -745
q29 -103 88 -334h6q51 176 104 331l244 736h117l241 -736q52 -164 105 -333h6q40 166 88 336l207 745h254l6 -8l-444 -1465h-191l-237 719q-14 40 -91 295h-4q-62 -204 -92 -293l-241 -721h-189l-442 1465z" />
    <glyph glyph-name="wdieresis" unicode="&#x1e85;" horiz-adv-x="1525" 
d="M571 1204q-56 0 -90.5 36t-34.5 91t36 93t89 38q55 0 91 -38t36 -93t-35.5 -91t-91.5 -36zM952 1204q-57 0 -92 36t-35 91t36 93t91 38q53 0 89 -38t36 -93t-34.5 -91t-90.5 -36zM45 1006h231l70 -252q75 -264 123 -455h6q42 140 154 453l84 243h102l82 -239
q97 -274 154 -457h4q24 95 70.5 259t54.5 194l71 254h228l6 -9l-332 -1026h-149l-136 371q-69 201 -104 326h-4q-25 -95 -105 -328l-133 -369h-149l-334 1026z" />
    <glyph glyph-name="uni1E9E" unicode="&#x1e9e;" horiz-adv-x="1439" 
d="M1247 1274l-284 -428q189 -10 301 -125t112 -295q0 -211 -122 -339t-341 -128q-184 0 -335 92l18 215l12 2q138 -108 285 -108q112 0 176 68t64 186q0 250 -308 250h-110v159l274 416h-567v-1239h-236v1450h1061v-176z" />
    <glyph glyph-name="Ygrave" unicode="&#x1ef2;" horiz-adv-x="1269" 
d="M758 1575h-172l-250 258l10 16h223zM16 1450h267l200 -369q61 -115 150 -297h6q100 205 149 295l199 371h266l7 -8l-506 -854v-588h-238v588l-506 854z" />
    <glyph glyph-name="ygrave" unicode="&#x1ef3;" horiz-adv-x="1062" 
d="M457 1509l196 -335h-168l-262 321l10 14h224zM37 1006h246l108 -328q94 -266 139 -404h5l151 404l117 328h241l7 -7l-617 -1450h-229v7l209 479l-385 964z" />
    <glyph glyph-name="uni2000" unicode="&#x2000;" horiz-adv-x="1024" 
 />
    <glyph glyph-name="uni2001" unicode="&#x2001;" horiz-adv-x="2048" 
 />
    <glyph glyph-name="uni2002" unicode="&#x2002;" horiz-adv-x="1024" 
 />
    <glyph glyph-name="uni2003" unicode="&#x2003;" horiz-adv-x="2048" 
 />
    <glyph glyph-name="uni2004" unicode="&#x2004;" horiz-adv-x="681" 
 />
    <glyph glyph-name="uni2005" unicode="&#x2005;" horiz-adv-x="512" 
 />
    <glyph glyph-name="uni2006" unicode="&#x2006;" horiz-adv-x="342" 
 />
    <glyph glyph-name="uni2007" unicode="&#x2007;" horiz-adv-x="1368" 
 />
    <glyph glyph-name="uni2008" unicode="&#x2008;" horiz-adv-x="497" 
 />
    <glyph glyph-name="uni2009" unicode="&#x2009;" horiz-adv-x="409" 
 />
    <glyph glyph-name="uni200A" unicode="&#x200a;" horiz-adv-x="292" 
 />
    <glyph glyph-name="uni200B" unicode="&#x200b;" 
 />
    <glyph glyph-name="uni200C" unicode="&#x200c;" 
d="M-297 1546l223 221l51 -49l-178 -172l178 -168l-51 -51zM201 1546l-178 172l51 49l223 -221l-223 -219l-51 51zM-39 1247h74v-1605h-74v1605z" />
    <glyph glyph-name="uni200D" unicode="&#x200d;" 
d="M-276 1718l51 49l223 -221l-223 -219l-51 51l178 168zM225 1767l51 -49l-178 -172l178 -168l-51 -51l-223 219zM-39 1247h74v-1605h-74v1605z" />
    <glyph glyph-name="figuredash" unicode="&#x2012;" horiz-adv-x="1220" 
d="M1087 592h-954v172h954v-172z" />
    <glyph glyph-name="endash" unicode="&#x2013;" horiz-adv-x="1179" 
d="M1067 367h-954v172h954v-172z" />
    <glyph glyph-name="emdash" unicode="&#x2014;" horiz-adv-x="1871" 
d="M1759 365h-1646v176h1646v-176z" />
    <glyph glyph-name="quoteleft" unicode="&#x2018;" horiz-adv-x="573" 
d="M129 850l-6 12l196 588h156l-145 -600h-201z" />
    <glyph glyph-name="quoteright" unicode="&#x2019;" horiz-adv-x="573" 
d="M444 1450l7 -12l-197 -588h-156l146 600h200z" />
    <glyph glyph-name="quotesinglbase" unicode="&#x201a;" horiz-adv-x="573" 
d="M444 289l7 -13l-197 -589h-156l146 602h200z" />
    <glyph glyph-name="quotedblleft" unicode="&#x201c;" horiz-adv-x="948" 
d="M129 850l-6 12l196 588h156l-145 -600h-201zM504 850l-8 12l198 588h156l-145 -600h-201z" />
    <glyph glyph-name="quotedblright" unicode="&#x201d;" horiz-adv-x="950" 
d="M444 1450l7 -12l-197 -588h-156l146 600h200zM821 1450l6 -12l-198 -588h-156l145 600h203z" />
    <glyph glyph-name="quotedblbase" unicode="&#x201e;" horiz-adv-x="944" 
d="M444 289l7 -13l-197 -589h-156l146 602h200zM815 289l8 -13l-198 -589h-156l145 602h201z" />
    <glyph glyph-name="dagger" unicode="&#x2020;" horiz-adv-x="1159" 
d="M692 -266l-225 4v987h-383v207h383v518h225v-518h383v-207h-383v-991z" />
    <glyph glyph-name="daggerdbl" unicode="&#x2021;" horiz-adv-x="1159" 
d="M692 -266h-225v430h-369v205h369v450h-369v205h369v426h225v-426h367v-205h-367v-450h367v-205h-367v-430z" />
    <glyph glyph-name="bullet" unicode="&#x2022;" horiz-adv-x="983" 
d="M492 397q-120 0 -201.5 82t-81.5 201t81.5 201t201.5 82t201 -82t81 -201t-81 -201t-201 -82z" />
    <glyph glyph-name="ellipsis" unicode="&#x2026;" horiz-adv-x="1716" 
d="M250 -20q-64 0 -107 42t-43 101q0 63 43.5 105t106.5 42q62 0 103.5 -42t41.5 -105q0 -59 -42 -101t-103 -42zM885 -20q-63 0 -105.5 42.5t-42.5 102.5q0 62 42.5 103.5t105.5 41.5q62 0 104.5 -42t42.5 -103t-42 -103t-105 -42zM1522 -20q-63 0 -105.5 42.5t-42.5 102.5
q0 62 42.5 103.5t105.5 41.5q62 0 104.5 -42t42.5 -103t-42.5 -103t-104.5 -42z" />
    <glyph glyph-name="uni202F" unicode="&#x202f;" horiz-adv-x="409" 
 />
    <glyph glyph-name="perthousand" unicode="&#x2030;" horiz-adv-x="2904" 
d="M551 745q-155 0 -260 103t-105 264t105 264t260 103q156 0 261.5 -103t105.5 -264t-105.5 -264t-261.5 -103zM670 0h-191l871 1450h190zM551 907q85 0 139.5 55.5t54.5 149.5q0 92 -54.5 147.5t-139.5 55.5q-84 0 -139.5 -55.5t-55.5 -147.5q0 -93 55.5 -149t139.5 -56z
M1466 -29q-156 0 -261 103t-105 262q0 162 105 265.5t261 103.5t261.5 -103.5t105.5 -265.5q0 -159 -105.5 -262t-261.5 -103zM2353 -29q-156 0 -261 103t-105 262q0 162 105 265.5t261 103.5q155 0 261 -103.5t106 -265.5q0 -159 -106 -262t-261 -103zM1466 133
q84 0 139.5 55.5t55.5 147.5q0 93 -55.5 149t-139.5 56t-139 -56t-55 -149q0 -92 55 -147.5t139 -55.5zM2353 133q84 0 139.5 55.5t55.5 147.5q0 93 -55.5 149t-139.5 56t-139 -56t-55 -149q0 -92 55 -147.5t139 -55.5z" />
    <glyph glyph-name="minute" unicode="&#x2032;" horiz-adv-x="393" 
d="M254 1057h-160l64 489h211z" />
    <glyph glyph-name="second" unicode="&#x2033;" horiz-adv-x="731" 
d="M254 1057h-160l64 489h211zM592 1057h-158l62 489h213z" />
    <glyph glyph-name="guilsinglleft" unicode="&#x2039;" horiz-adv-x="628" 
d="M522 117h-174l-254 360l250 361h174l4 -15l-227 -346l231 -348z" />
    <glyph glyph-name="guilsinglright" unicode="&#x203a;" horiz-adv-x="628" 
d="M283 117h-177l-2 12l230 348l-225 346l2 15h174l250 -361z" />
    <glyph glyph-name="fraction" unicode="&#x2044;" horiz-adv-x="317" 
d="M440 1450h191l-393 -725l-369 -725h-191l424 782z" />
    <glyph glyph-name="uni2070" unicode="&#x2070;" horiz-adv-x="778" 
d="M391 915q-156 0 -246 120t-90 327t89.5 326.5t246.5 119.5q155 0 244.5 -119.5t89.5 -326.5t-89.5 -327t-244.5 -120zM391 1077q71 0 111.5 75.5t40.5 211.5q0 134 -40.5 209.5t-111.5 75.5q-72 0 -111.5 -75t-39.5 -210q0 -137 39.5 -212t111.5 -75z" />
    <glyph glyph-name="uni2074" unicode="&#x2074;" horiz-adv-x="778" 
d="M635 942h-172v164h-402l-16 104l420 580h170v-533h100v-151h-100v-164zM354 1403l-104 -146h215v84q0 137 18 256h-6q-46 -86 -123 -194z" />
    <glyph glyph-name="uni2075" unicode="&#x2075;" horiz-adv-x="778" 
d="M377 915q-158 0 -287 70l29 154h10q109 -74 227 -74q73 0 113.5 40.5t40.5 108.5q0 64 -39.5 103t-108.5 39q-101 0 -190 -56l-51 25l31 457h471v-150h-322l-10 -170q67 25 131 25q121 0 194.5 -74t73.5 -196q0 -135 -85 -218.5t-228 -83.5z" />
    <glyph glyph-name="uni2076" unicode="&#x2076;" horiz-adv-x="778" 
d="M467 1499q110 0 178 -74.5t68 -195.5q0 -142 -89 -228t-235 -86q-147 0 -235 86t-88 226q0 84 40 168.5t142 212.5l135 174l188 -2l9 -23l-119 -155q-73 -94 -135 -142l2 -4q64 43 139 43zM395 1071q64 0 100.5 41t36.5 113q0 69 -36.5 108t-100.5 39q-62 0 -116 -41
q-31 -57 -31 -110q0 -68 41 -109t106 -41z" />
    <glyph glyph-name="uni2077" unicode="&#x2077;" horiz-adv-x="778" 
d="M336 942h-152l-14 25l281 661h-361v154h598l6 -25z" />
    <glyph glyph-name="uni2078" unicode="&#x2078;" horiz-adv-x="778" 
d="M567 1378q69 -31 106.5 -86t37.5 -125q0 -115 -87.5 -183.5t-234.5 -68.5q-148 0 -233.5 64.5t-85.5 173.5q0 69 36.5 123.5t102.5 85.5q-105 62 -105 201q0 110 79.5 177.5t213.5 67.5q128 0 204.5 -64t76.5 -169q0 -59 -29.5 -111t-81.5 -86zM391 1669
q-51 0 -80.5 -32.5t-29.5 -86.5q0 -97 96 -120l57 -15q68 59 68 141q0 50 -30.5 81.5t-80.5 31.5zM389 1057q62 0 98.5 32t36.5 89q0 52 -31.5 85t-89.5 44l-63 12q-84 -57 -84 -139q0 -56 37.5 -89.5t95.5 -33.5z" />
    <glyph glyph-name="uni2079" unicode="&#x2079;" horiz-adv-x="778" 
d="M389 1808q147 0 235.5 -85.5t88.5 -225.5q0 -83 -40 -167t-141 -214l-131 -174l-188 2l-8 23l114 155q67 89 134 142l-2 4q-64 -43 -140 -43q-110 0 -177.5 74.5t-67.5 195.5q0 142 88.5 227.5t234.5 85.5zM500 1393q30 55 30 110q0 68 -41 109t-106 41q-64 0 -100.5 -41
t-36.5 -113q0 -69 36.5 -108t100.5 -39q63 0 117 41z" />
    <glyph glyph-name="uni2080" unicode="&#x2080;" horiz-adv-x="778" 
d="M391 -313q-157 0 -246.5 119.5t-89.5 326.5t90 327t246 120q155 0 244.5 -120t89.5 -327t-89.5 -326.5t-244.5 -119.5zM391 -152q71 0 111.5 75.5t40.5 211.5q0 134 -40.5 209.5t-111.5 75.5q-72 0 -111.5 -75t-39.5 -210q0 -137 39.5 -212t111.5 -75z" />
    <glyph glyph-name="uni2081" unicode="&#x2081;" horiz-adv-x="778" 
d="M539 -287h-179v506q0 54 15 127l-4 2l-78 -47l-92 -55l-17 6l15 176l284 137h56v-852z" />
    <glyph glyph-name="uni2082" unicode="&#x2082;" horiz-adv-x="778" 
d="M676 -287h-570l-10 56l226 249q92 99 135 169t43 124q0 49 -29.5 78t-83.5 29q-108 0 -221 -82h-10l-27 174q53 28 133.5 49t147.5 21q125 0 198.5 -69t73.5 -181q0 -174 -180 -357l-53 -53q-17 -19 -78 -63v-4q89 14 139 14h166v-154z" />
    <glyph glyph-name="uni2083" unicode="&#x2083;" horiz-adv-x="778" 
d="M373 -313q-70 0 -144 19.5t-127 49.5l29 158h10q101 -72 217 -72q64 0 100 32t36 85q0 55 -39 86t-111 31h-100v119h94q69 0 107 32t38 88q0 52 -31 81.5t-87 29.5q-112 0 -222 -76h-8l-29 152q55 31 138 54.5t157 23.5q119 0 190 -63t71 -165q0 -75 -39.5 -130.5
t-112.5 -78.5v-2q79 -20 124.5 -76.5t45.5 -130.5q0 -107 -85.5 -177t-221.5 -70z" />
    <glyph glyph-name="uni2084" unicode="&#x2084;" horiz-adv-x="778" 
d="M635 -287h-172v164h-402l-16 105l420 579h170v-532h100v-152h-100v-164zM354 174l-104 -145h215v84q0 137 18 256h-6q-49 -90 -123 -195z" />
    <glyph glyph-name="uni2085" unicode="&#x2085;" horiz-adv-x="778" 
d="M377 -313q-160 0 -287 69l29 154h10q109 -74 227 -74q72 0 113 41t41 109q0 64 -39.5 102.5t-108.5 38.5q-102 0 -190 -55l-51 24l31 457h471v-150h-322l-10 -170q67 25 131 25q121 0 194.5 -74t73.5 -196q0 -135 -85 -218t-228 -83z" />
    <glyph glyph-name="uni2086" unicode="&#x2086;" horiz-adv-x="778" 
d="M467 270q110 0 178 -74.5t68 -195.5q0 -142 -88.5 -227.5t-235.5 -85.5t-235 85.5t-88 225.5q0 84 40 168.5t142 212.5l135 174l188 -2l9 -23l-119 -155q-73 -94 -135 -142l2 -4q64 43 139 43zM395 -158q64 0 100.5 41t36.5 113q0 69 -36.5 108t-100.5 39q-62 0 -116 -41
q-31 -57 -31 -110q0 -68 41 -109t106 -41z" />
    <glyph glyph-name="uni2087" unicode="&#x2087;" horiz-adv-x="778" 
d="M336 -287h-152l-14 25l281 661h-361v154h598l6 -25z" />
    <glyph glyph-name="uni2088" unicode="&#x2088;" horiz-adv-x="778" 
d="M567 150q69 -31 106.5 -86t37.5 -125q0 -115 -87.5 -183.5t-234.5 -68.5q-149 0 -234 64t-85 173q0 69 36.5 123.5t102.5 85.5q-105 61 -105 201q0 110 79.5 178t213.5 68q128 0 204.5 -64.5t76.5 -169.5q0 -59 -29.5 -110.5t-81.5 -85.5zM391 440q-51 0 -80.5 -32
t-29.5 -86q0 -98 96 -121l57 -15q68 59 68 142q0 50 -30 81t-81 31zM389 -172q62 0 98.5 32t36.5 89q0 52 -31.5 85t-89.5 44l-63 12q-84 -57 -84 -139q0 -56 37.5 -89.5t95.5 -33.5z" />
    <glyph glyph-name="uni2089" unicode="&#x2089;" horiz-adv-x="778" 
d="M389 580q147 0 235.5 -86t88.5 -226q0 -83 -40 -167t-141 -214l-131 -174l-188 2l-8 23l114 156q65 87 134 141l-2 4q-64 -43 -140 -43q-110 0 -177.5 74t-67.5 196q0 142 88.5 228t234.5 86zM500 164q30 55 30 110q0 68 -41 109t-106 41q-64 0 -100.5 -41t-36.5 -113
q0 -69 36.5 -108t100.5 -39q63 0 117 41z" />
    <glyph glyph-name="lira" unicode="&#x20a4;" horiz-adv-x="1136" 
d="M487 215h611l-27 -215h-956v215h143q59 79 59 238v34h-192v136h192v172h-192v135h192v69q0 227 115.5 359t323.5 133q140 0 280 -55l-18 -199l-19 -10q-117 57 -231 57q-105 0 -160 -77t-55 -222v-55h365v-135h-365v-172h365v-136h-365q0 -175 -66 -272z" />
    <glyph glyph-name="Euro" unicode="&#x20ac;" horiz-adv-x="1355" 
d="M1206 301h11l32 -219q-183 -123 -387 -123q-232 0 -378 142.5t-191 392.5h-187l46 135h124q-4 62 -4 96q0 49 2 72h-147l45 133h119q50 254 208 407.5t378 153.5q190 0 370 -107l-35 -229h-10q-144 123 -319 123q-132 0 -221 -92t-123 -256h540l-41 -133h-518
q-2 -23 -2 -72q0 -34 4 -96h477l-38 -135h-420q32 -155 116 -238.5t222 -83.5q81 0 167 32.5t160 96.5z" />
    <glyph glyph-name="uni2113" unicode="&#x2113;" horiz-adv-x="837" 
d="M715 238h10l25 -195q-111 -84 -254 -84q-155 0 -243.5 94.5t-88.5 263.5v17l-58 -45l-88 131l146 112v555q0 203 87.5 313.5t248.5 110.5q136 0 212 -80t76 -229q0 -373 -393 -692v-160q0 -88 38.5 -136t105.5 -48q90 0 176 72zM504 1348q-109 0 -109 -213v-422
q97 88 149 209.5t52 263.5q0 83 -22.5 122.5t-69.5 39.5z" />
    <glyph glyph-name="uni2116" unicode="&#x2116;" horiz-adv-x="2347" 
d="M1851 889q-129 0 -217 84.5t-88 210.5q0 127 87 211t218 84q134 0 222 -84t88 -211q0 -126 -89 -210.5t-221 -84.5zM1325 -23h-129l-520 691q-169 228 -264 360h-6q12 -258 12 -379v-649h-232v1450h193l450 -602q255 -339 269 -371h6q-12 197 -12 377v596h233v-1473z
M1851 1030q62 0 104 44t42 110q0 67 -41.5 111t-104.5 44t-103 -43.5t-40 -111.5q0 -66 41 -110t102 -44zM2144 530h-585v152h585v-152z" />
    <glyph glyph-name="uni2117" unicode="&#x2117;" horiz-adv-x="1787" 
d="M895 -39q-160 0 -302.5 59t-244 160.5t-160.5 242.5t-59 300t59 301.5t160.5 244t244 161t302.5 59.5t302 -59.5t243 -161t160 -243.5t59 -302q0 -159 -59 -300t-160 -242.5t-243 -160.5t-302 -59zM893 90q174 0 318 83.5t226.5 229t82.5 320.5q0 177 -82 323t-225.5 230
t-317.5 84t-318 -84t-226.5 -230.5t-82.5 -322.5t82 -321t225.5 -228.5t317.5 -83.5zM825 287h-163v850h282q148 0 228.5 -69.5t80.5 -203.5q0 -122 -81 -194t-220 -72h-127v-311zM825 993v-254h99q89 0 127.5 30.5t38.5 94.5q0 68 -38 98.5t-128 30.5h-99z" />
    <glyph glyph-name="trademark" unicode="&#x2122;" horiz-adv-x="2021" 
d="M522 606h-160v701h-276v143h707v-143h-271v-701zM1112 606h-156v844h220l237 -496h4l236 496h215v-844h-156v469v193h-4q-52 -99 -96 -193l-191 -389h-22l-189 389q-62 131 -94 193h-4v-193v-469z" />
    <glyph glyph-name="uni2126" unicode="&#x2126;" horiz-adv-x="1705" 
d="M1597 764q0 -167 -71 -306t-187 -237h238v-221h-604v207q61 0 127.5 39.5t122.5 106.5t92.5 169t36.5 215q0 228 -139 379.5t-361 151.5q-146 0 -260.5 -70.5t-176 -191t-61.5 -269.5q0 -113 36.5 -215t92.5 -169t122.5 -106.5t127.5 -39.5v-207h-606v221h240
q-116 98 -187 237t-71 306q0 147 53 279.5t148 231.5t235.5 157.5t306.5 58.5t307.5 -58.5t236.5 -157.5t148 -231.5t53 -279.5z" />
    <glyph glyph-name="estimated" unicode="&#x212e;" horiz-adv-x="1763" 
d="M1642 680h-1157v-330q0 -66 60.5 -133t160.5 -111.5t203 -44.5q165 0 298 66.5t223 191.5h12l24 -147q-233 -213 -561 -213q-152 0 -295 56.5t-252 155.5t-175 243.5t-66 308.5q0 175 58 319.5t161 242.5t247.5 152t315.5 54q167 0 308 -56t237 -153.5t149.5 -231.5
t53.5 -288q0 -48 -5 -82zM485 784h805v316q-2 113 -115.5 203t-289.5 90q-90 0 -167.5 -26.5t-127 -69.5t-77.5 -94.5t-28 -102.5v-316z" />
    <glyph glyph-name="uni2153" unicode="&#x2153;" horiz-adv-x="1843" 
d="M483 614h-178v506q0 55 14 127l-4 2q-41 -28 -77 -47l-93 -55l-16 4l14 176l285 139h55v-852zM1120 1450h191l-393 -725l-369 -725h-191l424 782zM1407 -27q-70 0 -143.5 20t-126.5 50l28 158h11q101 -72 217 -72q64 0 99.5 32t35.5 85q0 55 -38.5 85.5t-111.5 30.5h-100
v119h94q69 0 107.5 32.5t38.5 88.5q0 52 -31.5 81.5t-87.5 29.5q-111 0 -221 -76h-9l-28 151q55 31 138 54.5t157 23.5q119 0 189.5 -62.5t70.5 -164.5q0 -75 -39.5 -130.5t-112.5 -78.5v-2q79 -20 124.5 -76.5t45.5 -130.5q0 -107 -85.5 -177.5t-221.5 -70.5z" />
    <glyph glyph-name="uni2154" unicode="&#x2154;" horiz-adv-x="1843" 
d="M631 614h-570l-10 56l225 250q94 102 137.5 169.5t43.5 122.5q0 47 -30.5 77t-84.5 30q-108 0 -221 -82h-8l-29 174q55 27 135 48.5t146 21.5q125 0 199.5 -69.5t74.5 -182.5q0 -173 -182 -355l-51 -53q-6 -6 -78 -65v-2q73 12 137 12h166v-152zM1200 1450h191l-396 -725
l-366 -725h-191l424 782zM1487 -27q-71 0 -145.5 20t-127.5 50l29 158h10q101 -72 217 -72q64 0 100 32t36 85q0 55 -38.5 85.5t-109.5 30.5h-100v119h94q68 0 105.5 32.5t37.5 88.5q0 52 -31 81.5t-85 29.5q-115 0 -222 -76h-10l-26 151q56 31 137.5 54.5t157.5 23.5
q118 0 189 -62.5t71 -164.5q0 -74 -40.5 -130t-111.5 -79v-2q78 -20 123 -76t45 -131q0 -107 -85 -177.5t-220 -70.5z" />
    <glyph glyph-name="uni2155" unicode="&#x2155;" horiz-adv-x="1843" 
d="M487 614h-178v506q0 50 15 127l-5 2q-49 -32 -77 -47l-92 -55l-15 4l12 176l287 139h53v-852zM1124 1450h191l-393 -725l-369 -725h-191l424 782zM1395 -27q-158 0 -287 70l29 154h10q109 -74 227 -74q73 0 113.5 40.5t40.5 108.5q0 64 -39.5 103t-108.5 39
q-101 0 -190 -56l-51 25l30 457h471v-150h-321l-10 -170q67 25 131 25q121 0 194.5 -74.5t73.5 -196.5q0 -135 -85 -218t-228 -83z" />
    <glyph glyph-name="uni2156" unicode="&#x2156;" horiz-adv-x="1843" 
d="M651 614h-569l-10 56l225 250q93 101 135.5 169t42.5 123q0 47 -29.5 77t-83.5 30q-112 0 -221 -82h-10l-29 174q54 27 135.5 48.5t147.5 21.5q125 0 198.5 -69t73.5 -183q0 -175 -180 -355l-53 -53q-13 -15 -78 -65v-2q76 12 139 12h166v-152zM1204 1450h191l-396 -725
l-366 -725h-191l424 782zM1458 -27q-158 0 -287 70l29 154h10q109 -74 228 -74q71 0 112 40.5t41 108.5q0 64 -39.5 103t-107.5 39q-102 0 -191 -56l-51 25l31 457h471v-150h-322l-10 -170q67 25 131 25q121 0 195 -74.5t74 -196.5q0 -135 -85.5 -218t-228.5 -83z" />
    <glyph glyph-name="uni2157" unicode="&#x2157;" horiz-adv-x="1843" 
d="M352 588q-71 0 -145 19t-127 48l29 160h10q104 -74 217 -74q63 0 99 32.5t36 86.5q0 55 -38 86t-109 31h-101v117h94q68 0 106 33t38 90q0 51 -31.5 80.5t-85.5 29.5q-114 0 -221 -76h-10l-27 152q56 31 137.5 54.5t157.5 23.5q118 0 189 -63.5t71 -166.5
q0 -74 -40.5 -129.5t-111.5 -77.5v-4q79 -19 123.5 -74.5t44.5 -131.5q0 -107 -85 -176.5t-220 -69.5zM1198 1450h191l-396 -725l-366 -725h-193l426 782zM1450 -27q-158 0 -287 70l29 154h10q109 -74 228 -74q72 0 112.5 40.5t40.5 108.5q0 64 -39 103t-108 39
q-102 0 -191 -56l-49 25l31 457h469v-150h-322l-10 -170q67 25 131 25q121 0 194.5 -74.5t73.5 -196.5q0 -135 -85 -218t-228 -83z" />
    <glyph glyph-name="uni2158" unicode="&#x2158;" horiz-adv-x="1843" 
d="M621 614h-172v164h-402l-16 103l420 581h170v-534h100v-150h-100v-164zM1245 1450h191l-394 -725l-368 -725h-191l424 782zM340 1075l-104 -147h215v84q0 42 5.5 127t12.5 131h-6q-49 -90 -123 -195zM1497 -27q-156 0 -285 70l29 154h10q109 -74 228 -74q71 0 112 40.5
t41 108.5q0 64 -39.5 103t-107.5 39q-105 0 -191 -56l-51 25l31 457h471v-150h-322l-10 -170q67 25 129 25q123 0 196.5 -74.5t73.5 -196.5q0 -135 -85 -218t-230 -83z" />
    <glyph glyph-name="uni2159" unicode="&#x2159;" horiz-adv-x="1843" 
d="M496 614h-179v506q0 50 15 127l-4 2q-37 -25 -78 -47l-92 -55l-15 4l13 176l284 139h56v-852zM799 782l338 668h190l-395 -725l-367 -725h-190zM1456 557q110 0 177 -74t67 -196q0 -143 -88 -228.5t-234 -85.5q-147 0 -235 86t-88 226q0 84 40 168.5t142 212.5l135 174
l189 -2l8 -23l-119 -156q-67 -86 -135 -141l2 -4q64 43 139 43zM1384 129q65 0 101.5 41t36.5 113q0 69 -36.5 108t-101.5 39q-64 0 -118 -41q-29 -60 -29 -110q0 -69 40.5 -109.5t106.5 -40.5z" />
    <glyph glyph-name="uni215A" unicode="&#x215a;" horiz-adv-x="1843" 
d="M662 887q0 -133 -85.5 -216t-228.5 -83q-160 0 -287 69l29 154h10q111 -76 228 -76q73 0 113 41t40 111q0 63 -39 102t-108 39q-105 0 -191 -57l-49 24l31 459h469v-149h-322l-10 -172q57 24 131 24q121 0 195 -74t74 -196zM883 782l336 668h190l-393 -725l-369 -725
h-190zM1536 557q110 0 178 -74.5t68 -195.5q0 -142 -89 -228t-235 -86q-147 0 -235 86t-88 226q0 84 40 168.5t142 212.5l135 174l188 -2l9 -23l-119 -156q-71 -91 -135 -141l2 -4q64 43 139 43zM1464 129q65 0 101.5 41t36.5 113q0 69 -36.5 108t-101.5 39q-62 0 -116 -41
q-31 -57 -31 -110q0 -69 40.5 -109.5t106.5 -40.5z" />
    <glyph glyph-name="oneeighth" unicode="&#x215b;" horiz-adv-x="1843" 
d="M473 614h-176v506q0 66 12 127l-4 2q-46 -31 -76 -47l-92 -55l-16 4l12 176l287 139h53v-852zM776 782l338 668h191l-396 -725l-366 -725h-193zM1581 436q69 -31 105 -85.5t36 -125.5q0 -116 -86.5 -184t-232.5 -68q-149 0 -234.5 64.5t-85.5 173.5q0 69 37 123.5
t103 85.5q-107 63 -107 201q0 110 80.5 177.5t214.5 67.5q128 0 204.5 -64t76.5 -169q0 -59 -29.5 -111t-81.5 -86zM1405 727q-52 0 -82.5 -32.5t-30.5 -86.5q0 -98 99 -121l57 -14q68 59 68 141q0 50 -31 81.5t-80 31.5zM1403 115q62 0 97.5 32t35.5 89q0 52 -31 85t-88 44
l-63 12q-84 -57 -84 -139q0 -56 37 -89.5t96 -33.5z" />
    <glyph glyph-name="threeeighths" unicode="&#x215c;" horiz-adv-x="1843" 
d="M643 836q0 -107 -85 -176.5t-220 -69.5q-71 0 -145 19t-127 48l28 160h10q107 -74 218 -74q63 0 99 32.5t36 86.5q0 55 -38.5 86t-109.5 31h-100v117h94q68 0 105.5 32.5t37.5 90.5q0 51 -31 80.5t-85 29.5q-114 0 -221 -76h-11l-26 152q56 31 137.5 54.5t157.5 23.5
q119 0 189.5 -63t70.5 -167q0 -74 -40.5 -129t-111.5 -77v-5q79 -19 123.5 -74.5t44.5 -131.5zM848 782l338 668h190l-395 -725l-367 -725h-190zM1636 436q69 -31 105.5 -85.5t36.5 -125.5q0 -115 -87 -183.5t-233 -68.5q-148 0 -233.5 64.5t-85.5 173.5q0 69 36.5 123.5
t102.5 85.5q-107 63 -107 201q0 110 80.5 177.5t214.5 67.5q128 0 204.5 -64t76.5 -169q0 -59 -29.5 -111t-81.5 -86zM1460 727q-52 0 -82 -32.5t-30 -86.5q0 -99 98 -121l57 -14q68 59 68 141q0 50 -31 81.5t-80 31.5zM1458 115q62 0 97.5 32t35.5 89q0 107 -118 129
l-64 12q-84 -57 -84 -139q0 -56 37 -89.5t96 -33.5z" />
    <glyph glyph-name="fiveeighths" unicode="&#x215d;" horiz-adv-x="1843" 
d="M659 887q0 -134 -85 -216.5t-228 -82.5q-160 0 -287 69l29 154h10q111 -76 228 -76q73 0 113 41t40 111q0 63 -39 102t-108 39q-105 0 -191 -57l-51 24l31 459h471v-149h-322l-10 -172q57 24 131 24q121 0 194.5 -74t73.5 -196zM854 782l338 668h190l-395 -725l-366 -725
h-193zM1640 436q69 -31 106.5 -86t37.5 -125q0 -115 -87.5 -183.5t-234.5 -68.5q-148 0 -232.5 64t-84.5 174q0 69 35.5 123.5t101.5 85.5q-104 61 -104 201q0 110 80.5 177.5t214.5 67.5q127 0 203.5 -64t76.5 -169q0 -58 -30 -110.5t-83 -86.5zM1464 727
q-51 0 -80.5 -32.5t-29.5 -86.5q0 -98 96 -121l57 -14q70 60 70 141q0 50 -31 81.5t-82 31.5zM1464 115q61 0 97 32.5t36 88.5q0 52 -31.5 85t-88.5 44l-64 12q-82 -57 -82 -139q0 -56 37 -89.5t96 -33.5z" />
    <glyph glyph-name="seveneighths" unicode="&#x215e;" horiz-adv-x="1843" 
d="M723 1454l4 -24l-356 -816h-154l-12 23l280 663h-360v154h598zM791 782l337 668h191l-393 -725l-369 -725h-190zM1579 436q69 -31 105 -85.5t36 -125.5q0 -116 -86.5 -184t-232.5 -68q-149 0 -234.5 64.5t-85.5 173.5q0 69 37 123.5t103 85.5q-107 63 -107 201
q0 110 80.5 177.5t214.5 67.5q128 0 204.5 -64t76.5 -169q0 -59 -29.5 -111t-81.5 -86zM1403 727q-52 0 -82.5 -32.5t-30.5 -86.5q0 -98 99 -121l57 -14q67 58 67 141q0 50 -30.5 81.5t-79.5 31.5zM1401 115q62 0 97.5 32t35.5 89q0 52 -31 85t-88 44l-63 12
q-84 -57 -84 -139q0 -56 37 -89.5t96 -33.5z" />
    <glyph glyph-name="arrowleft" unicode="&#x2190;" horiz-adv-x="2070" 
d="M1159 80h-254l-614 629l614 628h254v-10l-368 -377q-78 -82 -154 -147l2 -4q81 8 203 8h940v-197h-940q-122 0 -203 8l-2 -4q76 -65 154 -147l368 -377v-10z" />
    <glyph glyph-name="arrowup" unicode="&#x2191;" horiz-adv-x="1959" 
d="M1079 0h-198v940q0 122 8 203l-4 2q-65 -75 -146 -156l-379 -366h-8v254l629 614l629 -614v-254h-11l-378 366q-81 81 -146 156l-4 -2q8 -81 8 -203v-940z" />
    <glyph glyph-name="arrowright" unicode="&#x2192;" horiz-adv-x="2070" 
d="M1167 80h-256v10l369 377q78 82 154 147l-2 4q-81 -8 -203 -8h-938v197h938q122 0 203 -8l2 4q-76 65 -154 147l-369 377v10h256l615 -628z" />
    <glyph glyph-name="arrowdown" unicode="&#x2193;" horiz-adv-x="1959" 
d="M1610 573l-629 -614l-629 614v254h8l379 -366q81 -81 146 -156l4 2q-8 81 -8 203v940h198v-940q0 -122 -8 -203l4 -2q65 75 146 156l378 366h11v-254z" />
    <glyph glyph-name="arrowboth" unicode="&#x2194;" horiz-adv-x="2910" 
d="M1159 80h-254l-614 629l614 628h254v-10l-368 -377q-78 -82 -154 -147l2 -4q81 8 203 8h1233q117 0 196 -8l2 4q-70 60 -153 147l-369 377v10h256l614 -628l-614 -629h-256v10l369 377q83 87 153 147l-2 4q-79 -8 -196 -8h-1233q-122 0 -203 8l-2 -4q76 -65 154 -147
l368 -377v-10z" />
    <glyph glyph-name="arrowupdn" unicode="&#x2195;" horiz-adv-x="1959" 
d="M1610 123l-629 -615l-629 615v254h8l379 -367q87 -87 146 -155l4 2q-8 81 -8 202v1051q0 118 8 199l-4 2q-64 -77 -146 -156l-379 -367h-8v254l629 615l629 -615v-254h-11l-378 367q-82 79 -146 156l-4 -2q8 -81 8 -199v-1051q0 -121 -8 -202l4 -2q58 68 146 155l378 367
h11v-254z" />
    <glyph glyph-name="uni2196" unicode="&#x2196;" horiz-adv-x="1898" 
d="M1567 250l-140 -137l-665 663q-58 55 -137 150l-4 -2q6 -92 6 -213l-9 -527l-6 -8l-178 180l10 879l879 10l178 -178l-6 -8l-526 -6q-121 -3 -215 6v-4q70 -62 149 -140z" />
    <glyph glyph-name="uni2197" unicode="&#x2197;" horiz-adv-x="1898" 
d="M1135 776l-666 -663l-137 137l663 665q70 73 150 140l-2 4q-91 -9 -213 -6l-527 6l-8 8l180 178l879 -10l10 -879l-178 -180l-8 8l-6 527q-3 120 6 213l-4 2q-71 -85 -139 -150z" />
    <glyph glyph-name="uni2198" unicode="&#x2198;" horiz-adv-x="1898" 
d="M1454 121l-879 -10l-180 180l8 6l527 8q124 0 213 -6l2 4q-95 79 -150 137l-663 666l137 139l666 -665q60 -57 139 -148h4q-9 94 -6 213l6 529l8 6l178 -181z" />
    <glyph glyph-name="uni2199" unicode="&#x2199;" horiz-adv-x="1898" 
d="M1501 291l-178 -180l-879 10l-10 878l178 181l6 -6l9 -529q0 -121 -6 -213h4q89 102 137 148l665 665l140 -139l-664 -666q-55 -55 -149 -137v-4q91 6 215 6l526 -8z" />
    <glyph glyph-name="partialdiff" unicode="&#x2202;" horiz-adv-x="1433" 
d="M700 1489q131 0 229.5 -60.5t158.5 -172t90 -260.5t30 -334q-1 -182 -39.5 -318t-110 -219t-168 -123.5t-218.5 -40.5q-196 0 -321.5 130t-125.5 333q0 197 121.5 333t300.5 136q206 0 342 -178q-11 296 -87 440.5t-230 144.5q-138 0 -242 -145l-18 -2l-138 94
q66 110 179.5 176t246.5 66zM705 156q132 0 203.5 93t68.5 247v24q-49 88 -120.5 133t-154.5 45q-113 0 -182 -76t-69 -200q0 -119 68 -192.5t186 -73.5z" />
    <glyph glyph-name="emptyset" unicode="&#x2205;" horiz-adv-x="1368" 
d="M1083 1188h148l-150 -178q70 -72 109 -169t39 -208q0 -230 -154.5 -384.5t-384.5 -154.5q-170 0 -301 86l-90 -106h-147l149 178q-147 153 -147 381q0 229 153 381.5t383 152.5q172 0 303 -86zM334 633q0 -142 84 -242l461 553q-82 51 -189 51q-152 0 -254 -103.5
t-102 -258.5zM1049 633q0 137 -84 237l-463 -553q85 -51 188 -51q154 0 256.5 104.5t102.5 262.5z" />
    <glyph glyph-name="uni2206" unicode="&#x2206;" horiz-adv-x="1404" 
d="M586 1450h239l588 -1442l-8 -8h-1405l-8 8zM600 905l-270 -708h743l-274 708q-60 162 -97 295h-6q-39 -143 -96 -295z" />
    <glyph glyph-name="product" unicode="&#x220f;" horiz-adv-x="1441" 
d="M375 -446h-236v1685h-119v211h1401v-211h-118v-1685h-236v1685h-692v-1685z" />
    <glyph glyph-name="summation" unicode="&#x2211;" horiz-adv-x="1259" 
d="M1214 -451h-1171v191l631 784l-602 738v190h1120v-213h-830l582 -715l-614 -762h884v-213z" />
    <glyph glyph-name="minus" unicode="&#x2212;" horiz-adv-x="1368" 
d="M1237 532h-1106v177h1106v-177z" />
    <glyph glyph-name="uni2215" unicode="&#x2215;" horiz-adv-x="774" 
d="M653 1546h224l-754 -1642h-225z" />
    <glyph glyph-name="uni2219" unicode="&#x2219;" horiz-adv-x="864" 
d="M434 475q-64 0 -106.5 42.5t-42.5 103.5q0 62 42.5 103.5t106.5 41.5q62 0 105 -42t43 -103q0 -60 -43.5 -103t-104.5 -43z" />
    <glyph glyph-name="radical" unicode="&#x221a;" horiz-adv-x="1157" 
d="M668 -23h-160l-313 723h-156v215h319l211 -524h9l309 1059h254z" />
    <glyph glyph-name="infinity" unicode="&#x221e;" horiz-adv-x="1368" 
d="M350 289q-138 0 -223.5 93.5t-85.5 235.5q0 145 84.5 240.5t220.5 95.5q201 0 338 -227q135 227 338 227q136 0 219.5 -95.5t83.5 -240.5q0 -142 -85 -235.5t-222 -93.5q-92 0 -169.5 49t-164.5 168q-89 -119 -166.5 -168t-167.5 -49zM371 457q57 0 116 43t99 118
q-69 98 -119 134t-105 36q-66 0 -105.5 -47t-39.5 -120q0 -75 40 -119.5t114 -44.5zM997 457q72 0 112 44.5t40 119.5q0 73 -39.5 120t-105.5 47q-55 0 -104 -36t-120 -134q40 -75 99.5 -118t117.5 -43z" />
    <glyph glyph-name="integral" unicode="&#x222b;" horiz-adv-x="731" 
d="M176 -492q-89 0 -156 23v186l19 9q51 -29 115 -29q61 0 85.5 52t24.5 200v1386q0 234 64 325t229 91q90 0 154 -22v-187l-19 -8q-51 29 -112 29q-42 0 -65.5 -20.5t-35.5 -75.5t-12 -156v-1387q0 -234 -63.5 -325t-227.5 -91z" />
    <glyph glyph-name="approxequal" unicode="&#x2248;" horiz-adv-x="1368" 
d="M913 668q-59 0 -111.5 15t-91.5 36t-75.5 42.5t-79.5 36.5t-88 15q-109 0 -197 -137l-16 -2l-117 82q140 229 318 229q72 0 137.5 -23t106 -50.5t94.5 -50.5t106 -23q113 0 197 139l16 2l117 -84q-140 -227 -316 -227zM913 260q-72 0 -136.5 22.5t-105 49t-95.5 49
t-109 22.5q-111 0 -197 -137l-16 -2l-117 82q140 229 318 229q59 0 112.5 -15t92.5 -36t75.5 -42.5t78.5 -36.5t85 -15q115 0 197 139l16 2l117 -84q-138 -227 -316 -227z" />
    <glyph glyph-name="notequal" unicode="&#x2260;" horiz-adv-x="1368" 
d="M1237 913v-174h-412l-104 -235h516v-176h-596l-125 -281h-172l125 281h-338v176h418l104 235h-522v174h600l125 281h172l-125 -281h334z" />
    <glyph glyph-name="lessequal" unicode="&#x2264;" horiz-adv-x="1368" 
d="M152 858l1065 414v-191l-775 -288l775 -291v-191l-1065 414v133zM1217 0h-1065v174h1065v-174z" />
    <glyph glyph-name="greaterequal" unicode="&#x2265;" horiz-adv-x="1368" 
d="M152 1081v191l1065 -414v-133l-1065 -414v191l772 291zM1217 0h-1065v174h1065v-174z" />
    <glyph glyph-name="lozenge" unicode="&#x25ca;" horiz-adv-x="1427" 
d="M793 -39h-164l-353 764l355 764h162l358 -764zM473 725l238 -555l243 555l-243 555z" />
    <glyph glyph-name="fi" unicode="&#xfb01;" horiz-adv-x="1310" 
d="M444 0h-223v827h-176v179h176v129q0 213 87 312t267 99q130 0 238 -41l-16 -186l-21 -10q-87 43 -174 43q-81 0 -119.5 -47t-38.5 -162v-137h304v-179h-304v-827zM1036 1188q-61 0 -103 40t-42 99q0 60 41.5 99.5t103.5 39.5q63 0 105.5 -40t42.5 -99q0 -58 -43 -98.5
t-105 -40.5zM1149 0h-223v1006h223v-1006z" />
    <glyph glyph-name="fl" unicode="&#xfb02;" horiz-adv-x="1320" 
d="M444 0h-223v827h-176v179h176v129q0 213 87 312t267 99q130 0 238 -41l-16 -186l-21 -10q-87 43 -174 43q-81 0 -119.5 -47t-38.5 -162v-137h304v-179h-304v-827zM1159 0h-223v1505h223v-1505z" />
    <glyph glyph-name="i.loclTRK" horiz-adv-x="546" 
d="M272 1188q-62 0 -103.5 40t-41.5 101q0 58 41.5 97.5t103.5 39.5q63 0 105.5 -40t42.5 -99q0 -60 -42.5 -99.5t-105.5 -39.5zM385 0h-223v1006h223v-1006z" />
    <glyph glyph-name="a.sc" horiz-adv-x="1126" 
d="M440 1094h246l447 -1086l-7 -8h-237l-90 233h-473l-88 -233h-238l-6 8zM473 625l-88 -234h354l-90 234q-71 216 -86 280h-4q-22 -86 -86 -280z" />
    <glyph glyph-name="aacute.sc" horiz-adv-x="1126" 
d="M864 1589l8 -14l-260 -320h-163l194 334h221zM440 1094h246l447 -1086l-7 -8h-237l-90 233h-473l-88 -233h-238l-6 8zM473 625l-88 -234h354l-90 234q-71 216 -86 280h-4q-22 -86 -86 -280z" />
    <glyph glyph-name="abreve.sc" horiz-adv-x="1126" 
d="M563 1262q-140 0 -228 72.5t-97 197.5l16 16h133q26 -135 176 -135q153 0 176 135h135l17 -16q-9 -125 -98 -197.5t-230 -72.5zM440 1094h246l447 -1086l-7 -8h-237l-90 233h-473l-88 -233h-238l-6 8zM473 625l-88 -234h354l-90 234q-71 216 -86 280h-4q-22 -86 -86 -280
z" />
    <glyph glyph-name="acircumflex.sc" horiz-adv-x="1126" 
d="M563 1477l-153 -222h-156l-12 17l215 319h213l213 -319l-13 -17h-155zM440 1094h246l447 -1086l-7 -8h-237l-90 233h-473l-88 -233h-238l-6 8zM473 625l-88 -234h354l-90 234q-71 216 -86 280h-4q-22 -86 -86 -280z" />
    <glyph glyph-name="adieresis.sc" horiz-adv-x="1126" 
d="M371 1296q-57 1 -91 37t-34 92q0 55 34.5 91t90.5 36t91.5 -36t35.5 -91q0 -56 -35 -92t-92 -37zM754 1296q-57 1 -91 37t-34 92q0 55 34.5 91t90.5 36q57 0 92 -36t35 -91q0 -56 -34.5 -92t-92.5 -37zM440 1094h246l447 -1086l-7 -8h-237l-90 233h-473l-88 -233h-238
l-6 8zM473 625l-88 -234h354l-90 234q-71 216 -86 280h-4q-22 -86 -86 -280z" />
    <glyph glyph-name="agrave.sc" horiz-adv-x="1126" 
d="M481 1591l197 -336h-164l-262 320l8 16h221zM440 1094h246l447 -1086l-7 -8h-237l-90 233h-473l-88 -233h-238l-6 8zM473 625l-88 -234h354l-90 234q-71 216 -86 280h-4q-22 -86 -86 -280z" />
    <glyph glyph-name="amacron.sc" horiz-adv-x="1126" 
d="M270 1481h586v-154h-586v154zM440 1094h246l447 -1086l-7 -8h-237l-90 233h-473l-88 -233h-238l-6 8zM473 625l-88 -234h354l-90 234q-71 216 -86 280h-4q-22 -86 -86 -280z" />
    <glyph glyph-name="aogonek.sc" horiz-adv-x="1126" 
d="M1124 -289h9l18 -131q-92 -45 -188 -45q-93 0 -147 48t-54 128q0 84 52 159.5t142 129.5h-67l-90 233h-473l-88 -233h-238l-6 8l446 1086h246l447 -1086l-7 -8h-41q-165 -133 -165 -256q0 -74 81 -74q69 0 123 41zM473 625l-88 -234h354l-90 234q-71 216 -86 280h-4
q-22 -86 -86 -280z" />
    <glyph glyph-name="aring.sc" horiz-adv-x="1126" 
d="M563 1237q-86 0 -145.5 58t-59.5 145q0 86 60 144t145 58q86 0 146.5 -58.5t60.5 -143.5q0 -87 -60.5 -145t-146.5 -58zM563 1546q-45 0 -74.5 -30.5t-29.5 -75.5t29.5 -76t74.5 -31q47 0 77 31t30 76t-30 75.5t-77 30.5zM440 1094h246l447 -1086l-7 -8h-237l-90 233
h-473l-88 -233h-238l-6 8zM473 625l-88 -234h354l-90 234q-71 216 -86 280h-4q-22 -86 -86 -280z" />
    <glyph glyph-name="atilde.sc" horiz-adv-x="1126" 
d="M379 1290l-17 -12h-124q10 110 66 179t134 69q43 0 129 -48t115 -48t43.5 17t24.5 66l14 13h125q-9 -110 -65 -179t-136 -69q-49 0 -131.5 48t-112.5 48q-28 0 -41.5 -17.5t-23.5 -66.5zM440 1094h246l447 -1086l-7 -8h-237l-90 233h-473l-88 -233h-238l-6 8zM473 625
l-88 -234h354l-90 234q-71 216 -86 280h-4q-22 -86 -86 -280z" />
    <glyph glyph-name="ae.sc" horiz-adv-x="1572" 
d="M1411 477h-455v-287h504l-22 -190h-705v231h-350l-131 -231h-254l-4 8l622 1086h822l22 -191h-504v-270h455v-156zM610 637l-137 -244h260v238q0 117 10 274h-6q-50 -118 -127 -268z" />
    <glyph glyph-name="b.sc" horiz-adv-x="1079" 
d="M549 0h-379v1094h385q198 0 297.5 -74t99.5 -211q0 -82 -50.5 -145t-137.5 -86v-5q115 -23 176 -91t61 -171q0 -156 -110 -233.5t-342 -77.5zM397 922v-287h142q198 0 198 147q0 140 -200 140h-140zM397 494v-318h138q132 0 189.5 38t57.5 122q0 79 -54.5 118.5
t-172.5 39.5h-158z" />
    <glyph glyph-name="c.sc" horiz-adv-x="1173" 
d="M664 -41q-253 0 -409.5 162.5t-156.5 423.5q0 258 162.5 424t409.5 166q205 0 399 -121l-35 -221h-10q-174 131 -338 131q-156 0 -253 -104.5t-97 -272.5q0 -167 96.5 -271t247.5 -104q173 0 346 133h10l37 -223q-203 -123 -409 -123z" />
    <glyph glyph-name="cacute.sc" horiz-adv-x="1173" 
d="M709 1255h-164l194 334h222l8 -14zM664 -41q-253 0 -409.5 162.5t-156.5 423.5q0 258 162.5 424t409.5 166q205 0 399 -121l-35 -221h-10q-174 131 -338 131q-156 0 -253 -104.5t-97 -272.5q0 -167 96.5 -271t247.5 -104q173 0 346 133h10l37 -223q-203 -123 -409 -123z
" />
    <glyph glyph-name="ccaron.sc" horiz-adv-x="1173" 
d="M766 1255h-213l-215 318l12 16h156l153 -221l152 221h156l12 -16zM664 -41q-253 0 -409.5 162.5t-156.5 423.5q0 258 162.5 424t409.5 166q205 0 399 -121l-35 -221h-10q-174 131 -338 131q-156 0 -253 -104.5t-97 -272.5q0 -167 96.5 -271t247.5 -104q173 0 346 133h10
l37 -223q-203 -123 -409 -123z" />
    <glyph glyph-name="ccedilla.sc" horiz-adv-x="1173" 
d="M737 -135q63 0 106.5 -43.5t43.5 -108.5q0 -95 -69 -150t-191 -55q-107 0 -197 46l21 124h10q76 -49 162 -49q51 0 77.5 22.5t26.5 59.5q0 68 -86 68q-45 0 -106 -25l-19 19l84 188q-228 22 -365 181t-137 403q0 258 162.5 424t409.5 166q205 0 399 -121l-35 -221h-10
q-174 131 -338 131q-156 0 -253 -104.5t-97 -272.5q0 -167 96.5 -271t247.5 -104q173 0 346 133h10l37 -223q-174 -104 -340 -119l-49 -104q24 6 53 6z" />
    <glyph glyph-name="cdotaccent.sc" horiz-adv-x="1173" 
d="M657 1292q-59 0 -99 37.5t-40 95.5q0 59 40 97.5t99 38.5q61 0 101.5 -38.5t40.5 -97.5q0 -58 -40.5 -95.5t-101.5 -37.5zM664 -41q-253 0 -409.5 162.5t-156.5 423.5q0 258 162.5 424t409.5 166q205 0 399 -121l-35 -221h-10q-174 131 -338 131q-156 0 -253 -104.5
t-97 -272.5q0 -167 96.5 -271t247.5 -104q173 0 346 133h10l37 -223q-203 -123 -409 -123z" />
    <glyph glyph-name="d.sc" horiz-adv-x="1273" 
d="M530 0h-360v1094h365q310 0 478.5 -143t168.5 -398q0 -259 -173.5 -406t-478.5 -147zM397 895v-698h123q215 0 320.5 87t105.5 269q0 173 -105.5 257.5t-320.5 84.5h-123z" />
    <glyph glyph-name="eth.sc" horiz-adv-x="1273" 
d="M170 1094h365q310 0 478.5 -143t168.5 -398q0 -259 -173.5 -406t-478.5 -147h-360v479h-141v150h141v465zM397 197h123q215 0 320.5 87t105.5 269q0 173 -105.5 257.5t-320.5 84.5h-123v-266h256v-150h-256v-282z" />
    <glyph glyph-name="dcroat.sc" horiz-adv-x="1273" 
d="M170 1094h365q310 0 478.5 -143t168.5 -398q0 -259 -173.5 -406t-478.5 -147h-360v479h-141v150h141v465zM397 197h123q215 0 320.5 87t105.5 269q0 173 -105.5 257.5t-320.5 84.5h-123v-266h256v-150h-256v-282z" />
    <glyph glyph-name="e.sc" horiz-adv-x="1013" 
d="M848 467h-451v-274h502l-22 -193h-707v1094h707l22 -195h-502v-254h451v-178z" />
    <glyph glyph-name="eacute.sc" horiz-adv-x="1013" 
d="M829 1589l9 -14l-260 -320h-164l194 334h221zM848 467h-451v-274h502l-22 -193h-707v1094h707l22 -195h-502v-254h451v-178z" />
    <glyph glyph-name="ecaron.sc" horiz-adv-x="1013" 
d="M848 1573l-213 -318h-213l-215 318l12 16h156l153 -221l152 221h156zM848 467h-451v-274h502l-22 -193h-707v1094h707l22 -195h-502v-254h451v-178z" />
    <glyph glyph-name="ecircumflex.sc" horiz-adv-x="1013" 
d="M528 1477l-153 -222h-156l-12 17l215 319h213l213 -319l-12 -17h-156zM848 467h-451v-274h502l-22 -193h-707v1094h707l22 -195h-502v-254h451v-178z" />
    <glyph glyph-name="edieresis.sc" horiz-adv-x="1013" 
d="M336 1296q-57 1 -91 37t-34 92q0 55 34.5 91t90.5 36t91.5 -36t35.5 -91q0 -56 -35 -92t-92 -37zM719 1296q-57 1 -91 37t-34 92q0 55 34.5 91t90.5 36q57 0 92 -36t35 -91q0 -56 -34.5 -92t-92.5 -37zM848 467h-451v-274h502l-22 -193h-707v1094h707l22 -195h-502v-254
h451v-178z" />
    <glyph glyph-name="edotaccent.sc" horiz-adv-x="1013" 
d="M526 1292q-59 0 -99 37.5t-40 95.5q0 59 40 97.5t99 38.5q61 0 101.5 -38.5t40.5 -97.5q0 -58 -40.5 -95.5t-101.5 -37.5zM848 467h-451v-274h502l-22 -193h-707v1094h707l22 -195h-502v-254h451v-178z" />
    <glyph glyph-name="egrave.sc" horiz-adv-x="1013" 
d="M446 1591l197 -336h-164l-262 320l8 16h221zM848 467h-451v-274h502l-22 -193h-707v1094h707l22 -195h-502v-254h451v-178z" />
    <glyph glyph-name="emacron.sc" horiz-adv-x="1013" 
d="M236 1481h585v-154h-585v154zM848 467h-451v-274h502l-22 -193h-707v1094h707l22 -195h-502v-254h451v-178z" />
    <glyph glyph-name="eogonek.sc" horiz-adv-x="1013" 
d="M877 0h-64q-166 -134 -166 -256q0 -74 82 -74q69 0 123 41h8l19 -131q-92 -45 -189 -45q-93 0 -147 48t-54 128q0 84 52.5 159.5t142.5 129.5h-514v1094h707l22 -195h-502v-254h451v-178h-451v-274h502z" />
    <glyph glyph-name="f.sc" horiz-adv-x="954" 
d="M877 899h-480v-274h434v-179h-434v-446h-227v1094h684z" />
    <glyph glyph-name="g.sc" horiz-adv-x="1290" 
d="M678 -41q-261 0 -420.5 162t-159.5 420q0 264 167 429t433 165q230 0 447 -131l-39 -218h-10q-193 142 -383 142q-170 0 -271.5 -105.5t-101.5 -277.5t95 -277.5t249 -105.5q140 0 254 57v225h-270v160h469v-520q-221 -125 -459 -125z" />
    <glyph glyph-name="gbreve.sc" horiz-adv-x="1290" 
d="M682 1262q-140 0 -228.5 72.5t-97.5 197.5l17 16h133q26 -135 176 -135q153 0 176 135h135l17 -16q-9 -125 -98 -197.5t-230 -72.5zM678 -41q-261 0 -420.5 162t-159.5 420q0 264 167 429t433 165q230 0 447 -131l-39 -218h-10q-193 142 -383 142q-170 0 -271.5 -105.5
t-101.5 -277.5t95 -277.5t249 -105.5q140 0 254 57v225h-270v160h469v-520q-221 -125 -459 -125z" />
    <glyph glyph-name="uni0123.sc" horiz-adv-x="1290" 
d="M678 -41q-261 0 -420.5 162t-159.5 420q0 264 167 429t433 165q230 0 447 -131l-39 -218h-10q-193 142 -383 142q-170 0 -271.5 -105.5t-101.5 -277.5t95 -277.5t249 -105.5q140 0 254 57v225h-270v160h469v-520q-221 -125 -459 -125zM604 -129h189l12 -21l-170 -376
h-146z" />
    <glyph glyph-name="gdotaccent.sc" horiz-adv-x="1290" 
d="M682 1292q-59 0 -99 37.5t-40 95.5q0 59 40 97.5t99 38.5q61 0 101 -38t40 -98q0 -58 -40.5 -95.5t-100.5 -37.5zM678 -41q-261 0 -420.5 162t-159.5 420q0 264 167 429t433 165q230 0 447 -131l-39 -218h-10q-193 142 -383 142q-170 0 -271.5 -105.5t-101.5 -277.5
t95 -277.5t249 -105.5q140 0 254 57v225h-270v160h469v-520q-221 -125 -459 -125z" />
    <glyph glyph-name="h.sc" horiz-adv-x="1323" 
d="M926 649v445h229v-1094h-229v457h-529v-457h-227v1094h227v-445h529z" />
    <glyph glyph-name="hbar.sc" horiz-adv-x="1323" 
d="M1155 1094v-131h135v-148h-135v-815h-229v457h-529v-457h-227v815h-135v148h135v131h227v-131h529v131h229zM397 649h529v166h-529v-166z" />
    <glyph glyph-name="i.sc" horiz-adv-x="569" 
d="M170 0v1094h229v-1094h-229z" />
    <glyph glyph-name="iacute.sc" horiz-adv-x="569" 
d="M334 1255h-164l195 334h221l8 -14zM170 0v1094h229v-1094h-229z" />
    <glyph glyph-name="icircumflex.sc" horiz-adv-x="569" 
d="M131 1255h-156l-12 17l215 319h213l213 -319l-12 -17h-156l-151 222zM170 0v1094h229v-1094h-229z" />
    <glyph glyph-name="idieresis.sc" horiz-adv-x="569" 
d="M92 1296q-57 1 -91 37t-34 92q0 55 34.5 91t90.5 36t91.5 -36t35.5 -91q0 -56 -35 -92t-92 -37zM475 1296q-57 1 -91 37t-34 92q0 55 34.5 91t90.5 36q57 0 92 -36t35 -91q0 -56 -34.5 -92t-92.5 -37zM170 0v1094h229v-1094h-229z" />
    <glyph glyph-name="i.sc.loclTRK" horiz-adv-x="569" 
d="M283 1292q-59 0 -99.5 37.5t-40.5 95.5q0 59 40.5 97.5t99.5 38.5q61 0 101 -38t40 -98q0 -58 -40.5 -95.5t-100.5 -37.5zM170 0v1094h229v-1094h-229z" />
    <glyph glyph-name="igrave.sc" horiz-adv-x="569" 
d="M399 1255h-163l-263 320l9 16h221zM170 0v1094h229v-1094h-229z" />
    <glyph glyph-name="imacron.sc" horiz-adv-x="569" 
d="M578 1327h-586v154h586v-154zM170 0v1094h229v-1094h-229z" />
    <glyph glyph-name="iogonek.sc" horiz-adv-x="569" 
d="M403 -289h9l18 -131q-92 -45 -188 -45q-93 0 -147 48t-54 128q0 84 52.5 159.5t142.5 129.5h-66v1094h229v-1094h-34q-166 -134 -166 -256q0 -74 82 -74q68 0 122 41z" />
    <glyph glyph-name="j.sc" horiz-adv-x="575" 
d="M180 190v904h230v-873q0 -166 -59.5 -257t-211.5 -159l-96 140l2 14q74 36 104.5 85.5t30.5 145.5z" />
    <glyph glyph-name="k.sc" horiz-adv-x="1169" 
d="M1133 1083l-418 -452l436 -621l-2 -10h-258l-332 463l-162 -176v-287h-227v1094h227v-197q0 -243 -4 -356h4q95 135 213 264l256 289h260z" />
    <glyph glyph-name="uni0137.sc" horiz-adv-x="1169" 
d="M1133 1083l-418 -452l436 -621l-2 -10h-258l-332 463l-162 -176v-287h-227v1094h227v-197q0 -243 -4 -356h4q95 135 213 264l256 289h260zM428 -526l115 397h188l12 -21l-170 -376h-145z" />
    <glyph glyph-name="l.sc" horiz-adv-x="925" 
d="M170 0v1094h227v-893h506l-26 -201h-707z" />
    <glyph glyph-name="lacute.sc" horiz-adv-x="925" 
d="M334 1255h-164l195 334h221l8 -14zM170 0v1094h227v-893h506l-26 -201h-707z" />
    <glyph glyph-name="lcaron.sc" horiz-adv-x="925" 
d="M170 0v1094h227v-893h506l-26 -201h-707zM657 705h-129l58 389h168l12 -19z" />
    <glyph glyph-name="uni013C.sc" horiz-adv-x="925" 
d="M170 0v1094h227v-893h506l-26 -201h-707zM459 -129h188l12 -21l-170 -376h-145z" />
    <glyph glyph-name="lslash.sc" horiz-adv-x="925" 
d="M397 535v-334h506l-26 -201h-707v406l-143 -80v170l143 82v516h227v-387l230 129v-172z" />
    <glyph glyph-name="m.sc" horiz-adv-x="1513" 
d="M393 0h-223v1094h283l305 -633h2l305 633h278v-1094h-223v266q0 89 1 271t1 270h-2l-147 -293l-203 -401h-27l-202 401l-148 293h-2q0 -88 1 -270t1 -271v-266z" />
    <glyph glyph-name="n.sc" horiz-adv-x="1357" 
d="M391 0h-221v1094h201l393 -457q117 -144 215 -295h6q-18 135 -18 322v430h223v-1106h-164l-430 499q-149 179 -217 281h-6q18 -125 18 -315v-453z" />
    <glyph glyph-name="nacute.sc" horiz-adv-x="1357" 
d="M735 1255h-164l195 334h221l8 -14zM391 0h-221v1094h201l393 -457q117 -144 215 -295h6q-18 135 -18 322v430h223v-1106h-164l-430 499q-149 179 -217 281h-6q18 -125 18 -315v-453z" />
    <glyph glyph-name="ncaron.sc" horiz-adv-x="1357" 
d="M793 1255h-213l-215 318l12 16h155l154 -221l152 221h155l13 -16zM391 0h-221v1094h201l393 -457q117 -144 215 -295h6q-18 135 -18 322v430h223v-1106h-164l-430 499q-149 179 -217 281h-6q18 -125 18 -315v-453z" />
    <glyph glyph-name="uni0146.sc" horiz-adv-x="1357" 
d="M391 0h-221v1094h201l393 -457q117 -144 215 -295h6q-18 135 -18 322v430h223v-1106h-164l-430 499q-149 179 -217 281h-6q18 -125 18 -315v-453zM623 -129h188l12 -21l-170 -376h-145z" />
    <glyph glyph-name="eng.sc" horiz-adv-x="1366" 
d="M928 -492l-97 142l3 12q71 35 102.5 83t32.5 136v180l-371 424q-125 144 -217 283h-6q18 -127 18 -317v-451h-223v1094h201l399 -455q117 -144 215 -295h6q-18 152 -18 320v430h225v-1170q0 -166 -60 -257t-210 -159z" />
    <glyph glyph-name="ntilde.sc" horiz-adv-x="1357" 
d="M485 1278h-125q10 110 66.5 179t134.5 69q43 0 129 -48t115 -48t43 17t24 66l15 13h125q-9 -110 -65 -179t-136 -69q-49 0 -131.5 48t-112.5 48q-28 0 -41.5 -17.5t-23.5 -66.5zM391 0h-221v1094h201l393 -457q117 -144 215 -295h6q-18 135 -18 322v430h223v-1106h-164
l-430 499q-149 179 -217 281h-6q18 -125 18 -315v-453z" />
    <glyph glyph-name="o.sc" horiz-adv-x="1355" 
d="M680 -41q-256 0 -419 166.5t-163 421.5q0 168 73 302t206.5 210t302.5 76q254 0 415.5 -166t161.5 -422q0 -125 -42.5 -234t-118 -187t-183.5 -122.5t-233 -44.5zM680 168q152 0 246 106.5t94 272.5q0 167 -93.5 273t-246.5 106q-155 0 -248.5 -105.5t-93.5 -273.5
q0 -167 93.5 -273t248.5 -106z" />
    <glyph glyph-name="oacute.sc" horiz-adv-x="1355" 
d="M729 1255h-164l195 334h221l8 -14zM680 -41q-256 0 -419 166.5t-163 421.5q0 168 73 302t206.5 210t302.5 76q254 0 415.5 -166t161.5 -422q0 -125 -42.5 -234t-118 -187t-183.5 -122.5t-233 -44.5zM680 168q152 0 246 106.5t94 272.5q0 167 -93.5 273t-246.5 106
q-155 0 -248.5 -105.5t-93.5 -273.5q0 -167 93.5 -273t248.5 -106z" />
    <glyph glyph-name="ocircumflex.sc" horiz-adv-x="1355" 
d="M526 1255h-155l-13 17l215 319h213l213 -319l-12 -17h-156l-151 222zM680 -41q-256 0 -419 166.5t-163 421.5q0 168 73 302t206.5 210t302.5 76q254 0 415.5 -166t161.5 -422q0 -125 -42.5 -234t-118 -187t-183.5 -122.5t-233 -44.5zM680 168q152 0 246 106.5t94 272.5
q0 167 -93.5 273t-246.5 106q-155 0 -248.5 -105.5t-93.5 -273.5q0 -167 93.5 -273t248.5 -106z" />
    <glyph glyph-name="odieresis.sc" horiz-adv-x="1355" 
d="M487 1296q-57 1 -91 37t-34 92q0 55 34.5 91t90.5 36t91.5 -36t35.5 -91q0 -56 -35 -92t-92 -37zM870 1296q-57 1 -91 37t-34 92q0 55 34.5 91t90.5 36q57 0 92 -36t35 -91q0 -56 -34.5 -92t-92.5 -37zM680 -41q-256 0 -419 166.5t-163 421.5q0 168 73 302t206.5 210
t302.5 76q254 0 415.5 -166t161.5 -422q0 -125 -42.5 -234t-118 -187t-183.5 -122.5t-233 -44.5zM680 168q152 0 246 106.5t94 272.5q0 167 -93.5 273t-246.5 106q-155 0 -248.5 -105.5t-93.5 -273.5q0 -167 93.5 -273t248.5 -106z" />
    <glyph glyph-name="ograve.sc" horiz-adv-x="1355" 
d="M795 1255h-164l-262 320l8 16h221zM680 -41q-256 0 -419 166.5t-163 421.5q0 168 73 302t206.5 210t302.5 76q254 0 415.5 -166t161.5 -422q0 -125 -42.5 -234t-118 -187t-183.5 -122.5t-233 -44.5zM680 168q152 0 246 106.5t94 272.5q0 167 -93.5 273t-246.5 106
q-155 0 -248.5 -105.5t-93.5 -273.5q0 -167 93.5 -273t248.5 -106z" />
    <glyph glyph-name="ohungarumlaut.sc" horiz-adv-x="1355" 
d="M563 1255h-162l197 334h217l8 -14zM922 1255h-162l198 334h216l10 -12zM680 -41q-256 0 -419 166.5t-163 421.5q0 168 73 302t206.5 210t302.5 76q254 0 415.5 -166t161.5 -422q0 -125 -42.5 -234t-118 -187t-183.5 -122.5t-233 -44.5zM680 168q152 0 246 106.5t94 272.5
q0 167 -93.5 273t-246.5 106q-155 0 -248.5 -105.5t-93.5 -273.5q0 -167 93.5 -273t248.5 -106z" />
    <glyph glyph-name="omacron.sc" horiz-adv-x="1355" 
d="M973 1327h-586v154h586v-154zM680 -41q-256 0 -419 166.5t-163 421.5q0 168 73 302t206.5 210t302.5 76q254 0 415.5 -166t161.5 -422q0 -125 -42.5 -234t-118 -187t-183.5 -122.5t-233 -44.5zM680 168q152 0 246 106.5t94 272.5q0 167 -93.5 273t-246.5 106
q-155 0 -248.5 -105.5t-93.5 -273.5q0 -167 93.5 -273t248.5 -106z" />
    <glyph glyph-name="oslash.sc" horiz-adv-x="1355" 
d="M1247 1169l-153 -198q78 -79 120.5 -188t42.5 -236q0 -125 -42.5 -234t-118 -187t-183.5 -122.5t-233 -44.5q-174 0 -309 80l-90 -115h-170l153 199q-79 79 -122.5 188t-43.5 236q0 168 73 302t206.5 210t302.5 76q173 0 309 -82l90 116h168zM334 547q0 -145 69 -246
l453 582q-74 47 -176 47q-157 0 -251.5 -107t-94.5 -276zM680 164q155 0 248.5 107t93.5 276q0 141 -70 244l-450 -580q77 -47 178 -47z" />
    <glyph glyph-name="otilde.sc" horiz-adv-x="1355" 
d="M477 1278h-125q10 110 66.5 179t134.5 69q43 0 129 -48t115 -48t43 17t24 66l15 13h125q-9 -110 -65 -179t-136 -69q-49 0 -131.5 48t-112.5 48q-28 0 -41.5 -17.5t-23.5 -66.5zM680 -41q-256 0 -419 166.5t-163 421.5q0 168 73 302t206.5 210t302.5 76q254 0 415.5 -166
t161.5 -422q0 -125 -42.5 -234t-118 -187t-183.5 -122.5t-233 -44.5zM680 168q152 0 246 106.5t94 272.5q0 167 -93.5 273t-246.5 106q-155 0 -248.5 -105.5t-93.5 -273.5q0 -167 93.5 -273t248.5 -106z" />
    <glyph glyph-name="oe.sc" horiz-adv-x="1718" 
d="M676 -41q-167 0 -299.5 76t-205.5 210.5t-73 301.5q0 126 43 235t119.5 186.5t185 122t234.5 44.5q115 0 233 -41h670l21 -191h-502v-268h452v-160h-452v-285h502l-21 -190h-674q-112 -41 -233 -41zM680 164q116 0 199 53v657q-83 56 -199 56q-154 0 -249 -107t-95 -276
t94.5 -276t249.5 -107z" />
    <glyph glyph-name="p.sc" horiz-adv-x="1054" 
d="M561 1094q213 0 321.5 -91.5t108.5 -265.5q0 -165 -107 -256.5t-304 -91.5h-183v-389h-227v1094h391zM395 565h144q117 0 172 42t55 130q0 90 -55 131t-172 41h-142z" />
    <glyph glyph-name="thorn.sc" horiz-adv-x="1050" 
d="M399 909h162q211 0 318.5 -90t107.5 -264q0 -165 -106 -257.5t-301 -92.5h-183v-205h-227v1094h229v-185zM395 383h144q117 0 172 41.5t55 130.5t-55.5 130.5t-171.5 41.5h-142z" />
    <glyph glyph-name="q.sc" horiz-adv-x="1355" 
d="M1257 547q0 -168 -74 -303t-204 -209l229 -258l-12 -25h-231l-181 215q-44 -8 -104 -8q-256 0 -419 166.5t-163 421.5q0 168 73 302t206.5 210t302.5 76q254 0 415.5 -166t161.5 -422zM338 547q0 -167 93.5 -273t248.5 -106q152 0 246 106.5t94 272.5q0 167 -93.5 273
t-246.5 106q-155 0 -248.5 -105.5t-93.5 -273.5z" />
    <glyph glyph-name="r.sc" horiz-adv-x="1110" 
d="M768 465l324 -438l-11 -27h-233l-309 428h-142v-428h-227v1094h385q209 0 316.5 -85.5t107.5 -252.5q0 -106 -54.5 -181.5t-156.5 -109.5zM530 911h-135v-317h142q115 0 168 37t53 121q0 83 -53 121t-175 38z" />
    <glyph glyph-name="racute.sc" horiz-adv-x="1110" 
d="M860 1589l8 -14l-260 -320h-164l195 334h221zM768 465l324 -438l-11 -27h-233l-309 428h-142v-428h-227v1094h385q209 0 316.5 -85.5t107.5 -252.5q0 -106 -54.5 -181.5t-156.5 -109.5zM530 911h-135v-317h142q115 0 168 37t53 121q0 83 -53 121t-175 38z" />
    <glyph glyph-name="rcaron.sc" horiz-adv-x="1110" 
d="M879 1573l-213 -318h-213l-215 318l12 16h156l153 -221l152 221h155zM768 465l324 -438l-11 -27h-233l-309 428h-142v-428h-227v1094h385q209 0 316.5 -85.5t107.5 -252.5q0 -106 -54.5 -181.5t-156.5 -109.5zM530 911h-135v-317h142q115 0 168 37t53 121q0 83 -53 121
t-175 38z" />
    <glyph glyph-name="uni0157.sc" horiz-adv-x="1110" 
d="M768 465l324 -438l-11 -27h-233l-309 428h-142v-428h-227v1094h385q209 0 316.5 -85.5t107.5 -252.5q0 -106 -54.5 -181.5t-156.5 -109.5zM530 911h-135v-317h142q115 0 168 37t53 121q0 83 -53 121t-175 38zM403 -526l115 397h189l12 -21l-170 -376h-146z" />
    <glyph glyph-name="s.sc" horiz-adv-x="968" 
d="M471 -41q-196 0 -379 98l29 205h10q172 -119 338 -119q86 0 137 41t51 105q0 57 -48.5 100t-194.5 100q-176 68 -247 145t-71 193q0 135 104.5 221.5t286.5 86.5q181 0 338 -82l-30 -203h-11q-149 100 -299 100q-74 0 -113.5 -33t-39.5 -88q0 -54 45.5 -91.5
t195.5 -100.5q181 -75 249.5 -153t68.5 -189q0 -147 -114.5 -241.5t-305.5 -94.5z" />
    <glyph glyph-name="sacute.sc" horiz-adv-x="968" 
d="M532 1255h-163l194 334h221l9 -14zM471 -41q-196 0 -379 98l29 205h10q172 -119 338 -119q86 0 137 41t51 105q0 57 -48.5 100t-194.5 100q-176 68 -247 145t-71 193q0 135 104.5 221.5t286.5 86.5q181 0 338 -82l-30 -203h-11q-149 100 -299 100q-74 0 -113.5 -33
t-39.5 -88q0 -54 45.5 -91.5t195.5 -100.5q181 -75 249.5 -153t68.5 -189q0 -147 -114.5 -241.5t-305.5 -94.5z" />
    <glyph glyph-name="scaron.sc" horiz-adv-x="968" 
d="M590 1255h-213l-215 318l12 16h156l153 -221l152 221h156l12 -16zM471 -41q-196 0 -379 98l29 205h10q172 -119 338 -119q86 0 137 41t51 105q0 57 -48.5 100t-194.5 100q-176 68 -247 145t-71 193q0 135 104.5 221.5t286.5 86.5q181 0 338 -82l-30 -203h-11
q-149 100 -299 100q-74 0 -113.5 -33t-39.5 -88q0 -54 45.5 -91.5t195.5 -100.5q181 -75 249.5 -153t68.5 -189q0 -147 -114.5 -241.5t-305.5 -94.5z" />
    <glyph glyph-name="scedilla.sc" horiz-adv-x="968" 
d="M891 295q0 -124 -84.5 -213t-231.5 -115l-51 -108q24 6 54 6q63 0 106 -43t43 -109q0 -95 -69 -150t-191 -55q-107 0 -197 46l21 124h10q76 -49 162 -49q51 0 77.5 22.5t26.5 59.5q0 68 -86 68q-45 0 -106 -25l-19 19l82 186q-187 10 -346 98l29 205h10
q172 -119 338 -119q86 0 137 41t51 105q0 57 -48.5 100t-194.5 100q-176 68 -247 145t-71 193q0 135 104.5 221.5t286.5 86.5q181 0 338 -82l-30 -203h-11q-149 100 -299 100q-74 0 -113.5 -33t-39.5 -88q0 -54 45.5 -91.5t195.5 -100.5q181 -75 249.5 -153t68.5 -189z" />
    <glyph glyph-name="uni0219.sc" horiz-adv-x="968" 
d="M471 -41q-196 0 -379 98l29 205h10q172 -119 338 -119q86 0 137 41t51 105q0 57 -48.5 100t-194.5 100q-176 68 -247 145t-71 193q0 135 104.5 221.5t286.5 86.5q181 0 338 -82l-30 -203h-11q-149 100 -299 100q-74 0 -113.5 -33t-39.5 -88q0 -54 45.5 -91.5
t195.5 -100.5q181 -75 249.5 -153t68.5 -189q0 -147 -114.5 -241.5t-305.5 -94.5zM420 -129h188l13 -21l-170 -376h-146z" />
    <glyph glyph-name="germandbls.sc" horiz-adv-x="1212" 
d="M1049 934l-211 -297q146 -15 227.5 -101.5t81.5 -230.5q0 -154 -100.5 -250t-268.5 -96q-140 0 -262 64l10 190l9 2q103 -68 206 -68q80 0 128.5 45t48.5 121q0 179 -224 179h-80v118l201 293h-418v-903h-227v1094h879v-160z" />
    <glyph glyph-name="t.sc" horiz-adv-x="989" 
d="M23 1094h946v-203h-359v-891h-229v891h-358v203z" />
    <glyph glyph-name="tbar.sc" horiz-adv-x="989" 
d="M969 1094v-203h-359v-289h189v-139h-189v-463h-229v463h-191v139h191v289h-358v203h946z" />
    <glyph glyph-name="tcaron.sc" horiz-adv-x="989" 
d="M815 1573l-213 -318h-213l-215 318l12 16h156l154 -221l151 221h156zM23 1094h946v-203h-359v-891h-229v891h-358v203z" />
    <glyph glyph-name="uni0163.sc" horiz-adv-x="989" 
d="M610 891v-891h-41l-65 -141q21 6 53 6q63 0 105.5 -43t42.5 -109q0 -95 -68.5 -150t-190.5 -55q-106 0 -196 46l20 124h11q76 -49 161 -49q51 0 78 22.5t27 59.5q0 68 -86 68q-49 0 -107 -25l-18 19l100 227h-55v891h-358v203h946v-203h-359z" />
    <glyph glyph-name="uni021B.sc" horiz-adv-x="989" 
d="M23 1094h946v-203h-359v-891h-229v891h-358v203zM283 -526l114 397h189l12 -21l-170 -376h-145z" />
    <glyph glyph-name="u.sc" horiz-adv-x="1290" 
d="M645 -41q-483 0 -483 500v635h227v-621q0 -154 62.5 -228.5t193.5 -74.5t192.5 74.5t61.5 232.5v617h229v-625q0 -246 -123.5 -378t-359.5 -132z" />
    <glyph glyph-name="uacute.sc" horiz-adv-x="1290" 
d="M694 1255h-164l195 334h221l8 -14zM645 -41q-483 0 -483 500v635h227v-621q0 -154 62.5 -228.5t193.5 -74.5t192.5 74.5t61.5 232.5v617h229v-625q0 -246 -123.5 -378t-359.5 -132z" />
    <glyph glyph-name="ucircumflex.sc" horiz-adv-x="1290" 
d="M492 1255h-156l-12 17l215 319h213l213 -319l-13 -17h-155l-152 222zM645 -41q-483 0 -483 500v635h227v-621q0 -154 62.5 -228.5t193.5 -74.5t192.5 74.5t61.5 232.5v617h229v-625q0 -246 -123.5 -378t-359.5 -132z" />
    <glyph glyph-name="udieresis.sc" horiz-adv-x="1290" 
d="M455 1296q-57 1 -91 37t-34 92q0 55 34.5 91t90.5 36t91.5 -36t35.5 -91q0 -56 -35 -92t-92 -37zM838 1296q-57 1 -91 37t-34 92q0 55 34.5 91t90.5 36q57 0 92 -36t35 -91q0 -56 -34.5 -92t-92.5 -37zM645 -41q-483 0 -483 500v635h227v-621q0 -154 62.5 -228.5
t193.5 -74.5t192.5 74.5t61.5 232.5v617h229v-625q0 -246 -123.5 -378t-359.5 -132z" />
    <glyph glyph-name="ugrave.sc" horiz-adv-x="1290" 
d="M762 1255h-164l-262 320l8 16h221zM645 -41q-483 0 -483 500v635h227v-621q0 -154 62.5 -228.5t193.5 -74.5t192.5 74.5t61.5 232.5v617h229v-625q0 -246 -123.5 -378t-359.5 -132z" />
    <glyph glyph-name="uhungarumlaut.sc" horiz-adv-x="1290" 
d="M530 1255h-161l196 334h217l9 -14zM889 1255h-162l199 334h215l10 -12zM645 -41q-483 0 -483 500v635h227v-621q0 -154 62.5 -228.5t193.5 -74.5t192.5 74.5t61.5 232.5v617h229v-625q0 -246 -123.5 -378t-359.5 -132z" />
    <glyph glyph-name="umacron.sc" horiz-adv-x="1290" 
d="M938 1327h-586v154h586v-154zM645 -41q-483 0 -483 500v635h227v-621q0 -154 62.5 -228.5t193.5 -74.5t192.5 74.5t61.5 232.5v617h229v-625q0 -246 -123.5 -378t-359.5 -132z" />
    <glyph glyph-name="uogonek.sc" horiz-adv-x="1290" 
d="M899 477v617h229v-625q0 -186 -71 -308t-209 -171q-160 -131 -160 -250q0 -74 82 -74q69 0 123 41h8l19 -131q-92 -45 -189 -45q-93 0 -147 48t-54 128q0 140 142 252h-27q-483 0 -483 500v635h227v-621q0 -154 62.5 -228.5t193.5 -74.5t192.5 74.5t61.5 232.5z" />
    <glyph glyph-name="uring.sc" horiz-adv-x="1290" 
d="M645 1237q-86 0 -145.5 58t-59.5 145q0 86 60 144t145 58q86 0 146.5 -58.5t60.5 -143.5q0 -87 -60.5 -145t-146.5 -58zM645 1333q47 0 77 31t30 76t-30 75.5t-77 30.5q-45 0 -74.5 -30.5t-29.5 -75.5t29.5 -76t74.5 -31zM645 -41q-483 0 -483 500v635h227v-621
q0 -154 62.5 -228.5t193.5 -74.5t192.5 74.5t61.5 232.5v617h229v-625q0 -246 -123.5 -378t-359.5 -132z" />
    <glyph glyph-name="v.sc" horiz-adv-x="1110" 
d="M2 1094h248l231 -607q30 -81 72 -233h4q29 111 74 231l229 609h248l6 -9l-457 -1097h-204l-455 1097z" />
    <glyph glyph-name="w.sc" horiz-adv-x="1615" 
d="M575 -12h-196l-350 1097l6 9h241l150 -521q39 -134 68 -278h6q24 104 78 278l165 512h129l168 -512q54 -174 78 -278h4q12 54 68 278l149 521h242l6 -9l-348 -1097h-197l-161 489q-8 28 -32.5 116t-37.5 130h-4q-18 -76 -68 -246z" />
    <glyph glyph-name="wacute.sc" horiz-adv-x="1615" 
d="M858 1255h-164l195 334h221l8 -14zM575 -12h-196l-350 1097l6 9h241l150 -521q39 -134 68 -278h6q24 104 78 278l165 512h129l168 -512q54 -174 78 -278h4q12 54 68 278l149 521h242l6 -9l-348 -1097h-197l-161 489q-8 28 -32.5 116t-37.5 130h-4q-18 -76 -68 -246z" />
    <glyph glyph-name="wcircumflex.sc" horiz-adv-x="1615" 
d="M655 1255h-155l-13 17l215 319h213l213 -319l-12 -17h-155l-152 222zM575 -12h-196l-350 1097l6 9h241l150 -521q39 -134 68 -278h6q24 104 78 278l165 512h129l168 -512q54 -174 78 -278h4q12 54 68 278l149 521h242l6 -9l-348 -1097h-197l-161 489q-8 28 -32.5 116
t-37.5 130h-4q-18 -76 -68 -246z" />
    </font>
</defs>
</svg>
