<?xml version="1.0" standalone="no"?>
<!DOCTYPE svg PUBLIC "-//W3C//DTD SVG 1.1//EN" "http://www.w3.org/Graphics/SVG/1.1/DTD/svg11.dtd" >
<svg xmlns="http://www.w3.org/2000/svg" xmlns:xlink="http://www.w3.org/1999/xlink" version="1.1">
<metadata>
Created by FontForge 20170731 at Thu Aug 17 18:06:09 2023
 By Aleksey,,,
Copyright (c) 2017 by Botio Nikoltchev. All rights reserved.
</metadata>
<defs>
<font id="Apparat-Light" horiz-adv-x="0" >
  <font-face 
    font-family="Apparat Light"
    font-weight="300"
    font-stretch="normal"
    units-per-em="2048"
    panose-1="0 0 4 0 0 0 0 0 0 0"
    ascent="1556"
    descent="-492"
    x-height="985"
    cap-height="1450"
    bbox="-1700 -522 2681 1942"
    underline-thickness="102"
    underline-position="-307"
    unicode-range="U+000D-FB02"
  />
<missing-glyph horiz-adv-x="1343" 
d="M205 1522h934v-1522h-934v1522zM1020 109v1304h-696v-1304h696zM500 995l-21 -8l-78 17q19 104 91.5 164.5t179.5 60.5q113 0 183.5 -64t70.5 -166q0 -75 -27.5 -128t-95.5 -109q-61 -51 -79 -83t-19 -91l-3 -68h-96l-2 70q-2 65 23.5 115.5t83.5 101.5q66 56 87 94.5
t21 93.5q0 63 -41.5 103.5t-109.5 40.5q-66 0 -110.5 -37.5t-57.5 -106.5zM662 252q-32 0 -55 22t-23 54q0 33 22.5 55.5t55.5 22.5q31 0 53 -22.5t22 -55.5q0 -32 -22 -54t-53 -22z" />
    <glyph glyph-name="f_i" unicode="fi" horiz-adv-x="1191" 
d="M348 0h-104v893h-189v92h189v174q0 199 76 293t227 94q116 0 219 -45l-10 -94l-13 -6q-92 47 -190 47q-103 0 -153 -65.5t-50 -215.5l-2 -182h350v-92h-350v-893zM948 1225q-36 0 -60 24t-24 60q0 35 24.5 59.5t59.5 24.5t58.5 -24.5t23.5 -59.5t-23.5 -59.5t-58.5 -24.5
zM1001 0h-104v985h104v-985z" />
    <glyph glyph-name="f_l" unicode="fl" horiz-adv-x="1202" 
d="M348 0h-104v893h-189v92h189v174q0 199 76 293t227 94q116 0 219 -45l-10 -94l-13 -6q-92 47 -190 47q-103 0 -153 -65.5t-50 -215.5l-2 -182h350v-92h-350v-893zM1012 0h-105v1505h105v-1505z" />
    <glyph glyph-name=".notdef" horiz-adv-x="1343" 
d="M205 1522h934v-1522h-934v1522zM1020 109v1304h-696v-1304h696zM500 995l-21 -8l-78 17q19 104 91.5 164.5t179.5 60.5q113 0 183.5 -64t70.5 -166q0 -75 -27.5 -128t-95.5 -109q-61 -51 -79 -83t-19 -91l-3 -68h-96l-2 70q-2 65 23.5 115.5t83.5 101.5q66 56 87 94.5
t21 93.5q0 63 -41.5 103.5t-109.5 40.5q-66 0 -110.5 -37.5t-57.5 -106.5zM662 252q-32 0 -55 22t-23 54q0 33 22.5 55.5t55.5 22.5q31 0 53 -22.5t22 -55.5q0 -32 -22 -54t-53 -22z" />
    <glyph glyph-name=".null" 
 />
    <glyph glyph-name="nonmarkingreturn" horiz-adv-x="682" 
 />
    <glyph glyph-name="NULL" 
 />
    <glyph glyph-name="NULL" 
 />
    <glyph glyph-name="CR" unicode="&#xd;" horiz-adv-x="614" 
 />
    <glyph glyph-name="space" unicode=" " horiz-adv-x="471" 
 />
    <glyph glyph-name="exclam" unicode="!" horiz-adv-x="616" 
d="M358 397h-98l-6 1053h111zM307 -20q-35 0 -58.5 25.5t-23.5 62.5q0 36 24 61t58 25q35 0 59.5 -24.5t24.5 -61.5t-24 -62.5t-60 -25.5z" />
    <glyph glyph-name="quotedbl" unicode="&#x22;" horiz-adv-x="692" 
d="M233 891h-88v559h88v-559zM547 891h-88v559h88v-559z" />
    <glyph glyph-name="numbersign" unicode="#" horiz-adv-x="1482" 
d="M1335 1053v-95h-223l-65 -466h268v-95h-283l-55 -397h-105l56 397h-467l-55 -397h-105l55 397h-209v95h224l65 466h-268v95h283l55 397h104l-55 -397h467l55 397h105l-56 -397h209zM475 492h467l66 466h-467z" />
    <glyph glyph-name="dollar" unicode="$" horiz-adv-x="1193" 
d="M1036 354q0 -155 -107 -263.5t-284 -127.5v-143h-88v139q-213 8 -407 145l16 115h6q197 -152 385 -162v666h-2q-213 96 -298 191t-85 233q0 144 106 241t279 103v139h88v-141q162 -16 318 -109l-15 -110h-6q-154 105 -297 121v-588q225 -111 308 -210t83 -239zM285 1153
q0 -98 55.5 -162t216.5 -145v549q-123 -6 -197.5 -74t-74.5 -168zM645 680v-619q128 17 203.5 97t75.5 188q0 103 -59.5 177.5t-219.5 156.5z" />
    <glyph glyph-name="percent" unicode="%" horiz-adv-x="1974" 
d="M561 793q-143 0 -240.5 96t-97.5 246t97.5 247t240.5 97t240.5 -97t97.5 -247t-97.5 -246t-240.5 -96zM612 0h-112l862 1450h113zM561 883q104 0 173 69.5t69 182.5t-69.5 183.5t-172.5 70.5q-102 0 -172 -70.5t-70 -183.5t70 -182.5t172 -69.5zM1413 -29
q-144 0 -241 95.5t-97 246.5q0 149 97.5 245.5t240.5 96.5t239.5 -96.5t96.5 -245.5q0 -151 -96.5 -246.5t-239.5 -95.5zM1413 59q102 0 172 70.5t70 183.5q0 112 -70 182t-172 70q-103 0 -172.5 -70t-69.5 -182q0 -113 69.5 -183.5t172.5 -70.5z" />
    <glyph glyph-name="ampersand" unicode="&#x26;" horiz-adv-x="1333" 
d="M1063 279l274 -279h-145l-186 190q-173 -229 -445 -229q-195 0 -316.5 115t-121.5 297q-1 129 72 228.5t225 182.5q-107 113 -152 201t-45 176q0 146 94 237t246 91q145 0 240.5 -86t95.5 -215q0 -130 -74.5 -231t-238.5 -193l401 -410q91 168 139 422l13 8h102
q-67 -318 -178 -505zM330 1167q0 -74 46 -153.5t138 -177.5l2 -2q150 87 213.5 167.5t63.5 180.5q0 90 -65.5 152.5t-164.5 62.5q-102 0 -167.5 -65.5t-65.5 -164.5zM565 61q218 0 367 203l-443 451q-134 -74 -195 -154.5t-61 -187.5q2 -137 94.5 -224.5t237.5 -87.5z" />
    <glyph glyph-name="quotesingle" unicode="'" horiz-adv-x="378" 
d="M233 891h-88v559h88v-559z" />
    <glyph glyph-name="parenleft" unicode="(" horiz-adv-x="636" 
d="M532 -332h-110q-127 186 -201 432t-74 490t74 489.5t201 431.5h110q-134 -204 -208 -443.5t-74 -477.5t74 -478t208 -444z" />
    <glyph glyph-name="parenright" unicode=")" horiz-adv-x="636" 
d="M215 -332h-109q133 204 207 444.5t74 477.5t-74 477t-207 444h109q128 -187 202.5 -432.5t74.5 -488.5t-75 -489t-202 -433z" />
    <glyph glyph-name="asterisk" unicode="*" horiz-adv-x="886" 
d="M252 743h-16l-50 37l-2 17l195 258l-307 92l-4 14l18 60l16 8l301 -103l-4 314l13 10h61l12 -10l-4 -314l303 103l15 -8l20 -60l-6 -14l-307 -92l194 -258l-2 -17l-49 -37h-14l-193 269z" />
    <glyph glyph-name="plus" unicode="+" horiz-adv-x="1333" 
d="M715 651h479v-96h-479v-479h-97v479h-479v96h479v479h97v-479z" />
    <glyph glyph-name="comma" unicode="," horiz-adv-x="444" 
d="M326 252l2 -6l-183 -619h-84l148 625h117z" />
    <glyph glyph-name="hyphen" unicode="-" horiz-adv-x="765" 
d="M657 420h-548v94h548v-94z" />
    <glyph glyph-name="period" unicode="." horiz-adv-x="409" 
d="M207 -20q-35 0 -59.5 25.5t-24.5 62.5t24.5 61.5t59.5 24.5q34 0 58 -25t24 -61q0 -37 -24 -62.5t-58 -25.5z" />
    <glyph glyph-name="slash" unicode="/" horiz-adv-x="731" 
d="M598 1450h109l-572 -1448h-110z" />
    <glyph glyph-name="zero" unicode="0" horiz-adv-x="1284" 
d="M641 -41q-235 0 -370.5 204.5t-135.5 563.5q0 356 135.5 560t370.5 204q236 0 372 -204t136 -560q0 -359 -135.5 -563.5t-372.5 -204.5zM641 66q183 0 286 176t103 487q0 306 -103.5 480.5t-285.5 174.5q-180 0 -283.5 -175t-103.5 -482t103.5 -484t283.5 -177z" />
    <glyph glyph-name="one" unicode="1" horiz-adv-x="718" 
d="M483 0h-112v1139q0 95 6 178l-6 4q-41 -30 -99 -61l-213 -125l-14 8l10 117l402 217h26v-1477z" />
    <glyph glyph-name="two" unicode="2" horiz-adv-x="1007" 
d="M903 0h-887l-10 39l387 399q204 210 299.5 367.5t95.5 308.5q0 125 -75 200t-205 75q-189 0 -395 -154h-7l-14 115q217 141 428 141q177 0 281 -100t104 -267q0 -159 -88 -321.5t-268 -353.5l-160 -170q-60 -62 -180 -173l4 -6q86 4 242 4h448v-104z" />
    <glyph glyph-name="three" unicode="3" horiz-adv-x="1040" 
d="M633 754v-6q140 -20 223.5 -120.5t83.5 -242.5q0 -188 -127 -307t-330 -119q-108 0 -218 32.5t-197 88.5l14 115h6q196 -134 391 -134q159 0 251.5 88.5t92.5 235.5q0 151 -95.5 233t-278.5 82h-179v101h174q173 0 268 82t95 231q0 121 -81.5 198t-223.5 77
q-204 0 -404 -146h-6l-14 113q91 59 205 97t227 38q187 0 298.5 -102.5t111.5 -264.5q0 -139 -75 -238.5t-212 -131.5z" />
    <glyph glyph-name="four" unicode="4" horiz-adv-x="1062" 
d="M829 0h-110v336h-715l-18 70l772 1056h71v-1022h172v-104h-172v-336zM573 1032l-436 -592h582v482q0 176 18 346h-6q-66 -105 -158 -236z" />
    <glyph glyph-name="five" unicode="5" horiz-adv-x="1120" 
d="M522 -41q-103 0 -213.5 34t-197.5 89l12 113h6q196 -134 395 -134q164 0 266.5 110t102.5 284q0 168 -101 265t-260 97q-190 0 -348 -121l-26 11l47 743h696v-104h-598l-33 -510q140 79 297 79q193 0 318 -128t125 -328q0 -220 -136 -360t-352 -140z" />
    <glyph glyph-name="six" unicode="6" horiz-adv-x="1173" 
d="M625 895q193 0 312.5 -125.5t119.5 -325.5q0 -218 -132.5 -351.5t-346.5 -133.5q-212 0 -338.5 131t-126.5 352q0 121 54 237.5t183 297.5l328 473h119l2 -18l-291 -418q-45 -64 -182 -228l4 -4q62 53 140.5 83t154.5 30zM582 61q158 0 259 105.5t101 269.5
q0 165 -93.5 264t-252.5 99q-163 0 -307 -127q-62 -100 -62 -242q0 -164 98.5 -266.5t256.5 -102.5z" />
    <glyph glyph-name="seven" unicode="7" horiz-adv-x="901" 
d="M752 1343l-2 5q-92 -2 -281 -2h-473v104h909l6 -23l-673 -1427h-101l-12 16l502 1067q103 215 125 260z" />
    <glyph glyph-name="eight" unicode="8" horiz-adv-x="1134" 
d="M774 748q119 -41 192.5 -136.5t73.5 -222.5q0 -199 -132.5 -314.5t-346.5 -115.5t-340.5 111t-126.5 309q0 117 68.5 215t195.5 156q-97 43 -151.5 132t-54.5 210q0 182 118 290.5t305 108.5q184 0 299 -104t115 -279q0 -112 -59 -205t-156 -155zM266 1094
q0 -120 65 -192.5t179 -96.5l154 -31q208 126 208 336q0 125 -83.5 205t-217.5 80q-140 0 -222.5 -81.5t-82.5 -219.5zM565 57q169 0 263 87.5t94 238.5q0 119 -81 198.5t-216 104.5l-162 31q-126 -54 -189 -140t-63 -190q0 -151 96.5 -240.5t257.5 -89.5z" />
    <glyph glyph-name="nine" unicode="9" horiz-adv-x="1175" 
d="M598 1491q209 0 336 -129t127 -340q0 -130 -54 -247t-184 -302l-327 -473h-119l-4 18l291 418q34 48 184 228l-6 4q-60 -53 -138.5 -83t-156.5 -30q-193 0 -312.5 125.5t-119.5 325.5q0 218 133 351.5t350 133.5zM231 1014q0 -165 94 -264t253 -99q82 0 163 35t146 94
q57 100 57 236q0 167 -96.5 270t-251.5 103q-162 0 -263.5 -105t-101.5 -270z" />
    <glyph glyph-name="colon" unicode=":" horiz-adv-x="380" 
d="M190 702q-35 0 -59.5 25.5t-24.5 63.5q0 37 24.5 61.5t59.5 24.5q34 0 58 -25t24 -61q0 -38 -23.5 -63.5t-58.5 -25.5zM190 -20q-35 0 -59.5 25.5t-24.5 62.5t24.5 61.5t59.5 24.5q34 0 58 -25t24 -61q0 -37 -23.5 -62.5t-58.5 -25.5z" />
    <glyph glyph-name="semicolon" unicode=";" horiz-adv-x="442" 
d="M250 702q-35 0 -59.5 25.5t-24.5 63.5q0 37 24.5 61.5t59.5 24.5q34 0 58 -25t24 -61q0 -38 -23.5 -63.5t-58.5 -25.5zM326 252l2 -6l-183 -619h-84l148 625h117z" />
    <glyph glyph-name="less" unicode="&#x3c;" horiz-adv-x="1333" 
d="M156 641l1022 477v-104l-885 -412l885 -412v-104l-1022 477v78z" />
    <glyph glyph-name="equal" unicode="=" horiz-adv-x="1333" 
d="M1194 754h-1055v96h1055v-96zM1194 352h-1055v97h1055v-97z" />
    <glyph glyph-name="greater" unicode="&#x3e;" horiz-adv-x="1333" 
d="M156 1014v104l1022 -477v-78l-1022 -477v104l882 412z" />
    <glyph glyph-name="question" unicode="?" horiz-adv-x="948" 
d="M459 1391q-180 0 -357 -127h-6l-12 108q84 54 184.5 86.5t194.5 32.5q164 0 265 -95.5t101 -246.5q0 -111 -41.5 -195t-140.5 -166q-102 -83 -131 -138t-29 -148l-2 -105h-102l-2 115q0 89 34 162.5t120 146.5q110 93 147 161.5t37 160.5q0 109 -72.5 178.5t-187.5 69.5z
M442 -20q-34 0 -59 26t-25 62t25 61t59 25t59 -25t25 -61t-25 -62t-59 -26z" />
    <glyph glyph-name="at" unicode="@" horiz-adv-x="1851" 
d="M1219 846h86l-86 -428q-23 -113 -23 -158q0 -50 31 -77t88 -27q120 0 203.5 124t83.5 304q0 268 -180.5 434t-469.5 166q-147 0 -276.5 -54.5t-222.5 -149t-147 -227t-54 -282.5q0 -208 89 -368.5t249.5 -248t367.5 -87.5q121 0 215.5 20t196.5 66l10 -3l17 -86
q-190 -90 -443 -90q-237 0 -419 100t-281.5 282t-99.5 419q0 223 104.5 407t287.5 289t406 105q216 0 386.5 -87t265 -242.5t94.5 -352.5q0 -228 -113 -376t-289 -148q-80 0 -127 37.5t-53 99.5q-137 -137 -293 -137q-125 0 -199.5 88.5t-74.5 244.5q0 207 114.5 346.5
t286.5 139.5q69 0 135.5 -32.5t112.5 -88.5zM1104 274l78 414q-95 113 -224 113q-133 0 -221 -114.5t-88 -285.5q0 -117 53.5 -180t149.5 -63q128 0 252 116z" />
    <glyph glyph-name="A" unicode="A" horiz-adv-x="1318" 
d="M616 1452h86l617 -1446l-6 -6h-119l-166 403h-739l-164 -403h-119l-4 6zM526 983l-196 -481h657l-199 479l-129 322h-4q-39 -102 -129 -320z" />
    <glyph glyph-name="B" unicode="B" horiz-adv-x="1245" 
d="M602 0h-375v1450h373q223 0 342 -94.5t119 -268.5q0 -119 -66 -205t-184 -120v-2q155 -26 239.5 -120.5t84.5 -242.5q0 -199 -131.5 -298t-401.5 -99zM340 1348v-553h260q164 0 256 76t92 212q0 128 -92.5 196.5t-265.5 68.5h-250zM340 700v-598h256q221 0 322.5 72
t101.5 223q0 303 -412 303h-268z" />
    <glyph glyph-name="C" unicode="C" horiz-adv-x="1574" 
d="M848 -41q-209 0 -375.5 98t-259 272.5t-92.5 393.5q0 166 54.5 309t149.5 243.5t230 158t291 57.5q291 0 538 -203l-16 -121h-6q-238 215 -512 215q-176 0 -314.5 -83.5t-216 -233t-77.5 -338.5q0 -289 172 -474t440 -185q278 0 516 215h6l17 -119q-246 -205 -545 -205z
" />
    <glyph glyph-name="D" unicode="D" horiz-adv-x="1540" 
d="M594 0h-367v1450h367q407 0 618 -183t211 -532q0 -352 -217.5 -543.5t-611.5 -191.5zM340 1346v-1242h231q732 0 732 633q0 308 -181.5 458.5t-548.5 150.5h-233z" />
    <glyph glyph-name="E" unicode="E" horiz-adv-x="1189" 
d="M991 692h-651v-588h700l-14 -104h-799v1450h799l14 -104h-700v-551h651v-103z" />
    <glyph glyph-name="F" unicode="F" horiz-adv-x="1101" 
d="M1006 1346h-666v-551h618v-105h-618v-690h-113v1450h764z" />
    <glyph glyph-name="G" unicode="G" horiz-adv-x="1650" 
d="M850 -41q-214 0 -381 99.5t-257.5 273t-90.5 391.5t94.5 393t266 275t388.5 100q300 0 568 -213l-17 -119h-6q-266 223 -543 223q-185 0 -329.5 -86t-222.5 -235.5t-78 -335.5q0 -138 45.5 -259.5t125 -209t194 -138t247.5 -50.5q255 0 485 141v424h-460v104h567v-583
q-149 -102 -294 -148.5t-302 -46.5z" />
    <glyph glyph-name="H" unicode="H" horiz-adv-x="1564" 
d="M1225 786v664h112v-1450h-112v684h-885v-684h-113v1450h113v-664h885z" />
    <glyph glyph-name="I" unicode="I" horiz-adv-x="567" 
d="M227 0v1450h113v-1450h-113z" />
    <glyph glyph-name="J" unicode="J" horiz-adv-x="579" 
d="M244 127v1323h110v-1319q0 -159 -54 -246.5t-173 -142.5l-51 80l2 8q86 43 126 108t40 189z" />
    <glyph glyph-name="K" unicode="K" horiz-adv-x="1292" 
d="M1233 1444l-543 -606l590 -832l-4 -6h-133l-529 754l-274 -308v-446h-113v1450h113v-465q0 -65 -1 -191t-1 -192h2q25 26 281 316l475 532h135z" />
    <glyph glyph-name="L" unicode="L" horiz-adv-x="1071" 
d="M227 0v1450h113v-1346h707l-15 -104h-805z" />
    <glyph glyph-name="M" unicode="M" horiz-adv-x="1869" 
d="M338 0h-111v1450h156l551 -1079h4l551 1079h153v-1450h-112l2 815v490h-4q-153 -300 -199 -385l-383 -748h-24l-383 748q-196 383 -197 385h-4v-490v-815z" />
    <glyph glyph-name="N" unicode="N" horiz-adv-x="1628" 
d="M338 0h-111v1450h92l701 -885q156 -196 268 -334h2v373v846h111v-1477h-41l-750 945q-17 21 -268 331h-4q1 -52 1 -111t-0.5 -136t-0.5 -123v-879z" />
    <glyph glyph-name="O" unicode="O" horiz-adv-x="1695" 
d="M848 -41q-216 0 -383 101.5t-255.5 275t-88.5 389.5q0 161 51 301t143.5 243t230 162.5t302.5 59.5t303 -59.5t230 -162.5t143 -243t51 -301t-51.5 -301.5t-144.5 -243.5t-230.5 -162t-300.5 -59zM848 68q137 0 251.5 51t192 139.5t120 209t42.5 257.5q0 186 -72.5 334.5
t-211.5 235.5t-322 87q-137 0 -251.5 -50.5t-192 -138.5t-120 -208.5t-42.5 -259.5q0 -184 73 -332.5t212.5 -236.5t320.5 -88z" />
    <glyph glyph-name="P" unicode="P" horiz-adv-x="1173" 
d="M606 1450q245 0 368.5 -109t123.5 -321q0 -200 -128.5 -313t-369.5 -113h-260v-594h-113v1450h379zM340 696h233q211 0 310.5 81t99.5 243q0 167 -98.5 247.5t-302.5 80.5h-242v-652z" />
    <glyph glyph-name="Q" unicode="Q" horiz-adv-x="1695" 
d="M1575 725q0 -255 -123.5 -449t-339.5 -272l322 -315l-9 -21h-122l-304 305q-66 -14 -151 -14q-216 0 -383 101.5t-255.5 275t-88.5 389.5q0 161 51 301t143.5 243t230 162.5t302.5 59.5t303 -59.5t230 -162.5t143 -243t51 -301zM242 725q0 -184 73 -332.5t212.5 -236.5
t320.5 -88q137 0 251.5 51t192 139.5t120 209t42.5 257.5q0 186 -72.5 334.5t-211.5 235.5t-322 87q-137 0 -251.5 -50.5t-192 -138.5t-120 -208.5t-42.5 -259.5z" />
    <glyph glyph-name="R" unicode="R" horiz-adv-x="1247" 
d="M752 653l454 -635l-8 -18h-117l-448 635h-293v-635h-113v1450h369q236 0 359.5 -104.5t123.5 -305.5q0 -152 -84 -252.5t-243 -134.5zM340 1348v-611h250q373 0 373 303q0 156 -96 232t-296 76h-231z" />
    <glyph glyph-name="S" unicode="S" horiz-adv-x="1122" 
d="M547 -41q-232 0 -436 147l18 117h6q212 -162 414 -162q151 0 243.5 83t92.5 204q0 57 -16 101t-56.5 89.5t-111.5 89t-181 93.5q-215 96 -300 191.5t-85 234.5q0 150 113 247t297 97q202 0 385 -111l-15 -114h-6q-181 125 -368 125q-127 0 -207 -69t-80 -171
q0 -105 69 -172.5t279 -169.5q119 -56 196.5 -107.5t123.5 -107t64 -111.5t18 -129q0 -170 -126.5 -282.5t-330.5 -112.5z" />
    <glyph glyph-name="T" unicode="T" horiz-adv-x="1187" 
d="M25 1450h1136v-104h-512v-1346h-110v1346h-514v104z" />
    <glyph glyph-name="U" unicode="U" horiz-adv-x="1525" 
d="M764 -41q-551 0 -551 612v879h113v-870q0 -258 108.5 -386t329.5 -128t328.5 128t107.5 388v868h113v-877q0 -300 -139 -457t-410 -157z" />
    <glyph glyph-name="V" unicode="V" horiz-adv-x="1327" 
d="M694 -27h-61l-608 1471l4 6h118l410 -1001l107 -263h2q65 164 104 258l412 1006h116l5 -6z" />
    <glyph glyph-name="W" unicode="W" horiz-adv-x="1957" 
d="M49 1450h117l246 -795l141 -456h4q10 30 63 200t82 256l256 779h43l254 -777q25 -75 74.5 -229t73.5 -229h2q25 85 74.5 243.5t66.5 212.5l246 795h117l4 -6l-463 -1471h-78l-272 834q-35 106 -117 375h-4q-17 -51 -57.5 -180.5t-61.5 -194.5l-274 -834h-78l-463 1471z
" />
    <glyph glyph-name="X" unicode="X" horiz-adv-x="1204" 
d="M158 0h-129l-2 6l512 746l-492 692l4 6h131l215 -309q104 -148 209 -303h2q146 221 203 301l213 311h129l4 -6l-489 -699l510 -739l-2 -6h-134l-237 354q-39 56 -106.5 159t-94.5 142h-4q-138 -207 -201 -297z" />
    <glyph glyph-name="Y" unicode="Y" horiz-adv-x="1169" 
d="M27 1450h120l244 -418q38 -64 105 -180.5t88 -151.5h2l192 332l242 418h123l2 -6l-504 -842v-602h-113v602l-505 842z" />
    <glyph glyph-name="Z" unicode="Z" horiz-adv-x="1249" 
d="M66 23l927 1323h-874v104h1061l4 -23l-928 -1321h893v-106h-1079z" />
    <glyph glyph-name="bracketleft" unicode="[" horiz-adv-x="616" 
d="M485 -332h-317v1843h317v-94h-215v-1655h215v-94z" />
    <glyph glyph-name="backslash" unicode="\" horiz-adv-x="731" 
d="M596 2l-571 1448h108l574 -1448h-111z" />
    <glyph glyph-name="bracketright" unicode="]" horiz-adv-x="616" 
d="M451 1511v-1843h-320v94h217v1655h-217v94h320z" />
    <glyph glyph-name="asciicircum" unicode="^" horiz-adv-x="1146" 
d="M205 557h-123l450 893h80l453 -893h-125l-367 766z" />
    <glyph glyph-name="underscore" unicode="_" horiz-adv-x="1024" 
d="M1024 -150v-83h-1024v83h1024z" />
    <glyph glyph-name="grave" unicode="`" horiz-adv-x="446" 
d="M182 1489l205 -326h-90l-238 316l9 10h114z" />
    <glyph glyph-name="a" unicode="a" horiz-adv-x="1044" 
d="M371 -41q-119 0 -189.5 67t-70.5 179q0 168 149 258t488 127v72q0 145 -50.5 207.5t-167.5 62.5q-83 0 -175.5 -34t-172.5 -93h-6l-12 100q86 56 188.5 88.5t190.5 32.5q309 0 309 -332v-694h-88l-10 162q-108 -112 -194.5 -157.5t-188.5 -45.5zM391 47q81 0 166 45.5
t191 145.5v278q-292 -36 -412.5 -106t-120.5 -195q0 -78 46.5 -123t129.5 -45z" />
    <glyph glyph-name="b" unicode="b" horiz-adv-x="1196" 
d="M657 1026q195 0 311.5 -144.5t116.5 -377.5q0 -241 -132 -393t-335 -152q-174 0 -331 127l-6 -86h-88v1505h104v-645q173 166 360 166zM604 55q165 0 269 123t104 326q0 191 -92 307.5t-250 116.5q-177 0 -338 -164v-594q153 -115 307 -115z" />
    <glyph glyph-name="c" unicode="c" horiz-adv-x="1032" 
d="M569 -41q-207 0 -335 146t-128 384t131 387.5t343 149.5q176 0 338 -117l-15 -106h-6q-83 68 -157 96.5t-158 28.5q-160 0 -263.5 -118.5t-103.5 -317.5q0 -198 102 -317.5t256 -119.5q168 0 324 125h6l15 -104q-176 -117 -349 -117z" />
    <glyph glyph-name="d" unicode="d" horiz-adv-x="1191" 
d="M895 909v596h104v-1505h-90l-8 129q-170 -170 -354 -170q-198 0 -317 146t-119 384q0 233 132.5 385t329.5 152q165 0 322 -117zM565 55q167 0 330 166v596q-152 111 -305 111q-162 0 -266.5 -122t-104.5 -317q0 -198 93 -316t253 -118z" />
    <glyph glyph-name="e" unicode="e" horiz-adv-x="1118" 
d="M1008 483h-793v-16q0 -187 104.5 -300.5t264.5 -113.5q200 0 350 125h6l12 -102q-171 -117 -372 -117q-215 0 -344.5 146t-129.5 384t129 387.5t336 149.5q200 0 319.5 -139t119.5 -375q0 -17 -2 -29zM571 932q-146 0 -242.5 -100t-111.5 -265l682 -2q-6 171 -93.5 269
t-234.5 98z" />
    <glyph glyph-name="f" unicode="f" horiz-adv-x="704" 
d="M348 0h-104v893h-189v92h189v174q0 199 76 293t227 94q116 0 219 -45l-10 -94l-13 -6q-92 47 -190 47q-103 0 -153 -65.5t-50 -215.5l-2 -182h350v-92h-350v-893z" />
    <glyph glyph-name="g" unicode="g" horiz-adv-x="1189" 
d="M903 903l6 82h90v-1018q0 -223 -108 -341t-313 -118q-217 0 -388 117l13 105h6q148 -125 364 -125q158 0 240 87.5t82 260.5v190q-166 -163 -348 -163q-198 0 -317 144.5t-119 375.5q0 226 133 376t329 150q174 0 330 -123zM565 76q167 0 330 166v575q-152 111 -305 111
q-162 0 -266.5 -120t-104.5 -308q0 -191 93 -307.5t253 -116.5z" />
    <glyph glyph-name="h" unicode="h" horiz-adv-x="1206" 
d="M702 1026q151 0 232.5 -101.5t81.5 -291.5v-633h-105v592q0 171 -58 253.5t-177 82.5q-98 0 -195 -61.5t-184 -172.5v-694h-104v1505h104v-706q185 227 405 227z" />
    <glyph glyph-name="i" unicode="i" horiz-adv-x="487" 
d="M244 1225q-36 0 -60 24t-24 60q0 35 24.5 59.5t59.5 24.5t58.5 -24.5t23.5 -59.5t-23.5 -59.5t-58.5 -24.5zM297 0h-104v985h104v-985z" />
    <glyph glyph-name="j" unicode="j" horiz-adv-x="487" 
d="M244 1223q-35 0 -59.5 24.5t-24.5 61.5q0 35 24.5 59.5t59.5 24.5t58.5 -24.5t23.5 -59.5q0 -36 -23.5 -61t-58.5 -25zM86 -492l-49 72l2 10q51 27 82.5 58.5t51.5 88.5t20 140v1108h104v-1098q0 -155 -51 -239t-160 -140z" />
    <glyph glyph-name="k" unicode="k" horiz-adv-x="1011" 
d="M297 0h-104v1505h104v-432q0 -395 -2 -594l4 -2q100 106 287 297l202 211h130l4 -6l-371 -369l438 -604l-4 -6h-119l-387 541l-182 -183v-358z" />
    <glyph glyph-name="l" unicode="l" horiz-adv-x="487" 
d="M297 0h-104v1505h104v-1505z" />
    <glyph glyph-name="m" unicode="m" horiz-adv-x="1865" 
d="M1380 1026q137 0 215 -102t78 -291v-633h-104v592q0 336 -215 336q-97 0 -192.5 -65t-178.5 -173q2 -18 2 -57v-633h-104v592q0 336 -215 336q-97 0 -192.5 -64t-176.5 -170v-694h-104v985h92l4 -194q191 235 403 235q107 0 179.5 -63t99.5 -183q88 114 192.5 180
t216.5 66z" />
    <glyph glyph-name="n" unicode="n" horiz-adv-x="1206" 
d="M702 1026q151 0 232.5 -101.5t81.5 -291.5v-633h-105v592q0 171 -58 253.5t-177 82.5q-98 0 -195 -61.5t-184 -172.5v-694h-104v985h92l4 -194q190 235 413 235z" />
    <glyph glyph-name="o" unicode="o" horiz-adv-x="1212" 
d="M606 -41q-225 0 -362.5 150.5t-137.5 382.5q0 231 137.5 382.5t362.5 151.5t362.5 -151.5t137.5 -382.5q0 -232 -137.5 -382.5t-362.5 -150.5zM606 57q175 0 282 122.5t107 312.5t-106 313t-283 123t-284 -123t-107 -313t107.5 -312.5t283.5 -122.5z" />
    <glyph glyph-name="p" unicode="p" horiz-adv-x="1196" 
d="M657 1026q195 0 311.5 -144.5t116.5 -377.5q0 -241 -132.5 -393t-334.5 -152q-164 0 -321 117v-527h-104v1436h92l4 -133q174 174 368 174zM604 55q165 0 269 123t104 326q0 191 -92 307.5t-250 116.5q-177 0 -338 -164v-594q153 -115 307 -115z" />
    <glyph glyph-name="q" unicode="q" horiz-adv-x="1191" 
d="M903 901l8 84h88v-1436h-104v574q-168 -164 -350 -164q-194 0 -314 144t-120 386q0 237 134 387t330 150q171 0 328 -125zM565 55q170 0 330 164v598q-151 111 -305 111q-160 0 -265.5 -120t-105.5 -319q0 -201 94 -317.5t252 -116.5z" />
    <glyph glyph-name="r" unicode="r" horiz-adv-x="741" 
d="M692 1020q9 0 25 -4l-10 -111l-9 -4q-10 2 -32 2q-207 0 -369 -262v-641h-104v985h92l6 -240q181 275 401 275z" />
    <glyph glyph-name="s" unicode="s" horiz-adv-x="878" 
d="M436 -41q-176 0 -336 107l13 104h6q86 -65 161 -92t158 -27q103 0 166.5 48.5t63.5 127.5q0 74 -49.5 124.5t-186.5 107.5q-127 51 -196 100.5t-94 99t-25 119.5q0 105 84.5 176.5t220.5 71.5q159 0 313 -96l-14 -103h-6q-147 107 -295 107q-89 0 -143 -44.5t-54 -113.5
q0 -46 18.5 -78t74.5 -69t163 -84q167 -72 231 -140.5t64 -175.5q0 -119 -93.5 -194.5t-244.5 -75.5z" />
    <glyph glyph-name="t" unicode="t" horiz-adv-x="731" 
d="M477 -41q-252 0 -252 295v639h-188v92h190v281l86 53h17v-334h321v-92h-321v-629q0 -115 37.5 -161t124.5 -46q71 0 151 37l10 -4l6 -94q-94 -37 -182 -37z" />
    <glyph glyph-name="u" unicode="u" horiz-adv-x="1187" 
d="M893 322v663h104v-985h-94l-6 221q-86 -126 -189 -194t-212 -68q-144 0 -223.5 102t-79.5 297v627h104v-594q0 -334 223 -334q99 0 195 71t178 194z" />
    <glyph glyph-name="v" unicode="v" horiz-adv-x="940" 
d="M27 985h106l164 -395q132 -326 172 -432h4l168 424l166 403h106l5 -6l-420 -1008h-54l-421 1008z" />
    <glyph glyph-name="w" unicode="w" horiz-adv-x="1458" 
d="M63 985h109l109 -340q144 -453 153 -481h4q30 93 86 255.5t76 223.5l111 330h41l108 -328q19 -58 75.5 -222.5t86.5 -258.5h4q28 92 81 254t73 227l108 340h107l4 -6l-340 -1008h-53l-150 432q-64 183 -125 375h-4q-56 -186 -123 -377l-149 -430h-54l-342 1008z" />
    <glyph glyph-name="x" unicode="x" horiz-adv-x="931" 
d="M57 985h121l170 -244q13 -19 37 -53.5t43 -62.5t35 -52h4q42 58 117 168l170 244h123l2 -8l-353 -477l357 -494l-2 -6h-121l-187 264q-21 30 -57 85t-49 75h-4q-65 -101 -109 -160l-182 -264h-121l-2 6l357 494l-351 477z" />
    <glyph glyph-name="y" unicode="y" horiz-adv-x="978" 
d="M51 985h113l125 -317q91 -228 200 -518h5l211 514l133 321h112l4 -6l-618 -1430h-109v7l209 471l-389 952z" />
    <glyph glyph-name="z" unicode="z" horiz-adv-x="942" 
d="M874 0h-802l-4 23l632 866h-612v96h782l4 -22l-634 -869h634v-94z" />
    <glyph glyph-name="braceleft" unicode="{" horiz-adv-x="665" 
d="M72 547v86h10q151 3 151 229v389q0 125 58 191.5t166 66.5h106v-86h-88q-139 0 -139 -192v-377q0 -114 -43 -182.5t-115 -79.5v-4q72 -11 115 -79.5t43 -182.5v-377q0 -193 139 -193h88v-86h-106q-108 0 -166 66.5t-58 191.5v389q0 227 -151 230h-10z" />
    <glyph glyph-name="bar" unicode="|" horiz-adv-x="1144" 
d="M623 -522h-101v2126h101v-2126z" />
    <glyph glyph-name="braceright" unicode="}" horiz-adv-x="665" 
d="M584 633h10v-86h-10q-154 -3 -154 -230v-389q0 -126 -57.5 -192t-165.5 -66h-107v86h90q138 0 138 193v377q0 114 43 182.5t114 79.5v4q-71 11 -114 79.5t-43 182.5v377q0 192 -138 192h-90v86h107q108 0 165.5 -66t57.5 -192v-389q0 -226 154 -229z" />
    <glyph glyph-name="asciitilde" unicode="~" horiz-adv-x="1333" 
d="M881 475q-55 0 -105.5 16.5t-89 40t-76 47t-81.5 40t-91 16.5q-116 0 -215 -156l-10 -2l-63 49q129 199 282 199q57 0 108 -16.5t90 -40t75.5 -47t80 -40t88.5 -16.5q119 0 216 156l12 2l63 -49q-127 -199 -284 -199z" />
    <glyph glyph-name="uni00A0" unicode="&#xa0;" horiz-adv-x="471" 
 />
    <glyph glyph-name="exclamdown" unicode="&#xa1;" horiz-adv-x="616" 
d="M307 1026q36 0 60 -25.5t24 -62.5t-24.5 -61.5t-59.5 -24.5q-34 0 -58 25t-24 61q0 37 23.5 62.5t58.5 25.5zM254 -444l6 1052h98l7 -1052h-111z" />
    <glyph glyph-name="cent" unicode="&#xa2;" horiz-adv-x="1148" 
d="M969 381h6l14 -102q-151 -104 -307 -115v-189h-86v189q-195 13 -311.5 153.5t-116.5 354.5q0 212 116 353.5t312 160.5v184h86v-184q160 -9 307 -113l-12 -106h-6q-141 111 -289 120v-827q148 13 287 121zM279 674q0 -171 88 -284t229 -130v825q-144 -19 -230.5 -130
t-86.5 -281z" />
    <glyph glyph-name="sterling" unicode="&#xa3;" horiz-adv-x="1044" 
d="M352 106h645l-14 -106h-885v106h144q71 110 71 285v318h-198v88h198v233q0 222 99 341.5t280 119.5q134 0 246 -53l-10 -99l-13 -6q-102 56 -225 56q-127 0 -195.5 -94t-68.5 -273v-225h383v-88h-383v-283q0 -200 -74 -320z" />
    <glyph glyph-name="currency" unicode="&#xa4;" horiz-adv-x="1118" 
d="M317 408l-147 -150l-57 57l149 150q-80 104 -80 246q0 139 78 239l-147 148l57 59l147 -147q107 86 244 86t242 -84l145 145l56 -59l-142 -146q80 -103 80 -241q0 -142 -82 -248l144 -148l-56 -57l-147 148q-100 -87 -240 -87q-137 0 -244 89zM561 420q118 0 196.5 83
t78.5 208q0 123 -77.5 204.5t-197.5 81.5q-119 0 -196.5 -81t-77.5 -205q0 -125 78 -208t196 -83z" />
    <glyph glyph-name="yen" unicode="&#xa5;" horiz-adv-x="1353" 
d="M1114 1450h127l-471 -680h311v-86h-348v-229h348v-86h-348v-369h-112v369h-349v86h349v229h-349v86h312l-471 680h127l434 -653h6z" />
    <glyph glyph-name="brokenbar" unicode="&#xa6;" horiz-adv-x="1144" 
d="M623 717h-101v887h101v-887zM623 -522h-101v887h101v-887z" />
    <glyph glyph-name="section" unicode="&#xa7;" horiz-adv-x="1118" 
d="M723 311q176 -98 176 -264q0 -141 -103 -230t-268 -89q-187 0 -385 120l17 111h6q194 -135 364 -135q116 0 188.5 60t72.5 155q0 77 -49 129.5t-158 99.5l-172 78q-131 56 -185.5 124t-54.5 169q0 92 60 165.5t159 104.5q-79 44 -121.5 114t-42.5 155q0 139 99.5 226
t261.5 87q178 0 350 -107l-14 -108h-6q-174 121 -338 121q-109 0 -175.5 -58.5t-66.5 -150.5q0 -48 16 -85.5t50.5 -66.5t69.5 -49t91 -45l121 -53q134 -58 196 -131.5t62 -169.5q0 -100 -60 -176t-161 -101zM498 416l127 -58q94 9 153.5 69t59.5 146q0 83 -53.5 137
t-178.5 105l-108 45q-95 -10 -157 -71.5t-62 -143.5q0 -78 46 -125.5t173 -103.5z" />
    <glyph glyph-name="dieresis" unicode="&#xa8;" horiz-adv-x="608" 
d="M141 1217q-35 0 -56.5 22t-21.5 59q0 34 22.5 58t55.5 24t55.5 -24t22.5 -58q0 -37 -21.5 -59t-56.5 -22zM465 1217q-35 0 -56.5 22t-21.5 59q0 34 22.5 58t55.5 24q35 0 57.5 -24t22.5 -58q0 -37 -21.5 -59t-58.5 -22z" />
    <glyph glyph-name="copyright" unicode="&#xa9;" horiz-adv-x="1796" 
d="M899 -39q-159 0 -299.5 59.5t-241 161t-159 242.5t-58.5 299q0 159 58.5 301t159 244t241 161.5t299.5 59.5q127 0 243.5 -38t209 -108t161 -164t105.5 -211.5t37 -244.5q0 -158 -58 -299t-158 -242.5t-241 -161t-299 -59.5zM899 47q140 0 263.5 52.5t211 143
t138.5 215.5t51 265q0 141 -51 266.5t-138.5 216.5t-211 144t-263.5 53q-186 0 -339.5 -90t-241 -246t-87.5 -344q0 -187 87.5 -342t241 -244.5t339.5 -89.5zM905 276q-181 0 -300.5 126t-119.5 317q0 193 121.5 321.5t308.5 128.5q161 0 308 -106l-13 -92h-6
q-75 60 -142.5 86t-143.5 26q-143 0 -239.5 -102t-96.5 -260q0 -156 95.5 -258.5t231.5 -102.5q153 0 293 113h6l13 -90q-153 -107 -316 -107z" />
    <glyph glyph-name="ordfeminine" unicode="&#xaa;" horiz-adv-x="741" 
d="M395 1468q178 0 178 -188v-369h-73l-11 80q-53 -54 -97.5 -77t-98.5 -23q-66 0 -104.5 36t-38.5 97q0 85 78 133.5t257 71.5v35q0 70 -24.5 99.5t-81.5 29.5q-91 0 -184 -66h-5l-10 78q102 63 215 63zM317 952q74 0 168 90v140q-137 -20 -194.5 -55t-57.5 -95
q0 -37 23 -58.5t61 -21.5z" />
    <glyph glyph-name="guillemotleft" unicode="&#xab;" horiz-adv-x="923" 
d="M446 127h-86l-233 342l233 340h84l2 -10l-217 -330l220 -334zM780 127h-84l-235 342l233 340h84l2 -10l-215 -330l217 -334z" />
    <glyph glyph-name="logicalnot" unicode="&#xac;" horiz-adv-x="1333" 
d="M1194 201h-96v354h-959v96h1055v-450z" />
    <glyph glyph-name="uni00AD" unicode="&#xad;" horiz-adv-x="765" 
d="M657 420h-548v94h548v-94z" />
    <glyph glyph-name="registered" unicode="&#xae;" horiz-adv-x="1251" 
d="M631 563q-195 0 -327 131t-132 330q0 201 132 333t327 132t325.5 -132t130.5 -333q0 -200 -130.5 -330.5t-325.5 -130.5zM631 618q168 0 282.5 116t114.5 290q0 177 -114 292.5t-283 115.5q-170 0 -285 -115.5t-115 -292.5q0 -174 115 -290t285 -116zM551 776h-66v498
h146q170 0 170 -146q0 -50 -27 -85t-78 -48l154 -211l-4 -8h-70l-147 211h-78v-211zM551 1219v-179h72q112 0 112 90q0 47 -27.5 68t-86.5 21h-70z" />
    <glyph glyph-name="macron" unicode="&#xaf;" horiz-adv-x="643" 
d="M584 1243h-525v90h525v-90z" />
    <glyph glyph-name="degree" unicode="&#xb0;" horiz-adv-x="817" 
d="M408 913q-126 0 -208.5 85.5t-82.5 213.5q0 127 83 213t208 86q126 0 209 -86t83 -213q0 -128 -82.5 -213.5t-209.5 -85.5zM408 983q96 0 157.5 65.5t61.5 163.5t-61.5 164t-157.5 66q-94 0 -156 -66t-62 -164t61.5 -163.5t156.5 -65.5z" />
    <glyph glyph-name="plusminus" unicode="&#xb1;" horiz-adv-x="1333" 
d="M715 365h-97v346h-479v94h479v346h97v-346h479v-94h-479v-346zM1194 139h-1055v97h1055v-97z" />
    <glyph glyph-name="uni00B2" unicode="&#xb2;" horiz-adv-x="778" 
d="M655 942h-534l-4 29l235 248q111 117 162 198t51 154q0 65 -44 106t-120 41q-115 0 -225 -78h-6l-14 99q52 29 123.5 49t134.5 20q114 0 182 -64t68 -165q0 -89 -50 -178t-151 -193l-86 -88q-44 -47 -96 -96v-2q76 6 143 6h231v-86z" />
    <glyph glyph-name="uni00B3" unicode="&#xb3;" horiz-adv-x="778" 
d="M377 915q-133 0 -252 72l14 90h6q109 -73 226 -73q84 0 134 46.5t50 120.5q0 77 -53 120.5t-150 43.5h-90v72h86q93 0 145 44t52 120q0 66 -45.5 108.5t-118.5 42.5q-119 0 -229 -77h-7l-12 88q52 32 124.5 53.5t141.5 21.5q108 0 176 -61.5t68 -159.5q0 -77 -43.5 -134
t-120.5 -77v-2q82 -15 129 -73.5t47 -139.5q0 -106 -77.5 -176t-200.5 -70z" />
    <glyph glyph-name="acute" unicode="&#xb4;" horiz-adv-x="446" 
d="M150 1163h-91l205 326h115l6 -10z" />
    <glyph glyph-name="uni00B5" unicode="&#xb5;" horiz-adv-x="1212" 
d="M1182 63l6 -4l-8 -86q-40 -14 -78 -14q-102 0 -153 57.5t-54 196.5q-86 -122 -188 -188t-211 -66q-138 0 -203 133l-4 -2q8 -106 8 -301v-240h-104v1434h104v-592q0 -334 223 -334q100 0 196.5 71t178.5 194v663h104v-758q0 -97 31 -134.5t94 -37.5q34 0 58 8z" />
    <glyph glyph-name="paragraph" unicode="&#xb6;" horiz-adv-x="1347" 
d="M674 0h-105v672q-189 0 -312.5 106t-123.5 269q0 192 121 297.5t342 105.5h461v-1450h-105v1360h-278v-1360z" />
    <glyph glyph-name="periodcentered" unicode="&#xb7;" horiz-adv-x="450" 
d="M227 496q-35 0 -59.5 24.5t-24.5 61.5q0 38 24 63t60 25q34 0 58 -25t24 -63q0 -36 -24 -61t-58 -25z" />
    <glyph glyph-name="cedilla" unicode="&#xb8;" horiz-adv-x="540" 
d="M252 -483q-106 0 -189 45l13 73h6q83 -47 172 -47q64 0 101.5 31t37.5 80q0 43 -27 67.5t-81 24.5q-70 0 -135 -37l-7 8l105 228h80l-74 -156q50 12 82 12q62 0 102.5 -40t40.5 -103q0 -86 -60.5 -136t-166.5 -50z" />
    <glyph glyph-name="uni00B9" unicode="&#xb9;" horiz-adv-x="778" 
d="M500 942h-97v617q0 53 7 114l-2 2l-20 -12.5t-22.5 -14t-21.5 -12.5l-119 -69l-10 4l8 98l250 131h27v-858z" />
    <glyph glyph-name="ordmasculine" unicode="&#xba;" horiz-adv-x="741" 
d="M371 891q-125 0 -202 82.5t-77 206.5t76.5 206t202.5 82q124 0 201 -82t77 -206q0 -123 -77.5 -206t-200.5 -83zM371 969q85 0 136.5 60t51.5 151t-51 150t-137 59q-87 0 -139 -59t-52 -150t52.5 -151t138.5 -60z" />
    <glyph glyph-name="guillemotright" unicode="&#xbb;" horiz-adv-x="923" 
d="M229 127h-86l-2 8l219 334l-217 330l2 10h84l234 -340zM563 127h-84l-2 8l217 334l-215 330l2 10h84l234 -340z" />
    <glyph glyph-name="onequarter" unicode="&#xbc;" horiz-adv-x="1843" 
d="M492 614h-97v617q0 63 6 112l-2 3q-11 -6 -63 -39l-119 -68l-10 4l8 96l250 131h27v-856zM1196 1450h109l-387 -725l-373 -725h-109l416 778zM1534 0h-94v188h-428l-8 50l456 620h74v-584h102v-86h-102v-188zM1337 559l-209 -285h314v220q0 122 10 227h-4
q-40 -64 -111 -162z" />
    <glyph glyph-name="onehalf" unicode="&#xbd;" horiz-adv-x="1843" 
d="M459 614h-97v617q0 54 7 112l-2 3q-13 -7 -33.5 -20t-30.5 -19l-119 -68l-8 4l6 96l250 131h27v-856zM1163 1450h111l-389 -725l-371 -725h-111l416 778zM1659 0h-533l-6 29l236 247q111 116 162 197.5t51 155.5q0 65 -43.5 106t-120.5 41q-116 0 -223 -78h-6l-15 99
q52 29 122.5 49t133.5 20q115 0 182.5 -63.5t67.5 -165.5q0 -89 -50 -178t-151 -193l-84 -88q-79 -78 -98 -96l2 -2q74 6 144 6h229v-86z" />
    <glyph glyph-name="threequarters" unicode="&#xbe;" horiz-adv-x="1843" 
d="M399 590q-65 0 -133.5 19.5t-120.5 52.5l17 90h6q106 -74 223 -74q85 0 134.5 46.5t49.5 119.5q0 79 -51.5 122.5t-148.5 43.5h-90v71h86q93 0 143.5 44t50.5 120q0 67 -45 108.5t-119 41.5q-118 0 -227 -76h-6l-14 86q53 34 125.5 56t140.5 22q109 0 177.5 -62
t68.5 -159q0 -79 -43.5 -135t-122.5 -76v-2q83 -17 130.5 -75t47.5 -140q0 -104 -78 -174t-201 -70zM1260 1450h108l-387 -725l-373 -725h-108l413 778zM1597 0h-94v188h-430l-8 50l459 620h73v-584h101v-86h-101v-188zM1401 559l-209 -285h311v220q0 122 10 227h-4
q-41 -67 -108 -162z" />
    <glyph glyph-name="questiondown" unicode="&#xbf;" horiz-adv-x="1050" 
d="M608 1026q35 0 59.5 -25.5t24.5 -62.5t-24.5 -61.5t-59.5 -24.5q-34 0 -58 25t-24 61q0 37 24 62.5t58 25.5zM592 -385q179 0 356 127h6l15 -109q-86 -54 -186.5 -86t-194.5 -32q-164 0 -265.5 95.5t-101.5 246.5q0 111 41.5 194.5t140.5 165.5q102 83 131 138t31 149
v104h103l2 -114q2 -88 -32.5 -162.5t-121.5 -147.5q-109 -93 -145.5 -161t-36.5 -160q0 -109 71.5 -178.5t186.5 -69.5z" />
    <glyph glyph-name="Agrave" unicode="&#xc0;" horiz-adv-x="1318" 
d="M520 1853l197 -274h-92l-228 264l6 10h117zM616 1452h86l617 -1446l-6 -6h-119l-166 403h-739l-164 -403h-119l-4 6zM526 983l-196 -481h657l-199 479l-129 322h-4q-39 -102 -129 -320z" />
    <glyph glyph-name="Aacute" unicode="&#xc1;" horiz-adv-x="1318" 
d="M911 1853l7 -10l-226 -264h-94l197 274h116zM616 1452h86l617 -1446l-6 -6h-119l-166 403h-739l-164 -403h-119l-4 6zM526 983l-196 -481h657l-199 479l-129 322h-4q-39 -102 -129 -320z" />
    <glyph glyph-name="Acircumflex" unicode="&#xc2;" horiz-adv-x="1318" 
d="M657 1810l-172 -231h-86l-8 12l205 275h123l205 -275l-9 -12h-86zM616 1452h86l617 -1446l-6 -6h-119l-166 403h-739l-164 -403h-119l-4 6zM526 983l-196 -481h657l-199 479l-129 322h-4q-39 -102 -129 -320z" />
    <glyph glyph-name="Atilde" unicode="&#xc3;" horiz-adv-x="1318" 
d="M455 1626l-11 -8h-75q14 85 56.5 136.5t102.5 51.5q42 0 89 -27t89 -53.5t72 -25.5q33 1 52 24.5t30 73.5l10 8h72q-10 -85 -53 -136.5t-103 -53.5q-34 -1 -71 15.5t-63.5 36.5t-58 37t-56.5 17q-33 0 -52 -23t-30 -73zM616 1452h86l617 -1446l-6 -6h-119l-166 403h-739
l-164 -403h-119l-4 6zM526 983l-196 -481h657l-199 479l-129 322h-4q-39 -102 -129 -320z" />
    <glyph glyph-name="Adieresis" unicode="&#xc4;" horiz-adv-x="1318" 
d="M485 1628q-34 0 -56.5 23.5t-22.5 58.5t23.5 59.5t55.5 24.5q34 0 57 -24.5t23 -59.5t-22.5 -58.5t-57.5 -23.5zM831 1628q-34 0 -56.5 23.5t-22.5 58.5t23.5 59.5t55.5 24.5q34 0 57 -24.5t23 -59.5t-22.5 -58.5t-57.5 -23.5zM616 1452h86l617 -1446l-6 -6h-119
l-166 403h-739l-164 -403h-119l-4 6zM526 983l-196 -481h657l-199 479l-129 322h-4q-39 -102 -129 -320z" />
    <glyph glyph-name="Aring" unicode="&#xc5;" horiz-adv-x="1318" 
d="M659 1550q-84 0 -141 56.5t-57 140.5q0 83 57 139t141 56q81 0 139 -56.5t58 -138.5q0 -84 -58 -140.5t-139 -56.5zM659 1878q-57 0 -95 -37.5t-38 -93.5t38 -94.5t95 -38.5q55 0 93.5 38.5t38.5 94.5q0 55 -38 93t-94 38zM616 1452h86l617 -1446l-6 -6h-119l-166 403
h-739l-164 -403h-119l-4 6zM526 983l-196 -481h657l-199 479l-129 322h-4q-39 -102 -129 -320z" />
    <glyph glyph-name="AE" unicode="&#xc6;" horiz-adv-x="1865" 
d="M1667 692h-651v-588h700l-12 -104h-801v403h-536l-238 -403h-123l-4 6l860 1444h842l12 -104h-700v-551h651v-103zM684 944l-260 -442h479v442q0 196 6 393h-4q-117 -218 -221 -393z" />
    <glyph glyph-name="Ccedilla" unicode="&#xc7;" horiz-adv-x="1574" 
d="M883 -154q62 0 102.5 -40t40.5 -103q0 -86 -60.5 -136t-166.5 -50q-103 0 -189 45l13 73h8q79 -47 170 -47q65 0 103 31.5t38 79.5q0 42 -28.5 67t-82.5 25q-67 0 -135 -37l-6 8l94 199q-194 15 -344.5 116t-234.5 269.5t-84 376.5q0 166 54.5 309t149.5 243.5t230 158
t291 57.5q291 0 538 -203l-16 -121h-6q-238 215 -512 215q-176 0 -314.5 -83.5t-216 -233t-77.5 -338.5q0 -289 172 -474t440 -185q278 0 516 215h6l17 -119q-240 -202 -533 -205l-59 -125q50 12 82 12z" />
    <glyph glyph-name="Egrave" unicode="&#xc8;" horiz-adv-x="1189" 
d="M496 1853l196 -274h-92l-227 264l6 10h117zM991 692h-651v-588h700l-14 -104h-799v1450h799l14 -104h-700v-551h651v-103z" />
    <glyph glyph-name="Eacute" unicode="&#xc9;" horiz-adv-x="1189" 
d="M887 1853l6 -10l-225 -264h-95l197 274h117zM991 692h-651v-588h700l-14 -104h-799v1450h799l14 -104h-700v-551h651v-103z" />
    <glyph glyph-name="Ecircumflex" unicode="&#xca;" horiz-adv-x="1189" 
d="M633 1810l-172 -231h-86l-8 12l204 275h123l205 -275l-8 -12h-86zM991 692h-651v-588h700l-14 -104h-799v1450h799l14 -104h-700v-551h651v-103z" />
    <glyph glyph-name="Edieresis" unicode="&#xcb;" horiz-adv-x="1189" 
d="M461 1628q-34 0 -57 23.5t-23 58.5t23.5 59.5t56.5 24.5q34 0 57 -24.5t23 -59.5t-22.5 -58.5t-57.5 -23.5zM807 1628q-34 0 -57 23.5t-23 58.5t23.5 59.5t56.5 24.5q34 0 57 -24.5t23 -59.5t-22.5 -58.5t-57.5 -23.5zM991 692h-651v-588h700l-14 -104h-799v1450h799
l14 -104h-700v-551h651v-103z" />
    <glyph glyph-name="Igrave" unicode="&#xcc;" horiz-adv-x="567" 
d="M342 1579h-92l-227 264l6 10h116zM227 0v1450h113v-1450h-113z" />
    <glyph glyph-name="Iacute" unicode="&#xcd;" horiz-adv-x="567" 
d="M319 1579h-94l197 274h117l6 -10zM227 0v1450h113v-1450h-113z" />
    <glyph glyph-name="Icircumflex" unicode="&#xce;" horiz-adv-x="567" 
d="M113 1579h-86l-9 12l205 275h123l205 -275l-8 -12h-86l-172 231zM227 0v1450h113v-1450h-113z" />
    <glyph glyph-name="Idieresis" unicode="&#xcf;" horiz-adv-x="567" 
d="M111 1628q-34 0 -57 23.5t-23 58.5t23.5 59.5t56.5 24.5q34 0 56.5 -24.5t22.5 -59.5q0 -36 -22 -59t-57 -23zM457 1628q-34 0 -57 23.5t-23 58.5t23.5 59.5t56.5 24.5q34 0 57 -24.5t23 -59.5t-22.5 -58.5t-57.5 -23.5zM227 0v1450h113v-1450h-113z" />
    <glyph glyph-name="Eth" unicode="&#xd0;" horiz-adv-x="1540" 
d="M227 1450h367q407 0 618 -183t211 -532q0 -352 -217.5 -543.5t-611.5 -191.5h-367v692h-149v103h149v655zM340 104h231q732 0 732 633q0 308 -181.5 458.5t-548.5 150.5h-233v-551h410v-103h-410v-588z" />
    <glyph glyph-name="Ntilde" unicode="&#xd1;" horiz-adv-x="1628" 
d="M627 1618h-76q14 85 57 136.5t103 51.5q42 0 89 -27t89 -53.5t72 -25.5q33 1 51.5 24.5t29.5 73.5l11 8h71q-11 -85 -53 -137t-102 -53q-43 -1 -89.5 25.5t-88 53.5t-72.5 27q-33 0 -52 -23t-30 -73zM338 0h-111v1450h92l701 -885q156 -196 268 -334h2v373v846h111v-1477
h-41l-750 945q-17 21 -268 331h-4q1 -52 1 -111t-0.5 -136t-0.5 -123v-879z" />
    <glyph glyph-name="Ograve" unicode="&#xd2;" horiz-adv-x="1695" 
d="M907 1579h-92l-227 264l6 10h117zM848 -41q-216 0 -383 101.5t-255.5 275t-88.5 389.5q0 161 51 301t143.5 243t230 162.5t302.5 59.5t303 -59.5t230 -162.5t143 -243t51 -301t-51.5 -301.5t-144.5 -243.5t-230.5 -162t-300.5 -59zM848 68q137 0 251.5 51t192 139.5
t120 209t42.5 257.5q0 186 -72.5 334.5t-211.5 235.5t-322 87q-137 0 -251.5 -50.5t-192 -138.5t-120 -208.5t-42.5 -259.5q0 -184 73 -332.5t212.5 -236.5t320.5 -88z" />
    <glyph glyph-name="Oacute" unicode="&#xd3;" horiz-adv-x="1695" 
d="M883 1579h-95l197 274h117l6 -10zM848 -41q-216 0 -383 101.5t-255.5 275t-88.5 389.5q0 161 51 301t143.5 243t230 162.5t302.5 59.5t303 -59.5t230 -162.5t143 -243t51 -301t-51.5 -301.5t-144.5 -243.5t-230.5 -162t-300.5 -59zM848 68q137 0 251.5 51t192 139.5
t120 209t42.5 257.5q0 186 -72.5 334.5t-211.5 235.5t-322 87q-137 0 -251.5 -50.5t-192 -138.5t-120 -208.5t-42.5 -259.5q0 -184 73 -332.5t212.5 -236.5t320.5 -88z" />
    <glyph glyph-name="Ocircumflex" unicode="&#xd4;" horiz-adv-x="1695" 
d="M676 1579h-86l-8 12l204 275h123l205 -275l-8 -12h-86l-172 231zM848 -41q-216 0 -383 101.5t-255.5 275t-88.5 389.5q0 161 51 301t143.5 243t230 162.5t302.5 59.5t303 -59.5t230 -162.5t143 -243t51 -301t-51.5 -301.5t-144.5 -243.5t-230.5 -162t-300.5 -59zM848 68
q137 0 251.5 51t192 139.5t120 209t42.5 257.5q0 186 -72.5 334.5t-211.5 235.5t-322 87q-137 0 -251.5 -50.5t-192 -138.5t-120 -208.5t-42.5 -259.5q0 -184 73 -332.5t212.5 -236.5t320.5 -88z" />
    <glyph glyph-name="Otilde" unicode="&#xd5;" horiz-adv-x="1695" 
d="M635 1618h-76q14 85 57 136.5t103 51.5q42 0 89 -27t89 -53.5t72 -25.5q33 1 52 24.5t30 73.5l10 8h72q-10 -85 -53 -136.5t-103 -53.5q-43 -1 -89.5 25.5t-88 53.5t-72.5 27q-33 0 -52 -23t-30 -73zM848 -41q-216 0 -383 101.5t-255.5 275t-88.5 389.5q0 161 51 301
t143.5 243t230 162.5t302.5 59.5t303 -59.5t230 -162.5t143 -243t51 -301t-51.5 -301.5t-144.5 -243.5t-230.5 -162t-300.5 -59zM848 68q137 0 251.5 51t192 139.5t120 209t42.5 257.5q0 186 -72.5 334.5t-211.5 235.5t-322 87q-137 0 -251.5 -50.5t-192 -138.5t-120 -208.5
t-42.5 -259.5q0 -184 73 -332.5t212.5 -236.5t320.5 -88z" />
    <glyph glyph-name="Odieresis" unicode="&#xd6;" horiz-adv-x="1695" 
d="M674 1628q-34 0 -57 23.5t-23 58.5t23.5 59.5t56.5 24.5q34 0 57 -24.5t23 -59.5t-22.5 -58.5t-57.5 -23.5zM1020 1628q-34 0 -57 23.5t-23 58.5t23.5 59.5t56.5 24.5q34 0 57 -24.5t23 -59.5t-22.5 -58.5t-57.5 -23.5zM848 -41q-216 0 -383 101.5t-255.5 275
t-88.5 389.5q0 161 51 301t143.5 243t230 162.5t302.5 59.5t303 -59.5t230 -162.5t143 -243t51 -301t-51.5 -301.5t-144.5 -243.5t-230.5 -162t-300.5 -59zM848 68q137 0 251.5 51t192 139.5t120 209t42.5 257.5q0 186 -72.5 334.5t-211.5 235.5t-322 87
q-137 0 -251.5 -50.5t-192 -138.5t-120 -208.5t-42.5 -259.5q0 -184 73 -332.5t212.5 -236.5t320.5 -88z" />
    <glyph glyph-name="multiply" unicode="&#xd7;" horiz-adv-x="1333" 
d="M1006 1010l67 -68l-338 -338l338 -340l-67 -67l-338 340l-340 -340l-68 67l340 340l-340 338l68 68l340 -338z" />
    <glyph glyph-name="Oslash" unicode="&#xd8;" horiz-adv-x="1695" 
d="M1520 1546l-179 -237q113 -104 173.5 -255.5t60.5 -328.5q0 -161 -51.5 -301.5t-144.5 -243.5t-230.5 -162t-300.5 -59q-240 0 -420 125l-133 -180h-117l178 237q-113 105 -174 255.5t-61 328.5q0 161 51 301t143.5 243t230 162.5t302.5 59.5q242 0 422 -125l133 180h117
zM242 725q0 -145 48 -271t136 -216l774 1038q-147 106 -352 106q-137 0 -251.5 -50.5t-192 -138.5t-120 -208.5t-42.5 -259.5zM848 68q137 0 251.5 51t192 139.5t120 209t42.5 257.5q0 147 -47 273.5t-135 215.5l-774 -1038q145 -108 350 -108z" />
    <glyph glyph-name="Ugrave" unicode="&#xd9;" horiz-adv-x="1525" 
d="M821 1579h-92l-227 264l6 10h117zM764 -41q-551 0 -551 612v879h113v-870q0 -258 108.5 -386t329.5 -128t328.5 128t107.5 388v868h113v-877q0 -300 -139 -457t-410 -157z" />
    <glyph glyph-name="Uacute" unicode="&#xda;" horiz-adv-x="1525" 
d="M799 1579h-94l196 274h117l6 -10zM764 -41q-551 0 -551 612v879h113v-870q0 -258 108.5 -386t329.5 -128t328.5 128t107.5 388v868h113v-877q0 -300 -139 -457t-410 -157z" />
    <glyph glyph-name="Ucircumflex" unicode="&#xdb;" horiz-adv-x="1525" 
d="M592 1579h-86l-8 12l204 275h123l205 -275l-8 -12h-86l-172 231zM764 -41q-551 0 -551 612v879h113v-870q0 -258 108.5 -386t329.5 -128t328.5 128t107.5 388v868h113v-877q0 -300 -139 -457t-410 -157z" />
    <glyph glyph-name="Udieresis" unicode="&#xdc;" horiz-adv-x="1525" 
d="M590 1628q-34 0 -57 23.5t-23 58.5t23.5 59.5t56.5 24.5q34 0 57 -24.5t23 -59.5t-22.5 -58.5t-57.5 -23.5zM936 1628q-34 0 -57 23.5t-23 58.5t23.5 59.5t56.5 24.5q34 0 57 -24.5t23 -59.5t-22.5 -58.5t-57.5 -23.5zM764 -41q-551 0 -551 612v879h113v-870
q0 -258 108.5 -386t329.5 -128t328.5 128t107.5 388v868h113v-877q0 -300 -139 -457t-410 -157z" />
    <glyph glyph-name="Yacute" unicode="&#xdd;" horiz-adv-x="1169" 
d="M621 1579h-95l197 274h117l6 -10zM27 1450h120l244 -418q38 -64 105 -180.5t88 -151.5h2l192 332l242 418h123l2 -6l-504 -842v-602h-113v602l-505 842z" />
    <glyph glyph-name="Thorn" unicode="&#xde;" horiz-adv-x="1173" 
d="M340 1171h266q245 0 368.5 -109t123.5 -321q0 -200 -128.5 -313t-369.5 -113h-260v-315h-113v1450h113v-279zM340 418h233q211 0 310.5 80.5t99.5 242.5q0 167 -98.5 247.5t-302.5 80.5h-242v-651z" />
    <glyph glyph-name="germandbls" unicode="&#xdf;" horiz-adv-x="1187" 
d="M739 784v-4q160 -29 253 -137.5t93 -257.5q0 -181 -112.5 -303.5t-288.5 -122.5q-120 0 -215 39l12 92l11 6q93 -41 190 -41q129 0 212 92.5t83 233.5q0 154 -109.5 249t-279.5 95h-82v92h80q130 0 208.5 88t79.5 252q0 132 -78 212.5t-206 80.5q-145 0 -219 -99.5
t-74 -316.5v-1034h-104v1032q0 514 401 514q170 0 278 -106t107 -275q0 -149 -66.5 -250t-173.5 -131z" />
    <glyph glyph-name="agrave" unicode="&#xe0;" horiz-adv-x="1044" 
d="M373 1489l205 -326h-89l-237 316l6 10h115zM371 -41q-119 0 -189.5 67t-70.5 179q0 168 149 258t488 127v72q0 145 -50.5 207.5t-167.5 62.5q-83 0 -175.5 -34t-172.5 -93h-6l-12 100q86 56 188.5 88.5t190.5 32.5q309 0 309 -332v-694h-88l-10 162
q-108 -112 -194.5 -157.5t-188.5 -45.5zM391 47q81 0 166 45.5t191 145.5v278q-292 -36 -412.5 -106t-120.5 -195q0 -78 46.5 -123t129.5 -45z" />
    <glyph glyph-name="aacute" unicode="&#xe1;" horiz-adv-x="1044" 
d="M553 1163h-90l205 326h114l6 -10zM371 -41q-119 0 -189.5 67t-70.5 179q0 168 149 258t488 127v72q0 145 -50.5 207.5t-167.5 62.5q-83 0 -175.5 -34t-172.5 -93h-6l-12 100q86 56 188.5 88.5t190.5 32.5q309 0 309 -332v-694h-88l-10 162q-108 -112 -194.5 -157.5
t-188.5 -45.5zM391 47q81 0 166 45.5t191 145.5v278q-292 -36 -412.5 -106t-120.5 -195q0 -78 46.5 -123t129.5 -45z" />
    <glyph glyph-name="acircumflex" unicode="&#xe2;" horiz-adv-x="1044" 
d="M692 1163l-172 260l-176 -260h-86l-6 13l211 313h115l208 -313l-8 -13h-86zM371 -41q-119 0 -189.5 67t-70.5 179q0 168 149 258t488 127v72q0 145 -50.5 207.5t-167.5 62.5q-83 0 -175.5 -34t-172.5 -93h-6l-12 100q86 56 188.5 88.5t190.5 32.5q309 0 309 -332v-694
h-88l-10 162q-108 -112 -194.5 -157.5t-188.5 -45.5zM391 47q81 0 166 45.5t191 145.5v278q-292 -36 -412.5 -106t-120.5 -195q0 -78 46.5 -123t129.5 -45z" />
    <glyph glyph-name="atilde" unicode="&#xe3;" horiz-adv-x="1044" 
d="M309 1210h-73q12 85 54.5 137t102.5 52q33 0 69.5 -17t63.5 -37.5t58 -37t55 -15.5q32 1 50.5 24.5t29.5 74.5l10 8h72q-11 -85 -53.5 -137.5t-102.5 -53.5q-42 -1 -87 26t-86 54t-71 27q-33 0 -51.5 -22.5t-30.5 -73.5zM371 -41q-119 0 -189.5 67t-70.5 179
q0 168 149 258t488 127v72q0 145 -50.5 207.5t-167.5 62.5q-83 0 -175.5 -34t-172.5 -93h-6l-12 100q86 56 188.5 88.5t190.5 32.5q309 0 309 -332v-694h-88l-10 162q-108 -112 -194.5 -157.5t-188.5 -45.5zM391 47q81 0 166 45.5t191 145.5v278q-292 -36 -412.5 -106
t-120.5 -195q0 -78 46.5 -123t129.5 -45z" />
    <glyph glyph-name="adieresis" unicode="&#xe4;" horiz-adv-x="1044" 
d="M358 1217q-35 0 -56 22t-21 59q0 34 22 58t55 24t55.5 -24t22.5 -58q0 -37 -21.5 -59t-56.5 -22zM682 1217q-35 0 -56.5 22t-21.5 59q0 34 22.5 58t55.5 24q35 0 57.5 -24t22.5 -58q0 -37 -21.5 -59t-58.5 -22zM371 -41q-119 0 -189.5 67t-70.5 179q0 168 149 258
t488 127v72q0 145 -50.5 207.5t-167.5 62.5q-83 0 -175.5 -34t-172.5 -93h-6l-12 100q86 56 188.5 88.5t190.5 32.5q309 0 309 -332v-694h-88l-10 162q-108 -112 -194.5 -157.5t-188.5 -45.5zM391 47q81 0 166 45.5t191 145.5v278q-292 -36 -412.5 -106t-120.5 -195
q0 -78 46.5 -123t129.5 -45z" />
    <glyph glyph-name="aring" unicode="&#xe5;" horiz-adv-x="1044" 
d="M520 1139q-84 0 -141 55.5t-57 140.5q0 84 57 139.5t141 55.5q83 0 140 -55.5t57 -139.5q0 -85 -57 -140.5t-140 -55.5zM520 1202q57 0 94 38t37 95t-37 94t-94 37q-58 0 -95.5 -37t-37.5 -94t37.5 -95t95.5 -38zM371 -41q-119 0 -189.5 67t-70.5 179q0 168 149 258
t488 127v72q0 145 -50.5 207.5t-167.5 62.5q-83 0 -175.5 -34t-172.5 -93h-6l-12 100q86 56 188.5 88.5t190.5 32.5q309 0 309 -332v-694h-88l-10 162q-108 -112 -194.5 -157.5t-188.5 -45.5zM391 47q81 0 166 45.5t191 145.5v278q-292 -36 -412.5 -106t-120.5 -195
q0 -78 46.5 -123t129.5 -45z" />
    <glyph glyph-name="ae" unicode="&#xe6;" horiz-adv-x="1761" 
d="M371 -41q-119 0 -189.5 67.5t-70.5 178.5q0 157 145.5 237.5t491.5 122.5v99q0 142 -51 205t-167 63q-78 0 -172.5 -32.5t-175.5 -94.5h-6l-12 100q84 55 187.5 88t191.5 33q123 0 194 -62t94 -188h3q56 119 154.5 184.5t223.5 65.5q201 0 321 -139t120 -375
q0 -17 -2 -29h-791q0 -198 100.5 -314t264.5 -116q202 0 352 125h6l10 -102q-171 -117 -372 -117q-137 0 -242 63.5t-162 178.5q-116 -123 -220.5 -182.5t-225.5 -59.5zM862 567l680 -2q-6 171 -94.5 269t-235.5 98q-145 0 -241 -99.5t-109 -265.5zM393 47q177 0 393 219
q-33 89 -36 219q-295 -36 -415 -94.5t-120 -177.5q0 -78 48 -122t130 -44z" />
    <glyph glyph-name="ccedilla" unicode="&#xe7;" horiz-adv-x="1032" 
d="M903 180l15 -104q-155 -104 -306 -115l-59 -127q50 12 82 12q62 0 102.5 -40t40.5 -103q0 -86 -60.5 -136t-166.5 -50q-103 0 -189 45l13 73h8q79 -47 170 -47q65 0 103 31.5t38 79.5q0 43 -28 67.5t-82 24.5q-67 0 -135 -37l-7 8l93 199q-193 12 -311 156.5t-118 371.5
q0 238 131 387.5t343 149.5q176 0 338 -117l-15 -106h-6q-83 68 -157 96.5t-158 28.5q-160 0 -263.5 -118.5t-103.5 -317.5q0 -198 102 -317.5t256 -119.5q168 0 324 125h6z" />
    <glyph glyph-name="egrave" unicode="&#xe8;" horiz-adv-x="1118" 
d="M422 1489l205 -326h-88l-238 316l6 10h115zM1008 483h-793v-16q0 -187 104.5 -300.5t264.5 -113.5q200 0 350 125h6l12 -102q-171 -117 -372 -117q-215 0 -344.5 146t-129.5 384t129 387.5t336 149.5q200 0 319.5 -139t119.5 -375q0 -17 -2 -29zM571 932
q-146 0 -242.5 -100t-111.5 -265l682 -2q-6 171 -93.5 269t-234.5 98z" />
    <glyph glyph-name="eacute" unicode="&#xe9;" horiz-adv-x="1118" 
d="M829 1489l7 -10l-236 -316h-90l205 326h114zM1008 483h-793v-16q0 -187 104.5 -300.5t264.5 -113.5q200 0 350 125h6l12 -102q-171 -117 -372 -117q-215 0 -344.5 146t-129.5 384t129 387.5t336 149.5q200 0 319.5 -139t119.5 -375q0 -17 -2 -29zM571 932
q-146 0 -242.5 -100t-111.5 -265l682 -2q-6 171 -93.5 269t-234.5 98z" />
    <glyph glyph-name="ecircumflex" unicode="&#xea;" horiz-adv-x="1118" 
d="M569 1423l-176 -260h-86l-6 13l211 313h115l209 -313l-9 -13h-86zM1008 483h-793v-16q0 -187 104.5 -300.5t264.5 -113.5q200 0 350 125h6l12 -102q-171 -117 -372 -117q-215 0 -344.5 146t-129.5 384t129 387.5t336 149.5q200 0 319.5 -139t119.5 -375q0 -17 -2 -29z
M571 932q-146 0 -242.5 -100t-111.5 -265l682 -2q-6 171 -93.5 269t-234.5 98z" />
    <glyph glyph-name="edieresis" unicode="&#xeb;" horiz-adv-x="1118" 
d="M408 1217q-35 0 -56.5 22t-21.5 59q0 34 22.5 58t55.5 24t55 -24t22 -58q0 -37 -21 -59t-56 -22zM731 1217q-35 0 -56.5 22t-21.5 59q0 34 22.5 58t55.5 24q35 0 57.5 -24t22.5 -58q0 -37 -21.5 -59t-58.5 -22zM1008 483h-793v-16q0 -187 104.5 -300.5t264.5 -113.5
q200 0 350 125h6l12 -102q-171 -117 -372 -117q-215 0 -344.5 146t-129.5 384t129 387.5t336 149.5q200 0 319.5 -139t119.5 -375q0 -17 -2 -29zM571 932q-146 0 -242.5 -100t-111.5 -265l682 -2q-6 171 -93.5 269t-234.5 98z" />
    <glyph glyph-name="igrave" unicode="&#xec;" horiz-adv-x="487" 
d="M96 1489l205 -326h-88l-238 316l7 10h114zM297 0h-104v985h104v-985z" />
    <glyph glyph-name="iacute" unicode="&#xed;" horiz-adv-x="487" 
d="M276 1163h-90l205 326h115l6 -10zM297 0h-104v985h104v-985z" />
    <glyph glyph-name="icircumflex" unicode="&#xee;" horiz-adv-x="487" 
d="M418 1163l-172 260l-176 -260h-86l-7 13l211 313h115l209 -313l-8 -13h-86zM297 0h-104v985h104v-985z" />
    <glyph glyph-name="idieresis" unicode="&#xef;" horiz-adv-x="487" 
d="M82 1217q-35 0 -56.5 22t-21.5 59q0 34 22.5 58t55.5 24t55.5 -24t22.5 -58q0 -37 -21.5 -59t-56.5 -22zM406 1217q-35 0 -56.5 22t-21.5 59q0 34 22.5 58t55.5 24q35 0 57 -24t22 -58q0 -37 -21 -59t-58 -22zM297 0h-104v985h104v-985z" />
    <glyph glyph-name="eth" unicode="&#xf0;" horiz-adv-x="1191" 
d="M1051 1327l-230 -78q248 -303 248 -639q0 -317 -132 -484t-357 -167q-219 0 -346.5 138.5t-127.5 355.5q0 219 131.5 360t329.5 141q100 0 198.5 -40t180.5 -117q-61 217 -229 417l-266 -90l-23 72l236 80q-112 119 -242 223l2 6h137q118 -95 207 -194l258 86zM573 57
q93 0 166.5 35.5t128 109.5t80 198t15.5 290q-101 91 -192.5 128.5t-188.5 37.5q-160 0 -263.5 -112t-103.5 -291q0 -176 96.5 -286t261.5 -110z" />
    <glyph glyph-name="ntilde" unicode="&#xf1;" horiz-adv-x="1206" 
d="M416 1219l-10 -9h-74q12 85 54.5 137t102.5 52q33 0 69.5 -17t63.5 -37.5t58 -37t55 -15.5q32 1 50.5 24.5t29.5 74.5l10 8h72q-11 -85 -53.5 -137.5t-102.5 -53.5q-42 -1 -87 26t-85.5 54t-70.5 27q-33 0 -51.5 -22.5t-30.5 -73.5zM702 1026q151 0 232.5 -101.5
t81.5 -291.5v-633h-105v592q0 171 -58 253.5t-177 82.5q-98 0 -195 -61.5t-184 -172.5v-694h-104v985h92l4 -194q190 235 413 235z" />
    <glyph glyph-name="ograve" unicode="&#xf2;" horiz-adv-x="1212" 
d="M461 1489l205 -326h-88l-238 316l6 10h115zM606 -41q-225 0 -362.5 150.5t-137.5 382.5q0 231 137.5 382.5t362.5 151.5t362.5 -151.5t137.5 -382.5q0 -232 -137.5 -382.5t-362.5 -150.5zM606 57q175 0 282 122.5t107 312.5t-106 313t-283 123t-284 -123t-107 -313
t107.5 -312.5t283.5 -122.5z" />
    <glyph glyph-name="oacute" unicode="&#xf3;" horiz-adv-x="1212" 
d="M639 1163h-90l205 326h114l6 -10zM606 -41q-225 0 -362.5 150.5t-137.5 382.5q0 231 137.5 382.5t362.5 151.5t362.5 -151.5t137.5 -382.5q0 -232 -137.5 -382.5t-362.5 -150.5zM606 57q175 0 282 122.5t107 312.5t-106 313t-283 123t-284 -123t-107 -313t107.5 -312.5
t283.5 -122.5z" />
    <glyph glyph-name="ocircumflex" unicode="&#xf4;" horiz-adv-x="1212" 
d="M780 1163l-172 260l-176 -260h-86l-6 13l211 313h115l208 -313l-8 -13h-86zM606 -41q-225 0 -362.5 150.5t-137.5 382.5q0 231 137.5 382.5t362.5 151.5t362.5 -151.5t137.5 -382.5q0 -232 -137.5 -382.5t-362.5 -150.5zM606 57q175 0 282 122.5t107 312.5t-106 313
t-283 123t-284 -123t-107 -313t107.5 -312.5t283.5 -122.5z" />
    <glyph glyph-name="otilde" unicode="&#xf5;" horiz-adv-x="1212" 
d="M397 1210h-73q12 85 54.5 137t102.5 52q33 0 69.5 -17t63.5 -37.5t58 -37t55 -15.5q32 1 50.5 24.5t29.5 74.5l10 8h72q-11 -85 -53.5 -137.5t-102.5 -53.5q-42 -1 -87 26t-86 54t-71 27q-33 0 -51 -22.5t-30 -73.5zM606 -41q-225 0 -362.5 150.5t-137.5 382.5
q0 231 137.5 382.5t362.5 151.5t362.5 -151.5t137.5 -382.5q0 -232 -137.5 -382.5t-362.5 -150.5zM606 57q175 0 282 122.5t107 312.5t-106 313t-283 123t-284 -123t-107 -313t107.5 -312.5t283.5 -122.5z" />
    <glyph glyph-name="odieresis" unicode="&#xf6;" horiz-adv-x="1212" 
d="M444 1217q-35 0 -56 22t-21 59q0 34 22 58t55 24t55.5 -24t22.5 -58q0 -37 -21.5 -59t-56.5 -22zM768 1217q-35 0 -56.5 22t-21.5 59q0 34 22.5 58t55.5 24q35 0 57.5 -24t22.5 -58q0 -37 -21.5 -59t-58.5 -22zM606 -41q-225 0 -362.5 150.5t-137.5 382.5
q0 231 137.5 382.5t362.5 151.5t362.5 -151.5t137.5 -382.5q0 -232 -137.5 -382.5t-362.5 -150.5zM606 57q175 0 282 122.5t107 312.5t-106 313t-283 123t-284 -123t-107 -313t107.5 -312.5t283.5 -122.5z" />
    <glyph glyph-name="divide" unicode="&#xf7;" horiz-adv-x="1333" 
d="M668 848q-41 0 -69 28.5t-28 69.5q0 43 28 72t69 29t68.5 -29t27.5 -72q0 -41 -27.5 -69.5t-68.5 -28.5zM1194 555h-1055v96h1055v-96zM668 160q-41 0 -69 28.5t-28 71.5q0 41 28 69.5t69 28.5t68.5 -28.5t27.5 -69.5q0 -43 -27.5 -71.5t-68.5 -28.5z" />
    <glyph glyph-name="oslash" unicode="&#xf8;" horiz-adv-x="1212" 
d="M1098 1061l-137 -176q70 -73 107.5 -174t37.5 -219q0 -232 -137.5 -382.5t-362.5 -150.5q-172 0 -297 92l-98 -127h-96l137 176q-70 71 -108 172.5t-38 219.5q0 231 137.5 382.5t362.5 151.5q168 0 297 -92l101 127h94zM213 492q0 -191 104 -310l525 672q-102 76 -236 76
q-178 0 -285.5 -123.5t-107.5 -314.5zM606 55q177 0 284 122.5t107 314.5q0 188 -102 309l-522 -670q95 -76 233 -76z" />
    <glyph glyph-name="ugrave" unicode="&#xf9;" horiz-adv-x="1187" 
d="M444 1489l205 -326h-88l-237 316l6 10h114zM893 322v663h104v-985h-94l-6 221q-86 -126 -189 -194t-212 -68q-144 0 -223.5 102t-79.5 297v627h104v-594q0 -334 223 -334q99 0 195 71t178 194z" />
    <glyph glyph-name="uacute" unicode="&#xfa;" horiz-adv-x="1187" 
d="M854 1489l6 -10l-235 -316h-90l204 326h115zM893 322v663h104v-985h-94l-6 221q-86 -126 -189 -194t-212 -68q-144 0 -223.5 102t-79.5 297v627h104v-594q0 -334 223 -334q99 0 195 71t178 194z" />
    <glyph glyph-name="ucircumflex" unicode="&#xfb;" horiz-adv-x="1187" 
d="M594 1423l-176 -260h-86l-6 13l211 313h114l209 -313l-8 -13h-86zM893 322v663h104v-985h-94l-6 221q-86 -126 -189 -194t-212 -68q-144 0 -223.5 102t-79.5 297v627h104v-594q0 -334 223 -334q99 0 195 71t178 194z" />
    <glyph glyph-name="udieresis" unicode="&#xfc;" horiz-adv-x="1187" 
d="M430 1217q-35 0 -56.5 22t-21.5 59q0 34 22.5 58t55.5 24t55.5 -24t22.5 -58q0 -37 -21.5 -59t-56.5 -22zM754 1217q-35 0 -56.5 22t-21.5 59q0 34 22.5 58t55.5 24q35 0 57.5 -24t22.5 -58q0 -37 -21.5 -59t-58.5 -22zM893 322v663h104v-985h-94l-6 221
q-86 -126 -189 -194t-212 -68q-144 0 -223.5 102t-79.5 297v627h104v-594q0 -334 223 -334q99 0 195 71t178 194z" />
    <glyph glyph-name="yacute" unicode="&#xfd;" horiz-adv-x="978" 
d="M526 1163h-90l205 326h115l6 -10zM51 985h113l125 -317q91 -228 200 -518h5l211 514l133 321h112l4 -6l-618 -1430h-109v7l209 471l-389 952z" />
    <glyph glyph-name="thorn" unicode="&#xfe;" horiz-adv-x="1200" 
d="M662 1026q195 0 311.5 -144.5t116.5 -377.5q0 -241 -132.5 -393t-334.5 -152q-168 0 -326 121v-531h-104v1956h104v-649q177 170 365 170zM610 55q164 0 267.5 123.5t103.5 325.5q0 191 -92 307.5t-250 116.5q-92 0 -180.5 -45.5t-161.5 -122.5v-588q156 -117 313 -117z
" />
    <glyph glyph-name="ydieresis" unicode="&#xff;" horiz-adv-x="978" 
d="M332 1217q-35 0 -56.5 22t-21.5 59q0 34 22.5 58t55.5 24t55.5 -24t22.5 -58q0 -37 -21.5 -59t-56.5 -22zM655 1217q-35 0 -56 22t-21 59q0 34 22 58t55 24q35 0 57.5 -24t22.5 -58q0 -37 -21.5 -59t-58.5 -22zM51 985h113l125 -317q91 -228 200 -518h5l211 514l133 321
h112l4 -6l-618 -1430h-109v7l209 471l-389 952z" />
    <glyph glyph-name="Amacron" unicode="&#x100;" horiz-adv-x="1318" 
d="M397 1749h521v-90h-521v90zM616 1452h86l617 -1446l-6 -6h-119l-166 403h-739l-164 -403h-119l-4 6zM526 983l-196 -481h657l-199 479l-129 322h-4q-39 -102 -129 -320z" />
    <glyph glyph-name="amacron" unicode="&#x101;" horiz-adv-x="1044" 
d="M782 1243h-524v90h524v-90zM371 -41q-119 0 -189.5 67t-70.5 179q0 168 149 258t488 127v72q0 145 -50.5 207.5t-167.5 62.5q-83 0 -175.5 -34t-172.5 -93h-6l-12 100q86 56 188.5 88.5t190.5 32.5q309 0 309 -332v-694h-88l-10 162q-108 -112 -194.5 -157.5
t-188.5 -45.5zM391 47q81 0 166 45.5t191 145.5v278q-292 -36 -412.5 -106t-120.5 -195q0 -78 46.5 -123t129.5 -45z" />
    <glyph glyph-name="Abreve" unicode="&#x102;" horiz-adv-x="1318" 
d="M659 1581q-127 0 -205.5 68t-93.5 190l11 10h71q40 -184 217 -184q178 0 215 184h74l10 -10q-15 -122 -93.5 -190t-205.5 -68zM616 1452h86l617 -1446l-6 -6h-119l-166 403h-739l-164 -403h-119l-4 6zM526 983l-196 -481h657l-199 479l-129 322h-4q-39 -102 -129 -320z
" />
    <glyph glyph-name="abreve" unicode="&#x103;" horiz-adv-x="1044" 
d="M520 1176q-122 0 -202 70t-95 188l13 12h71q37 -186 213 -186q177 0 211 186h74l10 -12q-14 -118 -93.5 -188t-201.5 -70zM371 -41q-119 0 -189.5 67t-70.5 179q0 168 149 258t488 127v72q0 145 -50.5 207.5t-167.5 62.5q-83 0 -175.5 -34t-172.5 -93h-6l-12 100
q86 56 188.5 88.5t190.5 32.5q309 0 309 -332v-694h-88l-10 162q-108 -112 -194.5 -157.5t-188.5 -45.5zM391 47q81 0 166 45.5t191 145.5v278q-292 -36 -412.5 -106t-120.5 -195q0 -78 46.5 -123t129.5 -45z" />
    <glyph glyph-name="Aogonek" unicode="&#x104;" horiz-adv-x="1318" 
d="M1362 -336h6l10 -74q-70 -49 -164 -49q-83 0 -133.5 46.5t-50.5 123.5q0 149 195 289h-31l-166 403h-739l-164 -403h-119l-4 6l614 1446h86l617 -1446l-6 -6h-17q-101 -89 -141.5 -151.5t-40.5 -122.5q0 -52 29.5 -80.5t85.5 -28.5q76 0 133 47zM526 983l-196 -481h657
l-199 479l-129 322h-4q-39 -102 -129 -320z" />
    <glyph glyph-name="aogonek" unicode="&#x105;" horiz-adv-x="1044" 
d="M907 -336h6l11 -74q-70 -49 -164 -49q-83 0 -134 46.5t-51 123.5q0 149 195 289h-6l-10 162q-108 -112 -194.5 -157.5t-188.5 -45.5q-119 0 -189.5 67t-70.5 179q0 168 149 258t488 127v72q0 145 -50.5 207.5t-167.5 62.5q-83 0 -175.5 -34t-172.5 -93h-6l-12 100
q86 56 188.5 88.5t190.5 32.5q309 0 309 -332v-694h-10q-101 -89 -142 -151.5t-41 -122.5q0 -52 29.5 -80.5t85.5 -28.5q76 0 133 47zM748 238v278q-292 -36 -412.5 -106t-120.5 -195q0 -78 46.5 -123t129.5 -45q81 0 166 45.5t191 145.5z" />
    <glyph glyph-name="Cacute" unicode="&#x106;" horiz-adv-x="1574" 
d="M870 1579h-94l197 274h117l6 -10zM848 -41q-209 0 -375.5 98t-259 272.5t-92.5 393.5q0 166 54.5 309t149.5 243.5t230 158t291 57.5q291 0 538 -203l-16 -121h-6q-238 215 -512 215q-176 0 -314.5 -83.5t-216 -233t-77.5 -338.5q0 -289 172 -474t440 -185q278 0 516 215
h6l17 -119q-246 -205 -545 -205z" />
    <glyph glyph-name="cacute" unicode="&#x107;" horiz-adv-x="1032" 
d="M598 1163h-90l205 326h114l7 -10zM569 -41q-207 0 -335 146t-128 384t131 387.5t343 149.5q176 0 338 -117l-15 -106h-6q-83 68 -157 96.5t-158 28.5q-160 0 -263.5 -118.5t-103.5 -317.5q0 -198 102 -317.5t256 -119.5q168 0 324 125h6l15 -104q-176 -117 -349 -117z
" />
    <glyph glyph-name="Cdotaccent" unicode="&#x10a;" horiz-adv-x="1574" 
d="M836 1626q-35 0 -58.5 24.5t-23.5 59.5q0 37 23.5 61.5t58.5 24.5t58.5 -24.5t23.5 -61.5q0 -35 -23.5 -59.5t-58.5 -24.5zM848 -41q-209 0 -375.5 98t-259 272.5t-92.5 393.5q0 166 54.5 309t149.5 243.5t230 158t291 57.5q291 0 538 -203l-16 -121h-6
q-238 215 -512 215q-176 0 -314.5 -83.5t-216 -233t-77.5 -338.5q0 -289 172 -474t440 -185q278 0 516 215h6l17 -119q-246 -205 -545 -205z" />
    <glyph glyph-name="cdotaccent" unicode="&#x10b;" horiz-adv-x="1032" 
d="M565 1210q-34 0 -58 24t-24 60q0 35 24 59.5t58 24.5q35 0 58.5 -24.5t23.5 -59.5q0 -37 -23.5 -60.5t-58.5 -23.5zM569 -41q-207 0 -335 146t-128 384t131 387.5t343 149.5q176 0 338 -117l-15 -106h-6q-83 68 -157 96.5t-158 28.5q-160 0 -263.5 -118.5t-103.5 -317.5
q0 -198 102 -317.5t256 -119.5q168 0 324 125h6l15 -104q-176 -117 -349 -117z" />
    <glyph glyph-name="Ccaron" unicode="&#x10c;" horiz-adv-x="1574" 
d="M897 1579h-123l-205 274l9 13h86l172 -232l172 232h86l8 -13zM848 -41q-209 0 -375.5 98t-259 272.5t-92.5 393.5q0 166 54.5 309t149.5 243.5t230 158t291 57.5q291 0 538 -203l-16 -121h-6q-238 215 -512 215q-176 0 -314.5 -83.5t-216 -233t-77.5 -338.5
q0 -289 172 -474t440 -185q278 0 516 215h6l17 -119q-246 -205 -545 -205z" />
    <glyph glyph-name="ccaron" unicode="&#x10d;" horiz-adv-x="1032" 
d="M391 1489l176 -262l172 262h86l9 -12l-209 -314h-115l-211 314l6 12h86zM569 -41q-207 0 -335 146t-128 384t131 387.5t343 149.5q176 0 338 -117l-15 -106h-6q-83 68 -157 96.5t-158 28.5q-160 0 -263.5 -118.5t-103.5 -317.5q0 -198 102 -317.5t256 -119.5
q168 0 324 125h6l15 -104q-176 -117 -349 -117z" />
    <glyph glyph-name="Dcaron" unicode="&#x10e;" horiz-adv-x="1540" 
d="M793 1579h-123l-205 274l8 13h86l172 -232l172 232h86l8 -13zM594 0h-367v1450h367q407 0 618 -183t211 -532q0 -352 -217.5 -543.5t-611.5 -191.5zM340 1346v-1242h231q732 0 732 633q0 308 -181.5 458.5t-548.5 150.5h-233z" />
    <glyph glyph-name="dcaron" unicode="&#x10f;" horiz-adv-x="1251" 
d="M895 909v596h104v-1505h-90l-8 129q-170 -170 -354 -170q-198 0 -317 146t-119 384q0 233 132.5 385t329.5 152q165 0 322 -117zM1184 1505h100l6 -8l-82 -369h-80zM565 55q167 0 330 166v596q-152 111 -305 111q-162 0 -266.5 -122t-104.5 -317q0 -198 93 -316t253 -118
z" />
    <glyph glyph-name="Dcroat" unicode="&#x110;" horiz-adv-x="1540" 
d="M227 1450h367q407 0 618 -183t211 -532q0 -352 -217.5 -543.5t-611.5 -191.5h-367v692h-149v103h149v655zM340 104h231q732 0 732 633q0 308 -181.5 458.5t-548.5 150.5h-233v-551h410v-103h-410v-588z" />
    <glyph glyph-name="dcroat" unicode="&#x111;" horiz-adv-x="1191" 
d="M999 1309h144v-88h-144v-1221h-90l-8 129q-170 -170 -354 -170q-198 0 -317 146t-119 384q0 233 132.5 385t329.5 152q165 0 322 -117v312h-365v88h365v196h104v-196zM565 55q167 0 330 166v596q-152 111 -305 111q-162 0 -266.5 -122t-104.5 -317q0 -198 93 -316
t253 -118z" />
    <glyph glyph-name="Emacron" unicode="&#x112;" horiz-adv-x="1189" 
d="M373 1749h520v-90h-520v90zM991 692h-651v-588h700l-14 -104h-799v1450h799l14 -104h-700v-551h651v-103z" />
    <glyph glyph-name="emacron" unicode="&#x113;" horiz-adv-x="1118" 
d="M307 1333h524v-90h-524v90zM1008 483h-793v-16q0 -187 104.5 -300.5t264.5 -113.5q200 0 350 125h6l12 -102q-171 -117 -372 -117q-215 0 -344.5 146t-129.5 384t129 387.5t336 149.5q200 0 319.5 -139t119.5 -375q0 -17 -2 -29zM571 932q-146 0 -242.5 -100t-111.5 -265
l682 -2q-6 171 -93.5 269t-234.5 98z" />
    <glyph glyph-name="Edotaccent" unicode="&#x116;" horiz-adv-x="1189" 
d="M633 1626q-35 0 -58.5 24.5t-23.5 59.5q0 37 23.5 61.5t58.5 24.5t58.5 -24.5t23.5 -61.5q0 -35 -23.5 -59.5t-58.5 -24.5zM991 692h-651v-588h700l-14 -104h-799v1450h799l14 -104h-700v-551h651v-103z" />
    <glyph glyph-name="edotaccent" unicode="&#x117;" horiz-adv-x="1118" 
d="M569 1210q-34 0 -58 24t-24 60q0 35 24 59.5t58 24.5q35 0 58.5 -24.5t23.5 -59.5q0 -37 -23.5 -60.5t-58.5 -23.5zM1008 483h-793v-16q0 -187 104.5 -300.5t264.5 -113.5q200 0 350 125h6l12 -102q-171 -117 -372 -117q-215 0 -344.5 146t-129.5 384t129 387.5
t336 149.5q200 0 319.5 -139t119.5 -375q0 -17 -2 -29zM571 932q-146 0 -242.5 -100t-111.5 -265l682 -2q-6 171 -93.5 269t-234.5 98z" />
    <glyph glyph-name="Eogonek" unicode="&#x118;" horiz-adv-x="1189" 
d="M1026 0h-76q-101 -89 -141.5 -151.5t-40.5 -122.5q0 -52 29.5 -80.5t85.5 -28.5q76 0 133 47h6l10 -74q-70 -49 -164 -49q-83 0 -133.5 46.5t-50.5 123.5q0 149 195 289h-652v1450h799l14 -104h-700v-551h651v-103h-651v-588h700z" />
    <glyph glyph-name="eogonek" unicode="&#x119;" horiz-adv-x="1118" 
d="M1008 483h-793v-16q0 -187 104.5 -300.5t264.5 -113.5q200 0 350 125h6l12 -102q-67 -47 -149 -78q-99 -87 -139.5 -149.5t-40.5 -122.5q0 -52 29 -80.5t85 -28.5q76 0 133 47h7l10 -74q-70 -49 -164 -49q-83 0 -133.5 46.5t-50.5 123.5q0 133 153 258q-62 -10 -112 -10
q-215 0 -344.5 146t-129.5 384t129 387.5t336 149.5q200 0 319.5 -139t119.5 -375q0 -17 -2 -29zM571 932q-146 0 -242.5 -100t-111.5 -265l682 -2q-6 171 -93.5 269t-234.5 98z" />
    <glyph glyph-name="Ecaron" unicode="&#x11a;" horiz-adv-x="1189" 
d="M899 1853l-205 -274h-123l-204 274l8 13h86l172 -232l172 232h86zM991 692h-651v-588h700l-14 -104h-799v1450h799l14 -104h-700v-551h651v-103z" />
    <glyph glyph-name="ecaron" unicode="&#x11b;" horiz-adv-x="1118" 
d="M836 1477l-209 -314h-115l-211 314l6 12h86l176 -262l172 262h86zM1008 483h-793v-16q0 -187 104.5 -300.5t264.5 -113.5q200 0 350 125h6l12 -102q-171 -117 -372 -117q-215 0 -344.5 146t-129.5 384t129 387.5t336 149.5q200 0 319.5 -139t119.5 -375q0 -17 -2 -29z
M571 932q-146 0 -242.5 -100t-111.5 -265l682 -2q-6 171 -93.5 269t-234.5 98z" />
    <glyph glyph-name="Gbreve" unicode="&#x11e;" horiz-adv-x="1650" 
d="M846 1581q-127 0 -205.5 68t-93.5 190l10 10h72q40 -184 217 -184q178 0 215 184h74l10 -10q-15 -122 -93.5 -190t-205.5 -68zM850 -41q-214 0 -381 99.5t-257.5 273t-90.5 391.5t94.5 393t266 275t388.5 100q300 0 568 -213l-17 -119h-6q-266 223 -543 223
q-185 0 -329.5 -86t-222.5 -235.5t-78 -335.5q0 -138 45.5 -259.5t125 -209t194 -138t247.5 -50.5q255 0 485 141v424h-460v104h567v-583q-149 -102 -294 -148.5t-302 -46.5z" />
    <glyph glyph-name="gbreve" unicode="&#x11f;" horiz-adv-x="1189" 
d="M606 1176q-122 0 -202 70t-95 188l13 12h71q37 -186 213 -186q177 0 211 186h74l10 -12q-14 -118 -93.5 -188t-201.5 -70zM903 903l6 82h90v-1018q0 -223 -108 -341t-313 -118q-217 0 -388 117l13 105h6q148 -125 364 -125q158 0 240 87.5t82 260.5v190
q-166 -163 -348 -163q-198 0 -317 144.5t-119 375.5q0 226 133 376t329 150q174 0 330 -123zM565 76q167 0 330 166v575q-152 111 -305 111q-162 0 -266.5 -120t-104.5 -308q0 -191 93 -307.5t253 -116.5z" />
    <glyph glyph-name="Gdotaccent" unicode="&#x120;" horiz-adv-x="1650" 
d="M844 1626q-35 0 -58.5 24.5t-23.5 59.5q0 37 23.5 61.5t58.5 24.5t58.5 -24.5t23.5 -61.5q0 -35 -23.5 -59.5t-58.5 -24.5zM850 -41q-214 0 -381 99.5t-257.5 273t-90.5 391.5t94.5 393t266 275t388.5 100q300 0 568 -213l-17 -119h-6q-266 223 -543 223
q-185 0 -329.5 -86t-222.5 -235.5t-78 -335.5q0 -138 45.5 -259.5t125 -209t194 -138t247.5 -50.5q255 0 485 141v424h-460v104h567v-583q-149 -102 -294 -148.5t-302 -46.5z" />
    <glyph glyph-name="gdotaccent" unicode="&#x121;" horiz-adv-x="1189" 
d="M604 1210q-34 0 -58 24t-24 60q0 35 24 59.5t58 24.5q35 0 58.5 -24.5t23.5 -59.5q0 -37 -23.5 -60.5t-58.5 -23.5zM903 903l6 82h90v-1018q0 -223 -108 -341t-313 -118q-217 0 -388 117l13 105h6q148 -125 364 -125q158 0 240 87.5t82 260.5v190q-166 -163 -348 -163
q-198 0 -317 144.5t-119 375.5q0 226 133 376t329 150q174 0 330 -123zM565 76q167 0 330 166v575q-152 111 -305 111q-162 0 -266.5 -120t-104.5 -308q0 -191 93 -307.5t253 -116.5z" />
    <glyph glyph-name="uni0122" unicode="&#x122;" horiz-adv-x="1650" 
d="M850 -41q-214 0 -381 99.5t-257.5 273t-90.5 391.5t94.5 393t266 275t388.5 100q300 0 568 -213l-17 -119h-6q-266 223 -543 223q-185 0 -329.5 -86t-222.5 -235.5t-78 -335.5q0 -138 45.5 -259.5t125 -209t194 -138t247.5 -50.5q255 0 485 141v424h-460v104h567v-583
q-149 -102 -294 -148.5t-302 -46.5zM836 -143h98l6 -9l-139 -368h-78z" />
    <glyph glyph-name="uni0123" unicode="&#x123;" horiz-adv-x="1189" 
d="M754 1536l-113 -377h-98l-4 8l137 369h78zM903 903l6 82h90v-1018q0 -223 -108 -341t-313 -118q-217 0 -388 117l13 105h6q148 -125 364 -125q158 0 240 87.5t82 260.5v190q-166 -163 -348 -163q-198 0 -317 144.5t-119 375.5q0 226 133 376t329 150q174 0 330 -123z
M565 76q167 0 330 166v575q-152 111 -305 111q-162 0 -266.5 -120t-104.5 -308q0 -191 93 -307.5t253 -116.5z" />
    <glyph glyph-name="Hbar" unicode="&#x126;" horiz-adv-x="1564" 
d="M1337 1450v-236h154v-88h-154v-1126h-112v684h-885v-684h-113v1126h-153v88h153v236h113v-236h885v236h112zM340 786h885v340h-885v-340z" />
    <glyph glyph-name="hbar" unicode="&#x127;" horiz-adv-x="1206" 
d="M702 1026q151 0 232.5 -101.5t81.5 -291.5v-633h-105v592q0 171 -58 253.5t-177 82.5q-98 0 -195 -61.5t-184 -172.5v-694h-104v1221h-146v88h146v196h104v-196h362v-88h-362v-422q185 227 405 227z" />
    <glyph glyph-name="Imacron" unicode="&#x12a;" horiz-adv-x="567" 
d="M545 1659h-520v90h520v-90zM227 0v1450h113v-1450h-113z" />
    <glyph glyph-name="imacron" unicode="&#x12b;" horiz-adv-x="487" 
d="M506 1243h-524v90h524v-90zM297 0h-104v985h104v-985z" />
    <glyph glyph-name="Iogonek" unicode="&#x12e;" horiz-adv-x="567" 
d="M391 -336h6l11 -74q-70 -49 -164 -49q-83 0 -134 46.5t-51 123.5q0 149 195 289h-27v1450h113v-1450h-14q-101 -89 -142 -151.5t-41 -122.5q0 -52 29.5 -80.5t85.5 -28.5q76 0 133 47z" />
    <glyph glyph-name="iogonek" unicode="&#x12f;" horiz-adv-x="487" 
d="M244 1225q-36 0 -60 24t-24 60q0 35 24.5 59.5t59.5 24.5t58.5 -24.5t23.5 -59.5t-23.5 -59.5t-58.5 -24.5zM346 -336h8l11 -74q-73 -49 -166 -49q-83 0 -134 46.5t-51 123.5q0 149 195 289h-16v985h104v-985h-14q-102 -89 -143.5 -151.5t-41.5 -122.5q0 -51 30 -80
t85 -29q76 0 133 47z" />
    <glyph glyph-name="Idotaccent" unicode="&#x130;" horiz-adv-x="567" 
d="M285 1628q-35 0 -58.5 23.5t-23.5 60.5q0 35 23.5 59.5t58.5 24.5q34 0 58 -25t24 -61q0 -35 -24 -58.5t-58 -23.5zM227 0v1450h113v-1450h-113z" />
    <glyph glyph-name="dotlessi" unicode="&#x131;" horiz-adv-x="487" 
d="M297 0h-104v985h104v-985z" />
    <glyph glyph-name="uni0136" unicode="&#x136;" horiz-adv-x="1292" 
d="M1233 1444l-543 -606l590 -832l-4 -6h-133l-529 754l-274 -308v-446h-113v1450h113v-465q0 -65 -1 -191t-1 -192h2q25 26 281 316l475 532h135zM547 -520l112 377h99l6 -9l-139 -368h-78z" />
    <glyph glyph-name="uni0137" unicode="&#x137;" horiz-adv-x="1011" 
d="M297 0h-104v1505h104v-432q0 -395 -2 -594l4 -2q100 106 287 297l202 211h130l4 -6l-371 -369l438 -604l-4 -6h-119l-387 541l-182 -183v-358zM502 -143h98l6 -9l-139 -368h-78z" />
    <glyph glyph-name="kgreenlandic" unicode="&#x138;" horiz-adv-x="1011" 
d="M297 0h-104v985h104v-49q0 -281 -2 -459h4q100 106 287 297l202 211h130l4 -6l-371 -369l438 -604l-4 -6h-119l-387 541l-182 -183v-358z" />
    <glyph glyph-name="Lacute" unicode="&#x139;" horiz-adv-x="1071" 
d="M315 1579h-94l197 274h117l6 -10zM227 0v1450h113v-1346h707l-15 -104h-805z" />
    <glyph glyph-name="lacute" unicode="&#x13a;" horiz-adv-x="487" 
d="M279 1634h-95l197 275h117l6 -11zM297 0h-104v1505h104v-1505z" />
    <glyph glyph-name="uni013B" unicode="&#x13b;" horiz-adv-x="1071" 
d="M227 0v1450h113v-1346h707l-15 -104h-805zM602 -143h98l7 -9l-140 -368h-78z" />
    <glyph glyph-name="uni013C" unicode="&#x13c;" horiz-adv-x="487" 
d="M297 0h-104v1505h104v-1505zM184 -143h99l6 -9l-139 -368h-78z" />
    <glyph glyph-name="Lcaron" unicode="&#x13d;" horiz-adv-x="1071" 
d="M227 0v1450h113v-1346h707l-15 -104h-805zM621 1073h-80l55 377h100l6 -10z" />
    <glyph glyph-name="lcaron" unicode="&#x13e;" horiz-adv-x="546" 
d="M297 0h-104v1505h104v-1505zM504 1128h-80l55 377h103l4 -10z" />
    <glyph glyph-name="Lslash" unicode="&#x141;" horiz-adv-x="1071" 
d="M340 696v-592h707l-15 -104h-805v633l-211 -117v102l211 117v715h113v-651l334 184v-102z" />
    <glyph glyph-name="lslash" unicode="&#x142;" horiz-adv-x="499" 
d="M303 973l170 104l-2 -92l-168 -104v-881h-104v817l-166 -102v94l166 100v596h104v-532z" />
    <glyph glyph-name="Nacute" unicode="&#x143;" horiz-adv-x="1628" 
d="M874 1579h-94l197 274h117l6 -10zM338 0h-111v1450h92l701 -885q156 -196 268 -334h2v373v846h111v-1477h-41l-750 945q-17 21 -268 331h-4q1 -52 1 -111t-0.5 -136t-0.5 -123v-879z" />
    <glyph glyph-name="nacute" unicode="&#x144;" horiz-adv-x="1206" 
d="M877 1489l6 -10l-236 -316h-90l205 326h115zM702 1026q151 0 232.5 -101.5t81.5 -291.5v-633h-105v592q0 171 -58 253.5t-177 82.5q-98 0 -195 -61.5t-184 -172.5v-694h-104v985h92l4 -194q190 235 413 235z" />
    <glyph glyph-name="uni0145" unicode="&#x145;" horiz-adv-x="1628" 
d="M338 0h-111v1450h92l701 -885q156 -196 268 -334h2v373v846h111v-1477h-41l-750 945q-17 21 -268 331h-4q1 -52 1 -111t-0.5 -136t-0.5 -123v-879zM823 -143h99l6 -9l-140 -368h-77z" />
    <glyph glyph-name="uni0146" unicode="&#x146;" horiz-adv-x="1206" 
d="M702 1026q151 0 232.5 -101.5t81.5 -291.5v-633h-105v592q0 171 -58 253.5t-177 82.5q-98 0 -195 -61.5t-184 -172.5v-694h-104v985h92l4 -194q190 235 413 235zM479 -520l113 377h98l6 -9l-139 -368h-78z" />
    <glyph glyph-name="Ncaron" unicode="&#x147;" horiz-adv-x="1628" 
d="M901 1579h-123l-205 274l9 13h86l172 -232l172 232h86l8 -13zM338 0h-111v1450h92l701 -885q156 -196 268 -334h2v373v846h111v-1477h-41l-750 945q-17 21 -268 331h-4q1 -52 1 -111t-0.5 -136t-0.5 -123v-879z" />
    <glyph glyph-name="ncaron" unicode="&#x148;" horiz-adv-x="1206" 
d="M883 1477l-209 -314h-115l-211 314l6 12h86l176 -262l172 262h86zM702 1026q151 0 232.5 -101.5t81.5 -291.5v-633h-105v592q0 171 -58 253.5t-177 82.5q-98 0 -195 -61.5t-184 -172.5v-694h-104v985h92l4 -194q190 235 413 235z" />
    <glyph glyph-name="Eng" unicode="&#x14a;" horiz-adv-x="1628" 
d="M1290 612v838h111v-1552q0 -108 -26 -183.5t-74 -123t-127 -83.5l-54 80l2 11q85 41 125.5 106t40.5 189v180l-676 846l-268 329h-6v-368v-881h-111v1450h95l698 -877q176 -218 264 -329h6v368z" />
    <glyph glyph-name="eng" unicode="&#x14b;" horiz-adv-x="1206" 
d="M702 1026q151 0 232.5 -101.5t81.5 -291.5v-746q0 -154 -51 -238.5t-158 -140.5l-51 72l2 10q78 40 115.5 103t37.5 184v715q0 172 -57.5 254t-177.5 82q-98 0 -196 -62.5t-183 -173.5v-692h-104v985h92l4 -194q193 235 413 235z" />
    <glyph glyph-name="Omacron" unicode="&#x14c;" horiz-adv-x="1695" 
d="M1108 1659h-520v90h520v-90zM848 -41q-216 0 -383 101.5t-255.5 275t-88.5 389.5q0 161 51 301t143.5 243t230 162.5t302.5 59.5t303 -59.5t230 -162.5t143 -243t51 -301t-51.5 -301.5t-144.5 -243.5t-230.5 -162t-300.5 -59zM848 68q137 0 251.5 51t192 139.5t120 209
t42.5 257.5q0 186 -72.5 334.5t-211.5 235.5t-322 87q-137 0 -251.5 -50.5t-192 -138.5t-120 -208.5t-42.5 -259.5q0 -184 73 -332.5t212.5 -236.5t320.5 -88z" />
    <glyph glyph-name="omacron" unicode="&#x14d;" horiz-adv-x="1212" 
d="M870 1243h-524v90h524v-90zM606 -41q-225 0 -362.5 150.5t-137.5 382.5q0 231 137.5 382.5t362.5 151.5t362.5 -151.5t137.5 -382.5q0 -232 -137.5 -382.5t-362.5 -150.5zM606 57q175 0 282 122.5t107 312.5t-106 313t-283 123t-284 -123t-107 -313t107.5 -312.5
t283.5 -122.5z" />
    <glyph glyph-name="Ohungarumlaut" unicode="&#x150;" horiz-adv-x="1695" 
d="M707 1579h-93l195 274h117l6 -10zM993 1579h-92l197 274h116l7 -10zM848 -41q-216 0 -383 101.5t-255.5 275t-88.5 389.5q0 161 51 301t143.5 243t230 162.5t302.5 59.5t303 -59.5t230 -162.5t143 -243t51 -301t-51.5 -301.5t-144.5 -243.5t-230.5 -162t-300.5 -59z
M848 68q137 0 251.5 51t192 139.5t120 209t42.5 257.5q0 186 -72.5 334.5t-211.5 235.5t-322 87q-137 0 -251.5 -50.5t-192 -138.5t-120 -208.5t-42.5 -259.5q0 -184 73 -332.5t212.5 -236.5t320.5 -88z" />
    <glyph glyph-name="ohungarumlaut" unicode="&#x151;" horiz-adv-x="1212" 
d="M504 1163h-88l202 326h117l6 -10zM801 1163h-88l202 326h115l6 -10zM606 -41q-225 0 -362.5 150.5t-137.5 382.5q0 231 137.5 382.5t362.5 151.5t362.5 -151.5t137.5 -382.5q0 -232 -137.5 -382.5t-362.5 -150.5zM606 57q175 0 282 122.5t107 312.5t-106 313t-283 123
t-284 -123t-107 -313t107.5 -312.5t283.5 -122.5z" />
    <glyph glyph-name="OE" unicode="&#x152;" horiz-adv-x="2056" 
d="M1858 692h-652v-588h701l-15 -104h-772q-131 -41 -256 -41q-168 0 -308.5 59t-235 162t-147 243.5t-52.5 301.5t51.5 301t145.5 243t235 162.5t311 59.5q138 0 256 -41h772l15 -104h-701v-551h652v-103zM242 725q0 -137 43.5 -257.5t122.5 -209t197 -139.5t259 -51
q124 0 230 41v1232q-106 41 -230 41q-142 0 -260 -50.5t-196.5 -139t-122 -208.5t-43.5 -259z" />
    <glyph glyph-name="oe" unicode="&#x153;" horiz-adv-x="1980" 
d="M594 -41q-218 0 -353 150.5t-135 382.5q0 231 135 382.5t353 151.5q150 0 261.5 -80t166.5 -221h4q50 143 157 222t253 79q200 0 318 -139t118 -375v-29h-793v-16q0 -187 103.5 -300.5t263.5 -113.5q200 0 350 125h6l13 -102q-171 -117 -375 -117q-152 0 -261.5 78
t-158.5 223h-4q-55 -142 -164.5 -221.5t-257.5 -79.5zM1081 567l682 -2q-6 171 -94 269t-233 98q-147 0 -244 -100t-111 -265zM594 55q171 0 276 123t105 314t-104.5 314.5t-276.5 123.5t-275.5 -123.5t-103.5 -314.5q0 -192 104 -314.5t275 -122.5z" />
    <glyph glyph-name="Racute" unicode="&#x154;" horiz-adv-x="1247" 
d="M860 1853l6 -10l-225 -264h-94l196 274h117zM752 653l454 -635l-8 -18h-117l-448 635h-293v-635h-113v1450h369q236 0 359.5 -104.5t123.5 -305.5q0 -152 -84 -252.5t-243 -134.5zM340 1348v-611h250q373 0 373 303q0 156 -96 232t-296 76h-231z" />
    <glyph glyph-name="racute" unicode="&#x155;" horiz-adv-x="741" 
d="M694 1489l6 -10l-235 -316h-90l205 326h114zM692 1020q9 0 25 -4l-10 -111l-9 -4q-10 2 -32 2q-207 0 -369 -262v-641h-104v985h92l6 -240q181 275 401 275z" />
    <glyph glyph-name="uni0156" unicode="&#x156;" horiz-adv-x="1247" 
d="M752 653l454 -635l-8 -18h-117l-448 635h-293v-635h-113v1450h369q236 0 359.5 -104.5t123.5 -305.5q0 -152 -84 -252.5t-243 -134.5zM340 1348v-611h250q373 0 373 303q0 156 -96 232t-296 76h-231zM524 -520l113 377h98l6 -9l-139 -368h-78z" />
    <glyph glyph-name="uni0157" unicode="&#x157;" horiz-adv-x="741" 
d="M692 1020q9 0 25 -4l-10 -111l-9 -4q-10 2 -32 2q-207 0 -369 -262v-641h-104v985h92l6 -240q181 275 401 275zM72 -520l112 377h99l6 -9l-139 -368h-78z" />
    <glyph glyph-name="Rcaron" unicode="&#x158;" horiz-adv-x="1247" 
d="M872 1853l-204 -274h-123l-205 274l8 13h86l172 -232l172 232h86zM752 653l454 -635l-8 -18h-117l-448 635h-293v-635h-113v1450h369q236 0 359.5 -104.5t123.5 -305.5q0 -152 -84 -252.5t-243 -134.5zM340 1348v-611h250q373 0 373 303q0 156 -96 232t-296 76h-231z" />
    <glyph glyph-name="rcaron" unicode="&#x159;" horiz-adv-x="741" 
d="M700 1477l-208 -314h-115l-211 314l6 12h86l176 -262l172 262h86zM692 1020q9 0 25 -4l-10 -111l-9 -4q-10 2 -32 2q-207 0 -369 -262v-641h-104v985h92l6 -240q181 275 401 275z" />
    <glyph glyph-name="Sacute" unicode="&#x15a;" horiz-adv-x="1122" 
d="M588 1579h-94l196 274h117l6 -10zM547 -41q-232 0 -436 147l18 117h6q212 -162 414 -162q151 0 243.5 83t92.5 204q0 57 -16 101t-56.5 89.5t-111.5 89t-181 93.5q-215 96 -300 191.5t-85 234.5q0 150 113 247t297 97q202 0 385 -111l-15 -114h-6q-181 125 -368 125
q-127 0 -207 -69t-80 -171q0 -105 69 -172.5t279 -169.5q119 -56 196.5 -107.5t123.5 -107t64 -111.5t18 -129q0 -170 -126.5 -282.5t-330.5 -112.5z" />
    <glyph glyph-name="sacute" unicode="&#x15b;" horiz-adv-x="878" 
d="M467 1163h-90l205 326h114l6 -10zM436 -41q-176 0 -336 107l13 104h6q86 -65 161 -92t158 -27q103 0 166.5 48.5t63.5 127.5q0 74 -49.5 124.5t-186.5 107.5q-127 51 -196 100.5t-94 99t-25 119.5q0 105 84.5 176.5t220.5 71.5q159 0 313 -96l-14 -103h-6
q-147 107 -295 107q-89 0 -143 -44.5t-54 -113.5q0 -46 18.5 -78t74.5 -69t163 -84q167 -72 231 -140.5t64 -175.5q0 -119 -93.5 -194.5t-244.5 -75.5z" />
    <glyph glyph-name="Scedilla" unicode="&#x15e;" horiz-adv-x="1122" 
d="M1004 354q0 -155 -106.5 -263.5t-283.5 -127.5l-61 -129q50 12 82 12q62 0 102.5 -40t40.5 -103q0 -86 -60.5 -136t-166.5 -50q-103 0 -189 45l13 73h8q79 -47 170 -47q65 0 103 31.5t38 79.5q0 43 -28 67.5t-82 24.5q-67 0 -135 -37l-7 8l93 197q-226 5 -424 147l18 117
h6q212 -162 414 -162q151 0 243.5 83t92.5 204q0 57 -16 101t-56.5 89.5t-111.5 89t-181 93.5q-215 96 -300 191.5t-85 234.5q0 150 113 247t297 97q202 0 385 -111l-15 -114h-6q-181 125 -368 125q-127 0 -207 -69t-80 -171q0 -105 69 -172.5t279 -169.5
q119 -56 196.5 -107.5t123.5 -107t64 -111.5t18 -129z" />
    <glyph glyph-name="scedilla" unicode="&#x15f;" horiz-adv-x="878" 
d="M774 229q0 -109 -79.5 -182.5t-211.5 -85.5l-59 -127q50 12 82 12q62 0 102.5 -40t40.5 -103q0 -86 -60.5 -136t-166.5 -50q-103 0 -189 45l13 73h8q79 -47 170 -47q65 0 103 31.5t38 79.5q0 43 -28 67.5t-82 24.5q-68 0 -136 -37l-6 8l93 197q-162 9 -306 107l13 104h6
q86 -65 161 -92t158 -27q103 0 166.5 48.5t63.5 127.5q0 74 -49.5 124.5t-186.5 107.5q-127 51 -196 100.5t-94 99t-25 119.5q0 105 84.5 176.5t220.5 71.5q159 0 313 -96l-14 -103h-6q-147 107 -295 107q-89 0 -143 -44.5t-54 -113.5q0 -46 18.5 -78t74.5 -69t163 -84
q167 -72 231 -140.5t64 -175.5z" />
    <glyph glyph-name="Scaron" unicode="&#x160;" horiz-adv-x="1122" 
d="M614 1579h-122l-205 274l8 13h86l172 -232l172 232h86l8 -13zM547 -41q-232 0 -436 147l18 117h6q212 -162 414 -162q151 0 243.5 83t92.5 204q0 57 -16 101t-56.5 89.5t-111.5 89t-181 93.5q-215 96 -300 191.5t-85 234.5q0 150 113 247t297 97q202 0 385 -111l-15 -114
h-6q-181 125 -368 125q-127 0 -207 -69t-80 -171q0 -105 69 -172.5t279 -169.5q119 -56 196.5 -107.5t123.5 -107t64 -111.5t18 -129q0 -170 -126.5 -282.5t-330.5 -112.5z" />
    <glyph glyph-name="scaron" unicode="&#x161;" horiz-adv-x="878" 
d="M260 1489l176 -262l172 262h86l8 -12l-208 -314h-115l-211 314l6 12h86zM436 -41q-176 0 -336 107l13 104h6q86 -65 161 -92t158 -27q103 0 166.5 48.5t63.5 127.5q0 74 -49.5 124.5t-186.5 107.5q-127 51 -196 100.5t-94 99t-25 119.5q0 105 84.5 176.5t220.5 71.5
q159 0 313 -96l-14 -103h-6q-147 107 -295 107q-89 0 -143 -44.5t-54 -113.5q0 -46 18.5 -78t74.5 -69t163 -84q167 -72 231 -140.5t64 -175.5q0 -119 -93.5 -194.5t-244.5 -75.5z" />
    <glyph glyph-name="uni0162" unicode="&#x162;" horiz-adv-x="1187" 
d="M649 1346v-1346h-8l-80 -166q50 12 82 12q62 0 102.5 -40t40.5 -103q0 -86 -60.5 -136t-166.5 -50q-102 0 -188 45l12 73h8q79 -47 170 -47q65 0 103 31.5t38 79.5q0 43 -28 67.5t-82 24.5q-67 0 -135 -37l-6 8l108 238h-20v1346h-514v104h1136v-104h-512z" />
    <glyph glyph-name="uni0163" unicode="&#x163;" horiz-adv-x="731" 
d="M479 -154q62 0 103 -40t41 -103q0 -86 -61 -136t-167 -50q-105 0 -188 45l12 73h6q83 -47 172 -47q65 0 102.5 31.5t37.5 79.5q0 43 -27.5 67.5t-81.5 24.5q-70 0 -135 -37l-6 8l96 209q-158 49 -158 283v639h-188v92h190v281l86 53h17v-334h321v-92h-321v-629
q0 -115 37.5 -161t124.5 -46q71 0 151 37l10 -4l6 -94q-94 -37 -182 -37h-20l-60 -125q50 12 82 12z" />
    <glyph glyph-name="Tcaron" unicode="&#x164;" horiz-adv-x="1187" 
d="M860 1853l-205 -274h-123l-204 274l8 13h86l172 -232l172 232h86zM25 1450h1136v-104h-512v-1346h-110v1346h-514v104z" />
    <glyph glyph-name="tcaron" unicode="&#x165;" horiz-adv-x="731" 
d="M563 1159h-80l56 377h100l6 -10zM477 -41q-252 0 -252 295v639h-188v92h190v281l86 53h17v-334h321v-92h-321v-629q0 -115 37.5 -161t124.5 -46q71 0 151 37l10 -4l6 -94q-94 -37 -182 -37z" />
    <glyph glyph-name="Tbar" unicode="&#x166;" horiz-adv-x="1187" 
d="M1161 1450v-104h-512v-558h281v-88h-281v-700h-110v700h-279v88h279v558h-514v104h1136z" />
    <glyph glyph-name="tbar" unicode="&#x167;" horiz-adv-x="731" 
d="M643 94l10 -4l6 -94q-94 -37 -182 -37q-252 0 -252 295v311h-186v74h186v254h-188v92h190v281l86 53h17v-334h321v-92h-321v-254h284v-74h-284v-301q0 -115 37.5 -161t124.5 -46q71 0 151 37z" />
    <glyph glyph-name="Umacron" unicode="&#x16a;" horiz-adv-x="1525" 
d="M1024 1659h-520v90h520v-90zM764 -41q-551 0 -551 612v879h113v-870q0 -258 108.5 -386t329.5 -128t328.5 128t107.5 388v868h113v-877q0 -300 -139 -457t-410 -157z" />
    <glyph glyph-name="umacron" unicode="&#x16b;" horiz-adv-x="1187" 
d="M330 1333h524v-90h-524v90zM893 322v663h104v-985h-94l-6 221q-86 -126 -189 -194t-212 -68q-144 0 -223.5 102t-79.5 297v627h104v-594q0 -334 223 -334q99 0 195 71t178 194z" />
    <glyph glyph-name="Uring" unicode="&#x16e;" horiz-adv-x="1525" 
d="M764 1550q-84 0 -141.5 56.5t-57.5 140.5q0 83 57.5 139t141.5 56q81 0 139 -56.5t58 -138.5q0 -84 -58 -140.5t-139 -56.5zM764 1614q55 0 93 38.5t38 94.5q0 55 -37.5 93t-93.5 38q-57 0 -95 -37.5t-38 -93.5t38 -94.5t95 -38.5zM764 -41q-551 0 -551 612v879h113v-870
q0 -258 108.5 -386t329.5 -128t328.5 128t107.5 388v868h113v-877q0 -300 -139 -457t-410 -157z" />
    <glyph glyph-name="uring" unicode="&#x16f;" horiz-adv-x="1187" 
d="M594 1139q-84 0 -141.5 55.5t-57.5 140.5q0 84 57.5 139.5t141.5 55.5q83 0 140 -55.5t57 -139.5q0 -85 -57 -140.5t-140 -55.5zM594 1466q-58 0 -95.5 -37t-37.5 -94t37.5 -95t95.5 -38q57 0 94 38t37 95t-37 94t-94 37zM893 322v663h104v-985h-94l-6 221
q-86 -126 -189 -194t-212 -68q-144 0 -223.5 102t-79.5 297v627h104v-594q0 -334 223 -334q99 0 195 71t178 194z" />
    <glyph glyph-name="Uhungarumlaut" unicode="&#x170;" horiz-adv-x="1525" 
d="M623 1579h-93l195 274h117l6 -10zM909 1579h-92l197 274h116l7 -10zM764 -41q-551 0 -551 612v879h113v-870q0 -258 108.5 -386t329.5 -128t328.5 128t107.5 388v868h113v-877q0 -300 -139 -457t-410 -157z" />
    <glyph glyph-name="uhungarumlaut" unicode="&#x171;" horiz-adv-x="1187" 
d="M719 1489l6 -10l-238 -316h-88l203 326h117zM1020 1479l-236 -316h-88l203 326h115zM893 322v663h104v-985h-94l-6 221q-86 -126 -189 -194t-212 -68q-144 0 -223.5 102t-79.5 297v627h104v-594q0 -334 223 -334q99 0 195 71t178 194z" />
    <glyph glyph-name="Uogonek" unicode="&#x172;" horiz-adv-x="1525" 
d="M1200 582v868h113v-877q0 -454 -312 -575q-99 -87 -139.5 -149.5t-40.5 -122.5q0 -52 29.5 -80.5t85.5 -28.5q76 0 133 47h6l10 -74q-70 -49 -163 -49q-83 0 -134 46.5t-51 123.5q0 132 154 258q-65 -10 -127 -10q-551 0 -551 612v879h113v-870q0 -258 108.5 -386
t329.5 -128t328.5 128t107.5 388z" />
    <glyph glyph-name="uogonek" unicode="&#x173;" horiz-adv-x="1187" 
d="M1053 -336h6l10 -74q-70 -49 -164 -49q-83 0 -133.5 46.5t-50.5 123.5q0 150 194 289h-12l-6 221q-86 -126 -189 -194t-212 -68q-144 0 -223.5 102t-79.5 297v627h104v-594q0 -334 223 -334q99 0 195 71t178 194v663h104v-985h-10q-101 -89 -141.5 -151.5t-40.5 -122.5
q0 -52 29.5 -80.5t85.5 -28.5q76 0 133 47z" />
    <glyph glyph-name="Wcircumflex" unicode="&#x174;" horiz-adv-x="1957" 
d="M807 1579h-86l-8 12l205 275h122l205 -275l-8 -12h-86l-172 231zM49 1450h117l246 -795l141 -456h4q10 30 63 200t82 256l256 779h43l254 -777q25 -75 74.5 -229t73.5 -229h2q25 85 74.5 243.5t66.5 212.5l246 795h117l4 -6l-463 -1471h-78l-272 834q-35 106 -117 375h-4
q-17 -51 -57.5 -180.5t-61.5 -194.5l-274 -834h-78l-463 1471z" />
    <glyph glyph-name="wcircumflex" unicode="&#x175;" horiz-adv-x="1458" 
d="M901 1163l-172 260l-176 -260h-86l-6 13l211 313h114l209 -313l-8 -13h-86zM63 985h109l109 -340q144 -453 153 -481h4q30 93 86 255.5t76 223.5l111 330h41l108 -328q19 -58 75.5 -222.5t86.5 -258.5h4q28 92 81 254t73 227l108 340h107l4 -6l-340 -1008h-53l-150 432
q-64 183 -125 375h-4q-56 -186 -123 -377l-149 -430h-54l-342 1008z" />
    <glyph glyph-name="Ycircumflex" unicode="&#x176;" horiz-adv-x="1169" 
d="M414 1579h-86l-9 12l205 275h123l205 -275l-8 -12h-86l-172 231zM27 1450h120l244 -418q38 -64 105 -180.5t88 -151.5h2l192 332l242 418h123l2 -6l-504 -842v-602h-113v602l-505 842z" />
    <glyph glyph-name="ycircumflex" unicode="&#x177;" horiz-adv-x="978" 
d="M668 1163l-172 260l-177 -260h-86l-6 13l211 313h115l209 -313l-8 -13h-86zM51 985h113l125 -317q91 -228 200 -518h5l211 514l133 321h112l4 -6l-618 -1430h-109v7l209 471l-389 952z" />
    <glyph glyph-name="Ydieresis" unicode="&#x178;" horiz-adv-x="1169" 
d="M412 1628q-34 0 -57 23.5t-23 58.5t23.5 59.5t56.5 24.5q34 0 57 -24.5t23 -59.5t-22.5 -58.5t-57.5 -23.5zM758 1628q-34 0 -57 23.5t-23 58.5t23.5 59.5t56.5 24.5q34 0 57 -24.5t23 -59.5t-22.5 -58.5t-57.5 -23.5zM27 1450h120l244 -418q38 -64 105 -180.5t88 -151.5
h2l192 332l242 418h123l2 -6l-504 -842v-602h-113v602l-505 842z" />
    <glyph glyph-name="Zacute" unicode="&#x179;" horiz-adv-x="1249" 
d="M682 1579h-94l196 274h117l6 -10zM66 23l927 1323h-874v104h1061l4 -23l-928 -1321h893v-106h-1079z" />
    <glyph glyph-name="zacute" unicode="&#x17a;" horiz-adv-x="942" 
d="M504 1163h-90l204 326h115l6 -10zM874 0h-802l-4 23l632 866h-612v96h782l4 -22l-634 -869h634v-94z" />
    <glyph glyph-name="Zdotaccent" unicode="&#x17b;" horiz-adv-x="1249" 
d="M647 1626q-35 0 -58.5 24.5t-23.5 59.5q0 37 23.5 61.5t58.5 24.5t58.5 -24.5t23.5 -61.5q0 -35 -23.5 -59.5t-58.5 -24.5zM66 23l927 1323h-874v104h1061l4 -23l-928 -1321h893v-106h-1079z" />
    <glyph glyph-name="zdotaccent" unicode="&#x17c;" horiz-adv-x="942" 
d="M471 1210q-34 0 -58 24t-24 60q0 35 24 59.5t58 24.5q35 0 58.5 -24.5t23.5 -59.5q0 -37 -23.5 -60.5t-58.5 -23.5zM874 0h-802l-4 23l632 866h-612v96h782l4 -22l-634 -869h634v-94z" />
    <glyph glyph-name="Zcaron" unicode="&#x17d;" horiz-adv-x="1249" 
d="M709 1579h-123l-205 274l8 13h86l172 -232l172 232h86l8 -13zM66 23l927 1323h-874v104h1061l4 -23l-928 -1321h893v-106h-1079z" />
    <glyph glyph-name="zcaron" unicode="&#x17e;" horiz-adv-x="942" 
d="M297 1489l176 -262l172 262h86l8 -12l-209 -314h-114l-211 314l6 12h86zM874 0h-802l-4 23l632 866h-612v96h782l4 -22l-634 -869h634v-94z" />
    <glyph glyph-name="florin" unicode="&#x192;" horiz-adv-x="872" 
d="M700 1489q67 0 140 -27l-21 -94l-12 -4q-56 27 -107 27q-79 0 -124 -63.5t-66 -213.5l-35 -252h256l-14 -90h-254l-101 -711q-29 -207 -97.5 -292.5t-198.5 -85.5q-70 0 -140 26l21 94l12 4q54 -26 107 -26q79 0 124 63t66 213l100 715h-178l12 90h179l34 248
q29 207 98 293t199 86z" />
    <glyph glyph-name="uni0218" unicode="&#x218;" horiz-adv-x="1122" 
d="M547 -41q-232 0 -436 147l18 117h6q212 -162 414 -162q151 0 243.5 83t92.5 204q0 57 -16 101t-56.5 89.5t-111.5 89t-181 93.5q-215 96 -300 191.5t-85 234.5q0 150 113 247t297 97q202 0 385 -111l-15 -114h-6q-181 125 -368 125q-127 0 -207 -69t-80 -171
q0 -105 69 -172.5t279 -169.5q119 -56 196.5 -107.5t123.5 -107t64 -111.5t18 -129q0 -170 -126.5 -282.5t-330.5 -112.5zM551 -143h98l6 -9l-139 -368h-78z" />
    <glyph glyph-name="uni0219" unicode="&#x219;" horiz-adv-x="878" 
d="M436 -41q-176 0 -336 107l13 104h6q86 -65 161 -92t158 -27q103 0 166.5 48.5t63.5 127.5q0 74 -49.5 124.5t-186.5 107.5q-127 51 -196 100.5t-94 99t-25 119.5q0 105 84.5 176.5t220.5 71.5q159 0 313 -96l-14 -103h-6q-147 107 -295 107q-89 0 -143 -44.5t-54 -113.5
q0 -46 18.5 -78t74.5 -69t163 -84q167 -72 231 -140.5t64 -175.5q0 -119 -93.5 -194.5t-244.5 -75.5zM420 -143h98l6 -9l-139 -368h-78z" />
    <glyph glyph-name="uni021A" unicode="&#x21a;" horiz-adv-x="1187" 
d="M25 1450h1136v-104h-512v-1346h-110v1346h-514v104zM430 -520l113 377h98l6 -9l-139 -368h-78z" />
    <glyph glyph-name="uni021B" unicode="&#x21b;" horiz-adv-x="731" 
d="M477 -41q-252 0 -252 295v639h-188v92h190v281l86 53h17v-334h321v-92h-321v-629q0 -115 37.5 -161t124.5 -46q71 0 151 37l10 -4l6 -94q-94 -37 -182 -37zM399 -143h99l6 -9l-139 -368h-78z" />
    <glyph glyph-name="uni0237" unicode="&#x237;" horiz-adv-x="487" 
d="M86 -492l-49 72l2 10q51 27 82.5 58.5t51.5 88.5t20 140v1108h104v-1098q0 -155 -51 -239t-160 -140z" />
    <glyph glyph-name="uni02BC" unicode="&#x2bc;" horiz-adv-x="411" 
d="M190 1505h99l6 -10l-139 -367h-78z" />
    <glyph glyph-name="circumflex" unicode="&#x2c6;" horiz-adv-x="655" 
d="M502 1163l-174 260l-174 -260h-86l-9 13l211 313h115l211 -313l-8 -13h-86z" />
    <glyph glyph-name="caron" unicode="&#x2c7;" horiz-adv-x="655" 
d="M154 1489l174 -262l174 262h86l8 -12l-211 -314h-115l-211 314l9 12h86z" />
    <glyph glyph-name="breve" unicode="&#x2d8;" horiz-adv-x="727" 
d="M362 1176q-122 0 -200.5 70t-93.5 188l10 12h74q37 -186 210 -186q176 0 213 186h74l10 -12q-15 -118 -94.5 -188t-202.5 -70z" />
    <glyph glyph-name="dotaccent" unicode="&#x2d9;" horiz-adv-x="286" 
d="M143 1210q-34 0 -58 24t-24 60q0 35 24 59.5t58 24.5q35 0 58.5 -24.5t23.5 -59.5q0 -37 -23.5 -60.5t-58.5 -23.5z" />
    <glyph glyph-name="ring" unicode="&#x2da;" horiz-adv-x="518" 
d="M260 1139q-84 0 -141.5 55.5t-57.5 140.5q0 84 57.5 139.5t141.5 55.5q83 0 140 -55.5t57 -139.5q0 -85 -57 -140.5t-140 -55.5zM260 1202q57 0 94 38t37 95t-37 94t-94 37q-58 0 -95.5 -37t-37.5 -94t37.5 -95t95.5 -38z" />
    <glyph glyph-name="ogonek" unicode="&#x2db;" horiz-adv-x="481" 
d="M246 -459q-83 0 -134 46.5t-51 123.5q0 149 195 289h72q-101 -89 -142 -151.5t-41 -122.5q0 -52 29.5 -80.5t85.5 -28.5q76 0 133 47h6l11 -74q-70 -49 -164 -49z" />
    <glyph glyph-name="tilde" unicode="&#x2dc;" horiz-adv-x="710" 
d="M145 1210h-75q14 85 56.5 137t100.5 52q41 0 87.5 -27t88.5 -54t72 -26q32 1 50 24t30 75l8 8h74q-11 -85 -53.5 -137.5t-102.5 -53.5q-42 -1 -87.5 26t-86 54t-71.5 27q-32 0 -50.5 -23t-29.5 -73z" />
    <glyph glyph-name="hungarumlaut" unicode="&#x2dd;" horiz-adv-x="743" 
d="M152 1163h-89l203 326h115l6 -10zM449 1163h-91l205 326h115l6 -10z" />
    <glyph glyph-name="gravecomb" unicode="&#x300;" 
d="M-270 1489l204 -326h-88l-237 316l6 10h115z" />
    <glyph glyph-name="acutecomb" unicode="&#x301;" 
d="M-268 1163h-90l204 326h115l6 -10z" />
    <glyph glyph-name="uni0302" unicode="&#x302;" 
d="M-166 1163l-172 260l-176 -260h-86l-6 13l211 313h114l209 -313l-8 -13h-86z" />
    <glyph glyph-name="tildecomb" unicode="&#x303;" 
d="M-561 1210h-74q12 85 55 137t103 52q33 0 69.5 -17t63.5 -37.5t58 -37t55 -15.5q32 1 50 24.5t29 74.5l11 8h71q-11 -85 -53 -137.5t-102 -53.5q-42 -1 -87 26t-86 54t-71 27q-33 0 -51.5 -22.5t-30.5 -73.5z" />
    <glyph glyph-name="uni0304" unicode="&#x304;" 
d="M-59 1243h-525v90h525v-90z" />
    <glyph glyph-name="uni0306" unicode="&#x306;" 
d="M-344 1176q-122 0 -202 70t-95 188l12 12h72q37 -186 213 -186q177 0 211 186h74l10 -12q-14 -118 -93.5 -188t-201.5 -70z" />
    <glyph glyph-name="uni0307" unicode="&#x307;" 
d="M-143 1210q-34 0 -58 24t-24 60q0 35 24 59.5t58 24.5q35 0 58.5 -24.5t23.5 -59.5q0 -37 -23.5 -60.5t-58.5 -23.5z" />
    <glyph glyph-name="uni0308" unicode="&#x308;" 
d="M-465 1217q-35 0 -56.5 22t-21.5 59q0 34 22.5 58t55.5 24t55.5 -24t22.5 -58q0 -37 -21.5 -59t-56.5 -22zM-141 1217q-35 0 -56.5 22t-21.5 59q0 34 22.5 58t55.5 24q35 0 57.5 -24t22.5 -58q0 -37 -21.5 -59t-58.5 -22z" />
    <glyph glyph-name="uni030A" unicode="&#x30a;" 
d="M-258 1139q-84 0 -141.5 55.5t-57.5 140.5q0 84 57.5 139.5t141.5 55.5q83 0 140 -55.5t57 -139.5q0 -85 -57 -140.5t-140 -55.5zM-258 1202q57 0 94 38t37 95t-37 94t-94 37q-58 0 -95.5 -37t-37.5 -94t37.5 -95t95.5 -38z" />
    <glyph glyph-name="uni030B" unicode="&#x30b;" 
d="M-506 1163h-88l203 326h117l6 -10zM-209 1163h-88l203 326h114l7 -10z" />
    <glyph glyph-name="uni030C" unicode="&#x30c;" 
d="M-514 1489l176 -262l172 262h86l8 -12l-209 -314h-114l-211 314l6 12h86z" />
    <glyph glyph-name="uni0312" unicode="&#x312;" 
d="M-248 1159h-98l-4 8l137 369h78z" />
    <glyph glyph-name="uni0315" unicode="&#x315;" 
d="M-240 1536h101l4 -10l-139 -367h-76z" />
    <glyph glyph-name="dotbelowcomb" unicode="&#x323;" 
d="M-119 -395q-35 0 -58.5 23.5t-23.5 60.5q0 35 23.5 58.5t58.5 23.5t58.5 -23.5t23.5 -58.5q0 -37 -23.5 -60.5t-58.5 -23.5z" />
    <glyph glyph-name="uni0324" unicode="&#x324;" 
d="M-467 -322q-36 0 -57 23t-21 59t21.5 59t56.5 23q34 0 56 -23.5t22 -58.5q0 -36 -21.5 -59t-56.5 -23zM-143 -322q-35 0 -56.5 23t-21.5 59q0 35 22 58.5t56 23.5t55.5 -23.5t21.5 -58.5q0 -36 -21 -59t-56 -23z" />
    <glyph glyph-name="uni0325" unicode="&#x325;" 
d="M-258 -492q-84 0 -141.5 55.5t-57.5 139.5t57.5 139.5t141.5 55.5q83 0 140 -55.5t57 -139.5t-57 -139.5t-140 -55.5zM-258 -430q57 0 94 38t37 95t-37 95t-94 38q-58 0 -95.5 -38t-37.5 -95t37.5 -95t95.5 -38z" />
    <glyph glyph-name="uni0326" unicode="&#x326;" 
d="M-164 -143h98l7 -9l-140 -368h-77z" />
    <glyph glyph-name="uni0327" unicode="&#x327;" 
d="M-293 -483q-102 0 -188 45l12 73h8q79 -47 170 -47q65 0 103 31.5t38 79.5q0 43 -28 67.5t-82 24.5q-67 0 -135 -37l-6 8l106 228h78l-74 -156q50 12 82 12q62 0 102.5 -40t40.5 -103q0 -86 -60.5 -136t-166.5 -50z" />
    <glyph glyph-name="uni0328" unicode="&#x328;" 
d="M-236 -459q-83 0 -133.5 46.5t-50.5 123.5q0 149 195 289h71q-101 -89 -141.5 -151.5t-40.5 -122.5q0 -52 29.5 -80.5t85.5 -28.5q76 0 133 47h6l10 -74q-70 -49 -164 -49z" />
    <glyph glyph-name="uni0330" unicode="&#x330;" 
d="M-561 -348h-74q12 85 55 136.5t103 51.5q41 0 87.5 -27t88 -53.5t70.5 -25.5q32 1 50 24t29 74l11 8h71q-11 -85 -53 -137t-102 -53q-42 -1 -87 25.5t-86 53.5t-71 27q-33 0 -51.5 -22.5t-30.5 -73.5z" />
    <glyph glyph-name="uni0331" unicode="&#x331;" 
d="M-59 -297h-525v90h525v-90z" />
    <glyph glyph-name="uni0335" unicode="&#x335;" 
d="M-653 1225v88h612v-88h-612z" />
    <glyph glyph-name="uni0336" unicode="&#x336;" 
d="M-61 420h-1639v94h1639v-94z" />
    <glyph glyph-name="uni0337" unicode="&#x337;" 
d="M-63 989l-439 -268v92l441 268z" />
    <glyph glyph-name="uni0338" unicode="&#x338;" 
d="M-55 1061l-887 -1137h-96l886 1137h97z" />
    <glyph glyph-name="uni037E" unicode="&#x37e;" horiz-adv-x="432" 
d="M250 702q-35 0 -59.5 25.5t-24.5 63.5q0 37 24.5 61.5t59.5 24.5q34 0 58 -25t24 -61q0 -38 -23.5 -63.5t-58.5 -25.5zM326 252l2 -6l-183 -619h-84l148 625h117z" />
    <glyph glyph-name="tonos" unicode="&#x384;" horiz-adv-x="1228" 
d="M281 1163h-78l102 334h103l6 -10z" />
    <glyph glyph-name="dieresistonos" unicode="&#x385;" horiz-adv-x="876" 
d="M287 1163h-76l100 334h103l6 -10zM109 1214q-34 0 -55 22.5t-21 57.5q0 34 22 57t54 23q33 0 54 -23t21 -57q0 -36 -20 -58t-55 -22zM487 1214q-35 0 -55 22t-20 58q0 34 21 57t54 23t54.5 -23t21.5 -57q0 -36 -20.5 -58t-55.5 -22z" />
    <glyph glyph-name="Alphatonos" unicode="&#x386;" horiz-adv-x="1318" 
d="M616 1452h86l617 -1446l-6 -6h-119l-166 403h-739l-164 -403h-119l-4 6zM371 1450l6 -10l-133 -324h-78l102 334h103zM526 983l-196 -481h657l-199 479l-129 322h-4q-39 -102 -129 -320z" />
    <glyph glyph-name="anoteleia" unicode="&#x387;" horiz-adv-x="450" 
d="M227 801q-35 0 -59.5 24.5t-24.5 61.5t24.5 62.5t59.5 25.5q34 0 58 -25.5t24 -62.5q0 -36 -24 -61t-58 -25z" />
    <glyph glyph-name="Epsilontonos" unicode="&#x388;" horiz-adv-x="1189" 
d="M-176 1116l102 334h103l6 -10l-133 -324h-78zM991 692h-651v-588h700l-14 -104h-799v1450h799l14 -104h-700v-551h651v-103z" />
    <glyph glyph-name="Etatonos" unicode="&#x389;" horiz-adv-x="1564" 
d="M-176 1116l102 334h103l6 -10l-133 -324h-78zM1225 786v664h112v-1450h-112v684h-885v-684h-113v1450h113v-664h885z" />
    <glyph glyph-name="Iotatonos" unicode="&#x38a;" horiz-adv-x="567" 
d="M-98 1116h-78l102 334h103l6 -10zM227 0v1450h113v-1450h-113z" />
    <glyph glyph-name="Omicrontonos" unicode="&#x38c;" horiz-adv-x="1695" 
d="M848 -41q-216 0 -383 101.5t-255.5 275t-88.5 389.5q0 161 51 301t143.5 243t230 162.5t302.5 59.5t303 -59.5t230 -162.5t143 -243t51 -301t-51.5 -301.5t-144.5 -243.5t-230.5 -162t-300.5 -59zM-33 1116h-78l103 334h102l6 -10zM848 68q137 0 251.5 51t192 139.5
t120 209t42.5 257.5q0 186 -72.5 334.5t-211.5 235.5t-322 87q-137 0 -251.5 -50.5t-192 -138.5t-120 -208.5t-42.5 -259.5q0 -184 73 -332.5t212.5 -236.5t320.5 -88z" />
    <glyph glyph-name="Upsilontonos" unicode="&#x38e;" horiz-adv-x="1169" 
d="M-209 1116h-78l103 334h102l6 -10zM27 1450h120l244 -418q38 -64 105 -180.5t88 -151.5h2l192 332l242 418h123l2 -6l-504 -842v-602h-113v602l-505 842z" />
    <glyph glyph-name="Omegatonos" unicode="&#x38f;" horiz-adv-x="1693" 
d="M1573 743q0 -207 -93 -373.5t-237 -260.5h293v-109h-553v100q77 0 160 48t152.5 130t114 204t44.5 257q0 177 -73.5 323t-213 233t-319.5 87q-136 0 -250.5 -51t-192 -138t-120.5 -204.5t-43 -249.5q0 -135 44.5 -257t113.5 -204t152 -130t161 -48v-100h-553v109h293
q-144 95 -238 261t-94 373q0 206 87.5 375t255 271t384.5 102q216 0 383 -102t254.5 -271t87.5 -375zM-111 1116l103 334h102l6 -10l-133 -324h-78z" />
    <glyph glyph-name="iotadieresistonos" unicode="&#x390;" horiz-adv-x="567" 
d="M254 1163h-76l101 334h102l6 -10zM76 1214q-34 0 -55 22.5t-21 57.5q0 34 22 57t54 23q33 0 54.5 -23t21.5 -57q0 -36 -20.5 -58t-55.5 -22zM455 1214q-35 0 -55.5 22t-20.5 58q0 34 21.5 57t54.5 23t54 -23t21 -57q0 -36 -20 -58t-55 -22zM535 68l8 -5l-11 -86
q-52 -18 -112 -18q-123 0 -178.5 62t-55.5 210v754h105v-756q0 -99 35 -136.5t116 -37.5q54 0 93 13z" />
    <glyph glyph-name="Alpha" unicode="&#x391;" horiz-adv-x="1318" 
d="M616 1452h86l617 -1446l-6 -6h-119l-166 403h-739l-164 -403h-119l-4 6zM526 983l-196 -481h657l-199 479l-129 322h-4q-39 -102 -129 -320z" />
    <glyph glyph-name="Beta" unicode="&#x392;" horiz-adv-x="1245" 
d="M602 0h-375v1450h373q223 0 342 -94.5t119 -268.5q0 -119 -66 -205t-184 -120v-2q155 -26 239.5 -120.5t84.5 -242.5q0 -199 -131.5 -298t-401.5 -99zM340 1348v-553h260q164 0 256 76t92 212q0 128 -92.5 196.5t-265.5 68.5h-250zM340 700v-598h256q221 0 322.5 72
t101.5 223q0 303 -412 303h-268z" />
    <glyph glyph-name="Gamma" unicode="&#x393;" horiz-adv-x="956" 
d="M227 0v1450h703v-104h-590v-1346h-113z" />
    <glyph glyph-name="uni0394" unicode="&#x394;" horiz-adv-x="1318" 
d="M616 1452h86l617 -1446l-6 -6h-1307l-4 6zM526 983l-358 -879h983l-363 877l-129 322h-4q-39 -102 -129 -320z" />
    <glyph glyph-name="Epsilon" unicode="&#x395;" horiz-adv-x="1189" 
d="M991 692h-651v-588h700l-14 -104h-799v1450h799l14 -104h-700v-551h651v-103z" />
    <glyph glyph-name="Zeta" unicode="&#x396;" horiz-adv-x="1249" 
d="M66 23l927 1323h-874v104h1061l4 -23l-928 -1321h893v-106h-1079z" />
    <glyph glyph-name="Eta" unicode="&#x397;" horiz-adv-x="1564" 
d="M1225 786v664h112v-1450h-112v684h-885v-684h-113v1450h113v-664h885z" />
    <glyph glyph-name="Theta" unicode="&#x398;" horiz-adv-x="1695" 
d="M848 -41q-216 0 -383 101.5t-255.5 275t-88.5 389.5q0 161 51 301t143.5 243t230 162.5t302.5 59.5t303 -59.5t230 -162.5t143 -243t51 -301t-51.5 -301.5t-144.5 -243.5t-230.5 -162t-300.5 -59zM848 68q137 0 251.5 51t192 139.5t120 209t42.5 257.5q0 186 -72.5 334.5
t-211.5 235.5t-322 87q-137 0 -251.5 -50.5t-192 -138.5t-120 -208.5t-42.5 -259.5q0 -184 73 -332.5t212.5 -236.5t320.5 -88zM1167 676h-637v104h637v-104z" />
    <glyph glyph-name="Iota" unicode="&#x399;" horiz-adv-x="567" 
d="M227 0v1450h113v-1450h-113z" />
    <glyph glyph-name="Kappa" unicode="&#x39a;" horiz-adv-x="1284" 
d="M342 0h-115v1450h115v-1450zM1276 0h-143l-760 743l729 707h133l2 -6l-719 -694l760 -744z" />
    <glyph glyph-name="Lambda" unicode="&#x39b;" horiz-adv-x="1298" 
d="M606 1452h84l606 -1446l-2 -6h-120l-398 987q-26 61 -69.5 172t-57.5 146h-4q-58 -143 -127 -318l-395 -987h-119l-2 6z" />
    <glyph glyph-name="Mu" unicode="&#x39c;" horiz-adv-x="1869" 
d="M338 0h-111v1450h156l551 -1079h4l551 1079h153v-1450h-112l2 815v490h-4q-153 -300 -199 -385l-383 -748h-24l-383 748q-196 383 -197 385h-4v-490v-815z" />
    <glyph glyph-name="Nu" unicode="&#x39d;" horiz-adv-x="1628" 
d="M338 0h-111v1450h92l701 -885q156 -196 268 -334h2v373v846h111v-1477h-41l-750 945q-17 21 -268 331h-4q1 -52 1 -111t-0.5 -136t-0.5 -123v-879z" />
    <glyph glyph-name="Xi" unicode="&#x39e;" horiz-adv-x="1277" 
d="M1128 1346h-978l14 104h950zM1067 692h-856v103h856v-103zM1114 0h-950l-14 104h978z" />
    <glyph glyph-name="Omicron" unicode="&#x39f;" horiz-adv-x="1695" 
d="M848 -41q-216 0 -383 101.5t-255.5 275t-88.5 389.5q0 161 51 301t143.5 243t230 162.5t302.5 59.5t303 -59.5t230 -162.5t143 -243t51 -301t-51.5 -301.5t-144.5 -243.5t-230.5 -162t-300.5 -59zM848 68q137 0 251.5 51t192 139.5t120 209t42.5 257.5q0 186 -72.5 334.5
t-211.5 235.5t-322 87q-137 0 -251.5 -50.5t-192 -138.5t-120 -208.5t-42.5 -259.5q0 -184 73 -332.5t212.5 -236.5t320.5 -88z" />
    <glyph glyph-name="Pi" unicode="&#x3a0;" horiz-adv-x="1552" 
d="M340 0h-113v1450h1098v-1450h-113v1346h-872v-1346z" />
    <glyph glyph-name="Rho" unicode="&#x3a1;" horiz-adv-x="1173" 
d="M606 1450q245 0 368.5 -109t123.5 -321q0 -200 -128.5 -313t-369.5 -113h-260v-594h-113v1450h379zM340 696h233q211 0 310.5 81t99.5 243q0 167 -98.5 247.5t-302.5 80.5h-242v-652z" />
    <glyph glyph-name="Sigma" unicode="&#x3a3;" horiz-adv-x="1208" 
d="M41 1450h1092v-104h-904l502 -605v-26l-498 -611h900v-104h-1092l-4 23l577 708l-577 696z" />
    <glyph glyph-name="Tau" unicode="&#x3a4;" horiz-adv-x="1187" 
d="M25 1450h1136v-104h-512v-1346h-110v1346h-514v104z" />
    <glyph glyph-name="Upsilon" unicode="&#x3a5;" horiz-adv-x="1169" 
d="M27 1450h120l244 -418q38 -64 105 -180.5t88 -151.5h2l192 332l242 418h123l2 -6l-504 -842v-602h-113v602l-505 842z" />
    <glyph glyph-name="Phi" unicode="&#x3a6;" horiz-adv-x="1718" 
d="M1595 752q0 -278 -183.5 -446t-498.5 -177v-129h-110v129q-314 9 -498 177.5t-184 445.5t183 444t499 176v119h110v-119q315 -9 498.5 -175.5t183.5 -444.5zM913 1270v-1039q261 9 414.5 150t153.5 371q0 232 -152 370.5t-416 147.5zM238 752q0 -230 152 -371t413 -150
v1039q-263 -9 -414 -148t-151 -370z" />
    <glyph glyph-name="Chi" unicode="&#x3a7;" horiz-adv-x="1204" 
d="M158 0h-129l-2 6l512 746l-492 692l4 6h131l215 -309q104 -148 209 -303h2q146 221 203 301l213 311h129l4 -6l-489 -699l510 -739l-2 -6h-134l-237 354q-39 56 -106.5 159t-94.5 142h-4q-138 -207 -201 -297z" />
    <glyph glyph-name="Psi" unicode="&#x3a8;" horiz-adv-x="1785" 
d="M1466 991v459h113v-469q0 -147 -34.5 -255.5t-109 -187.5t-196 -120.5t-291.5 -46.5v-371h-110v371q-339 10 -485 159t-146 451v469h112v-461q0 -254 118.5 -377t400.5 -133v971h110v-971q144 4 244 37.5t160.5 98.5t87 156.5t26.5 219.5z" />
    <glyph glyph-name="uni03A9" unicode="&#x3a9;" horiz-adv-x="1693" 
d="M1573 743q0 -207 -93 -373.5t-237 -260.5h293v-109h-553v100q77 0 160 48t152.5 130t114 204t44.5 257q0 177 -73.5 323t-213 233t-319.5 87q-136 0 -250.5 -51t-192 -138t-120.5 -204.5t-43 -249.5q0 -135 44.5 -257t113.5 -204t152 -130t161 -48v-100h-553v109h293
q-144 95 -238 261t-94 373q0 206 87.5 375t255 271t384.5 102q216 0 383 -102t254.5 -271t87.5 -375z" />
    <glyph glyph-name="Iotadieresis" unicode="&#x3aa;" horiz-adv-x="567" 
d="M111 1628q-34 0 -57 23.5t-23 58.5t23.5 59.5t56.5 24.5q34 0 56.5 -24.5t22.5 -59.5q0 -36 -22 -59t-57 -23zM457 1628q-34 0 -57 23.5t-23 58.5t23.5 59.5t56.5 24.5q34 0 57 -24.5t23 -59.5t-22.5 -58.5t-57.5 -23.5zM227 0v1450h113v-1450h-113z" />
    <glyph glyph-name="Upsilondieresis" unicode="&#x3ab;" horiz-adv-x="1169" 
d="M412 1628q-34 0 -57 23.5t-23 58.5t23.5 59.5t56.5 24.5q34 0 57 -24.5t23 -59.5t-22.5 -58.5t-57.5 -23.5zM758 1628q-34 0 -57 23.5t-23 58.5t23.5 59.5t56.5 24.5q34 0 57 -24.5t23 -59.5t-22.5 -58.5t-57.5 -23.5zM27 1450h120l244 -418q38 -64 105 -180.5t88 -151.5
h2l192 332l242 418h123l2 -6l-504 -842v-602h-113v602l-505 842z" />
    <glyph glyph-name="alphatonos" unicode="&#x3ac;" horiz-adv-x="1214" 
d="M758 1497l6 -10l-133 -324h-78l102 334h103zM1186 63l6 -4l-10 -86q-40 -14 -80 -14q-84 0 -133.5 39.5t-63.5 130.5q-170 -170 -358 -170q-194 0 -314 144t-120 386q0 237 134 387t331 150q170 0 327 -125l8 84h88v-758q0 -97 31 -134.5t94 -37.5q33 0 60 8zM567 55
q170 0 330 164v8h2l-2 2v588q-151 111 -305 111q-160 0 -265.5 -120t-105.5 -319q0 -201 94 -317.5t252 -116.5z" />
    <glyph glyph-name="epsilontonos" unicode="&#x3ad;" horiz-adv-x="942" 
d="M508 1163h-78l102 334h103l6 -10zM467 -41q-163 0 -263 82t-102 215q0 97 55 165.5t150 88.5v4q-84 29 -131 95.5t-47 150.5q0 122 88 194t244 72q195 0 366 -100l-14 -101h-6q-158 107 -342 107q-110 0 -171 -48.5t-61 -133.5q0 -96 65.5 -146.5t186.5 -50.5h224v-94
h-240q-127 0 -194.5 -51t-67.5 -150q2 -93 71.5 -149t188.5 -56q184 0 348 115h6l15 -105q-181 -104 -369 -104z" />
    <glyph glyph-name="etatonos" unicode="&#x3ae;" horiz-adv-x="1206" 
d="M766 1497l6 -10l-133 -324h-78l103 334h102zM702 1026q151 0 232.5 -101.5t81.5 -291.5v-1084h-105v1043q0 172 -57.5 254t-177.5 82q-98 0 -195 -61.5t-184 -172.5v-694h-104v985h92l4 -194q190 235 413 235z" />
    <glyph glyph-name="iotatonos" unicode="&#x3af;" horiz-adv-x="567" 
d="M285 1163h-78l102 334h103l6 -10zM535 68l8 -5l-11 -86q-52 -18 -112 -18q-123 0 -178.5 62t-55.5 210v754h105v-756q0 -99 35 -136.5t116 -37.5q54 0 93 13z" />
    <glyph glyph-name="upsilondieresistonos" unicode="&#x3b0;" horiz-adv-x="1120" 
d="M578 1163h-76l100 334h103l6 -10zM399 1214q-34 0 -54.5 22.5t-20.5 57.5q0 34 21.5 57t53.5 23q33 0 54.5 -23t21.5 -57q0 -36 -20.5 -58t-55.5 -22zM778 1214q-35 0 -55.5 22t-20.5 58q0 34 21.5 57t54.5 23t54.5 -23t21.5 -57q0 -36 -20.5 -58t-55.5 -22zM193 375v610
h104v-598q0 -173 67.5 -251.5t215.5 -78.5q163 0 240 93t77 290q0 119 -27 275t-65 262l2 8h104q95 -325 95 -543q0 -240 -110 -361.5t-321 -121.5q-195 0 -288.5 102t-93.5 314z" />
    <glyph glyph-name="alpha" unicode="&#x3b1;" horiz-adv-x="1214" 
d="M1186 63l6 -4l-10 -86q-40 -14 -80 -14q-84 0 -133.5 39.5t-63.5 130.5q-170 -170 -358 -170q-194 0 -314 144t-120 386q0 237 134 387t331 150q170 0 327 -125l8 84h88v-758q0 -97 31 -134.5t94 -37.5q33 0 60 8zM567 55q170 0 330 164v8h2l-2 2v588q-151 111 -305 111
q-160 0 -265.5 -120t-105.5 -319q0 -201 94 -317.5t252 -116.5z" />
    <glyph glyph-name="beta" unicode="&#x3b2;" horiz-adv-x="1204" 
d="M291 178l-2 -2q8 -156 8 -332v-295h-104v1481q0 247 112 381.5t324 134.5q173 0 281 -102t108 -262q0 -131 -72 -228.5t-172 -130.5v-2q162 -30 244 -135.5t82 -257.5q0 -208 -127 -338.5t-322 -130.5q-129 0 -217.5 53.5t-142.5 165.5zM647 55q147 0 245.5 98t98.5 269
q0 163 -90 251.5t-268 88.5h-150v86h144q109 0 195.5 88.5t86.5 232.5q0 127 -76 204t-210 77q-164 0 -246 -107.5t-82 -312.5v-553q0 -212 92.5 -316t259.5 -106z" />
    <glyph glyph-name="gamma" unicode="&#x3b3;" horiz-adv-x="946" 
d="M526 -451h-104v474l-399 956l4 6h110l164 -414l172 -436h4q58 153 166 428l166 422h111l4 -6l-398 -954v-476z" />
    <glyph glyph-name="delta" unicode="&#x3b4;" horiz-adv-x="1175" 
d="M588 -41q-219 0 -350.5 134.5t-131.5 361.5q0 209 111.5 347.5t317.5 203.5v2q-142 80 -212.5 160t-70.5 169q0 96 70.5 152.5t216.5 56.5q190 0 391 -104l-15 -105h-6q-195 117 -368 117q-183 0 -183 -121q0 -70 67 -132t234 -152q100 -53 171.5 -108.5t127 -126.5
t83.5 -160t28 -197q0 -228 -131.5 -363t-349.5 -135zM588 55q169 0 269.5 107.5t100.5 294.5q0 90 -22 163.5t-67 133t-103 106.5t-141 94q-191 -55 -300.5 -179t-109.5 -320q0 -186 102 -293t271 -107z" />
    <glyph glyph-name="epsilon" unicode="&#x3b5;" horiz-adv-x="942" 
d="M467 -41q-163 0 -263 82t-102 215q0 97 55 165.5t150 88.5v4q-84 29 -131 95.5t-47 150.5q0 122 88 194t244 72q195 0 366 -100l-14 -101h-6q-158 107 -342 107q-110 0 -171 -48.5t-61 -133.5q0 -96 65.5 -146.5t186.5 -50.5h224v-94h-240q-127 0 -194.5 -51t-67.5 -150
q2 -93 71.5 -149t188.5 -56q184 0 348 115h6l15 -105q-181 -104 -369 -104z" />
    <glyph glyph-name="zeta" unicode="&#x3b6;" horiz-adv-x="901" 
d="M813 -297h-96l-4 6q45 88 45 170q0 78 -46.5 117.5t-166.5 54.5q-242 27 -343.5 132.5t-101.5 320.5q1 179 77 347.5t200 304t297 255.5v4h-527v90h682v-84q-295 -190 -456 -417.5t-162 -487.5q-1 -178 78 -259t276 -107q162 -23 229.5 -84t67.5 -175q0 -95 -49 -188z
" />
    <glyph glyph-name="eta" unicode="&#x3b7;" horiz-adv-x="1206" 
d="M702 1026q151 0 232.5 -101.5t81.5 -291.5v-1084h-105v1043q0 172 -57.5 254t-177.5 82q-98 0 -195 -61.5t-184 -172.5v-694h-104v985h92l4 -194q190 235 413 235z" />
    <glyph glyph-name="theta" unicode="&#x3b8;" horiz-adv-x="1202" 
d="M600 1546q230 0 358.5 -195t128.5 -599t-128.5 -598.5t-358.5 -194.5t-357.5 194.5t-127.5 598.5t127.5 599t357.5 195zM600 1448q-371 0 -377 -678h756q-6 678 -379 678zM600 57q171 0 269.5 150.5t107.5 472.5h-752q9 -322 107.5 -472.5t267.5 -150.5z" />
    <glyph glyph-name="iota" unicode="&#x3b9;" horiz-adv-x="567" 
d="M535 68l8 -5l-11 -86q-52 -18 -112 -18q-123 0 -178.5 62t-55.5 210v754h105v-756q0 -99 35 -136.5t116 -37.5q54 0 93 13z" />
    <glyph glyph-name="kappa" unicode="&#x3ba;" horiz-adv-x="1011" 
d="M989 6l-2 -6h-129l-522 512l276 309q83 93 145 131.5t128 38.5q39 0 73 -10l-16 -92h-8q-21 6 -47 6q-43 0 -85.5 -27t-103.5 -94l-235 -254zM297 0h-104v985h104v-985z" />
    <glyph glyph-name="lambda" unicode="&#x3bb;" horiz-adv-x="997" 
d="M37 0l-4 6l430 965l-133 358q-27 70 -60 95.5t-88 25.5q-32 0 -59 -8l-6 4l8 86q44 14 80 14q84 0 136.5 -46t96.5 -173l402 -1145q25 -74 56 -100.5t81 -26.5q31 0 61 6l6 -2l-10 -86q-40 -14 -78 -14q-83 0 -130.5 45t-90.5 174q-127 358 -225 660h-4
q-203 -470 -217 -502l-148 -336h-104z" />
    <glyph glyph-name="uni03BC" unicode="&#x3bc;" horiz-adv-x="1212" 
d="M1182 63l6 -4l-8 -86q-40 -14 -78 -14q-102 0 -153 57.5t-54 196.5q-86 -122 -188 -188t-211 -66q-138 0 -203 133l-4 -2q8 -106 8 -301v-240h-104v1434h104v-592q0 -334 223 -334q100 0 196.5 71t178.5 194v663h104v-758q0 -97 31 -134.5t94 -37.5q34 0 58 8z" />
    <glyph glyph-name="nu" unicode="&#x3bd;" horiz-adv-x="940" 
d="M27 985h106l164 -395q132 -326 172 -432h4l168 424l166 403h106l5 -6l-420 -1008h-54l-421 1008z" />
    <glyph glyph-name="xi" unicode="&#x3be;" horiz-adv-x="944" 
d="M825 -297h-96l-4 6q43 84 43 170q0 77 -43 118t-168 52q-251 24 -356 116.5t-105 260.5q0 146 79.5 242t240.5 131v2q-116 27 -181 102t-65 187q0 250 238 321v4h-277v90h729v-90h-143q-212 0 -328.5 -81.5t-116.5 -239.5q0 -121 95.5 -184.5t242.5 -63.5h172v-90h-141
q-220 0 -328 -87t-108 -233q0 -131 82 -197.5t291 -93.5q162 -19 228 -81.5t66 -172.5q0 -92 -47 -188z" />
    <glyph glyph-name="omicron" unicode="&#x3bf;" horiz-adv-x="1212" 
d="M606 -41q-225 0 -362.5 150.5t-137.5 382.5q0 231 137.5 382.5t362.5 151.5t362.5 -151.5t137.5 -382.5q0 -232 -137.5 -382.5t-362.5 -150.5zM606 57q175 0 282 122.5t107 312.5t-106 313t-283 123t-284 -123t-107 -313t107.5 -312.5t283.5 -122.5z" />
    <glyph glyph-name="pi" unicode="&#x3c0;" horiz-adv-x="1128" 
d="M821 119v772h-538v-891h-105v891h-141v94h1050v-94h-161v-768q0 -44 13 -59t50 -15q31 0 78 17l8 -7l-8 -77q-54 -23 -106 -23q-74 0 -107 36.5t-33 123.5z" />
    <glyph glyph-name="rho" unicode="&#x3c1;" horiz-adv-x="1196" 
d="M635 1026q219 0 337 -141t118 -373q0 -245 -132.5 -399t-334.5 -154q-168 0 -326 121v-531h-104v945q0 253 112.5 392.5t329.5 139.5zM610 55q165 0 268 124.5t103 332.5q0 188 -91 302t-257 114q-161 0 -248.5 -112t-87.5 -327v-317q156 -117 313 -117z" />
    <glyph glyph-name="uni03C2" unicode="&#x3c2;" horiz-adv-x="1054" 
d="M823 -297h-96l-4 6q45 88 45 170q0 76 -43 116t-170 56q-219 28 -334 153.5t-115 332.5q0 213 129.5 351t339.5 138q182 0 347 -115l-15 -106h-6q-156 123 -323 123q-161 0 -262 -110t-101 -281q0 -170 93.5 -266.5t269.5 -120.5q161 -22 227.5 -85.5t66.5 -173.5
q0 -95 -49 -188z" />
    <glyph glyph-name="sigma" unicode="&#x3c3;" horiz-adv-x="1206" 
d="M598 -41q-147 0 -260 68.5t-172.5 184.5t-59.5 259q0 142 59.5 258.5t172.5 186t260 69.5h567v-94l-313 2q117 -58 178.5 -171t61.5 -251q0 -143 -60 -259t-173.5 -184.5t-260.5 -68.5zM598 57q171 0 278 119t107 295q0 180 -106.5 301t-280.5 121q-170 0 -275.5 -121.5
t-105.5 -300.5q0 -175 107 -294.5t276 -119.5z" />
    <glyph glyph-name="tau" unicode="&#x3c4;" horiz-adv-x="944" 
d="M905 985v-94h-395v-664q0 -99 33.5 -135.5t107.5 -36.5q49 0 82 11l6 -7l-8 -84q-46 -16 -102 -16q-116 0 -169.5 60.5t-53.5 207.5l-3 664h-362v94h864z" />
    <glyph glyph-name="upsilon" unicode="&#x3c5;" horiz-adv-x="1120" 
d="M193 375v610h104v-598q0 -173 67.5 -251.5t215.5 -78.5q163 0 240 93t77 290q0 119 -27 275t-65 262l2 8h104q95 -325 95 -543q0 -240 -110 -361.5t-321 -121.5q-195 0 -288.5 102t-93.5 314z" />
    <glyph glyph-name="phi" unicode="&#x3c6;" horiz-adv-x="1349" 
d="M1243 492q0 -232 -139.5 -378t-376.5 -155v-410h-104v410q-237 9 -377 155t-140 378q0 235 138.5 380t378.5 154v346h104v-346q240 -9 378 -154t138 -380zM215 492q0 -195 110 -315.5t302 -127.5v885q-195 -7 -303.5 -125.5t-108.5 -316.5zM725 934v-885q193 7 301.5 127
t108.5 316q0 198 -107.5 316.5t-302.5 125.5z" />
    <glyph glyph-name="chi" unicode="&#x3c7;" horiz-adv-x="931" 
d="M905 -465q-82 0 -127.5 44t-99.5 175l-129 275q-67 148 -72 161h-2q-21 -39 -82 -170l-225 -471h-113l-4 7l365 725l-234 495q-34 75 -64 100t-79 25q-22 0 -62 -8l-6 2l11 88q32 14 77 14q82 0 128 -44t98 -175l110 -229q16 -34 44.5 -103.5t35.5 -85.5h4
q17 36 50 104.5t40 84.5l211 436h113l4 -6l-358 -698l243 -527q30 -66 64.5 -94.5t79.5 -28.5q18 0 59 9l6 -2l-8 -89q-35 -14 -78 -14z" />
    <glyph glyph-name="psi" unicode="&#x3c8;" horiz-adv-x="1536" 
d="M1421 453q0 -118 -28.5 -204t-94 -150.5t-176.5 -99t-272 -40.5v-410h-105v410q-152 4 -259.5 35.5t-171 91t-92.5 137.5t-29 183v579h104v-565q0 -86 21.5 -149t72 -111t138.5 -73.5t216 -29.5v1315h105v-1315q138 4 229.5 30.5t143 78t72 119t20.5 166.5q0 118 -27 268
t-65 258l2 8h104q92 -315 92 -532z" />
    <glyph glyph-name="omega" unicode="&#x3c9;" horiz-adv-x="1574" 
d="M498 -41q-182 0 -282.5 121t-100.5 364q0 131 38.5 283.5t88.5 257.5h108l2 -8q-52 -88 -91.5 -242.5t-39.5 -294.5q0 -383 279 -383q120 0 178.5 76.5t58.5 212.5v412h103v-412q0 -289 235 -289q279 0 279 383q0 140 -39.5 294.5t-91.5 242.5l2 8h106q51 -104 90 -256.5
t39 -284.5q0 -243 -100.5 -364t-282.5 -121q-106 0 -184.5 59.5t-104.5 161.5h-2q-28 -103 -104.5 -162t-183.5 -59z" />
    <glyph glyph-name="iotadieresis" unicode="&#x3ca;" horiz-adv-x="567" 
d="M86 1217q-35 0 -56.5 22t-21.5 59q0 34 22.5 58t55.5 24t55.5 -24t22.5 -58q0 -37 -21.5 -59t-56.5 -22zM410 1217q-35 0 -56.5 22t-21.5 59q0 34 22.5 58t55.5 24q35 0 57 -24t22 -58q0 -37 -21 -59t-58 -22zM535 68l8 -5l-11 -86q-52 -18 -112 -18q-123 0 -178.5 62
t-55.5 210v754h105v-756q0 -99 35 -136.5t116 -37.5q54 0 93 13z" />
    <glyph glyph-name="upsilondieresis" unicode="&#x3cb;" horiz-adv-x="1120" 
d="M410 1217q-35 0 -56.5 22t-21.5 59q0 34 22.5 58t55.5 24t55 -24t22 -58q0 -37 -21 -59t-56 -22zM733 1217q-35 0 -56.5 22t-21.5 59q0 34 22.5 58t55.5 24q35 0 57.5 -24t22.5 -58q0 -37 -21.5 -59t-58.5 -22zM193 375v610h104v-598q0 -173 67.5 -251.5t215.5 -78.5
q163 0 240 93t77 290q0 119 -27 275t-65 262l2 8h104q95 -325 95 -543q0 -240 -110 -361.5t-321 -121.5q-195 0 -288.5 102t-93.5 314z" />
    <glyph glyph-name="omicrontonos" unicode="&#x3cc;" horiz-adv-x="1212" 
d="M643 1163h-78l103 334h102l6 -10zM606 -41q-225 0 -362.5 150.5t-137.5 382.5q0 231 137.5 382.5t362.5 151.5t362.5 -151.5t137.5 -382.5q0 -232 -137.5 -382.5t-362.5 -150.5zM606 57q175 0 282 122.5t107 312.5t-106 313t-283 123t-284 -123t-107 -313t107.5 -312.5
t283.5 -122.5z" />
    <glyph glyph-name="upsilontonos" unicode="&#x3cd;" horiz-adv-x="1120" 
d="M608 1163h-78l103 334h102l6 -10zM193 375v610h104v-598q0 -173 67.5 -251.5t215.5 -78.5q163 0 240 93t77 290q0 119 -27 275t-65 262l2 8h104q95 -325 95 -543q0 -240 -110 -361.5t-321 -121.5q-195 0 -288.5 102t-93.5 314z" />
    <glyph glyph-name="omegatonos" unicode="&#x3ce;" horiz-adv-x="1574" 
d="M823 1163h-78l103 334h102l6 -10zM498 -41q-182 0 -282.5 121t-100.5 364q0 131 38.5 283.5t88.5 257.5h108l2 -8q-52 -88 -91.5 -242.5t-39.5 -294.5q0 -383 279 -383q120 0 178.5 76.5t58.5 212.5v412h103v-412q0 -289 235 -289q279 0 279 383q0 140 -39.5 294.5
t-91.5 242.5l2 8h106q51 -104 90 -256.5t39 -284.5q0 -243 -100.5 -364t-282.5 -121q-106 0 -184.5 59.5t-104.5 161.5h-2q-28 -103 -104.5 -162t-183.5 -59z" />
    <glyph glyph-name="uni0400" unicode="&#x400;" horiz-adv-x="1189" 
d="M496 1853l196 -274h-92l-227 264l6 10h117zM991 692h-651v-588h700l-14 -104h-799v1450h799l14 -104h-700v-551h651v-103z" />
    <glyph glyph-name="uni0401" unicode="&#x401;" horiz-adv-x="1189" 
d="M461 1628q-34 0 -57 23.5t-23 58.5t23.5 59.5t56.5 24.5q34 0 57 -24.5t23 -59.5t-22.5 -58.5t-57.5 -23.5zM807 1628q-34 0 -57 23.5t-23 58.5t23.5 59.5t56.5 24.5q34 0 57 -24.5t23 -59.5t-22.5 -58.5t-57.5 -23.5zM991 692h-651v-588h700l-14 -104h-799v1450h799
l14 -104h-700v-551h651v-103z" />
    <glyph glyph-name="uni0402" unicode="&#x402;" horiz-adv-x="1597" 
d="M999 985q196 0 301 -108.5t105 -311.5v-170q0 -204 -98.5 -311t-284.5 -107q-108 0 -199 31l15 101h6q85 -29 166 -29q140 0 212 83.5t72 248.5v137q0 163 -77.5 248.5t-227.5 85.5q-179 0 -360 -123v-760h-111v1346h-493v104h1116v-104h-512v-478q186 117 370 117z" />
    <glyph glyph-name="uni0403" unicode="&#x403;" horiz-adv-x="956" 
d="M606 1579h-94l197 274h116l6 -10zM227 0v1450h703v-104h-590v-1346h-113z" />
    <glyph glyph-name="uni0404" unicode="&#x404;" horiz-adv-x="1574" 
d="M1370 272h6l17 -118q-123 -96 -269.5 -145.5t-298.5 -49.5q-211 0 -371.5 97t-246.5 270.5t-86 396.5q0 224 85.5 398.5t245 272t369.5 97.5q309 0 561 -193l-16 -120h-6q-241 204 -539 204q-250 0 -405 -161t-174 -426h952v-103h-954q11 -280 169 -452t418 -172
q298 0 543 204z" />
    <glyph glyph-name="uni0405" unicode="&#x405;" horiz-adv-x="1122" 
d="M547 -41q-232 0 -436 147l18 117h6q212 -162 414 -162q151 0 243.5 83t92.5 204q0 57 -16 101t-56.5 89.5t-111.5 89t-181 93.5q-215 96 -300 191.5t-85 234.5q0 150 113 247t297 97q202 0 385 -111l-15 -114h-6q-181 125 -368 125q-127 0 -207 -69t-80 -171
q0 -105 69 -172.5t279 -169.5q119 -56 196.5 -107.5t123.5 -107t64 -111.5t18 -129q0 -170 -126.5 -282.5t-330.5 -112.5z" />
    <glyph glyph-name="uni0406" unicode="&#x406;" horiz-adv-x="567" 
d="M227 0v1450h113v-1450h-113z" />
    <glyph glyph-name="uni0407" unicode="&#x407;" horiz-adv-x="567" 
d="M143 1645q-34 0 -53.5 23t-19.5 61q0 35 20.5 58t52.5 23q33 0 53.5 -22.5t20.5 -58.5q0 -39 -19.5 -61.5t-54.5 -22.5zM424 1645q-35 0 -54.5 22.5t-19.5 61.5q0 36 20.5 58.5t53.5 22.5q32 0 53 -23t21 -58q0 -38 -20 -61t-54 -23zM227 0v1450h113v-1450h-113z" />
    <glyph glyph-name="uni0408" unicode="&#x408;" horiz-adv-x="579" 
d="M244 127v1323h110v-1319q0 -159 -54 -246.5t-173 -142.5l-51 80l2 8q86 43 126 108t40 189z" />
    <glyph glyph-name="uni0409" unicode="&#x409;" horiz-adv-x="2082" 
d="M1237 825h293q238 0 362.5 -106t124.5 -307t-124.5 -306.5t-362.5 -105.5h-404v1346h-663v-646q0 -273 -27 -426.5t-86 -219.5t-164 -66q-44 0 -90 12v98l6 4q38 -10 64 -10q70 0 109 58.5t57 196t18 384.5v719h887v-625zM1237 102h262q206 0 305 76.5t99 235.5
q0 158 -99 233.5t-305 75.5h-262v-621z" />
    <glyph glyph-name="uni040A" unicode="&#x40a;" horiz-adv-x="2121" 
d="M1276 825h293q236 0 360.5 -106t124.5 -307t-124.5 -306.5t-360.5 -105.5h-406v721h-823v-721h-113v1450h113v-625h823v625h113v-625zM1276 102h262q205 0 303 76t98 236q0 158 -98 233.5t-303 75.5h-262v-621z" />
    <glyph glyph-name="uni040B" unicode="&#x40b;" horiz-adv-x="1595" 
d="M1010 985q199 0 297 -112t98 -347v-526h-113v500q0 203 -69.5 293t-227.5 90q-187 0 -366 -121v-762h-111v1346h-493v104h1116v-104h-512v-478q192 117 381 117z" />
    <glyph glyph-name="uni040C" unicode="&#x40c;" horiz-adv-x="1282" 
d="M887 1853l6 -10l-225 -264h-95l197 274h117zM1233 1444l-522 -696l563 -742l-2 -6h-131l-520 684h-281v-684h-113v1450h113v-664h274l494 664h123z" />
    <glyph glyph-name="uni040D" unicode="&#x40d;" horiz-adv-x="1607" 
d="M864 1579h-92l-227 264l6 10h117zM227 1450h113v-897v-375h6q68 96 170 236l760 1036h102v-1450h-110v897v375h-6q-115 -161 -172 -238l-758 -1034h-105v1450z" />
    <glyph glyph-name="uni040E" unicode="&#x40e;" horiz-adv-x="1224" 
d="M610 1561q-127 0 -205.5 68t-93.5 190l11 10h71q40 -184 217 -184q178 0 215 184h74l10 -10q-15 -122 -93.5 -190t-205.5 -68zM25 1444l553 -1137q-47 -130 -96.5 -182.5t-121.5 -52.5q-66 0 -135 34l-4 -4l-16 -98q81 -37 166 -37q96 0 160 56.5t126 195.5l543 1225
l-4 6h-119l-315 -737l-125 -285h-4q-67 146 -129 277l-359 745h-116z" />
    <glyph glyph-name="uni040F" unicode="&#x40f;" horiz-adv-x="1529" 
d="M1190 1450h110v-1450h-485v-338h-102v338h-486v1450h113v-1346h850v1346z" />
    <glyph glyph-name="uni0410" unicode="&#x410;" horiz-adv-x="1318" 
d="M616 1452h86l617 -1446l-6 -6h-119l-166 403h-739l-164 -403h-119l-4 6zM526 983l-196 -481h657l-199 479l-129 322h-4q-39 -102 -129 -320z" />
    <glyph glyph-name="uni0411" unicode="&#x411;" horiz-adv-x="1232" 
d="M340 836h293q236 0 360.5 -107.5t124.5 -310.5q0 -204 -124.5 -311t-360.5 -107h-406v1450h750l12 -104h-649v-510zM340 102h262q205 0 303.5 77.5t98.5 238.5t-98 238t-304 77h-262v-631z" />
    <glyph glyph-name="uni0412" unicode="&#x412;" horiz-adv-x="1245" 
d="M602 0h-375v1450h373q223 0 342 -94.5t119 -268.5q0 -119 -66 -205t-184 -120v-2q155 -26 239.5 -120.5t84.5 -242.5q0 -199 -131.5 -298t-401.5 -99zM340 1348v-553h260q164 0 256 76t92 212q0 128 -92.5 196.5t-265.5 68.5h-250zM340 700v-598h256q221 0 322.5 72
t101.5 223q0 303 -412 303h-268z" />
    <glyph glyph-name="uni0413" unicode="&#x413;" horiz-adv-x="956" 
d="M227 0v1450h703v-104h-590v-1346h-113z" />
    <glyph glyph-name="uni0414" unicode="&#x414;" horiz-adv-x="1392" 
d="M1159 1450v-1346h156v-442h-105v338h-1071v-338h-104v432h4q90 16 139.5 87t71.5 217.5t22 404.5v647h887zM229 106v-2h820v1242h-664v-586q0 -285 -36.5 -436.5t-119.5 -217.5z" />
    <glyph glyph-name="uni0415" unicode="&#x415;" horiz-adv-x="1189" 
d="M991 692h-651v-588h700l-14 -104h-799v1450h799l14 -104h-700v-551h651v-103z" />
    <glyph glyph-name="uni0416" unicode="&#x416;" horiz-adv-x="1937" 
d="M1878 1444l-483 -690l524 -748l-4 -6h-133l-477 684h-281v-684h-113v684h-280l-477 -684h-134l-2 6l523 748l-482 690l2 6h123l459 -664h268v664h113v-664h270l457 664h125z" />
    <glyph glyph-name="uni0417" unicode="&#x417;" horiz-adv-x="1112" 
d="M125 1253l-14 111q94 60 206.5 93.5t219.5 33.5q192 0 308 -102t116 -271q0 -133 -77.5 -228.5t-213.5 -127.5v-4q148 -26 232.5 -127t84.5 -250q0 -189 -131.5 -305.5t-343.5 -116.5q-222 0 -420 125l17 111h6q183 -132 391 -132q171 0 268.5 87.5t97.5 240.5
q0 154 -105.5 235t-307.5 81h-193v100h187q189 0 291 77t102 218q0 133 -85.5 208.5t-236.5 75.5q-208 0 -393 -133h-6z" />
    <glyph glyph-name="uni0418" unicode="&#x418;" horiz-adv-x="1607" 
d="M227 1450h113v-897v-375h6q68 96 170 236l760 1036h102v-1450h-110v897v375h-6q-115 -161 -172 -238l-758 -1034h-105v1450z" />
    <glyph glyph-name="uni0419" unicode="&#x419;" horiz-adv-x="1607" 
d="M807 1561q-127 0 -205.5 68t-93.5 190l10 10h72q40 -184 217 -184q178 0 215 184h74l10 -10q-15 -122 -93.5 -190t-205.5 -68zM227 1450h113v-897v-375h6q68 96 170 236l760 1036h102v-1450h-110v897v375h-6q-115 -161 -172 -238l-758 -1034h-105v1450z" />
    <glyph glyph-name="uni041A" unicode="&#x41a;" horiz-adv-x="1282" 
d="M1233 1444l-522 -696l563 -742l-2 -6h-131l-520 684h-281v-684h-113v1450h113v-664h274l494 664h123z" />
    <glyph glyph-name="uni041B" unicode="&#x41b;" horiz-adv-x="1466" 
d="M96 0v98l6 4q38 -10 64 -10q70 0 109 58.5t57 196t18 384.5v719h887v-1450h-111v1346h-663v-646q0 -273 -27 -426.5t-86 -219.5t-164 -66q-44 0 -90 12z" />
    <glyph glyph-name="uni041C" unicode="&#x41c;" horiz-adv-x="1869" 
d="M338 0h-111v1450h156l551 -1079h4l551 1079h153v-1450h-112l2 815v490h-4q-153 -300 -199 -385l-383 -748h-24l-383 748q-196 383 -197 385h-4v-490v-815z" />
    <glyph glyph-name="uni041D" unicode="&#x41d;" horiz-adv-x="1564" 
d="M1225 786v664h112v-1450h-112v684h-885v-684h-113v1450h113v-664h885z" />
    <glyph glyph-name="uni041E" unicode="&#x41e;" horiz-adv-x="1695" 
d="M848 -41q-216 0 -383 101.5t-255.5 275t-88.5 389.5q0 161 51 301t143.5 243t230 162.5t302.5 59.5t303 -59.5t230 -162.5t143 -243t51 -301t-51.5 -301.5t-144.5 -243.5t-230.5 -162t-300.5 -59zM848 68q137 0 251.5 51t192 139.5t120 209t42.5 257.5q0 186 -72.5 334.5
t-211.5 235.5t-322 87q-137 0 -251.5 -50.5t-192 -138.5t-120 -208.5t-42.5 -259.5q0 -184 73 -332.5t212.5 -236.5t320.5 -88z" />
    <glyph glyph-name="uni041F" unicode="&#x41f;" horiz-adv-x="1552" 
d="M340 0h-113v1450h1098v-1450h-113v1346h-872v-1346z" />
    <glyph glyph-name="uni0420" unicode="&#x420;" horiz-adv-x="1173" 
d="M606 1450q245 0 368.5 -109t123.5 -321q0 -200 -128.5 -313t-369.5 -113h-260v-594h-113v1450h379zM340 696h233q211 0 310.5 81t99.5 243q0 167 -98.5 247.5t-302.5 80.5h-242v-652z" />
    <glyph glyph-name="uni0421" unicode="&#x421;" horiz-adv-x="1574" 
d="M848 -41q-209 0 -375.5 98t-259 272.5t-92.5 393.5q0 166 54.5 309t149.5 243.5t230 158t291 57.5q291 0 538 -203l-16 -121h-6q-238 215 -512 215q-176 0 -314.5 -83.5t-216 -233t-77.5 -338.5q0 -289 172 -474t440 -185q278 0 516 215h6l17 -119q-246 -205 -545 -205z
" />
    <glyph glyph-name="uni0422" unicode="&#x422;" horiz-adv-x="1187" 
d="M25 1450h1136v-104h-512v-1346h-110v1346h-514v104z" />
    <glyph glyph-name="uni0423" unicode="&#x423;" horiz-adv-x="1224" 
d="M25 1444l553 -1137q-47 -130 -96.5 -182.5t-121.5 -52.5q-66 0 -135 34l-4 -4l-16 -98q81 -37 166 -37q96 0 160 56.5t126 195.5l543 1225l-4 6h-119l-315 -737l-125 -285h-4q-67 146 -129 277l-359 745h-116z" />
    <glyph glyph-name="uni0424" unicode="&#x424;" horiz-adv-x="1718" 
d="M1595 752q0 -278 -183.5 -446t-498.5 -177v-129h-110v129q-314 9 -498 177.5t-184 445.5t183 444t499 176v119h110v-119q315 -9 498.5 -175.5t183.5 -444.5zM913 1270v-1039q261 9 414.5 150t153.5 371q0 232 -152 370.5t-416 147.5zM238 752q0 -230 152 -371t413 -150
v1039q-263 -9 -414 -148t-151 -370z" />
    <glyph glyph-name="uni0425" unicode="&#x425;" horiz-adv-x="1204" 
d="M158 0h-129l-2 6l512 746l-492 692l4 6h131l215 -309q104 -148 209 -303h2q146 221 203 301l213 311h129l4 -6l-489 -699l510 -739l-2 -6h-134l-237 354q-39 56 -106.5 159t-94.5 142h-4q-138 -207 -201 -297z" />
    <glyph glyph-name="uni0426" unicode="&#x426;" horiz-adv-x="1533" 
d="M1300 1450v-1346h156v-442h-102v338h-1127v1450h113v-1346h850v1346h110z" />
    <glyph glyph-name="uni0427" unicode="&#x427;" horiz-adv-x="1427" 
d="M1090 745v705h110v-1450h-110v637q-128 -81 -240.5 -117.5t-231.5 -36.5q-434 0 -434 467v500h111v-473q0 -206 82 -298.5t254 -92.5q230 0 459 159z" />
    <glyph glyph-name="uni0428" unicode="&#x428;" horiz-adv-x="2183" 
d="M1843 104v1346h113v-1450h-1729v1450h113v-1346h696v1346h111v-1346h696z" />
    <glyph glyph-name="uni0429" unicode="&#x429;" horiz-adv-x="2187" 
d="M1956 1450v-1346h153v-442h-102v338h-1780v1450h113v-1346h696v1346h111v-1346h696v1346h113z" />
    <glyph glyph-name="uni042A" unicode="&#x42a;" horiz-adv-x="1314" 
d="M469 860h293q236 0 360.5 -111t124.5 -319q0 -210 -124 -320t-361 -110h-406v1348h-344l13 102h444v-590zM469 102h262q206 0 304 80.5t98 249.5q0 167 -98 246.5t-304 79.5h-262v-656z" />
    <glyph glyph-name="uni042B" unicode="&#x42b;" horiz-adv-x="1753" 
d="M633 0h-406v1450h113v-590h293q234 0 359.5 -111.5t125.5 -318.5q0 -209 -124.5 -319.5t-360.5 -110.5zM1413 0v1450h111v-1450h-111zM340 758v-656h262q206 0 304 80.5t98 249.5q0 167 -98 246.5t-304 79.5h-262z" />
    <glyph glyph-name="uni042C" unicode="&#x42c;" horiz-adv-x="1185" 
d="M633 0h-406v1450h113v-590h293q234 0 359.5 -111.5t125.5 -318.5q0 -209 -124.5 -319.5t-360.5 -110.5zM340 758v-656h262q206 0 304 80.5t98 249.5q0 167 -98 246.5t-304 79.5h-262z" />
    <glyph glyph-name="uni042D" unicode="&#x42d;" horiz-adv-x="1574" 
d="M754 1491q209 0 368.5 -97.5t245.5 -272t86 -398.5q0 -223 -86 -396.5t-246.5 -270.5t-371.5 -97q-152 0 -298.5 49.5t-269.5 145.5l17 118h6q245 -204 543 -204q260 0 418 172t169 452h-956v103h954q-19 265 -174.5 426t-406.5 161q-296 0 -537 -204h-6l-16 120
q252 193 561 193z" />
    <glyph glyph-name="uni042E" unicode="&#x42e;" horiz-adv-x="2177" 
d="M1356 1491q211 0 371.5 -101t244.5 -274.5t84 -390.5q0 -163 -50 -303.5t-140 -243t-221.5 -161t-288.5 -58.5q-152 0 -280.5 55t-218 151.5t-142.5 230t-60 288.5h-315v-684h-113v1450h113v-664h317q13 202 99.5 361t242.5 251.5t357 92.5zM1356 68q173 0 306 86.5
t203 235.5t70 335q0 188 -69.5 337t-202.5 234.5t-307 85.5q-175 0 -309 -85.5t-204.5 -234.5t-70.5 -337q0 -186 71 -335t205 -235.5t308 -86.5z" />
    <glyph glyph-name="uni042F" unicode="&#x42f;" horiz-adv-x="1232" 
d="M655 1450h351v-1450h-113v629h-295l-426 -629h-129l-4 6l438 637q-162 29 -247 128.5t-85 260.5q0 203 130 310.5t380 107.5zM641 731h252v617h-231q-205 0 -305.5 -78t-100.5 -238q0 -301 385 -301z" />
    <glyph glyph-name="uni0430" unicode="&#x430;" horiz-adv-x="1044" 
d="M371 -41q-119 0 -189.5 67t-70.5 179q0 168 149 258t488 127v72q0 145 -50.5 207.5t-167.5 62.5q-83 0 -175.5 -34t-172.5 -93h-6l-12 100q86 56 188.5 88.5t190.5 32.5q309 0 309 -332v-694h-88l-10 162q-108 -112 -194.5 -157.5t-188.5 -45.5zM391 47q81 0 166 45.5
t191 145.5v278q-292 -36 -412.5 -106t-120.5 -195q0 -78 46.5 -123t129.5 -45z" />
    <glyph glyph-name="uni0431" unicode="&#x431;" horiz-adv-x="1183" 
d="M653 985q190 0 308 -135t118 -361q0 -233 -133.5 -381.5t-347.5 -148.5q-218 0 -341.5 131t-123.5 367v205q0 233 38.5 380.5t118.5 232t216 130.5q64 20 161.5 44.5t163 46t119.5 54.5l6 -2l13 -96q-45 -31 -109.5 -52t-162.5 -42.5t-150 -36.5q-170 -53 -238.5 -185
t-77.5 -409q67 114 182.5 186t239.5 72zM596 55q170 0 271.5 119t101.5 315q0 186 -91 292t-245 106q-115 0 -220 -73t-173 -193l-2 -170q0 -186 95.5 -291t262.5 -105z" />
    <glyph glyph-name="uni0432" unicode="&#x432;" horiz-adv-x="1052" 
d="M588 0h-395v985h370q158 0 244 -66.5t86 -181.5q0 -162 -168 -215v-2q106 -22 162.5 -83t56.5 -154q0 -130 -95.5 -206.5t-260.5 -76.5zM295 891v-340h256q116 0 178 44.5t62 129.5q0 166 -240 166h-256zM295 467v-373h297q121 0 184.5 48.5t63.5 140.5q0 184 -254 184
h-291z" />
    <glyph glyph-name="uni0433" unicode="&#x433;" horiz-adv-x="827" 
d="M297 0h-104v985h593v-94h-489v-891z" />
    <glyph glyph-name="uni0434" unicode="&#x434;" horiz-adv-x="1114" 
d="M944 985v-891h115v-391h-92v297h-817v-297h-95v385q67 3 104.5 39t55.5 121.5t18 238.5v498h711zM242 96v-2h598v797h-502v-412q0 -166 -23 -255t-73 -128z" />
    <glyph glyph-name="uni0435" unicode="&#x435;" horiz-adv-x="1118" 
d="M1008 483h-793v-16q0 -187 104.5 -300.5t264.5 -113.5q200 0 350 125h6l12 -102q-171 -117 -372 -117q-215 0 -344.5 146t-129.5 384t129 387.5t336 149.5q200 0 319.5 -139t119.5 -375q0 -17 -2 -29zM571 932q-146 0 -242.5 -100t-111.5 -265l682 -2q-6 171 -93.5 269
t-234.5 98z" />
    <glyph glyph-name="uni0436" unicode="&#x436;" horiz-adv-x="1454" 
d="M1374 977l-346 -453l408 -518l-2 -6h-123l-359 461h-174v-461h-102v461h-178l-357 -461h-118l-5 6l408 520l-346 451l2 8h117l325 -430h152v430h102v-430h156l326 430h112z" />
    <glyph glyph-name="uni0437" unicode="&#x437;" horiz-adv-x="948" 
d="M465 -41q-183 0 -365 102l15 105h6q161 -113 348 -113q121 0 189.5 57.5t70.5 157.5q0 92 -68 141.5t-194 49.5h-223v94h207q121 0 186 51t65 150q0 85 -61 131.5t-170 46.5q-176 0 -342 -119h-6l-14 98q84 53 183.5 84t190.5 31q152 0 239 -69t87 -189q0 -89 -47.5 -156
t-130.5 -96v-2q94 -22 149 -89t54 -159q-2 -140 -102 -223.5t-267 -83.5z" />
    <glyph glyph-name="uni0438" unicode="&#x438;" horiz-adv-x="1191" 
d="M444 360l465 625h90v-985h-102v623q0 75 4 211h-2l-156 -213l-460 -621h-90v985h102v-623q0 -74 -4 -210h4q13 18 67 94t82 114z" />
    <glyph glyph-name="uni0439" unicode="&#x439;" horiz-adv-x="1191" 
d="M596 1188q-119 0 -195.5 67t-93.5 191l12 10h74q40 -184 203 -184q164 0 201 184h75l11 -10q-15 -124 -91.5 -191t-195.5 -67zM444 360l465 625h90v-985h-102v623q0 75 4 211h-2l-156 -213l-460 -621h-90v985h102v-623q0 -74 -4 -210h4q13 18 67 94t82 114z" />
    <glyph glyph-name="uni043A" unicode="&#x43a;" horiz-adv-x="985" 
d="M915 979l-372 -461l434 -512l-2 -6h-125l-385 461h-168v-461h-104v985h104v-430h158l340 430h116z" />
    <glyph glyph-name="uni043B" unicode="&#x43b;" horiz-adv-x="1146" 
d="M51 0v84l6 4q24 -6 45 -6q78 0 110 65t32 228v610h710v-985h-104v891h-502v-533q0 -192 -52 -279t-169 -87q-37 0 -76 8z" />
    <glyph glyph-name="uni043C" unicode="&#x43c;" horiz-adv-x="1359" 
d="M291 0h-98v985h104l381 -682h4l381 682h104v-985h-100v532q0 185 2 283h-4q-24 -46 -72.5 -131.5t-52.5 -93.5l-252 -449h-18l-250 449q-19 35 -61.5 109.5t-65.5 115.5h-2v-283v-532z" />
    <glyph glyph-name="uni043D" unicode="&#x43d;" horiz-adv-x="1191" 
d="M895 555v430h104v-985h-104v461h-598v-461h-104v985h104v-430h598z" />
    <glyph glyph-name="uni043E" unicode="&#x43e;" horiz-adv-x="1212" 
d="M606 -41q-225 0 -362.5 150.5t-137.5 382.5q0 231 137.5 382.5t362.5 151.5t362.5 -151.5t137.5 -382.5q0 -232 -137.5 -382.5t-362.5 -150.5zM606 57q175 0 282 122.5t107 312.5t-106 313t-283 123t-284 -123t-107 -313t107.5 -312.5t283.5 -122.5z" />
    <glyph glyph-name="uni043F" unicode="&#x43f;" horiz-adv-x="1191" 
d="M999 985v-985h-104v891h-598v-891h-104v985h806z" />
    <glyph glyph-name="uni0440" unicode="&#x440;" horiz-adv-x="1196" 
d="M657 1026q195 0 311.5 -144.5t116.5 -377.5q0 -241 -132.5 -393t-334.5 -152q-164 0 -321 117v-527h-104v1436h92l4 -133q174 174 368 174zM604 55q165 0 269 123t104 326q0 191 -92 307.5t-250 116.5q-177 0 -338 -164v-594q153 -115 307 -115z" />
    <glyph glyph-name="uni0441" unicode="&#x441;" horiz-adv-x="1032" 
d="M569 -41q-207 0 -335 146t-128 384t131 387.5t343 149.5q176 0 338 -117l-15 -106h-6q-83 68 -157 96.5t-158 28.5q-160 0 -263.5 -118.5t-103.5 -317.5q0 -198 102 -317.5t256 -119.5q168 0 324 125h6l15 -104q-176 -117 -349 -117z" />
    <glyph glyph-name="uni0442" unicode="&#x442;" horiz-adv-x="903" 
d="M504 0h-105v891h-358v94h821v-94h-358v-891z" />
    <glyph glyph-name="uni0443" unicode="&#x443;" horiz-adv-x="978" 
d="M51 985h113l125 -317q91 -228 200 -518h5l211 514l133 321h112l4 -6l-618 -1430h-109v7l209 471l-389 952z" />
    <glyph glyph-name="uni0444" unicode="&#x444;" horiz-adv-x="1349" 
d="M1243 492q0 -232 -139.5 -378t-376.5 -155v-410h-104v410q-237 9 -377 155t-140 378q0 235 138.5 380t378.5 154v479h104v-479q240 -9 378 -154t138 -380zM215 492q0 -195 110 -315.5t302 -127.5v885q-195 -7 -303.5 -125.5t-108.5 -316.5zM725 934v-885q193 7 301.5 127
t108.5 316q0 198 -107.5 316.5t-302.5 125.5z" />
    <glyph glyph-name="uni0445" unicode="&#x445;" horiz-adv-x="931" 
d="M57 985h121l170 -244q13 -19 37 -53.5t43 -62.5t35 -52h4q42 58 117 168l170 244h123l2 -8l-353 -477l357 -494l-2 -6h-121l-187 264q-21 30 -57 85t-49 75h-4q-65 -101 -109 -160l-182 -264h-121l-2 6l357 494l-351 477z" />
    <glyph glyph-name="uni0446" unicode="&#x446;" horiz-adv-x="1183" 
d="M987 985v-891h141v-391h-92v297h-843v985h104v-891h586v891h104z" />
    <glyph glyph-name="uni0447" unicode="&#x447;" horiz-adv-x="1128" 
d="M831 492v493h105v-985h-105v393q-194 -96 -342 -96q-335 0 -335 369v319h104v-305q0 -155 61.5 -222t190.5 -65q147 0 321 99z" />
    <glyph glyph-name="uni0448" unicode="&#x448;" horiz-adv-x="1705" 
d="M1409 90v895h104v-985h-1320v985h104v-895h504v895h104v-895h504z" />
    <glyph glyph-name="uni0449" unicode="&#x449;" horiz-adv-x="1708" 
d="M1513 985v-891h140v-391h-92v297h-1368v985h104v-895h504v895h104v-895h504v895h104z" />
    <glyph glyph-name="uni044A" unicode="&#x44a;" horiz-adv-x="1103" 
d="M414 625h276q164 0 254 -80t90 -219q0 -152 -96 -239t-276 -87h-353v891h-278v94h383v-360zM414 90h260q126 0 191 61t65 168q0 218 -258 218h-258v-447z" />
    <glyph glyph-name="uni044B" unicode="&#x44b;" horiz-adv-x="1474" 
d="M297 625h274q164 0 254 -80t90 -219q0 -152 -96 -239t-276 -87h-350v985h104v-360zM1180 0v985h104v-985h-104zM297 90h258q126 0 191 61t65 168q0 218 -258 218h-256v-447z" />
    <glyph glyph-name="uni044C" unicode="&#x44c;" horiz-adv-x="987" 
d="M297 625h274q164 0 254 -80t90 -219q0 -152 -96 -239t-276 -87h-350v985h104v-360zM297 90h258q126 0 191 61t65 168q0 218 -258 218h-256v-447z" />
    <glyph glyph-name="uni044D" unicode="&#x44d;" horiz-adv-x="1036" 
d="M483 1026q211 0 329 -143t118 -391q0 -241 -124 -387t-327 -146t-364 115l14 102h6q142 -121 338 -121q152 0 244.5 107.5t103.5 294.5h-545v94h543q-12 187 -102.5 282t-237.5 95q-182 0 -338 -117h-6l-14 102q165 113 362 113z" />
    <glyph glyph-name="uni044E" unicode="&#x44e;" horiz-adv-x="1587" 
d="M991 1026q217 0 353.5 -149.5t136.5 -382.5q0 -236 -136.5 -385.5t-353.5 -149.5q-215 0 -347.5 139t-143.5 363h-211v-461h-96v985h96v-430h213q19 210 151 340.5t338 130.5zM991 57q167 0 274 123t107 314q0 190 -106.5 312t-274.5 122q-173 0 -278 -121.5t-105 -312.5
q0 -193 105 -315t278 -122z" />
    <glyph glyph-name="uni044F" unicode="&#x44f;" horiz-adv-x="1050" 
d="M860 985v-985h-104v395h-281l-239 -395h-113l-4 6l243 395q-107 14 -170 88.5t-63 190.5q0 140 98 222.5t281 82.5h352zM442 481h314v414h-260q-131 0 -195.5 -56.5t-64.5 -156.5q0 -201 206 -201z" />
    <glyph glyph-name="uni0450" unicode="&#x450;" horiz-adv-x="1118" 
d="M422 1489l205 -326h-88l-238 316l6 10h115zM1008 483h-793v-16q0 -187 104.5 -300.5t264.5 -113.5q200 0 350 125h6l12 -102q-171 -117 -372 -117q-215 0 -344.5 146t-129.5 384t129 387.5t336 149.5q200 0 319.5 -139t119.5 -375q0 -17 -2 -29zM571 932
q-146 0 -242.5 -100t-111.5 -265l682 -2q-6 171 -93.5 269t-234.5 98z" />
    <glyph glyph-name="uni0451" unicode="&#x451;" horiz-adv-x="1118" 
d="M408 1217q-35 0 -56.5 22t-21.5 59q0 34 22.5 58t55.5 24t55 -24t22 -58q0 -37 -21 -59t-56 -22zM731 1217q-35 0 -56.5 22t-21.5 59q0 34 22.5 58t55.5 24q35 0 57.5 -24t22.5 -58q0 -37 -21.5 -59t-58.5 -22zM1008 483h-793v-16q0 -187 104.5 -300.5t264.5 -113.5
q200 0 350 125h6l12 -102q-171 -117 -372 -117q-215 0 -344.5 146t-129.5 384t129 387.5t336 149.5q200 0 319.5 -139t119.5 -375q0 -17 -2 -29zM571 932q-146 0 -242.5 -100t-111.5 -265l682 -2q-6 171 -93.5 269t-234.5 98z" />
    <glyph glyph-name="uni0452" unicode="&#x452;" horiz-adv-x="1206" 
d="M702 1026q151 0 232.5 -101.5t81.5 -291.5v-488q0 -192 -68.5 -293.5t-226.5 -154.5l-37 80l2 8q120 44 172.5 124t52.5 236v447q0 171 -57 253.5t-174 82.5q-201 0 -383 -234v-694h-104v1221h-146v88h146v196h104v-196h362v-88h-362v-422q183 227 405 227z" />
    <glyph glyph-name="uni0453" unicode="&#x453;" horiz-adv-x="827" 
d="M479 1163h-90l205 326h115l6 -10zM297 0h-104v985h593v-94h-489v-891z" />
    <glyph glyph-name="uni0454" unicode="&#x454;" horiz-adv-x="1036" 
d="M901 176h6l15 -102q-161 -115 -353 -115q-206 0 -334.5 147t-128.5 386t130 386.5t339 147.5q182 0 340 -113l-14 -102h-6q-149 117 -315 117q-149 0 -249.5 -97.5t-113.5 -281.5h541v-92h-541q9 -185 106 -293.5t250 -108.5q186 0 328 121z" />
    <glyph glyph-name="uni0455" unicode="&#x455;" horiz-adv-x="878" 
d="M436 -41q-176 0 -336 107l13 104h6q86 -65 161 -92t158 -27q103 0 166.5 48.5t63.5 127.5q0 74 -49.5 124.5t-186.5 107.5q-127 51 -196 100.5t-94 99t-25 119.5q0 105 84.5 176.5t220.5 71.5q159 0 313 -96l-14 -103h-6q-147 107 -295 107q-89 0 -143 -44.5t-54 -113.5
q0 -46 18.5 -78t74.5 -69t163 -84q167 -72 231 -140.5t64 -175.5q0 -119 -93.5 -194.5t-244.5 -75.5z" />
    <glyph glyph-name="uni0456" unicode="&#x456;" horiz-adv-x="487" 
d="M244 1225q-36 0 -60 24t-24 60q0 35 24.5 59.5t59.5 24.5t58.5 -24.5t23.5 -59.5t-23.5 -59.5t-58.5 -24.5zM297 0h-104v985h104v-985z" />
    <glyph glyph-name="uni0457" unicode="&#x457;" horiz-adv-x="487" 
d="M113 1227q-34 0 -54 23t-20 61q0 37 21 60.5t53 23.5q33 0 53 -23.5t20 -60.5q0 -39 -19 -61.5t-54 -22.5zM373 1227q-34 0 -54 23t-20 61q0 37 21 60.5t53 23.5q33 0 53 -23.5t20 -60.5q0 -39 -19 -61.5t-54 -22.5zM297 0h-104v985h104v-985z" />
    <glyph glyph-name="uni0458" unicode="&#x458;" horiz-adv-x="487" 
d="M244 1223q-35 0 -59.5 24.5t-24.5 61.5q0 35 24.5 59.5t59.5 24.5t58.5 -24.5t23.5 -59.5q0 -36 -23.5 -61t-58.5 -25zM86 -492l-49 72l2 10q51 27 82.5 58.5t51.5 88.5t20 140v1108h104v-1098q0 -155 -51 -239t-160 -140z" />
    <glyph glyph-name="uni0459" unicode="&#x459;" horiz-adv-x="1667" 
d="M956 575h287q171 0 262.5 -72.5t91.5 -215.5q0 -141 -89.5 -214t-258.5 -73h-397v891h-504v-533q0 -192 -52 -279t-169 -87q-37 0 -76 8v84l6 4q24 -6 45 -6q78 0 110 65t32 228v610h712v-410zM956 94h285q250 0 250 193q0 194 -262 194h-273v-387z" />
    <glyph glyph-name="uni045A" unicode="&#x45a;" horiz-adv-x="1705" 
d="M995 575h285q171 0 262.5 -73t91.5 -215q0 -141 -89.5 -214t-258.5 -73h-395v481h-594v-481h-104v985h104v-410h594v410h104v-410zM995 94h283q123 0 187.5 48.5t64.5 144.5q0 194 -262 194h-273v-387z" />
    <glyph glyph-name="uni045B" unicode="&#x45b;" horiz-adv-x="1206" 
d="M702 1026q151 0 232.5 -101.5t81.5 -291.5v-633h-105v592q0 171 -58 253.5t-177 82.5q-98 0 -195 -61.5t-184 -172.5v-694h-104v1221h-146v88h146v196h104v-196h362v-88h-362v-422q185 227 405 227z" />
    <glyph glyph-name="uni045C" unicode="&#x45c;" horiz-adv-x="985" 
d="M770 1489l6 -10l-235 -316h-90l204 326h115zM915 979l-372 -461l434 -512l-2 -6h-125l-385 461h-168v-461h-104v985h104v-430h158l340 430h116z" />
    <glyph glyph-name="uni045D" unicode="&#x45d;" horiz-adv-x="1191" 
d="M449 1489l204 -326h-88l-237 316l6 10h115zM444 360l465 625h90v-985h-102v623q0 75 4 211h-2l-156 -213l-460 -621h-90v985h102v-623q0 -74 -4 -210h4q13 18 67 94t82 114z" />
    <glyph glyph-name="uni045E" unicode="&#x45e;" horiz-adv-x="978" 
d="M494 1188q-119 0 -195.5 67t-93.5 191l12 10h74q40 -184 203 -184t200 184h76l10 -10q-15 -124 -91 -191t-195 -67zM51 985h113l125 -317q91 -228 200 -518h5l211 514l133 321h112l4 -6l-618 -1430h-109v7l209 471l-389 952z" />
    <glyph glyph-name="uni045F" unicode="&#x45f;" horiz-adv-x="1179" 
d="M883 94v891h104v-985h-350v-297h-94v297h-350v985h104v-891h586z" />
    <glyph glyph-name="uni0490" unicode="&#x490;" horiz-adv-x="974" 
d="M846 1450v254h104v-358h-610v-1346h-113v1450h619z" />
    <glyph glyph-name="uni0491" unicode="&#x491;" horiz-adv-x="827" 
d="M692 985v205h94v-299h-489v-891h-104v985h499z" />
    <glyph glyph-name="Wgrave" unicode="&#x1e80;" horiz-adv-x="1957" 
d="M1036 1579h-92l-227 264l6 10h117zM49 1450h117l246 -795l141 -456h4q10 30 63 200t82 256l256 779h43l254 -777q25 -75 74.5 -229t73.5 -229h2q25 85 74.5 243.5t66.5 212.5l246 795h117l4 -6l-463 -1471h-78l-272 834q-35 106 -117 375h-4q-17 -51 -57.5 -180.5
t-61.5 -194.5l-274 -834h-78l-463 1471z" />
    <glyph glyph-name="wgrave" unicode="&#x1e81;" horiz-adv-x="1458" 
d="M582 1489l204 -326h-88l-237 316l6 10h115zM63 985h109l109 -340q144 -453 153 -481h4q30 93 86 255.5t76 223.5l111 330h41l108 -328q19 -58 75.5 -222.5t86.5 -258.5h4q28 92 81 254t73 227l108 340h107l4 -6l-340 -1008h-53l-150 432q-64 183 -125 375h-4
q-56 -186 -123 -377l-149 -430h-54l-342 1008z" />
    <glyph glyph-name="Wacute" unicode="&#x1e82;" horiz-adv-x="1957" 
d="M1014 1579h-94l196 274h117l6 -10zM49 1450h117l246 -795l141 -456h4q10 30 63 200t82 256l256 779h43l254 -777q25 -75 74.5 -229t73.5 -229h2q25 85 74.5 243.5t66.5 212.5l246 795h117l4 -6l-463 -1471h-78l-272 834q-35 106 -117 375h-4q-17 -51 -57.5 -180.5
t-61.5 -194.5l-274 -834h-78l-463 1471z" />
    <glyph glyph-name="wacute" unicode="&#x1e83;" horiz-adv-x="1458" 
d="M760 1163h-90l204 326h115l6 -10zM63 985h109l109 -340q144 -453 153 -481h4q30 93 86 255.5t76 223.5l111 330h41l108 -328q19 -58 75.5 -222.5t86.5 -258.5h4q28 92 81 254t73 227l108 340h107l4 -6l-340 -1008h-53l-150 432q-64 183 -125 375h-4q-56 -186 -123 -377
l-149 -430h-54l-342 1008z" />
    <glyph glyph-name="Wdieresis" unicode="&#x1e84;" horiz-adv-x="1957" 
d="M805 1628q-34 0 -57 23.5t-23 58.5t23.5 59.5t56.5 24.5q34 0 57 -24.5t23 -59.5t-22.5 -58.5t-57.5 -23.5zM1151 1628q-34 0 -57 23.5t-23 58.5t23.5 59.5t56.5 24.5q34 0 57 -24.5t23 -59.5t-22.5 -58.5t-57.5 -23.5zM49 1450h117l246 -795l141 -456h4q10 30 63 200
t82 256l256 779h43l254 -777q25 -75 74.5 -229t73.5 -229h2q25 85 74.5 243.5t66.5 212.5l246 795h117l4 -6l-463 -1471h-78l-272 834q-35 106 -117 375h-4q-17 -51 -57.5 -180.5t-61.5 -194.5l-274 -834h-78l-463 1471z" />
    <glyph glyph-name="wdieresis" unicode="&#x1e85;" horiz-adv-x="1458" 
d="M567 1217q-35 0 -56.5 22t-21.5 59q0 34 22.5 58t55.5 24t55.5 -24t22.5 -58q0 -37 -21.5 -59t-56.5 -22zM891 1217q-35 0 -56.5 22t-21.5 59q0 34 22.5 58t55.5 24q35 0 57.5 -24t22.5 -58q0 -37 -21.5 -59t-58.5 -22zM63 985h109l109 -340q144 -453 153 -481h4
q30 93 86 255.5t76 223.5l111 330h41l108 -328q19 -58 75.5 -222.5t86.5 -258.5h4q28 92 81 254t73 227l108 340h107l4 -6l-340 -1008h-53l-150 432q-64 183 -125 375h-4q-56 -186 -123 -377l-149 -430h-54l-342 1008z" />
    <glyph glyph-name="uni1E9E" unicode="&#x1e9e;" horiz-adv-x="1435" 
d="M1214 1362l-344 -541q224 -1 348.5 -113t124.5 -305q0 -199 -116.5 -321.5t-315.5 -122.5q-215 0 -385 125l15 113h6q175 -138 364 -138q142 0 230 92t88 240q0 330 -398 330h-96v78l346 547h-741v-1346h-113v1450h987v-88z" />
    <glyph glyph-name="Ygrave" unicode="&#x1ef2;" horiz-adv-x="1169" 
d="M643 1579h-92l-227 264l6 10h116zM27 1450h120l244 -418q38 -64 105 -180.5t88 -151.5h2l192 332l242 418h123l2 -6l-504 -842v-602h-113v602l-505 842z" />
    <glyph glyph-name="ygrave" unicode="&#x1ef3;" horiz-adv-x="978" 
d="M346 1489l205 -326h-88l-238 316l6 10h115zM51 985h113l125 -317q91 -228 200 -518h5l211 514l133 321h112l4 -6l-618 -1430h-109v7l209 471l-389 952z" />
    <glyph glyph-name="uni2000" unicode="&#x2000;" horiz-adv-x="1024" 
 />
    <glyph glyph-name="uni2001" unicode="&#x2001;" horiz-adv-x="2048" 
 />
    <glyph glyph-name="uni2002" unicode="&#x2002;" horiz-adv-x="1024" 
 />
    <glyph glyph-name="uni2003" unicode="&#x2003;" horiz-adv-x="2048" 
 />
    <glyph glyph-name="uni2004" unicode="&#x2004;" horiz-adv-x="681" 
 />
    <glyph glyph-name="uni2005" unicode="&#x2005;" horiz-adv-x="512" 
 />
    <glyph glyph-name="uni2006" unicode="&#x2006;" horiz-adv-x="342" 
 />
    <glyph glyph-name="uni2007" unicode="&#x2007;" horiz-adv-x="1333" 
 />
    <glyph glyph-name="uni2008" unicode="&#x2008;" horiz-adv-x="409" 
 />
    <glyph glyph-name="uni2009" unicode="&#x2009;" horiz-adv-x="409" 
 />
    <glyph glyph-name="uni200A" unicode="&#x200a;" horiz-adv-x="292" 
 />
    <glyph glyph-name="uni200B" unicode="&#x200b;" 
 />
    <glyph glyph-name="uni200C" unicode="&#x200c;" 
d="M-297 1546l223 221l51 -49l-178 -172l178 -168l-51 -51zM201 1546l-178 172l51 49l223 -221l-223 -219l-51 51zM-39 1247h74v-1605h-74v1605z" />
    <glyph glyph-name="uni200D" unicode="&#x200d;" 
d="M-276 1718l51 49l223 -221l-223 -219l-51 51l178 168zM225 1767l51 -49l-178 -172l178 -168l-51 -51l-223 219zM-39 1247h74v-1605h-74v1605z" />
    <glyph glyph-name="figuredash" unicode="&#x2012;" horiz-adv-x="1200" 
d="M1071 645h-942v94h942v-94z" />
    <glyph glyph-name="endash" unicode="&#x2013;" horiz-adv-x="1159" 
d="M1051 420h-942v94h942v-94z" />
    <glyph glyph-name="emdash" unicode="&#x2014;" horiz-adv-x="1855" 
d="M1747 420h-1638v94h1638v-94z" />
    <glyph glyph-name="quoteleft" unicode="&#x2018;" horiz-adv-x="499" 
d="M141 883l-2 6l160 561h78l-135 -567h-101z" />
    <glyph glyph-name="quoteright" unicode="&#x2019;" horiz-adv-x="499" 
d="M358 1450l2 -4l-161 -563h-78l137 567h100z" />
    <glyph glyph-name="quotesinglbase" unicode="&#x201a;" horiz-adv-x="499" 
d="M358 244l2 -6l-161 -562h-78l137 568h100z" />
    <glyph glyph-name="quotedblleft" unicode="&#x201c;" horiz-adv-x="784" 
d="M141 883l-2 6l160 561h78l-135 -567h-101zM426 883l-2 6l162 561h78l-136 -567h-102z" />
    <glyph glyph-name="quotedblright" unicode="&#x201d;" horiz-adv-x="786" 
d="M358 1450l2 -4l-161 -563h-78l137 567h100zM645 1450l4 -4l-162 -563h-77l135 567h100z" />
    <glyph glyph-name="quotedblbase" unicode="&#x201e;" horiz-adv-x="786" 
d="M358 244l2 -6l-161 -562h-78l137 568h100zM645 244l2 -6l-162 -562h-77l135 568h102z" />
    <glyph glyph-name="dagger" unicode="&#x2020;" horiz-adv-x="1114" 
d="M612 -266l-110 2v1061h-400v102h400v551h110v-551h400v-102h-400v-1063z" />
    <glyph glyph-name="daggerdbl" unicode="&#x2021;" horiz-adv-x="1114" 
d="M612 -266h-110v465h-389v102h389v582h-389v102h389v465h110v-465h389v-102h-389v-582h389v-102h-389v-465z" />
    <glyph glyph-name="bullet" unicode="&#x2022;" horiz-adv-x="927" 
d="M463 446q-98 0 -166 68t-68 166t68 165.5t166 67.5q100 0 167.5 -67.5t67.5 -165.5t-68 -166t-167 -68z" />
    <glyph glyph-name="ellipsis" unicode="&#x2026;" horiz-adv-x="1556" 
d="M207 -20q-35 0 -59.5 25.5t-24.5 62.5t24.5 61.5t59.5 24.5q34 0 58 -25t24 -61q0 -37 -24 -62.5t-58 -25.5zM815 -20q-35 0 -59.5 25.5t-24.5 62.5t24.5 61.5t59.5 24.5q34 0 58 -25t24 -61q0 -37 -24 -62.5t-58 -25.5zM1423 -20q-35 0 -59.5 25.5t-24.5 62.5t24.5 61.5
t59.5 24.5q34 0 58 -25t24 -61q0 -37 -24 -62.5t-58 -25.5z" />
    <glyph glyph-name="uni202F" unicode="&#x202f;" horiz-adv-x="409" 
 />
    <glyph glyph-name="perthousand" unicode="&#x2030;" horiz-adv-x="2822" 
d="M561 793q-143 0 -240.5 96t-97.5 246t97.5 247t240.5 97t240.5 -97t97.5 -247t-97.5 -246t-240.5 -96zM612 0h-112l862 1450h113zM561 883q104 0 173 69.5t69 182.5t-69.5 183.5t-172.5 70.5q-102 0 -172 -70.5t-70 -183.5t70 -182.5t172 -69.5zM1413 -29
q-144 0 -241 95.5t-97 246.5q0 149 97.5 245.5t240.5 96.5t239.5 -96.5t96.5 -245.5q0 -151 -96.5 -246.5t-239.5 -95.5zM2261 -29q-143 0 -239.5 95.5t-96.5 246.5q0 149 96.5 245.5t239.5 96.5t240.5 -96.5t97.5 -245.5q0 -151 -97 -246.5t-241 -95.5zM1413 59
q102 0 172 70.5t70 183.5q0 112 -70 182t-172 70q-103 0 -172.5 -70t-69.5 -182q0 -113 69.5 -183.5t172.5 -70.5zM2261 59q103 0 172.5 70.5t69.5 183.5q0 112 -69.5 182t-172.5 70q-102 0 -172 -70t-70 -182q0 -113 70 -183.5t172 -70.5z" />
    <glyph glyph-name="minute" unicode="&#x2032;" horiz-adv-x="370" 
d="M207 1065h-80l68 481h110z" />
    <glyph glyph-name="second" unicode="&#x2033;" horiz-adv-x="669" 
d="M207 1065h-80l68 481h110zM506 1065h-80l70 481h110z" />
    <glyph glyph-name="guilsinglleft" unicode="&#x2039;" horiz-adv-x="589" 
d="M446 127h-86l-233 342l233 340h84l2 -10l-217 -330l220 -334z" />
    <glyph glyph-name="guilsinglright" unicode="&#x203a;" horiz-adv-x="589" 
d="M229 127h-86l-2 8l219 334l-217 330l2 10h84l234 -340z" />
    <glyph glyph-name="fraction" unicode="&#x2044;" horiz-adv-x="284" 
d="M463 1450h108l-387 -725l-372 -725h-109l414 778z" />
    <glyph glyph-name="uni2070" unicode="&#x2070;" horiz-adv-x="778" 
d="M391 915q-144 0 -226.5 119.5t-82.5 327.5q0 207 82.5 326.5t226.5 119.5q142 0 224.5 -119.5t82.5 -326.5t-82.5 -327t-224.5 -120zM391 1006q97 0 152 95.5t55 262.5q0 165 -55.5 260.5t-151.5 95.5q-98 0 -153.5 -95t-55.5 -261q0 -168 55.5 -263t153.5 -95z" />
    <glyph glyph-name="uni2074" unicode="&#x2074;" horiz-adv-x="778" 
d="M606 942h-96v188h-428l-8 50l458 620h74v-583h101v-87h-101v-188zM410 1501l-211 -284h313v219q0 122 10 227h-4q-41 -67 -108 -162z" />
    <glyph glyph-name="uni2075" unicode="&#x2075;" horiz-adv-x="778" 
d="M377 915q-139 0 -262 72l14 88h6q109 -76 234 -76q89 0 143.5 56t54.5 147q0 87 -52.5 140t-141.5 53q-115 0 -207 -68l-23 8l29 447h430v-84h-348l-16 -266q67 38 163 38q118 0 191.5 -73.5t73.5 -192.5q0 -127 -80 -208t-209 -81z" />
    <glyph glyph-name="uni2076" unicode="&#x2076;" horiz-adv-x="778" 
d="M434 1475q109 0 178.5 -74t69.5 -193q0 -132 -81 -212.5t-212 -80.5t-211 80.5t-80 212.5q0 75 33.5 146t110.5 176l182 252l102 -2l4 -15l-170 -235q-55 -74 -98 -117v-2q80 64 172 64zM393 1001q86 0 137.5 55.5t51.5 147.5q0 89 -50 143t-135 54q-97 0 -172 -78
q-28 -61 -28 -121q0 -90 54.5 -145.5t141.5 -55.5z" />
    <glyph glyph-name="uni2077" unicode="&#x2077;" horiz-adv-x="778" 
d="M297 942h-84l-6 12l328 744h-418v84h545l2 -15z" />
    <glyph glyph-name="uni2078" unicode="&#x2078;" horiz-adv-x="778" 
d="M526 1374q70 -25 112 -81.5t42 -131.5q0 -113 -81 -179.5t-212 -66.5q-129 0 -208 63.5t-79 174.5q0 157 154 219q-121 54 -121 199q0 109 72.5 173t189.5 64q112 0 183 -61.5t71 -165.5q0 -65 -33.5 -118.5t-89.5 -88.5zM391 1729q-73 0 -116.5 -44t-43.5 -118
q0 -68 35 -106.5t92 -49.5l88 -18q105 68 105 178q0 70 -45 114t-115 44zM389 997q88 0 137 46t49 122q0 66 -40.5 111t-110.5 57l-94 15q-127 -55 -127 -181q0 -77 50 -123.5t136 -46.5z" />
    <glyph glyph-name="uni2079" unicode="&#x2079;" horiz-adv-x="778" 
d="M389 1808q132 0 212.5 -80t80.5 -212q0 -75 -34 -145.5t-111 -176.5l-179 -252l-100 2l-6 14l166 236q55 74 100 117l-2 2q-80 -64 -170 -64q-111 0 -179.5 73.5t-68.5 193.5q0 131 80.5 211.5t210.5 80.5zM553 1401q29 60 29 121q0 90 -54 145t-141 55q-88 0 -139 -54.5
t-51 -147.5q0 -90 50 -143.5t134 -53.5q94 0 172 78z" />
    <glyph glyph-name="uni2080" unicode="&#x2080;" horiz-adv-x="778" 
d="M391 -313q-144 0 -226.5 119.5t-82.5 326.5q0 208 82.5 327.5t226.5 119.5q142 0 224.5 -120t82.5 -327t-82.5 -326.5t-224.5 -119.5zM391 -223q97 0 152 95.5t55 262.5q0 165 -56 261t-151 96q-98 0 -153.5 -95.5t-55.5 -261.5q0 -168 55.5 -263t153.5 -95z" />
    <glyph glyph-name="uni2081" unicode="&#x2081;" horiz-adv-x="778" 
d="M500 -287h-97v617q0 53 7 114l-2 2q-44 -27 -64 -38l-119 -70l-10 4l8 98l250 131h27v-858z" />
    <glyph glyph-name="uni2082" unicode="&#x2082;" horiz-adv-x="778" 
d="M655 -287h-534l-4 29l235 248q111 117 162 198t51 154q0 65 -44 106t-120 41q-116 0 -225 -77h-6l-14 98q53 29 124 49.5t134 20.5q114 0 182 -64.5t68 -165.5q0 -89 -50 -177.5t-151 -192.5l-86 -89q-44 -47 -96 -96v-2q76 6 143 6h231v-86z" />
    <glyph glyph-name="uni2083" unicode="&#x2083;" horiz-adv-x="778" 
d="M377 -313q-134 0 -252 71l14 90h6q109 -73 226 -73q84 0 134 47t50 121q0 77 -52.5 120t-150.5 43h-90v72h86q93 0 145 44t52 120q0 67 -45.5 109.5t-118.5 42.5q-118 0 -229 -78h-7l-12 88q52 33 124.5 54.5t141.5 21.5q107 0 175.5 -62t68.5 -160q0 -77 -43.5 -134
t-120.5 -77v-2q82 -15 129 -73.5t47 -139.5q0 -106 -77.5 -175.5t-200.5 -69.5z" />
    <glyph glyph-name="uni2084" unicode="&#x2084;" horiz-adv-x="778" 
d="M606 -287h-96v189h-428l-8 49l458 620h74v-583h101v-86h-101v-189zM410 272l-211 -284h313v219q0 122 10 227h-4q-41 -67 -108 -162z" />
    <glyph glyph-name="uni2085" unicode="&#x2085;" horiz-adv-x="778" 
d="M377 -313q-141 0 -262 71l14 88h6q107 -75 234 -75q89 0 143.5 55.5t54.5 146.5q0 87 -52.5 140t-141.5 53q-115 0 -207 -68l-23 8l29 447h430v-84h-348l-16 -266q69 39 163 39q118 0 191.5 -74t73.5 -193q0 -127 -79.5 -207.5t-209.5 -80.5z" />
    <glyph glyph-name="uni2086" unicode="&#x2086;" horiz-adv-x="778" 
d="M434 246q109 0 178.5 -73.5t69.5 -192.5q0 -132 -81 -212.5t-212 -80.5t-211 80.5t-80 212.5q0 75 33.5 145t110.5 176l182 252l102 -2l4 -14l-170 -236q-55 -74 -98 -117v-2q80 64 172 64zM393 -227q86 0 137.5 55t51.5 147q0 89 -50 143t-135 54q-97 0 -172 -78
q-28 -61 -28 -121q0 -90 54.5 -145t141.5 -55z" />
    <glyph glyph-name="uni2087" unicode="&#x2087;" horiz-adv-x="778" 
d="M297 -287h-84l-6 13l328 743h-418v84h545l2 -14z" />
    <glyph glyph-name="uni2088" unicode="&#x2088;" horiz-adv-x="778" 
d="M526 145q70 -25 112 -81.5t42 -131.5q0 -113 -81 -179t-212 -66q-130 0 -208.5 63t-78.5 174q0 157 154 219q-121 54 -121 199q0 109 72.5 173.5t189.5 64.5q112 0 183 -62t71 -166q0 -65 -33.5 -118.5t-89.5 -88.5zM391 500q-73 0 -116.5 -44t-43.5 -118
q0 -68 35 -106.5t92 -49.5l88 -18q105 68 105 178q0 70 -45 114t-115 44zM389 -231q88 0 137 46t49 122q0 66 -40 110.5t-111 56.5l-94 15q-127 -55 -127 -180q0 -77 50 -123.5t136 -46.5z" />
    <glyph glyph-name="uni2089" unicode="&#x2089;" horiz-adv-x="778" 
d="M389 580q132 0 212.5 -80.5t80.5 -212.5q0 -75 -34 -145.5t-111 -176.5l-179 -252l-100 2l-6 15l166 235q55 74 100 117l-2 2q-80 -64 -170 -64q-111 0 -179.5 73.5t-68.5 193.5q0 131 81 212t210 81zM553 172q29 60 29 121q0 90 -54 145.5t-141 55.5t-138.5 -55
t-51.5 -148q0 -90 50 -143.5t134 -53.5q94 0 172 78z" />
    <glyph glyph-name="lira" unicode="&#x20a4;" horiz-adv-x="1044" 
d="M352 106h645l-14 -106h-885v106h144q71 110 71 285v111h-198v86h198v231h-198v86h198v125q0 222 99 341.5t280 119.5q134 0 246 -53l-10 -99l-13 -6q-102 56 -225 56q-127 0 -195.5 -94t-68.5 -273v-117h391v-86h-391v-231h391v-86h-391v-76q0 -200 -74 -320z" />
    <glyph glyph-name="Euro" unicode="&#x20ac;" horiz-adv-x="1359" 
d="M1212 193h7l14 -109q-175 -125 -373 -125q-219 0 -362 151t-185 408h-186l29 86h147q-6 59 -6 121q0 55 6 111h-153l28 86h135q45 255 195.5 412t363.5 157q191 0 359 -111l-14 -114h-7q-161 120 -340 120q-166 0 -283 -125.5t-157 -338.5h602l-28 -86h-584
q-6 -52 -6 -111q0 -62 6 -121h530l-26 -86h-494q38 -210 149.5 -332.5t280.5 -122.5q192 0 352 130z" />
    <glyph glyph-name="uni2113" unicode="&#x2113;" horiz-adv-x="727" 
d="M629 141h8l10 -100q-97 -82 -217 -82q-124 0 -193 79t-69 230v150l-76 -64l-53 78l129 107v585q0 186 67 286.5t191 100.5q110 0 170.5 -74t60.5 -212q0 -193 -95 -374.5t-281 -338.5v-229q0 -222 168 -222q91 0 180 80zM422 1413q-67 0 -104 -69t-37 -203v-508
q128 115 197 263.5t69 313.5q0 100 -32 151.5t-93 51.5z" />
    <glyph glyph-name="uni2116" unicode="&#x2116;" horiz-adv-x="2344" 
d="M1823 891q-124 0 -207.5 83.5t-83.5 205.5t83 205t208 83q127 0 211 -83t84 -205t-84.5 -205.5t-210.5 -83.5zM1296 -27h-28l-654 899q-27 37 -123 166.5t-147 200.5h-6v-369v-870h-111v1450h92l588 -813q233 -311 275 -373h6q-2 125 -2 367v819h110v-1477zM1825 969
q85 0 144 61t59 150q0 90 -57.5 149.5t-145.5 59.5t-146.5 -60t-58.5 -149t59.5 -150t145.5 -61zM2105 563h-563v90h563v-90z" />
    <glyph glyph-name="uni2117" unicode="&#x2117;" horiz-adv-x="1806" 
d="M903 -39q-159 0 -300 59.5t-242.5 161t-160.5 242.5t-59 299q0 159 59 301t160.5 244t242.5 161.5t300 59.5t300 -59.5t242.5 -161.5t160.5 -244t59 -301q0 -158 -59 -299t-160.5 -242.5t-242.5 -161t-300 -59.5zM903 47q186 0 340 89.5t242 244.5t88 342q0 188 -88 344
t-242 246t-340 90t-340.5 -90t-243 -246t-88.5 -344q0 -187 88.5 -342t242.5 -244.5t341 -89.5zM788 287h-90v850h242q141 0 218 -66t77 -192q0 -118 -78.5 -187t-216.5 -69h-152v-336zM788 1053v-346h134q117 0 169 42t52 130q0 89 -51.5 131.5t-165.5 42.5h-138z" />
    <glyph glyph-name="trademark" unicode="&#x2122;" horiz-adv-x="1984" 
d="M489 606h-92v760h-291v84h672v-84h-289v-760zM1057 606h-90v844h135l287 -588h2l286 588h135v-844h-92v484v258h-4l-129 -256l-192 -394h-15l-192 392q-41 86 -127 258h-4v-258v-484z" />
    <glyph glyph-name="uni2126" unicode="&#x2126;" horiz-adv-x="1693" 
d="M1573 743q0 -207 -93 -373.5t-237 -260.5h293v-109h-553v100q77 0 160 48t152.5 130t114 204t44.5 257q0 177 -73.5 323t-213 233t-319.5 87q-136 0 -250.5 -51t-192 -138t-120.5 -204.5t-43 -249.5q0 -135 44.5 -257t113.5 -204t152 -130t161 -48v-100h-553v109h293
q-144 95 -238 261t-94 373q0 206 87.5 375t255 271t384.5 102q216 0 383 -102t254.5 -271t87.5 -375z" />
    <glyph glyph-name="estimated" unicode="&#x212e;" horiz-adv-x="1794" 
d="M1659 690h-1237v-354q0 -68 76.5 -140.5t195 -120.5t230.5 -48q163 0 300 64t230 173h10l19 -92q-233 -213 -561 -213q-151 0 -293.5 57t-252.5 155.5t-176.5 243t-66.5 308.5q0 175 58 319.5t161 242.5t247.5 152t315.5 54q166 0 306.5 -56t237 -153t150.5 -231.5
t54 -288.5q0 -45 -4 -72zM422 758h962v364q0 71 -63.5 140.5t-175.5 116t-238 46.5q-96 0 -187.5 -28.5t-155.5 -72.5t-103 -98t-39 -104v-364z" />
    <glyph glyph-name="uni2153" unicode="&#x2153;" horiz-adv-x="1843" 
d="M453 614h-97v617q0 63 6 112l-4 3l-63 -39l-117 -68l-10 4l8 96l250 131h27v-856zM1155 1450h111l-389 -725l-373 -725h-109l416 778zM1395 -27q-63 0 -131 20t-121 52l14 90h6q110 -74 226 -74q85 0 134.5 46.5t49.5 121.5q0 78 -52 121t-151 43h-88v72h84
q94 0 145.5 44t51.5 120q0 67 -45 109t-119 42q-117 0 -228 -78h-6l-14 89q54 32 126 53.5t140 21.5q109 0 176.5 -61.5t67.5 -159.5q0 -78 -43 -134.5t-121 -76.5v-2q82 -15 130 -73.5t48 -139.5q0 -106 -78 -176t-202 -70z" />
    <glyph glyph-name="uni2154" unicode="&#x2154;" horiz-adv-x="1843" 
d="M637 614h-533l-6 27l236 248q111 116 162 197.5t51 156.5q0 64 -43.5 106t-120.5 42q-112 0 -223 -78h-6l-15 98q53 30 123 50t133 20q115 0 182.5 -64.5t67.5 -165.5q0 -89 -50 -178.5t-151 -193.5l-84 -88q-69 -69 -98 -95l2 -2q98 4 144 4h229v-84zM1233 1450h110
l-389 -725l-372 -725h-109l416 778zM1464 -27q-63 0 -131 20t-121 52l15 90h6q110 -74 225 -74q84 0 134 47t50 121q0 77 -52.5 120.5t-149.5 43.5h-88v72h84q93 0 144.5 44t51.5 120q0 66 -45.5 108.5t-118.5 42.5q-116 0 -227 -78h-6l-14 89q52 32 125 53.5t141 21.5
q109 0 176.5 -61.5t67.5 -159.5q0 -78 -43 -134.5t-121 -76.5v-2q82 -15 130 -73.5t48 -139.5q0 -106 -78.5 -176t-202.5 -70z" />
    <glyph glyph-name="uni2155" unicode="&#x2155;" horiz-adv-x="1843" 
d="M449 614h-97v617q0 63 6 112l-4 3q-1 -1 -61 -39l-119 -68l-10 4l8 96l250 131h27v-856zM1153 1450h109l-388 -725l-372 -725h-109l414 778zM1389 -27q-140 0 -263 72l15 88h6q109 -76 233 -76q91 0 146 56t55 147q0 87 -54 140t-143 53q-111 0 -206 -68l-23 8l29 447
h430v-84h-348l-17 -267q71 39 164 39q119 0 192.5 -74t73.5 -192q0 -127 -80 -208t-210 -81z" />
    <glyph glyph-name="uni2156" unicode="&#x2156;" horiz-adv-x="1843" 
d="M639 614h-535l-4 27l236 248q111 118 162 199t51 155q0 64 -44 106t-120 42q-112 0 -223 -78h-6l-17 98q55 30 125 50t133 20q113 0 181.5 -65t68.5 -165q0 -89 -50 -178.5t-151 -193.5l-84 -88q-43 -42 -98 -95v-2q102 4 144 4h231v-84zM1227 1450h110l-387 -725
l-372 -725h-111l416 778zM1452 -27q-139 0 -262 72l14 88h8q105 -76 232 -76q91 0 146 56t55 147q0 87 -54 140t-143 53q-113 0 -205 -68l-24 8l30 447h430v-84h-348l-16 -267q69 39 164 39q118 0 191 -73.5t73 -192.5q0 -127 -80 -208t-211 -81z" />
    <glyph glyph-name="uni2157" unicode="&#x2157;" horiz-adv-x="1843" 
d="M365 588q-134 0 -252 71l14 91h6q110 -74 225 -74q84 0 134.5 47t50.5 121q0 77 -53 120.5t-150 43.5h-90v71h86q93 0 144.5 44t51.5 120q0 67 -45 109.5t-118 42.5q-119 0 -230 -78h-6l-12 88q52 33 124.5 54.5t141.5 21.5q108 0 176 -61.5t68 -159.5q0 -78 -43 -134.5
t-121 -76.5v-2q82 -15 130 -73.5t48 -139.5q0 -105 -78.5 -175.5t-201.5 -70.5zM1217 1450h108l-387 -725l-373 -725h-108l413 778zM1442 -27q-138 0 -264 72l16 88h6q109 -76 234 -76q89 0 143.5 56t54.5 147q0 87 -52.5 140t-141.5 53q-115 0 -207 -68l-23 8l29 447h430
v-84h-348l-16 -267q69 39 163 39q118 0 191.5 -73.5t73.5 -192.5q0 -127 -80 -208t-209 -81z" />
    <glyph glyph-name="uni2158" unicode="&#x2158;" horiz-adv-x="1843" 
d="M596 614h-94v189h-428l-8 47l458 620h72v-583h102v-84h-102v-189zM1264 1450h108l-387 -725l-373 -725h-108l414 778zM401 1174l-211 -287h314v219q0 119 10 229h-4q-43 -69 -109 -161zM1489 -27q-141 0 -264 72l16 88h6q109 -76 234 -76q89 0 143.5 56t54.5 147
q0 87 -52.5 140t-141.5 53q-115 0 -207 -68l-25 8l31 447h430v-84h-348l-16 -267q69 39 163 39q118 0 191.5 -73.5t73.5 -192.5q0 -127 -80 -208t-209 -81z" />
    <glyph glyph-name="uni2159" unicode="&#x2159;" horiz-adv-x="1843" 
d="M457 614h-97v617q0 54 7 112l-2 3q-13 -7 -33.5 -20t-30.5 -19l-119 -68l-8 4l6 96l250 131h27v-856zM819 778l344 672h111l-389 -725l-371 -725h-111zM1423 532q109 0 177.5 -73.5t68.5 -192.5q0 -132 -80 -212.5t-211 -80.5q-132 0 -211.5 80.5t-79.5 212.5
q0 76 33.5 147.5t110.5 174.5l180 252l102 -2l5 -15l-168 -235q-52 -70 -99 -117v-2q79 63 172 63zM1380 59q88 0 139.5 55.5t51.5 147.5q0 89 -50 143t-135 54q-94 0 -172 -78q-28 -58 -28 -121q0 -90 53.5 -145.5t140.5 -55.5z" />
    <glyph glyph-name="uni215A" unicode="&#x215a;" horiz-adv-x="1843" 
d="M649 877q0 -127 -80 -208t-211 -81q-146 0 -262 71l17 86h6q112 -75 233 -75q89 0 144 56.5t55 147.5q0 85 -54 139t-141 54q-115 0 -206 -70l-25 11l31 446h430v-86h-348l-17 -264q74 39 164 39q118 0 191 -73.5t73 -192.5zM899 778l344 672h109l-387 -725l-373 -725
h-109zM1499 532q109 0 178.5 -73.5t69.5 -192.5q0 -132 -81 -212.5t-212 -80.5t-211 80.5t-80 212.5q0 75 33.5 146t110.5 176l182 252l102 -2l4 -15l-170 -235q-55 -74 -98 -117v-2q79 63 172 63zM1458 59q86 0 138.5 55.5t52.5 147.5q0 90 -50.5 143.5t-136.5 53.5
q-97 0 -172 -78q-28 -61 -28 -121q0 -90 54.5 -145.5t141.5 -55.5z" />
    <glyph glyph-name="oneeighth" unicode="&#x215b;" horiz-adv-x="1843" 
d="M446 614h-98v617q0 68 8 112l-4 3q-13 -7 -32.5 -20t-30.5 -19l-119 -68l-8 4l6 96l252 131h26v-856zM805 778l344 672h111l-388 -725l-372 -725h-111zM1530 432q70 -25 110.5 -82t40.5 -131q0 -113 -80 -179.5t-210 -66.5t-209.5 63.5t-79.5 174.5q0 156 155 219
q-122 55 -122 199q0 109 73.5 173t190.5 64q112 0 182 -61.5t70 -165.5q0 -131 -121 -207zM1395 786q-74 0 -118 -44t-44 -117q0 -67 35.5 -105.5t91.5 -50.5l88 -18q104 68 104 178q0 70 -44 113.5t-113 43.5zM1391 55q89 0 138.5 46t49.5 122q0 66 -41 111t-113 57l-94 15
q-64 -27 -95.5 -74.5t-31.5 -106.5q0 -77 51 -123.5t136 -46.5z" />
    <glyph glyph-name="threeeighths" unicode="&#x215c;" horiz-adv-x="1843" 
d="M635 834q0 -104 -78 -174t-201 -70q-65 0 -133.5 19.5t-120.5 52.5l17 90h6q106 -74 225 -74q83 0 132.5 46.5t49.5 119.5q0 79 -51.5 122.5t-148.5 43.5h-90v71h86q93 0 143.5 44t50.5 120q0 66 -44.5 108t-117.5 42q-120 0 -229 -76h-6l-14 86q53 34 125.5 56t140.5 22
q109 0 177.5 -62t68.5 -159q0 -79 -43 -135t-121 -76v-2q82 -17 129 -75t47 -140zM872 778l345 672h110l-387 -725l-373 -725h-110zM1587 432q70 -25 112 -81.5t42 -131.5q0 -113 -81 -179.5t-212 -66.5q-129 0 -208 63.5t-79 174.5q0 157 154 219q-121 54 -121 199
q0 109 72.5 173t189.5 64q112 0 183 -61.5t71 -165.5q0 -65 -33.5 -118.5t-89.5 -88.5zM1452 786q-73 0 -116.5 -43.5t-43.5 -117.5q0 -68 35 -106.5t92 -49.5l88 -18q105 68 105 178q0 70 -45 113.5t-115 43.5zM1450 55q88 0 137 46t49 122q0 66 -40.5 111t-110.5 57
l-94 15q-127 -55 -127 -181q0 -77 50 -123.5t136 -46.5z" />
    <glyph glyph-name="fiveeighths" unicode="&#x215d;" horiz-adv-x="1843" 
d="M672 877q0 -127 -80 -208t-211 -81q-146 0 -262 71l14 86h6q112 -75 234 -75q90 0 145 56.5t55 147.5q0 86 -53.5 139.5t-142.5 53.5q-114 0 -205 -70l-25 11l31 446h430v-86h-348l-16 -264q74 39 164 39q118 0 191 -73.5t73 -192.5zM879 778l344 672h110l-387 -725
l-373 -725h-110zM1571 432q70 -25 111.5 -81.5t41.5 -131.5q0 -113 -80.5 -179.5t-211.5 -66.5q-128 0 -207.5 63.5t-79.5 174.5q0 157 153 219q-120 54 -120 199q0 109 72.5 173t189.5 64q112 0 183 -61.5t71 -165.5q0 -65 -33.5 -118.5t-89.5 -88.5zM1438 786
q-75 0 -118.5 -43.5t-43.5 -117.5q0 -68 35 -106.5t92 -49.5l88 -18q104 68 104 178q0 70 -44.5 113.5t-112.5 43.5zM1434 55q88 0 138 46t50 122q0 66 -41.5 111t-112.5 57l-94 15q-127 -55 -127 -181q0 -77 51 -123.5t136 -46.5z" />
    <glyph glyph-name="seveneighths" unicode="&#x215e;" horiz-adv-x="1843" 
d="M182 1454h545l4 -16l-369 -824h-83l-7 13l328 741h-418v86zM807 778l344 672h111l-390 -725l-370 -725h-111zM1511 432q69 -25 110.5 -82t41.5 -131q0 -113 -81 -179.5t-212 -66.5q-128 0 -207.5 63.5t-79.5 174.5q0 73 38.5 130.5t115.5 88.5q-57 25 -89 77t-32 122
q0 109 72.5 173t189.5 64q112 0 183 -61.5t71 -165.5q0 -131 -121 -207zM1376 786q-75 0 -118.5 -43.5t-43.5 -117.5q0 -68 35 -106.5t92 -49.5l89 -18q104 68 104 178q0 70 -45 113.5t-113 43.5zM1372 55q88 0 138.5 46t50.5 122q0 66 -41.5 111t-112.5 57l-94 15
q-127 -55 -127 -181q0 -77 51 -123.5t135 -46.5z" />
    <glyph glyph-name="arrowleft" unicode="&#x2190;" horiz-adv-x="2152" 
d="M1081 80h-135l-614 629l614 628h135v-6l-430 -436q-75 -76 -143 -137l2 -4q66 4 227 4h1086v-99h-1086q-145 0 -227 5l-2 -5q68 -61 143 -137l430 -436v-6z" />
    <glyph glyph-name="arrowup" unicode="&#x2191;" horiz-adv-x="2041" 
d="M1071 0h-100v1085q0 94 4 226l-2 2q-51 -56 -137 -142l-437 -430h-6v136l629 614l629 -614v-136h-6l-439 430q-63 63 -135 142l-4 -2q4 -66 4 -226v-1085z" />
    <glyph glyph-name="arrowright" unicode="&#x2192;" horiz-adv-x="2152" 
d="M1208 80h-135v6l430 436q59 61 142 137l-3 5q-83 -5 -225 -5h-1085v99h1085q159 0 225 -4l3 4q-83 76 -142 137l-430 436v6h135l615 -628z" />
    <glyph glyph-name="arrowdown" unicode="&#x2193;" horiz-adv-x="2041" 
d="M1651 573l-629 -614l-629 614v136h6l437 -430q86 -86 137 -142l2 2q-4 132 -4 226v1085h100v-1085q0 -160 -4 -226l4 -2q72 79 135 142l439 430h6v-136z" />
    <glyph glyph-name="arrowboth" unicode="&#x2194;" horiz-adv-x="3012" 
d="M1081 80h-135l-614 629l614 628h135v-6l-430 -436q-75 -76 -143 -137l2 -4q74 4 227 4h1538q154 0 226 -4l2 4q-124 118 -142 137l-430 436v6h135l615 -628l-615 -629h-135v6l430 436q18 19 142 137l-2 5q-90 -5 -226 -5h-1538q-135 0 -227 5l-2 -5q68 -61 143 -137
l430 -436v-6z" />
    <glyph glyph-name="arrowupdn" unicode="&#x2195;" horiz-adv-x="2041" 
d="M1651 123l-629 -615l-629 615v135h6l437 -430q96 -96 137 -141l2 2q-4 144 -4 225v1309q0 81 4 225l-2 2q-41 -45 -137 -141l-437 -430h-6v135l629 614l629 -614v-135h-6l-439 430q-74 73 -135 141l-4 -2q4 -72 4 -225v-1309q0 -153 -4 -225l4 -2q61 67 135 141l439 430
h6v-135z" />
    <glyph glyph-name="uni2196" unicode="&#x2196;" horiz-adv-x="1945" 
d="M1573 233l-70 -69l-768 768q-68 65 -157 162h-5q7 -107 7 -199l-7 -612l-4 -4l-94 94l10 878l879 11l94 -95l-4 -4l-612 -4q-138 0 -197 4v-4q105 -100 160 -158z" />
    <glyph glyph-name="uni2197" unicode="&#x2197;" horiz-adv-x="1945" 
d="M1210 932l-768 -768l-69 69l768 768q73 76 162 158v4q-61 -4 -199 -4l-612 4l-5 4l95 95l878 -11l10 -878l-94 -94l-4 4l-4 612q0 138 4 199h-4q-82 -89 -158 -162z" />
    <glyph glyph-name="uni2198" unicode="&#x2198;" horiz-adv-x="1945" 
d="M1460 174l-878 -10l-95 94l5 4l612 6q77 0 199 -4v4q-79 69 -162 156l-768 768l69 70l768 -766q68 -68 158 -162h4q-4 61 -4 196l4 613l4 6l94 -96z" />
    <glyph glyph-name="uni2199" unicode="&#x2199;" horiz-adv-x="1945" 
d="M1458 258l-94 -94l-879 10l-10 879l94 96l4 -6l7 -613q0 -89 -7 -196h5q113 117 157 162l768 766l70 -70l-768 -768q-74 -78 -160 -156v-4q118 4 197 4l612 -6z" />
    <glyph glyph-name="partialdiff" unicode="&#x2202;" horiz-adv-x="1433" 
d="M705 1489q157 0 263.5 -107t157 -302.5t50.5 -475.5q0 -320 -132 -481.5t-356 -161.5q-194 0 -312 130t-118 331q0 191 124.5 321.5t307.5 130.5q118 0 218.5 -62.5t162.5 -178.5q-14 762 -375 762q-89 0 -166.5 -49t-136.5 -136l-10 -2l-74 47q65 107 171 170.5
t225 63.5zM702 57q167 0 265.5 122t95.5 337q-60 129 -152.5 195.5t-199.5 66.5q-151 0 -247.5 -102t-96.5 -254q0 -160 90.5 -262.5t244.5 -102.5z" />
    <glyph glyph-name="emptyset" unicode="&#x2205;" horiz-adv-x="1333" 
d="M1167 1165l-135 -161q148 -145 148 -371q0 -224 -144 -369t-366 -145q-172 0 -303 92l-95 -113h-98l135 160q-149 146 -149 375q0 223 144.5 367.5t365.5 144.5q174 0 305 -92l94 112h98zM254 633q0 -183 115 -301l546 649q-107 74 -245 74q-180 0 -298 -119t-118 -303z
M670 209q181 0 299 119.5t118 304.5q0 182 -114 299l-547 -649q107 -74 244 -74z" />
    <glyph glyph-name="uni2206" unicode="&#x2206;" horiz-adv-x="1318" 
d="M616 1452h86l617 -1446l-6 -6h-1307l-4 6zM526 983l-358 -879h983l-363 877l-129 322h-4q-39 -102 -129 -320z" />
    <glyph glyph-name="product" unicode="&#x220f;" horiz-adv-x="1396" 
d="M264 -446h-110v1792h-134v104h1356v-104h-133v-1792h-110v1792h-869v-1792z" />
    <glyph glyph-name="summation" unicode="&#x2211;" horiz-adv-x="1208" 
d="M1161 -449h-1106v101l676 860l-647 840v100h1055v-106h-922l647 -834l-676 -856h973v-105z" />
    <glyph glyph-name="minus" unicode="&#x2212;" horiz-adv-x="1333" 
d="M1194 555h-1055v96h1055v-96z" />
    <glyph glyph-name="uni2215" unicode="&#x2215;" horiz-adv-x="743" 
d="M692 1546h115l-754 -1642h-119z" />
    <glyph glyph-name="uni2219" unicode="&#x2219;" horiz-adv-x="901" 
d="M451 524q-41 0 -70 29t-29 72t29 71.5t70 28.5t69.5 -28.5t28.5 -71.5t-28.5 -72t-69.5 -29z" />
    <glyph glyph-name="radical" unicode="&#x221a;" horiz-adv-x="1075" 
d="M586 -27h-37l-350 820h-148v106h225l277 -659h6l365 1210h123z" />
    <glyph glyph-name="infinity" unicode="&#x221e;" horiz-adv-x="1333" 
d="M315 295q-119 0 -193.5 84t-74.5 211q0 129 74 214t192 85q87 0 172 -57t181 -185q96 128 181.5 185t170.5 57q119 0 193.5 -85t74.5 -214q0 -128 -75 -211.5t-195 -83.5q-162 0 -350 233q-186 -233 -351 -233zM324 385q126 0 288 203q-101 121 -165 167t-128 46
q-79 0 -129.5 -60t-50.5 -151t51 -148t134 -57zM1010 385q83 0 133.5 57t50.5 148t-50.5 151t-129.5 60q-64 0 -129 -46t-164 -167q159 -203 289 -203z" />
    <glyph glyph-name="integral" unicode="&#x222b;" horiz-adv-x="712" 
d="M160 -492q-73 0 -140 25v100l11 7q57 -31 123 -31q50 0 80.5 26.5t48.5 97.5t18 193v1434q0 210 60 300.5t192 90.5q72 0 139 -25v-100l-10 -6q-57 31 -125 31q-74 0 -110.5 -70t-36.5 -248v-1431q0 -212 -59 -303t-191 -91z" />
    <glyph glyph-name="approxequal" unicode="&#x2248;" horiz-adv-x="1333" 
d="M891 666q-67 0 -130 25t-103.5 54.5t-96.5 54.5t-112 25q-119 0 -216 -153l-12 -2l-63 47q126 198 284 198q68 0 131.5 -25t104.5 -54.5t96 -54.5t109 -25q121 0 217 155l10 2l64 -49q-126 -198 -283 -198zM891 287q-55 0 -105.5 16t-89 39.5t-75.5 46.5t-81 39t-91 16
q-119 0 -216 -153l-12 -2l-63 49q129 199 284 199q68 0 131.5 -25t104.5 -55t96 -55t109 -25q121 0 217 155l10 3l64 -50q-126 -198 -283 -198z" />
    <glyph glyph-name="notequal" unicode="&#x2260;" horiz-adv-x="1333" 
d="M1194 850v-96h-414l-137 -305h551v-97h-594l-129 -289h-92l129 289h-369v97h412l135 305h-547v96h590l131 293h94l-131 -293h371z" />
    <glyph glyph-name="lessequal" unicode="&#x2264;" horiz-adv-x="1333" 
d="M156 768l1022 444v-102l-885 -379l885 -379v-104l-1022 444v76zM1178 0h-1022v96h1022v-96z" />
    <glyph glyph-name="greaterequal" unicode="&#x2265;" horiz-adv-x="1333" 
d="M156 1110v102l1022 -444v-76l-1022 -444v104l882 379zM1178 0h-1022v96h1022v-96z" />
    <glyph glyph-name="lozenge" unicode="&#x25ca;" horiz-adv-x="1429" 
d="M762 -39h-94l-340 764l340 764h94l340 -764zM432 725l283 -664l282 664l-282 664z" />
    <glyph glyph-name="fi" unicode="&#xfb01;" horiz-adv-x="1191" 
d="M348 0h-104v893h-189v92h189v174q0 199 76 293t227 94q116 0 219 -45l-10 -94l-13 -6q-92 47 -190 47q-103 0 -153 -65.5t-50 -215.5l-2 -182h350v-92h-350v-893zM948 1225q-36 0 -60 24t-24 60q0 35 24.5 59.5t59.5 24.5t58.5 -24.5t23.5 -59.5t-23.5 -59.5t-58.5 -24.5
zM1001 0h-104v985h104v-985z" />
    <glyph glyph-name="fl" unicode="&#xfb02;" horiz-adv-x="1202" 
d="M348 0h-104v893h-189v92h189v174q0 199 76 293t227 94q116 0 219 -45l-10 -94l-13 -6q-92 47 -190 47q-103 0 -153 -65.5t-50 -215.5l-2 -182h350v-92h-350v-893zM1012 0h-105v1505h105v-1505z" />
    <glyph glyph-name="i.loclTRK" horiz-adv-x="487" 
d="M244 1225q-35 0 -58.5 23.5t-23.5 60.5t23.5 60.5t58.5 23.5t58.5 -24.5t23.5 -59.5q0 -37 -23.5 -60.5t-58.5 -23.5zM297 0h-104v985h104v-985z" />
    <glyph glyph-name="a.sc" horiz-adv-x="1046" 
d="M475 1071h94l471 -1065l-2 -6h-110l-123 285h-565l-121 -285h-111l-2 6zM416 705l-142 -334h494l-141 331q-10 24 -49 116t-56 136h-2q-42 -109 -104 -249z" />
    <glyph glyph-name="aacute.sc" horiz-adv-x="1046" 
d="M784 1565l7 -11l-236 -315h-86l205 326h110zM475 1071h94l471 -1065l-2 -6h-110l-123 285h-565l-121 -285h-111l-2 6zM416 705l-142 -334h494l-141 331q-10 24 -49 116t-56 136h-2q-42 -109 -104 -249z" />
    <glyph glyph-name="abreve.sc" horiz-adv-x="1046" 
d="M526 1253q-125 0 -203.5 68.5t-93.5 189.5l11 11h75q38 -183 211 -183t211 183h76l10 -11q-15 -121 -93.5 -189.5t-203.5 -68.5zM475 1071h94l471 -1065l-2 -6h-110l-123 285h-565l-121 -285h-111l-2 6zM416 705l-142 -334h494l-141 331q-10 24 -49 116t-56 136h-2
q-42 -109 -104 -249z" />
    <glyph glyph-name="acircumflex.sc" horiz-adv-x="1046" 
d="M526 1501l-178 -262h-82l-6 12l209 314h113l209 -314l-9 -12h-82zM475 1071h94l471 -1065l-2 -6h-110l-123 285h-565l-121 -285h-111l-2 6zM416 705l-142 -334h494l-141 331q-10 24 -49 116t-56 136h-2q-42 -109 -104 -249z" />
    <glyph glyph-name="adieresis.sc" horiz-adv-x="1046" 
d="M362 1309q-35 0 -56 22t-21 58q0 35 21 57.5t56 23.5q35 -2 56.5 -24t21.5 -57t-21.5 -57.5t-56.5 -22.5zM688 1309q-35 0 -56.5 22.5t-21.5 57.5t21.5 57t56.5 24q37 -1 58.5 -23.5t21.5 -57.5q0 -36 -22 -58t-58 -22zM475 1071h94l471 -1065l-2 -6h-110l-123 285h-565
l-121 -285h-111l-2 6zM416 705l-142 -334h494l-141 331q-10 24 -49 116t-56 136h-2q-42 -109 -104 -249z" />
    <glyph glyph-name="agrave.sc" horiz-adv-x="1046" 
d="M373 1565l207 -326h-88l-236 315l6 11h111zM475 1071h94l471 -1065l-2 -6h-110l-123 285h-565l-121 -285h-111l-2 6zM416 705l-142 -334h494l-141 331q-10 24 -49 116t-56 136h-2q-42 -109 -104 -249z" />
    <glyph glyph-name="amacron.sc" horiz-adv-x="1046" 
d="M264 1417h520v-86h-520v86zM475 1071h94l471 -1065l-2 -6h-110l-123 285h-565l-121 -285h-111l-2 6zM416 705l-142 -334h494l-141 331q-10 24 -49 116t-56 136h-2q-42 -109 -104 -249z" />
    <glyph glyph-name="aogonek.sc" horiz-adv-x="1046" 
d="M1090 -336h6l10 -74q-70 -49 -164 -49q-83 0 -133.5 46.5t-50.5 123.5q0 150 194 289h-24l-123 285h-565l-121 -285h-111l-2 6l469 1065h94l471 -1065l-2 -6h-14q-101 -89 -141.5 -151.5t-40.5 -122.5q0 -52 29 -80.5t85 -28.5q77 0 134 47zM416 705l-142 -334h494
l-141 331q-10 24 -49 116t-56 136h-2q-42 -109 -104 -249z" />
    <glyph glyph-name="aring.sc" horiz-adv-x="1046" 
d="M526 1217q-84 0 -141 55.5t-57 138.5t57 139t141 56q81 0 139 -56.5t58 -138.5t-58 -138t-139 -56zM526 1544q-57 0 -95 -38.5t-38 -94.5t38 -93.5t95 -37.5q56 0 93.5 38t37.5 93q0 56 -38 94.5t-93 38.5zM475 1071h94l471 -1065l-2 -6h-110l-123 285h-565l-121 -285
h-111l-2 6zM416 705l-142 -334h494l-141 331q-10 24 -49 116t-56 136h-2q-42 -109 -104 -249z" />
    <glyph glyph-name="atilde.sc" horiz-adv-x="1046" 
d="M332 1298l-8 -8h-76q9 87 52 140t106 53q44 0 125 -53.5t116 -53.5q30 0 46.5 22t27.5 75l8 10h74q-9 -88 -51.5 -140.5t-104.5 -52.5q-31 0 -66 16.5t-61 36t-58 36t-56 16.5q-30 0 -46.5 -22t-27.5 -75zM475 1071h94l471 -1065l-2 -6h-110l-123 285h-565l-121 -285
h-111l-2 6zM416 705l-142 -334h494l-141 331q-10 24 -49 116t-56 136h-2q-42 -109 -104 -249z" />
    <glyph glyph-name="ae.sc" horiz-adv-x="1497" 
d="M1327 500h-504v-404h545l-12 -96h-639v283h-416l-174 -283h-119l-2 6l666 1065h684l12 -96h-545v-381h504v-94zM561 702l-205 -329h361v317q0 5 6 281h-4q-32 -60 -158 -269z" />
    <glyph glyph-name="b.sc" horiz-adv-x="1058" 
d="M504 0h-293v1071h301q185 0 281 -69.5t96 -200.5q0 -86 -58.5 -151t-156.5 -87v-4q128 -19 197 -87.5t69 -174.5q0 -150 -106.5 -223.5t-329.5 -73.5zM317 979v-385h197q123 0 195.5 53.5t72.5 145.5q0 91 -69 138.5t-203 47.5h-193zM317 512v-420h187q171 0 250.5 51.5
t79.5 159.5q0 102 -77.5 155.5t-230.5 53.5h-209z" />
    <glyph glyph-name="c.sc" horiz-adv-x="1202" 
d="M657 -41q-239 0 -390.5 161t-151.5 415q0 123 41 230.5t113 183.5t172.5 119.5t215.5 43.5q218 0 416 -147l-14 -111h-6q-194 156 -389 156q-191 0 -314 -133.5t-123 -339.5q0 -207 123 -341.5t312 -134.5q198 0 393 156h8l14 -111q-208 -147 -420 -147z" />
    <glyph glyph-name="cacute.sc" horiz-adv-x="1202" 
d="M676 1239h-86l205 326h110l6 -11zM657 -41q-239 0 -390.5 161t-151.5 415q0 123 41 230.5t113 183.5t172.5 119.5t215.5 43.5q218 0 416 -147l-14 -111h-6q-194 156 -389 156q-191 0 -314 -133.5t-123 -339.5q0 -207 123 -341.5t312 -134.5q198 0 393 156h8l14 -111
q-208 -147 -420 -147z" />
    <glyph glyph-name="ccaron.sc" horiz-adv-x="1202" 
d="M700 1239h-112l-209 313l6 13h82l178 -265l174 265h82l8 -13zM657 -41q-239 0 -390.5 161t-151.5 415q0 123 41 230.5t113 183.5t172.5 119.5t215.5 43.5q218 0 416 -147l-14 -111h-6q-194 156 -389 156q-191 0 -314 -133.5t-123 -339.5q0 -207 123 -341.5t312 -134.5
q198 0 393 156h8l14 -111q-208 -147 -420 -147z" />
    <glyph glyph-name="ccedilla.sc" horiz-adv-x="1202" 
d="M717 -154q62 0 102.5 -40t40.5 -103q0 -86 -60.5 -136t-166.5 -50q-103 0 -189 45l13 73h8q79 -47 170 -47q65 0 103 31.5t38 79.5q0 43 -28 67.5t-82 24.5q-68 0 -136 -37l-6 8l92 199q-223 14 -362 172.5t-139 401.5q0 123 41 230.5t113 183.5t172.5 119.5t215.5 43.5
q218 0 416 -147l-14 -111h-6q-194 156 -389 156q-191 0 -314 -133.5t-123 -339.5q0 -207 123 -341.5t312 -134.5q198 0 393 156h8l14 -111q-190 -135 -383 -145l-59 -127q50 12 82 12z" />
    <glyph glyph-name="cdotaccent.sc" horiz-adv-x="1202" 
d="M645 1307q-34 0 -58 24t-24 60t24 60t58 24q35 0 58.5 -23.5t23.5 -60.5t-23.5 -60.5t-58.5 -23.5zM657 -41q-239 0 -390.5 161t-151.5 415q0 123 41 230.5t113 183.5t172.5 119.5t215.5 43.5q218 0 416 -147l-14 -111h-6q-194 156 -389 156q-191 0 -314 -133.5
t-123 -339.5q0 -207 123 -341.5t312 -134.5q198 0 393 156h8l14 -111q-208 -147 -420 -147z" />
    <glyph glyph-name="d.sc" horiz-adv-x="1251" 
d="M504 0h-293v1071h293q311 0 476 -136.5t165 -391.5q0 -258 -170 -400.5t-471 -142.5zM317 975v-879h168q268 0 407.5 112t139.5 337q0 430 -545 430h-170z" />
    <glyph glyph-name="eth.sc" horiz-adv-x="1251" 
d="M211 1071h293q311 0 476 -136.5t165 -391.5q0 -258 -170 -400.5t-471 -142.5h-293v500h-150v98h150v473zM317 96h168q268 0 407.5 112t139.5 337q0 430 -545 430h-170v-377h318v-98h-318v-404z" />
    <glyph glyph-name="dcroat.sc" horiz-adv-x="1251" 
d="M211 1071h293q311 0 476 -136.5t165 -391.5q0 -258 -170 -400.5t-471 -142.5h-293v500h-150v98h150v473zM317 96h168q268 0 407.5 112t139.5 337q0 430 -545 430h-170v-377h318v-98h-318v-404z" />
    <glyph glyph-name="e.sc" horiz-adv-x="991" 
d="M819 500h-502v-404h545l-12 -96h-639v1071h639l12 -96h-545v-379h502v-96z" />
    <glyph glyph-name="eacute.sc" horiz-adv-x="991" 
d="M793 1565l6 -11l-236 -315h-86l205 326h111zM819 500h-502v-404h545l-12 -96h-639v1071h639l12 -96h-545v-379h502v-96z" />
    <glyph glyph-name="ecaron.sc" horiz-adv-x="991" 
d="M799 1552l-209 -313h-113l-209 313l6 13h82l179 -265l174 265h82zM819 500h-502v-404h545l-12 -96h-639v1071h639l12 -96h-545v-379h502v-96z" />
    <glyph glyph-name="ecircumflex.sc" horiz-adv-x="991" 
d="M535 1501l-179 -262h-82l-6 12l209 314h113l209 -314l-8 -12h-82zM819 500h-502v-404h545l-12 -96h-639v1071h639l12 -96h-545v-379h502v-96z" />
    <glyph glyph-name="edieresis.sc" horiz-adv-x="991" 
d="M371 1309q-35 0 -56.5 22.5t-21.5 57.5t21.5 57t56.5 24q35 -2 56.5 -24t21.5 -57t-21.5 -57.5t-56.5 -22.5zM696 1309q-35 0 -56.5 22.5t-21.5 57.5t21.5 57t56.5 24q37 -1 58.5 -23.5t21.5 -57.5q0 -36 -22 -58t-58 -22zM819 500h-502v-404h545l-12 -96h-639v1071h639
l12 -96h-545v-379h502v-96z" />
    <glyph glyph-name="edotaccent.sc" horiz-adv-x="991" 
d="M532 1307q-34 0 -57.5 24t-23.5 60t23.5 60t57.5 24q35 0 58.5 -23.5t23.5 -60.5t-23.5 -60.5t-58.5 -23.5zM819 500h-502v-404h545l-12 -96h-639v1071h639l12 -96h-545v-379h502v-96z" />
    <glyph glyph-name="egrave.sc" horiz-adv-x="991" 
d="M381 1565l207 -326h-88l-236 315l6 11h111zM819 500h-502v-404h545l-12 -96h-639v1071h639l12 -96h-545v-379h502v-96z" />
    <glyph glyph-name="emacron.sc" horiz-adv-x="991" 
d="M272 1417h521v-86h-521v86zM819 500h-502v-404h545l-12 -96h-639v1071h639l12 -96h-545v-379h502v-96z" />
    <glyph glyph-name="eogonek.sc" horiz-adv-x="991" 
d="M850 0h-76q-101 -89 -141.5 -151.5t-40.5 -122.5q0 -52 29.5 -80.5t85.5 -28.5q76 0 133 47h6l10 -74q-70 -49 -164 -49q-83 0 -133.5 46.5t-50.5 123.5q0 150 194 289h-491v1071h639l12 -96h-545v-379h502v-96h-502v-404h545z" />
    <glyph glyph-name="f.sc" horiz-adv-x="917" 
d="M834 975h-517v-383h480v-96h-480v-496h-106v1071h612z" />
    <glyph glyph-name="g.sc" horiz-adv-x="1298" 
d="M668 -41q-244 0 -398.5 161.5t-154.5 414.5q0 166 72.5 298t202 205.5t292.5 73.5q225 0 438 -154l-18 -108h-6q-203 160 -410 160q-199 0 -328 -134t-129 -341q0 -206 125.5 -341t317.5 -135t356 101v305h-346v96h446v-463q-227 -139 -460 -139z" />
    <glyph glyph-name="gbreve.sc" horiz-adv-x="1298" 
d="M668 1253q-125 0 -203.5 68.5t-93.5 189.5l10 11h76q38 -183 211 -183t211 183h75l11 -11q-15 -121 -93.5 -189.5t-203.5 -68.5zM668 -41q-244 0 -398.5 161.5t-154.5 414.5q0 166 72.5 298t202 205.5t292.5 73.5q225 0 438 -154l-18 -108h-6q-203 160 -410 160
q-199 0 -328 -134t-129 -341q0 -206 125.5 -341t317.5 -135t356 101v305h-346v96h446v-463q-227 -139 -460 -139z" />
    <glyph glyph-name="uni0123.sc" horiz-adv-x="1298" 
d="M668 -41q-244 0 -398.5 161.5t-154.5 414.5q0 166 72.5 298t202 205.5t292.5 73.5q225 0 438 -154l-18 -108h-6q-203 160 -410 160q-199 0 -328 -134t-129 -341q0 -206 125.5 -341t317.5 -135t356 101v305h-346v96h446v-463q-227 -139 -460 -139zM645 -143h98l7 -9
l-140 -368h-78z" />
    <glyph glyph-name="gdotaccent.sc" horiz-adv-x="1298" 
d="M668 1307q-34 0 -58 24t-24 60t24 60t58 24q35 0 58.5 -23.5t23.5 -60.5t-23.5 -60.5t-58.5 -23.5zM668 -41q-244 0 -398.5 161.5t-154.5 414.5q0 166 72.5 298t202 205.5t292.5 73.5q225 0 438 -154l-18 -108h-6q-203 160 -410 160q-199 0 -328 -134t-129 -341
q0 -206 125.5 -341t317.5 -135t356 101v305h-346v96h446v-463q-227 -139 -460 -139z" />
    <glyph glyph-name="h.sc" horiz-adv-x="1310" 
d="M991 590v481h109v-1071h-109v494h-674v-494h-106v1071h106v-481h674z" />
    <glyph glyph-name="hbar.sc" horiz-adv-x="1310" 
d="M1100 1071v-166h147v-86h-147v-819h-109v494h-674v-494h-106v819h-150v86h150v166h106v-166h674v166h109zM317 590h674v229h-674v-229z" />
    <glyph glyph-name="i.sc" horiz-adv-x="528" 
d="M211 0v1071h106v-1071h-106z" />
    <glyph glyph-name="iacute.sc" horiz-adv-x="528" 
d="M295 1239h-86l205 326h110l6 -11zM211 0v1071h106v-1071h-106z" />
    <glyph glyph-name="icircumflex.sc" horiz-adv-x="528" 
d="M86 1239h-82l-6 12l209 314h112l209 -314l-8 -12h-82l-174 262zM211 0v1071h106v-1071h-106z" />
    <glyph glyph-name="idieresis.sc" horiz-adv-x="528" 
d="M100 1309q-35 0 -56 22t-21 58q0 35 21 57.5t56 23.5q35 -2 56.5 -24t21.5 -57t-21.5 -57.5t-56.5 -22.5zM426 1309q-35 0 -56.5 22.5t-21.5 57.5t21.5 57t56.5 24q37 -1 58.5 -23.5t21.5 -57.5q0 -36 -22 -58t-58 -22zM211 0v1071h106v-1071h-106z" />
    <glyph glyph-name="i.sc.loclTRK" horiz-adv-x="528" 
d="M264 1307q-34 0 -58 24t-24 60t24 60t58 24q35 0 58.5 -23.5t23.5 -60.5t-23.5 -60.5t-58.5 -23.5zM211 0v1071h106v-1071h-106z" />
    <glyph glyph-name="igrave.sc" horiz-adv-x="528" 
d="M319 1239h-88l-235 315l6 11h111zM211 0v1071h106v-1071h-106z" />
    <glyph glyph-name="imacron.sc" horiz-adv-x="528" 
d="M524 1331h-520v86h520v-86zM211 0v1071h106v-1071h-106z" />
    <glyph glyph-name="iogonek.sc" horiz-adv-x="528" 
d="M371 -336h6l10 -74q-70 -49 -164 -49q-83 0 -133.5 46.5t-50.5 123.5q0 150 194 289h-22v1071h106v-1071h-12q-101 -89 -141.5 -151.5t-40.5 -122.5q0 -52 29.5 -80.5t85.5 -28.5q76 0 133 47z" />
    <glyph glyph-name="j.sc" horiz-adv-x="532" 
d="M219 113v958h109v-952q0 -126 -45.5 -196t-147.5 -116l-49 74l2 6q69 33 100 82t31 144z" />
    <glyph glyph-name="k.sc" horiz-adv-x="1097" 
d="M1028 1063l-424 -442l459 -615l-2 -6h-125l-406 543l-213 -221v-322h-106v1071h106v-334v-282h5q69 82 210 231l369 385h123z" />
    <glyph glyph-name="uni0137.sc" horiz-adv-x="1097" 
d="M1028 1063l-424 -442l459 -615l-2 -6h-125l-406 543l-213 -221v-322h-106v1071h106v-334v-282h5q69 82 210 231l369 385h123zM457 -520l112 377h99l6 -9l-139 -368h-78z" />
    <glyph glyph-name="l.sc" horiz-adv-x="890" 
d="M211 0v1071h106v-975h543l-12 -96h-637z" />
    <glyph glyph-name="lacute.sc" horiz-adv-x="890" 
d="M295 1239h-86l205 326h110l6 -11zM211 0v1071h106v-975h543l-12 -96h-637z" />
    <glyph glyph-name="lcaron.sc" horiz-adv-x="890" 
d="M211 0v1071h106v-975h543l-12 -96h-637zM557 702h-76l56 369h96l4 -10z" />
    <glyph glyph-name="uni013C.sc" horiz-adv-x="890" 
d="M211 0v1071h106v-975h543l-12 -96h-637zM506 -143h98l6 -9l-139 -368h-78z" />
    <glyph glyph-name="lslash.sc" horiz-adv-x="890" 
d="M317 496v-400h543l-12 -96h-637v436l-164 -92v102l164 93v532h106v-473l285 158v-101z" />
    <glyph glyph-name="m.sc" horiz-adv-x="1495" 
d="M315 0h-104v1071h147l390 -760h2l391 760h143v-1071h-104v383v551h-2q-30 -59 -86.5 -165.5t-75.5 -143.5l-260 -500h-19l-258 500q-19 37 -75.5 143.5t-86.5 165.5h-2v-551v-383z" />
    <glyph glyph-name="n.sc" horiz-adv-x="1345" 
d="M315 0h-104v1071h90l524 -639q84 -99 203 -250h6q-4 94 -4 275v614h105v-1089h-60l-555 673q-29 35 -98 116t-107 128h-2q2 -88 2 -272v-627z" />
    <glyph glyph-name="nacute.sc" horiz-adv-x="1345" 
d="M715 1239h-86l205 326h110l6 -11zM315 0h-104v1071h90l524 -639q84 -99 203 -250h6q-4 94 -4 275v614h105v-1089h-60l-555 673q-29 35 -98 116t-107 128h-2q2 -88 2 -272v-627z" />
    <glyph glyph-name="ncaron.sc" horiz-adv-x="1345" 
d="M739 1239h-112l-209 313l6 13h82l178 -265l174 265h82l8 -13zM315 0h-104v1071h90l524 -639q84 -99 203 -250h6q-4 94 -4 275v614h105v-1089h-60l-555 673q-29 35 -98 116t-107 128h-2q2 -88 2 -272v-627z" />
    <glyph glyph-name="uni0146.sc" horiz-adv-x="1345" 
d="M315 0h-104v1071h90l524 -639q84 -99 203 -250h6q-4 94 -4 275v614h105v-1089h-60l-555 673q-29 35 -98 116t-107 128h-2q2 -88 2 -272v-627zM678 -143h98l6 -9l-139 -368h-78z" />
    <glyph glyph-name="eng.sc" horiz-adv-x="1355" 
d="M952 -492l-47 72l2 8q67 31 98 80.5t31 143.5v235l-512 608q-69 79 -207 244h-4q2 -90 2 -274v-625h-104v1071h92l528 -627q92 -105 207 -245h2v274v598h105v-1251q0 -127 -45.5 -197.5t-147.5 -114.5z" />
    <glyph glyph-name="ntilde.sc" horiz-adv-x="1345" 
d="M481 1290h-75q9 87 51.5 140t105.5 53q43 0 125 -53.5t117 -53.5q30 0 46.5 22t27.5 75l8 10h74q-9 -88 -51.5 -140.5t-104.5 -52.5q-31 0 -66 16.5t-61.5 36t-58.5 36t-56 16.5q-30 0 -46.5 -22t-27.5 -75zM315 0h-104v1071h90l524 -639q84 -99 203 -250h6q-4 94 -4 275
v614h105v-1089h-60l-555 673q-29 35 -98 116t-107 128h-2q2 -88 2 -272v-627z" />
    <glyph glyph-name="o.sc" horiz-adv-x="1333" 
d="M668 -41q-163 0 -289.5 75.5t-195 206.5t-68.5 294q0 251 153 414t400 163q162 0 288.5 -75.5t194.5 -206.5t68 -295q0 -163 -68 -294t-194.5 -206.5t-288.5 -75.5zM668 59q193 0 315.5 135.5t122.5 340.5q0 206 -121.5 340.5t-316.5 134.5q-196 0 -318.5 -134.5
t-122.5 -340.5q0 -205 123.5 -340.5t317.5 -135.5z" />
    <glyph glyph-name="oacute.sc" horiz-adv-x="1333" 
d="M698 1239h-86l205 326h111l6 -11zM668 -41q-163 0 -289.5 75.5t-195 206.5t-68.5 294q0 251 153 414t400 163q162 0 288.5 -75.5t194.5 -206.5t68 -295q0 -163 -68 -294t-194.5 -206.5t-288.5 -75.5zM668 59q193 0 315.5 135.5t122.5 340.5q0 206 -121.5 340.5
t-316.5 134.5q-196 0 -318.5 -134.5t-122.5 -340.5q0 -205 123.5 -340.5t317.5 -135.5z" />
    <glyph glyph-name="ocircumflex.sc" horiz-adv-x="1333" 
d="M489 1239h-81l-7 12l209 314h113l209 -314l-8 -12h-82l-174 262zM668 -41q-163 0 -289.5 75.5t-195 206.5t-68.5 294q0 251 153 414t400 163q162 0 288.5 -75.5t194.5 -206.5t68 -295q0 -163 -68 -294t-194.5 -206.5t-288.5 -75.5zM668 59q193 0 315.5 135.5t122.5 340.5
q0 206 -121.5 340.5t-316.5 134.5q-196 0 -318.5 -134.5t-122.5 -340.5q0 -205 123.5 -340.5t317.5 -135.5z" />
    <glyph glyph-name="odieresis.sc" horiz-adv-x="1333" 
d="M504 1309q-35 0 -56.5 22.5t-21.5 57.5t21.5 57t56.5 24q35 -2 56.5 -24t21.5 -57t-21.5 -57.5t-56.5 -22.5zM829 1309q-35 0 -56 22t-21 58q0 35 21 57.5t56 23.5q37 -1 58.5 -23.5t21.5 -57.5q0 -36 -22 -58t-58 -22zM668 -41q-163 0 -289.5 75.5t-195 206.5t-68.5 294
q0 251 153 414t400 163q162 0 288.5 -75.5t194.5 -206.5t68 -295q0 -163 -68 -294t-194.5 -206.5t-288.5 -75.5zM668 59q193 0 315.5 135.5t122.5 340.5q0 206 -121.5 340.5t-316.5 134.5q-196 0 -318.5 -134.5t-122.5 -340.5q0 -205 123.5 -340.5t317.5 -135.5z" />
    <glyph glyph-name="ograve.sc" horiz-adv-x="1333" 
d="M723 1239h-88l-236 315l7 11h110zM668 -41q-163 0 -289.5 75.5t-195 206.5t-68.5 294q0 251 153 414t400 163q162 0 288.5 -75.5t194.5 -206.5t68 -295q0 -163 -68 -294t-194.5 -206.5t-288.5 -75.5zM668 59q193 0 315.5 135.5t122.5 340.5q0 206 -121.5 340.5
t-316.5 134.5q-196 0 -318.5 -134.5t-122.5 -340.5q0 -205 123.5 -340.5t317.5 -135.5z" />
    <glyph glyph-name="ohungarumlaut.sc" horiz-adv-x="1333" 
d="M555 1239h-88l207 326h110l7 -11zM852 1239h-88l207 326h110l6 -11zM668 -41q-163 0 -289.5 75.5t-195 206.5t-68.5 294q0 251 153 414t400 163q162 0 288.5 -75.5t194.5 -206.5t68 -295q0 -163 -68 -294t-194.5 -206.5t-288.5 -75.5zM668 59q193 0 315.5 135.5
t122.5 340.5q0 206 -121.5 340.5t-316.5 134.5q-196 0 -318.5 -134.5t-122.5 -340.5q0 -205 123.5 -340.5t317.5 -135.5z" />
    <glyph glyph-name="omacron.sc" horiz-adv-x="1333" 
d="M928 1331h-520v86h520v-86zM668 -41q-163 0 -289.5 75.5t-195 206.5t-68.5 294q0 251 153 414t400 163q162 0 288.5 -75.5t194.5 -206.5t68 -295q0 -163 -68 -294t-194.5 -206.5t-288.5 -75.5zM668 59q193 0 315.5 135.5t122.5 340.5q0 206 -121.5 340.5t-316.5 134.5
q-196 0 -318.5 -134.5t-122.5 -340.5q0 -205 123.5 -340.5t317.5 -135.5z" />
    <glyph glyph-name="oslash.sc" horiz-adv-x="1333" 
d="M1196 1147l-143 -186q79 -77 122.5 -187.5t43.5 -238.5q0 -163 -68 -294t-194.5 -206.5t-288.5 -75.5q-181 0 -318 94l-100 -129h-115l146 187q-166 163 -166 424q0 251 153 414t400 163q180 0 317 -94l100 129h111zM227 535q0 -206 119 -338l574 737q-108 78 -252 78
q-196 0 -318.5 -134.5t-122.5 -342.5zM668 59q194 0 316 135t122 341q0 209 -121 339l-571 -737q111 -78 254 -78z" />
    <glyph glyph-name="otilde.sc" horiz-adv-x="1333" 
d="M465 1290h-76q9 87 52 140t106 53q28 0 63 -16.5t62 -37t59.5 -37t56.5 -16.5q30 0 46.5 22t27.5 75l8 10h74q-9 -88 -51.5 -140.5t-104.5 -52.5q-31 0 -66 16.5t-61 36t-58 36t-56 16.5q-30 0 -46.5 -22t-27.5 -75zM668 -41q-163 0 -289.5 75.5t-195 206.5t-68.5 294
q0 251 153 414t400 163q162 0 288.5 -75.5t194.5 -206.5t68 -295q0 -163 -68 -294t-194.5 -206.5t-288.5 -75.5zM668 59q193 0 315.5 135.5t122.5 340.5q0 206 -121.5 340.5t-316.5 134.5q-196 0 -318.5 -134.5t-122.5 -340.5q0 -205 123.5 -340.5t317.5 -135.5z" />
    <glyph glyph-name="oe.sc" horiz-adv-x="1683" 
d="M670 -41q-163 0 -290 75.5t-196 206.5t-69 294q0 164 68.5 295t195.5 206.5t291 75.5q126 0 241 -41h631l12 -96h-544v-379h501v-96h-501v-404h544l-12 -96h-631q-125 -41 -241 -41zM670 59q125 0 233 54v841q-100 56 -233 56q-196 0 -319.5 -134.5t-123.5 -340.5
q0 -134 55.5 -242.5t157 -171t230.5 -62.5z" />
    <glyph glyph-name="p.sc" horiz-adv-x="989" 
d="M524 1071q196 0 296 -83t100 -243q0 -153 -102 -237t-294 -84h-207v-424h-106v1071h313zM317 514h185q157 0 231 57t74 174q0 118 -73.5 175t-225.5 57h-191v-463z" />
    <glyph glyph-name="thorn.sc" horiz-adv-x="985" 
d="M317 872h207q196 0 295 -82t99 -241q0 -155 -101.5 -239.5t-292.5 -84.5h-207v-225h-106v1071h106v-199zM317 317h185q157 0 231 57t74 175t-73 174.5t-226 56.5h-191v-463z" />
    <glyph glyph-name="q.sc" horiz-adv-x="1333" 
d="M1219 535q0 -179 -83.5 -319t-228.5 -206l238 -243l-8 -15h-113l-211 223q-75 -16 -145 -16q-163 0 -289.5 75.5t-195 206.5t-68.5 294q0 251 153 414t400 163q162 0 288.5 -75.5t194.5 -206.5t68 -295zM227 535q0 -205 123.5 -340.5t317.5 -135.5q193 0 315.5 135.5
t122.5 340.5q0 206 -121.5 340.5t-316.5 134.5q-196 0 -318.5 -134.5t-122.5 -340.5z" />
    <glyph glyph-name="r.sc" horiz-adv-x="1056" 
d="M651 471l350 -457l-6 -14h-114l-346 457h-218v-457h-106v1071h301q192 0 291.5 -79t99.5 -230q0 -112 -65 -188.5t-187 -102.5zM494 977h-177v-430h193q143 0 213 55.5t70 159.5q0 109 -72 162t-227 53z" />
    <glyph glyph-name="racute.sc" horiz-adv-x="1056" 
d="M791 1565l6 -11l-236 -315h-86l205 326h111zM651 471l350 -457l-6 -14h-114l-346 457h-218v-457h-106v1071h301q192 0 291.5 -79t99.5 -230q0 -112 -65 -188.5t-187 -102.5zM494 977h-177v-430h193q143 0 213 55.5t70 159.5q0 109 -72 162t-227 53z" />
    <glyph glyph-name="rcaron.sc" horiz-adv-x="1056" 
d="M795 1552l-209 -313h-113l-209 313l6 13h82l178 -265l175 265h81zM651 471l350 -457l-6 -14h-114l-346 457h-218v-457h-106v1071h301q192 0 291.5 -79t99.5 -230q0 -112 -65 -188.5t-187 -102.5zM494 977h-177v-430h193q143 0 213 55.5t70 159.5q0 109 -72 162t-227 53z
" />
    <glyph glyph-name="uni0157.sc" horiz-adv-x="1056" 
d="M651 471l350 -457l-6 -14h-114l-346 457h-218v-457h-106v1071h301q192 0 291.5 -79t99.5 -230q0 -112 -65 -188.5t-187 -102.5zM494 977h-177v-430h193q143 0 213 55.5t70 159.5q0 109 -72 162t-227 53zM418 -520l112 377h99l6 -9l-139 -368h-78z" />
    <glyph glyph-name="s.sc" horiz-adv-x="927" 
d="M457 -41q-184 0 -351 107l15 106h8q156 -117 328 -117q118 0 189 57.5t71 145.5q0 79 -60.5 136.5t-230.5 127.5q-168 70 -235.5 142t-67.5 178q0 120 91.5 195t242.5 75q161 0 311 -82l-14 -106h-6q-145 92 -293 92q-100 0 -159.5 -47.5t-59.5 -122.5q0 -77 54 -125.5
t220 -120.5q182 -79 250.5 -154.5t68.5 -181.5q0 -133 -103 -219t-269 -86z" />
    <glyph glyph-name="sacute.sc" horiz-adv-x="927" 
d="M494 1239h-86l204 326h111l6 -11zM457 -41q-184 0 -351 107l15 106h8q156 -117 328 -117q118 0 189 57.5t71 145.5q0 79 -60.5 136.5t-230.5 127.5q-168 70 -235.5 142t-67.5 178q0 120 91.5 195t242.5 75q161 0 311 -82l-14 -106h-6q-145 92 -293 92
q-100 0 -159.5 -47.5t-59.5 -122.5q0 -77 54 -125.5t220 -120.5q182 -79 250.5 -154.5t68.5 -181.5q0 -133 -103 -219t-269 -86z" />
    <glyph glyph-name="scaron.sc" horiz-adv-x="927" 
d="M520 1239h-112l-209 313l6 13h82l178 -265l174 265h82l8 -13zM457 -41q-184 0 -351 107l15 106h8q156 -117 328 -117q118 0 189 57.5t71 145.5q0 79 -60.5 136.5t-230.5 127.5q-168 70 -235.5 142t-67.5 178q0 120 91.5 195t242.5 75q161 0 311 -82l-14 -106h-6
q-145 92 -293 92q-100 0 -159.5 -47.5t-59.5 -122.5q0 -77 54 -125.5t220 -120.5q182 -79 250.5 -154.5t68.5 -181.5q0 -133 -103 -219t-269 -86z" />
    <glyph glyph-name="scedilla.sc" horiz-adv-x="927" 
d="M829 264q0 -120 -85 -203t-226 -98l-61 -129q50 12 82 12q62 0 102.5 -40t40.5 -103q0 -86 -60.5 -136t-166.5 -50q-103 0 -189 45l13 73h8q79 -47 170 -47q65 0 103 31.5t38 79.5q0 42 -28.5 67t-82.5 25q-67 0 -135 -37l-6 8l92 197q-174 5 -332 107l15 106h8
q156 -117 328 -117q118 0 189 57.5t71 145.5q0 79 -60.5 136.5t-230.5 127.5q-168 70 -235.5 142t-67.5 178q0 120 91.5 195t242.5 75q161 0 311 -82l-14 -106h-6q-145 92 -293 92q-100 0 -159.5 -47.5t-59.5 -122.5q0 -77 54 -125.5t220 -120.5q182 -79 250.5 -154.5
t68.5 -181.5z" />
    <glyph glyph-name="uni0219.sc" horiz-adv-x="927" 
d="M457 -41q-184 0 -351 107l15 106h8q156 -117 328 -117q118 0 189 57.5t71 145.5q0 79 -60.5 136.5t-230.5 127.5q-168 70 -235.5 142t-67.5 178q0 120 91.5 195t242.5 75q161 0 311 -82l-14 -106h-6q-145 92 -293 92q-100 0 -159.5 -47.5t-59.5 -122.5q0 -77 54 -125.5
t220 -120.5q182 -79 250.5 -154.5t68.5 -181.5q0 -133 -103 -219t-269 -86zM453 -143h98l6 -9l-139 -368h-78z" />
    <glyph glyph-name="germandbls.sc" horiz-adv-x="1193" 
d="M1006 991l-261 -383q172 -5 265.5 -88.5t93.5 -234.5q0 -143 -94 -234.5t-246 -91.5q-161 0 -295 88l8 103h6q126 -97 275 -97q105 0 171 64t66 166q0 239 -303 239h-69v66l260 387h-566v-975h-106v1071h795v-80z" />
    <glyph glyph-name="t.sc" horiz-adv-x="946" 
d="M25 1071h897v-98h-396v-973h-106v973h-395v98z" />
    <glyph glyph-name="tbar.sc" horiz-adv-x="946" 
d="M922 1071v-98h-396v-389h217v-80h-217v-504h-106v504h-215v80h215v389h-395v98h897z" />
    <glyph glyph-name="tcaron.sc" horiz-adv-x="946" 
d="M737 1552l-209 -313h-112l-209 313l6 13h82l178 -265l174 265h82zM25 1071h897v-98h-396v-973h-106v973h-395v98z" />
    <glyph glyph-name="uni0163.sc" horiz-adv-x="946" 
d="M526 973v-973h-8l-80 -166q50 12 82 12q62 0 103 -40t41 -103q0 -86 -61 -136t-167 -50q-102 0 -188 45l12 73h8q79 -47 170 -47q65 0 103.5 31.5t38.5 79.5q0 42 -28.5 67t-82.5 25q-67 0 -135 -37l-6 8l110 238h-18v973h-395v98h897v-98h-396z" />
    <glyph glyph-name="uni021B.sc" horiz-adv-x="946" 
d="M25 1071h897v-98h-396v-973h-106v973h-395v98zM305 -520l113 377h98l6 -9l-139 -368h-78z" />
    <glyph glyph-name="u.sc" horiz-adv-x="1269" 
d="M635 -41q-436 0 -436 469v643h106v-635q0 -375 330 -375q167 0 248.5 93.5t81.5 285.5v631h106v-637q0 -232 -110.5 -353.5t-325.5 -121.5z" />
    <glyph glyph-name="uacute.sc" horiz-adv-x="1269" 
d="M668 1239h-86l204 326h111l6 -11zM635 -41q-436 0 -436 469v643h106v-635q0 -375 330 -375q167 0 248.5 93.5t81.5 285.5v631h106v-637q0 -232 -110.5 -353.5t-325.5 -121.5z" />
    <glyph glyph-name="ucircumflex.sc" horiz-adv-x="1269" 
d="M459 1239h-82l-6 12l209 314h112l209 -314l-8 -12h-82l-174 262zM635 -41q-436 0 -436 469v643h106v-635q0 -375 330 -375q167 0 248.5 93.5t81.5 285.5v631h106v-637q0 -232 -110.5 -353.5t-325.5 -121.5z" />
    <glyph glyph-name="udieresis.sc" horiz-adv-x="1269" 
d="M473 1309q-35 0 -56.5 22.5t-21.5 57.5t21.5 57t56.5 24q35 -2 56.5 -24t21.5 -57t-21.5 -57.5t-56.5 -22.5zM799 1309q-35 0 -56.5 22.5t-21.5 57.5t21.5 57t56.5 24q37 -1 58.5 -23.5t21.5 -57.5q0 -36 -22 -58t-58 -22zM635 -41q-436 0 -436 469v643h106v-635
q0 -375 330 -375q167 0 248.5 93.5t81.5 285.5v631h106v-637q0 -232 -110.5 -353.5t-325.5 -121.5z" />
    <glyph glyph-name="ugrave.sc" horiz-adv-x="1269" 
d="M692 1239h-88l-235 315l6 11h110zM635 -41q-436 0 -436 469v643h106v-635q0 -375 330 -375q167 0 248.5 93.5t81.5 285.5v631h106v-637q0 -232 -110.5 -353.5t-325.5 -121.5z" />
    <glyph glyph-name="uhungarumlaut.sc" horiz-adv-x="1269" 
d="M524 1239h-88l207 326h111l6 -11zM821 1239h-88l207 326h111l6 -11zM635 -41q-436 0 -436 469v643h106v-635q0 -375 330 -375q167 0 248.5 93.5t81.5 285.5v631h106v-637q0 -232 -110.5 -353.5t-325.5 -121.5z" />
    <glyph glyph-name="umacron.sc" horiz-adv-x="1269" 
d="M897 1331h-520v86h520v-86zM635 -41q-436 0 -436 469v643h106v-635q0 -375 330 -375q167 0 248.5 93.5t81.5 285.5v631h106v-637q0 -232 -110.5 -353.5t-325.5 -121.5z" />
    </font>
</defs>
</svg>
