<?xml version="1.0" standalone="no"?>
<!DOCTYPE svg PUBLIC "-//W3C//DTD SVG 1.1//EN" "http://www.w3.org/Graphics/SVG/1.1/DTD/svg11.dtd" >
<svg xmlns="http://www.w3.org/2000/svg" xmlns:xlink="http://www.w3.org/1999/xlink" version="1.1">
<metadata>
Created by FontForge 20170731 at Thu Aug 17 18:06:10 2023
 By Aleksey,,,
Copyright (c) 2017 by Botio Nikoltchev. All rights reserved.
</metadata>
<defs>
<font id="Apparat-Black" horiz-adv-x="0" >
  <font-face 
    font-family="Apparat Black"
    font-weight="850"
    font-stretch="normal"
    units-per-em="2048"
    panose-1="0 0 9 0 0 0 0 0 0 0"
    ascent="1556"
    descent="-492"
    x-height="1022"
    cap-height="1450"
    bbox="-1733 -590 2810 1995"
    underline-thickness="102"
    underline-position="-307"
    unicode-range="U+000D-FB02"
  />
<missing-glyph horiz-adv-x="1343" 
d="M205 1522h934v-1522h-934v1522zM1020 109v1304h-696v-1304h696zM500 995l-21 -8l-78 17q19 104 91.5 164.5t179.5 60.5q113 0 183.5 -64t70.5 -166q0 -75 -27.5 -128t-95.5 -109q-61 -51 -79 -83t-19 -91l-3 -68h-96l-2 70q-2 65 23.5 115.5t83.5 101.5q66 56 87 94.5
t21 93.5q0 63 -41.5 103.5t-109.5 40.5q-66 0 -110.5 -37.5t-57.5 -106.5zM662 252q-32 0 -55 22t-23 54q0 33 22.5 55.5t55.5 22.5q31 0 53 -22.5t22 -55.5q0 -32 -22 -54t-53 -22z" />
    <glyph glyph-name="f_i" unicode="fi" horiz-adv-x="1482" 
d="M1174 1135q-101 0 -166.5 58.5t-65.5 149.5q0 92 65 149.5t167 57.5q103 0 166 -57.5t63 -149.5q0 -91 -64 -149.5t-165 -58.5zM582 0h-404v721h-151v301h151v45q0 251 102 365t338 114q59 0 135 -10.5t124 -28.5l-23 -311l-20 -12q-62 30 -136 30q-63 0 -89.5 -33
t-26.5 -118v-41h245v-301h-245v-721zM1374 0h-403v1022h403v-1022z" />
    <glyph glyph-name="f_l" unicode="fl" horiz-adv-x="1492" 
d="M582 0h-404v721h-151v301h151v45q0 251 102 365t338 114q59 0 135 -10.5t124 -28.5l-23 -311l-20 -12q-62 30 -136 30q-63 0 -89.5 -33t-26.5 -118v-41h245v-301h-245v-721zM1384 0h-403v1505h403v-1505z" />
    <glyph glyph-name=".notdef" horiz-adv-x="1343" 
d="M205 1522h934v-1522h-934v1522zM1020 109v1304h-696v-1304h696zM500 995l-21 -8l-78 17q19 104 91.5 164.5t179.5 60.5q113 0 183.5 -64t70.5 -166q0 -75 -27.5 -128t-95.5 -109q-61 -51 -79 -83t-19 -91l-3 -68h-96l-2 70q-2 65 23.5 115.5t83.5 101.5q66 56 87 94.5
t21 93.5q0 63 -41.5 103.5t-109.5 40.5q-66 0 -110.5 -37.5t-57.5 -106.5zM662 252q-32 0 -55 22t-23 54q0 33 22.5 55.5t55.5 22.5q31 0 53 -22.5t22 -55.5q0 -32 -22 -54t-53 -22z" />
    <glyph glyph-name=".null" 
 />
    <glyph glyph-name="nonmarkingreturn" horiz-adv-x="682" 
 />
    <glyph glyph-name="NULL" horiz-adv-x="989" 
 />
    <glyph glyph-name="NULL" horiz-adv-x="989" 
 />
    <glyph glyph-name="CR" unicode="&#xd;" horiz-adv-x="614" 
 />
    <glyph glyph-name="space" unicode=" " horiz-adv-x="471" 
 />
    <glyph glyph-name="exclam" unicode="!" horiz-adv-x="722" 
d="M543 522h-363l-28 928h417zM360 -25q-97 0 -160 64t-63 154q0 94 63 154.5t160 60.5q98 0 162 -60.5t64 -154.5q0 -90 -63.5 -154t-162.5 -64z" />
    <glyph glyph-name="quotedbl" unicode="&#x22;" horiz-adv-x="1036" 
d="M453 844h-312v606h312v-606zM895 844h-311v606h311v-606z" />
    <glyph glyph-name="numbersign" unicode="#" horiz-adv-x="1476" 
d="M1352 1100v-252h-203l-33 -246h215v-252h-252l-49 -350h-272l49 350h-244l-49 -350h-270l49 350h-168v252h205l32 246h-217v252h254l50 350h270l-49 -350h243l50 350h272l-49 -350h166zM600 602h244l33 246h-244z" />
    <glyph glyph-name="dollar" unicode="$" horiz-adv-x="1230" 
d="M1161 428q0 -172 -114.5 -295t-309.5 -160v-153h-245v143q-231 19 -404 115l59 373h15q86 -62 195.5 -102t209.5 -40q82 0 123 25t41 69q0 32 -19.5 55.5t-80 57t-182.5 84.5q-200 83 -283.5 187.5t-83.5 269.5q0 162 108 276t302 146v151h245v-145q191 -18 340 -99
l-59 -372h-14q-80 59 -182.5 92t-192.5 33q-119 0 -119 -76q0 -28 15.5 -47.5t74 -52t184.5 -86.5q204 -88 290.5 -195t86.5 -254z" />
    <glyph glyph-name="percent" unicode="%" horiz-adv-x="2027" 
d="M514 700q-166 0 -278.5 111.5t-112.5 278.5q0 168 112 278.5t279 110.5t279 -110.5t112 -278.5q0 -167 -112.5 -278.5t-278.5 -111.5zM715 0h-252l850 1450h252zM514 950q58 0 95.5 39t37.5 101q0 63 -37 102t-96 39t-97 -39t-38 -102q0 -61 38 -100.5t97 -39.5z
M1513 -31q-167 0 -279 111t-112 278q0 168 111.5 279t279.5 111q167 0 279.5 -111t112.5 -279q0 -167 -113 -278t-279 -111zM1513 219q59 0 96.5 39t37.5 100q0 63 -37.5 102.5t-96.5 39.5t-97 -39.5t-38 -102.5q0 -61 38 -100t97 -39z" />
    <glyph glyph-name="ampersand" unicode="&#x26;" horiz-adv-x="1642" 
d="M1348 295l307 -295h-494l-67 68q-192 -107 -461 -107q-244 0 -397.5 125.5t-153.5 325.5q0 122 69 221t199 162q-74 62 -113.5 145t-39.5 172q0 169 135.5 274t353.5 105q214 0 344.5 -104t130.5 -271q0 -124 -64 -216.5t-204 -168.5l182 -174q48 89 86 213l19 14h385
q-77 -303 -217 -489zM690 1210q-52 0 -83.5 -31t-31.5 -81q0 -83 99 -162q127 55 127 164q0 50 -30 80t-81 30zM670 283q92 0 170 34l-262 256q-91 -49 -91 -141q0 -66 51.5 -107.5t131.5 -41.5z" />
    <glyph glyph-name="quotesingle" unicode="'" horiz-adv-x="593" 
d="M453 844h-312v606h312v-606z" />
    <glyph glyph-name="parenleft" unicode="(" horiz-adv-x="770" 
d="M729 -369h-321q-144 197 -227 450.5t-83 508.5t83 508t227 450h321q-173 -268 -247 -493.5t-74 -464.5t74 -465t247 -494z" />
    <glyph glyph-name="parenright" unicode=")" horiz-adv-x="770" 
d="M362 -369h-321q173 268 247 494t74 465t-74 464.5t-247 493.5h321q144 -197 227 -450t83 -508t-83 -508.5t-227 -450.5z" />
    <glyph glyph-name="asterisk" unicode="*" horiz-adv-x="999" 
d="M348 643l-47 -6l-149 108l-5 43l158 189l-237 61l-21 39l59 180l41 17l240 -90l-12 237l31 29h188l29 -29l-11 -237l238 90l41 -17l61 -180l-20 -39l-238 -61l158 -189l-4 -43l-150 -108l-47 6l-153 225z" />
    <glyph glyph-name="plus" unicode="+" horiz-adv-x="1417" 
d="M840 752h422v-263h-422v-421h-262v421h-422v263h422v422h262v-422z" />
    <glyph glyph-name="comma" unicode="," horiz-adv-x="610" 
d="M526 391l21 -35l-268 -729h-291l182 764h356z" />
    <glyph glyph-name="hyphen" unicode="-" horiz-adv-x="745" 
d="M664 315h-582v263h582v-263z" />
    <glyph glyph-name="period" unicode="." horiz-adv-x="573" 
d="M287 -25q-98 0 -161 64t-63 154q0 94 63 154.5t161 60.5t160.5 -60.5t62.5 -154.5q0 -90 -63 -154t-160 -64z" />
    <glyph glyph-name="slash" unicode="/" horiz-adv-x="933" 
d="M586 1450h336l-572 -1448h-338z" />
    <glyph glyph-name="zero" unicode="0" horiz-adv-x="1409" 
d="M705 -41q-284 0 -447.5 205t-163.5 561t163.5 561t447.5 205t447 -205t163 -561t-163 -561t-447 -205zM705 350q172 0 172 375t-172 375q-173 0 -173 -375t173 -375z" />
    <glyph glyph-name="one" unicode="1" horiz-adv-x="901" 
d="M762 0h-424v680q0 144 39 297l-8 4q-68 -57 -156 -107l-139 -77l-35 14l29 406l555 258h139v-1475z" />
    <glyph glyph-name="two" unicode="2" horiz-adv-x="1124" 
d="M1049 0h-1022l-33 162l444 518q93 104 135.5 178.5t42.5 138.5q0 55 -34 86t-101 31q-173 0 -356 -149h-14l-70 381q99 57 245.5 101t266.5 44q240 0 370 -123t130 -328q0 -306 -254 -548l-39 -39q-74 -66 -162 -119l2 -8q157 45 272 45h177v-371z" />
    <glyph glyph-name="three" unicode="3" horiz-adv-x="1122" 
d="M768 752v-4q148 -31 223.5 -125t75.5 -230q0 -196 -150 -315t-415 -119q-130 0 -254.5 33t-218.5 86l71 356h17q80 -56 172.5 -85.5t179.5 -29.5q82 0 125 37t43 105q0 135 -186 135h-170v274h151q193 0 193 148q0 57 -39.5 90t-114.5 33q-163 0 -344 -121h-14l-70 336
q109 59 249.5 97t287.5 38q214 0 335 -103.5t121 -271.5q0 -132 -69 -228.5t-199 -135.5z" />
    <glyph glyph-name="four" unicode="4" horiz-adv-x="1277" 
d="M1092 0h-418v264h-631l-43 303l590 885h502v-834h151v-354h-151v-264zM530 782l-116 -164h270v111q0 161 33 367h-15q-75 -166 -172 -314z" />
    <glyph glyph-name="five" unicode="5" horiz-adv-x="1187" 
d="M522 -41q-254 0 -475 115l72 362h14q161 -117 361 -117q96 0 146 47.5t50 131.5q0 77 -47 120.5t-127 43.5q-142 0 -287 -82l-127 59l60 811h842v-346h-486l-14 -178q95 32 198 32q184 0 301 -125t117 -333q0 -245 -160.5 -393t-437.5 -148z" />
    <glyph glyph-name="six" unicode="6" horiz-adv-x="1341" 
d="M858 977q188 0 300 -126t112 -339q0 -252 -162.5 -402.5t-435.5 -150.5t-437.5 153t-164.5 406q0 151 75.5 304t262.5 376l206 252h445l18 -57l-192 -252q-51 -68 -104 -114t-134 -93l4 -8q111 51 207 51zM672 340q72 0 117 48t45 124t-42 123t-114 47q-59 0 -115 -27
q-53 -59 -53 -145q0 -76 45 -123t117 -47z" />
    <glyph glyph-name="seven" unicode="7" horiz-adv-x="1030" 
d="M575 1090l-2 4q-151 -15 -317 -15h-246v371h1071l35 -100l-598 -1350h-403l-29 57l274 635q67 161 107.5 237t107.5 161z" />
    <glyph glyph-name="eight" unicode="8" horiz-adv-x="1259" 
d="M985 758q113 -57 168 -149.5t55 -198.5q0 -213 -155 -332t-424 -119q-272 0 -426 112.5t-154 317.5q0 103 58 189t163 137q-83 54 -125.5 141t-42.5 191q0 206 145 325t400 119q236 0 372 -111t136 -307q0 -95 -43.5 -176.5t-126.5 -138.5zM629 1161q-56 0 -87.5 -37.5
t-31.5 -113.5q0 -128 111 -154l67 -16q57 69 57 174q0 72 -31 109.5t-85 37.5zM629 281q62 0 103.5 42.5t41.5 131.5q0 63 -35 102t-100 51l-70 15q-86 -79 -86 -166q0 -89 42.5 -132.5t103.5 -43.5z" />
    <glyph glyph-name="nine" unicode="9" horiz-adv-x="1343" 
d="M674 1491q267 0 431.5 -151t164.5 -390q0 -155 -74.5 -314.5t-263.5 -383.5l-207 -252h-444l-19 57l193 252q52 69 104.5 115t134.5 92l-6 8q-108 -51 -207 -51q-188 0 -298.5 125.5t-110.5 339.5q0 253 162.5 403t439.5 150zM776 795q53 59 53 143q0 78 -44 125t-117 47
q-72 0 -117 -48t-45 -124t42 -123t116 -47q56 0 112 27z" />
    <glyph glyph-name="colon" unicode=":" horiz-adv-x="585" 
d="M293 602q-98 0 -160.5 63.5t-62.5 153.5q0 93 62.5 154t160.5 61t160.5 -61t62.5 -154q0 -90 -62 -153.5t-161 -63.5zM293 -25q-97 0 -160 64t-63 154q0 94 62.5 154.5t160.5 60.5t160.5 -60.5t62.5 -154.5q0 -90 -62 -154t-161 -64z" />
    <glyph glyph-name="semicolon" unicode=";" horiz-adv-x="624" 
d="M334 602q-99 0 -162 63t-63 154q0 93 63.5 154t161.5 61q97 0 160 -61.5t63 -153.5q0 -91 -62.5 -154t-160.5 -63zM526 391l21 -35l-268 -729h-291l182 764h356z" />
    <glyph glyph-name="less" unicode="&#x3c;" horiz-adv-x="1417" 
d="M176 743l1065 439v-293l-666 -266l666 -269v-291l-1065 439v241z" />
    <glyph glyph-name="equal" unicode="=" horiz-adv-x="1417" 
d="M1262 696h-1106v265h1106v-265zM1262 285h-1106v262h1106v-262z" />
    <glyph glyph-name="greater" unicode="&#x3e;" horiz-adv-x="1417" 
d="M176 889v293l1065 -439v-241l-1065 -439v291l668 269z" />
    <glyph glyph-name="question" unicode="?" horiz-adv-x="1136" 
d="M496 1151q-79 0 -184 -37t-177 -90h-16l-49 328q103 62 237 100.5t240 38.5q232 0 366 -112t134 -292q0 -129 -58 -219t-196 -178q-53 -37 -70.5 -65t-17.5 -68v-35h-383v53q0 96 43.5 169.5t150.5 154.5q66 51 90.5 84.5t24.5 71.5q0 43 -33.5 69.5t-101.5 26.5z
M522 -25q-97 0 -160 64t-63 154q0 94 63 154.5t160 60.5q98 0 160.5 -60.5t62.5 -154.5q0 -90 -62 -154t-161 -64z" />
    <glyph glyph-name="at" unicode="@" horiz-adv-x="1875" 
d="M1157 836h219l-45 -248q-33 -173 -33 -219q0 -68 72 -68q63 0 107.5 81t44.5 196q0 247 -139.5 383.5t-393.5 136.5q-282 0 -455.5 -173.5t-173.5 -455.5q0 -278 172.5 -441t466.5 -163q197 0 371 86l19 -6l53 -213q-202 -90 -467 -90q-194 0 -357.5 60t-277.5 167.5
t-176.5 261.5t-61.5 338q2 241 117 436t317 305.5t451 110.5q231 0 410 -91t278 -255.5t99 -376.5q0 -232 -133 -376t-345 -144q-77 0 -130.5 26.5t-75.5 77.5q-116 -104 -250 -104q-131 0 -214 99.5t-83 258.5q0 195 108.5 324t272.5 129q61 0 121 -27.5t98 -68.5zM813 442
q0 -139 107 -139q66 0 122 35l48 276q-56 56 -121 56q-68 0 -112 -67t-44 -161z" />
    <glyph glyph-name="A" unicode="A" horiz-adv-x="1503" 
d="M496 1450h520l493 -1440l-10 -10h-471l-63 225h-433l-63 -225h-467l-8 10zM655 670l-43 -158h271l-45 158q-63 225 -88 426h-7q-28 -190 -88 -426z" />
    <glyph glyph-name="B" unicode="B" horiz-adv-x="1320" 
d="M676 0h-545v1450h539q266 0 398 -99t132 -282q0 -110 -65 -194t-172 -113v-8q297 -71 297 -344q0 -410 -584 -410zM555 1130v-256h94q162 0 162 130q0 126 -166 126h-90zM555 616v-286h100q201 0 201 145q0 141 -197 141h-104z" />
    <glyph glyph-name="C" unicode="C" horiz-adv-x="1415" 
d="M825 -41q-334 0 -539.5 208.5t-205.5 551.5q0 231 96.5 407.5t265 270.5t381.5 94q249 0 477 -131l-59 -406h-16q-162 144 -353 144q-154 0 -245.5 -101t-91.5 -270q0 -172 93.5 -273.5t250.5 -101.5q189 0 354 146h14l62 -408q-232 -131 -484 -131z" />
    <glyph glyph-name="D" unicode="D" horiz-adv-x="1554" 
d="M647 0h-516v1450h516q390 0 611 -193.5t221 -527.5q0 -338 -224 -533.5t-608 -195.5zM555 1081v-712h80q208 0 310 86.5t102 273.5q0 181 -101.5 266.5t-306.5 85.5h-84z" />
    <glyph glyph-name="E" unicode="E" horiz-adv-x="1193" 
d="M1034 590h-479v-230h547l-39 -360h-932v1450h932l39 -360h-547v-213h479v-287z" />
    <glyph glyph-name="F" unicode="F" horiz-adv-x="1155" 
d="M1081 1090h-526v-230h459v-334h-459v-526h-424v1450h909z" />
    <glyph glyph-name="G" unicode="G" horiz-adv-x="1515" 
d="M807 -41q-221 0 -386.5 94.5t-253 265t-87.5 394.5q0 174 60 320.5t163 246.5t243.5 155.5t299.5 55.5q297 0 545 -139l-74 -402h-14q-206 154 -418 154q-167 0 -258.5 -104.5t-91.5 -286.5q0 -175 79 -276t215 -101q92 0 170 37v166h-180v278h561v-713
q-162 -83 -295.5 -114t-277.5 -31z" />
    <glyph glyph-name="H" unicode="H" horiz-adv-x="1568" 
d="M1014 913v537h426v-1450h-426v547h-459v-547h-424v1450h424v-537h459z" />
    <glyph glyph-name="I" unicode="I" horiz-adv-x="686" 
d="M131 0v1450h424v-1450h-424z" />
    <glyph glyph-name="J" unicode="J" horiz-adv-x="720" 
d="M168 336v1114h426v-1038q0 -186 -38.5 -303.5t-127.5 -202t-256 -164.5l-172 248l2 14q67 36 102 75.5t49.5 98.5t14.5 158z" />
    <glyph glyph-name="K" unicode="K" horiz-adv-x="1497" 
d="M1491 1438l-512 -592l528 -834l-8 -12h-485l-320 516l-139 -162v-354h-424v1450h424v-213q0 -162 -18 -391h8q109 177 178 266l274 338h486z" />
    <glyph glyph-name="L" unicode="L" horiz-adv-x="1165" 
d="M131 0v1450h424v-1071h573l-47 -379h-950z" />
    <glyph glyph-name="M" unicode="M" horiz-adv-x="1918" 
d="M547 0h-416v1450h506l321 -659h7l317 659h506v-1450h-416v500q0 192 10 424h-8q-9 -20 -172 -342l-225 -443h-37l-223 443q-163 322 -172 342h-8q10 -232 10 -424v-500z" />
    <glyph glyph-name="N" unicode="N" horiz-adv-x="1626" 
d="M553 0h-422v1450h430l332 -467q106 -156 209 -342h8q-37 227 -37 426v383h424v-1456h-391l-365 495q-103 141 -219 345h-6q37 -230 37 -445v-389z" />
    <glyph glyph-name="O" unicode="O" horiz-adv-x="1734" 
d="M868 -41q-169 0 -315.5 58.5t-250 160t-163 243.5t-59.5 304q0 222 101 397t280.5 272t406.5 97q169 0 315.5 -56.5t250 -157t162.5 -243t59 -309.5q0 -162 -59.5 -304t-163 -243.5t-250 -160t-314.5 -58.5zM868 346q149 0 245.5 107t96.5 272q0 168 -96 273.5
t-246 105.5q-151 0 -247.5 -105.5t-96.5 -273.5q0 -165 97 -272t247 -107z" />
    <glyph glyph-name="P" unicode="P" horiz-adv-x="1331" 
d="M692 1450q290 0 436 -127.5t146 -376.5q0 -232 -137 -360.5t-398 -128.5h-184v-457h-424v1450h561zM555 782h127q190 0 190 166q0 88 -47.5 129t-144.5 41h-125v-336z" />
    <glyph glyph-name="Q" unicode="Q" horiz-adv-x="1734" 
d="M1655 725q0 -207 -92 -375.5t-254 -269.5l290 -375l-16 -37h-448l-209 293q-18 -2 -58 -2q-169 0 -315.5 58.5t-250 160t-163 243.5t-59.5 304q0 222 101 397t280.5 272t406.5 97q169 0 315.5 -56.5t250 -157t162.5 -243t59 -309.5zM524 725q0 -165 97 -272t247 -107
q149 0 245.5 107t96.5 272q0 168 -96 273.5t-246 105.5q-151 0 -247.5 -105.5t-96.5 -273.5z" />
    <glyph glyph-name="R" unicode="R" horiz-adv-x="1394" 
d="M1032 575l377 -538l-16 -37h-447l-325 502h-66v-502h-424v1450h559q578 0 578 -483q0 -140 -60.5 -239.5t-175.5 -152.5zM676 1110h-119v-305h119q188 0 188 151q0 154 -188 154z" />
    <glyph glyph-name="S" unicode="S" horiz-adv-x="1234" 
d="M588 -41q-276 0 -500 119l59 375h15q86 -62 196 -102t211 -40q81 0 121.5 24.5t40.5 67.5q0 31 -19.5 55t-79 56.5t-181.5 83.5q-201 85 -285 189.5t-84 269.5q0 191 148.5 312.5t408.5 121.5q117 0 236 -29.5t206 -75.5l-59 -372h-14q-82 57 -184.5 90t-192.5 33
q-117 0 -117 -76q0 -27 15.5 -46t73.5 -50.5t183 -85.5q204 -89 290.5 -195.5t86.5 -255.5q0 -205 -158.5 -337t-416.5 -132z" />
    <glyph glyph-name="T" unicode="T" horiz-adv-x="1228" 
d="M20 1450h1188v-395h-381v-1055h-424v1055h-383v395z" />
    <glyph glyph-name="U" unicode="U" horiz-adv-x="1515" 
d="M758 -41q-332 0 -486.5 169.5t-154.5 520.5v801h424v-776q0 -177 51 -251.5t166 -74.5t166 75t51 253v774h424v-801q0 -339 -160.5 -514.5t-480.5 -175.5z" />
    <glyph glyph-name="V" unicode="V" horiz-adv-x="1538" 
d="M1020 -6h-504l-510 1446l10 10h480l198 -723q2 -7 16.5 -59.5t22 -81t18.5 -80.5t17 -98h8q16 116 70 317l196 725h480l10 -12z" />
    <glyph glyph-name="W" unicode="W" horiz-adv-x="2103" 
d="M27 1450h458l136 -643q27 -119 53 -315h8q15 131 55 301l158 655h313l156 -655q34 -134 59 -301h9q14 125 49 315l135 643h459l10 -10l-410 -1446h-432l-131 553q-31 142 -57 287h-6q-22 -124 -58 -287l-133 -553h-432l-408 1446z" />
    <glyph glyph-name="X" unicode="X" horiz-adv-x="1519" 
d="M492 0h-492l-6 12l493 736l-467 690l9 12h499l97 -168q63 -109 143 -289h6q62 152 135 289l95 168h487l6 -12l-459 -686l488 -740l-6 -12h-508l-92 166q-117 220 -158 317h-8q-15 -37 -30.5 -71t-34.5 -70t-30 -56.5t-34.5 -62.5t-30.5 -55z" />
    <glyph glyph-name="Y" unicode="Y" horiz-adv-x="1437" 
d="M8 1450h492l112 -264q57 -140 103 -283h8q59 172 102 283l113 264h492l6 -12l-506 -869v-569h-422v569l-506 869z" />
    <glyph glyph-name="Z" unicode="Z" horiz-adv-x="1363" 
d="M35 41l606 1038h-555v371h1239l4 -41l-629 -1030h598v-379h-1259z" />
    <glyph glyph-name="bracketleft" unicode="[" horiz-adv-x="710" 
d="M590 -369h-488v1917h488v-258h-187v-1401h187v-258z" />
    <glyph glyph-name="backslash" unicode="\" horiz-adv-x="933" 
d="M584 2l-572 1448h336l574 -1448h-338z" />
    <glyph glyph-name="bracketright" unicode="]" horiz-adv-x="710" 
d="M608 1548v-1917h-487v258h186v1401h-186v258h487z" />
    <glyph glyph-name="asciicircum" unicode="^" horiz-adv-x="1452" 
d="M496 559h-398l455 891h346l455 -891h-398l-229 555z" />
    <glyph glyph-name="underscore" unicode="_" horiz-adv-x="1024" 
d="M1024 -150v-190h-1024v190h1024z" />
    <glyph glyph-name="grave" unicode="`" horiz-adv-x="684" 
d="M72 1538h346l205 -367h-258l-304 347z" />
    <glyph glyph-name="a" unicode="a" horiz-adv-x="1107" 
d="M336 -41q-138 3 -212.5 68t-74.5 182q0 151 126.5 237.5t428.5 131.5v40q0 74 -23.5 102t-82.5 28q-66 0 -158 -32t-156 -79h-14l-47 297q96 58 226 93.5t243 35.5q207 0 307 -103.5t100 -314.5v-645h-321l-31 102q-140 -146 -311 -143zM489 180q54 0 115 49v203
q-110 -22 -151 -59t-41 -101q0 -92 77 -92z" />
    <glyph glyph-name="b" unicode="b" horiz-adv-x="1280" 
d="M813 1063q183 0 289 -146t106 -395q0 -252 -117.5 -407.5t-308.5 -155.5q-170 0 -307 121l-10 -80h-359v1505h404v-571q146 129 303 129zM639 289q83 0 130.5 63t47.5 170q0 98 -43 156.5t-115 58.5q-77 0 -149 -53v-365q64 -30 129 -30z" />
    <glyph glyph-name="c" unicode="c" horiz-adv-x="1009" 
d="M598 -41q-241 0 -384.5 150.5t-143.5 398.5q0 243 152 399t396 156q155 0 324 -88l-49 -322h-14q-98 88 -205 88q-91 0 -147 -63t-56 -168q0 -102 54 -165.5t141 -63.5q56 0 105.5 18.5t111.5 67.5h14l43 -310q-149 -98 -342 -98z" />
    <glyph glyph-name="d" unicode="d" horiz-adv-x="1277" 
d="M768 971v534h403v-1505h-366l-14 96q-69 -63 -154 -100t-172 -37q-178 0 -286.5 145t-108.5 396q0 253 121.5 408t308.5 155q146 0 268 -92zM459 500q0 -95 45 -155t121 -60q71 0 143 59v358q-71 29 -131 29q-80 0 -129 -61.5t-49 -169.5z" />
    <glyph glyph-name="e" unicode="e" horiz-adv-x="1175" 
d="M1102 524q0 -36 -4 -71h-621q2 -94 51 -144.5t142 -50.5q178 0 315 104h14l43 -284q-79 -52 -192.5 -85.5t-228.5 -33.5q-134 0 -239.5 41.5t-173 115.5t-103 174t-35.5 218q0 241 144.5 398t385.5 157q240 0 371 -149t131 -390zM479 612h266q-4 87 -37 133t-90 46
q-58 0 -95.5 -47t-43.5 -132z" />
    <glyph glyph-name="f" unicode="f" horiz-adv-x="864" 
d="M582 0h-404v721h-151v301h151v45q0 251 102 365t338 114q59 0 135 -10.5t124 -28.5l-23 -311l-20 -12q-62 30 -136 30q-63 0 -89.5 -33t-26.5 -118v-41h245v-301h-245v-721z" />
    <glyph glyph-name="g" unicode="g" horiz-adv-x="1280" 
d="M813 938l18 84h340v-954q0 -265 -140 -412.5t-406 -147.5q-249 0 -449 105l45 330h15q69 -50 164.5 -75.5t181.5 -25.5q101 0 142.5 39.5t41.5 136.5v132q-137 -121 -303 -121q-176 0 -282.5 131t-106.5 356q0 243 119.5 395t304.5 152q178 0 315 -125zM623 319
q68 0 143 58v325q-71 29 -131 29q-77 0 -124.5 -57.5t-47.5 -151.5q0 -96 42 -149.5t118 -53.5z" />
    <glyph glyph-name="h" unicode="h" horiz-adv-x="1273" 
d="M844 1063q152 0 236.5 -104t84.5 -297v-662h-403v596q0 70 -22 101.5t-68 31.5q-67 0 -162 -74v-655h-404v1505h404v-602q153 160 334 160z" />
    <glyph glyph-name="i" unicode="i" horiz-adv-x="618" 
d="M309 1135q-101 0 -166 58.5t-65 149.5q0 92 64.5 149.5t166.5 57.5q103 0 166.5 -57.5t63.5 -149.5q0 -91 -64.5 -149.5t-165.5 -58.5zM510 0h-404v1022h404v-1022z" />
    <glyph glyph-name="j" unicode="j" horiz-adv-x="618" 
d="M309 1135q-101 0 -166 58.5t-65 149.5q0 92 64.5 149.5t166.5 57.5q104 0 167 -57t63 -150q0 -91 -64 -149.5t-166 -58.5zM121 -492l-166 240l2 27q85 53 117 120.5t32 200.5v926h404v-854q0 -184 -34.5 -299t-116.5 -198t-238 -163z" />
    <glyph glyph-name="k" unicode="k" horiz-adv-x="1220" 
d="M510 0h-404v1505h404v-260q0 -278 -27 -579l6 -2q61 97 177 247l88 111h430l6 -14l-344 -406l366 -590l-6 -12h-422l-204 334l-70 -86v-248z" />
    <glyph glyph-name="l" unicode="l" horiz-adv-x="618" 
d="M510 0h-404v1505h404v-1505z" />
    <glyph glyph-name="m" unicode="m" horiz-adv-x="1886" 
d="M1473 1063q146 0 226.5 -103.5t80.5 -297.5v-662h-404v606q0 123 -76 123q-68 0 -155 -74v-655h-404v606q0 64 -18 93.5t-57 29.5q-61 0 -156 -74v-655h-404v1022h367l14 -143q159 184 351 184q202 0 274 -195q163 195 361 195z" />
    <glyph glyph-name="n" unicode="n" horiz-adv-x="1273" 
d="M844 1063q152 0 236.5 -104t84.5 -297v-662h-403v596q0 71 -21.5 102t-68.5 31q-67 0 -162 -74v-655h-404v1022h367l14 -143q159 184 357 184z" />
    <glyph glyph-name="o" unicode="o" horiz-adv-x="1265" 
d="M633 -41q-248 0 -405.5 156.5t-157.5 394.5q0 156 70.5 281.5t199.5 198.5t293 73q165 0 294.5 -73t200 -198.5t70.5 -281.5t-71 -281.5t-200.5 -197.5t-293.5 -72zM633 293q81 0 126.5 59.5t45.5 157.5q0 97 -46 157t-126 60q-78 0 -124 -60t-46 -157q0 -98 45.5 -157.5
t124.5 -59.5z" />
    <glyph glyph-name="p" unicode="p" horiz-adv-x="1280" 
d="M813 1063q183 0 289 -146t106 -395q0 -252 -117.5 -407.5t-308.5 -155.5q-150 0 -272 92v-502h-404v1473h367l10 -113q69 69 155.5 111.5t174.5 42.5zM639 289q83 0 130.5 63t47.5 170q0 98 -43 156.5t-115 58.5q-77 0 -149 -53v-365q64 -30 129 -30z" />
    <glyph glyph-name="q" unicode="q" horiz-adv-x="1275" 
d="M811 938l18 84h340v-1473h-403v525q-153 -115 -301 -115q-177 0 -286 144t-109 397q0 256 121.5 409.5t308.5 153.5q171 0 311 -125zM625 285q70 0 141 57v360q-68 29 -129 29q-79 0 -128.5 -60t-49.5 -171q0 -97 45.5 -156t120.5 -59z" />
    <glyph glyph-name="r" unicode="r" horiz-adv-x="835" 
d="M768 1057q1 0 47 -4l-20 -391l-19 -7q-40 7 -74 7q-106 0 -192 -95v-567h-404v1022h367l16 -168q72 103 135.5 153t143.5 50z" />
    <glyph glyph-name="s" unicode="s" horiz-adv-x="974" 
d="M467 -41q-96 0 -205.5 27.5t-193.5 72.5l41 295h14q164 -118 311 -118q44 0 69 17t25 46q0 31 -34.5 58.5t-135.5 68.5q-156 63 -220 135.5t-64 183.5q0 141 112 229.5t299 88.5q94 0 197 -26t188 -70l-45 -293h-14q-155 114 -285 114q-36 0 -55.5 -16t-19.5 -41
q0 -29 32 -53.5t142 -71.5q151 -63 215.5 -139t64.5 -182q0 -148 -119 -237t-319 -89z" />
    <glyph glyph-name="t" unicode="t" horiz-adv-x="882" 
d="M580 -41q-205 0 -305.5 96t-100.5 293v373h-151v301h159v170l297 176h96v-346h246v-301h-246v-289q0 -78 27 -107.5t90 -29.5q52 0 105 24l20 -10l10 -307q-43 -18 -113 -30.5t-134 -12.5z" />
    <glyph glyph-name="u" unicode="u" horiz-adv-x="1259" 
d="M750 375v647h403v-1022h-367l-14 162q-153 -203 -354 -203q-149 0 -230.5 104.5t-81.5 298.5v660h404v-600q0 -127 84 -127q69 0 156 80z" />
    <glyph glyph-name="v" unicode="v" horiz-adv-x="1150" 
d="M16 1022h418l60 -264l77 -369h9q16 72 41 194.5t36 172.5l60 266h418l8 -12l-352 -1016h-431l-352 1016z" />
    <glyph glyph-name="w" unicode="w" horiz-adv-x="1662" 
d="M31 1022h413l43 -252q20 -101 66 -391h8q25 142 84 401l55 238h265l53 -236q35 -137 84 -403h8q11 72 68 391l43 252h411l8 -12l-284 -1016h-389l-62 254q-36 161 -69 350h-9q-49 -262 -69 -352l-64 -252h-389l-282 1016z" />
    <glyph glyph-name="x" unicode="x" horiz-adv-x="1120" 
d="M23 1022h417l58 -160q48 -173 57 -223h6q15 80 57 223l64 160h416l8 -14l-268 -498l282 -498l-6 -12h-432l-68 170q-21 62 -51 201h-8q-25 -117 -53 -201l-64 -170h-432l-8 12l285 498l-269 498z" />
    <glyph glyph-name="y" unicode="y" horiz-adv-x="1220" 
d="M27 1022h458l68 -363q48 -208 57 -258h8q8 36 66 261l82 360h438l8 -14l-589 -1459h-412l-4 11l186 450l-375 998z" />
    <glyph glyph-name="z" unicode="z" horiz-adv-x="1122" 
d="M1061 0h-1016l-4 23l434 690h-407v309h1003l4 -23l-440 -688h426v-311z" />
    <glyph glyph-name="braceleft" unicode="{" horiz-adv-x="763" 
d="M45 461v258h14q67 1 99 40.5t32 119.5v342q0 153 78 240t219 87h187v-250h-80q-53 0 -81 -34.5t-28 -96.5v-331q0 -105 -48.5 -170t-125.5 -74v-4q77 -9 125.5 -74.5t48.5 -169.5v-332q0 -62 28 -96.5t81 -34.5h80v-250h-191q-139 0 -216 87.5t-77 240.5v342
q0 160 -131 160h-14z" />
    <glyph glyph-name="bar" unicode="|" horiz-adv-x="913" 
d="M614 -522h-317v2126h317v-2126z" />
    <glyph glyph-name="braceright" unicode="}" horiz-adv-x="763" 
d="M705 719h14v-258h-14q-130 0 -130 -160v-342q0 -153 -77 -240.5t-217 -87.5h-191v250h82q53 0 80 34t27 97v332q0 103 49.5 169t126.5 75v4q-77 9 -126.5 74.5t-49.5 169.5v331q0 63 -27 97t-80 34h-82v250h186q143 0 221 -86.5t78 -240.5v-342q0 -80 31.5 -119.5
t98.5 -40.5z" />
    <glyph glyph-name="asciitilde" unicode="~" horiz-adv-x="1417" 
d="M922 426q-56 0 -105.5 14t-87 33.5t-72 39.5t-74.5 34t-81 14q-102 0 -170 -129l-21 -4l-184 117q154 282 362 282q59 0 109.5 -14t85.5 -33.5t67.5 -39.5t71 -34t80.5 -14q109 0 176 131l21 4l184 -118q-155 -283 -362 -283z" />
    <glyph glyph-name="uni00A0" unicode="&#xa0;" horiz-adv-x="471" 
 />
    <glyph glyph-name="exclamdown" unicode="&#xa1;" horiz-adv-x="722" 
d="M360 1063q99 0 162.5 -63.5t63.5 -153.5q0 -94 -64 -154.5t-162 -60.5q-97 0 -160 60.5t-63 154.5q0 90 62.5 153.5t160.5 63.5zM152 -412l28 928h363l26 -928h-417z" />
    <glyph glyph-name="cent" unicode="&#xa2;" horiz-adv-x="1062" 
d="M907 569h15l49 -309q-91 -63 -207 -84v-180h-246v174q-196 32 -310 173t-114 347q0 197 115.5 340.5t308.5 181.5v179h246v-179q101 -17 207 -75l-53 -322h-15q-95 88 -209 88q-87 0 -142.5 -60t-55.5 -151q0 -88 53 -148.5t139 -60.5q57 0 107 18.5t112 67.5z" />
    <glyph glyph-name="sterling" unicode="&#xa3;" horiz-adv-x="1271" 
d="M680 377h559l-43 -377h-1075v377h153q39 50 39 127v110h-190v256h190v101q0 80 19.5 155t61.5 141t102 115.5t145.5 78.5t187.5 30q176 3 338 -55l-24 -349l-19 -12q-127 53 -231 53q-162 0 -162 -192v-66h320v-256h-320v-82q0 -104 -51 -155z" />
    <glyph glyph-name="currency" unicode="&#xa4;" horiz-adv-x="1220" 
d="M391 338l-151 -152l-150 152l150 149q-62 100 -62 226q0 122 58 221l-146 145l152 150l147 -148q103 58 225 58q116 0 222 -56l145 146l149 -150l-141 -141q60 -107 60 -225q0 -130 -62 -230l143 -145l-149 -152l-147 148q-101 -53 -220 -53q-121 0 -223 57zM614 553
q64 0 105 46t41 114q0 65 -42.5 110t-103.5 45q-63 0 -105 -45t-42 -110q0 -68 41.5 -114t105.5 -46z" />
    <glyph glyph-name="yen" unicode="&#xa5;" horiz-adv-x="1474" 
d="M948 1450h506l-375 -541h219v-256h-352v-121h352v-256h-352v-276h-418v276h-352v256h352v121h-352v256h217l-373 541h506l209 -483h4z" />
    <glyph glyph-name="brokenbar" unicode="&#xa6;" horiz-adv-x="913" 
d="M614 686h-317v918h317v-918zM614 -522h-317v917h317v-917z" />
    <glyph glyph-name="section" unicode="&#xa7;" horiz-adv-x="1302" 
d="M1069 328q96 -96 96 -224q0 -186 -148.5 -298.5t-395.5 -112.5q-117 0 -238 31t-209 77l53 338h15q82 -59 189 -94t206 -35q53 0 80.5 19.5t27.5 54.5q0 34 -32.5 58t-120.5 51l-90 34q-212 63 -299.5 148t-87.5 217q0 90 46 159.5t128 108.5q-113 93 -113 240
q0 169 143 280t361 111q113 0 231 -29.5t205 -75.5l-55 -335h-14q-79 57 -179 91t-178 34q-48 0 -73 -20t-25 -52t30 -54t115 -53l86 -30q208 -69 294.5 -156.5t86.5 -226.5q0 -83 -35 -150.5t-100 -105.5zM631 522l166 -59q22 9 35.5 30t13.5 48q0 40 -36.5 70t-121.5 63
l-164 59q-22 -8 -38.5 -31.5t-16.5 -50.5q0 -16 4.5 -29.5t16 -25t22 -19.5t34 -19t38 -17t47.5 -19z" />
    <glyph glyph-name="dieresis" unicode="&#xa8;" horiz-adv-x="894" 
d="M233 1167q-73 0 -122.5 50t-49.5 124q0 72 49.5 122t122.5 50q72 0 121 -50t49 -122q0 -74 -49 -124t-121 -50zM662 1167q-73 0 -120.5 50t-47.5 124q0 72 48 122t120 50t122 -50t50 -122q0 -74 -49.5 -124t-122.5 -50z" />
    <glyph glyph-name="copyright" unicode="&#xa9;" horiz-adv-x="1726" 
d="M866 -39q-217 0 -393 100t-274.5 274t-98.5 388q0 161 58 302.5t159 243.5t243.5 161t305.5 59q215 0 389.5 -100.5t272.5 -276t98 -389.5q0 -213 -98 -387.5t-272.5 -274.5t-389.5 -100zM858 106q130 0 245 48t196 130.5t127.5 196.5t46.5 242q0 172 -77.5 314t-217 224
t-312.5 82q-175 0 -315.5 -82t-218.5 -224t-78 -314t76.5 -312.5t215 -222.5t312.5 -82zM907 295q-186 0 -310 120.5t-124 311.5q0 193 125 314.5t311 121.5q120 0 240 -63l-39 -234h-14q-71 68 -166 68q-84 0 -137.5 -56t-53.5 -151q0 -91 53 -147t132 -56q50 0 90.5 13.5
t85.5 50.5h12l35 -223q-104 -70 -240 -70z" />
    <glyph glyph-name="ordfeminine" unicode="&#xaa;" horiz-adv-x="770" 
d="M418 1487q118 0 174.5 -58.5t56.5 -177.5v-342h-200l-21 52q-73 -73 -162 -70q-74 2 -114.5 36t-40.5 97q0 80 66.5 126t223.5 69v24q0 33 -10 44t-37 11q-30 0 -80 -16t-84 -39h-10l-26 174q53 32 126.5 51t137.5 19zM315 1061q0 -49 39 -49q23 0 47 18v113
q-48 -11 -67 -31t-19 -51z" />
    <glyph glyph-name="guillemotleft" unicode="&#xab;" horiz-adv-x="1247" 
d="M651 125h-305l-276 379l270 377h309l4 -25l-243 -352l247 -352zM1165 125h-305l-276 379l270 377h309l6 -25l-245 -352l247 -352z" />
    <glyph glyph-name="logicalnot" unicode="&#xac;" horiz-adv-x="1417" 
d="M1262 188h-263v301h-843v263h1106v-564z" />
    <glyph glyph-name="uni00AD" unicode="&#xad;" horiz-adv-x="745" 
d="M664 315h-582v263h582v-263z" />
    <glyph glyph-name="registered" unicode="&#xae;" horiz-adv-x="1241" 
d="M623 563q-201 0 -332 130t-131 331q0 202 131 333.5t332 131.5q198 0 328 -131.5t130 -333.5q0 -201 -130 -331t-328 -130zM623 645q165 0 268.5 107t103.5 272q0 166 -103.5 272.5t-268.5 106.5q-168 0 -272.5 -106t-104.5 -273q0 -166 105 -272.5t272 -106.5zM575 776
h-149v498h195q200 0 200 -170q0 -95 -80 -133l125 -183l-6 -12h-158l-106 168h-21v-168zM578 1159v-100h38q62 0 62 49q0 51 -62 51h-38z" />
    <glyph glyph-name="macron" unicode="&#xaf;" horiz-adv-x="815" 
d="M756 1446v-221h-695v221h695z" />
    <glyph glyph-name="degree" unicode="&#xb0;" horiz-adv-x="880" 
d="M440 801q-153 0 -251.5 101t-98.5 255q0 153 98.5 253.5t251.5 100.5t252 -100.5t99 -253.5q0 -154 -99 -255t-252 -101zM440 961q81 0 132 56t51 140q0 83 -51.5 140t-131.5 57t-130 -56.5t-50 -140.5q0 -85 49.5 -140.5t130.5 -55.5z" />
    <glyph glyph-name="plusminus" unicode="&#xb1;" horiz-adv-x="1417" 
d="M840 446h-262v240h-418v262h418v240h262v-240h417v-262h-417v-240zM1262 74h-1106v262h1106v-262z" />
    <glyph glyph-name="uni00B2" unicode="&#xb2;" horiz-adv-x="778" 
d="M711 942h-623l-20 90l280 324q49 58 68.5 90.5t19.5 60.5q0 27 -18 43.5t-53 16.5q-104 0 -218 -88h-14l-41 256q62 27 150 50t166 23q138 0 220.5 -75.5t82.5 -196.5q0 -176 -144 -305l-22 -21q-24 -22 -105 -65v-6q106 28 172 28h99v-225z" />
    <glyph glyph-name="uni00B3" unicode="&#xb3;" horiz-adv-x="778" 
d="M375 915q-81 0 -161 18t-134 44l43 227h14q97 -69 205 -69q88 0 88 73q0 72 -94 72h-121v162h115q43 0 67.5 20t24.5 58q0 33 -20.5 51t-55.5 18q-50 0 -108.5 -20t-104.5 -53h-14l-41 217q56 28 147 51.5t174 23.5q131 0 208 -62.5t77 -166.5q0 -72 -39 -127.5
t-113 -79.5v-4q83 -20 126.5 -74t43.5 -129q0 -111 -90.5 -180.5t-236.5 -69.5z" />
    <glyph glyph-name="acute" unicode="&#xb4;" horiz-adv-x="684" 
d="M623 1518l-301 -347h-261l203 367h346z" />
    <glyph glyph-name="uni00B5" unicode="&#xb5;" horiz-adv-x="1316" 
d="M1303 291l18 -6l-21 -301q-91 -25 -192 -25q-266 0 -330 209q-47 -78 -104.5 -128t-110.5 -50q-32 0 -55 18l-8 -2q10 -93 10 -199v-258h-404v1473h404v-598q0 -129 84 -129q65 0 156 78v649h403v-637q0 -55 21.5 -78.5t68.5 -23.5q29 0 60 8z" />
    <glyph glyph-name="paragraph" unicode="&#xb6;" horiz-adv-x="1449" 
d="M819 2h-295v635q-204 9 -319 112.5t-115 282.5q0 209 134 313.5t394 104.5h631v-1448h-293v1186h-137v-1186z" />
    <glyph glyph-name="periodcentered" unicode="&#xb7;" horiz-adv-x="614" 
d="M307 354q-98 0 -160.5 63.5t-62.5 153.5q0 94 62.5 154.5t160.5 60.5t160.5 -60.5t62.5 -154.5q0 -90 -62.5 -153.5t-160.5 -63.5z" />
    <glyph glyph-name="cedilla" unicode="&#xb8;" horiz-adv-x="698" 
d="M319 -492q-125 0 -223 43l27 166l18 4q70 -45 154 -45q36 0 55 15t19 39q0 21 -14.5 34t-41.5 13t-73 -17l-52 45l76 195h189l-52 -115q24 4 48 4q74 0 123 -45t49 -118q0 -100 -83.5 -159t-218.5 -59z" />
    <glyph glyph-name="uni00B9" unicode="&#xb9;" horiz-adv-x="778" 
d="M588 942h-266v367q0 81 24 182l-4 2q-38 -28 -94 -63l-80 -46l-21 9l17 254l336 153h88v-858z" />
    <glyph glyph-name="ordmasculine" unicode="&#xba;" horiz-adv-x="770" 
d="M383 891q-139 0 -226 84.5t-87 212.5t86.5 213.5t226.5 85.5q142 0 229.5 -85t87.5 -214q0 -128 -87.5 -212.5t-229.5 -84.5zM383 1077q40 0 61 30t21 81t-21 80.5t-61 29.5t-61 -29.5t-21 -80.5t21.5 -81t60.5 -30z" />
    <glyph glyph-name="guillemotright" unicode="&#xbb;" horiz-adv-x="1247" 
d="M387 125h-305l-6 27l248 352l-244 352l4 25h309l271 -377zM901 125h-305l-4 27l246 352l-244 352l4 25h309l271 -377z" />
    <glyph glyph-name="onequarter" unicode="&#xbc;" horiz-adv-x="1843" 
d="M522 610h-266v367q0 75 25 184l-7 2q-34 -29 -92 -63l-80 -47l-20 8l16 256l334 151h90v-858zM1124 1450h256l-395 -725l-367 -725h-258l441 809zM1669 0h-260v139h-373l-28 178l350 525h311v-484h92v-219h-92v-139zM1337 459l-67 -101h145v60q0 106 19 203h-7
q-32 -75 -90 -162z" />
    <glyph glyph-name="onehalf" unicode="&#xbd;" horiz-adv-x="1843" 
d="M504 610h-266v367q0 79 24 184l-6 2q-34 -29 -92 -63l-80 -47l-21 8l17 256l336 151h88v-858zM1104 1450h258l-397 -725l-365 -725h-260l440 809zM1778 0h-621l-20 90l280 324q49 58 68.5 90.5t19.5 60.5q0 27 -18 43.5t-53 16.5q-51 0 -109.5 -24.5t-107.5 -63.5h-17
l-41 256q62 27 151 50t167 23q137 0 220 -75.5t83 -196.5q0 -176 -144 -305l-22 -21q-29 -25 -105 -65v-6q106 28 172 28h97v-225z" />
    <glyph glyph-name="threequarters" unicode="&#xbe;" horiz-adv-x="1843" 
d="M330 580q-81 0 -162 17.5t-133 43.5l43 227h14q97 -69 203 -69q90 0 90 73q0 72 -96 72h-119v162h113q45 0 69.5 20t24.5 58q0 33 -20.5 51t-55.5 18q-51 0 -109.5 -20t-103.5 -53h-16l-39 217q57 28 147 52t172 24q132 0 209.5 -63t77.5 -167q0 -71 -39 -126t-113 -81
v-4q83 -20 126.5 -73.5t43.5 -127.5q0 -111 -90.5 -181t-236.5 -70zM1176 1450h256l-396 -725l-366 -725h-258l440 809zM1720 0h-260v139h-373l-28 178l350 525h311v-484h92v-219h-92v-139zM1386 459l-65 -101h145v60q0 106 19 203h-6q-34 -77 -93 -162z" />
    <glyph glyph-name="questiondown" unicode="&#xbf;" horiz-adv-x="1198" 
d="M676 1063q98 0 160.5 -63.5t62.5 -153.5q0 -94 -62.5 -154.5t-160.5 -60.5t-160.5 60.5t-62.5 154.5q0 90 62.5 153.5t160.5 63.5zM702 -113q79 0 185 37t178 90h14l49 -327q-103 -62 -237 -101t-240 -39q-232 0 -365.5 112t-133.5 292q0 129 58 219t196 178
q53 37 70.5 65t17.5 70v33h383v-53q0 -97 -43 -170.5t-152 -153.5q-65 -51 -89 -83.5t-24 -71.5q0 -43 32.5 -70t100.5 -27z" />
    <glyph glyph-name="Agrave" unicode="&#xc0;" horiz-adv-x="1503" 
d="M799 1841l172 -274h-266l-256 256l12 18h338zM496 1450h520l493 -1440l-10 -10h-471l-63 225h-433l-63 -225h-467l-8 10zM655 670l-43 -158h271l-45 158q-63 225 -88 426h-7q-28 -190 -88 -426z" />
    <glyph glyph-name="Aacute" unicode="&#xc1;" horiz-adv-x="1503" 
d="M1044 1841l13 -18l-256 -256h-266l174 274h335zM496 1450h520l493 -1440l-10 -10h-471l-63 225h-433l-63 -225h-467l-8 10zM655 670l-43 -158h271l-45 158q-63 225 -88 426h-7q-28 -190 -88 -426z" />
    <glyph glyph-name="Acircumflex" unicode="&#xc2;" horiz-adv-x="1503" 
d="M752 1700l-144 -135h-246l-18 20l250 254h313l250 -254l-16 -20h-248zM496 1450h520l493 -1440l-10 -10h-471l-63 225h-433l-63 -225h-467l-8 10zM655 670l-43 -158h271l-45 158q-63 225 -88 426h-7q-28 -190 -88 -426z" />
    <glyph glyph-name="Atilde" unicode="&#xc3;" horiz-adv-x="1503" 
d="M551 1583l-14 -12h-160q7 124 71 203t156 79q63 0 150 -39.5t127 -39.5q55 0 71 67l17 12h159q-7 -124 -71 -203t-156 -79q-52 0 -102 20t-93.5 40t-80.5 20q-55 0 -74 -68zM496 1450h520l493 -1440l-10 -10h-471l-63 225h-433l-63 -225h-467l-8 10zM655 670l-43 -158
h271l-45 158q-63 225 -88 426h-7q-28 -190 -88 -426z" />
    <glyph glyph-name="Adieresis" unicode="&#xc4;" horiz-adv-x="1503" 
d="M528 1563q-72 0 -121 50t-49 122t49 122t121 50t121 -50t49 -122q0 -73 -48.5 -122.5t-121.5 -49.5zM977 1563q-72 0 -121 50t-49 122t49 122t121 50t121 -50t49 -122q0 -73 -48.5 -122.5t-121.5 -49.5zM496 1450h520l493 -1440l-10 -10h-471l-63 225h-433l-63 -225h-467
l-8 10zM655 670l-43 -158h271l-45 158q-63 225 -88 426h-7q-28 -190 -88 -426z" />
    <glyph glyph-name="Aring" unicode="&#xc5;" horiz-adv-x="1503" 
d="M752 1538q-95 0 -162.5 66t-67.5 163q0 96 67.5 162t162.5 66q96 0 163.5 -66t67.5 -162q0 -97 -67.5 -163t-163.5 -66zM752 1878q-47 0 -79 -33t-32 -78q0 -46 32 -79t79 -33q49 0 80.5 32.5t31.5 79.5q0 45 -32 78t-80 33zM496 1450h520l493 -1440l-10 -10h-471
l-63 225h-433l-63 -225h-467l-8 10zM655 670l-43 -158h271l-45 158q-63 225 -88 426h-7q-28 -190 -88 -426z" />
    <glyph glyph-name="AE" unicode="&#xc6;" horiz-adv-x="1970" 
d="M1810 590h-479v-230h547l-39 -360h-934v221h-330l-98 -221h-475l-8 12l674 1438h1171l39 -360h-547v-213h479v-287zM774 674l-61 -142h192v146q0 151 19 424h-9q-51 -198 -141 -428z" />
    <glyph glyph-name="Ccedilla" unicode="&#xc7;" horiz-adv-x="1415" 
d="M874 -111q75 0 124 -45t49 -118q0 -100 -83.5 -159t-218.5 -59q-125 0 -223 43l27 166l18 4q70 -45 154 -45q36 0 55 15t19 39q0 21 -14.5 34t-41.5 13t-73 -17l-52 45l64 166q-274 45 -436 245.5t-162 502.5q0 231 96.5 407.5t265 270.5t381.5 94q249 0 477 -131
l-59 -406h-16q-162 144 -353 144q-154 0 -245.5 -101t-91.5 -270q0 -172 93.5 -273.5t250.5 -101.5q189 0 354 146h14l62 -408q-215 -122 -449 -131l-33 -74q24 4 47 4z" />
    <glyph glyph-name="Egrave" unicode="&#xc8;" horiz-adv-x="1193" 
d="M643 1841l172 -274h-266l-256 256l12 18h338zM1034 590h-479v-230h547l-39 -360h-932v1450h932l39 -360h-547v-213h479v-287z" />
    <glyph glyph-name="Eacute" unicode="&#xc9;" horiz-adv-x="1193" 
d="M889 1841l12 -18l-256 -256h-266l174 274h336zM1034 590h-479v-230h547l-39 -360h-932v1450h932l39 -360h-547v-213h479v-287z" />
    <glyph glyph-name="Ecircumflex" unicode="&#xca;" horiz-adv-x="1193" 
d="M596 1700l-143 -135h-246l-19 20l250 254h314l249 -254l-16 -20h-248zM1034 590h-479v-230h547l-39 -360h-932v1450h932l39 -360h-547v-213h479v-287z" />
    <glyph glyph-name="Edieresis" unicode="&#xcb;" horiz-adv-x="1193" 
d="M373 1563q-72 0 -121 50t-49 122t49 122t121 50t121 -50t49 -122q0 -73 -48.5 -122.5t-121.5 -49.5zM821 1563q-72 0 -121 50t-49 122t49 122t121 50t121 -50t49 -122q0 -73 -48.5 -122.5t-121.5 -49.5zM1034 590h-479v-230h547l-39 -360h-932v1450h932l39 -360h-547
v-213h479v-287z" />
    <glyph glyph-name="Igrave" unicode="&#xcc;" horiz-adv-x="686" 
d="M561 1567h-266l-256 256l12 18h338zM131 0v1450h424v-1450h-424z" />
    <glyph glyph-name="Iacute" unicode="&#xcd;" horiz-adv-x="686" 
d="M391 1567h-266l174 274h336l12 -18zM131 0v1450h424v-1450h-424z" />
    <glyph glyph-name="Icircumflex" unicode="&#xce;" horiz-adv-x="686" 
d="M201 1565h-246l-18 20l249 254h314l250 -254l-17 -20h-248l-141 135zM131 0v1450h424v-1450h-424z" />
    <glyph glyph-name="Idieresis" unicode="&#xcf;" horiz-adv-x="686" 
d="M119 1563q-72 0 -121 50t-49 122t49 122t121 50t121 -50t49 -122q0 -73 -48.5 -122.5t-121.5 -49.5zM567 1563q-72 0 -121 50t-49 122t49 122t121 50t121 -50t49 -122q0 -73 -48.5 -122.5t-121.5 -49.5zM131 0v1450h424v-1450h-424z" />
    <glyph glyph-name="Eth" unicode="&#xd0;" horiz-adv-x="1554" 
d="M131 1450h516q390 0 611 -193.5t221 -527.5q0 -338 -224 -533.5t-608 -195.5h-516v614h-131v205h131v631zM555 369h80q208 0 310 86.5t102 273.5q0 181 -101.5 266.5t-306.5 85.5h-84v-262h233v-205h-233v-245z" />
    <glyph glyph-name="Ntilde" unicode="&#xd1;" horiz-adv-x="1626" 
d="M606 1571h-160q7 124 71.5 203t156.5 79q50 0 100.5 -19.5t95 -39.5t80.5 -20q56 0 72 67l16 12h160q-7 -124 -71 -203t-156 -79q-52 0 -102.5 20t-94 40t-80.5 20q-54 0 -73 -68zM553 0h-422v1450h430l332 -467q106 -156 209 -342h8q-37 227 -37 426v383h424v-1456h-391
l-365 495q-103 141 -219 345h-6q37 -230 37 -445v-389z" />
    <glyph glyph-name="Ograve" unicode="&#xd2;" horiz-adv-x="1734" 
d="M1085 1567h-266l-256 256l12 18h338zM868 -41q-169 0 -315.5 58.5t-250 160t-163 243.5t-59.5 304q0 222 101 397t280.5 272t406.5 97q169 0 315.5 -56.5t250 -157t162.5 -243t59 -309.5q0 -162 -59.5 -304t-163 -243.5t-250 -160t-314.5 -58.5zM868 346q149 0 245.5 107
t96.5 272q0 168 -96 273.5t-246 105.5q-151 0 -247.5 -105.5t-96.5 -273.5q0 -165 97 -272t247 -107z" />
    <glyph glyph-name="Oacute" unicode="&#xd3;" horiz-adv-x="1734" 
d="M915 1567h-266l174 274h336l12 -18zM868 -41q-169 0 -315.5 58.5t-250 160t-163 243.5t-59.5 304q0 222 101 397t280.5 272t406.5 97q169 0 315.5 -56.5t250 -157t162.5 -243t59 -309.5q0 -162 -59.5 -304t-163 -243.5t-250 -160t-314.5 -58.5zM868 346q149 0 245.5 107
t96.5 272q0 168 -96 273.5t-246 105.5q-151 0 -247.5 -105.5t-96.5 -273.5q0 -165 97 -272t247 -107z" />
    <glyph glyph-name="Ocircumflex" unicode="&#xd4;" horiz-adv-x="1734" 
d="M725 1565h-246l-18 20l250 254h313l250 -254l-17 -20h-247l-142 135zM868 -41q-169 0 -315.5 58.5t-250 160t-163 243.5t-59.5 304q0 222 101 397t280.5 272t406.5 97q169 0 315.5 -56.5t250 -157t162.5 -243t59 -309.5q0 -162 -59.5 -304t-163 -243.5t-250 -160
t-314.5 -58.5zM868 346q149 0 245.5 107t96.5 272q0 168 -96 273.5t-246 105.5q-151 0 -247.5 -105.5t-96.5 -273.5q0 -165 97 -272t247 -107z" />
    <glyph glyph-name="Otilde" unicode="&#xd5;" horiz-adv-x="1734" 
d="M651 1571h-159q7 124 71 203t156 79q50 0 100.5 -19.5t95 -39.5t80.5 -20q56 0 72 67l16 12h160q-7 -124 -71 -203t-156 -79q-52 0 -102.5 20t-94 40t-80.5 20q-54 0 -73 -68zM868 -41q-169 0 -315.5 58.5t-250 160t-163 243.5t-59.5 304q0 222 101 397t280.5 272
t406.5 97q169 0 315.5 -56.5t250 -157t162.5 -243t59 -309.5q0 -162 -59.5 -304t-163 -243.5t-250 -160t-314.5 -58.5zM868 346q149 0 245.5 107t96.5 272q0 168 -96 273.5t-246 105.5q-151 0 -247.5 -105.5t-96.5 -273.5q0 -165 97 -272t247 -107z" />
    <glyph glyph-name="Odieresis" unicode="&#xd6;" horiz-adv-x="1734" 
d="M643 1563q-72 0 -121 50t-49 122t49 122t121 50t121 -50t49 -122q0 -73 -48.5 -122.5t-121.5 -49.5zM1092 1563q-72 0 -121 50t-49 122t49 122t121 50t121 -50t49 -122q0 -73 -48.5 -122.5t-121.5 -49.5zM868 -41q-169 0 -315.5 58.5t-250 160t-163 243.5t-59.5 304
q0 222 101 397t280.5 272t406.5 97q169 0 315.5 -56.5t250 -157t162.5 -243t59 -309.5q0 -162 -59.5 -304t-163 -243.5t-250 -160t-314.5 -58.5zM868 346q149 0 245.5 107t96.5 272q0 168 -96 273.5t-246 105.5q-151 0 -247.5 -105.5t-96.5 -273.5q0 -165 97 -272t247 -107z
" />
    <glyph glyph-name="multiply" unicode="&#xd7;" horiz-adv-x="1417" 
d="M1012 1104l186 -184l-299 -299l299 -299l-186 -185l-297 299l-299 -299l-187 185l299 299l-299 299l187 184l299 -297z" />
    <glyph glyph-name="Oslash" unicode="&#xd8;" horiz-adv-x="1734" 
d="M1581 1546l-180 -241q122 -103 188 -252t66 -328q0 -162 -59.5 -304t-163 -243.5t-250 -160t-314.5 -58.5q-216 0 -397 96l-113 -151h-206l182 246q-121 105 -187.5 253t-66.5 322q0 222 101 397t280.5 272t406.5 97q221 0 398 -94l110 149h205zM524 725q0 -132 66 -233
l430 577q-68 35 -152 35q-151 0 -247.5 -105.5t-96.5 -273.5zM868 346q149 0 245.5 107t96.5 272q0 136 -65 236l-430 -580q68 -35 153 -35z" />
    <glyph glyph-name="Ugrave" unicode="&#xd9;" horiz-adv-x="1515" 
d="M977 1567h-266l-256 256l12 18h338zM758 -41q-332 0 -486.5 169.5t-154.5 520.5v801h424v-776q0 -177 51 -251.5t166 -74.5t166 75t51 253v774h424v-801q0 -339 -160.5 -514.5t-480.5 -175.5z" />
    <glyph glyph-name="Uacute" unicode="&#xda;" horiz-adv-x="1515" 
d="M807 1567h-266l174 274h336l12 -18zM758 -41q-332 0 -486.5 169.5t-154.5 520.5v801h424v-776q0 -177 51 -251.5t166 -74.5t166 75t51 253v774h424v-801q0 -339 -160.5 -514.5t-480.5 -175.5z" />
    <glyph glyph-name="Ucircumflex" unicode="&#xdb;" horiz-adv-x="1515" 
d="M616 1565h-245l-19 20l250 254h313l250 -254l-16 -20h-248l-141 135zM758 -41q-332 0 -486.5 169.5t-154.5 520.5v801h424v-776q0 -177 51 -251.5t166 -74.5t166 75t51 253v774h424v-801q0 -339 -160.5 -514.5t-480.5 -175.5z" />
    <glyph glyph-name="Udieresis" unicode="&#xdc;" horiz-adv-x="1515" 
d="M535 1563q-72 0 -121 50t-49 122t49 122t121 50t121 -50t49 -122q0 -73 -48.5 -122.5t-121.5 -49.5zM983 1563q-72 0 -121 50t-49 122t49 122t121 50t121 -50t49 -122q0 -73 -48.5 -122.5t-121.5 -49.5zM758 -41q-332 0 -486.5 169.5t-154.5 520.5v801h424v-776
q0 -177 51 -251.5t166 -74.5t166 75t51 253v774h424v-801q0 -339 -160.5 -514.5t-480.5 -175.5z" />
    <glyph glyph-name="Yacute" unicode="&#xdd;" horiz-adv-x="1437" 
d="M768 1567h-266l174 274h336l12 -18zM8 1450h492l112 -264q57 -140 103 -283h8q59 172 102 283l113 264h492l6 -12l-506 -869v-569h-422v569l-506 869z" />
    <glyph glyph-name="Thorn" unicode="&#xde;" horiz-adv-x="1331" 
d="M555 1231h137q290 0 436 -127.5t146 -374.5q0 -233 -137 -362t-398 -129h-186v-238h-422v1450h424v-219zM553 563h129q190 0 190 166q0 89 -47.5 130.5t-144.5 41.5h-125z" />
    <glyph glyph-name="germandbls" unicode="&#xdf;" horiz-adv-x="1308" 
d="M938 782v-8q141 -28 223 -129.5t82 -243.5q0 -193 -129 -317.5t-340 -124.5q-93 0 -166 27l6 307l17 12q35 -14 80 -14q62 0 99.5 42.5t37.5 112.5q0 84 -55 130.5t-154 46.5h-23v256h39q65 0 102 46t38 140q0 83 -37.5 126.5t-100.5 43.5q-77 0 -112 -53.5t-35 -175.5
v-1006h-404v993q0 284 132 418.5t409 134.5q226 0 361 -111t135 -307q0 -129 -54 -220.5t-151 -125.5z" />
    <glyph glyph-name="agrave" unicode="&#xe0;" horiz-adv-x="1107" 
d="M231 1538h347l204 -367h-258l-303 347zM336 -41q-138 3 -212.5 68t-74.5 182q0 151 126.5 237.5t428.5 131.5v40q0 74 -23.5 102t-82.5 28q-66 0 -158 -32t-156 -79h-14l-47 297q96 58 226 93.5t243 35.5q207 0 307 -103.5t100 -314.5v-645h-321l-31 102
q-140 -146 -311 -143zM489 180q54 0 115 49v203q-110 -22 -151 -59t-41 -101q0 -92 77 -92z" />
    <glyph glyph-name="aacute" unicode="&#xe1;" horiz-adv-x="1107" 
d="M930 1518l-301 -347h-260l204 367h347zM336 -41q-138 3 -212.5 68t-74.5 182q0 151 126.5 237.5t428.5 131.5v40q0 74 -23.5 102t-82.5 28q-66 0 -158 -32t-156 -79h-14l-47 297q96 58 226 93.5t243 35.5q207 0 307 -103.5t100 -314.5v-645h-321l-31 102
q-140 -146 -311 -143zM489 180q54 0 115 49v203q-110 -22 -151 -59t-41 -101q0 -92 77 -92z" />
    <glyph glyph-name="acircumflex" unicode="&#xe2;" horiz-adv-x="1107" 
d="M969 1171h-252l-142 191l-141 -191h-254l-16 19l246 348h329l246 -348zM336 -41q-138 3 -212.5 68t-74.5 182q0 151 126.5 237.5t428.5 131.5v40q0 74 -23.5 102t-82.5 28q-66 0 -158 -32t-156 -79h-14l-47 297q96 58 226 93.5t243 35.5q207 0 307 -103.5t100 -314.5
v-645h-321l-31 102q-140 -146 -311 -143zM489 180q54 0 115 49v203q-110 -22 -151 -59t-41 -101q0 -92 77 -92z" />
    <glyph glyph-name="atilde" unicode="&#xe3;" horiz-adv-x="1107" 
d="M399 1180l-14 -13h-184q9 130 72.5 210.5t156.5 80.5q54 0 103 -20t86.5 -40t64.5 -20q54 3 72 68l16 12h178q-7 -128 -70.5 -208.5t-156.5 -82.5q-55 0 -103 20t-85 40t-64 20q-53 0 -72 -67zM336 -41q-138 3 -212.5 68t-74.5 182q0 151 126.5 237.5t428.5 131.5v40
q0 74 -23.5 102t-82.5 28q-66 0 -158 -32t-156 -79h-14l-47 297q96 58 226 93.5t243 35.5q207 0 307 -103.5t100 -314.5v-645h-321l-31 102q-140 -146 -311 -143zM489 180q54 0 115 49v203q-110 -22 -151 -59t-41 -101q0 -92 77 -92z" />
    <glyph glyph-name="adieresis" unicode="&#xe4;" horiz-adv-x="1107" 
d="M360 1167q-73 0 -122.5 50t-49.5 124q0 72 49.5 122t122.5 50q72 0 121 -50t49 -122q0 -74 -49 -124t-121 -50zM788 1167q-73 0 -120 50t-47 124q0 73 47.5 122.5t119.5 49.5t122.5 -50t50.5 -122q0 -74 -50 -124t-123 -50zM336 -41q-138 3 -212.5 68t-74.5 182
q0 151 126.5 237.5t428.5 131.5v40q0 74 -23.5 102t-82.5 28q-66 0 -158 -32t-156 -79h-14l-47 297q96 58 226 93.5t243 35.5q207 0 307 -103.5t100 -314.5v-645h-321l-31 102q-140 -146 -311 -143zM489 180q54 0 115 49v203q-110 -22 -151 -59t-41 -101q0 -92 77 -92z" />
    <glyph glyph-name="aring" unicode="&#xe5;" horiz-adv-x="1107" 
d="M575 1145q-95 0 -162 65t-67 162q0 96 67 161.5t162 65.5q96 0 164 -65.5t68 -161.5q0 -97 -68 -162t-164 -65zM575 1262q49 0 81 32t32 78t-32 78.5t-81 32.5q-47 0 -78.5 -32.5t-31.5 -78.5t31.5 -78t78.5 -32zM336 -41q-138 3 -212.5 68t-74.5 182q0 151 126.5 237.5
t428.5 131.5v40q0 74 -23.5 102t-82.5 28q-66 0 -158 -32t-156 -79h-14l-47 297q96 58 226 93.5t243 35.5q207 0 307 -103.5t100 -314.5v-645h-321l-31 102q-140 -146 -311 -143zM489 180q54 0 115 49v203q-110 -22 -151 -59t-41 -101q0 -92 77 -92z" />
    <glyph glyph-name="ae" unicode="&#xe6;" horiz-adv-x="1746" 
d="M340 -41q-138 0 -214.5 66t-76.5 176q0 98 54.5 166t184 119t347.5 85v47q0 69 -27 99.5t-94 30.5q-72 0 -165.5 -32t-160.5 -81h-14l-47 297q95 59 225.5 95t239.5 36q199 0 276 -158h4q58 74 144.5 116t187.5 42q216 0 342.5 -150.5t126.5 -388.5q0 -36 -4 -71h-620
q3 -94 51.5 -144.5t140.5 -50.5q178 0 315 104h15l43 -284q-79 -52 -192.5 -85.5t-229.5 -33.5q-143 0 -252.5 48.5t-177.5 131.5q-177 -180 -422 -180zM1051 612h266q-4 87 -37 133t-90 46q-58 0 -95.5 -46.5t-43.5 -132.5zM498 180q90 0 182 96q-30 76 -39 150
q-133 -25 -180 -60.5t-47 -99.5q0 -40 23 -63t61 -23z" />
    <glyph glyph-name="ccedilla" unicode="&#xe7;" horiz-adv-x="1009" 
d="M897 367l43 -310q-112 -75 -264 -94l-35 -78q24 4 47 4q74 0 123 -45t49 -118q0 -100 -83 -159t-218 -59q-125 0 -223 43l26 166l19 4q70 -45 154 -45q36 0 54.5 15t18.5 39q0 21 -14 34t-41 13q-28 0 -74 -17l-51 45l64 162q-195 32 -308.5 177.5t-113.5 363.5
q0 243 152 399t396 156q155 0 324 -88l-49 -322h-14q-98 88 -205 88q-91 0 -147 -63t-56 -168q0 -102 54 -165.5t141 -63.5q56 0 105.5 18.5t111.5 67.5h14z" />
    <glyph glyph-name="egrave" unicode="&#xe8;" horiz-adv-x="1175" 
d="M602 1538l205 -367h-258l-303 347l10 20h346zM1102 524q0 -36 -4 -71h-621q2 -94 51 -144.5t142 -50.5q178 0 315 104h14l43 -284q-79 -52 -192.5 -85.5t-228.5 -33.5q-134 0 -239.5 41.5t-173 115.5t-103 174t-35.5 218q0 241 144.5 398t385.5 157q240 0 371 -149
t131 -390zM479 612h266q-4 87 -37 133t-90 46q-58 0 -95.5 -47t-43.5 -132z" />
    <glyph glyph-name="eacute" unicode="&#xe9;" horiz-adv-x="1175" 
d="M944 1538l10 -20l-301 -347h-260l205 367h346zM1102 524q0 -36 -4 -71h-621q2 -94 51 -144.5t142 -50.5q178 0 315 104h14l43 -284q-79 -52 -192.5 -85.5t-228.5 -33.5q-134 0 -239.5 41.5t-173 115.5t-103 174t-35.5 218q0 241 144.5 398t385.5 157q240 0 371 -149
t131 -390zM479 612h266q-4 87 -37 133t-90 46q-58 0 -95.5 -47t-43.5 -132z" />
    <glyph glyph-name="ecircumflex" unicode="&#xea;" horiz-adv-x="1175" 
d="M602 1362l-141 -191h-254l-17 19l246 348h330l246 -348l-17 -19h-252zM1102 524q0 -36 -4 -71h-621q2 -94 51 -144.5t142 -50.5q178 0 315 104h14l43 -284q-79 -52 -192.5 -85.5t-228.5 -33.5q-134 0 -239.5 41.5t-173 115.5t-103 174t-35.5 218q0 241 144.5 398
t385.5 157q240 0 371 -149t131 -390zM479 612h266q-4 87 -37 133t-90 46q-58 0 -95.5 -47t-43.5 -132z" />
    <glyph glyph-name="edieresis" unicode="&#xeb;" horiz-adv-x="1175" 
d="M387 1167q-73 0 -122.5 50t-49.5 124q0 72 49.5 122t122.5 50q72 0 121 -50t49 -122q0 -74 -49 -124t-121 -50zM815 1167q-73 0 -120.5 50t-47.5 124q0 72 48 122t120 50t122 -50t50 -122q0 -74 -49.5 -124t-122.5 -50zM1102 524q0 -36 -4 -71h-621q2 -94 51 -144.5
t142 -50.5q178 0 315 104h14l43 -284q-79 -52 -192.5 -85.5t-228.5 -33.5q-134 0 -239.5 41.5t-173 115.5t-103 174t-35.5 218q0 241 144.5 398t385.5 157q240 0 371 -149t131 -390zM479 612h266q-4 87 -37 133t-90 46q-58 0 -95.5 -47t-43.5 -132z" />
    <glyph glyph-name="igrave" unicode="&#xec;" horiz-adv-x="618" 
d="M-35 1538h346l205 -367h-258l-303 347zM510 0h-404v1022h404v-1022z" />
    <glyph glyph-name="iacute" unicode="&#xed;" horiz-adv-x="618" 
d="M664 1518l-302 -347h-260l205 367h346zM510 0h-404v1022h404v-1022z" />
    <glyph glyph-name="icircumflex" unicode="&#xee;" horiz-adv-x="618" 
d="M705 1171h-252l-142 191l-141 -191h-254l-16 19l245 348h330l246 -348zM510 0h-404v1022h404v-1022z" />
    <glyph glyph-name="idieresis" unicode="&#xef;" horiz-adv-x="618" 
d="M96 1167q-73 0 -122.5 50t-49.5 124q0 72 49.5 122t122.5 50q72 0 121 -50t49 -122q0 -74 -49 -124t-121 -50zM524 1167q-73 0 -120.5 50t-47.5 124q0 72 48 122t120 50t122 -50t50 -122q0 -74 -49.5 -124t-122.5 -50zM510 0h-404v1022h404v-1022z" />
    <glyph glyph-name="eth" unicode="&#xf0;" horiz-adv-x="1290" 
d="M1118 1319l-131 -43q221 -303 215 -649q-3 -312 -155.5 -490t-436.5 -178q-259 0 -399.5 135t-140.5 369q0 132 33.5 233.5t93 163t136 92.5t167.5 31q160 0 288 -109q-45 155 -149 285l-184 -61l-41 127l131 43q-82 87 -244 217l8 20h461q60 -49 125 -121l182 62z
M627 289q91 0 138.5 72t41.5 247q-85 43 -174 43q-77 0 -123.5 -49.5t-46.5 -138.5q0 -78 42.5 -126t121.5 -48z" />
    <glyph glyph-name="ntilde" unicode="&#xf1;" horiz-adv-x="1273" 
d="M463 1180l-14 -13h-185q9 130 73 210.5t157 80.5q54 0 103 -20t86.5 -40t64.5 -20q53 3 71 68l17 12h178q-7 -128 -71 -208.5t-157 -82.5q-55 0 -103 20t-84.5 40t-63.5 20q-53 0 -72 -67zM844 1063q152 0 236.5 -104t84.5 -297v-662h-403v596q0 71 -21.5 102t-68.5 31
q-67 0 -162 -74v-655h-404v1022h367l14 -143q159 184 357 184z" />
    <glyph glyph-name="ograve" unicode="&#xf2;" horiz-adv-x="1265" 
d="M289 1538h346l205 -367h-258l-303 347zM633 -41q-248 0 -405.5 156.5t-157.5 394.5q0 156 70.5 281.5t199.5 198.5t293 73q165 0 294.5 -73t200 -198.5t70.5 -281.5t-71 -281.5t-200.5 -197.5t-293.5 -72zM633 293q81 0 126.5 59.5t45.5 157.5q0 97 -46 157t-126 60
q-78 0 -124 -60t-46 -157q0 -98 45.5 -157.5t124.5 -59.5z" />
    <glyph glyph-name="oacute" unicode="&#xf3;" horiz-adv-x="1265" 
d="M987 1518l-301 -347h-260l205 367h346zM633 -41q-248 0 -405.5 156.5t-157.5 394.5q0 156 70.5 281.5t199.5 198.5t293 73q165 0 294.5 -73t200 -198.5t70.5 -281.5t-71 -281.5t-200.5 -197.5t-293.5 -72zM633 293q81 0 126.5 59.5t45.5 157.5q0 97 -46 157t-126 60
q-78 0 -124 -60t-46 -157q0 -98 45.5 -157.5t124.5 -59.5z" />
    <glyph glyph-name="ocircumflex" unicode="&#xf4;" horiz-adv-x="1265" 
d="M1028 1171h-252l-141 191l-141 -191h-254l-17 19l246 348h330l245 -348zM633 -41q-248 0 -405.5 156.5t-157.5 394.5q0 156 70.5 281.5t199.5 198.5t293 73q165 0 294.5 -73t200 -198.5t70.5 -281.5t-71 -281.5t-200.5 -197.5t-293.5 -72zM633 293q81 0 126.5 59.5
t45.5 157.5q0 97 -46 157t-126 60q-78 0 -124 -60t-46 -157q0 -98 45.5 -157.5t124.5 -59.5z" />
    <glyph glyph-name="otilde" unicode="&#xf5;" horiz-adv-x="1265" 
d="M457 1180l-15 -13h-184q9 130 72.5 210.5t156.5 80.5q54 0 103 -20t86.5 -40t64.5 -20q54 3 72 68l16 12h179q-7 -128 -71 -208.5t-157 -82.5q-55 0 -103 20t-85 40t-64 20q-52 0 -71 -67zM633 -41q-248 0 -405.5 156.5t-157.5 394.5q0 156 70.5 281.5t199.5 198.5
t293 73q165 0 294.5 -73t200 -198.5t70.5 -281.5t-71 -281.5t-200.5 -197.5t-293.5 -72zM633 293q81 0 126.5 59.5t45.5 157.5q0 97 -46 157t-126 60q-78 0 -124 -60t-46 -157q0 -98 45.5 -157.5t124.5 -59.5z" />
    <glyph glyph-name="odieresis" unicode="&#xf6;" horiz-adv-x="1265" 
d="M420 1167q-73 0 -122.5 50t-49.5 124q0 72 49.5 122t122.5 50q72 0 121 -50t49 -122q0 -74 -49 -124t-121 -50zM848 1167q-73 0 -120.5 50t-47.5 124q0 72 48 122t120 50t122 -50t50 -122q0 -74 -49.5 -124t-122.5 -50zM633 -41q-248 0 -405.5 156.5t-157.5 394.5
q0 156 70.5 281.5t199.5 198.5t293 73q165 0 294.5 -73t200 -198.5t70.5 -281.5t-71 -281.5t-200.5 -197.5t-293.5 -72zM633 293q81 0 126.5 59.5t45.5 157.5q0 97 -46 157t-126 60q-78 0 -124 -60t-46 -157q0 -98 45.5 -157.5t124.5 -59.5z" />
    <glyph glyph-name="divide" unicode="&#xf7;" horiz-adv-x="1417" 
d="M709 844q-77 0 -125.5 50.5t-48.5 123.5q0 70 50 118t124 48t124 -48t50 -118q0 -73 -48.5 -123.5t-125.5 -50.5zM1262 489h-1106v263h1106v-263zM709 57q-77 0 -125.5 50.5t-48.5 123.5q0 71 49.5 118.5t124.5 47.5t124.5 -47.5t49.5 -118.5q0 -73 -48.5 -123.5
t-125.5 -50.5z" />
    <glyph glyph-name="oslash" unicode="&#xf8;" horiz-adv-x="1265" 
d="M1167 1098l-141 -180q82 -76 127 -181t45 -227q0 -156 -71 -281.5t-200.5 -197.5t-293.5 -72q-165 0 -297 74l-86 -109h-150l140 178q-81 76 -125.5 181t-44.5 227q0 156 70.5 281.5t199.5 198.5t293 73q169 0 299 -76l86 111h149zM457 510q0 -59 16 -109l244 312
q-36 20 -84 20q-83 0 -129.5 -60.5t-46.5 -162.5zM633 287q85 0 131.5 60t46.5 163q0 62 -18 108l-244 -311q36 -20 84 -20z" />
    <glyph glyph-name="ugrave" unicode="&#xf9;" horiz-adv-x="1259" 
d="M631 1538l205 -367h-258l-304 347l11 20h346zM750 375v647h403v-1022h-367l-14 162q-153 -203 -354 -203q-149 0 -230.5 104.5t-81.5 298.5v660h404v-600q0 -127 84 -127q69 0 156 80z" />
    <glyph glyph-name="uacute" unicode="&#xfa;" horiz-adv-x="1259" 
d="M973 1538l10 -20l-301 -347h-260l205 367h346zM750 375v647h403v-1022h-367l-14 162q-153 -203 -354 -203q-149 0 -230.5 104.5t-81.5 298.5v660h404v-600q0 -127 84 -127q69 0 156 80z" />
    <glyph glyph-name="ucircumflex" unicode="&#xfb;" horiz-adv-x="1259" 
d="M631 1362l-142 -191h-253l-17 19l246 348h330l245 -348l-16 -19h-252zM750 375v647h403v-1022h-367l-14 162q-153 -203 -354 -203q-149 0 -230.5 104.5t-81.5 298.5v660h404v-600q0 -127 84 -127q69 0 156 80z" />
    <glyph glyph-name="udieresis" unicode="&#xfc;" horiz-adv-x="1259" 
d="M416 1167q-73 0 -122.5 50t-49.5 124q0 72 49.5 122t122.5 50q72 0 121 -50t49 -122q0 -74 -49 -124t-121 -50zM844 1167q-73 0 -120.5 50t-47.5 124q0 72 48 122t120 50t122 -50t50 -122q0 -74 -49.5 -124t-122.5 -50zM750 375v647h403v-1022h-367l-14 162
q-153 -203 -354 -203q-149 0 -230.5 104.5t-81.5 298.5v660h404v-600q0 -127 84 -127q69 0 156 80z" />
    <glyph glyph-name="yacute" unicode="&#xfd;" horiz-adv-x="1220" 
d="M971 1518l-301 -347h-260l204 367h347zM27 1022h458l68 -363q48 -208 57 -258h8q8 36 66 261l82 360h438l8 -14l-589 -1459h-412l-4 11l186 450l-375 998z" />
    <glyph glyph-name="thorn" unicode="&#xfe;" horiz-adv-x="1282" 
d="M815 1063q180 0 287.5 -147t107.5 -394q0 -252 -117.5 -407.5t-308.5 -155.5q-151 0 -274 94v-504h-404v1956h404v-573q145 131 305 131zM641 289q82 0 130 63t48 170q0 98 -42.5 156.5t-114.5 58.5q-77 0 -152 -53v-365q64 -30 131 -30z" />
    <glyph glyph-name="ydieresis" unicode="&#xff;" horiz-adv-x="1220" 
d="M403 1167q-73 0 -122.5 50t-49.5 124q0 72 49.5 122t122.5 50q72 0 121 -50t49 -122q0 -74 -49 -124t-121 -50zM831 1167q-73 0 -120 50t-47 124q0 73 47.5 122.5t119.5 49.5t122.5 -50t50.5 -122q0 -74 -50 -124t-123 -50zM27 1022h458l68 -363q48 -208 57 -258h8
q8 36 66 261l82 360h438l8 -14l-589 -1459h-412l-4 11l186 450l-375 998z" />
    <glyph glyph-name="Amacron" unicode="&#x100;" horiz-adv-x="1503" 
d="M406 1831h694v-211h-694v211zM496 1450h520l493 -1440l-10 -10h-471l-63 225h-433l-63 -225h-467l-8 10zM655 670l-43 -158h271l-45 158q-63 225 -88 426h-7q-28 -190 -88 -426z" />
    <glyph glyph-name="amacron" unicode="&#x101;" horiz-adv-x="1107" 
d="M924 1446v-221h-695v221h695zM336 -41q-138 3 -212.5 68t-74.5 182q0 151 126.5 237.5t428.5 131.5v40q0 74 -23.5 102t-82.5 28q-66 0 -158 -32t-156 -79h-14l-47 297q96 58 226 93.5t243 35.5q207 0 307 -103.5t100 -314.5v-645h-321l-31 102q-140 -146 -311 -143z
M489 180q54 0 115 49v203q-110 -22 -151 -59t-41 -101q0 -92 77 -92z" />
    <glyph glyph-name="Abreve" unicode="&#x102;" horiz-adv-x="1503" 
d="M752 1550q-158 0 -252 74.5t-107 212.5l21 16h184q8 -46 48 -72t106 -26t105.5 26t45.5 72h184l21 -16q-14 -138 -106 -212.5t-250 -74.5zM496 1450h520l493 -1440l-10 -10h-471l-63 225h-433l-63 -225h-467l-8 10zM655 670l-43 -158h271l-45 158q-63 225 -88 426h-7
q-28 -190 -88 -426z" />
    <glyph glyph-name="abreve" unicode="&#x103;" horiz-adv-x="1107" 
d="M575 1161q-158 0 -250.5 74.5t-105.5 216.5l21 16h184q12 -102 151 -102q137 0 152 102h184l21 -16q-13 -142 -106 -216.5t-251 -74.5zM336 -41q-138 3 -212.5 68t-74.5 182q0 151 126.5 237.5t428.5 131.5v40q0 74 -23.5 102t-82.5 28q-66 0 -158 -32t-156 -79h-14
l-47 297q96 58 226 93.5t243 35.5q207 0 307 -103.5t100 -314.5v-645h-321l-31 102q-140 -146 -311 -143zM489 180q54 0 115 49v203q-110 -22 -151 -59t-41 -101q0 -92 77 -92z" />
    <glyph glyph-name="Aogonek" unicode="&#x104;" horiz-adv-x="1503" 
d="M1499 0h-94q-76 -63 -115 -123.5t-39 -109.5q0 -52 56 -52q55 0 116 39h15l22 -182q-107 -57 -248 -57q-105 0 -163 48t-58 132q0 178 217 305h-180l-63 225h-433l-63 -225h-467l-8 10l502 1440h520l493 -1440zM655 670l-43 -158h271l-45 158q-63 225 -88 426h-7
q-28 -190 -88 -426z" />
    <glyph glyph-name="aogonek" unicode="&#x105;" horiz-adv-x="1107" 
d="M999 0h-59q-76 -63 -115 -123.5t-39 -109.5q0 -52 56 -52q55 0 116 39h15l22 -182q-107 -57 -247 -57q-105 0 -163.5 48t-58.5 132q0 178 217 305h-65l-31 102q-140 -146 -311 -143q-138 3 -212.5 68t-74.5 182q0 151 126.5 237.5t428.5 131.5v40q0 74 -23.5 102
t-82.5 28q-66 0 -158 -32t-156 -79h-14l-47 297q96 58 226 93.5t243 35.5q207 0 307 -103.5t100 -314.5v-645zM604 229v203q-110 -22 -151 -59t-41 -101q0 -92 77 -92q54 0 115 49z" />
    <glyph glyph-name="Cacute" unicode="&#x106;" horiz-adv-x="1415" 
d="M860 1567h-266l174 274h336l12 -18zM825 -41q-334 0 -539.5 208.5t-205.5 551.5q0 231 96.5 407.5t265 270.5t381.5 94q249 0 477 -131l-59 -406h-16q-162 144 -353 144q-154 0 -245.5 -101t-91.5 -270q0 -172 93.5 -273.5t250.5 -101.5q189 0 354 146h14l62 -408
q-232 -131 -484 -131z" />
    <glyph glyph-name="cacute" unicode="&#x107;" horiz-adv-x="1009" 
d="M930 1518l-301 -347h-260l204 367h347zM598 -41q-241 0 -384.5 150.5t-143.5 398.5q0 243 152 399t396 156q155 0 324 -88l-49 -322h-14q-98 88 -205 88q-91 0 -147 -63t-56 -168q0 -102 54 -165.5t141 -63.5q56 0 105.5 18.5t111.5 67.5h14l43 -310q-149 -98 -342 -98z
" />
    <glyph glyph-name="Cdotaccent" unicode="&#x10a;" horiz-adv-x="1415" 
d="M811 1575q-89 0 -144 48t-55 126q0 81 54.5 129.5t144.5 48.5q89 0 144 -48.5t55 -127.5t-55 -127.5t-144 -48.5zM825 -41q-334 0 -539.5 208.5t-205.5 551.5q0 231 96.5 407.5t265 270.5t381.5 94q249 0 477 -131l-59 -406h-16q-162 144 -353 144q-154 0 -245.5 -101
t-91.5 -270q0 -172 93.5 -273.5t250.5 -101.5q189 0 354 146h14l62 -408q-232 -131 -484 -131z" />
    <glyph glyph-name="cdotaccent" unicode="&#x10b;" horiz-adv-x="1009" 
d="M575 1167q-92 0 -151 53t-59 136q0 85 58 136.5t152 51.5t152.5 -52t58.5 -136q0 -83 -59.5 -136t-151.5 -53zM598 -41q-241 0 -384.5 150.5t-143.5 398.5q0 243 152 399t396 156q155 0 324 -88l-49 -322h-14q-98 88 -205 88q-91 0 -147 -63t-56 -168q0 -102 54 -165.5
t141 -63.5q56 0 105.5 18.5t111.5 67.5h14l43 -310q-149 -98 -342 -98z" />
    <glyph glyph-name="Ccaron" unicode="&#x10c;" horiz-adv-x="1415" 
d="M967 1565h-314l-250 256l19 18h246l143 -133l141 133h248l17 -18zM825 -41q-334 0 -539.5 208.5t-205.5 551.5q0 231 96.5 407.5t265 270.5t381.5 94q249 0 477 -131l-59 -406h-16q-162 144 -353 144q-154 0 -245.5 -101t-91.5 -270q0 -172 93.5 -273.5t250.5 -101.5
q189 0 354 146h14l62 -408q-232 -131 -484 -131z" />
    <glyph glyph-name="ccaron" unicode="&#x10d;" horiz-adv-x="1009" 
d="M436 1538l142 -192l141 192h252l16 -20l-246 -347h-329l-246 347l16 20h254zM598 -41q-241 0 -384.5 150.5t-143.5 398.5q0 243 152 399t396 156q155 0 324 -88l-49 -322h-14q-98 88 -205 88q-91 0 -147 -63t-56 -168q0 -102 54 -165.5t141 -63.5q56 0 105.5 18.5
t111.5 67.5h14l43 -310q-149 -98 -342 -98z" />
    <glyph glyph-name="Dcaron" unicode="&#x10e;" horiz-adv-x="1554" 
d="M858 1565h-313l-250 256l18 18h246l143 -133l142 133h248l16 -18zM647 0h-516v1450h516q390 0 611 -193.5t221 -527.5q0 -338 -224 -533.5t-608 -195.5zM555 1081v-712h80q208 0 310 86.5t102 273.5q0 181 -101.5 266.5t-306.5 85.5h-84z" />
    <glyph glyph-name="dcaron" unicode="&#x10f;" horiz-adv-x="1605" 
d="M768 971v534h403v-1505h-366l-14 96q-69 -63 -154 -100t-172 -37q-178 0 -286.5 145t-108.5 396q0 253 121.5 408t308.5 155q146 0 268 -92zM1309 1505h286l21 -35l-133 -430h-223zM459 500q0 -95 45 -155t121 -60q71 0 143 59v358q-71 29 -131 29q-80 0 -129 -61.5
t-49 -169.5z" />
    <glyph glyph-name="Dcroat" unicode="&#x110;" horiz-adv-x="1554" 
d="M131 1450h516q390 0 611 -193.5t221 -527.5q0 -338 -224 -533.5t-608 -195.5h-516v614h-131v205h131v631zM555 369h80q208 0 310 86.5t102 273.5q0 181 -101.5 266.5t-306.5 85.5h-84v-262h233v-205h-233v-245z" />
    <glyph glyph-name="dcroat" unicode="&#x111;" horiz-adv-x="1277" 
d="M1171 1362h107v-188h-107v-1174h-366l-14 96q-69 -63 -154 -100t-172 -37q-178 0 -286.5 145t-108.5 396q0 253 121.5 408t308.5 155q146 0 268 -92v203h-268v188h268v143h403v-143zM459 500q0 -95 45 -155t121 -60q71 0 143 59v358q-71 29 -131 29q-80 0 -129 -61.5
t-49 -169.5z" />
    <glyph glyph-name="Emacron" unicode="&#x112;" horiz-adv-x="1193" 
d="M250 1831h694v-211h-694v211zM1034 590h-479v-230h547l-39 -360h-932v1450h932l39 -360h-547v-213h479v-287z" />
    <glyph glyph-name="emacron" unicode="&#x113;" horiz-adv-x="1175" 
d="M254 1446h694v-221h-694v221zM1102 524q0 -36 -4 -71h-621q2 -94 51 -144.5t142 -50.5q178 0 315 104h14l43 -284q-79 -52 -192.5 -85.5t-228.5 -33.5q-134 0 -239.5 41.5t-173 115.5t-103 174t-35.5 218q0 241 144.5 398t385.5 157q240 0 371 -149t131 -390zM479 612
h266q-4 87 -37 133t-90 46q-58 0 -95.5 -47t-43.5 -132z" />
    <glyph glyph-name="Edotaccent" unicode="&#x116;" horiz-adv-x="1193" 
d="M596 1575q-89 0 -144 48t-55 126q0 81 54.5 129.5t144.5 48.5q89 0 144 -48.5t55 -127.5t-55 -127.5t-144 -48.5zM1034 590h-479v-230h547l-39 -360h-932v1450h932l39 -360h-547v-213h479v-287z" />
    <glyph glyph-name="edotaccent" unicode="&#x117;" horiz-adv-x="1175" 
d="M600 1167q-92 0 -151.5 53t-59.5 136q0 84 58.5 136t152.5 52t152.5 -52t58.5 -136q0 -83 -59.5 -136t-151.5 -53zM1102 524q0 -36 -4 -71h-621q2 -94 51 -144.5t142 -50.5q178 0 315 104h14l43 -284q-79 -52 -192.5 -85.5t-228.5 -33.5q-134 0 -239.5 41.5t-173 115.5
t-103 174t-35.5 218q0 241 144.5 398t385.5 157q240 0 371 -149t131 -390zM479 612h266q-4 87 -37 133t-90 46q-58 0 -95.5 -47t-43.5 -132z" />
    <glyph glyph-name="Eogonek" unicode="&#x118;" horiz-adv-x="1193" 
d="M1034 590h-479v-230h547l-39 -360h-78q-76 -63 -115 -123.5t-39 -109.5q0 -52 56 -52t117 39h14l22 -182q-107 -57 -247 -57q-105 0 -163.5 48t-58.5 132q0 178 217 305h-657v1450h932l39 -360h-547v-213h479v-287z" />
    <glyph glyph-name="eogonek" unicode="&#x119;" horiz-adv-x="1175" 
d="M1102 524q0 -36 -4 -71h-621q2 -94 51 -144.5t142 -50.5q178 0 315 104h14l43 -284q-69 -47 -170 -78q-153 -127 -153 -233q0 -52 55 -52q56 0 117 39h14l23 -182q-107 -57 -248 -57q-105 0 -163 48t-58 132q0 149 153 264q-260 3 -401 155t-141 394q0 241 144.5 398
t385.5 157q240 0 371 -149t131 -390zM479 612h266q-4 87 -37 133t-90 46q-58 0 -95.5 -47t-43.5 -132z" />
    <glyph glyph-name="Ecaron" unicode="&#x11a;" horiz-adv-x="1193" 
d="M1001 1821l-249 -256h-314l-250 256l19 18h246l143 -133l141 133h248zM1034 590h-479v-230h547l-39 -360h-932v1450h932l39 -360h-547v-213h479v-287z" />
    <glyph glyph-name="ecaron" unicode="&#x11b;" horiz-adv-x="1175" 
d="M1012 1518l-246 -347h-330l-246 347l17 20h254l141 -192l141 192h252zM1102 524q0 -36 -4 -71h-621q2 -94 51 -144.5t142 -50.5q178 0 315 104h14l43 -284q-79 -52 -192.5 -85.5t-228.5 -33.5q-134 0 -239.5 41.5t-173 115.5t-103 174t-35.5 218q0 241 144.5 398
t385.5 157q240 0 371 -149t131 -390zM479 612h266q-4 87 -37 133t-90 46q-58 0 -95.5 -47t-43.5 -132z" />
    <glyph glyph-name="Gbreve" unicode="&#x11e;" horiz-adv-x="1515" 
d="M819 1550q-158 0 -251.5 74.5t-106.5 212.5l20 16h185q8 -46 48 -72t105 -26q66 0 106 26t46 72h184l21 -16q-14 -138 -106.5 -212.5t-250.5 -74.5zM807 -41q-221 0 -386.5 94.5t-253 265t-87.5 394.5q0 174 60 320.5t163 246.5t243.5 155.5t299.5 55.5q297 0 545 -139
l-74 -402h-14q-206 154 -418 154q-167 0 -258.5 -104.5t-91.5 -286.5q0 -175 79 -276t215 -101q92 0 170 37v166h-180v278h561v-713q-162 -83 -295.5 -114t-277.5 -31z" />
    <glyph glyph-name="gbreve" unicode="&#x11f;" horiz-adv-x="1280" 
d="M668 1161q-158 0 -251 74.5t-106 216.5l21 16h184q12 -102 152 -102q136 0 151 102h185l20 -16q-13 -142 -105.5 -216.5t-250.5 -74.5zM813 938l18 84h340v-954q0 -265 -140 -412.5t-406 -147.5q-249 0 -449 105l45 330h15q69 -50 164.5 -75.5t181.5 -25.5
q101 0 142.5 39.5t41.5 136.5v132q-137 -121 -303 -121q-176 0 -282.5 131t-106.5 356q0 243 119.5 395t304.5 152q178 0 315 -125zM623 319q68 0 143 58v325q-71 29 -131 29q-77 0 -124.5 -57.5t-47.5 -151.5q0 -96 42 -149.5t118 -53.5z" />
    <glyph glyph-name="Gdotaccent" unicode="&#x120;" horiz-adv-x="1515" 
d="M817 1575q-89 0 -144 48t-55 126q0 81 54.5 129.5t144.5 48.5q89 0 144 -48.5t55 -127.5t-55 -127.5t-144 -48.5zM807 -41q-221 0 -386.5 94.5t-253 265t-87.5 394.5q0 174 60 320.5t163 246.5t243.5 155.5t299.5 55.5q297 0 545 -139l-74 -402h-14q-206 154 -418 154
q-167 0 -258.5 -104.5t-91.5 -286.5q0 -175 79 -276t215 -101q92 0 170 37v166h-180v278h561v-713q-162 -83 -295.5 -114t-277.5 -31z" />
    <glyph glyph-name="gdotaccent" unicode="&#x121;" horiz-adv-x="1280" 
d="M666 1167q-92 0 -151.5 53t-59.5 136q0 84 58.5 136t152.5 52t152.5 -52t58.5 -136q0 -83 -59.5 -136t-151.5 -53zM813 938l18 84h340v-954q0 -265 -140 -412.5t-406 -147.5q-249 0 -449 105l45 330h15q69 -50 164.5 -75.5t181.5 -25.5q101 0 142.5 39.5t41.5 136.5v132
q-137 -121 -303 -121q-176 0 -282.5 131t-106.5 356q0 243 119.5 395t304.5 152q178 0 315 -125zM623 319q68 0 143 58v325q-71 29 -131 29q-77 0 -124.5 -57.5t-47.5 -151.5q0 -96 42 -149.5t118 -53.5z" />
    <glyph glyph-name="uni0122" unicode="&#x122;" horiz-adv-x="1515" 
d="M807 -41q-221 0 -386.5 94.5t-253 265t-87.5 394.5q0 174 60 320.5t163 246.5t243.5 155.5t299.5 55.5q297 0 545 -139l-74 -402h-14q-206 154 -418 154q-167 0 -258.5 -104.5t-91.5 -286.5q0 -175 79 -276t215 -101q92 0 170 37v166h-180v278h561v-713
q-162 -83 -295.5 -114t-277.5 -31zM680 -125h301l23 -35l-181 -430h-237z" />
    <glyph glyph-name="uni0123" unicode="&#x123;" horiz-adv-x="1280" 
d="M905 1622l-96 -467h-299l-23 37l181 430h237zM813 938l18 84h340v-954q0 -265 -140 -412.5t-406 -147.5q-249 0 -449 105l45 330h15q69 -50 164.5 -75.5t181.5 -25.5q101 0 142.5 39.5t41.5 136.5v132q-137 -121 -303 -121q-176 0 -282.5 131t-106.5 356q0 243 119.5 395
t304.5 152q178 0 315 -125zM623 319q68 0 143 58v325q-71 29 -131 29q-77 0 -124.5 -57.5t-47.5 -151.5q0 -96 42 -149.5t118 -53.5z" />
    <glyph glyph-name="Hbar" unicode="&#x126;" horiz-adv-x="1568" 
d="M1440 1286h121v-199h-121v-1087h-426v547h-459v-547h-424v1087h-123v199h123v164h424v-164h459v164h426v-164zM555 1087v-174h459v174h-459z" />
    <glyph glyph-name="hbar" unicode="&#x127;" horiz-adv-x="1273" 
d="M844 1063q152 0 236.5 -104t84.5 -297v-662h-403v596q0 70 -22 101.5t-68 31.5q-67 0 -162 -74v-655h-404v1174h-106v188h106v143h404v-143h268v-188h-268v-271q153 160 334 160z" />
    <glyph glyph-name="Imacron" unicode="&#x12a;" horiz-adv-x="686" 
d="M690 1620h-694v211h694v-211zM131 0v1450h424v-1450h-424z" />
    <glyph glyph-name="imacron" unicode="&#x12b;" horiz-adv-x="618" 
d="M657 1446v-221h-694v221h694zM510 0h-404v1022h404v-1022z" />
    <glyph glyph-name="Iogonek" unicode="&#x12e;" horiz-adv-x="686" 
d="M555 0h-66q-153 -127 -153 -233q0 -52 55 -52q56 0 117 39h14l23 -182q-107 -57 -248 -57q-105 0 -163 48t-58 132q0 178 217 305h-162v1450h424v-1450z" />
    <glyph glyph-name="iogonek" unicode="&#x12f;" horiz-adv-x="618" 
d="M309 1135q-101 0 -166 58.5t-65 149.5q0 92 64.5 149.5t166.5 57.5q103 0 166.5 -57.5t63.5 -149.5q0 -91 -64.5 -149.5t-165.5 -58.5zM254 0h-148v1022h404v-1022h-59q-77 -62 -115.5 -123t-38.5 -110q0 -52 55 -52q57 0 115 39h16l23 -182q-107 -57 -250 -57
q-105 0 -163 48t-58 132q0 179 219 305z" />
    <glyph glyph-name="Idotaccent" unicode="&#x130;" horiz-adv-x="686" 
d="M342 1573q-101 0 -165 57t-64 148t63 145.5t166 54.5q102 0 164.5 -55t62.5 -145q0 -91 -63 -148t-164 -57zM131 0v1450h424v-1450h-424z" />
    <glyph glyph-name="dotlessi" unicode="&#x131;" horiz-adv-x="618" 
d="M510 0h-404v1022h404v-1022z" />
    <glyph glyph-name="uni0136" unicode="&#x136;" horiz-adv-x="1497" 
d="M1491 1438l-512 -592l528 -834l-8 -12h-485l-320 516l-139 -162v-354h-424v1450h424v-213q0 -162 -18 -391h8q109 177 178 266l274 338h486zM549 -590l94 465h301l23 -35l-181 -430h-237z" />
    <glyph glyph-name="uni0137" unicode="&#x137;" horiz-adv-x="1220" 
d="M510 0h-404v1505h404v-260q0 -278 -27 -579l6 -2q61 97 177 247l88 111h430l6 -14l-344 -406l366 -590l-6 -12h-422l-204 334l-70 -86v-248zM514 -125h301l23 -35l-181 -430h-237z" />
    <glyph glyph-name="kgreenlandic" unicode="&#x138;" horiz-adv-x="1220" 
d="M510 0h-404v1022h404v-37q0 -126 -27 -319l9 -4q62 103 174 249l88 111h430l6 -14l-344 -406l366 -590l-6 -12h-422l-204 334l-70 -86v-248z" />
    <glyph glyph-name="Lacute" unicode="&#x139;" horiz-adv-x="1165" 
d="M391 1567h-266l174 274h336l12 -18zM131 0v1450h424v-1071h573l-47 -379h-950z" />
    <glyph glyph-name="lacute" unicode="&#x13a;" horiz-adv-x="618" 
d="M358 1622h-266l174 274h336l12 -18zM510 0h-404v1505h404v-1505z" />
    <glyph glyph-name="uni013B" unicode="&#x13b;" horiz-adv-x="1165" 
d="M131 0v1450h424v-1071h573l-47 -379h-950zM498 -125h301l22 -35l-180 -430h-238z" />
    <glyph glyph-name="uni013C" unicode="&#x13c;" horiz-adv-x="618" 
d="M510 0h-404v1505h404v-1505zM160 -125h301l22 -35l-180 -430h-237z" />
    <glyph glyph-name="Lcaron" unicode="&#x13d;" horiz-adv-x="1165" 
d="M131 0v1450h424v-1071h573l-47 -379h-950zM893 985h-223l51 465h285l20 -35z" />
    <glyph glyph-name="lcaron" unicode="&#x13e;" horiz-adv-x="946" 
d="M510 0h-404v1505h404v-1505zM823 1040h-223l49 465h287l20 -35z" />
    <glyph glyph-name="Lslash" unicode="&#x141;" horiz-adv-x="1165" 
d="M555 750v-371h573l-47 -379h-950v514l-123 -68v240l123 68v696h424v-461l258 144l2 -240z" />
    <glyph glyph-name="lslash" unicode="&#x142;" horiz-adv-x="667" 
d="M535 1083l120 74v-221l-120 -74v-862h-404v618l-117 -71v223l117 70v665h404v-422z" />
    <glyph glyph-name="Nacute" unicode="&#x143;" horiz-adv-x="1626" 
d="M870 1567h-266l174 274h336l12 -18zM553 0h-422v1450h430l332 -467q106 -156 209 -342h8q-37 227 -37 426v383h424v-1456h-391l-365 495q-103 141 -219 345h-6q37 -230 37 -445v-389z" />
    <glyph glyph-name="nacute" unicode="&#x144;" horiz-adv-x="1273" 
d="M983 1538l10 -20l-301 -347h-260l205 367h346zM844 1063q152 0 236.5 -104t84.5 -297v-662h-403v596q0 71 -21.5 102t-68.5 31q-67 0 -162 -74v-655h-404v1022h367l14 -143q159 184 357 184z" />
    <glyph glyph-name="uni0145" unicode="&#x145;" horiz-adv-x="1626" 
d="M553 0h-422v1450h430l332 -467q106 -156 209 -342h8q-37 227 -37 426v383h424v-1456h-391l-365 495q-103 141 -219 345h-6q37 -230 37 -445v-389zM713 -125h301l22 -35l-180 -430h-238z" />
    <glyph glyph-name="uni0146" unicode="&#x146;" horiz-adv-x="1273" 
d="M844 1063q152 0 236.5 -104t84.5 -297v-662h-403v596q0 71 -21.5 102t-68.5 31q-67 0 -162 -74v-655h-404v1022h367l14 -143q159 184 357 184zM430 -590l94 465h301l23 -35l-180 -430h-238z" />
    <glyph glyph-name="Ncaron" unicode="&#x147;" horiz-adv-x="1626" 
d="M979 1565h-313l-250 256l18 18h246l143 -133l142 133h247l17 -18zM553 0h-422v1450h430l332 -467q106 -156 209 -342h8q-37 227 -37 426v383h424v-1456h-391l-365 495q-103 141 -219 345h-6q37 -230 37 -445v-389z" />
    <glyph glyph-name="ncaron" unicode="&#x148;" horiz-adv-x="1273" 
d="M1051 1518l-246 -347h-330l-246 347l17 20h254l141 -192l141 192h252zM844 1063q152 0 236.5 -104t84.5 -297v-662h-403v596q0 71 -21.5 102t-68.5 31q-67 0 -162 -74v-655h-404v1022h367l14 -143q159 184 357 184z" />
    <glyph glyph-name="Eng" unicode="&#x14a;" horiz-adv-x="1626" 
d="M1073 1067v383h424v-1274q0 -184 -38 -301t-127.5 -202t-256.5 -165l-172 248l2 27q88 46 124 102.5t40 161.5l-328 442q-113 156 -219 345h-6q37 -230 37 -445v-389h-422v1450h430l332 -467q117 -173 211 -342h4q-35 215 -35 426z" />
    <glyph glyph-name="eng" unicode="&#x14b;" horiz-adv-x="1273" 
d="M844 1063q152 0 236.5 -104t84.5 -297v-494q0 -184 -35 -299t-117 -198t-237 -163l-166 240l2 27q85 54 117.5 121t32.5 200v500q0 70 -22 101.5t-68 31.5q-70 0 -162 -72v-657h-404v1022h367l14 -143q159 184 357 184z" />
    <glyph glyph-name="Omacron" unicode="&#x14c;" horiz-adv-x="1734" 
d="M1214 1620h-694v211h694v-211zM868 -41q-169 0 -315.5 58.5t-250 160t-163 243.5t-59.5 304q0 222 101 397t280.5 272t406.5 97q169 0 315.5 -56.5t250 -157t162.5 -243t59 -309.5q0 -162 -59.5 -304t-163 -243.5t-250 -160t-314.5 -58.5zM868 346q149 0 245.5 107
t96.5 272q0 168 -96 273.5t-246 105.5q-151 0 -247.5 -105.5t-96.5 -273.5q0 -165 97 -272t247 -107z" />
    <glyph glyph-name="omacron" unicode="&#x14d;" horiz-adv-x="1265" 
d="M981 1446v-221h-694v221h694zM633 -41q-248 0 -405.5 156.5t-157.5 394.5q0 156 70.5 281.5t199.5 198.5t293 73q165 0 294.5 -73t200 -198.5t70.5 -281.5t-71 -281.5t-200.5 -197.5t-293.5 -72zM633 293q81 0 126.5 59.5t45.5 157.5q0 97 -46 157t-126 60
q-78 0 -124 -60t-46 -157q0 -98 45.5 -157.5t124.5 -59.5z" />
    <glyph glyph-name="Ohungarumlaut" unicode="&#x150;" horiz-adv-x="1734" 
d="M694 1565h-276l205 274h327l13 -18zM1176 1565h-275l205 274h328l12 -18zM868 -41q-169 0 -315.5 58.5t-250 160t-163 243.5t-59.5 304q0 222 101 397t280.5 272t406.5 97q169 0 315.5 -56.5t250 -157t162.5 -243t59 -309.5q0 -162 -59.5 -304t-163 -243.5t-250 -160
t-314.5 -58.5zM868 346q149 0 245.5 107t96.5 272q0 168 -96 273.5t-246 105.5q-151 0 -247.5 -105.5t-96.5 -273.5q0 -165 97 -272t247 -107z" />
    <glyph glyph-name="ohungarumlaut" unicode="&#x151;" horiz-adv-x="1265" 
d="M508 1171h-293l219 367h346l13 -20zM975 1171h-291l219 367h346l13 -20zM633 -41q-248 0 -405.5 156.5t-157.5 394.5q0 156 70.5 281.5t199.5 198.5t293 73q165 0 294.5 -73t200 -198.5t70.5 -281.5t-71 -281.5t-200.5 -197.5t-293.5 -72zM633 293q81 0 126.5 59.5
t45.5 157.5q0 97 -46 157t-126 60q-78 0 -124 -60t-46 -157q0 -98 45.5 -157.5t124.5 -59.5z" />
    <glyph glyph-name="OE" unicode="&#x152;" horiz-adv-x="2125" 
d="M1966 590h-479v-230h547l-39 -360h-848q-128 -41 -273 -41q-169 0 -317 58.5t-252.5 160t-164.5 243.5t-60 304q0 222 102.5 397.5t283.5 272t408 96.5q140 0 271 -41h850l39 -360h-547v-213h479v-287zM524 725q0 -164 99.5 -270.5t250.5 -106.5q116 0 189 51v660
q-79 45 -189 45q-153 0 -251.5 -105.5t-98.5 -273.5z" />
    <glyph glyph-name="oe" unicode="&#x153;" horiz-adv-x="1875" 
d="M612 -41q-236 0 -389 156.5t-153 394.5q0 116 40.5 218t112 176t172.5 116.5t217 42.5q225 0 351 -162h4q60 77 151.5 119.5t198.5 42.5q152 0 263 -70.5t166.5 -191t55.5 -277.5q0 -40 -2 -73h-622v-5q6 -188 200 -188q180 0 314 104h14l45 -284q-79 -52 -192.5 -85.5
t-229.5 -33.5q-242 0 -366 162h-5q-127 -162 -346 -162zM1180 610h266q-4 84 -36.5 129t-88.5 45q-59 0 -97 -46t-44 -128zM627 291q77 0 120.5 59t43.5 160q0 100 -43.5 159.5t-120.5 59.5q-76 0 -119 -59.5t-43 -159.5q0 -101 43 -160t119 -59z" />
    <glyph glyph-name="Racute" unicode="&#x154;" horiz-adv-x="1394" 
d="M983 1841l12 -18l-256 -256h-266l174 274h336zM1032 575l377 -538l-16 -37h-447l-325 502h-66v-502h-424v1450h559q578 0 578 -483q0 -140 -60.5 -239.5t-175.5 -152.5zM676 1110h-119v-305h119q188 0 188 151q0 154 -188 154z" />
    <glyph glyph-name="racute" unicode="&#x155;" horiz-adv-x="835" 
d="M803 1538l10 -20l-301 -347h-260l205 367h346zM768 1057q1 0 47 -4l-20 -391l-19 -7q-40 7 -74 7q-106 0 -192 -95v-567h-404v1022h367l16 -168q72 103 135.5 153t143.5 50z" />
    <glyph glyph-name="uni0156" unicode="&#x156;" horiz-adv-x="1394" 
d="M1032 575l377 -538l-16 -37h-447l-325 502h-66v-502h-424v1450h559q578 0 578 -483q0 -140 -60.5 -239.5t-175.5 -152.5zM676 1110h-119v-305h119q188 0 188 151q0 154 -188 154zM500 -590l94 465h301l23 -35l-181 -430h-237z" />
    <glyph glyph-name="uni0157" unicode="&#x157;" horiz-adv-x="835" 
d="M768 1057q1 0 47 -4l-20 -391l-19 -7q-40 7 -74 7q-106 0 -192 -95v-567h-404v1022h367l16 -168q72 103 135.5 153t143.5 50zM72 -590l94 465h301l22 -35l-180 -430h-237z" />
    <glyph glyph-name="Rcaron" unicode="&#x158;" horiz-adv-x="1394" 
d="M1098 1821l-250 -256h-313l-250 256l18 18h246l143 -133l142 133h247zM1032 575l377 -538l-16 -37h-447l-325 502h-66v-502h-424v1450h559q578 0 578 -483q0 -140 -60.5 -239.5t-175.5 -152.5zM676 1110h-119v-305h119q188 0 188 151q0 154 -188 154z" />
    <glyph glyph-name="rcaron" unicode="&#x159;" horiz-adv-x="835" 
d="M870 1518l-245 -347h-330l-246 347l17 20h253l142 -192l141 192h252zM473 1022l16 -168q72 103 135.5 153t143.5 50q1 0 47 -4l-20 -391l-19 -7q-40 7 -74 7q-106 0 -192 -95v-567h-404v1022h367z" />
    <glyph glyph-name="Sacute" unicode="&#x15a;" horiz-adv-x="1234" 
d="M670 1567h-267l175 274h335l13 -18zM588 -41q-276 0 -500 119l59 375h15q86 -62 196 -102t211 -40q81 0 121.5 24.5t40.5 67.5q0 31 -19.5 55t-79 56.5t-181.5 83.5q-201 85 -285 189.5t-84 269.5q0 191 148.5 312.5t408.5 121.5q117 0 236 -29.5t206 -75.5l-59 -372h-14
q-82 57 -184.5 90t-192.5 33q-117 0 -117 -76q0 -27 15.5 -46t73.5 -50.5t183 -85.5q204 -89 290.5 -195.5t86.5 -255.5q0 -205 -158.5 -337t-416.5 -132z" />
    <glyph glyph-name="sacute" unicode="&#x15b;" horiz-adv-x="974" 
d="M852 1518l-301 -347h-260l205 367h346zM467 -41q-96 0 -205.5 27.5t-193.5 72.5l41 295h14q164 -118 311 -118q44 0 69 17t25 46q0 31 -34.5 58.5t-135.5 68.5q-156 63 -220 135.5t-64 183.5q0 141 112 229.5t299 88.5q94 0 197 -26t188 -70l-45 -293h-14
q-155 114 -285 114q-36 0 -55.5 -16t-19.5 -41q0 -29 32 -53.5t142 -71.5q151 -63 215.5 -139t64.5 -182q0 -148 -119 -237t-319 -89z" />
    <glyph glyph-name="Scedilla" unicode="&#x15e;" horiz-adv-x="1234" 
d="M1163 428q0 -178 -121 -303t-327 -156l-37 -84q24 4 47 4q74 0 123 -45t49 -118q0 -100 -83 -159t-218 -59q-125 0 -223 43l26 166l19 4q70 -45 153 -45q36 0 55 15t19 39q0 21 -14 34t-41 13q-28 0 -74 -17l-51 45l61 156q-242 13 -438 117l59 375h15q86 -62 196 -102
t211 -40q81 0 121.5 24.5t40.5 67.5q0 31 -19.5 55t-79 56.5t-181.5 83.5q-201 85 -285 189.5t-84 269.5q0 191 148.5 312.5t408.5 121.5q117 0 236 -29.5t206 -75.5l-59 -372h-14q-82 57 -184.5 90t-192.5 33q-117 0 -117 -76q0 -27 15.5 -46t73.5 -50.5t183 -85.5
q204 -89 290.5 -195.5t86.5 -255.5z" />
    <glyph glyph-name="scedilla" unicode="&#x15f;" horiz-adv-x="974" 
d="M905 285q0 -130 -93 -215.5t-255 -104.5l-35 -80q24 4 47 4q74 0 123 -45t49 -118q0 -100 -83 -159t-218 -59q-125 0 -223 43l27 166l18 4q70 -45 154 -45q36 0 54.5 15t18.5 39q0 21 -14 34t-41 13q-28 0 -74 -17l-51 45l62 160q-170 23 -303 94l41 295h14
q164 -118 311 -118q44 0 69 17t25 46q0 31 -34.5 58.5t-135.5 68.5q-156 63 -220 135.5t-64 183.5q0 141 112 229.5t299 88.5q94 0 197 -26t188 -70l-45 -293h-14q-155 114 -285 114q-36 0 -55.5 -16t-19.5 -41q0 -29 32 -53.5t142 -71.5q151 -63 215.5 -139t64.5 -182z" />
    <glyph glyph-name="Scaron" unicode="&#x160;" horiz-adv-x="1234" 
d="M778 1565h-313l-250 256l18 18h246l144 -133l141 133h248l16 -18zM588 -41q-276 0 -500 119l59 375h15q86 -62 196 -102t211 -40q81 0 121.5 24.5t40.5 67.5q0 31 -19.5 55t-79 56.5t-181.5 83.5q-201 85 -285 189.5t-84 269.5q0 191 148.5 312.5t408.5 121.5
q117 0 236 -29.5t206 -75.5l-59 -372h-14q-82 57 -184.5 90t-192.5 33q-117 0 -117 -76q0 -27 15.5 -46t73.5 -50.5t183 -85.5q204 -89 290.5 -195.5t86.5 -255.5q0 -205 -158.5 -337t-416.5 -132z" />
    <glyph glyph-name="scaron" unicode="&#x161;" horiz-adv-x="974" 
d="M358 1538l142 -192l141 192h252l16 -20l-245 -347h-330l-246 347l16 20h254zM467 -41q-96 0 -205.5 27.5t-193.5 72.5l41 295h14q164 -118 311 -118q44 0 69 17t25 46q0 31 -34.5 58.5t-135.5 68.5q-156 63 -220 135.5t-64 183.5q0 141 112 229.5t299 88.5q94 0 197 -26
t188 -70l-45 -293h-14q-155 114 -285 114q-36 0 -55.5 -16t-19.5 -41q0 -29 32 -53.5t142 -71.5q151 -63 215.5 -139t64.5 -182q0 -148 -119 -237t-319 -89z" />
    <glyph glyph-name="uni0162" unicode="&#x162;" horiz-adv-x="1228" 
d="M827 1055v-1055h-104l-51 -115q24 4 45 4q76 0 125 -45t49 -118q0 -100 -83.5 -159t-219.5 -59q-123 0 -221 43l24 166l19 4q70 -45 155 -45q35 0 53.5 15t18.5 39q0 47 -53 47q-28 0 -74 -17l-51 45l76 195h-132v1055h-383v395h1188v-395h-381z" />
    <glyph glyph-name="uni0163" unicode="&#x163;" horiz-adv-x="882" 
d="M600 -111q76 0 125 -45t49 -118q0 -100 -83.5 -159t-219.5 -59q-123 0 -221 43l26 166l17 4q70 -45 156 -45q35 0 53 15t18 39q0 47 -53 47q-28 0 -74 -17l-51 45l68 175q-236 70 -236 368v373h-151v301h159v170l297 176h96v-346h246v-301h-246v-289q0 -78 27 -107.5
t90 -29.5q52 0 105 24l20 -10l10 -307q-40 -17 -107.5 -29.5t-131.5 -13.5l-33 -74q24 4 45 4z" />
    <glyph glyph-name="Tcaron" unicode="&#x164;" horiz-adv-x="1228" 
d="M1022 1821l-250 -256h-313l-250 256l18 18h246l143 -133l142 133h248zM20 1450h1188v-395h-381v-1055h-424v1055h-383v395z" />
    <glyph glyph-name="tcaron" unicode="&#x165;" horiz-adv-x="882" 
d="M924 1157h-224l52 465h284l21 -35zM580 -41q-205 0 -305.5 96t-100.5 293v373h-151v301h159v170l297 176h96v-346h246v-301h-246v-289q0 -78 27 -107.5t90 -29.5q52 0 105 24l20 -10l10 -307q-43 -18 -113 -30.5t-134 -12.5z" />
    <glyph glyph-name="Tbar" unicode="&#x166;" horiz-adv-x="1228" 
d="M1208 1450v-395h-381v-297h191v-197h-191v-561h-424v561h-190v197h190v297h-383v395h1188z" />
    <glyph glyph-name="tbar" unicode="&#x167;" horiz-adv-x="882" 
d="M797 319l20 -10l10 -307q-43 -18 -113 -30.5t-134 -12.5q-205 0 -305.5 96t-100.5 293v137h-145v123h145v113h-151v301h159v170l297 176h96v-346h246v-301h-246v-113h207v-123h-207v-53q0 -78 27 -107.5t90 -29.5q52 0 105 24z" />
    <glyph glyph-name="Umacron" unicode="&#x16a;" horiz-adv-x="1515" 
d="M1106 1620h-694v211h694v-211zM758 -41q-332 0 -486.5 169.5t-154.5 520.5v801h424v-776q0 -177 51 -251.5t166 -74.5t166 75t51 253v774h424v-801q0 -339 -160.5 -514.5t-480.5 -175.5z" />
    <glyph glyph-name="umacron" unicode="&#x16b;" horiz-adv-x="1259" 
d="M283 1446h694v-221h-694v221zM750 375v647h403v-1022h-367l-14 162q-153 -203 -354 -203q-149 0 -230.5 104.5t-81.5 298.5v660h404v-600q0 -127 84 -127q69 0 156 80z" />
    <glyph glyph-name="Uring" unicode="&#x16e;" horiz-adv-x="1515" 
d="M758 1538q-95 0 -162.5 66t-67.5 163q0 96 67.5 162t162.5 66q96 0 163.5 -66t67.5 -162q0 -97 -67.5 -163t-163.5 -66zM758 1655q49 0 80.5 32.5t31.5 79.5q0 45 -32 78t-80 33q-47 0 -79 -33t-32 -78q0 -46 32 -79t79 -33zM758 -41q-332 0 -486.5 169.5t-154.5 520.5
v801h424v-776q0 -177 51 -251.5t166 -74.5t166 75t51 253v774h424v-801q0 -339 -160.5 -514.5t-480.5 -175.5z" />
    <glyph glyph-name="uring" unicode="&#x16f;" horiz-adv-x="1259" 
d="M629 1145q-95 0 -162.5 65t-67.5 162q0 96 67.5 161.5t162.5 65.5q96 0 163.5 -65.5t67.5 -161.5q0 -97 -67.5 -162t-163.5 -65zM629 1483q-47 0 -79 -32.5t-32 -78.5t32 -78t79 -32q49 0 80.5 32t31.5 78q0 47 -31.5 79t-80.5 32zM750 375v647h403v-1022h-367l-14 162
q-153 -203 -354 -203q-149 0 -230.5 104.5t-81.5 298.5v660h404v-600q0 -127 84 -127q69 0 156 80z" />
    <glyph glyph-name="Uhungarumlaut" unicode="&#x170;" horiz-adv-x="1515" 
d="M586 1565h-277l205 274h328l12 -18zM1067 1565h-274l204 274h328l12 -18zM758 -41q-332 0 -486.5 169.5t-154.5 520.5v801h424v-776q0 -177 51 -251.5t166 -74.5t166 75t51 253v774h424v-801q0 -339 -160.5 -514.5t-480.5 -175.5z" />
    <glyph glyph-name="uhungarumlaut" unicode="&#x171;" horiz-adv-x="1259" 
d="M776 1538l12 -20l-284 -347h-293l219 367h346zM1257 1518l-286 -347h-291l219 367h346zM750 375v647h403v-1022h-367l-14 162q-153 -203 -354 -203q-149 0 -230.5 104.5t-81.5 298.5v660h404v-600q0 -127 84 -127q69 0 156 80z" />
    <glyph glyph-name="Uogonek" unicode="&#x172;" horiz-adv-x="1515" 
d="M975 676v774h424v-801q0 -526 -379 -651q-150 -126 -150 -231q0 -52 56 -52q55 0 116 39h15l22 -182q-107 -57 -248 -57q-105 0 -163 48t-58 132q0 149 154 264h-6q-332 0 -486.5 169.5t-154.5 520.5v801h424v-776q0 -177 51 -251.5t166 -74.5t166 75t51 253z" />
    <glyph glyph-name="uogonek" unicode="&#x173;" horiz-adv-x="1259" 
d="M1153 0h-61q-76 -63 -115 -123.5t-39 -109.5q0 -52 55 -52q56 0 117 39h14l23 -182q-107 -57 -248 -57q-105 0 -163 48t-58 132q0 178 217 305h-109l-14 162q-153 -203 -354 -203q-149 0 -230.5 104.5t-81.5 298.5v660h404v-600q0 -127 84 -127q69 0 156 80v647h403
v-1022z" />
    <glyph glyph-name="Wcircumflex" unicode="&#x174;" horiz-adv-x="2103" 
d="M909 1565h-245l-19 20l250 254h313l250 -254l-16 -20h-248l-141 135zM27 1450h458l136 -643q27 -119 53 -315h8q15 131 55 301l158 655h313l156 -655q34 -134 59 -301h9q14 125 49 315l135 643h459l10 -10l-410 -1446h-432l-131 553q-31 142 -57 287h-6
q-22 -124 -58 -287l-133 -553h-432l-408 1446z" />
    <glyph glyph-name="wcircumflex" unicode="&#x175;" horiz-adv-x="1662" 
d="M1227 1171h-252l-141 191l-142 -191h-254l-16 19l246 348h329l246 -348zM31 1022h413l43 -252q20 -101 66 -391h8q25 142 84 401l55 238h265l53 -236q35 -137 84 -403h8q11 72 68 391l43 252h411l8 -12l-284 -1016h-389l-62 254q-36 161 -69 350h-9q-49 -262 -69 -352
l-64 -252h-389l-282 1016z" />
    <glyph glyph-name="Ycircumflex" unicode="&#x176;" horiz-adv-x="1437" 
d="M575 1565h-245l-19 20l250 254h313l250 -254l-16 -20h-248l-141 135zM8 1450h492l112 -264q57 -140 103 -283h8q59 172 102 283l113 264h492l6 -12l-506 -869v-569h-422v569l-506 869z" />
    <glyph glyph-name="ycircumflex" unicode="&#x177;" horiz-adv-x="1220" 
d="M1012 1171h-252l-142 191l-141 -191h-254l-16 19l246 348h329l246 -348zM27 1022h458l68 -363q48 -208 57 -258h8q8 36 66 261l82 360h438l8 -14l-589 -1459h-412l-4 11l186 450l-375 998z" />
    <glyph glyph-name="Ydieresis" unicode="&#x178;" horiz-adv-x="1437" 
d="M494 1563q-72 0 -121 50t-49 122t49 122t121 50t121 -50t49 -122q0 -73 -48.5 -122.5t-121.5 -49.5zM942 1563q-72 0 -121 50t-49 122t49 122t121 50t121 -50t49 -122q0 -73 -48.5 -122.5t-121.5 -49.5zM8 1450h492l112 -264q57 -140 103 -283h8q59 172 102 283l113 264
h492l6 -12l-506 -869v-569h-422v569l-506 869z" />
    <glyph glyph-name="Zacute" unicode="&#x179;" horiz-adv-x="1363" 
d="M764 1567h-266l174 274h336l12 -18zM35 41l606 1038h-555v371h1239l4 -41l-629 -1030h598v-379h-1259z" />
    <glyph glyph-name="zacute" unicode="&#x17a;" horiz-adv-x="1122" 
d="M915 1518l-301 -347h-260l205 367h346zM1061 0h-1016l-4 23l434 690h-407v309h1003l4 -23l-440 -688h426v-311z" />
    <glyph glyph-name="Zdotaccent" unicode="&#x17b;" horiz-adv-x="1363" 
d="M715 1575q-89 0 -144 48t-55 126q0 81 54.5 129.5t144.5 48.5q89 0 143.5 -48.5t54.5 -127.5t-54.5 -127.5t-143.5 -48.5zM35 41l606 1038h-555v371h1239l4 -41l-629 -1030h598v-379h-1259z" />
    <glyph glyph-name="zdotaccent" unicode="&#x17c;" horiz-adv-x="1122" 
d="M561 1167q-92 0 -151.5 53t-59.5 136q0 84 58.5 136t152.5 52t152.5 -52t58.5 -136q0 -83 -59.5 -136t-151.5 -53zM1061 0h-1016l-4 23l434 690h-407v309h1003l4 -23l-440 -688h426v-311z" />
    <glyph glyph-name="Zcaron" unicode="&#x17d;" horiz-adv-x="1363" 
d="M872 1565h-313l-250 256l19 18h245l144 -133l141 133h248l16 -18zM35 41l606 1038h-555v371h1239l4 -41l-629 -1030h598v-379h-1259z" />
    <glyph glyph-name="zcaron" unicode="&#x17e;" horiz-adv-x="1122" 
d="M422 1538l141 -192l142 192h251l17 -20l-246 -347h-330l-245 347l16 20h254zM1061 0h-1016l-4 23l434 690h-407v309h1003l4 -23l-440 -688h426v-311z" />
    <glyph glyph-name="florin" unicode="&#x192;" horiz-adv-x="972" 
d="M745 1489q123 0 220 -33l-58 -305l-20 -10q-33 20 -74 20q-46 0 -69.5 -30.5t-32.5 -102.5l-19 -131h166l-43 -297h-164l-61 -428q-36 -254 -155.5 -370.5t-330.5 -116.5q-136 0 -229 34l80 310l18 8q51 -21 95 -21q52 0 77.5 32t38.5 122l62 430h-158l41 297h158l18 127
q34 245 138 355t302 110z" />
    <glyph glyph-name="uni0218" unicode="&#x218;" horiz-adv-x="1234" 
d="M588 -41q-276 0 -500 119l59 375h15q86 -62 196 -102t211 -40q81 0 121.5 24.5t40.5 67.5q0 31 -19.5 55t-79 56.5t-181.5 83.5q-201 85 -285 189.5t-84 269.5q0 191 148.5 312.5t408.5 121.5q117 0 236 -29.5t206 -75.5l-59 -372h-14q-82 57 -184.5 90t-192.5 33
q-117 0 -117 -76q0 -27 15.5 -46t73.5 -50.5t183 -85.5q204 -89 290.5 -195.5t86.5 -255.5q0 -205 -158.5 -337t-416.5 -132zM504 -125h301l22 -35l-180 -430h-237z" />
    <glyph glyph-name="uni0219" unicode="&#x219;" horiz-adv-x="974" 
d="M467 -41q-96 0 -205.5 27.5t-193.5 72.5l41 295h14q164 -118 311 -118q44 0 69 17t25 46q0 31 -34.5 58.5t-135.5 68.5q-156 63 -220 135.5t-64 183.5q0 141 112 229.5t299 88.5q94 0 197 -26t188 -70l-45 -293h-14q-155 114 -285 114q-36 0 -55.5 -16t-19.5 -41
q0 -29 32 -53.5t142 -71.5q151 -63 215.5 -139t64.5 -182q0 -148 -119 -237t-319 -89zM348 -125h301l23 -35l-180 -430h-238z" />
    <glyph glyph-name="uni021A" unicode="&#x21a;" horiz-adv-x="1228" 
d="M20 1450h1188v-395h-381v-1055h-424v1055h-383v395zM387 -590l94 465h301l23 -35l-180 -430h-238z" />
    <glyph glyph-name="uni021B" unicode="&#x21b;" horiz-adv-x="882" 
d="M580 -41q-205 0 -305.5 96t-100.5 293v373h-151v301h159v170l297 176h96v-346h246v-301h-246v-289q0 -78 27 -107.5t90 -29.5q52 0 105 24l20 -10l10 -307q-43 -18 -113 -30.5t-134 -12.5zM360 -125h302l22 -35l-180 -430h-238z" />
    <glyph glyph-name="uni0237" unicode="&#x237;" horiz-adv-x="620" 
d="M125 -492l-168 240l2 27q85 54 118.5 121.5t33.5 199.5v926h403v-854q0 -184 -35 -299t-117 -198t-237 -163z" />
    <glyph glyph-name="uni02BC" unicode="&#x2bc;" horiz-adv-x="610" 
d="M176 1505h301l21 -35l-179 -430h-237z" />
    <glyph glyph-name="circumflex" unicode="&#x2c6;" horiz-adv-x="942" 
d="M864 1171h-252l-141 191l-141 -191h-252l-17 19l246 348h328l248 -348z" />
    <glyph glyph-name="caron" unicode="&#x2c7;" horiz-adv-x="942" 
d="M330 1538l141 -192l141 192h252l19 -20l-248 -347h-328l-246 347l17 20h252z" />
    <glyph glyph-name="breve" unicode="&#x2d8;" horiz-adv-x="839" 
d="M420 1161q-158 0 -251 74.5t-106 216.5l21 16h184q15 -102 152 -102q139 0 151 102h185l20 -16q-13 -142 -105.5 -216.5t-250.5 -74.5z" />
    <glyph glyph-name="dotaccent" unicode="&#x2d9;" horiz-adv-x="561" 
d="M281 1167q-92 0 -151.5 53t-59.5 136q0 84 58.5 136t152.5 52t152.5 -52t58.5 -136q0 -83 -58.5 -136t-152.5 -53z" />
    <glyph glyph-name="ring" unicode="&#x2da;" horiz-adv-x="583" 
d="M291 1145q-95 0 -162.5 65t-67.5 162q0 96 67.5 161.5t162.5 65.5t163 -65.5t68 -161.5q0 -97 -68 -162t-163 -65zM291 1262q49 0 79.5 31.5t30.5 78.5t-30.5 79t-79.5 32q-47 0 -79 -32.5t-32 -78.5t32 -78t79 -32z" />
    <glyph glyph-name="ogonek" unicode="&#x2db;" horiz-adv-x="622" 
d="M283 -485q-105 0 -163.5 48t-58.5 132q0 177 218 305h196q-153 -127 -153 -233q0 -52 55 -52q56 0 117 39h14l22 -182q-107 -57 -247 -57z" />
    <glyph glyph-name="tilde" unicode="&#x2dc;" horiz-adv-x="878" 
d="M264 1180l-16 -13h-182q7 130 70.5 210.5t156.5 80.5q54 0 103 -20t86.5 -40t64.5 -20q30 1 46 17.5t25 50.5l17 12h178q-7 -128 -70.5 -208.5t-156.5 -82.5q-55 0 -103 20t-84.5 40t-62.5 20q-30 0 -46.5 -16.5t-25.5 -50.5z" />
    <glyph glyph-name="hungarumlaut" unicode="&#x2dd;" horiz-adv-x="1169" 
d="M354 1171h-293l222 367h346l10 -20zM823 1171h-293l222 367h346l10 -20z" />
    <glyph glyph-name="gravecomb" unicode="&#x300;" 
d="M-680 1538h346l205 -367h-258l-303 347z" />
    <glyph glyph-name="acutecomb" unicode="&#x301;" 
d="M0 1518l-301 -347h-260l205 367h346z" />
    <glyph glyph-name="uni0302" unicode="&#x302;" 
d="M-90 1171h-252l-141 191l-142 -191h-254l-16 19l246 348h330l245 -348z" />
    <glyph glyph-name="tildecomb" unicode="&#x303;" 
d="M-612 1180l-15 -13h-184q9 130 72.5 210.5t156.5 80.5q54 0 103 -20t86.5 -40t64.5 -20q54 3 72 68l16 12h179q-7 -128 -71 -208.5t-157 -82.5q-55 0 -103 20t-85 40t-64 20q-52 0 -71 -67z" />
    <glyph glyph-name="uni0304" unicode="&#x304;" 
d="M-66 1446v-221h-694v221h694z" />
    <glyph glyph-name="uni0306" unicode="&#x306;" 
d="M-418 1161q-158 0 -250.5 74.5t-105.5 216.5l20 16h185q12 -102 151 -102q137 0 152 102h184l21 -16q-13 -142 -106 -216.5t-251 -74.5z" />
    <glyph glyph-name="uni0307" unicode="&#x307;" 
d="M-289 1167q-92 0 -151.5 53t-59.5 136q0 84 58.5 136t152.5 52t152.5 -52t58.5 -136q0 -83 -59.5 -136t-151.5 -53z" />
    <glyph glyph-name="uni0308" unicode="&#x308;" 
d="M-662 1167q-73 0 -122.5 50t-49.5 124q0 72 49.5 122t122.5 50q72 0 121 -50t49 -122q0 -74 -49 -124t-121 -50zM-233 1167q-73 0 -120.5 50t-47.5 124q0 72 48 122t120 50t122 -50t50 -122q0 -74 -49.5 -124t-122.5 -50z" />
    <glyph glyph-name="uni030A" unicode="&#x30a;" 
d="M-291 1145q-95 0 -162 65t-67 162q0 96 67 161.5t162 65.5q96 0 164 -65.5t68 -161.5q0 -97 -68 -162t-164 -65zM-291 1262q49 0 81 32t32 78t-32 78.5t-81 32.5q-47 0 -78.5 -32.5t-31.5 -78.5t31.5 -78t78.5 -32z" />
    <glyph glyph-name="uni030B" unicode="&#x30b;" 
d="M-633 1171h-293l219 367h347l12 -20zM-166 1171h-291l219 367h347l12 -20z" />
    <glyph glyph-name="uni030C" unicode="&#x30c;" 
d="M-625 1538l142 -192l141 192h252l16 -20l-245 -347h-330l-246 347l16 20h254z" />
    <glyph glyph-name="uni0312" unicode="&#x312;" 
d="M-238 1155h-299l-22 37l180 430h238z" />
    <glyph glyph-name="uni0315" unicode="&#x315;" 
d="M-465 1622h301l23 -37l-181 -430h-237z" />
    <glyph glyph-name="dotbelowcomb" unicode="&#x323;" 
d="M-281 -428q-93 0 -152 52.5t-59 135.5q0 85 58.5 137t152.5 52t152.5 -52t58.5 -137q0 -83 -59 -135.5t-152 -52.5z" />
    <glyph glyph-name="uni0324" unicode="&#x324;" 
d="M-750 -395q-72 0 -121 50t-49 124q0 72 49 122t121 50q73 0 122.5 -50t49.5 -122q0 -74 -49.5 -124t-122.5 -50zM-319 -395q-73 0 -121.5 50t-48.5 124q0 73 48.5 122.5t121.5 49.5q72 0 122 -50t50 -122q0 -73 -50 -123.5t-122 -50.5z" />
    <glyph glyph-name="uni0325" unicode="&#x325;" 
d="M-291 -512q-95 0 -162 65t-67 162q0 96 67 162t162 66q96 0 164 -66t68 -162q0 -97 -68 -162t-164 -65zM-291 -395q49 0 81 32t32 78t-32 78.5t-81 32.5q-47 0 -78.5 -32.5t-31.5 -78.5t31.5 -78t78.5 -32z" />
    <glyph glyph-name="uni0326" unicode="&#x326;" 
d="M-422 -125h301l23 -35l-181 -430h-237z" />
    <glyph glyph-name="uni0327" unicode="&#x327;" 
d="M-379 -492q-125 0 -223 43l27 166l18 4q70 -45 154 -45q36 0 54.5 15t18.5 39q0 21 -14 34t-41 13q-28 0 -74 -17l-51 45l76 195h188l-51 -115q24 4 47 4q74 0 123 -45t49 -118q0 -100 -83 -159t-218 -59z" />
    <glyph glyph-name="uni0328" unicode="&#x328;" 
d="M-352 -485q-105 0 -163 48t-58 132q0 178 217 305h196q-153 -127 -153 -233q0 -52 55 -52q56 0 117 39h14l23 -182q-107 -57 -248 -57z" />
    <glyph glyph-name="uni0330" unicode="&#x330;" 
d="M-627 -379h-184q9 129 73 210t156 81q54 0 103 -20t86.5 -40t64.5 -20q53 0 72 68l16 12h179q-7 -130 -71 -210.5t-157 -80.5q-55 -1 -103 18.5t-85 39.5t-64 20q-53 0 -71 -66z" />
    <glyph glyph-name="uni0331" unicode="&#x331;" 
d="M-66 -340h-694v219h694v-219z" />
    <glyph glyph-name="uni0335" unicode="&#x335;" 
d="M-696 1174v188h778v-188h-778z" />
    <glyph glyph-name="uni0336" unicode="&#x336;" 
d="M-61 315h-1672v263h1672v-263z" />
    <glyph glyph-name="uni0337" unicode="&#x337;" 
d="M-61 958l-639 -387v224l639 385v-222z" />
    <glyph glyph-name="uni0338" unicode="&#x338;" 
d="M-63 1098l-918 -1174h-149l917 1174h150z" />
    <glyph glyph-name="uni037E" unicode="&#x37e;" horiz-adv-x="622" 
d="M334 602q-99 0 -162 63t-63 154q0 93 63.5 154t161.5 61q97 0 160 -61.5t63 -153.5q0 -91 -62.5 -154t-160.5 -63zM526 391l21 -35l-268 -729h-291l182 764h356z" />
    <glyph glyph-name="tonos" unicode="&#x384;" horiz-adv-x="1228" 
d="M541 1159h-273l119 371h358l13 -19z" />
    <glyph glyph-name="dieresistonos" unicode="&#x385;" horiz-adv-x="1228" 
d="M489 1161h-155l121 371h241l13 -21zM172 1182q-63 0 -106 43.5t-43 107.5q0 63 43 106.5t106 43.5q64 0 108 -43.5t44 -106.5q0 -66 -43.5 -108.5t-108.5 -42.5zM840 1182q-65 0 -108.5 43.5t-43.5 107.5q0 63 44 106.5t108 43.5q63 0 106 -43.5t43 -106.5
q0 -64 -43 -107.5t-106 -43.5z" />
    <glyph glyph-name="Alphatonos" unicode="&#x386;" horiz-adv-x="1503" 
d="M354 1450l13 -18l-217 -353h-273l119 371h358zM496 1450h520l493 -1440l-10 -10h-471l-63 225h-433l-63 -225h-467l-8 10zM655 670l-43 -158h271l-45 158q-63 225 -88 426h-7q-28 -190 -88 -426z" />
    <glyph glyph-name="anoteleia" unicode="&#x387;" horiz-adv-x="614" 
d="M307 621q-98 0 -160.5 63.5t-62.5 153.5q0 94 62.5 155.5t160.5 61.5t160.5 -61.5t62.5 -155.5q0 -90 -62.5 -153.5t-160.5 -63.5z" />
    <glyph glyph-name="Epsilontonos" unicode="&#x388;" horiz-adv-x="1193" 
d="M-465 1079l119 371h358l13 -18l-218 -353h-272zM1034 590h-479v-230h547l-39 -360h-932v1450h932l39 -360h-547v-213h479v-287z" />
    <glyph glyph-name="Etatonos" unicode="&#x389;" horiz-adv-x="1568" 
d="M-465 1079l119 371h358l13 -18l-218 -353h-272zM1014 913v537h426v-1450h-426v547h-459v-547h-424v1450h424v-537h459z" />
    <glyph glyph-name="Iotatonos" unicode="&#x38a;" horiz-adv-x="686" 
d="M-193 1079h-272l119 371h358l13 -18zM131 0v1450h424v-1450h-424z" />
    <glyph glyph-name="Omicrontonos" unicode="&#x38c;" horiz-adv-x="1734" 
d="M868 -41q-169 0 -315.5 58.5t-250 160t-163 243.5t-59.5 304q0 222 101 397t280.5 272t406.5 97q169 0 315.5 -56.5t250 -157t162.5 -243t59 -309.5q0 -162 -59.5 -304t-163 -243.5t-250 -160t-314.5 -58.5zM-14 1079h-273l119 371h358l13 -18zM868 346q149 0 245.5 107
t96.5 272q0 168 -96 273.5t-246 105.5q-151 0 -247.5 -105.5t-96.5 -273.5q0 -165 97 -272t247 -107z" />
    <glyph glyph-name="Upsilontonos" unicode="&#x38e;" horiz-adv-x="1437" 
d="M-295 1079h-272l118 371h359l12 -18zM8 1450h492l112 -264q57 -140 103 -283h8q59 172 102 283l113 264h492l6 -12l-506 -869v-569h-422v569l-506 869z" />
    <glyph glyph-name="Omegatonos" unicode="&#x38f;" horiz-adv-x="1697" 
d="M1618 819q0 -267 -199 -440h180v-379h-667v365q95 0 175.5 105.5t80.5 258.5q0 168 -94.5 271.5t-243.5 103.5q-150 0 -245 -103.5t-95 -271.5q0 -153 80.5 -258.5t175.5 -105.5v-365h-668v379h181q-199 173 -199 440q0 106 33.5 205.5t99.5 184t157.5 147.5t215 99
t264.5 36q140 0 263 -36t214.5 -99t157.5 -147.5t99.5 -184t33.5 -205.5zM-178 1450h358l13 -18l-218 -353h-272z" />
    <glyph glyph-name="iotadieresistonos" unicode="&#x390;" horiz-adv-x="698" 
d="M299 1161h-156l121 371h242l12 -21zM-18 1182q-63 0 -106.5 43.5t-43.5 107.5q0 63 43.5 106.5t106.5 43.5q64 0 107.5 -43.5t43.5 -106.5q0 -66 -43 -108.5t-108 -42.5zM649 1182q-65 0 -108 43t-43 108q0 63 43.5 106.5t107.5 43.5q63 0 106.5 -43.5t43.5 -106.5
q0 -64 -43.5 -107.5t-106.5 -43.5zM682 293l18 -8l-20 -301q-106 -25 -199 -25q-191 0 -285 89t-94 288l-2 686h404v-637q0 -55 24 -78.5t80 -23.5q45 0 74 10z" />
    <glyph glyph-name="Alpha" unicode="&#x391;" horiz-adv-x="1554" 
d="M496 1450h520l493 -1440l-10 -10h-471l-63 225h-433l-63 -225h-467l-8 10zM655 670l-43 -158h271l-45 158q-63 225 -88 426h-7q-28 -190 -88 -426z" />
    <glyph glyph-name="Beta" unicode="&#x392;" horiz-adv-x="1320" 
d="M676 0h-545v1450h539q266 0 398 -99t132 -282q0 -110 -65 -194t-172 -113v-8q297 -71 297 -344q0 -410 -584 -410zM555 1130v-256h94q162 0 162 130q0 126 -166 126h-90zM555 616v-286h100q201 0 201 145q0 141 -197 141h-104z" />
    <glyph glyph-name="Gamma" unicode="&#x393;" horiz-adv-x="1019" 
d="M131 0v1450h868v-379h-444v-1071h-424z" />
    <glyph glyph-name="uni0394" unicode="&#x394;" horiz-adv-x="1503" 
d="M496 1450h520l493 -1440l-10 -10h-1497l-8 10zM655 670l-104 -373h393l-106 373q-63 225 -88 426h-7q-28 -190 -88 -426z" />
    <glyph glyph-name="Epsilon" unicode="&#x395;" horiz-adv-x="1193" 
d="M1034 590h-479v-230h547l-39 -360h-932v1450h932l39 -360h-547v-213h479v-287z" />
    <glyph glyph-name="Zeta" unicode="&#x396;" horiz-adv-x="1363" 
d="M35 41l606 1038h-555v371h1239l4 -41l-629 -1030h598v-379h-1259z" />
    <glyph glyph-name="Eta" unicode="&#x397;" horiz-adv-x="1568" 
d="M1014 913v537h426v-1450h-426v547h-459v-547h-424v1450h424v-537h459z" />
    <glyph glyph-name="Theta" unicode="&#x398;" horiz-adv-x="1734" 
d="M868 -41q-169 0 -315.5 58.5t-250 160t-163 243.5t-59.5 304q0 222 101 397t280.5 272t406.5 97q169 0 315.5 -56.5t250 -157t162.5 -243t59 -309.5q0 -162 -59.5 -304t-163 -243.5t-250 -160t-314.5 -58.5zM868 342q153 0 251 108.5t98 274.5q0 171 -97.5 277
t-251.5 106q-156 0 -253 -106t-97 -277q0 -167 98 -275t252 -108zM1073 627h-411v186h411v-186z" />
    <glyph glyph-name="Iota" unicode="&#x399;" horiz-adv-x="686" 
d="M131 0v1450h424v-1450h-424z" />
    <glyph glyph-name="Kappa" unicode="&#x39a;" horiz-adv-x="1507" 
d="M557 0h-426v1450h426v-1450zM1505 0h-473l-461 764l486 686h444l4 -12l-471 -654l479 -772z" />
    <glyph glyph-name="Lambda" unicode="&#x39b;" horiz-adv-x="1472" 
d="M481 1450h520l480 -1440l-11 -10h-471l-180 672q-51 194 -84 426h-6q-38 -241 -86 -426l-176 -672h-465l-8 10z" />
    <glyph glyph-name="Mu" unicode="&#x39c;" horiz-adv-x="1918" 
d="M547 0h-416v1450h506l321 -659h7l317 659h506v-1450h-416v500q0 192 10 424h-8q-9 -20 -172 -342l-225 -443h-37l-223 443q-163 322 -172 342h-8q10 -232 10 -424v-500z" />
    <glyph glyph-name="Nu" unicode="&#x39d;" horiz-adv-x="1626" 
d="M553 0h-422v1450h430l332 -467q106 -156 209 -342h8q-37 227 -37 426v383h424v-1456h-391l-365 495q-103 141 -219 345h-6q37 -230 37 -445v-389z" />
    <glyph glyph-name="Xi" unicode="&#x39e;" horiz-adv-x="1329" 
d="M1237 1098h-1145l39 352h1067zM1135 571h-938v316h938v-316zM1198 0h-1067l-39 352h1145z" />
    <glyph glyph-name="Omicron" unicode="&#x39f;" horiz-adv-x="1734" 
d="M868 -41q-169 0 -315.5 58.5t-250 160t-163 243.5t-59.5 304q0 222 101 397t280.5 272t406.5 97q169 0 315.5 -56.5t250 -157t162.5 -243t59 -309.5q0 -162 -59.5 -304t-163 -243.5t-250 -160t-314.5 -58.5zM868 346q149 0 245.5 107t96.5 272q0 168 -96 273.5
t-246 105.5q-151 0 -247.5 -105.5t-96.5 -273.5q0 -165 97 -272t247 -107z" />
    <glyph glyph-name="Pi" unicode="&#x3a0;" horiz-adv-x="1562" 
d="M555 0h-424v1450h1303v-1450h-426v1083h-453v-1083z" />
    <glyph glyph-name="Rho" unicode="&#x3a1;" horiz-adv-x="1331" 
d="M692 1450q290 0 436 -127.5t146 -376.5q0 -232 -137 -360.5t-398 -128.5h-184v-457h-424v1450h561zM555 782h127q190 0 190 166q0 88 -47.5 129t-144.5 41h-125v-336z" />
    <glyph glyph-name="Sigma" unicode="&#x3a3;" horiz-adv-x="1345" 
d="M35 1450h1276v-373h-580l258 -352v-39l-246 -313h568v-373h-1276l-4 41l479 678l-479 690z" />
    <glyph glyph-name="Tau" unicode="&#x3a4;" horiz-adv-x="1228" 
d="M20 1450h1188v-395h-381v-1055h-424v1055h-383v395z" />
    <glyph glyph-name="Upsilon" unicode="&#x3a5;" horiz-adv-x="1437" 
d="M8 1450h492l112 -264q57 -140 103 -283h8q59 172 102 283l113 264h492l6 -12l-506 -869v-569h-422v569l-506 869z" />
    <glyph glyph-name="Phi" unicode="&#x3a6;" horiz-adv-x="1871" 
d="M1790 756q0 -127 -45 -236.5t-127 -190t-203.5 -129t-267.5 -53.5v-147h-422v147q-294 9 -469.5 179.5t-175.5 429.5t173.5 424t471.5 174v137h422v-137q297 -9 470 -174t173 -424zM1110 1038v-575q127 13 194.5 88.5t67.5 202.5q0 125 -66.5 198t-195.5 86zM500 754
q0 -125 67 -200.5t193 -90.5v575q-127 -13 -193.5 -86t-66.5 -198z" />
    <glyph glyph-name="Chi" unicode="&#x3a7;" horiz-adv-x="1519" 
d="M492 0h-492l-6 12l493 736l-467 690l9 12h499l97 -168q63 -109 143 -289h6q62 152 135 289l95 168h487l6 -12l-459 -686l488 -740l-6 -12h-508l-92 166q-117 220 -158 317h-8q-15 -37 -30.5 -71t-34.5 -70t-30 -56.5t-34.5 -62.5t-30.5 -55z" />
    <glyph glyph-name="Psi" unicode="&#x3a8;" horiz-adv-x="1896" 
d="M1360 979v471h426v-471q0 -275 -163.5 -440.5t-463.5 -204.5v-334h-424v332q-306 37 -465 199.5t-159 445.5v473h424v-471q0 -130 41.5 -189.5t158.5 -76.5v737h424v-737q117 17 159 76.5t42 189.5z" />
    <glyph glyph-name="uni03A9" unicode="&#x3a9;" horiz-adv-x="1697" 
d="M1618 819q0 -267 -199 -440h180v-379h-667v365q95 0 175.5 105.5t80.5 258.5q0 168 -94.5 271.5t-243.5 103.5q-150 0 -245 -103.5t-95 -271.5q0 -153 80.5 -258.5t175.5 -105.5v-365h-668v379h181q-199 173 -199 440q0 106 33.5 205.5t99.5 184t157.5 147.5t215 99
t264.5 36q140 0 263 -36t214.5 -99t157.5 -147.5t99.5 -184t33.5 -205.5z" />
    <glyph glyph-name="Iotadieresis" unicode="&#x3aa;" horiz-adv-x="686" 
d="M119 1563q-72 0 -121 50t-49 122t49 122t121 50t121 -50t49 -122q0 -73 -48.5 -122.5t-121.5 -49.5zM567 1563q-72 0 -121 50t-49 122t49 122t121 50t121 -50t49 -122q0 -73 -48.5 -122.5t-121.5 -49.5zM131 0v1450h424v-1450h-424z" />
    <glyph glyph-name="Upsilondieresis" unicode="&#x3ab;" horiz-adv-x="1437" 
d="M494 1563q-72 0 -121 50t-49 122t49 122t121 50t121 -50t49 -122q0 -73 -48.5 -122.5t-121.5 -49.5zM942 1563q-72 0 -121 50t-49 122t49 122t121 50t121 -50t49 -122q0 -73 -48.5 -122.5t-121.5 -49.5zM8 1450h492l112 -264q57 -140 103 -283h8q59 172 102 283l113 264
h492l6 -12l-506 -869v-569h-422v569l-506 869z" />
    <glyph glyph-name="alphatonos" unicode="&#x3ac;" horiz-adv-x="1333" 
d="M952 1530l13 -19l-217 -352h-273l119 371h358zM1321 291l14 -6l-18 -301q-95 -25 -193 -25q-234 0 -309 158q-169 -158 -350 -158q-177 0 -286 144t-109 397q0 255 121.5 409t308.5 154q171 0 311 -125l18 84h340v-637q0 -54 22 -78t69 -24q34 0 61 8zM459 500
q0 -97 45.5 -156t120.5 -59q70 0 141 57v360q-68 29 -129 29q-79 0 -128.5 -61t-49.5 -170z" />
    <glyph glyph-name="epsilontonos" unicode="&#x3ad;" horiz-adv-x="1011" 
d="M606 1159h-272l119 371h358l12 -19zM522 -41q-209 0 -335 86t-126 225q0 101 50.5 163.5t156.5 94.5v9q-85 25 -134.5 91t-49.5 152q0 137 107 210t305 73q225 0 436 -94l-47 -279h-17q-169 90 -317 90q-52 0 -80.5 -24t-28.5 -68q0 -88 117 -88h229v-180l-247 2
q-120 0 -117 -80q0 -96 147 -96q145 0 297 82h15l57 -269q-184 -100 -418 -100z" />
    <glyph glyph-name="etatonos" unicode="&#x3ae;" horiz-adv-x="1273" 
d="M936 1530l12 -19l-217 -352h-272l119 371h358zM844 1063q152 0 236.5 -104t84.5 -297v-1113h-403v1047q0 71 -21.5 102t-68.5 31q-67 0 -162 -74v-655h-404v1022h367l14 -143q159 184 357 184z" />
    <glyph glyph-name="iotatonos" unicode="&#x3af;" horiz-adv-x="698" 
d="M424 1159h-272l118 371h359l12 -19zM682 293l18 -8l-20 -301q-106 -25 -199 -25q-191 0 -285 89t-94 288l-2 686h404v-637q0 -55 24 -78.5t80 -23.5q45 0 74 10z" />
    <glyph glyph-name="upsilondieresistonos" unicode="&#x3b0;" horiz-adv-x="1255" 
d="M594 1161h-156l121 371h242l12 -21zM276 1182q-63 0 -106 43.5t-43 107.5q0 63 43 106.5t106 43.5q64 0 108 -43.5t44 -106.5q0 -66 -43.5 -108.5t-108.5 -42.5zM944 1182q-64 0 -107.5 43t-43.5 108q0 63 43.5 106.5t107.5 43.5q63 0 106.5 -43.5t43.5 -106.5
q0 -64 -43.5 -107.5t-106.5 -43.5zM106 469v553h404v-549q0 -97 28 -137.5t91 -40.5q69 0 108 52.5t39 148.5q0 113 -22 255.5t-54 254.5l5 16h389q38 -125 61 -272.5t23 -270.5q0 -255 -141.5 -387.5t-420.5 -132.5t-394.5 114t-115.5 396z" />
    <glyph glyph-name="alpha" unicode="&#x3b1;" horiz-adv-x="1333" 
d="M1321 291l14 -6l-18 -301q-95 -25 -193 -25q-234 0 -309 158q-169 -158 -350 -158q-177 0 -286 144t-109 397q0 255 121.5 409t308.5 154q171 0 311 -125l18 84h340v-637q0 -54 22 -78t69 -24q34 0 61 8zM459 500q0 -97 45.5 -156t120.5 -59q70 0 141 57v360
q-68 29 -129 29q-79 0 -128.5 -61t-49.5 -170z" />
    <glyph glyph-name="beta" unicode="&#x3b2;" horiz-adv-x="1263" 
d="M508 37l-8 -2q10 -146 10 -314v-172h-404v1471q0 255 132.5 390.5t398.5 135.5q225 0 351 -103.5t126 -264.5q0 -141 -63.5 -233.5t-165.5 -119.5v-8q151 -30 231 -132t80 -243q0 -139 -62.5 -250t-168.5 -172t-234 -61q-136 0 -223 78zM653 283q68 0 110 50.5t42 135.5
q0 77 -43.5 120.5t-118.5 43.5h-57v295h53q102 0 102 141q0 148 -110 148q-61 0 -91 -44.5t-30 -142.5v-559q0 -101 37 -144.5t106 -43.5z" />
    <glyph glyph-name="gamma" unicode="&#x3b3;" horiz-adv-x="1153" 
d="M778 -451h-403v416l-367 1045l8 12h418l62 -272q20 -91 77 -379h9q50 258 75 377l62 274h418l10 -12l-369 -1043v-418z" />
    <glyph glyph-name="delta" unicode="&#x3b4;" horiz-adv-x="1261" 
d="M625 -41q-129 0 -235 40t-175.5 110t-107 163.5t-37.5 200.5q0 170 83 284t248 161v4q-98 67 -149 150t-51 171q0 303 452 303q204 0 408 -71l-41 -291h-14q-175 88 -299 88q-101 0 -101 -68q0 -39 43 -73.5t164 -92.5q193 -94 286 -228t93 -331q0 -102 -39 -196
t-110 -166t-179.5 -115t-238.5 -43zM629 293q78 0 123 57t45 154q0 87 -38 145t-128 103q-168 -53 -168 -250q0 -96 45 -152.5t121 -56.5z" />
    <glyph glyph-name="epsilon" unicode="&#x3b5;" horiz-adv-x="1011" 
d="M522 -41q-209 0 -335 86t-126 225q0 101 50.5 163.5t156.5 94.5v9q-85 25 -134.5 91t-49.5 152q0 137 107 210t305 73q225 0 436 -94l-47 -279h-17q-169 90 -317 90q-52 0 -80.5 -24t-28.5 -68q0 -88 117 -88h229v-180l-247 2q-120 0 -117 -80q0 -96 147 -96
q145 0 297 82h15l57 -269q-184 -100 -418 -100z" />
    <glyph glyph-name="zeta" unicode="&#x3b6;" horiz-adv-x="1087" 
d="M973 -297h-301l-13 16q29 63 29 119q0 68 -35.5 103.5t-124.5 48.5q-246 38 -353 143.5t-107 306.5q0 232 136.5 427t389.5 347v9h-475v282h909v-264q-567 -335 -567 -715q0 -103 61.5 -158t231.5 -92q280 -64 280 -307q0 -141 -61 -266z" />
    <glyph glyph-name="eta" unicode="&#x3b7;" horiz-adv-x="1273" 
d="M844 1063q152 0 236.5 -104t84.5 -297v-1113h-403v1047q0 71 -21.5 102t-68.5 31q-67 0 -162 -74v-655h-404v1022h367l14 -143q159 184 357 184z" />
    <glyph glyph-name="theta" unicode="&#x3b8;" horiz-adv-x="1275" 
d="M637 1546q127 0 228.5 -47t177 -142t116.5 -249t41 -358q0 -203 -41 -356t-117 -247.5t-177.5 -141t-227.5 -46.5q-125 0 -226 46.5t-176 141t-116 247.5t-41 356q0 204 41 358t116 249t176 142t226 47zM637 1212q-52 0 -86 -32t-56 -120.5t-26 -240.5h338
q-4 152 -26 240.5t-56.5 120.5t-87.5 32zM637 295q48 0 81 27.5t56.5 104t30.5 204.5h-334q7 -128 30.5 -204.5t56 -104t79.5 -27.5z" />
    <glyph glyph-name="iota" unicode="&#x3b9;" horiz-adv-x="698" 
d="M682 293l18 -8l-20 -301q-106 -25 -199 -25q-191 0 -285 89t-94 288l-2 686h404v-637q0 -55 24 -78.5t80 -23.5q45 0 74 10z" />
    <glyph glyph-name="kappa" unicode="&#x3ba;" horiz-adv-x="1290" 
d="M1282 12l-6 -12h-436l-328 508l156 272q84 151 178 210t223 59q91 0 164 -21l-29 -319l-16 -7q-35 13 -58 13q-36 0 -60.5 -20t-68.5 -83l-57 -75zM510 0h-404v1022h404l-16 -514z" />
    <glyph glyph-name="lambda" unicode="&#x3bb;" horiz-adv-x="1206" 
d="M20 0l-8 10l396 977l-52 133q-22 61 -52 82t-79 21q-39 0 -67 -11l-15 7l19 301q86 26 194 26q87 0 143.5 -15t105.5 -57t85.5 -113.5t75.5 -189.5l262 -786q19 -61 47 -82.5t76 -21.5q30 0 59 10l19 -6l-21 -301q-91 -25 -192 -25q-65 0 -108.5 9t-80.5 31t-64 66.5
t-51 107t-50 161.5q-41 140 -68 305h-8q-59 -284 -94 -428l-56 -211h-416z" />
    <glyph glyph-name="uni03BC" unicode="&#x3bc;" horiz-adv-x="1316" 
d="M1303 291l18 -6l-21 -301q-91 -25 -192 -25q-266 0 -330 209q-47 -78 -104.5 -128t-110.5 -50q-32 0 -55 18l-8 -2q10 -93 10 -199v-258h-404v1473h404v-598q0 -129 84 -129q65 0 156 78v649h403v-637q0 -55 21.5 -78.5t68.5 -23.5q29 0 60 8z" />
    <glyph glyph-name="nu" unicode="&#x3bd;" horiz-adv-x="1150" 
d="M16 1022h418l60 -264l77 -369h9q16 72 41 194.5t36 172.5l60 266h418l8 -12l-352 -1016h-431l-352 1016z" />
    <glyph glyph-name="xi" unicode="&#x3be;" horiz-adv-x="1075" 
d="M975 -297h-301l-12 14q22 61 22 121q0 68 -34 102t-122 44q-228 30 -350.5 131.5t-122.5 265.5q0 308 312 367v8q-101 21 -157 85t-56 165q0 79 39.5 132.5t113.5 75.5v9h-209v282h920v-282h-236q-276 0 -276 -179q0 -145 201 -145h249v-281h-243q-264 0 -264 -169
q0 -75 63 -109t240 -66q278 -50 278 -305q0 -139 -55 -266z" />
    <glyph glyph-name="omicron" unicode="&#x3bf;" horiz-adv-x="1265" 
d="M633 -41q-248 0 -405.5 156.5t-157.5 394.5q0 156 70.5 281.5t199.5 198.5t293 73q165 0 294.5 -73t200 -198.5t70.5 -281.5t-71 -281.5t-200.5 -197.5t-293.5 -72zM633 293q81 0 126.5 59.5t45.5 157.5q0 97 -46 157t-126 60q-78 0 -124 -60t-46 -157q0 -98 45.5 -157.5
t124.5 -59.5z" />
    <glyph glyph-name="pi" unicode="&#x3c0;" horiz-adv-x="1284" 
d="M737 227v492h-205v-719h-403v719h-90v303h1196v-303h-94v-402q0 -32 7 -42.5t28 -10.5q18 0 45 12l18 -10l-18 -274q-90 -33 -191 -33q-153 0 -223 67.5t-70 200.5z" />
    <glyph glyph-name="rho" unicode="&#x3c1;" horiz-adv-x="1277" 
d="M657 1063q282 0 417.5 -141t135.5 -398q0 -253 -117.5 -409t-308.5 -156q-151 0 -274 94v-504h-404v889q0 333 132.5 479t418.5 146zM641 289q82 0 130 63t48 172q0 97 -43.5 155t-116.5 58q-149 0 -149 -213v-205q64 -30 131 -30z" />
    <glyph glyph-name="uni03C2" unicode="&#x3c2;" horiz-adv-x="1058" 
d="M905 -297h-301l-10 12q22 64 22 123q0 80 -26.5 110.5t-114.5 49.5q-190 37 -297.5 174.5t-107.5 341.5q0 240 154 394.5t399 154.5q169 0 350 -98l-58 -312h-14q-68 49 -119 68.5t-106 19.5q-93 0 -149 -60.5t-56 -164.5q0 -96 51.5 -152t161.5 -81q279 -68 279 -314
q0 -140 -58 -266z" />
    <glyph glyph-name="sigma" unicode="&#x3c3;" horiz-adv-x="1302" 
d="M631 -41q-244 0 -402.5 153t-158.5 377q0 108 41.5 206t113.5 170t177 114.5t225 42.5h667v-303l-194 8q88 -113 88 -268q0 -97 -41 -187.5t-112.5 -160t-177 -111t-226.5 -41.5zM631 293q80 0 125 58.5t45 154.5q0 97 -45 156t-125 59q-78 0 -123 -59t-45 -156
q0 -95 45 -154t123 -59z" />
    <glyph glyph-name="tau" unicode="&#x3c4;" horiz-adv-x="1042" 
d="M1018 1022v-303h-313v-334q0 -55 22 -78.5t70 -23.5q36 0 67 10l15 -8l-19 -301q-110 -25 -196 -25q-179 0 -271 89.5t-92 287.5v383h-276v303h993z" />
    <glyph glyph-name="upsilon" unicode="&#x3c5;" horiz-adv-x="1255" 
d="M106 469v553h404v-549q0 -97 28 -137.5t91 -40.5q69 0 108 52.5t39 148.5q0 113 -22 255.5t-54 254.5l5 16h389q38 -125 61 -272.5t23 -270.5q0 -255 -141.5 -387.5t-420.5 -132.5t-394.5 114t-115.5 396z" />
    <glyph glyph-name="phi" unicode="&#x3c6;" horiz-adv-x="1568" 
d="M977 1372v-340q234 10 378 -135.5t144 -384.5q0 -240 -144 -386t-378 -136v-441h-387v441q-233 -9 -376.5 137t-143.5 385q0 238 143.5 383.5t376.5 136.5v340h387zM459 514q0 -111 45.5 -175t128.5 -73v488q-84 -8 -129 -68.5t-45 -171.5zM936 754v-488q83 9 128.5 73
t45.5 175t-45 171.5t-129 68.5z" />
    <glyph glyph-name="chi" unicode="&#x3c7;" horiz-adv-x="1198" 
d="M1001 -471q-74 0 -123 13t-89.5 50.5t-70 100t-59.5 164.5l-28 88q-23 89 -29 129h-8q-3 -12 -35 -131l-115 -394h-448l-8 13l372 743l-147 311q-29 60 -55.5 80.5t-71.5 20.5q-34 0 -61 -8l-19 6l21 301q102 26 196 26q67 0 112.5 -13t85.5 -49t69.5 -99t56.5 -164
l16 -47q23 -94 35 -150h6q5 28 39 150l109 352h432l8 -12l-352 -705l168 -350q28 -58 55 -80t65 -22q33 0 58 10l18 -8l-18 -301q-110 -25 -185 -25z" />
    <glyph glyph-name="psi" unicode="&#x3c8;" horiz-adv-x="1734" 
d="M1657 496q0 -114 -29.5 -200.5t-96.5 -155t-181 -110.5t-277 -59v-422h-403v418q-158 14 -267 53t-174.5 106.5t-94 158t-28.5 215.5v522h404v-502q0 -81 41 -125.5t147 -62.5v1040h346v-1040q66 9 108 26t64.5 46.5t30.5 64.5t8 88q0 82 -18 211.5t-45 237.5l6 16h387
q32 -126 52 -271t20 -255z" />
    <glyph glyph-name="omega" unicode="&#x3c9;" horiz-adv-x="1734" 
d="M522 -41q-112 0 -198 39t-139 110t-80 164.5t-27 206.5q0 134 33 282.5t77 260.5h387l7 -16q-45 -115 -72 -259t-27 -251q0 -177 121 -177q53 0 78 32t25 102v338h321v-338q0 -70 25.5 -102t79.5 -32q120 0 120 177q0 107 -27.5 250.5t-72.5 259.5l6 16h387
q45 -114 79 -261.5t34 -281.5q0 -152 -47 -267t-149.5 -184t-250.5 -69q-131 0 -217 59.5t-125 198.5h-6q-41 -140 -125.5 -199t-216.5 -59z" />
    <glyph glyph-name="iotadieresis" unicode="&#x3ca;" horiz-adv-x="698" 
d="M117 1167q-73 0 -122.5 50t-49.5 124q0 72 49.5 122t122.5 50q72 0 121 -50t49 -122q0 -74 -49 -124t-121 -50zM545 1167q-73 0 -120.5 50t-47.5 124q0 72 48 122t120 50t122 -50t50 -122q0 -74 -49.5 -124t-122.5 -50zM682 293l18 -8l-20 -301q-106 -25 -199 -25
q-191 0 -285 89t-94 288l-2 686h404v-637q0 -55 24 -78.5t80 -23.5q45 0 74 10z" />
    <glyph glyph-name="upsilondieresis" unicode="&#x3cb;" horiz-adv-x="1255" 
d="M412 1167q-73 0 -122.5 50t-49.5 124q0 72 49.5 122t122.5 50q72 0 121 -50t49 -122q0 -74 -49 -124t-121 -50zM840 1167q-73 0 -120.5 50t-47.5 124q0 72 48 122t120 50t122 -50t50 -122q0 -74 -49.5 -124t-122.5 -50zM106 469v553h404v-549q0 -97 28 -137.5t91 -40.5
q69 0 108 52.5t39 148.5q0 113 -22 255.5t-54 254.5l5 16h389q38 -125 61 -272.5t23 -270.5q0 -255 -141.5 -387.5t-420.5 -132.5t-394.5 114t-115.5 396z" />
    <glyph glyph-name="omicrontonos" unicode="&#x3cc;" horiz-adv-x="1265" 
d="M729 1159h-272l118 371h359l12 -19zM633 -41q-248 0 -405.5 156.5t-157.5 394.5q0 156 70.5 281.5t199.5 198.5t293 73q165 0 294.5 -73t200 -198.5t70.5 -281.5t-71 -281.5t-200.5 -197.5t-293.5 -72zM633 293q81 0 126.5 59.5t45.5 157.5q0 97 -46 157t-126 60
q-78 0 -124 -60t-46 -157q0 -98 45.5 -157.5t124.5 -59.5z" />
    <glyph glyph-name="upsilontonos" unicode="&#x3cd;" horiz-adv-x="1255" 
d="M719 1159h-273l119 371h359l12 -19zM106 469v553h404v-549q0 -97 28 -137.5t91 -40.5q69 0 108 52.5t39 148.5q0 113 -22 255.5t-54 254.5l5 16h389q38 -125 61 -272.5t23 -270.5q0 -255 -141.5 -387.5t-420.5 -132.5t-394.5 114t-115.5 396z" />
    <glyph glyph-name="omegatonos" unicode="&#x3ce;" horiz-adv-x="1734" 
d="M963 1159h-273l119 371h358l13 -19zM522 -41q-112 0 -198 39t-139 110t-80 164.5t-27 206.5q0 134 33 282.5t77 260.5h387l7 -16q-45 -115 -72 -259t-27 -251q0 -177 121 -177q53 0 78 32t25 102v338h321v-338q0 -70 25.5 -102t79.5 -32q120 0 120 177q0 107 -27.5 250.5
t-72.5 259.5l6 16h387q45 -114 79 -261.5t34 -281.5q0 -152 -47 -267t-149.5 -184t-250.5 -69q-131 0 -217 59.5t-125 198.5h-6q-41 -140 -125.5 -199t-216.5 -59z" />
    <glyph glyph-name="uni0400" unicode="&#x400;" horiz-adv-x="1193" 
d="M643 1841l172 -274h-266l-256 256l12 18h338zM1034 590h-479v-230h547l-39 -360h-932v1450h932l39 -360h-547v-213h479v-287z" />
    <glyph glyph-name="uni0401" unicode="&#x401;" horiz-adv-x="1193" 
d="M373 1563q-72 0 -121 50t-49 122t49 122t121 50t121 -50t49 -122q0 -73 -48.5 -122.5t-121.5 -49.5zM821 1563q-72 0 -121 50t-49 122t49 122t121 50t121 -50t49 -122q0 -73 -48.5 -122.5t-121.5 -49.5zM1034 590h-479v-230h547l-39 -360h-932v1450h932l39 -360h-547
v-213h479v-287z" />
    <glyph glyph-name="uni0402" unicode="&#x402;" horiz-adv-x="1622" 
d="M1133 918q195 0 289 -110.5t94 -340.5v-31q0 -243 -100 -353t-320 -110q-103 0 -205 27l4 295h18q24 -6 31 -6q71 0 108.5 39t37.5 112v23q0 68 -36.5 103.5t-105.5 35.5q-78 0 -149 -45v-557h-426v1071h-353v379h1160v-379h-381v-246q159 93 334 93z" />
    <glyph glyph-name="uni0403" unicode="&#x403;" horiz-adv-x="1019" 
d="M670 1567h-267l175 274h335l13 -18zM131 0v1450h868v-379h-444v-1071h-424z" />
    <glyph glyph-name="uni0404" unicode="&#x404;" horiz-adv-x="1429" 
d="M1239 455h16l68 -375q-230 -121 -502 -121q-220 0 -388 93.5t-260.5 266t-92.5 400.5t93 403.5t261 272t385 96.5q264 0 494 -121l-68 -373h-16q-173 131 -391 131q-133 0 -217 -64t-113 -187h567v-287h-571q59 -268 340 -268q226 0 395 133z" />
    <glyph glyph-name="uni0405" unicode="&#x405;" horiz-adv-x="1234" 
d="M588 -41q-276 0 -500 119l59 375h15q86 -62 196 -102t211 -40q81 0 121.5 24.5t40.5 67.5q0 31 -19.5 55t-79 56.5t-181.5 83.5q-201 85 -285 189.5t-84 269.5q0 191 148.5 312.5t408.5 121.5q117 0 236 -29.5t206 -75.5l-59 -372h-14q-82 57 -184.5 90t-192.5 33
q-117 0 -117 -76q0 -27 15.5 -46t73.5 -50.5t183 -85.5q204 -89 290.5 -195.5t86.5 -255.5q0 -205 -158.5 -337t-416.5 -132z" />
    <glyph glyph-name="uni0406" unicode="&#x406;" horiz-adv-x="686" 
d="M131 0v1450h424v-1450h-424z" />
    <glyph glyph-name="uni0407" unicode="&#x407;" horiz-adv-x="686" 
d="M152 1567q-73 0 -116.5 54t-43.5 148t43.5 148.5t116.5 54.5t116 -54.5t43 -148.5t-43 -148t-116 -54zM535 1567q-74 0 -117 53.5t-43 148.5q0 94 43.5 148.5t116.5 54.5q72 0 115.5 -55t43.5 -150q0 -94 -43 -147t-116 -53zM131 0v1450h424v-1450h-424z" />
    <glyph glyph-name="uni0408" unicode="&#x408;" horiz-adv-x="720" 
d="M168 336v1114h426v-1038q0 -186 -38.5 -303.5t-127.5 -202t-256 -164.5l-172 248l2 14q67 36 102 75.5t49.5 98.5t14.5 158z" />
    <glyph glyph-name="uni0409" unicode="&#x409;" horiz-adv-x="2162" 
d="M1399 934h160q265 0 407.5 -122t142.5 -349q0 -226 -141 -344.5t-409 -118.5h-586v1083h-291v-323q0 -297 -46 -465t-144.5 -240.5t-272.5 -72.5q-100 0 -176 18v309l10 8q24 -6 60 -6q38 0 63 15t43 49t27.5 100.5t13.5 158t4 232.5v584h1135v-516zM1399 332h127
q94 0 136 33.5t42 103.5t-42 103.5t-136 33.5h-127v-274z" />
    <glyph glyph-name="uni040A" unicode="&#x40a;" horiz-adv-x="2156" 
d="M1395 932h159q265 0 407 -121.5t142 -347.5t-141 -344.5t-408 -118.5h-585v567h-414v-567h-424v1450h424v-516h414v516h426v-518zM1395 332h125q93 0 136.5 32.5t43.5 104.5q0 70 -44 103.5t-136 33.5h-125v-274z" />
    <glyph glyph-name="uni040B" unicode="&#x40b;" horiz-adv-x="1622" 
d="M1126 918q197 0 293.5 -123t96.5 -373v-422h-426v330q0 115 -36 168t-114 53q-73 0 -141 -41v-510h-426v1071h-353v379h1160v-379h-381v-246q159 93 327 93z" />
    <glyph glyph-name="uni040C" unicode="&#x40c;" horiz-adv-x="1501" 
d="M1047 1841l12 -18l-256 -256h-266l174 274h336zM1503 1436l-516 -664l533 -760l-7 -12h-501l-381 559h-76v-559h-424v1450h424v-541h70l395 541h477z" />
    <glyph glyph-name="uni040D" unicode="&#x40d;" horiz-adv-x="1611" 
d="M1032 1567h-266l-256 256l12 18h338zM131 1450h424v-479q0 -199 -18 -398h4q36 75 170 310l346 567h426v-1450h-426v479q0 234 20 398h-4q-48 -96 -170 -310l-346 -567h-426v1450z" />
    <glyph glyph-name="uni040E" unicode="&#x40e;" horiz-adv-x="1470" 
d="M735 1538q-158 0 -251.5 74.5t-106.5 212.5l20 16h185q8 -46 48 -72t105 -26q66 0 106 26t46 72h184l21 -16q-14 -138 -106.5 -212.5t-250.5 -74.5zM6 1438l502 -1100q-60 -31 -148 -31q-42 0 -100 15l-12 -11l-4 -309q102 -25 225 -25q197 0 318 87.5t217 312.5
l460 1061l-8 12h-461l-141 -410q-30 -92 -47 -170.5t-41 -224.5h-8q-23 120 -47.5 200.5t-67.5 190.5l-170 414h-459z" />
    <glyph glyph-name="uni040F" unicode="&#x40f;" horiz-adv-x="1540" 
d="M983 1450h426v-1450h-440v-338h-398v338h-440v1450h424v-1083h428v1083z" />
    <glyph glyph-name="uni0410" unicode="&#x410;" horiz-adv-x="1503" 
d="M496 1450h520l493 -1440l-10 -10h-471l-63 225h-433l-63 -225h-467l-8 10zM655 670l-43 -158h271l-45 158q-63 225 -88 426h-7q-28 -190 -88 -426z" />
    <glyph glyph-name="uni0411" unicode="&#x411;" horiz-adv-x="1306" 
d="M553 918h160q262 0 399 -114t137 -333q0 -225 -139 -348t-401 -123h-578v1450h940l41 -371h-559v-161zM555 324h104q187 0 187 147q0 143 -187 143h-104v-290z" />
    <glyph glyph-name="uni0412" unicode="&#x412;" horiz-adv-x="1320" 
d="M676 0h-545v1450h539q266 0 398 -99t132 -282q0 -110 -65 -194t-172 -113v-8q297 -71 297 -344q0 -410 -584 -410zM555 1130v-256h94q162 0 162 130q0 126 -166 126h-90zM555 616v-286h100q201 0 201 145q0 141 -197 141h-104z" />
    <glyph glyph-name="uni0413" unicode="&#x413;" horiz-adv-x="1019" 
d="M131 0v1450h868v-379h-444v-1071h-424z" />
    <glyph glyph-name="uni0414" unicode="&#x414;" horiz-adv-x="1609" 
d="M1411 1450v-1083h164v-705h-397v338h-758v-338h-397v686q101 12 155.5 74t78.5 200t24 392v436h1130zM543 375v-8h442v716h-291v-225q0 -356 -151 -483z" />
    <glyph glyph-name="uni0415" unicode="&#x415;" horiz-adv-x="1193" 
d="M1034 590h-479v-230h547l-39 -360h-932v1450h932l39 -360h-547v-213h479v-287z" />
    <glyph glyph-name="uni0416" unicode="&#x416;" horiz-adv-x="2144" 
d="M2138 1438l-418 -660l432 -766l-6 -12h-487l-301 567h-74v-567h-426v567h-78l-301 -567h-481l-6 12l432 766l-418 660l6 12h459l315 -532h72v532h426v-532h74l315 532h459z" />
    <glyph glyph-name="uni0417" unicode="&#x417;" horiz-adv-x="1146" 
d="M129 1036l-63 348q105 49 239 78t256 29q231 0 362.5 -102t131.5 -277q0 -123 -64.5 -215.5t-177.5 -132.5v-8q126 -32 198 -126.5t72 -226.5q0 -198 -158 -321t-417 -123q-241 0 -455 100l62 361h14q189 -103 340 -103q88 0 133 38.5t45 109.5q0 147 -192 147h-238v267
h215q205 0 205 137q0 123 -152 123q-73 0 -165 -28t-177 -75h-14z" />
    <glyph glyph-name="uni0418" unicode="&#x418;" horiz-adv-x="1611" 
d="M131 1450h424v-479q0 -199 -18 -398h4q36 75 170 310l346 567h426v-1450h-426v479q0 234 20 398h-4q-48 -96 -170 -310l-346 -567h-426v1450z" />
    <glyph glyph-name="uni0419" unicode="&#x419;" horiz-adv-x="1611" 
d="M813 1538q-158 0 -251.5 74.5t-106.5 212.5l20 16h184q8 -46 48 -72t106 -26t106 26t46 72h184l20 -16q-14 -138 -106 -212.5t-250 -74.5zM131 1450h424v-479q0 -199 -18 -398h4q36 75 170 310l346 567h426v-1450h-426v479q0 234 20 398h-4q-48 -96 -170 -310l-346 -567
h-426v1450z" />
    <glyph glyph-name="uni041A" unicode="&#x41a;" horiz-adv-x="1501" 
d="M1503 1436l-516 -664l533 -760l-7 -12h-501l-381 559h-76v-559h-424v1450h424v-541h70l395 541h477z" />
    <glyph glyph-name="uni041B" unicode="&#x41b;" horiz-adv-x="1529" 
d="M43 0v309l10 8q24 -6 60 -6q38 0 63 15t43 49t27.5 100.5t13.5 158t4 232.5v584h1135v-1450h-426v1083h-291v-323q0 -179 -15.5 -307t-48.5 -220.5t-88.5 -146.5t-130.5 -79t-180 -25q-100 0 -176 18z" />
    <glyph glyph-name="uni041C" unicode="&#x41c;" horiz-adv-x="1918" 
d="M547 0h-416v1450h506l321 -659h7l317 659h506v-1450h-416v500q0 192 10 424h-8q-9 -20 -172 -342l-225 -443h-37l-223 443q-163 322 -172 342h-8q10 -232 10 -424v-500z" />
    <glyph glyph-name="uni041D" unicode="&#x41d;" horiz-adv-x="1568" 
d="M1014 913v537h426v-1450h-426v547h-459v-547h-424v1450h424v-537h459z" />
    <glyph glyph-name="uni041E" unicode="&#x41e;" horiz-adv-x="1734" 
d="M868 -41q-169 0 -315.5 58.5t-250 160t-163 243.5t-59.5 304q0 222 101 397t280.5 272t406.5 97q169 0 315.5 -56.5t250 -157t162.5 -243t59 -309.5q0 -162 -59.5 -304t-163 -243.5t-250 -160t-314.5 -58.5zM868 346q149 0 245.5 107t96.5 272q0 168 -96 273.5
t-246 105.5q-151 0 -247.5 -105.5t-96.5 -273.5q0 -165 97 -272t247 -107z" />
    <glyph glyph-name="uni041F" unicode="&#x41f;" horiz-adv-x="1562" 
d="M555 0h-424v1450h1303v-1450h-426v1083h-453v-1083z" />
    <glyph glyph-name="uni0420" unicode="&#x420;" horiz-adv-x="1331" 
d="M692 1450q290 0 436 -127.5t146 -376.5q0 -232 -137 -360.5t-398 -128.5h-184v-457h-424v1450h561zM555 782h127q190 0 190 166q0 88 -47.5 129t-144.5 41h-125v-336z" />
    <glyph glyph-name="uni0421" unicode="&#x421;" horiz-adv-x="1415" 
d="M825 -41q-334 0 -539.5 208.5t-205.5 551.5q0 231 96.5 407.5t265 270.5t381.5 94q249 0 477 -131l-59 -406h-16q-162 144 -353 144q-154 0 -245.5 -101t-91.5 -270q0 -172 93.5 -273.5t250.5 -101.5q189 0 354 146h14l62 -408q-232 -131 -484 -131z" />
    <glyph glyph-name="uni0422" unicode="&#x422;" horiz-adv-x="1228" 
d="M20 1450h1188v-395h-381v-1055h-424v1055h-383v395z" />
    <glyph glyph-name="uni0423" unicode="&#x423;" horiz-adv-x="1470" 
d="M6 1438l502 -1100q-60 -31 -148 -31q-42 0 -100 15l-12 -11l-4 -309q102 -25 225 -25q197 0 318 87.5t217 312.5l460 1061l-8 12h-461l-141 -410q-30 -92 -47 -170.5t-41 -224.5h-8q-23 120 -47.5 200.5t-67.5 190.5l-170 414h-459z" />
    <glyph glyph-name="uni0424" unicode="&#x424;" horiz-adv-x="1871" 
d="M1790 756q0 -127 -45 -236.5t-127 -190t-203.5 -129t-267.5 -53.5v-147h-422v147q-294 9 -469.5 179.5t-175.5 429.5t173.5 424t471.5 174v137h422v-137q297 -9 470 -174t173 -424zM1110 1038v-575q127 13 194.5 88.5t67.5 202.5q0 125 -66.5 198t-195.5 86zM500 754
q0 -125 67 -200.5t193 -90.5v575q-127 -13 -193.5 -86t-66.5 -198z" />
    <glyph glyph-name="uni0425" unicode="&#x425;" horiz-adv-x="1519" 
d="M492 0h-492l-6 12l493 736l-467 690l9 12h499l97 -168q63 -109 143 -289h6q62 152 135 289l95 168h487l6 -12l-459 -686l488 -740l-6 -12h-508l-92 166q-117 220 -158 317h-8q-15 -37 -30.5 -71t-34.5 -70t-30 -56.5t-34.5 -62.5t-30.5 -55z" />
    <glyph glyph-name="uni0426" unicode="&#x426;" horiz-adv-x="1607" 
d="M1411 1450v-1083h162v-705h-397v338h-1045v1450h424v-1083h430v1083h426z" />
    <glyph glyph-name="uni0427" unicode="&#x427;" horiz-adv-x="1474" 
d="M920 846v604h423v-1450h-423v526q-192 -118 -398 -118q-207 0 -309 122.5t-102 372.5v547h426v-455q0 -115 41.5 -168t130.5 -53q104 0 211 72z" />
    <glyph glyph-name="uni0428" unicode="&#x428;" horiz-adv-x="2228" 
d="M1673 367v1083h424v-1450h-1966v1450h424v-1083h346v1083h426v-1083h346z" />
    <glyph glyph-name="uni0429" unicode="&#x429;" horiz-adv-x="2295" 
d="M2097 1450v-1083h164v-705h-397v338h-1733v1450h424v-1083h346v1083h426v-1083h346v1083h424z" />
    <glyph glyph-name="uni042A" unicode="&#x42a;" horiz-adv-x="1503" 
d="M741 967h185q248 0 386 -127t138 -357q0 -238 -146 -360.5t-436 -122.5h-553v1073h-307l37 377h696v-483zM743 332h109q195 0 195 151q0 77 -50.5 117.5t-144.5 40.5h-109v-309z" />
    <glyph glyph-name="uni042B" unicode="&#x42b;" horiz-adv-x="2004" 
d="M682 0h-551v1450h424v-483h184q249 0 388 -127t139 -357q0 -238 -147 -360.5t-437 -122.5zM1448 0v1450h426v-1450h-426zM557 641v-309h111q192 0 192 151q0 78 -49 118t-143 40h-111z" />
    <glyph glyph-name="uni042C" unicode="&#x42c;" horiz-adv-x="1318" 
d="M682 0h-551v1450h424v-483h184q249 0 388 -127t139 -357q0 -238 -147 -360.5t-437 -122.5zM557 641v-309h111q192 0 192 151q0 78 -49 118t-143 40h-111z" />
    <glyph glyph-name="uni042D" unicode="&#x42d;" horiz-adv-x="1429" 
d="M610 1491q217 0 385.5 -96.5t261.5 -272t93 -403.5q0 -345 -203.5 -552.5t-538.5 -207.5q-272 0 -502 121l68 375h16q169 -133 396 -133q281 0 340 268h-572v287h568q-29 123 -113 187t-217 64q-218 0 -391 -131h-17l-67 373q230 121 493 121z" />
    <glyph glyph-name="uni042E" unicode="&#x42e;" horiz-adv-x="2304" 
d="M1464 1491q221 0 394 -96t269.5 -269.5t96.5 -396.5q0 -225 -98 -401t-271 -272.5t-391 -96.5q-285 0 -481 159.5t-250 428.5h-178v-547h-424v1450h424v-537h180q53 264 247.5 421t481.5 157zM1458 348q147 0 234.5 107.5t87.5 273.5q0 164 -86.5 269.5t-233.5 105.5
q-148 0 -236.5 -106t-88.5 -269q0 -166 89 -273.5t234 -107.5z" />
    <glyph glyph-name="uni042F" unicode="&#x42f;" horiz-adv-x="1382" 
d="M725 1450h528v-1450h-426v500h-65l-309 -500h-459l-8 12l372 559q-243 106 -243 406q0 473 610 473zM827 1118h-114q-197 0 -197 -157q0 -158 197 -158h114v315z" />
    <glyph glyph-name="uni0430" unicode="&#x430;" horiz-adv-x="1107" 
d="M336 -41q-138 3 -212.5 68t-74.5 182q0 151 126.5 237.5t428.5 131.5v40q0 74 -23.5 102t-82.5 28q-66 0 -158 -32t-156 -79h-14l-47 297q96 58 226 93.5t243 35.5q207 0 307 -103.5t100 -314.5v-645h-321l-31 102q-140 -146 -311 -143zM489 180q54 0 115 49v203
q-110 -22 -151 -59t-41 -101q0 -92 77 -92z" />
    <glyph glyph-name="uni0431" unicode="&#x431;" horiz-adv-x="1249" 
d="M821 965q171 0 265 -125t94 -355q0 -243 -145.5 -384.5t-407.5 -141.5q-279 0 -413 142.5t-134 433.5v182q0 284 92.5 442t280.5 221q86 29 215.5 55t222.5 52t149 67l19 -8l35 -323q-39 -27 -90.5 -45.5t-92.5 -26.5t-111 -19t-112 -20q-125 -29 -178 -106.5t-51 -225.5
h8q62 85 158.5 135t195.5 50zM633 285q71 0 114.5 51t43.5 137q0 74 -39.5 120t-104.5 46q-46 0 -91.5 -26t-80.5 -70v-86q0 -80 41 -126t117 -46z" />
    <glyph glyph-name="uni0432" unicode="&#x432;" horiz-adv-x="1159" 
d="M684 0h-578v1022h572q173 0 279 -70.5t106 -189.5q0 -44 -15.5 -86t-58 -81.5t-106.5 -55.5v-7q115 -30 165 -88t50 -149q0 -127 -105.5 -211t-308.5 -84zM504 772v-170h92q109 0 109 88q0 43 -25.5 62.5t-77.5 19.5h-98zM504 440v-186h114q119 0 119 92q0 94 -121 94
h-112z" />
    <glyph glyph-name="uni0433" unicode="&#x433;" horiz-adv-x="886" 
d="M510 0h-404v1022h748v-303h-344v-719z" />
    <glyph glyph-name="uni0434" unicode="&#x434;" horiz-adv-x="1280" 
d="M1137 1022v-719h123v-600h-367v297h-524v-297h-365v582q107 8 157 128t50 384v225h926zM463 309v-6h274v420h-168v-117q0 -118 -23.5 -184t-82.5 -113z" />
    <glyph glyph-name="uni0435" unicode="&#x435;" horiz-adv-x="1175" 
d="M1102 524q0 -36 -4 -71h-621q2 -94 51 -144.5t142 -50.5q178 0 315 104h14l43 -284q-79 -52 -192.5 -85.5t-228.5 -33.5q-134 0 -239.5 41.5t-173 115.5t-103 174t-35.5 218q0 241 144.5 398t385.5 157q240 0 371 -149t131 -390zM479 612h266q-4 87 -37 133t-90 46
q-58 0 -95.5 -47t-43.5 -132z" />
    <glyph glyph-name="uni0436" unicode="&#x436;" horiz-adv-x="1806" 
d="M1765 1008l-305 -455l344 -541l-4 -12h-428l-213 369h-57v-369h-395v369h-58l-221 -369h-418l-8 12l348 537l-309 459l8 14h404l213 -352h41v352h395v-352h41l215 352h399z" />
    <glyph glyph-name="uni0437" unicode="&#x437;" horiz-adv-x="993" 
d="M471 -41q-239 0 -420 94l58 273h14q149 -80 299 -80q146 0 149 98q0 41 -30 59.5t-92 18.5l-211 -2v180h198q55 0 85 23.5t30 68.5q0 43 -28 65.5t-81 22.5q-141 0 -321 -94h-15l-49 283q226 94 453 94q195 0 298 -72t103 -207q0 -89 -50.5 -154.5t-135.5 -90.5v-9
q107 -32 158 -95t51 -161q-1 -141 -129 -228t-334 -87z" />
    <glyph glyph-name="uni0438" unicode="&#x438;" horiz-adv-x="1269" 
d="M616 696l181 326h366v-1022h-403v348q0 134 8 225h-6q-11 -22 -49 -104t-58 -121l-182 -348h-367v1022h404l-2 -326q0 -87 -8 -223h6q17 34 54.5 111.5t55.5 111.5z" />
    <glyph glyph-name="uni0439" unicode="&#x439;" horiz-adv-x="1269" 
d="M647 1161q-152 0 -242.5 73.5t-103.5 217.5l23 16h184q6 -56 43 -83t96 -27q125 0 139 110h185l20 -16q-13 -144 -103 -217.5t-241 -73.5zM616 696l181 326h366v-1022h-403v348q0 134 8 225h-6q-11 -22 -49 -104t-58 -121l-182 -348h-367v1022h404l-2 -326q0 -87 -8 -223
h6q17 34 54.5 111.5t55.5 111.5z" />
    <glyph glyph-name="uni043A" unicode="&#x43a;" horiz-adv-x="1249" 
d="M1231 1008l-342 -445l368 -551l-6 -12h-454l-234 375h-53v-375h-404v1022h404v-346h47l242 346h424z" />
    <glyph glyph-name="uni043B" unicode="&#x43b;" horiz-adv-x="1243" 
d="M20 0v266l11 8q18 -6 37 -6q70 0 95 77t25 290v387h949v-1022h-404v719h-166v-230q0 -260 -96.5 -381.5t-298.5 -121.5q-84 0 -152 14z" />
    <glyph glyph-name="uni043C" unicode="&#x43c;" horiz-adv-x="1452" 
d="M504 0h-398v1022h388l229 -455h6l232 455h385v-1022h-398v293q0 133 10 227h-6q-53 -109 -90 -176l-121 -227h-30l-121 227q-71 140 -88 176h-8q10 -94 10 -227v-293z" />
    <glyph glyph-name="uni043D" unicode="&#x43d;" horiz-adv-x="1269" 
d="M760 668v354h403v-1022h-403v367h-250v-367h-404v1022h404v-354h250z" />
    <glyph glyph-name="uni043E" unicode="&#x43e;" horiz-adv-x="1265" 
d="M633 -41q-248 0 -405.5 156.5t-157.5 394.5q0 156 70.5 281.5t199.5 198.5t293 73q165 0 294.5 -73t200 -198.5t70.5 -281.5t-71 -281.5t-200.5 -197.5t-293.5 -72zM633 293q81 0 126.5 59.5t45.5 157.5q0 97 -46 157t-126 60q-78 0 -124 -60t-46 -157q0 -98 45.5 -157.5
t124.5 -59.5z" />
    <glyph glyph-name="uni043F" unicode="&#x43f;" horiz-adv-x="1267" 
d="M1161 1022v-1022h-403v719h-248v-719h-404v1022h1055z" />
    <glyph glyph-name="uni0440" unicode="&#x440;" horiz-adv-x="1280" 
d="M813 1063q183 0 289 -146t106 -395q0 -252 -117.5 -407.5t-308.5 -155.5q-150 0 -272 92v-502h-404v1473h367l10 -113q69 69 155.5 111.5t174.5 42.5zM639 289q83 0 130.5 63t47.5 170q0 98 -43 156.5t-115 58.5q-77 0 -149 -53v-365q64 -30 129 -30z" />
    <glyph glyph-name="uni0441" unicode="&#x441;" horiz-adv-x="1009" 
d="M598 -41q-241 0 -384.5 150.5t-143.5 398.5q0 243 152 399t396 156q155 0 324 -88l-49 -322h-14q-98 88 -205 88q-91 0 -147 -63t-56 -168q0 -102 54 -165.5t141 -63.5q56 0 105.5 18.5t111.5 67.5h14l43 -310q-149 -98 -342 -98z" />
    <glyph glyph-name="uni0442" unicode="&#x442;" horiz-adv-x="997" 
d="M700 0h-401v719h-274v303h948v-303h-273v-719z" />
    <glyph glyph-name="uni0443" unicode="&#x443;" horiz-adv-x="1220" 
d="M27 1022h458l68 -363q48 -208 57 -258h8q8 36 66 261l82 360h438l8 -14l-589 -1459h-412l-4 11l186 450l-375 998z" />
    <glyph glyph-name="uni0444" unicode="&#x444;" horiz-adv-x="1568" 
d="M977 1505v-473q234 10 378 -135.5t144 -384.5q0 -240 -144 -386t-378 -136v-441h-387v441q-233 -9 -376.5 137t-143.5 385q0 238 143.5 383.5t376.5 136.5v473h387zM459 514q0 -111 45.5 -175t128.5 -73v488q-84 -8 -129 -68.5t-45 -171.5zM936 754v-488q83 9 128.5 73
t45.5 175t-45 171.5t-129 68.5z" />
    <glyph glyph-name="uni0445" unicode="&#x445;" horiz-adv-x="1120" 
d="M23 1022h417l58 -160q48 -173 57 -223h6q15 80 57 223l64 160h416l8 -14l-268 -498l282 -498l-6 -12h-432l-68 170q-21 62 -51 201h-8q-25 -117 -53 -201l-64 -170h-432l-8 12l285 498l-269 498z" />
    <glyph glyph-name="uni0446" unicode="&#x446;" horiz-adv-x="1288" 
d="M1153 1022v-719h115v-600h-367v297h-795v1022h404v-719h240v719h403z" />
    <glyph glyph-name="uni0447" unicode="&#x447;" horiz-adv-x="1228" 
d="M717 588v434h403v-1022h-403v317q-143 -79 -289 -79q-163 0 -247.5 101.5t-84.5 299.5v383h404v-348q0 -63 24 -91t74 -28q60 0 119 33z" />
    <glyph glyph-name="uni0448" unicode="&#x448;" horiz-adv-x="1812" 
d="M1303 301v721h403v-1022h-1600v1022h404v-721h199v721h397v-721h197z" />
    <glyph glyph-name="uni0449" unicode="&#x449;" horiz-adv-x="1841" 
d="M1706 1022v-719h113v-600h-365v297h-1348v1022h404v-721h199v721h397v-721h197v721h403z" />
    <glyph glyph-name="uni044A" unicode="&#x44a;" horiz-adv-x="1236" 
d="M625 707h176q193 0 292 -89.5t99 -250.5q0 -170 -119 -268.5t-330 -98.5h-522v719h-198v303h602v-315zM625 270h86q131 0 131 111q0 100 -119 100h-98v-211z" />
    <glyph glyph-name="uni044B" unicode="&#x44b;" horiz-adv-x="1736" 
d="M510 707h178q193 0 292 -89.5t99 -250.5q0 -170 -118.5 -268.5t-329.5 -98.5h-525v1022h404v-315zM1225 0v1022h403v-1022h-403zM510 270h88q131 0 131 111q0 100 -119 100h-100v-211z" />
    <glyph glyph-name="uni044C" unicode="&#x44c;" horiz-adv-x="1122" 
d="M510 707h178q193 0 292 -89.5t99 -250.5q0 -170 -118.5 -268.5t-329.5 -98.5h-525v1022h404v-315zM510 270h88q131 0 131 111q0 100 -119 100h-100v-211z" />
    <glyph glyph-name="uni044D" unicode="&#x44d;" horiz-adv-x="1013" 
d="M426 1063q249 0 384.5 -151.5t135.5 -413.5q0 -248 -143 -393.5t-383 -145.5q-189 0 -352 92l38 273h15q103 -74 250 -74q96 0 149 40.5t72 125.5h-359v200h357q-17 79 -68 115.5t-141 36.5q-135 0 -246 -68h-14l-45 285q189 78 350 78z" />
    <glyph glyph-name="uni044E" unicode="&#x44e;" horiz-adv-x="1779" 
d="M1153 1063q120 0 224.5 -42.5t177.5 -116.5t115 -176t42 -218q0 -237 -158 -394t-401 -157q-202 0 -348.5 112t-192.5 294h-104v-365h-402v1022h402v-365h106q45 181 191 293.5t348 112.5zM1153 293q76 0 121 59.5t45 157.5q0 96 -45 156.5t-121 60.5q-77 0 -120.5 -60
t-43.5 -157q0 -98 43.5 -157.5t120.5 -59.5z" />
    <glyph glyph-name="uni044F" unicode="&#x44f;" horiz-adv-x="1173" 
d="M1067 1022v-1022h-403v328h-58l-186 -328h-400l-8 14l224 373q-166 78 -166 281q0 172 117.5 263t338.5 91h541zM664 758h-95q-131 0 -131 -111q0 -50 29.5 -77t83.5 -27h113v215z" />
    <glyph glyph-name="uni0450" unicode="&#x450;" horiz-adv-x="1175" 
d="M602 1538l205 -367h-258l-303 347l10 20h346zM1102 524q0 -36 -4 -71h-621q2 -94 51 -144.5t142 -50.5q178 0 315 104h14l43 -284q-79 -52 -192.5 -85.5t-228.5 -33.5q-134 0 -239.5 41.5t-173 115.5t-103 174t-35.5 218q0 241 144.5 398t385.5 157q240 0 371 -149
t131 -390zM479 612h266q-4 87 -37 133t-90 46q-58 0 -95.5 -47t-43.5 -132z" />
    <glyph glyph-name="uni0451" unicode="&#x451;" horiz-adv-x="1175" 
d="M387 1167q-73 0 -122.5 50t-49.5 124q0 72 49.5 122t122.5 50q72 0 121 -50t49 -122q0 -74 -49 -124t-121 -50zM815 1167q-73 0 -120.5 50t-47.5 124q0 72 48 122t120 50t122 -50t50 -122q0 -74 -49.5 -124t-122.5 -50zM1102 524q0 -36 -4 -71h-621q2 -94 51 -144.5
t142 -50.5q178 0 315 104h14l43 -284q-79 -52 -192.5 -85.5t-228.5 -33.5q-134 0 -239.5 41.5t-173 115.5t-103 174t-35.5 218q0 241 144.5 398t385.5 157q240 0 371 -149t131 -390zM479 612h266q-4 87 -37 133t-90 46q-58 0 -95.5 -47t-43.5 -132z" />
    <glyph glyph-name="uni0452" unicode="&#x452;" horiz-adv-x="1273" 
d="M844 1063q152 0 236.5 -105.5t84.5 -295.5v-533q0 -222 -93.5 -358t-309.5 -230l-160 242l4 27q94 56 125 118.5t31 200.5v467q0 69 -21.5 101t-68.5 32q-72 0 -162 -74v-655h-404v1174h-106v188h106v143h404v-143h268v-188h-268v-271q151 160 334 160z" />
    <glyph glyph-name="uni0453" unicode="&#x453;" horiz-adv-x="886" 
d="M844 1518l-301 -347h-260l204 367h347zM510 0h-404v1022h748v-303h-344v-719z" />
    <glyph glyph-name="uni0454" unicode="&#x454;" horiz-adv-x="1017" 
d="M897 324h14l39 -273q-171 -92 -356 -92q-242 0 -383 145t-141 394q0 256 147.5 410.5t390.5 154.5q86 0 162 -19t170 -61l-47 -283h-14q-106 68 -236 68q-178 0 -217 -152h354v-200h-354q19 -85 73.5 -125.5t151.5 -40.5q143 0 246 74z" />
    <glyph glyph-name="uni0455" unicode="&#x455;" horiz-adv-x="974" 
d="M467 -41q-96 0 -205.5 27.5t-193.5 72.5l41 295h14q164 -118 311 -118q44 0 69 17t25 46q0 31 -34.5 58.5t-135.5 68.5q-156 63 -220 135.5t-64 183.5q0 141 112 229.5t299 88.5q94 0 197 -26t188 -70l-45 -293h-14q-155 114 -285 114q-36 0 -55.5 -16t-19.5 -41
q0 -29 32 -53.5t142 -71.5q151 -63 215.5 -139t64.5 -182q0 -148 -119 -237t-319 -89z" />
    <glyph glyph-name="uni0456" unicode="&#x456;" horiz-adv-x="618" 
d="M309 1135q-101 0 -166 58.5t-65 149.5q0 92 64.5 149.5t166.5 57.5q103 0 166.5 -57.5t63.5 -149.5q0 -91 -64.5 -149.5t-165.5 -58.5zM510 0h-404v1022h404v-1022z" />
    <glyph glyph-name="uni0457" unicode="&#x457;" horiz-adv-x="618" 
d="M119 1141q-73 0 -116.5 54t-43.5 148t43.5 148.5t116.5 54.5t117.5 -54.5t44.5 -148.5t-44 -148t-118 -54zM500 1141q-73 0 -116.5 54t-43.5 148t43.5 148.5t116.5 54.5t117.5 -55.5t44.5 -149.5t-44 -147t-118 -53zM510 0h-404v1022h404v-1022z" />
    <glyph glyph-name="uni0458" unicode="&#x458;" horiz-adv-x="618" 
d="M309 1135q-101 0 -166 58.5t-65 149.5q0 92 64.5 149.5t166.5 57.5q104 0 167 -57t63 -150q0 -91 -64 -149.5t-166 -58.5zM121 -492l-166 240l2 27q85 53 117 120.5t32 200.5v926h404v-854q0 -184 -34.5 -299t-116.5 -198t-238 -163z" />
    <glyph glyph-name="uni0459" unicode="&#x459;" horiz-adv-x="1769" 
d="M1137 680h112q247 0 361 -82.5t114 -257.5t-114 -257.5t-361 -82.5h-516v719h-166v-230q0 -260 -96.5 -381.5t-298.5 -121.5q-84 0 -152 14v266l11 8q18 -6 37 -6q70 0 95 77t25 290v387h949v-342zM1137 252h92q133 0 133 88t-133 88h-92v-176z" />
    <glyph glyph-name="uni045A" unicode="&#x45a;" horiz-adv-x="1771" 
d="M1137 680h112q248 0 362.5 -81.5t114.5 -256.5q0 -177 -114.5 -259.5t-362.5 -82.5h-516v379h-223v-379h-404v1022h404v-342h223v342h404v-342zM1137 252h92q135 0 135 90q0 86 -135 86h-92v-176z" />
    <glyph glyph-name="uni045B" unicode="&#x45b;" horiz-adv-x="1273" 
d="M844 1063q152 0 236.5 -104t84.5 -297v-662h-403v596q0 70 -22 101.5t-68 31.5q-67 0 -162 -74v-655h-404v1174h-106v188h106v143h404v-143h268v-188h-268v-271q153 160 334 160z" />
    <glyph glyph-name="uni045C" unicode="&#x45c;" horiz-adv-x="1249" 
d="M971 1538l10 -20l-301 -347h-260l205 367h346zM1231 1008l-342 -445l368 -551l-6 -12h-454l-234 375h-53v-375h-404v1022h404v-346h47l242 346h424z" />
    <glyph glyph-name="uni045D" unicode="&#x45d;" horiz-adv-x="1269" 
d="M301 1538h346l205 -367h-258l-303 347zM616 696l181 326h366v-1022h-403v348q0 134 8 225h-6q-11 -22 -49 -104t-58 -121l-182 -348h-367v1022h404l-2 -326q0 -87 -8 -223h6q17 34 54.5 111.5t55.5 111.5z" />
    <glyph glyph-name="uni045E" unicode="&#x45e;" horiz-adv-x="1220" 
d="M618 1161q-152 0 -242.5 73.5t-103.5 217.5l23 16h184q6 -56 43 -83t96 -27q126 0 140 110h184l21 -16q-13 -144 -103.5 -217.5t-241.5 -73.5zM27 1022h458l68 -363q48 -208 57 -258h8q8 36 66 261l82 360h438l8 -14l-589 -1459h-412l-4 11l186 450l-375 998z" />
    <glyph glyph-name="uni045F" unicode="&#x45f;" horiz-adv-x="1261" 
d="M750 303v719h403v-1022h-338v-297h-366v297h-343v1022h404v-719h240z" />
    <glyph glyph-name="uni0490" unicode="&#x490;" horiz-adv-x="1069" 
d="M651 1450v276h398v-655h-494v-1071h-424v1450h520z" />
    <glyph glyph-name="uni0491" unicode="&#x491;" horiz-adv-x="886" 
d="M522 1022v227h332v-530h-344v-719h-404v1022h416z" />
    <glyph glyph-name="Wgrave" unicode="&#x1e80;" horiz-adv-x="2103" 
d="M1270 1567h-266l-256 256l12 18h338zM27 1450h458l136 -643q27 -119 53 -315h8q15 131 55 301l158 655h313l156 -655q34 -134 59 -301h9q14 125 49 315l135 643h459l10 -10l-410 -1446h-432l-131 553q-31 142 -57 287h-6q-22 -124 -58 -287l-133 -553h-432l-408 1446z
" />
    <glyph glyph-name="wgrave" unicode="&#x1e81;" horiz-adv-x="1662" 
d="M487 1538h347l204 -367h-258l-303 347zM31 1022h413l43 -252q20 -101 66 -391h8q25 142 84 401l55 238h265l53 -236q35 -137 84 -403h8q11 72 68 391l43 252h411l8 -12l-284 -1016h-389l-62 254q-36 161 -69 350h-9q-49 -262 -69 -352l-64 -252h-389l-282 1016z" />
    <glyph glyph-name="Wacute" unicode="&#x1e82;" horiz-adv-x="2103" 
d="M1100 1567h-266l174 274h335l13 -18zM27 1450h458l136 -643q27 -119 53 -315h8q15 131 55 301l158 655h313l156 -655q34 -134 59 -301h9q14 125 49 315l135 643h459l10 -10l-410 -1446h-432l-131 553q-31 142 -57 287h-6q-22 -124 -58 -287l-133 -553h-432l-408 1446z
" />
    <glyph glyph-name="wacute" unicode="&#x1e83;" horiz-adv-x="1662" 
d="M1186 1518l-301 -347h-260l204 367h347zM31 1022h413l43 -252q20 -101 66 -391h8q25 142 84 401l55 238h265l53 -236q35 -137 84 -403h8q11 72 68 391l43 252h411l8 -12l-284 -1016h-389l-62 254q-36 161 -69 350h-9q-49 -262 -69 -352l-64 -252h-389l-282 1016z" />
    <glyph glyph-name="Wdieresis" unicode="&#x1e84;" horiz-adv-x="2103" 
d="M827 1563q-72 0 -121 50t-49 122t49 122t121 50t121 -50t49 -122q0 -73 -48.5 -122.5t-121.5 -49.5zM1276 1563q-72 0 -121 50t-49 122t49 122t121 50t121 -50t49 -122q0 -73 -48.5 -122.5t-121.5 -49.5zM27 1450h458l136 -643q27 -119 53 -315h8q15 131 55 301l158 655
h313l156 -655q34 -134 59 -301h9q14 125 49 315l135 643h459l10 -10l-410 -1446h-432l-131 553q-31 142 -57 287h-6q-22 -124 -58 -287l-133 -553h-432l-408 1446z" />
    <glyph glyph-name="wdieresis" unicode="&#x1e85;" horiz-adv-x="1662" 
d="M618 1167q-73 0 -122.5 50t-49.5 124q0 72 49.5 122t122.5 50q72 0 121 -50t49 -122q0 -74 -49 -124t-121 -50zM1047 1167q-73 0 -120.5 50t-47.5 124q0 72 48 122t120 50t122 -50t50 -122q0 -74 -49.5 -124t-122.5 -50zM31 1022h413l43 -252q20 -101 66 -391h8
q25 142 84 401l55 238h265l53 -236q35 -137 84 -403h8q11 72 68 391l43 252h411l8 -12l-284 -1016h-389l-62 254q-36 161 -69 350h-9q-49 -262 -69 -352l-64 -252h-389l-282 1016z" />
    <glyph glyph-name="uni1E9E" unicode="&#x1e9e;" horiz-adv-x="1474" 
d="M1319 1159l-205 -305q159 -37 244.5 -142t85.5 -270q0 -220 -134.5 -351.5t-367.5 -131.5q-149 0 -280 59l12 340l28 11q85 -60 168 -60q65 0 100.5 34t35.5 99q0 144 -232 144h-57v215l184 286h-346v-1087h-424v1450h1188v-291z" />
    <glyph glyph-name="Ygrave" unicode="&#x1ef2;" horiz-adv-x="1437" 
d="M938 1567h-266l-256 256l12 18h338zM8 1450h492l112 -264q57 -140 103 -283h8q59 172 102 283l113 264h492l6 -12l-506 -869v-569h-422v569l-506 869z" />
    <glyph glyph-name="ygrave" unicode="&#x1ef3;" horiz-adv-x="1220" 
d="M272 1538h346l205 -367h-258l-303 347zM27 1022h458l68 -363q48 -208 57 -258h8q8 36 66 261l82 360h438l8 -14l-589 -1459h-412l-4 11l186 450l-375 998z" />
    <glyph glyph-name="uni2000" unicode="&#x2000;" horiz-adv-x="1024" 
 />
    <glyph glyph-name="uni2001" unicode="&#x2001;" horiz-adv-x="2048" 
 />
    <glyph glyph-name="uni2002" unicode="&#x2002;" horiz-adv-x="1024" 
 />
    <glyph glyph-name="uni2003" unicode="&#x2003;" horiz-adv-x="2048" 
 />
    <glyph glyph-name="uni2004" unicode="&#x2004;" horiz-adv-x="681" 
 />
    <glyph glyph-name="uni2005" unicode="&#x2005;" horiz-adv-x="512" 
 />
    <glyph glyph-name="uni2006" unicode="&#x2006;" horiz-adv-x="342" 
 />
    <glyph glyph-name="uni2007" unicode="&#x2007;" horiz-adv-x="1417" 
 />
    <glyph glyph-name="uni2008" unicode="&#x2008;" horiz-adv-x="573" 
 />
    <glyph glyph-name="uni2009" unicode="&#x2009;" horiz-adv-x="409" 
 />
    <glyph glyph-name="uni200A" unicode="&#x200a;" horiz-adv-x="292" 
 />
    <glyph glyph-name="uni200B" unicode="&#x200b;" 
 />
    <glyph glyph-name="uni200C" unicode="&#x200c;" 
d="M-297 1546l223 221l51 -49l-178 -172l178 -168l-51 -51zM201 1546l-178 172l51 49l223 -221l-223 -219l-51 51zM-39 1247h74v-1605h-74v1605z" />
    <glyph glyph-name="uni200D" unicode="&#x200d;" 
d="M-276 1718l51 49l223 -221l-223 -219l-51 51l178 168zM225 1767l51 -49l-178 -172l178 -168l-51 -51l-223 219zM-39 1247h74v-1605h-74v1605z" />
    <glyph glyph-name="figuredash" unicode="&#x2012;" horiz-adv-x="1196" 
d="M1094 541h-992v262h992v-262z" />
    <glyph glyph-name="endash" unicode="&#x2013;" horiz-adv-x="1155" 
d="M1073 315h-991v263h991v-263z" />
    <glyph glyph-name="emdash" unicode="&#x2014;" horiz-adv-x="1835" 
d="M1753 315h-1671v263h1671v-263z" />
    <glyph glyph-name="quoteleft" unicode="&#x2018;" horiz-adv-x="641" 
d="M102 756l-18 32l242 662h264l-166 -694h-322z" />
    <glyph glyph-name="quoteright" unicode="&#x2019;" horiz-adv-x="641" 
d="M539 1450l18 -31l-244 -663h-262l164 694h324z" />
    <glyph glyph-name="quotesinglbase" unicode="&#x201a;" horiz-adv-x="641" 
d="M539 391l18 -31l-244 -663h-262l164 694h324z" />
    <glyph glyph-name="quotedblleft" unicode="&#x201c;" horiz-adv-x="1146" 
d="M102 756l-18 32l242 662h264l-166 -694h-322zM608 756l-18 32l244 662h264l-166 -694h-324z" />
    <glyph glyph-name="quotedblright" unicode="&#x201d;" horiz-adv-x="1146" 
d="M539 1450l18 -31l-244 -663h-262l164 694h324zM1044 1450l19 -31l-242 -663h-264l166 694h321z" />
    <glyph glyph-name="quotedblbase" unicode="&#x201e;" horiz-adv-x="1132" 
d="M539 391l18 -31l-244 -663h-262l164 694h324zM1030 391l19 -31l-244 -663h-262l164 694h323z" />
    <glyph glyph-name="dagger" unicode="&#x2020;" horiz-adv-x="1208" 
d="M797 -266h-385v905h-330v354h330v455h385v-455h329v-354h-329v-905z" />
    <glyph glyph-name="daggerdbl" unicode="&#x2021;" horiz-adv-x="1208" 
d="M797 -266h-385v368h-326v357h326v282h-326v357h326v352h385v-352h325v-357h-325v-282h325v-357h-325v-368z" />
    <glyph glyph-name="bullet" unicode="&#x2022;" horiz-adv-x="970" 
d="M485 354q-136 0 -230.5 95.5t-94.5 230.5t94.5 230.5t230.5 95.5t231 -95.5t95 -230.5t-95 -230.5t-231 -95.5z" />
    <glyph glyph-name="ellipsis" unicode="&#x2026;" horiz-adv-x="1814" 
d="M922 -23q-99 0 -162.5 64t-63.5 154q0 94 64 154.5t162 60.5q97 0 160 -60.5t63 -154.5q0 -90 -63 -154t-160 -64zM1556 -23q-99 0 -162 64t-63 154q0 94 63.5 154.5t161.5 60.5q97 0 160.5 -60.5t63.5 -154.5q0 -90 -63 -154t-161 -64zM287 -25q-98 0 -161 64t-63 154
q0 94 63 154.5t161 60.5t160.5 -60.5t62.5 -154.5q0 -90 -63 -154t-160 -64z" />
    <glyph glyph-name="uni202F" unicode="&#x202f;" horiz-adv-x="409" 
 />
    <glyph glyph-name="perthousand" unicode="&#x2030;" horiz-adv-x="2932" 
d="M514 700q-166 0 -278.5 111.5t-112.5 278.5q0 168 112 278.5t279 110.5t279 -110.5t112 -278.5q0 -167 -112.5 -278.5t-278.5 -111.5zM715 0h-252l850 1450h252zM514 950q58 0 95.5 39t37.5 101q0 63 -37 102t-96 39t-97 -39t-38 -102q0 -61 38 -100.5t97 -39.5z
M1513 -31q-167 0 -279 111t-112 278q0 168 111.5 279t279.5 111q167 0 279.5 -111t112.5 -279q0 -167 -113 -278t-279 -111zM2419 -31q-166 0 -278.5 111t-112.5 278q0 168 112 279t279 111t279 -111t112 -279q0 -167 -112.5 -278t-278.5 -111zM1513 219q59 0 96.5 39
t37.5 100q0 63 -37.5 102.5t-96.5 39.5t-97 -39.5t-38 -102.5q0 -61 38 -100t97 -39zM2419 219q59 0 96 39t37 100q0 63 -37 102.5t-96 39.5t-97 -39.5t-38 -102.5q0 -61 38 -100t97 -39z" />
    <glyph glyph-name="minute" unicode="&#x2032;" horiz-adv-x="452" 
d="M338 1032h-268l65 514h350z" />
    <glyph glyph-name="second" unicode="&#x2033;" horiz-adv-x="907" 
d="M338 1032h-268l65 514h350zM793 1032h-269l66 514h350z" />
    <glyph glyph-name="guilsinglleft" unicode="&#x2039;" horiz-adv-x="733" 
d="M651 125h-305l-276 379l270 377h309l4 -25l-243 -352l247 -352z" />
    <glyph glyph-name="guilsinglright" unicode="&#x203a;" horiz-adv-x="733" 
d="M387 125h-305l-6 27l248 352l-244 352l4 25h309l271 -377z" />
    <glyph glyph-name="fraction" unicode="&#x2044;" horiz-adv-x="403" 
d="M455 1450h256l-396 -725l-366 -725h-258l440 809z" />
    <glyph glyph-name="uni2070" unicode="&#x2070;" horiz-adv-x="778" 
d="M389 915q-167 0 -264.5 120.5t-97.5 324.5q0 207 97.5 327.5t264.5 120.5q169 0 267 -120.5t98 -327.5q0 -204 -98.5 -324.5t-266.5 -120.5zM389 1159q90 0 90 201q0 205 -90 205q-88 0 -88 -205q0 -201 88 -201z" />
    <glyph glyph-name="uni2074" unicode="&#x2074;" horiz-adv-x="778" 
d="M672 942h-258v139h-375l-27 179l348 524h312v-484h94v-219h-94v-139zM340 1401l-66 -101h146v60q0 121 16 203h-6q-33 -81 -90 -162z" />
    <glyph glyph-name="uni2075" unicode="&#x2075;" horiz-adv-x="778" 
d="M360 915q-158 0 -294 66l43 225h14q91 -69 215 -69q57 0 85 24.5t28 65.5q0 39 -25.5 63.5t-75.5 24.5q-83 0 -149 -31l-103 57l31 441h522v-215h-301l-6 -86q52 14 102 14q126 0 199.5 -73.5t73.5 -196.5q0 -141 -95 -225.5t-264 -84.5z" />
    <glyph glyph-name="uni2076" unicode="&#x2076;" horiz-adv-x="778" 
d="M496 1522q115 0 181 -75t66 -202q0 -150 -97 -240t-259 -90q-163 0 -257.5 89t-94.5 239q0 92 46 190.5t179 258.5l74 90h287l12 -25l-53 -65q-93 -116 -193 -187l4 -4q59 21 105 21zM389 1151q39 0 61.5 25.5t22.5 72.5q0 94 -82 94q-28 0 -55 -10q-29 -45 -29 -96
q0 -40 22 -63t60 -23z" />
    <glyph glyph-name="uni2077" unicode="&#x2077;" horiz-adv-x="778" 
d="M365 942h-238l-21 35l254 573h-303v232h674l8 -35z" />
    <glyph glyph-name="uni2078" unicode="&#x2078;" horiz-adv-x="778" 
d="M608 1382q131 -67 131 -206q0 -119 -93 -190t-257 -71q-168 0 -258 65.5t-90 168.5q0 64 31 116t86 85q-82 70 -82 202q0 109 87.5 182.5t237.5 73.5q144 0 225 -66t81 -169q0 -53 -25.5 -104t-73.5 -87zM391 1606q-29 0 -45 -18.5t-16 -51.5q0 -35 15 -54.5t54 -31.5
l19 -6q35 43 35 96q0 31 -16.5 48.5t-45.5 17.5zM393 1116q34 0 54 20t20 54q0 36 -21.5 56t-68.5 32l-19 4q-47 -47 -47 -86q0 -37 22.5 -58.5t59.5 -21.5z" />
    <glyph glyph-name="uni2079" unicode="&#x2079;" horiz-adv-x="778" 
d="M391 1808q163 0 257.5 -87.5t94.5 -233.5q0 -98 -44.5 -196.5t-176.5 -258.5l-71 -90h-287l-12 25l51 65q100 124 188 187l-4 4q-59 -21 -104 -21q-115 0 -181.5 75t-66.5 202q0 150 97 239.5t259 89.5zM442 1391q29 45 29 96q0 40 -22 63t-60 23q-39 0 -61.5 -25.5
t-22.5 -72.5t21.5 -71t60.5 -24q26 0 55 11z" />
    <glyph glyph-name="uni2080" unicode="&#x2080;" horiz-adv-x="778" 
d="M389 -313q-167 0 -264.5 120t-97.5 324q0 207 97.5 328t264.5 121q169 0 267 -121t98 -328q0 -204 -98.5 -324t-266.5 -120zM389 -70q90 0 90 201q0 205 -90 205q-88 0 -88 -205q0 -201 88 -201z" />
    <glyph glyph-name="uni2081" unicode="&#x2081;" horiz-adv-x="778" 
d="M588 -287h-266v367q0 81 24 182l-4 2q-38 -28 -94 -63l-80 -45l-21 8l17 254l336 153h88v-858z" />
    <glyph glyph-name="uni2082" unicode="&#x2082;" horiz-adv-x="778" 
d="M711 -287h-623l-20 90l280 324q49 57 68.5 90.5t19.5 61.5q0 59 -71 59q-104 0 -218 -88h-14l-41 256q63 28 151 51t165 23q138 0 220.5 -76t82.5 -197q0 -176 -144 -305l-22 -20q-27 -25 -105 -66v-6q110 29 172 29h99v-226z" />
    <glyph glyph-name="uni2083" unicode="&#x2083;" horiz-adv-x="778" 
d="M375 -313q-81 0 -161 17.5t-134 43.5l43 227h14q97 -69 205 -69q88 0 88 74q0 71 -94 71h-121v162h115q43 0 67.5 20t24.5 58q0 33 -20.5 51t-55.5 18q-50 0 -108.5 -20t-104.5 -53h-14l-41 217q57 28 148 52t173 24q131 0 208 -63t77 -167q0 -72 -39 -127.5t-113 -79.5
v-4q83 -20 126.5 -73.5t43.5 -128.5q0 -111 -90.5 -180.5t-236.5 -69.5z" />
    <glyph glyph-name="uni2084" unicode="&#x2084;" horiz-adv-x="778" 
d="M672 -287h-258v140h-375l-27 178l348 524h312v-483h94v-219h-94v-140zM340 172l-66 -100h146v59q0 121 16 203h-6q-33 -81 -90 -162z" />
    <glyph glyph-name="uni2085" unicode="&#x2085;" horiz-adv-x="778" 
d="M360 -313q-160 0 -294 65l43 225h14q91 -69 215 -69q57 0 85 24.5t28 65.5q0 39 -25.5 63.5t-75.5 24.5q-83 0 -149 -31l-103 58l31 440h522v-215h-301l-6 -86q52 14 102 14q126 0 199.5 -73.5t73.5 -196.5q0 -140 -95 -224.5t-264 -84.5z" />
    <glyph glyph-name="uni2086" unicode="&#x2086;" horiz-adv-x="778" 
d="M496 293q115 0 181 -75t66 -202q0 -150 -97 -239.5t-259 -89.5q-163 0 -257.5 88.5t-94.5 238.5q0 92 46 190.5t179 258.5l74 90h287l12 -25l-53 -65q-93 -116 -193 -187l4 -4q59 21 105 21zM389 -78q39 0 61.5 25.5t22.5 72.5t-21.5 71t-60.5 24q-26 0 -55 -11
q-29 -45 -29 -96q0 -40 22 -63t60 -23z" />
    <glyph glyph-name="uni2087" unicode="&#x2087;" horiz-adv-x="778" 
d="M365 -287h-238l-21 35l254 574h-303v231h674l8 -35z" />
    <glyph glyph-name="uni2088" unicode="&#x2088;" horiz-adv-x="778" 
d="M608 154q131 -67 131 -207q0 -118 -93 -189t-257 -71q-168 0 -258 65t-90 168q0 64 31 116t86 85q-82 70 -82 203q0 109 87.5 182.5t237.5 73.5q143 0 224.5 -66.5t81.5 -169.5q0 -53 -25.5 -103.5t-73.5 -86.5zM391 377q-29 0 -45 -18.5t-16 -51.5q0 -35 15 -54.5
t54 -31.5l19 -6q35 43 35 96q0 31 -16.5 48.5t-45.5 17.5zM393 -113q34 0 54 20t20 54q0 36 -21.5 56t-68.5 32l-19 4q-47 -47 -47 -86q0 -37 22.5 -58.5t59.5 -21.5z" />
    <glyph glyph-name="uni2089" unicode="&#x2089;" horiz-adv-x="778" 
d="M391 580q163 0 257.5 -88t94.5 -234q0 -98 -44.5 -196.5t-176.5 -258.5l-71 -90h-287l-12 25l51 65q100 124 188 187l-4 4q-58 -21 -104 -21q-115 0 -181.5 75t-66.5 202q0 150 97 240t259 90zM442 162q29 45 29 96q0 40 -22 63t-60 23q-39 0 -61.5 -25.5t-22.5 -72.5
q0 -94 82 -94q28 0 55 10z" />
    <glyph glyph-name="lira" unicode="&#x20a4;" horiz-adv-x="1271" 
d="M680 377h559l-43 -377h-1075v377h153q39 50 39 127v18h-190v144h190v116h-190v144h190v45q0 80 19.5 155t61.5 141t102 115.5t145.5 78.5t187.5 30q176 3 338 -55l-24 -349l-19 -12q-127 53 -231 53q-162 0 -162 -192v-10h322v-144h-322v-116h322v-144h-322
q-3 -97 -51 -145z" />
    <glyph glyph-name="Euro" unicode="&#x20ac;" horiz-adv-x="1404" 
d="M1235 453h14l68 -373q-220 -121 -432 -121q-272 0 -437 145.5t-210 405.5h-150l47 141h86q-2 23 -2 70v37h-110l47 141h80q49 269 232.5 430.5t432.5 161.5q217 0 414 -117l-68 -370h-16q-135 110 -289 110q-204 0 -260 -215h446l-41 -141h-425v-31q0 -51 2 -76h399
l-41 -141h-332q57 -176 248 -176q149 0 297 119z" />
    <glyph glyph-name="uni2113" unicode="&#x2113;" horiz-adv-x="1003" 
d="M844 377h14l49 -320q-119 -96 -311 -96q-179 0 -288.5 77.5t-141.5 227.5l-51 -35l-103 166l142 97v538q0 233 113 354t329 121q174 0 269.5 -84.5t95.5 -248.5q0 -364 -400 -644v-71q0 -142 121 -142q90 0 162 60zM643 1311q-42 0 -62 -38t-20 -128v-369
q158 131 158 393q0 142 -76 142z" />
    <glyph glyph-name="uni2116" unicode="&#x2116;" horiz-adv-x="2328" 
d="M1874 887q-140 0 -233 85.5t-93 215.5t92.5 215.5t233.5 85.5q140 0 232 -85.5t92 -215.5t-92.5 -215.5t-231.5 -85.5zM1386 -6h-389l-292 477q-115 191 -199 352h-4q43 -245 43 -403v-420h-414v1450h432l256 -438q135 -229 187 -359h4q-41 234 -41 404v393h417v-1456z
M1874 1092q35 0 57.5 25.5t22.5 70.5q0 43 -22 69.5t-58 26.5q-38 0 -60 -26.5t-22 -69.5q0 -45 23 -70.5t59 -25.5zM2171 502h-596v198h596v-198z" />
    <glyph glyph-name="uni2117" unicode="&#x2117;" horiz-adv-x="1730" 
d="M866 -39q-217 0 -393 100t-274.5 274t-98.5 388q0 161 58 302.5t159 243.5t243.5 161t305.5 59q216 0 391.5 -100.5t274 -276t98.5 -389.5q0 -213 -98.5 -387.5t-274 -274.5t-391.5 -100zM860 106q130 0 244.5 48t196 130.5t129 196.5t47.5 242q0 129 -46 243.5
t-126.5 197.5t-194.5 131t-244 48q-174 0 -314.5 -82t-219 -224t-78.5 -314t77 -312.5t216 -222.5t313 -82zM848 287h-248v848h318q337 0 337 -289q0 -132 -79 -206.5t-228 -74.5h-100v-278zM848 940v-184h61q113 0 113 90q0 49 -27 71.5t-86 22.5h-61z" />
    <glyph glyph-name="trademark" unicode="&#x2122;" horiz-adv-x="2004" 
d="M537 606h-230v649h-239v195h708v-195h-239v-649zM1124 606h-217v844h275l223 -428h4l211 428h270v-844h-215v432v140h-4q-13 -24 -38.5 -70t-37.5 -70l-188 -358h-23l-184 358q-12 23 -36 69.5t-36 70.5h-4v-140v-432z" />
    <glyph glyph-name="uni2126" unicode="&#x2126;" horiz-adv-x="1697" 
d="M1618 819q0 -267 -199 -440h180v-379h-667v365q95 0 175.5 105.5t80.5 258.5q0 168 -94.5 271.5t-243.5 103.5q-150 0 -245 -103.5t-95 -271.5q0 -153 80.5 -258.5t175.5 -105.5v-365h-668v379h181q-199 173 -199 440q0 106 33.5 205.5t99.5 184t157.5 147.5t215 99
t264.5 36q140 0 263 -36t214.5 -99t157.5 -147.5t99.5 -184t33.5 -205.5z" />
    <glyph glyph-name="estimated" unicode="&#x212e;" horiz-adv-x="1726" 
d="M1624 668h-1120v-293q0 -104 116.5 -196.5t270.5 -92.5q165 0 297.5 66.5t222.5 191.5h12l25 -172q-233 -213 -561 -213q-152 0 -295 56.5t-252.5 155.5t-175.5 243.5t-66 308.5q0 233 100 408t277 267.5t406 92.5q223 0 394 -96t262 -261t91 -372q0 -67 -4 -94zM506 801
h729l-2 274q-1 54 -24.5 105.5t-67 94t-115 68t-160.5 25.5q-90 0 -162 -26.5t-114.5 -69.5t-64.5 -94t-21 -103z" />
    <glyph glyph-name="uni2153" unicode="&#x2153;" horiz-adv-x="1843" 
d="M500 610h-267v367q0 75 25 184l-4 2q-30 -26 -94 -63l-80 -47l-21 8l17 256l336 151h88v-858zM1104 1450h256l-395 -725l-367 -725h-258l440 809zM1456 -27q-81 0 -162 18t-133 44l43 227h15q97 -69 202 -69q90 0 90 73q0 72 -96 72h-121v162h115q45 0 69.5 20t24.5 58
q0 33 -20.5 51t-55.5 18q-50 0 -108 -20.5t-105 -53.5h-16l-41 218q60 28 150 51.5t172 23.5q132 0 209 -62.5t77 -166.5q0 -72 -38.5 -127.5t-112.5 -79.5v-4q83 -20 126.5 -74t43.5 -129q0 -111 -91 -180.5t-237 -69.5z" />
    <glyph glyph-name="uni2154" unicode="&#x2154;" horiz-adv-x="1843" 
d="M621 610h-623l-21 90l281 326q48 55 68 89t20 61t-18 43t-54 16q-101 0 -217 -86h-14l-41 254q59 28 148 51t167 23q138 0 222 -75.5t84 -195.5q0 -174 -146 -305l-22 -20q-35 -33 -105 -68v-4q118 27 172 27h99v-226zM1184 1450h258l-398 -725l-364 -725h-258l438 809z
M1536 -27q-80 0 -160.5 18t-132.5 44l43 227h14q94 -69 203 -69q88 0 88 73q0 72 -94 72h-121v162h115q44 0 69 20t25 58q0 33 -21 51t-57 18q-105 0 -213 -74h-14l-41 218q56 28 147.5 51.5t174.5 23.5q131 0 208.5 -63t77.5 -166q0 -71 -39 -127t-112 -80v-4
q83 -20 126.5 -74t43.5 -129q0 -110 -92 -180t-238 -70z" />
    <glyph glyph-name="uni2155" unicode="&#x2155;" horiz-adv-x="1843" 
d="M506 610h-266v367q0 79 24 184l-6 2q-34 -29 -92 -63l-80 -47l-20 8l16 256l336 151h88v-858zM1106 1450h258l-397 -725l-365 -725h-260l440 809zM1419 -27q-159 0 -295 66l41 225h17q91 -69 215 -69q56 0 84 25t28 65q0 39 -25.5 63.5t-74.5 24.5q-83 0 -152 -31
l-102 57l31 441h522v-215h-301l-4 -86q49 14 102 14q126 0 199.5 -73.5t73.5 -196.5q0 -141 -95 -225.5t-264 -84.5z" />
    <glyph glyph-name="uni2156" unicode="&#x2156;" horiz-adv-x="1843" 
d="M631 610h-623l-18 90l278 326q88 96 88 150q0 59 -69 59q-103 0 -219 -86h-15l-41 254q59 28 149 51t169 23q137 0 220 -75.5t83 -195.5q0 -174 -146 -305l-20 -20q-38 -33 -105 -68v-4q115 27 173 27h96v-226zM1182 1450h258l-398 -725l-364 -725h-258l438 809z
M1495 -27q-159 0 -295 66l43 225h14q91 -69 216 -69q56 0 84 25t28 65q0 39 -25.5 63.5t-74.5 24.5q-83 0 -152 -31l-102 57l31 441h522v-215h-301l-4 -86q52 14 102 14q126 0 199 -73.5t73 -196.5q0 -141 -94.5 -225.5t-263.5 -84.5z" />
    <glyph glyph-name="uni2157" unicode="&#x2157;" horiz-adv-x="1843" 
d="M315 584q-82 0 -163 18t-132 45l43 225h15q101 -69 203 -69q45 0 67.5 19.5t22.5 54.5q0 71 -97 71h-118v162h112q44 0 69 20.5t25 57.5q0 33 -20.5 52.5t-54.5 19.5q-50 0 -108.5 -21t-104.5 -55h-17l-39 217q57 28 147.5 52t172.5 24q132 0 209.5 -63t77.5 -165
q0 -71 -39 -127.5t-113 -81.5v-2q83 -21 126.5 -74.5t43.5 -127.5q0 -111 -91 -181.5t-237 -70.5zM1161 1450h256l-395 -725l-367 -725h-258l441 809zM1468 -27q-158 0 -294 66l40 225h17q91 -69 215 -69q56 0 84.5 25t28.5 65q0 39 -26 63.5t-75 24.5q-82 0 -151 -31
l-103 57l31 441h522v-215h-301l-6 -86q52 14 104 14q126 0 199.5 -73.5t73.5 -196.5q0 -141 -95 -225.5t-264 -84.5z" />
    <glyph glyph-name="uni2158" unicode="&#x2158;" horiz-adv-x="1843" 
d="M618 610h-260v140h-372l-29 180l350 522h311v-481h93v-221h-93v-140zM1219 1450h258l-398 -725l-364 -725h-260l440 809zM285 1069l-66 -98h146v57q0 113 18 205h-6q-33 -77 -92 -164zM1526 -27q-159 0 -295 66l43 225h14q91 -69 215 -69q57 0 85 24.5t28 65.5
q0 39 -25 63.5t-75 24.5q-84 0 -150 -31l-102 57l30 441h523v-215h-301l-7 -86q52 14 103 14q126 0 200 -73.5t74 -196.5q0 -140 -95.5 -225t-264.5 -85z" />
    <glyph glyph-name="uni2159" unicode="&#x2159;" horiz-adv-x="1843" 
d="M526 610h-266v367q0 75 25 184l-6 2q-32 -27 -93 -63l-80 -47l-20 8l16 256l336 151h88v-858zM805 809l323 641h258l-397 -725l-364 -725h-260zM1509 580q115 0 181.5 -75t66.5 -202q0 -150 -97 -240t-259 -90q-163 0 -257.5 89t-94.5 239q0 92 46 190.5t179 258.5l74 90
h286l13 -25l-54 -65q-94 -117 -192 -187l4 -4q59 21 104 21zM1403 209q39 0 61.5 25.5t22.5 72.5q0 94 -82 94q-28 0 -55 -10q-29 -45 -29 -96q0 -40 22 -63t60 -23z" />
    <glyph glyph-name="uni215A" unicode="&#x215a;" horiz-adv-x="1843" 
d="M678 895q0 -142 -95 -226.5t-264 -84.5q-160 0 -294 65l43 225h14q96 -69 215 -69q57 0 85 24.5t28 65.5q0 40 -25.5 65t-75.5 25q-73 0 -149 -31l-103 58l31 438h522v-213h-301l-6 -88q59 16 103 16q126 0 199 -73.5t73 -196.5zM866 809l324 641h256l-395 -725
l-367 -725h-258zM1571 580q115 0 181.5 -75t66.5 -202q0 -150 -97.5 -240t-259.5 -90q-163 0 -257.5 89t-94.5 239q0 92 46 190.5t179 258.5l74 90h287l12 -25l-53 -65q-93 -116 -193 -187l4 -4q58 21 105 21zM1464 209q39 0 61.5 25.5t22.5 72.5q0 94 -82 94q-28 0 -55 -10
q-29 -45 -29 -96q0 -40 22 -63t60 -23z" />
    <glyph glyph-name="oneeighth" unicode="&#x215b;" horiz-adv-x="1843" 
d="M500 610h-267v367q0 75 25 184l-6 2q-34 -29 -92 -63l-80 -47l-21 8l17 256l334 151h90v-858zM780 809l324 641h258l-397 -725l-365 -725h-258zM1653 440q131 -67 131 -207q0 -118 -93 -189t-257 -71q-168 0 -258.5 65.5t-90.5 168.5q0 63 32 115.5t87 85.5
q-84 70 -84 202q0 109 88 182.5t238 73.5q144 0 225.5 -66t81.5 -169q0 -54 -25.5 -105.5t-74.5 -85.5zM1436 664q-29 0 -45.5 -19t-16.5 -51q0 -35 15.5 -54.5t54.5 -31.5l18 -6q35 43 35 96q0 31 -16 48.5t-45 17.5zM1438 174q34 0 53.5 20t19.5 54q0 36 -21.5 56
t-68.5 32l-18 4q-47 -47 -47 -86q0 -37 22.5 -58.5t59.5 -21.5z" />
    <glyph glyph-name="threeeighths" unicode="&#x215c;" horiz-adv-x="1843" 
d="M637 838q0 -111 -91 -181.5t-237 -70.5q-82 0 -163 18t-132 45l43 225h15q101 -69 202 -69q43 0 65.5 19.5t22.5 54.5q0 71 -94 71h-121v162h115q44 0 69 20.5t25 57.5q0 33 -20.5 52.5t-54.5 19.5q-109 0 -215 -76h-15l-41 217q61 29 150.5 52.5t171.5 23.5
q132 0 209 -62.5t77 -165.5q0 -72 -38.5 -128t-112.5 -81v-2q83 -21 126.5 -74.5t43.5 -127.5zM834 809l323 641h258l-397 -725l-365 -725h-258zM1702 440q131 -67 131 -207q0 -118 -93 -189t-257 -71q-168 0 -258 65.5t-90 168.5q0 63 31.5 115.5t86.5 85.5q-84 70 -84 202
q0 109 88 182.5t238 73.5q144 0 225.5 -66t81.5 -169q0 -54 -25.5 -105.5t-74.5 -85.5zM1485 664q-29 0 -45.5 -19t-16.5 -51q0 -35 15.5 -54.5t54.5 -31.5l18 -6q35 43 35 96q0 31 -16 48.5t-45 17.5zM1487 174q34 0 54 20t20 54q0 36 -22 56t-69 32l-18 4q-47 -47 -47 -86
q0 -37 22.5 -58.5t59.5 -21.5z" />
    <glyph glyph-name="fiveeighths" unicode="&#x215d;" horiz-adv-x="1843" 
d="M664 895q0 -142 -96 -226.5t-265 -84.5q-161 0 -295 65l43 225h15q96 -69 215 -69q57 0 84.5 24.5t27.5 65.5t-25 65.5t-75 24.5q-74 0 -150 -31l-102 58l31 438h522v-213h-301l-6 -88q59 16 102 16q127 0 201 -74t74 -196zM838 809l325 641h256l-395 -725l-367 -725
h-258zM1702 438q133 -65 133 -205q0 -118 -93 -189t-257 -71q-168 0 -259 65.5t-91 168.5q0 63 31.5 115.5t86.5 85.5q-84 72 -84 202q0 109 88 182.5t238 73.5q144 0 225.5 -66t81.5 -169q0 -54 -25.5 -106t-74.5 -87zM1487 664q-29 0 -45.5 -19t-16.5 -51q0 -34 15 -54
t53 -32l18 -6q37 42 37 96q0 31 -16.5 48.5t-44.5 17.5zM1487 174q35 0 54.5 20t19.5 54q0 36 -20.5 56t-67.5 32l-19 4q-47 -44 -47 -86q0 -36 22 -58t58 -22z" />
    <glyph glyph-name="seveneighths" unicode="&#x215e;" horiz-adv-x="1843" 
d="M760 1450l10 -35l-375 -805h-239l-19 37l254 574h-303v229h672zM760 809l323 641h258l-397 -725l-364 -725h-261zM1624 438q133 -65 133 -205q0 -118 -94 -189t-258 -71q-167 0 -257.5 65.5t-90.5 168.5q0 63 32 115.5t87 85.5q-84 70 -84 202q0 109 87.5 182.5
t237.5 73.5q144 0 225.5 -66t81.5 -169q0 -53 -26 -105t-74 -88zM1407 664q-28 0 -44.5 -19t-16.5 -51q0 -34 15.5 -54t53.5 -32l19 -6q34 42 34 96q0 31 -16 48.5t-45 17.5zM1409 174q34 0 54 20t20 54q0 36 -21.5 56t-68.5 32l-17 4q-47 -44 -47 -86q0 -37 21.5 -58.5
t58.5 -21.5z" />
    <glyph glyph-name="arrowleft" unicode="&#x2190;" horiz-adv-x="1957" 
d="M1243 80h-395l-615 629l615 628h395v-16l-244 -258q-116 -129 -198 -193l2 -4q81 8 225 8h696v-331h-696q-144 0 -225 8l-2 -4q82 -64 198 -193l244 -258v-16z" />
    <glyph glyph-name="arrowup" unicode="&#x2191;" horiz-adv-x="1847" 
d="M1090 0h-334v696q0 142 8 226l-4 2q-57 -78 -191 -201l-258 -242h-16v396l629 614l628 -614v-396h-16l-260 242q-132 125 -191 201l-4 -2q9 -94 9 -226v-696z" />
    <glyph glyph-name="arrowright" unicode="&#x2192;" horiz-adv-x="1957" 
d="M1110 80h-395v16l241 258q127 138 201 193l-2 4q-84 -8 -225 -8h-697v331h697q141 0 225 -8l2 4q-74 55 -201 193l-241 258v16h395l614 -628z" />
    <glyph glyph-name="arrowdown" unicode="&#x2193;" horiz-adv-x="1847" 
d="M1552 573l-628 -614l-629 614v396h16l258 -242q134 -123 191 -201l4 2q-8 84 -8 226v696h334v-696q0 -132 -9 -226l4 -2q59 76 191 201l260 242h16v-396z" />
    <glyph glyph-name="arrowboth" unicode="&#x2194;" horiz-adv-x="2797" 
d="M1243 80h-395l-615 629l615 628h395v-16l-244 -258q-116 -129 -198 -193l2 -4q81 8 225 8h766q125 0 201 -8l2 4q-74 55 -201 193l-242 258v16h396l614 -628l-614 -629h-396v16l242 258q127 138 201 193l-2 4q-76 -8 -201 -8h-766q-144 0 -225 8l-2 -4q82 -64 198 -193
l244 -258v-16z" />
    <glyph glyph-name="arrowupdn" unicode="&#x2195;" horiz-adv-x="1847" 
d="M1552 123l-628 -615l-629 615v395h16l258 -242q136 -125 191 -200l4 2q-8 84 -8 225v676q0 125 8 201l-4 2q-58 -82 -191 -201l-258 -242h-16v396l629 614l628 -614v-396h-16l-260 242q-131 120 -191 201l-4 -2q9 -86 9 -201v-676q0 -131 -9 -225l4 -2q56 72 191 200
l260 242h16v-395z" />
    <glyph glyph-name="uni2196" unicode="&#x2196;" horiz-adv-x="1835" 
d="M1556 299l-235 -236l-492 492q-94 98 -153 168l-4 -2q13 -91 6 -277l-10 -354l-13 -14l-278 280l10 879l879 10l278 -278l-12 -13l-354 -10q-169 -10 -277 6l-2 -4q80 -67 168 -155z" />
    <glyph glyph-name="uni2197" unicode="&#x2197;" horiz-adv-x="1835" 
d="M1004 555l-492 -492l-236 236l492 492q88 88 168 155l-2 4q-109 -16 -279 -6l-352 10l-14 13l280 278l879 -10l10 -879l-278 -280l-13 14l-10 354q-10 168 6 277l-4 2q-67 -80 -155 -168z" />
    <glyph glyph-name="uni2198" unicode="&#x2198;" horiz-adv-x="1835" 
d="M1448 72l-879 -11l-280 279l14 12l352 10q188 7 279 -6l2 4q-62 52 -168 154l-492 492l236 235l492 -489q88 -88 155 -168l4 2q-16 108 -6 276l10 355l13 12l278 -279z" />
    <glyph glyph-name="uni2199" unicode="&#x2199;" horiz-adv-x="1835" 
d="M1544 340l-278 -279l-879 11l-10 878l278 279l13 -12l10 -355q7 -186 -6 -276l4 -2q59 70 153 168l492 489l235 -235l-489 -492q-106 -102 -168 -154l2 -4q91 13 277 6l354 -10z" />
    <glyph glyph-name="partialdiff" unicode="&#x2202;" horiz-adv-x="1433" 
d="M717 1489q143 0 251 -68t171 -186t93 -264.5t28 -317.5q-3 -335 -160.5 -513.5t-435.5 -178.5q-136 0 -247.5 59t-179 172.5t-67.5 260.5q0 186 115.5 321t285.5 135q175 0 301 -129q-7 194 -66.5 296t-162.5 102q-100 0 -197 -109l-18 -2l-217 154q73 121 206 194.5
t300 73.5zM707 287q78 0 122.5 58.5t34.5 152.5q-63 86 -168 86q-56 0 -95.5 -39.5t-39.5 -106.5q0 -70 38 -110.5t108 -40.5z" />
    <glyph glyph-name="emptyset" unicode="&#x2205;" horiz-adv-x="1417" 
d="M1280 1219l-152 -183q166 -160 166 -403q0 -160 -76.5 -291.5t-209.5 -207t-295 -75.5q-182 0 -324 93l-92 -111h-150l152 182q-79 78 -122.5 183.5t-43.5 226.5q0 119 44.5 224t121.5 179.5t184.5 118t229.5 43.5q180 0 325 -90l92 111h150zM440 631q0 -97 54 -174
l354 422q-59 36 -135 36q-114 0 -193.5 -82t-79.5 -202zM713 344q119 0 196.5 81.5t77.5 205.5q0 95 -55 172l-352 -424q59 -35 133 -35z" />
    <glyph glyph-name="uni2206" unicode="&#x2206;" horiz-adv-x="1503" 
d="M496 1450h520l493 -1440l-10 -10h-1497l-8 10zM655 670l-104 -373h393l-106 373q-63 225 -88 426h-7q-28 -190 -88 -426z" />
    <glyph glyph-name="product" unicode="&#x220f;" horiz-adv-x="1529" 
d="M553 -446h-426v1529h-107v367h1489v-367h-106v-1529h-424v1529h-426v-1529z" />
    <glyph glyph-name="summation" unicode="&#x2211;" horiz-adv-x="1325" 
d="M1298 -451h-1271v316l540 676l-518 594v313h1227v-367h-694l456 -540l-491 -625h751v-367z" />
    <glyph glyph-name="minus" unicode="&#x2212;" horiz-adv-x="1417" 
d="M1262 489h-1106v263h1106v-263z" />
    <glyph glyph-name="uni2215" unicode="&#x2215;" horiz-adv-x="800" 
d="M600 1546h356l-753 -1642h-361z" />
    <glyph glyph-name="uni2219" unicode="&#x2219;" horiz-adv-x="901" 
d="M451 401q-100 0 -164 65t-64 159q0 92 65 153.5t163 61.5q99 0 163 -61t64 -154q0 -94 -64 -159t-163 -65z" />
    <glyph glyph-name="radical" unicode="&#x221a;" horiz-adv-x="1380" 
d="M893 -6h-481l-228 569h-151v369h444l168 -524h10l275 1042h446z" />
    <glyph glyph-name="infinity" unicode="&#x221e;" horiz-adv-x="1417" 
d="M383 233q-155 0 -252.5 109.5t-97.5 280.5q0 168 94.5 275.5t247.5 107.5q104 0 184 -50t150 -159q70 110 150 159.5t183 49.5q153 0 248.5 -107.5t95.5 -275.5q0 -171 -98.5 -280.5t-253.5 -109.5q-98 0 -173 46.5t-152 152.5q-77 -107 -152 -153t-174 -46zM422 500
q86 0 141 116q-38 65 -72 94t-73 29q-48 0 -74.5 -33.5t-26.5 -87.5q0 -56 26 -87t79 -31zM995 500q53 0 79 31t26 87q0 54 -26.5 87.5t-72.5 33.5q-40 0 -74.5 -28.5t-72.5 -94.5q58 -116 141 -116z" />
    <glyph glyph-name="integral" unicode="&#x222b;" horiz-adv-x="835" 
d="M227 -492q-49 0 -111 10.5t-96 22.5v277l35 12q51 -29 107 -29q54 0 78 49.5t24 178.5v1233q0 145 15 235t55 149t105 82t169 23q49 0 111 -10.5t96 -22.5v-276l-35 -12q-52 28 -106 28q-55 0 -79 -49t-24 -178v-1233q0 -145 -15 -235t-55 -149t-105 -82.5t-169 -23.5z
" />
    <glyph glyph-name="approxequal" unicode="&#x2248;" horiz-adv-x="1417" 
d="M924 655q-68 0 -129.5 21.5t-100 46.5t-89.5 46.5t-99 21.5q-101 0 -172 -132l-19 -2l-184 117q155 283 363 283q72 0 133 -21t96.5 -46.5t84 -46.5t99.5 -21q105 0 176 129l21 4l182 -117q-155 -283 -362 -283zM924 190q-68 0 -129.5 21t-100 46t-89.5 46t-99 21
q-103 0 -172 -129l-19 -5l-184 119q155 283 363 283q72 0 133 -21t96.5 -46.5t84 -46.5t99.5 -21q107 0 176 129l21 4l182 -119q-154 -281 -362 -281z" />
    <glyph glyph-name="notequal" unicode="&#x2260;" horiz-adv-x="1417" 
d="M1262 961v-265h-375l-68 -149h443v-262h-560l-106 -236h-262l106 236h-284v262h401l68 149h-469v265h585l105 231h262l-104 -231h258z" />
    <glyph glyph-name="lessequal" unicode="&#x2264;" horiz-adv-x="1417" 
d="M176 987l1065 379v-293l-647 -207l647 -204v-293l-1065 379v239zM1241 0h-1065v262h1065v-262z" />
    <glyph glyph-name="greaterequal" unicode="&#x2265;" horiz-adv-x="1417" 
d="M176 1073v293l1065 -379v-239l-1065 -379v293l649 204zM1241 0h-1065v262h1065v-262z" />
    <glyph glyph-name="lozenge" unicode="&#x25ca;" horiz-adv-x="1423" 
d="M836 -39h-256l-373 764l375 764h254l383 -764zM518 725l191 -416l196 416l-196 418z" />
    <glyph glyph-name="fi" unicode="&#xfb01;" horiz-adv-x="1482" 
d="M1174 1135q-101 0 -166.5 58.5t-65.5 149.5q0 92 65 149.5t167 57.5q103 0 166 -57.5t63 -149.5q0 -91 -64 -149.5t-165 -58.5zM582 0h-404v721h-151v301h151v45q0 251 102 365t338 114q59 0 135 -10.5t124 -28.5l-23 -311l-20 -12q-62 30 -136 30q-63 0 -89.5 -33
t-26.5 -118v-41h245v-301h-245v-721zM1374 0h-403v1022h403v-1022z" />
    <glyph glyph-name="fl" unicode="&#xfb02;" horiz-adv-x="1492" 
d="M582 0h-404v721h-151v301h151v45q0 251 102 365t338 114q59 0 135 -10.5t124 -28.5l-23 -311l-20 -12q-62 30 -136 30q-63 0 -89.5 -33t-26.5 -118v-41h245v-301h-245v-721zM1384 0h-403v1505h403v-1505z" />
    <glyph glyph-name="i.loclTRK" horiz-adv-x="618" 
d="M309 1145q-101 0 -165 57t-64 148q0 89 64 144.5t165 55.5q103 0 166.5 -55.5t63.5 -144.5q0 -91 -64.5 -148t-165.5 -57zM510 0h-404v1022h404v-1022z" />
    <glyph glyph-name="a.sc" horiz-adv-x="1269" 
d="M381 1110h508l385 -1100l-8 -10h-441l-41 156h-301l-39 -156h-438l-10 10zM547 406l-4 -19h182l-4 19q-72 353 -84 442h-6q-11 -85 -84 -442z" />
    <glyph glyph-name="aacute.sc" horiz-adv-x="1269" 
d="M973 1632l12 -18l-303 -348h-258l205 366h344zM381 1110h508l385 -1100l-8 -10h-441l-41 156h-301l-39 -156h-438l-10 10zM547 406l-4 -19h182l-4 19q-72 353 -84 442h-6q-11 -85 -84 -442z" />
    <glyph glyph-name="abreve.sc" horiz-adv-x="1269" 
d="M637 1257q-160 0 -251.5 73t-106.5 218l22 17h184q6 -50 46 -76.5t106 -26.5q65 0 104.5 26.5t46.5 76.5h185l20 -17q-13 -144 -105 -217.5t-251 -73.5zM381 1110h508l385 -1100l-8 -10h-441l-41 156h-301l-39 -156h-438l-10 10zM547 406l-4 -19h182l-4 19
q-72 353 -84 442h-6q-11 -85 -84 -442z" />
    <glyph glyph-name="acircumflex.sc" horiz-adv-x="1269" 
d="M637 1458l-143 -192h-250l-17 20l246 348h328l246 -348l-19 -20h-250zM381 1110h508l385 -1100l-8 -10h-441l-41 156h-301l-39 -156h-438l-10 10zM547 406l-4 -19h182l-4 19q-72 353 -84 442h-6q-11 -85 -84 -442z" />
    <glyph glyph-name="adieresis.sc" horiz-adv-x="1269" 
d="M422 1298q-73 0 -122.5 50t-49.5 122t49.5 122t122.5 50q72 0 121 -50t49 -122t-49 -122t-121 -50zM852 1298q-73 0 -121.5 49.5t-48.5 122.5t48.5 122.5t121.5 49.5t121.5 -49.5t48.5 -122.5t-48.5 -122.5t-121.5 -49.5zM381 1110h508l385 -1100l-8 -10h-441l-41 156
h-301l-39 -156h-438l-10 10zM547 406l-4 -19h182l-4 19q-72 353 -84 442h-6q-11 -85 -84 -442z" />
    <glyph glyph-name="agrave.sc" horiz-adv-x="1269" 
d="M645 1634l205 -366h-258l-303 348l12 18h344zM381 1110h508l385 -1100l-8 -10h-441l-41 156h-301l-39 -156h-438l-10 10zM547 406l-4 -19h182l-4 19q-72 353 -84 442h-6q-11 -85 -84 -442z" />
    <glyph glyph-name="amacron.sc" horiz-adv-x="1269" 
d="M305 1524h662v-219h-662v219zM381 1110h508l385 -1100l-8 -10h-441l-41 156h-301l-39 -156h-438l-10 10zM547 406l-4 -19h182l-4 19q-72 353 -84 442h-6q-11 -85 -84 -442z" />
    <glyph glyph-name="aogonek.sc" horiz-adv-x="1269" 
d="M1266 0h-74q-76 -63 -115 -123.5t-39 -109.5q0 -52 56 -52q55 0 116 39h15l22 -182q-107 -57 -248 -57q-105 0 -163 48t-58 132q0 178 217 305h-170l-41 156h-301l-39 -156h-438l-10 10l385 1100h508l385 -1100zM547 406l-4 -19h182l-4 19q-72 353 -84 442h-6
q-11 -85 -84 -442z" />
    <glyph glyph-name="aring.sc" horiz-adv-x="1269" 
d="M635 1239q-95 0 -162 66t-67 163q0 96 67 162t162 66q96 0 163.5 -66t67.5 -162q0 -97 -67.5 -163t-163.5 -66zM635 1579q-47 0 -79 -33t-32 -78q0 -46 32 -79t79 -33q49 0 81 32.5t32 79.5q0 45 -32.5 78t-80.5 33zM381 1110h508l385 -1100l-8 -10h-441l-41 156h-301
l-39 -156h-438l-10 10zM547 406l-4 -19h182l-4 19q-72 353 -84 442h-6q-11 -85 -84 -442z" />
    <glyph glyph-name="atilde.sc" horiz-adv-x="1269" 
d="M438 1286l-16 -12h-158q6 124 70 203t158 79q60 0 146 -38.5t124 -38.5q30 0 46.5 15.5t25.5 49.5l16 12h158q-6 -124 -70 -203t-158 -79q-51 0 -100 19.5t-92 39t-78 19.5q-54 0 -72 -66zM381 1110h508l385 -1100l-8 -10h-441l-41 156h-301l-39 -156h-438l-10 10z
M547 406l-4 -19h182l-4 19q-72 353 -84 442h-6q-11 -85 -84 -442z" />
    <glyph glyph-name="ae.sc" horiz-adv-x="1646" 
d="M1505 465h-360v-152h424l-35 -313h-782v156h-224l-61 -156h-463l-8 12l510 1098h1028l35 -313h-424v-148h360v-184zM662 485l-39 -98h129v98q0 148 14 316h-6q-51 -185 -98 -316z" />
    <glyph glyph-name="b.sc" horiz-adv-x="1148" 
d="M643 0h-528v1110h524q208 0 314 -77.5t106 -211.5q0 -89 -52 -153.5t-143 -87.5v-9q240 -51 240 -260q0 -150 -114.5 -230.5t-346.5 -80.5zM520 844v-180h68q104 0 104 90t-104 90h-68zM520 479v-196h82q63 0 92 22.5t29 73.5q0 100 -117 100h-86z" />
    <glyph glyph-name="c.sc" horiz-adv-x="1083" 
d="M655 -41q-268 0 -424.5 160t-156.5 434q0 181 77 317.5t211 208.5t306 72q180 0 350 -92l-72 -371h-16q-120 94 -228 94q-91 0 -148.5 -60.5t-57.5 -164.5q0 -105 55.5 -166t144.5 -61q116 0 236 98h16l70 -375q-180 -94 -363 -94z" />
    <glyph glyph-name="cacute.sc" horiz-adv-x="1083" 
d="M676 1266h-258l205 366h344l12 -18zM655 -41q-268 0 -424.5 160t-156.5 434q0 181 77 317.5t211 208.5t306 72q180 0 350 -92l-72 -371h-16q-120 94 -228 94q-91 0 -148.5 -60.5t-57.5 -164.5q0 -105 55.5 -166t144.5 -61q116 0 236 98h16l70 -375q-180 -94 -363 -94z
" />
    <glyph glyph-name="ccaron.sc" horiz-adv-x="1083" 
d="M795 1266h-328l-246 348l17 18h249l144 -190l141 190h250l18 -18zM655 -41q-268 0 -424.5 160t-156.5 434q0 181 77 317.5t211 208.5t306 72q180 0 350 -92l-72 -371h-16q-120 94 -228 94q-91 0 -148.5 -60.5t-57.5 -164.5q0 -105 55.5 -166t144.5 -61q116 0 236 98h16
l70 -375q-180 -94 -363 -94z" />
    <glyph glyph-name="ccedilla.sc" horiz-adv-x="1083" 
d="M948 428l70 -375q-147 -79 -301 -92l-35 -76q24 4 47 4q74 0 123 -45t49 -118q0 -100 -83 -159t-218 -59q-125 0 -223 43l26 166l19 4q70 -45 153 -45q36 0 55 15t19 39q0 21 -14 34t-41 13q-28 0 -74 -17l-51 45l63 164q-216 35 -337 189t-121 395q0 181 77 317.5
t211 208.5t306 72q180 0 350 -92l-72 -371h-16q-120 94 -228 94q-91 0 -148.5 -60.5t-57.5 -164.5q0 -105 55.5 -166t144.5 -61q116 0 236 98h16z" />
    <glyph glyph-name="cdotaccent.sc" horiz-adv-x="1083" 
d="M629 1288q-90 0 -145.5 49.5t-55.5 130.5q0 79 56 129t145 50t144.5 -49.5t55.5 -129.5q0 -81 -55 -130.5t-145 -49.5zM655 -41q-268 0 -424.5 160t-156.5 434q0 181 77 317.5t211 208.5t306 72q180 0 350 -92l-72 -371h-16q-120 94 -228 94q-91 0 -148.5 -60.5
t-57.5 -164.5q0 -105 55.5 -166t144.5 -61q116 0 236 98h16l70 -375q-180 -94 -363 -94z" />
    <glyph glyph-name="d.sc" horiz-adv-x="1296" 
d="M559 0h-444v1110h465q303 0 476 -151t173 -398q0 -256 -180.5 -408.5t-489.5 -152.5zM524 764v-418h56q118 0 175.5 51t57.5 160q0 207 -229 207h-60z" />
    <glyph glyph-name="eth.sc" horiz-adv-x="1296" 
d="M115 1110h465q303 0 476 -151t173 -398q0 -256 -180.5 -408.5t-489.5 -152.5h-444v487h-119v140h119v483zM524 346h56q118 0 175.5 51t57.5 160q0 207 -229 207h-60v-137h133v-140h-133v-141z" />
    <glyph glyph-name="dcroat.sc" horiz-adv-x="1296" 
d="M115 1110h465q303 0 476 -151t173 -398q0 -256 -180.5 -408.5t-489.5 -152.5h-444v487h-119v140h119v483zM524 346h56q118 0 175.5 51t57.5 160q0 207 -229 207h-60v-137h133v-140h-133v-141z" />
    <glyph glyph-name="e.sc" horiz-adv-x="1021" 
d="M881 465h-361v-152h424l-35 -313h-794v1110h794l35 -313h-424v-146h361v-186z" />
    <glyph glyph-name="eacute.sc" horiz-adv-x="1021" 
d="M858 1632l12 -18l-303 -348h-258l205 366h344zM881 465h-361v-152h424l-35 -313h-794v1110h794l35 -313h-424v-146h361v-186z" />
    <glyph glyph-name="ecaron.sc" horiz-adv-x="1021" 
d="M930 1614l-246 -348h-328l-245 348l16 18h250l143 -190l142 190h249zM881 465h-361v-152h424l-35 -313h-794v1110h794l35 -313h-424v-146h361v-186z" />
    <glyph glyph-name="ecircumflex.sc" horiz-adv-x="1021" 
d="M520 1458l-143 -192h-250l-16 20l245 348h328l246 -348l-19 -20h-249zM881 465h-361v-152h424l-35 -313h-794v1110h794l35 -313h-424v-146h361v-186z" />
    <glyph glyph-name="edieresis.sc" horiz-adv-x="1021" 
d="M305 1298q-73 0 -122.5 50t-49.5 122t49.5 122t122.5 50q72 0 121 -50t49 -122t-49 -122t-121 -50zM735 1298q-73 0 -121.5 49.5t-48.5 122.5t48.5 122.5t121.5 49.5t121.5 -49.5t48.5 -122.5t-48.5 -122.5t-121.5 -49.5zM881 465h-361v-152h424l-35 -313h-794v1110h794
l35 -313h-424v-146h361v-186z" />
    <glyph glyph-name="edotaccent.sc" horiz-adv-x="1021" 
d="M520 1288q-90 0 -145.5 49.5t-55.5 130.5q0 79 56 129t145 50t145 -50t56 -129q0 -81 -55.5 -130.5t-145.5 -49.5zM881 465h-361v-152h424l-35 -313h-794v1110h794l35 -313h-424v-146h361v-186z" />
    <glyph glyph-name="egrave.sc" horiz-adv-x="1021" 
d="M528 1634l205 -366h-258l-303 348l12 18h344zM881 465h-361v-152h424l-35 -313h-794v1110h794l35 -313h-424v-146h361v-186z" />
    <glyph glyph-name="emacron.sc" horiz-adv-x="1021" 
d="M190 1524h662v-219h-662v219zM881 465h-361v-152h424l-35 -313h-794v1110h794l35 -313h-424v-146h361v-186z" />
    <glyph glyph-name="eogonek.sc" horiz-adv-x="1021" 
d="M881 465h-361v-152h424l-35 -313h-59q-76 -63 -115 -123.5t-39 -109.5q0 -52 56 -52q55 0 116 39h15l22 -182q-107 -57 -248 -57q-105 0 -163 48t-58 132q0 178 217 305h-538v1110h794l35 -313h-424v-146h361v-186z" />
    <glyph glyph-name="f.sc" horiz-adv-x="991" 
d="M928 780h-400v-162h338v-249h-338v-369h-413v1110h776z" />
    <glyph glyph-name="g.sc" horiz-adv-x="1218" 
d="M674 -41q-275 0 -437.5 160t-162.5 424q0 275 174.5 441.5t451.5 166.5q224 0 416 -92l-74 -357h-14q-155 95 -297 95q-106 0 -169.5 -66.5t-63.5 -183.5q0 -116 51.5 -179t136.5 -63q40 0 82 17v112h-94v189h434v-562q-121 -55 -221 -78.5t-213 -23.5z" />
    <glyph glyph-name="gbreve.sc" horiz-adv-x="1218" 
d="M670 1257q-160 0 -252 73t-107 218l23 17h184q6 -50 46 -76.5t106 -26.5q65 0 104.5 26.5t46.5 76.5h185l20 -17q-13 -144 -105 -217.5t-251 -73.5zM674 -41q-275 0 -437.5 160t-162.5 424q0 275 174.5 441.5t451.5 166.5q224 0 416 -92l-74 -357h-14q-155 95 -297 95
q-106 0 -169.5 -66.5t-63.5 -183.5q0 -116 51.5 -179t136.5 -63q40 0 82 17v112h-94v189h434v-562q-121 -55 -221 -78.5t-213 -23.5z" />
    <glyph glyph-name="uni0123.sc" horiz-adv-x="1218" 
d="M674 -41q-275 0 -437.5 160t-162.5 424q0 275 174.5 441.5t451.5 166.5q224 0 416 -92l-74 -357h-14q-155 95 -297 95q-106 0 -169.5 -66.5t-63.5 -183.5q0 -116 51.5 -179t136.5 -63q40 0 82 17v112h-94v189h434v-562q-121 -55 -221 -78.5t-213 -23.5zM530 -125h301
l23 -35l-180 -430h-238z" />
    <glyph glyph-name="gdotaccent.sc" horiz-adv-x="1218" 
d="M670 1288q-90 0 -145.5 49.5t-55.5 130.5q0 79 56 129t145 50t144.5 -49.5t55.5 -129.5q0 -81 -55 -130.5t-145 -49.5zM674 -41q-275 0 -437.5 160t-162.5 424q0 275 174.5 441.5t451.5 166.5q224 0 416 -92l-74 -357h-14q-155 95 -297 95q-106 0 -169.5 -66.5
t-63.5 -183.5q0 -116 51.5 -179t136.5 -63q40 0 82 17v112h-94v189h434v-562q-121 -55 -221 -78.5t-213 -23.5z" />
    <glyph glyph-name="h.sc" horiz-adv-x="1345" 
d="M819 719v391h412v-1110h-412v395h-291v-395h-413v1110h413v-391h291z" />
    <glyph glyph-name="hbar.sc" horiz-adv-x="1345" 
d="M1231 1110v-98h110v-181h-110v-831h-412v395h-291v-395h-413v831h-109v181h109v98h413v-98h291v98h412zM528 719h291v112h-291v-112z" />
    <glyph glyph-name="i.sc" horiz-adv-x="645" 
d="M115 0v1110h415v-1110h-415z" />
    <glyph glyph-name="iacute.sc" horiz-adv-x="645" 
d="M369 1266h-258l204 366h344l13 -18zM115 0v1110h415v-1110h-415z" />
    <glyph glyph-name="icircumflex.sc" horiz-adv-x="645" 
d="M178 1266h-250l-16 20l246 348h327l246 -348l-18 -20h-250l-141 192zM115 0v1110h415v-1110h-415z" />
    <glyph glyph-name="idieresis.sc" horiz-adv-x="645" 
d="M106 1298q-73 0 -122.5 50t-49.5 122t49.5 122t122.5 50q72 0 121 -50t49 -122t-49 -122t-121 -50zM537 1298q-73 0 -121.5 49.5t-48.5 122.5t48.5 122.5t121.5 49.5t121.5 -49.5t48.5 -122.5t-48.5 -122.5t-121.5 -49.5zM115 0v1110h415v-1110h-415z" />
    <glyph glyph-name="i.sc.loclTRK" horiz-adv-x="645" 
d="M322 1288q-90 0 -145.5 49.5t-55.5 130.5q0 79 56 129t145 50t144.5 -49.5t55.5 -129.5q0 -81 -55 -130.5t-145 -49.5zM115 0v1110h415v-1110h-415z" />
    <glyph glyph-name="igrave.sc" horiz-adv-x="645" 
d="M535 1268h-259l-303 348l13 18h344zM115 0v1110h415v-1110h-415z" />
    <glyph glyph-name="imacron.sc" horiz-adv-x="645" 
d="M653 1305h-661v219h661v-219zM115 0v1110h415v-1110h-415z" />
    <glyph glyph-name="iogonek.sc" horiz-adv-x="645" 
d="M530 0h-65q-76 -63 -115 -123.5t-39 -109.5q0 -52 56 -52q55 0 116 39h15l22 -182q-107 -57 -248 -57q-105 0 -163 48t-58 132q0 178 217 305h-153v1110h415v-1110z" />
    <glyph glyph-name="j.sc" horiz-adv-x="665" 
d="M139 319v791h414v-704q0 -128 -16 -213t-61 -156.5t-117 -124.5t-191 -111l-164 232l2 26q83 44 108 94t25 166z" />
    <glyph glyph-name="k.sc" horiz-adv-x="1300" 
d="M1290 1098l-383 -439l391 -647l-6 -12h-442l-213 350l-109 -125v-225h-413v1110h413v-139q0 -162 -24 -334h8q58 140 156 272l155 201h459z" />
    <glyph glyph-name="uni0137.sc" horiz-adv-x="1300" 
d="M1290 1098l-383 -439l391 -647l-6 -12h-442l-213 350l-109 -125v-225h-413v1110h413v-139q0 -162 -24 -334h8q58 140 156 272l155 201h459zM455 -590l94 465h301l22 -35l-180 -430h-237z" />
    <glyph glyph-name="l.sc" horiz-adv-x="983" 
d="M115 0v1110h413v-745h433l-46 -365h-800z" />
    <glyph glyph-name="lacute.sc" horiz-adv-x="983" 
d="M369 1266h-258l204 366h344l13 -18zM115 0v1110h413v-745h433l-46 -365h-800z" />
    <glyph glyph-name="lcaron.sc" horiz-adv-x="983" 
d="M115 0v1110h413v-745h433l-46 -365h-800zM803 688h-172l45 422h229l19 -33z" />
    <glyph glyph-name="uni013C.sc" horiz-adv-x="983" 
d="M115 0v1110h413v-745h433l-46 -365h-800zM385 -125h301l23 -35l-181 -430h-237z" />
    <glyph glyph-name="lslash.sc" horiz-adv-x="983" 
d="M528 596v-231h433l-46 -365h-800v367l-109 -62v230l109 61v514h413v-285l191 107l2 -227z" />
    <glyph glyph-name="m.sc" horiz-adv-x="1556" 
d="M518 0h-403v1110h454l209 -471h4l205 471h453v-1110h-404v123q0 83 3.5 263.5t4.5 217.5h-4q-58 -123 -120 -246l-127 -260h-29l-129 260q-39 82 -121 246h-4q8 -290 8 -481v-123z" />
    <glyph glyph-name="n.sc" horiz-adv-x="1380" 
d="M522 0h-407v1110h430l155 -219q42 -68 62.5 -103.5t62.5 -123t93 -211.5h8q-41 181 -53.5 274t-12.5 174v209h406v-1114h-408l-176 248q-2 3 -15 23.5t-16 26t-16 26.5t-19 31.5t-19 33.5t-22 40t-23 44.5t-26.5 53.5t-28.5 59t-32 69h-8q41 -171 53 -258.5t12 -181.5
v-211z" />
    <glyph glyph-name="nacute.sc" horiz-adv-x="1380" 
d="M733 1266h-258l205 366h344l12 -18zM522 0h-407v1110h430l155 -219q42 -68 62.5 -103.5t62.5 -123t93 -211.5h8q-41 181 -53.5 274t-12.5 174v209h406v-1114h-408l-176 248q-2 3 -15 23.5t-16 26t-16 26.5t-19 31.5t-19 33.5t-22 40t-23 44.5t-26.5 53.5t-28.5 59t-32 69
h-8q41 -171 53 -258.5t12 -181.5v-211z" />
    <glyph glyph-name="ncaron.sc" horiz-adv-x="1380" 
d="M850 1266h-328l-246 348l17 18h250l143 -190l141 190h250l19 -18zM522 0h-407v1110h430l155 -219q42 -68 62.5 -103.5t62.5 -123t93 -211.5h8q-41 181 -53.5 274t-12.5 174v209h406v-1114h-408l-176 248q-2 3 -15 23.5t-16 26t-16 26.5t-19 31.5t-19 33.5t-22 40
t-23 44.5t-26.5 53.5t-28.5 59t-32 69h-8q41 -171 53 -258.5t12 -181.5v-211z" />
    <glyph glyph-name="uni0146.sc" horiz-adv-x="1380" 
d="M522 0h-407v1110h430l155 -219q42 -68 62.5 -103.5t62.5 -123t93 -211.5h8q-41 181 -53.5 274t-12.5 174v209h406v-1114h-408l-176 248q-2 3 -15 23.5t-16 26t-16 26.5t-19 31.5t-19 33.5t-22 40t-23 44.5t-26.5 53.5t-28.5 59t-32 69h-8q41 -171 53 -258.5t12 -181.5
v-211zM580 -125h301l22 -35l-180 -430h-238z" />
    <glyph glyph-name="eng.sc" horiz-adv-x="1382" 
d="M881 -492l-162 232l2 27q70 37 98.5 79.5t32.5 120.5v45l-170 232q-47 68 -94 153.5t-123 253.5h-8q42 -170 53.5 -256.5t11.5 -185.5v-209h-407v1110h430l157 -217q44 -72 63 -105.5t61.5 -122t93.5 -212.5h8q-41 184 -54.5 277t-13.5 171v209h408v-1004
q0 -167 -33.5 -270t-115 -178.5t-238.5 -149.5z" />
    <glyph glyph-name="ntilde.sc" horiz-adv-x="1380" 
d="M473 1274h-158q6 124 70 203t158 79q60 0 146 -38.5t124 -38.5q30 0 46.5 15.5t25.5 49.5l16 12h158q-6 -124 -70 -203t-158 -79q-51 0 -100 19.5t-92 39t-78 19.5q-54 0 -72 -66zM522 0h-407v1110h430l155 -219q42 -68 62.5 -103.5t62.5 -123t93 -211.5h8
q-41 181 -53.5 274t-12.5 174v209h406v-1114h-408l-176 248q-2 3 -15 23.5t-16 26t-16 26.5t-19 31.5t-19 33.5t-22 40t-23 44.5t-26.5 53.5t-28.5 59t-32 69h-8q41 -171 53 -258.5t12 -181.5v-211z" />
    <glyph glyph-name="o.sc" horiz-adv-x="1378" 
d="M690 -41q-174 0 -315 76t-221 212.5t-80 307.5q0 176 81 313t221 210t314 73q175 0 315 -73t221 -209.5t81 -313.5q0 -171 -80.5 -307.5t-221.5 -212.5t-315 -76zM690 326q87 0 140 63t53 166q0 108 -53 170.5t-140 62.5q-90 0 -142 -62.5t-52 -170.5q0 -103 52.5 -166
t141.5 -63z" />
    <glyph glyph-name="oacute.sc" horiz-adv-x="1378" 
d="M737 1266h-258l205 366h344l12 -18zM690 -41q-174 0 -315 76t-221 212.5t-80 307.5q0 176 81 313t221 210t314 73q175 0 315 -73t221 -209.5t81 -313.5q0 -171 -80.5 -307.5t-221.5 -212.5t-315 -76zM690 326q87 0 140 63t53 166q0 108 -53 170.5t-140 62.5
q-90 0 -142 -62.5t-52 -170.5q0 -103 52.5 -166t141.5 -63z" />
    <glyph glyph-name="ocircumflex.sc" horiz-adv-x="1378" 
d="M549 1266h-250l-16 20l245 348h328l246 -348l-19 -20h-249l-142 192zM690 -41q-174 0 -315 76t-221 212.5t-80 307.5q0 176 81 313t221 210t314 73q175 0 315 -73t221 -209.5t81 -313.5q0 -171 -80.5 -307.5t-221.5 -212.5t-315 -76zM690 326q87 0 140 63t53 166
q0 108 -53 170.5t-140 62.5q-90 0 -142 -62.5t-52 -170.5q0 -103 52.5 -166t141.5 -63z" />
    <glyph glyph-name="odieresis.sc" horiz-adv-x="1378" 
d="M475 1298q-73 0 -122.5 50t-49.5 122t49.5 122t122.5 50q72 0 121 -50t49 -122t-49 -122t-121 -50zM905 1298q-73 0 -121.5 49.5t-48.5 122.5t48.5 122.5t121.5 49.5t121.5 -49.5t48.5 -122.5t-48.5 -122.5t-121.5 -49.5zM690 -41q-174 0 -315 76t-221 212.5t-80 307.5
q0 176 81 313t221 210t314 73q175 0 315 -73t221 -209.5t81 -313.5q0 -171 -80.5 -307.5t-221.5 -212.5t-315 -76zM690 326q87 0 140 63t53 166q0 108 -53 170.5t-140 62.5q-90 0 -142 -62.5t-52 -170.5q0 -103 52.5 -166t141.5 -63z" />
    <glyph glyph-name="ograve.sc" horiz-adv-x="1378" 
d="M903 1268h-258l-303 348l12 18h344zM690 -41q-174 0 -315 76t-221 212.5t-80 307.5q0 176 81 313t221 210t314 73q175 0 315 -73t221 -209.5t81 -313.5q0 -171 -80.5 -307.5t-221.5 -212.5t-315 -76zM690 326q87 0 140 63t53 166q0 108 -53 170.5t-140 62.5
q-90 0 -142 -62.5t-52 -170.5q0 -103 52.5 -166t141.5 -63z" />
    <glyph glyph-name="ohungarumlaut.sc" horiz-adv-x="1378" 
d="M569 1266h-247l204 366h334l12 -18zM1012 1266h-248l205 366h334l10 -18zM690 -41q-174 0 -315 76t-221 212.5t-80 307.5q0 176 81 313t221 210t314 73q175 0 315 -73t221 -209.5t81 -313.5q0 -171 -80.5 -307.5t-221.5 -212.5t-315 -76zM690 326q87 0 140 63t53 166
q0 108 -53 170.5t-140 62.5q-90 0 -142 -62.5t-52 -170.5q0 -103 52.5 -166t141.5 -63z" />
    <glyph glyph-name="omacron.sc" horiz-adv-x="1378" 
d="M1022 1305h-662v219h662v-219zM690 -41q-174 0 -315 76t-221 212.5t-80 307.5q0 176 81 313t221 210t314 73q175 0 315 -73t221 -209.5t81 -313.5q0 -171 -80.5 -307.5t-221.5 -212.5t-315 -76zM690 326q87 0 140 63t53 166q0 108 -53 170.5t-140 62.5q-90 0 -142 -62.5
t-52 -170.5q0 -103 52.5 -166t141.5 -63z" />
    <glyph glyph-name="oslash.sc" horiz-adv-x="1378" 
d="M1260 1186l-144 -185q91 -80 141 -194t50 -252q0 -171 -80.5 -307.5t-221.5 -212.5t-315 -76q-181 0 -323 82l-91 -117h-155l145 187q-91 81 -141.5 195.5t-50.5 248.5q0 176 81 313t221 210t314 73q179 0 326 -80l88 115h156zM492 555q0 -73 24 -125l266 344
q-47 21 -92 21q-92 0 -145 -64t-53 -176zM690 317q92 0 145.5 65t53.5 173q0 67 -23 125l-266 -342q44 -21 90 -21z" />
    <glyph glyph-name="otilde.sc" horiz-adv-x="1378" 
d="M477 1274h-158q6 124 70 203t158 79q60 0 146 -38.5t124 -38.5q30 0 46.5 15.5t25.5 49.5l16 12h158q-6 -124 -69.5 -203t-157.5 -79q-51 0 -100.5 19.5t-92.5 39t-78 19.5q-29 0 -45.5 -16t-25.5 -50zM690 -41q-174 0 -315 76t-221 212.5t-80 307.5q0 176 81 313
t221 210t314 73q175 0 315 -73t221 -209.5t81 -313.5q0 -171 -80.5 -307.5t-221.5 -212.5t-315 -76zM690 326q87 0 140 63t53 166q0 108 -53 170.5t-140 62.5q-90 0 -142 -62.5t-52 -170.5q0 -103 52.5 -166t141.5 -63z" />
    <glyph glyph-name="oe.sc" horiz-adv-x="1699" 
d="M668 -41q-168 0 -304 76t-213 212.5t-77 307.5q0 132 47 244.5t129 189t194 119.5t240 43q119 0 231 -41h670l35 -313h-424v-146h360v-186h-360v-152h424l-35 -313h-678q-109 -41 -239 -41zM684 313q72 0 125 27v428q-54 31 -119 31q-89 0 -145 -65t-56 -179
q0 -112 53.5 -177t141.5 -65z" />
    <glyph glyph-name="p.sc" horiz-adv-x="1167" 
d="M614 1110q504 0 504 -410q0 -189 -115.5 -292t-332.5 -103h-142v-305h-413v1110h499zM518 594h90q121 0 121 104q0 56 -30 80.5t-91 24.5h-88z" />
    <glyph glyph-name="thorn.sc" horiz-adv-x="1167" 
d="M530 965h84q504 0 504 -410q0 -188 -116 -291.5t-332 -103.5h-142v-160h-413v1110h415v-145zM518 449h90q121 0 121 104q0 56 -30 81t-91 25h-88z" />
    <glyph glyph-name="q.sc" horiz-adv-x="1378" 
d="M1307 555q0 -154 -65 -280t-181 -205l221 -293l-12 -27h-404l-147 209h-29q-174 0 -315 76t-221 212.5t-80 307.5q0 176 81 313t221 210t314 73q175 0 315 -73t221 -209.5t81 -313.5zM690 788q-90 0 -142 -62.5t-52 -170.5q0 -103 52.5 -166t141.5 -63q87 0 140 63
t53 166q0 108 -53 170.5t-140 62.5z" />
    <glyph glyph-name="r.sc" horiz-adv-x="1204" 
d="M954 428l258 -397l-12 -31h-405l-215 348h-58l-2 -348h-405v1110h497q504 0 504 -389q0 -203 -162 -293zM598 813h-86v-223h102q123 0 123 112q0 59 -33 85t-106 26z" />
    <glyph glyph-name="racute.sc" horiz-adv-x="1204" 
d="M952 1632l13 -18l-303 -348h-259l205 366h344zM954 428l258 -397l-12 -31h-405l-215 348h-58l-2 -348h-405v1110h497q504 0 504 -389q0 -203 -162 -293zM598 813h-86v-223h102q123 0 123 112q0 59 -33 85t-106 26z" />
    <glyph glyph-name="rcaron.sc" horiz-adv-x="1204" 
d="M1026 1614l-246 -348h-327l-246 348l16 18h250l143 -190l142 190h250zM954 428l258 -397l-12 -31h-405l-215 348h-58l-2 -348h-405v1110h497q504 0 504 -389q0 -203 -162 -293zM598 813h-86v-223h102q123 0 123 112q0 59 -33 85t-106 26z" />
    <glyph glyph-name="uni0157.sc" horiz-adv-x="1204" 
d="M954 428l258 -397l-12 -31h-405l-215 348h-58l-2 -348h-405v1110h497q504 0 504 -389q0 -203 -162 -293zM598 813h-86v-223h102q123 0 123 112q0 59 -33 85t-106 26zM422 -590l94 465h301l23 -35l-181 -430h-237z" />
    <glyph glyph-name="s.sc" horiz-adv-x="1034" 
d="M496 -41q-118 0 -233.5 28.5t-192.5 67.5l51 324h14q76 -50 172 -84.5t185 -34.5q40 0 60.5 16t20.5 43q0 31 -36 57t-162 77q-181 71 -248.5 149.5t-67.5 208.5q0 148 124 244t347 96q99 0 210 -23.5t182 -58.5l-54 -328h-16q-69 45 -158 77t-155 32q-68 0 -68 -49
q0 -21 12 -35.5t58.5 -40t144.5 -66.5q170 -70 234.5 -149.5t64.5 -192.5q0 -158 -129.5 -258t-359.5 -100z" />
    <glyph glyph-name="sacute.sc" horiz-adv-x="1034" 
d="M565 1266h-258l205 366h344l12 -18zM496 -41q-118 0 -233.5 28.5t-192.5 67.5l51 324h14q76 -50 172 -84.5t185 -34.5q40 0 60.5 16t20.5 43q0 31 -36 57t-162 77q-181 71 -248.5 149.5t-67.5 208.5q0 148 124 244t347 96q99 0 210 -23.5t182 -58.5l-54 -328h-16
q-69 45 -158 77t-155 32q-68 0 -68 -49q0 -21 12 -35.5t58.5 -40t144.5 -66.5q170 -70 234.5 -149.5t64.5 -192.5q0 -158 -129.5 -258t-359.5 -100z" />
    <glyph glyph-name="scaron.sc" horiz-adv-x="1034" 
d="M684 1266h-328l-245 348l16 18h250l143 -190l142 190h249l19 -18zM496 -41q-118 0 -233.5 28.5t-192.5 67.5l51 324h14q76 -50 172 -84.5t185 -34.5q40 0 60.5 16t20.5 43q0 31 -36 57t-162 77q-181 71 -248.5 149.5t-67.5 208.5q0 148 124 244t347 96q99 0 210 -23.5
t182 -58.5l-54 -328h-16q-69 45 -158 77t-155 32q-68 0 -68 -49q0 -21 12 -35.5t58.5 -40t144.5 -66.5q170 -70 234.5 -149.5t64.5 -192.5q0 -158 -129.5 -258t-359.5 -100z" />
    <glyph glyph-name="scedilla.sc" horiz-adv-x="1034" 
d="M985 317q0 -138 -99 -233t-280 -119l-37 -80q24 4 47 4q74 0 123 -45t49 -118q0 -100 -83 -159t-218 -59q-125 0 -223 43l27 166l18 4q70 -45 154 -45q36 0 55 15t19 39q0 21 -14.5 34t-41.5 13t-73 -17l-52 45l62 158q-100 8 -193 34t-155 58l51 324h14
q76 -50 172 -84.5t185 -34.5q40 0 60.5 16t20.5 43q0 31 -36 57t-162 77q-181 71 -248.5 149.5t-67.5 208.5q0 148 124 244t347 96q99 0 210 -23.5t182 -58.5l-54 -328h-16q-69 45 -158 77t-155 32q-68 0 -68 -49q0 -21 12 -35.5t58.5 -40t144.5 -66.5q170 -70 234.5 -149.5
t64.5 -192.5z" />
    <glyph glyph-name="uni0219.sc" horiz-adv-x="1034" 
d="M496 -41q-118 0 -233.5 28.5t-192.5 67.5l51 324h14q76 -50 172 -84.5t185 -34.5q40 0 60.5 16t20.5 43q0 31 -36 57t-162 77q-181 71 -248.5 149.5t-67.5 208.5q0 148 124 244t347 96q99 0 210 -23.5t182 -58.5l-54 -328h-16q-69 45 -158 77t-155 32q-68 0 -68 -49
q0 -21 12 -35.5t58.5 -40t144.5 -66.5q170 -70 234.5 -149.5t64.5 -192.5q0 -158 -129.5 -258t-359.5 -100zM395 -125h301l23 -35l-180 -430h-238z" />
    <glyph glyph-name="germandbls.sc" horiz-adv-x="1255" 
d="M1128 848l-139 -195q240 -77 240 -319q0 -170 -111.5 -272.5t-294.5 -102.5q-122 0 -215 41l6 303l9 6q49 -24 100 -24q86 0 86 88q0 86 -113 86h-55v135l133 203h-254v-797h-405v1110h1013v-262z" />
    <glyph glyph-name="t.sc" horiz-adv-x="1052" 
d="M18 1110h1016v-362h-301v-748h-414v748h-301v362z" />
    <glyph glyph-name="tbar.sc" horiz-adv-x="1052" 
d="M1034 1110v-362h-301v-160h139v-189h-139v-399h-414v399h-137v189h137v160h-301v362h1016z" />
    <glyph glyph-name="tcaron.sc" horiz-adv-x="1052" 
d="M936 1614l-246 -348h-328l-245 348l16 18h250l143 -190l142 190h250zM18 1110h1016v-362h-301v-748h-414v748h-301v362z" />
    <glyph glyph-name="uni0163.sc" horiz-adv-x="1052" 
d="M733 748v-748h-106l-49 -115q20 4 45 4q74 0 123 -45t49 -118q0 -100 -83 -159t-218 -59q-129 0 -222 43l25 166l18 4q70 -45 156 -45q34 0 53 15t19 39q0 21 -14 34t-40 13q-31 0 -73 -17l-51 45l73 195h-119v748h-301v362h1016v-362h-301z" />
    <glyph glyph-name="uni021B.sc" horiz-adv-x="1052" 
d="M18 1110h1016v-362h-301v-748h-414v748h-301v362zM295 -590l94 465h301l23 -35l-181 -430h-237z" />
    <glyph glyph-name="u.sc" horiz-adv-x="1308" 
d="M653 -41q-280 0 -413.5 141.5t-133.5 427.5v582h414v-561q0 -117 31.5 -168t103.5 -51q69 0 101 50t32 171v559h414v-567q0 -288 -139 -436t-410 -148z" />
    <glyph glyph-name="uacute.sc" horiz-adv-x="1308" 
d="M700 1266h-258l205 366h344l13 -18zM653 -41q-280 0 -413.5 141.5t-133.5 427.5v582h414v-561q0 -117 31.5 -168t103.5 -51q69 0 101 50t32 171v559h414v-567q0 -288 -139 -436t-410 -148z" />
    <glyph glyph-name="ucircumflex.sc" horiz-adv-x="1308" 
d="M512 1266h-250l-16 20l246 348h327l246 -348l-18 -20h-250l-142 192zM653 -41q-280 0 -413.5 141.5t-133.5 427.5v582h414v-561q0 -117 31.5 -168t103.5 -51q69 0 101 50t32 171v559h414v-567q0 -288 -139 -436t-410 -148z" />
    <glyph glyph-name="udieresis.sc" horiz-adv-x="1308" 
d="M440 1298q-73 0 -122.5 50t-49.5 122t49.5 122t122.5 50q72 0 121 -50t49 -122t-49 -122t-121 -50zM870 1298q-73 0 -121.5 49.5t-48.5 122.5t48.5 122.5t121.5 49.5t121.5 -49.5t48.5 -122.5t-48.5 -122.5t-121.5 -49.5zM653 -41q-280 0 -413.5 141.5t-133.5 427.5v582
h414v-561q0 -117 31.5 -168t103.5 -51q69 0 101 50t32 171v559h414v-567q0 -288 -139 -436t-410 -148z" />
    <glyph glyph-name="ugrave.sc" horiz-adv-x="1308" 
d="M868 1268h-258l-303 348l12 18h345zM653 -41q-280 0 -413.5 141.5t-133.5 427.5v582h414v-561q0 -117 31.5 -168t103.5 -51q69 0 101 50t32 171v559h414v-567q0 -288 -139 -436t-410 -148z" />
    <glyph glyph-name="uhungarumlaut.sc" horiz-adv-x="1308" 
d="M535 1266h-248l205 366h333l13 -18zM977 1266h-248l205 366h334l10 -18zM653 -41q-280 0 -413.5 141.5t-133.5 427.5v582h414v-561q0 -117 31.5 -168t103.5 -51q69 0 101 50t32 171v559h414v-567q0 -288 -139 -436t-410 -148z" />
    <glyph glyph-name="umacron.sc" horiz-adv-x="1308" 
d="M985 1305h-661v219h661v-219zM653 -41q-280 0 -413.5 141.5t-133.5 427.5v582h414v-561q0 -117 31.5 -168t103.5 -51q69 0 101 50t32 171v559h414v-567q0 -288 -139 -436t-410 -148z" />
    <glyph glyph-name="uogonek.sc" horiz-adv-x="1308" 
d="M788 551v559h414v-567q0 -457 -344 -557q-70 -60 -105.5 -118t-35.5 -106q0 -51 55 -51q56 0 117 39h14l23 -182q-107 -57 -248 -57q-105 0 -163 48t-58 132q0 155 161 268q-262 9 -387 151t-125 418v582h414v-561q0 -117 31.5 -168t103.5 -51q69 0 101 50t32 171z" />
    <glyph glyph-name="uring.sc" horiz-adv-x="1308" 
d="M653 1239q-95 0 -162 66t-67 163q0 96 67 162t162 66q96 0 164 -66t68 -162q0 -97 -68 -163t-164 -66zM653 1356q49 0 81 32.5t32 79.5q0 45 -32.5 78t-80.5 33q-46 0 -78 -33t-32 -78q0 -46 31.5 -79t78.5 -33zM653 -41q-280 0 -413.5 141.5t-133.5 427.5v582h414v-561
q0 -117 31.5 -168t103.5 -51q69 0 101 50t32 171v559h414v-567q0 -288 -139 -436t-410 -148z" />
    <glyph glyph-name="v.sc" horiz-adv-x="1298" 
d="M12 1110h451l131 -500q40 -168 53 -280h6q8 72 54 280l129 500h450l8 -12l-383 -1102h-522l-385 1102z" />
    <glyph glyph-name="w.sc" horiz-adv-x="1753" 
d="M752 -4h-416l-324 1104l8 10h441l78 -379q35 -177 43 -309h8q15 143 51 309l90 377h289l90 -377q39 -174 53 -309h8q12 143 41 309l80 379h441l8 -10l-324 -1104h-418l-77 317q-18 78 -41 275h-7q-25 -175 -45 -275z" />
    <glyph glyph-name="wacute.sc" horiz-adv-x="1753" 
d="M924 1266h-258l204 366h344l13 -18zM752 -4h-416l-324 1104l8 10h441l78 -379q35 -177 43 -309h8q15 143 51 309l90 377h289l90 -377q39 -174 53 -309h8q12 143 41 309l80 379h441l8 -10l-324 -1104h-418l-77 317q-18 78 -41 275h-7q-25 -175 -45 -275z" />
    <glyph glyph-name="wcircumflex.sc" horiz-adv-x="1753" 
d="M735 1266h-250l-16 20l246 348h327l246 -348l-18 -20h-250l-141 192zM752 -4h-416l-324 1104l8 10h441l78 -379q35 -177 43 -309h8q15 143 51 309l90 377h289l90 -377q39 -174 53 -309h8q12 143 41 309l80 379h441l8 -10l-324 -1104h-418l-77 317q-18 78 -41 275h-7
q-25 -175 -45 -275z" />
    </font>
</defs>
</svg>
