<?xml version="1.0" encoding="UTF-8" standalone="no"?>
<!DOCTYPE svg PUBLIC "-//W3C//DTD SVG 1.1//EN" "http://www.w3.org/Graphics/SVG/1.1/DTD/svg11.dtd">
<svg xmlns="http://www.w3.org/2000/svg" version="1.1" viewBox="0.00 0.00 128.00 65.00">
<g stroke-width="2.00" fill="none" stroke-linecap="butt">
<path stroke="#020002" stroke-opacity="0.784" vector-effect="non-scaling-stroke" d="
  M 67.02 9.89
  Q 64.05 9.34 65.25 12.71
  Q 65.42 13.19 65.91 13.04
  Q 66.74 12.80 67.22 12.32"
/>
<path stroke="#020002" stroke-opacity="0.784" vector-effect="non-scaling-stroke" d="
  M 63.89 17.91
  L 62.98 14.28
  Q 62.89 13.94 62.65 14.19
  Q 62.54 14.30 62.55 14.49"
/>
<path stroke="#020002" stroke-opacity="0.784" vector-effect="non-scaling-stroke" d="
  M 89.42 11.99
  Q 90.64 12.46 90.57 11.38"
/>
<path stroke="#020002" stroke-opacity="0.784" vector-effect="non-scaling-stroke" d="
  M 23.52 45.79
  L 30.93 46.05
  A 0.64 0.64 0.0 0 0 31.21 44.83
  Q 30.74 44.61 30.50 44.88"
/>
<path stroke="#020002" stroke-opacity="0.784" vector-effect="non-scaling-stroke" d="
  M 34.3558 46.7247
  A 0.81 0.60 111.3 0 0 35.2090 46.1880
  A 0.81 0.60 111.3 0 0 34.9442 45.2153
  A 0.81 0.60 111.3 0 0 34.0910 45.7520
  A 0.81 0.60 111.3 0 0 34.3558 46.7247"
/>
<path stroke="#020002" stroke-opacity="0.784" vector-effect="non-scaling-stroke" d="
  M 37.23 50.47
  A 0.29 0.29 0.0 0 0 37.64 50.76
  L 38.85 50.22
  A 0.53 0.53 0.0 0 0 38.58 49.21
  Q 37.35 49.33 37.23 50.47"
/>
</g>
<path fill="#020002" fill-opacity="0.996" d="
  M 44.85 60.74
  L 45.25 60.34
  Q 45.62 59.97 45.49 59.46
  Q 45.02 57.60 43.73 56.15
  A 0.67 0.66 52.6 0 0 42.88 56.03
  Q 39.16 58.37 35.29 56.38
  Q 34.86 56.16 34.39 56.28
  C 7.51 63.29 -9.02 28.88 13.33 12.25
  C 22.72 5.26 37.25 6.65 45.38 15.35
  C 54.58 25.19 54.47 39.12 45.57 49.44
  Q 45.18 49.89 45.25 50.47
  Q 45.52 52.84 44.21 54.80
  A 0.72 0.71 36.9 0 0 44.35 55.73
  C 48.07 58.89 45.40 64.60 41.24 61.63
  A 2.22 2.21 41.7 0 1 41.04 58.19
  C 42.59 56.78 44.35 58.82 44.32 60.51
  A 0.31 0.31 0.0 0 0 44.85 60.74
  Z
  M 50.72 27.77
  C 46.61 8.29 21.79 2.22 9.32 17.75
  C -4.96 35.55 10.87 59.13 32.50 55.62
  A 0.77 0.77 0.0 0 0 32.52 54.10
  C 31.28 53.86 29.93 54.52 28.81 54.53
  C 13.80 54.74 2.69 41.72 6.20 27.08
  C 11.15 6.47 40.49 4.85 47.98 24.28
  Q 52.57 36.17 44.63 46.45
  Q 44.31 46.86 44.27 47.38
  Q 44.21 48.19 44.75 47.99
  Q 45.55 47.69 45.56 47.67
  Q 52.99 38.55 50.72 27.77
  Z
  M 19.46 15.05
  C 38.72 6.79 55.64 29.38 42.21 45.09
  A 0.67 0.67 0.0 0 0 42.79 46.19
  C 44.75 45.97 47.46 38.89 47.85 37.21
  C 51.69 20.95 35.11 6.39 19.69 13.17
  C -3.16 23.20 6.06 55.66 31.31 53.13
  A 0.59 0.59 0.0 0 0 31.73 52.19
  L 31.54 51.92
  Q 31.21 51.47 30.65 51.56
  C 8.58 55.01 -0.84 23.75 19.46 15.05
  Z
  M 14.45 42.95
  C 2.25 27.18 21.86 7.45 37.81 19.20
  C 46.08 25.30 46.51 37.68 38.75 45.02
  Q 38.35 45.40 38.86 45.61
  Q 39.85 46.01 40.45 45.42
  C 54.33 31.61 39.30 8.01 20.59 15.71
  C 1.31 23.64 8.44 51.98 29.44 50.72
  Q 30.64 50.65 31.15 49.97
  A 0.64 0.63 15.3 0 0 30.57 48.96
  Q 20.00 50.13 14.45 42.95
  Z
  M 11.75 32.66
  C 11.75 42.90 21.18 49.74 30.97 48.05
  Q 31.29 48.00 31.25 47.67
  L 31.21 47.41
  Q 31.15 46.92 30.66 46.97
  Q 20.48 48.05 15.63 40.92
  C 8.00 29.67 17.89 14.96 30.99 18.25
  C 43.31 21.35 45.86 36.46 36.37 44.34
  C 36.23 44.46 36.19 44.89 36.26 45.01
  A 0.49 0.49 0.0 0 0 36.97 45.15
  C 46.33 38.17 45.00 23.46 34.86 18.47
  C 23.97 13.13 11.75 20.62 11.75 32.66
  Z
  M 23.52 45.79
  L 30.93 46.05
  A 0.64 0.64 0.0 0 0 31.21 44.83
  Q 30.74 44.61 30.50 44.88
  C 19.42 46.72 10.71 35.60 17.01 25.68
  C 20.86 19.63 29.13 18.30 34.94 22.21
  C 41.37 26.55 41.65 35.72 36.56 41.41
  Q 36.22 41.78 35.77 41.99
  Q 34.95 42.36 34.72 43.24
  A 0.49 0.49 0.0 0 0 35.48 43.76
  C 46.70 35.47 40.49 17.38 26.00 18.95
  C 10.94 20.59 9.74 40.18 23.52 45.79
  Z
  M 18.62 26.84
  C 25.67 14.10 46.11 27.86 35.13 40.01
  A 0.41 0.40 24.1 0 0 35.39 40.68
  Q 36.03 40.75 36.58 40.06
  C 40.67 34.92 39.78 27.31 35.12 23.52
  C 24.40 14.83 9.98 28.52 18.11 39.34
  Q 22.94 45.77 31.23 43.56
  Q 31.99 43.35 32.36 42.87
  A 0.39 0.39 0.0 0 0 31.92 42.27
  C 21.95 45.75 13.40 36.29 18.62 26.84
  Z
  M 36.67 35.73
  C 39.82 23.38 23.96 18.00 18.94 28.30
  C 15.13 36.15 22.63 43.91 30.52 41.60
  A 0.78 0.78 0.0 0 0 30.91 40.36
  C 29.27 38.29 27.37 33.92 29.07 31.49
  A 1.37 1.37 0.0 0 1 30.93 31.11
  Q 33.64 32.81 34.89 35.86
  Q 35.96 38.48 36.67 35.73
  Z
  M 33.1955 40.5229
  A 3.61 1.04 72.5 0 0 33.1019 36.7673
  A 3.61 1.04 72.5 0 0 31.0245 33.6371
  A 3.61 1.04 72.5 0 0 31.1181 37.3927
  A 3.61 1.04 72.5 0 0 33.1955 40.5229
  Z
  M 34.3558 46.7247
  A 0.81 0.60 111.3 0 0 35.2090 46.1880
  A 0.81 0.60 111.3 0 0 34.9442 45.2153
  A 0.81 0.60 111.3 0 0 34.0910 45.7520
  A 0.81 0.60 111.3 0 0 34.3558 46.7247
  Z
  M 36.0311 47.4483
  A 1.54 0.66 -36.3 0 0 34.3993 47.8281
  A 1.54 0.66 -36.3 0 0 33.5489 49.2717
  A 1.54 0.66 -36.3 0 0 35.1807 48.8919
  A 1.54 0.66 -36.3 0 0 36.0311 47.4483
  Z
  M 37.23 50.47
  A 0.29 0.29 0.0 0 0 37.64 50.76
  L 38.85 50.22
  A 0.53 0.53 0.0 0 0 38.58 49.21
  Q 37.35 49.33 37.23 50.47
  Z
  M 42.9355 49.4240
  A 1.30 0.85 -37.2 0 0 41.3861 49.5329
  A 1.30 0.85 -37.2 0 0 40.8645 50.9960
  A 1.30 0.85 -37.2 0 0 42.4139 50.8871
  A 1.30 0.85 -37.2 0 0 42.9355 49.4240
  Z
  M 34.0465 52.2530
  A 0.93 0.71 116.4 0 0 35.0960 51.7357
  A 0.93 0.71 116.4 0 0 34.8735 50.5870
  A 0.93 0.71 116.4 0 0 33.8240 51.1043
  A 0.93 0.71 116.4 0 0 34.0465 52.2530
  Z
  M 40.2191 51.4950
  A 1.35 0.81 -30.0 0 0 38.6450 51.4685
  A 1.35 0.81 -30.0 0 0 37.8809 52.8450
  A 1.35 0.81 -30.0 0 0 39.4550 52.8715
  A 1.35 0.81 -30.0 0 0 40.2191 51.4950
  Z
  M 43.9733 52.1399
  A 0.90 0.72 -22.2 0 0 42.8680 51.8134
  A 0.90 0.72 -22.2 0 0 42.3067 52.8201
  A 0.90 0.72 -22.2 0 0 43.4120 53.1466
  A 0.90 0.72 -22.2 0 0 43.9733 52.1399
  Z
  M 36.6523 54.2597
  A 1.12 0.87 26.5 0 0 36.0382 52.9814
  A 1.12 0.87 26.5 0 0 34.6477 53.2603
  A 1.12 0.87 26.5 0 0 35.2618 54.5386
  A 1.12 0.87 26.5 0 0 36.6523 54.2597
  Z
  M 42.17 55.29
  A 0.74 0.73 64.0 0 0 42.50 54.31
  L 42.09 53.48
  A 0.64 0.64 0.0 0 0 41.22 53.19
  L 37.48 55.10
  A 0.44 0.44 0.0 0 0 37.61 55.93
  Q 40.00 56.36 42.17 55.29
  Z"
/>
<path fill="#010102" fill-opacity="0.569" d="
  M 67.02 9.89
  Q 64.05 9.34 65.25 12.71
  Q 65.42 13.19 65.91 13.04
  Q 66.74 12.80 67.22 12.32
  L 70.51 12.27
  A 0.52 0.52 0.0 0 1 71.03 12.89
  L 70.84 13.91
  Q 70.72 14.49 70.15 14.34
  Q 68.46 13.88 67.11 14.69
  A 1.14 1.14 0.0 0 0 67.77 16.81
  L 71.72 16.56
  A 0.48 0.48 0.0 0 1 72.23 17.02
  L 72.26 17.92
  Q 72.28 18.54 71.66 18.49
  L 63.89 17.91
  L 62.98 14.28
  Q 62.89 13.94 62.65 14.19
  Q 62.54 14.30 62.55 14.49
  Q 62.20 14.54 62.19 14.02
  A 0.54 0.53 -25.0 0 0 61.25 13.68
  Q 59.34 15.89 57.50 13.56
  A 0.70 0.70 0.0 0 0 56.25 14.00
  L 56.25 17.33
  Q 56.25 17.92 55.68 18.06
  L 54.96 18.25
  A 0.57 0.56 82.6 0 1 54.25 17.70
  L 54.25 8.75
  Q 54.25 8.09 54.76 8.51
  L 58.85 11.83
  Q 59.32 12.21 59.76 11.81
  L 63.47 8.51
  Q 63.76 8.25 64.15 8.25
  L 71.22 8.25
  Q 71.67 8.25 71.86 8.65
  C 72.70 10.37 67.96 9.76 67.02 9.89
  Z"
/>
<path fill="#010102" fill-opacity="0.569" d="
  M 79.75 17.26
  L 80.08 17.95
  Q 80.35 18.50 79.73 18.50
  L 75.27 18.50
  A 2.00 1.99 89.7 0 1 73.28 16.52
  L 73.19 8.85
  Q 73.19 8.37 73.66 8.24
  C 75.91 7.63 74.89 14.44 74.77 15.48
  Q 74.70 16.05 75.19 16.34
  Q 76.86 17.29 78.76 16.80
  A 0.86 0.85 -19.8 0 1 79.75 17.26
  Z"
/>
<path fill="#010102" fill-opacity="0.569" d="
  M 89.42 11.99
  Q 90.64 12.46 90.57 11.38
  C 93.53 20.59 81.67 20.65 81.30 13.27
  C 81.08 9.10 86.79 6.05 89.53 9.42
  Q 89.93 9.92 89.32 10.11
  Q 87.33 10.74 88.08 12.76
  A 0.59 0.58 69.8 0 1 87.74 13.51
  Q 85.61 14.29 85.42 16.43
  Q 85.37 17.00 85.93 16.94
  C 87.83 16.77 91.70 13.93 89.42 11.99
  Z
  M 87.3255 10.0040
  A 2.91 1.14 -42.5 0 0 84.4098 11.1295
  A 2.91 1.14 -42.5 0 0 83.0345 13.9360
  A 2.91 1.14 -42.5 0 0 85.9502 12.8105
  A 2.91 1.14 -42.5 0 0 87.3255 10.0040
  Z"
/>
<path fill="#010102" fill-opacity="0.569" d="
  M 98.96 13.45
  Q 98.58 14.60 97.48 14.77
  Q 96.74 14.89 96.33 14.26
  L 95.79 13.43
  A 0.82 0.81 27.9 0 0 94.29 13.89
  L 94.37 17.29
  Q 94.38 17.95 93.74 18.11
  L 93.22 18.25
  A 0.56 0.56 0.0 0 1 92.52 17.71
  L 92.45 8.90
  Q 92.44 8.20 92.99 8.65
  L 97.02 11.93
  Q 97.45 12.28 97.86 11.91
  L 101.58 8.64
  A 0.58 0.58 0.0 0 1 102.55 9.09
  L 102.36 17.25
  A 0.72 0.72 0.0 0 1 101.69 17.96
  L 101.11 18.00
  Q 100.55 18.05 100.53 17.49
  Q 100.46 15.67 100.51 13.73
  A 0.80 0.80 0.0 0 0 98.96 13.45
  Z"
/>
<path fill="#010102" fill-opacity="0.569" d="
  M 105.11 17.70
  Q 104.85 18.14 104.41 18.44
  A 0.70 0.70 0.0 0 1 103.39 17.56
  L 107.78 8.55
  Q 108.09 7.92 108.51 8.48
  Q 111.50 12.54 112.69 17.47
  A 0.57 0.57 0.0 0 1 111.72 17.99
  Q 109.27 15.31 105.82 17.04
  Q 105.36 17.27 105.11 17.70
  Z"
/>
<path fill="#010102" fill-opacity="0.569" d="
  M 116.25 13.84
  L 116.25 17.44
  Q 116.25 17.95 115.75 17.97
  L 115.19 18.00
  Q 114.60 18.03 114.58 17.44
  L 114.20 8.97
  A 0.36 0.35 -75.9 0 1 114.73 8.65
  Q 117.64 10.37 119.53 13.07
  A 0.76 0.75 -64.2 0 0 120.90 12.59
  L 120.69 8.96
  A 0.58 0.58 0.0 0 1 121.22 8.35
  L 122.10 8.26
  A 0.65 0.65 0.0 0 1 122.82 8.92
  L 122.58 17.72
  Q 122.56 18.45 121.97 18.03
  Q 119.32 16.14 117.57 13.44
  A 0.72 0.72 0.0 0 0 116.25 13.84
  Z"
/>
<path fill="#020002" fill-opacity="0.996" d="
  M 67.02 9.89
  Q 66.84 11.54 67.22 12.32
  Q 66.74 12.80 65.91 13.04
  Q 65.42 13.19 65.25 12.71
  Q 64.05 9.34 67.02 9.89
  Z"
/>
<path fill="#020002" fill-opacity="0.996" d="
  M 90.57 11.38
  Q 90.64 12.46 89.42 11.99
  Q 88.51 11.58 90.18 10.27
  A 0.52 0.51 70.5 0 1 91.01 10.67
  Q 91.02 11.46 90.57 11.38
  Z"
/>
<path fill="#020002" fill-opacity="0.996" d="
  M 63.89 17.91
  Q 62.01 19.70 62.55 14.49
  Q 62.54 14.30 62.65 14.19
  Q 62.89 13.94 62.98 14.28
  L 63.89 17.91
  Z"
/>
<path fill="#240343" d="
  M 54.35 32.02
  Q 54.13 26.68 54.54 21.32
  A 0.48 0.48 0.0 0 1 55.09 20.88
  L 55.96 21.02
  A 0.65 0.63 -85.9 0 1 56.50 21.66
  Q 56.49 31.21 56.51 40.75
  Q 56.52 46.29 57.78 48.89
  C 63.12 59.90 78.21 54.80 78.24 42.70
  Q 78.26 32.06 78.25 21.64
  A 0.85 0.84 -88.1 0 1 79.15 20.79
  C 80.13 20.84 80.48 21.40 80.49 22.36
  C 80.50 29.73 81.91 43.51 79.11 49.49
  C 74.55 59.24 60.85 59.26 55.94 49.97
  C 53.43 45.23 54.58 37.55 54.35 32.02
  Z"
/>
<path fill="#240343" d="
  M 74.84 48.75
  C 71.66 54.06 62.93 54.14 59.75 48.57
  C 57.05 43.83 58.48 27.42 58.52 21.41
  Q 58.53 20.64 59.29 20.76
  L 60.01 20.88
  Q 60.74 21.01 60.74 21.75
  C 60.75 27.15 59.41 43.52 61.69 47.61
  C 64.03 51.81 71.25 51.46 73.29 47.32
  Q 74.21 45.47 74.23 40.91
  Q 74.27 31.21 74.24 21.50
  Q 74.24 20.71 75.02 20.84
  L 75.56 20.92
  Q 76.23 21.03 76.23 21.71
  C 76.27 27.81 77.73 43.91 74.84 48.75
  Z"
/>
<rect fill="#240343" x="83.25" y="20.87" width="2.24" height="36.14" rx="0.87"/>
<path fill="#240343" d="
  M 113.05 23.01
  L 93.63 22.99
  Q 93.11 22.99 92.95 22.50
  L 92.71 21.71
  Q 92.47 20.95 93.26 20.95
  L 116.86 20.83
  A 0.49 0.48 16.5 0 1 117.27 21.58
  L 98.64 50.14
  Q 98.40 50.52 98.83 50.65
  Q 100.61 51.21 101.72 49.46
  Q 110.63 35.42 119.76 21.53
  Q 120.63 20.20 122.00 20.85
  Q 122.56 21.11 122.22 21.63
  L 103.63 50.09
  Q 103.20 50.75 103.98 50.75
  L 121.50 50.75
  Q 122.00 50.75 122.00 51.25
  L 122.00 52.25
  Q 122.00 52.75 121.50 52.75
  L 95.01 52.75
  A 0.33 0.32 16.4 0 1 94.73 52.25
  L 110.87 27.68
  A 0.34 0.34 0.0 0 0 110.59 27.16
  L 93.54 27.29
  A 0.77 0.77 0.0 0 1 92.76 26.46
  L 92.82 25.64
  A 0.69 0.68 2.2 0 1 93.51 25.01
  Q 102.54 24.99 111.56 25.00
  C 112.52 25.00 113.10 24.54 113.50 23.75
  A 0.51 0.51 0.0 0 0 113.05 23.01
  Z"
/>
<rect fill="#240343" x="87.48" y="21.01" width="2.02" height="35.94" rx="0.37"/>
<path fill="#010102" fill-opacity="0.569" d="
  M 23.52 45.79
  L 30.90 45.69
  Q 31.48 45.68 31.12 45.23
  Q 30.95 45.01 30.50 44.88
  Q 30.74 44.61 31.21 44.83
  A 0.64 0.64 0.0 0 1 30.93 46.05
  L 23.52 45.79
  Z"
/>
<ellipse fill="#010102" fill-opacity="0.569" cx="0.00" cy="0.00" transform="translate(34.65,45.97) rotate(111.3)" rx="0.81" ry="0.60"/>
<path fill="#010102" fill-opacity="0.569" d="
  M 37.23 50.47
  Q 37.35 49.33 38.58 49.21
  A 0.53 0.53 0.0 0 1 38.85 50.22
  L 37.64 50.76
  A 0.29 0.29 0.0 0 1 37.23 50.47
  Z"
/>
<rect fill="#240343" x="-15.07" y="-1.12" transform="translate(107.16,55.89) rotate(-0.1)" width="30.14" height="2.24" rx="1.09"/>
</svg>
