<?xml version="1.0" standalone="no"?>
<!DOCTYPE svg PUBLIC "-//W3C//DTD SVG 1.1//EN" "http://www.w3.org/Graphics/SVG/1.1/DTD/svg11.dtd" >
<svg xmlns="http://www.w3.org/2000/svg" xmlns:xlink="http://www.w3.org/1999/xlink" version="1.1">
<metadata>
Created by FontForge 20170731 at Fri Jan  1 02:30:17 1904
 By Aleksey,,,
COPYRIGHT ESSELTE LETRASET LTD., 1990 
</metadata>
<defs>
<font id="AcademyEngravedLetPlain" horiz-adv-x="819" >
  <font-face 
    font-family="Academy Engraved LET"
    font-weight="5"
    font-stretch="normal"
    units-per-em="2048"
    panose-1="0 0 0 0 0 0 0 0 0 0"
    ascent="1638"
    descent="-410"
    x-height="819"
    cap-height="1365"
    bbox="-203 -554 2242 1798"
    underline-thickness="37"
    underline-position="-328"
    unicode-range="U+0020-F002"
  />
<missing-glyph horiz-adv-x="1024" 
d="M82 1365h860v-1365h-860v1365zM123 1324v-1283h778v1283h-778z" />
    <glyph glyph-name=".notdef" horiz-adv-x="1024" 
d="M82 1365h860v-1365h-860v1365zM123 1324v-1283h778v1283h-778z" />
    <glyph glyph-name=".null" horiz-adv-x="839" 
d="M428 46l45 111l-234 486q-22 45 -22 77q0 44 40 69h-222q26 -17 47 -42q19 -25 41 -71zM300 -224h-9q-53 0 -77 29q-25 28 -25 91l1 28q0 36 -33 36q-40 0 -40 -63q0 -60 35 -101t84 -41q30 0 64 21zM381 -44l25 61l-294 606l-10 21q-39 82 -70 115q-30 30 -75 33v27h442
v-27q-51 -6 -74 -21q-22 -15 -22 -46q0 -27 25 -78l178 -384l156 379q26 66 26 96q0 27 -22 39t-75 15v27h248v-27q-49 -10 -70 -28q-20 -16 -45 -70l-18 -39q-2 -7 -3 -8q-3 -7 -4 -9l-308 -750q-21 -53 -45 -90q-26 -39 -52 -54q-28 -16 -62 -16q-60 0 -103 49
q-43 47 -43 120q0 49 26 81q26 30 67 30q34 0 53 -18q18 -18 21 -52l3 -35q4 -61 40 -61q21 0 41 26q18 23 44 88z" />
    <glyph glyph-name="nonmarkingreturn" horiz-adv-x="678" 
 />
    <glyph glyph-name="space" unicode=" " horiz-adv-x="678" 
 />
    <glyph glyph-name="exclam" unicode="!" horiz-adv-x="549" 
d="M291 38v150q0 25 -24 25q-35 0 -62 -30q-28 -29 -28 -70q0 -40 28 -69q27 -31 62 -31q24 0 24 25zM269 652q0 56 1 76q1 5 1.5 15t0.5 21t1 19.5t1 19.5l5 100q9 118 26 253q7 45 7 83q0 104 -57 104q-34 0 -55 -37q-22 -37 -22 -96q0 -53 23 -168l26 -128
q26 -141 30 -163q8 -43 12 -99zM145 113q0 36 17 65q17 30 46 47t65 17q35 0 66 -17q30 -19 46 -47t16 -65q0 -54 -37 -91q-38 -38 -91 -38q-52 0 -90 38t-38 91zM288 391h-30l-1 26q-9 172 -26 292q-19 122 -58 285q-32 136 -32 205q0 87 37 137q36 50 97 50q40 0 71 -22
q30 -23 47 -65q16 -41 16 -96q0 -54 -36 -209q-22 -95 -44 -209q-15 -81 -25 -177q-11 -92 -15 -191z" />
    <glyph glyph-name="quotedbl" unicode="&#x22;" horiz-adv-x="658" 
d="M445 1084q47 141 47 192q0 35 -16 57t-41 22q-20 0 -37 -21q-16 -20 -16 -50q0 -45 63 -200zM193 1084q46 139 46 192q0 35 -16 57t-41 22q-19 0 -36 -21q-16 -20 -16 -50q0 -45 63 -200zM469 1016h-27q-8 20 -13 35l-20 46q-61 141 -61 189q0 49 31 83q30 33 72 33
q45 0 78 -35q33 -36 33 -84q0 -56 -60 -190q-32 -71 -33 -77zM217 1016h-28q-4 15 -33 81q-60 140 -60 189t31 83q30 33 72 33q45 0 78 -35q33 -36 33 -84q0 -56 -60 -190q-32 -71 -33 -77z" />
    <glyph glyph-name="numbersign" unicode="#" 
d="M82 1351v-1337h655v1337h-655zM751 0h-683v1365h683v-1365z" />
    <glyph glyph-name="dollar" unicode="$" horiz-adv-x="1053" 
d="M722 70q191 116 191 297q0 114 -70 197q-70 82 -238 168l-111 56q-95 48 -161 100q-64 49 -91 99q-28 49 -28 113q0 58 23 106t80 105q-166 -100 -166 -271q0 -122 90 -208q68 -61 205 -133t180 -97q57 -34 92 -64q60 -48 91 -109t31 -133q0 -71 -28 -123
q-28 -53 -90 -103zM233 61l-15 17q-31 37 -44 69q-14 34 -14 73q0 32 1 44q1 3 1 14q0 18 -9 28q-10 10 -25 10q-21 0 -34 -19t-13 -50q0 -60 39 -108t113 -78zM584 584v-548q32 5 81 30q65 33 102 94q36 60 36 135q0 85 -50 153q-51 68 -163 132zM475 642v-614q9 -1 32 -1
q17 0 42 3v572l-6 3l-30 16q-1 1 -4 2.5t-8 4.5q-1 1 -6 3.5l-9 4.5zM440 917v421q-70 -16 -114 -72t-44 -131q0 -63 36 -113t116 -101zM549 857v490h-26q-27 0 -48 -3v-445l5 -4q3 -2 12 -7t16.5 -9t34.5 -19zM732 1313q27 -30 39 -61q12 -32 21 -91q9 -57 18 -74t31 -17
q35 0 35 46q0 41 -16 77q-16 38 -51 69q-35 32 -77 51zM584 1510v-126q106 -9 188 -46q84 -38 129 -95q46 -58 46 -131q0 -43 -24 -69q-24 -27 -65 -27q-42 0 -65 27q-23 28 -32 87l-10 64q-11 75 -48 109q-36 33 -119 41v-503q5 -1 15 -6q12 -6 17 -9q136 -64 221 -130
q84 -67 124 -140q40 -74 40 -162q0 -108 -52 -196q-53 -91 -147 -146q-95 -57 -218 -72v-147h-35v144q-7 -1 -31 -1q-31 0 -40 1h-3v-144h-35v147h-7q-118 15 -203 52q-88 38 -135 94q-48 56 -48 121q0 51 30 84q30 32 76 32q48 0 73 -28t25 -78l-1 -59q0 -60 52 -103
q52 -44 138 -62v626q-117 59 -190 117q-72 57 -104 119t-32 138q0 87 42 163t117 125q73 48 167 62v127h35v-124l5 1q12 0 17 1h19h19q4 -1 14 -1v123h35z" />
    <glyph glyph-name="percent" unicode="%" horiz-adv-x="1554" 
d="M285 1004q0 -157 46 -252q46 -97 120 -97t120 96q45 96 45 254q0 160 -45 254q-46 94 -120 94q-73 0 -120 -96q-46 -96 -46 -253zM541 662q93 49 143 136q50 89 50 199q0 78 -22 144q-23 68 -64 118q-44 51 -97 75q47 -47 72 -131q24 -85 24 -199q0 -124 -24 -202
q-26 -80 -82 -140zM320 672q-111 114 -111 326q0 110 33 200q31 89 89 136q-47 -23 -64 -35q-18 -12 -46 -43q-45 -48 -71 -117t-26 -139q0 -217 196 -328zM938 372q0 -156 46 -251q46 -97 121 -97q73 0 119 96q45 95 45 253t-45 254q-47 95 -120 95q-75 0 -120 -97
q-46 -96 -46 -253zM1195 31q93 49 142 136q50 88 50 200q0 118 -48 206q-50 89 -134 129q95 -98 95 -327q0 -125 -23 -203q-24 -79 -82 -141zM973 40q-111 114 -111 327q0 75 15 139q13 64 42 115t66 81q-99 -46 -154 -134q-54 -87 -54 -200q0 -217 196 -328zM93 999
q0 104 48 194q48 88 131 141q83 51 179 51q97 0 179 -51q82 -52 130 -142t48 -194t-48 -194t-129 -141q-82 -52 -179 -52q-98 0 -180 52q-85 53 -131 142q-48 89 -48 194zM747 367q0 108 48 196q47 86 131 140q83 51 179 51q97 0 179 -51q81 -53 129 -142q48 -90 48 -194
q0 -106 -47 -195q-49 -90 -130 -140q-82 -52 -179 -52q-98 0 -180 52q-84 52 -130 140q-48 89 -48 195zM1148 1370l-707 -1393l-36 18l707 1393z" />
    <glyph glyph-name="ampersand" unicode="&#x26;" horiz-adv-x="1497" 
d="M1288 704h-188q49 -21 71 -49q20 -28 28 -83q36 82 89 132zM554 7q-77 14 -127 41q-50 25 -99 77q-107 119 -107 267q0 164 119 281q-213 -142 -213 -342q0 -88 47 -165t129 -122q81 -45 177 -45q20 0 74 8zM1032 50h200q-54 32 -89 63q-41 34 -110 106q-3 3 -46.5 49
t-65.5 69q-44 48 -120 131q-70 77 -106 119q-37 43 -90 109q-34 43 -82 110q-45 62 -58 84q-81 128 -81 234q0 129 105 216q-89 -37 -138 -106q-48 -67 -48 -158q0 -52 13 -97q14 -50 43 -102q26 -49 83 -130q135 -190 362 -434l149 -160q53 -56 79 -103zM903 152l-25 26
q-134 141 -211 230q-150 175 -244 302q-101 -110 -101 -279q0 -105 45 -192q44 -87 122 -139q77 -51 166 -51q121 0 248 103zM588 857q187 130 187 320q0 81 -41 131q-40 49 -106 49q-45 0 -79 -28q-37 -29 -56 -76q-21 -49 -21 -111q0 -130 116 -285zM1463 34l-1 -34h-457
q-20 69 -74 123q-103 -81 -201 -117q-96 -37 -214 -37q-126 0 -222 45q-94 43 -148 127q-53 83 -53 187q0 125 69 222t232 196q-127 187 -127 324q0 67 26 127q26 59 72 104q47 44 111 69q65 24 134 24q114 0 190 -70q75 -70 75 -176q0 -107 -84 -191q-31 -31 -65 -57
q-20 -15 -94 -64l-17 -11q39 -52 88.5 -113t146.5 -174q2 -2 29 -32t39 -44q70 -77 84 -92q26 -28 57 -60q105 131 105 244q0 78 -58 114t-188 40v34h537v-34q-62 -4 -96 -20q-34 -15 -62 -52t-69 -120q-55 -111 -75 -143q-22 -36 -66 -90l29 -30q76 -81 131 -126
q51 -44 99 -64q42 -18 117 -29z" />
    <glyph glyph-name="quotesingle" unicode="'" horiz-adv-x="403" 
d="M191 1084q47 141 47 192q0 35 -16 57t-41 22q-20 0 -37 -21q-16 -20 -16 -50q0 -45 63 -200zM215 1016h-27q-8 20 -13 35l-20 46q-61 141 -61 189q0 49 31 83q30 33 72 33q45 0 78 -35q33 -36 33 -84q0 -56 -60 -190q-32 -71 -33 -77z" />
    <glyph glyph-name="parenleft" unicode="(" horiz-adv-x="608" 
d="M436 8q-61 111 -85 258q-25 143 -25 401q0 238 23 396q22 151 79 291q-69 -82 -116 -186q-49 -107 -74 -228q-26 -125 -26 -247q0 -121 27 -255q26 -133 72 -240q12 -28 31 -62q22 -38 39 -61q12 -16 55 -67zM596 -84v-31q-116 21 -213 133q-96 111 -152 289
q-56 177 -56 379q0 148 33 289q32 140 90 248q59 109 135 176q75 66 163 80v-30q-78 -27 -110 -137q-59 -201 -59 -605q0 -153 8.5 -291t25.5 -257q17 -107 48 -161q31 -55 87 -82z" />
    <glyph glyph-name="parenright" unicode=")" horiz-adv-x="608" 
d="M133 1356q42 -102 60 -237q10 -70 16 -193t6 -251q0 -224 -17 -379q-16 -145 -58 -285q91 127 141 299q48 171 48 368q0 124 -23 260q-24 134 -63 228q-41 104 -110 190zM11 1448v31q86 -15 165 -83q77 -68 136 -177q58 -112 89 -247q32 -142 32 -293q0 -203 -55 -375
q-55 -174 -153 -287t-214 -132v31q79 27 111 137q31 103 44 253q14 157 14 352q0 85 -1 144q-1 61 -7 166q-6 76 -12 139q-10 77 -13 99q-15 104 -47 161q-31 55 -89 81z" />
    <glyph glyph-name="asterisk" unicode="*" horiz-adv-x="730" 
d="M398 1126q46 10 62 12q34 7 47 9l39 9q52 10 52 44q0 30 -31 30q-14 0 -27 -7t-51 -36q-54 -40 -91 -61zM368 1145q4 50 12 101l8 41q3 18 3 36q0 44 -34 44q-36 0 -36 -48q0 -22 18 -75q21 -63 29 -99zM344 1127q-39 21 -72 45q-76 54 -102 54q-14 0 -25 -9
q-11 -11 -11 -25q0 -20 24 -31q25 -13 80 -20l38 -4q5 -1 41 -6q26 -4 27 -4zM340 1074l13 22q-27 -26 -66 -56l-32 -24q-54 -40 -54 -68q0 -32 30 -32q18 0 31 15q13 16 39 70q29 54 39 73zM385 1096q18 -42 25 -66l13 -39q19 -52 31 -68q12 -17 29 -17q13 0 22 9q8 8 8 20
q0 25 -69 97q-47 48 -59 64zM404 1103q101 -63 132 -93q30 -30 30 -68q0 -32 -22 -54t-52 -22q-67 0 -95 103l-16 57l-9 33q-3 12 -6 21q-2 -7 -6.5 -23.5t-12.5 -45.5q-21 -83 -43 -112q-22 -31 -59 -31q-30 0 -53 23t-23 55q0 29 15 47q16 19 78 62q34 22 67 50h-16
q-3 -1 -10 -1l-52 -4q-9 -1 -46 -1q-112 0 -112 80q0 33 22 55q21 22 52 22q28 0 50 -12q18 -10 77 -59q36 -28 51 -39l-9 25q-10 26 -18 46q-29 69 -29 98q0 38 21 60q19 22 55 22q33 0 56 -20q21 -21 21 -53q0 -28 -30 -112q-17 -47 -23 -66l18 14q9 6 16 12q8 6 11 9t5 4
q3 3 5 4t5 4q59 47 73 55q19 11 41 11q30 0 53 -23q21 -22 21 -57q0 -40 -32 -60q-32 -19 -106 -19h-23l-41 2q-8 0 -12 1h-19z" />
    <glyph glyph-name="plus" unicode="+" 
d="M82 1351v-1337h655v1337h-655zM751 0h-683v1365h683v-1365z" />
    <glyph glyph-name="comma" unicode="," horiz-adv-x="437" 
d="M204 -37v-10q29 57 39 87q10 29 10 63q0 39 -18 64q-19 25 -48 25q-25 0 -40 -18t-15 -45q0 -17 9 -35q7 -18 29 -48q34 -49 34 -83zM139 -187l-19 17q56 80 56 119q0 33 -23 65l-22 30q-31 44 -31 83q0 49 33 80q31 31 81 31q54 0 89 -35q34 -34 34 -94
q0 -130 -198 -296z" />
    <glyph glyph-name="hyphen" unicode="-" horiz-adv-x="637" 
d="M544 444h-451v37h451v-37z" />
    <glyph glyph-name="period" unicode="." horiz-adv-x="456" 
d="M246 38v148q0 25 -24 25q-35 0 -62 -30t-27 -69q0 -40 28 -69q27 -30 61 -30q24 0 24 25zM100 112q0 36 17 65t46 46t65 17t65 -17t46 -46t17 -65t-17 -65t-46 -46t-65 -17t-65 17t-46 46t-17 65z" />
    <glyph glyph-name="slash" unicode="/" horiz-adv-x="546" 
d="M546 1438l-506 -1530l-40 19l506 1530z" />
    <glyph glyph-name="zero" unicode="0" horiz-adv-x="1288" 
d="M801 40q321 218 321 639q0 102 -21 199q-21 98 -58 176t-93 145q-55 65 -125 108q92 -97 134 -231q52 -166 52 -387q0 -256 -64 -433q-15 -41 -35 -77q-19 -34 -47 -68q-25 -32 -64 -71zM434 51q-108 101 -164 265q-57 164 -57 373q0 207 55 362q55 156 163 262
q-103 -63 -177 -159q-75 -97 -114 -216q-40 -119 -40 -250q0 -137 39 -256q37 -119 115 -218q76 -98 180 -163zM315 696q0 -150 23 -277q23 -125 67 -215q43 -90 106 -138q62 -47 135 -47q122 0 213 138q38 57 63 135q24 71 38 177q13 95 13 221q0 204 -40 354
q-41 152 -115 234q-75 81 -174 81q-73 0 -134 -47q-61 -46 -105 -136q-45 -93 -67 -209q-23 -121 -23 -271zM63 681q0 194 78 359q77 164 212 262q134 96 292 96t291 -96q133 -97 211 -262q78 -166 78 -359t-78 -358t-210 -261q-133 -97 -290 -97q-159 0 -293 96
q-134 95 -212 261q-79 164 -79 359z" />
    <glyph glyph-name="one" unicode="1" horiz-adv-x="781" 
d="M265 80l-39 -29h292l-39 29q-22 15 -33 27t-16 25t-5 33v33v17v1118l-243 -50l78 -44q3 -1 7 -5l24 -15q26 -21 27 -64v-33l1 -17v-890v-17q-1 -3 -1 -33t-9 -45q-11 -15 -44 -40zM743 0h-691v31q126 18 184 82q24 27 35 71q10 40 10 121v707q0 99 -17 150q-18 50 -65 73
q-51 24 -141 31v31l455 95v-1087q0 -89 12 -130t44 -73q57 -54 174 -71v-31z" />
    <glyph glyph-name="two" unicode="2" horiz-adv-x="931" 
d="M327 464q119 108 229 222q112 118 156 197q43 77 43 164q0 81 -31 143q-32 62 -91 103q-58 40 -137 51q74 -42 113 -117q38 -78 38 -179q0 -79 -29 -160q-27 -74 -91 -170q-89 -128 -200 -254zM44 50h667l35 133q-82 -49 -214 -49h-444q-17 -30 -44 -84zM239 1324
q-145 -81 -145 -196q0 -25 11 -42t29 -17q36 0 36 54q0 75 15 118t54 83zM143 207h347q130 0 214 38q82 37 145 126h33l-96 -371h-785l-1 41q46 100 106 189t178 233q19 24 44 54t41 51q6 7 28.5 35t24.5 30q102 129 145 223q43 93 43 192q0 80 -29 152q-30 70 -82 110
q-52 39 -112 39q-125 0 -130 -156l-2 -53q-5 -122 -95 -122q-44 0 -73 32t-29 81q0 71 51 131q52 60 140 94q90 35 192 35q116 0 211 -46q96 -47 149 -127q53 -83 53 -183q0 -71 -26 -135q-27 -64 -88 -134t-162 -153l-162 -134q-185 -151 -273 -272z" />
    <glyph glyph-name="three" unicode="3" horiz-adv-x="971" 
d="M628 63q203 122 203 328q0 267 -327 393q226 112 226 307q0 70 -27 128t-78 94q-51 35 -118 42q122 -71 122 -249q0 -88 -32 -161q-31 -71 -95 -125t-151 -80q128 -37 223 -98q92 -62 140 -138q47 -79 47 -170q0 -50 -12 -94q-15 -47 -38 -83q-17 -28 -83 -94zM227 36
q-42 39 -59 73q-19 35 -22 87l-2 27q-1 43 -33 43q-39 0 -39 -54q0 -57 40 -101q39 -45 115 -75zM300 1354q-85 -24 -136 -79q-52 -55 -52 -122q0 -20 10 -33q11 -14 27 -14q34 0 41 51q13 78 36 119q22 40 74 78zM647 810q84 -35 142 -90q59 -56 90 -130t31 -159
q0 -126 -66 -230q-68 -106 -182 -165q-115 -61 -255 -61q-158 0 -264 68q-105 68 -105 169q0 48 28 77q29 30 74 30q54 0 76 -43q11 -21 22 -87q12 -89 55 -126q43 -38 130 -38q83 0 151 40q69 41 109 110q40 68 40 151q0 141 -115 243q-116 101 -336 155l1 32q98 18 171 65
t110 120t37 163q0 112 -50 185q-51 71 -134 71q-67 0 -99 -50q-13 -20 -19 -42q-5 -19 -19 -95q-10 -64 -34 -92q-26 -29 -67 -29q-39 0 -65 29t-26 74q0 68 48 125q47 56 129 89q84 32 181 32q84 0 156 -22q74 -23 122 -61q48 -39 77 -97q27 -58 27 -128q0 -85 -42 -156
q-45 -72 -129 -127z" />
    <glyph glyph-name="four" unicode="4" horiz-adv-x="1124" 
d="M846 439h100l27 106q-54 -25 -97 -25h-30v-81zM94 439h522v81h-485l-37 -48v-33zM599 80l-39 -29h292l-39 29q-34 25 -43 40q-10 14 -10 45v33q-1 6 -1 17v1116h-12l-93 -124v-992v-7q-1 -3 -1 -10v-33q0 -30 -9 -45q-10 -14 -45 -40zM160 556h456v600zM1012 367h-164
v-62q0 -87 10 -128q11 -45 37 -74q49 -55 148 -72v-31h-643v31q121 18 173 82q25 29 34 72q9 41 9 120v62h-560v116l670 882h122v-809q82 4 125 31q44 26 93 105h28z" />
    <glyph glyph-name="five" unicode="5" horiz-adv-x="987" 
d="M263 1246h467l41 106q-60 -22 -136 -22h-351zM180 862l-23 -97q89 -3 173 -17.5t141 -34.5q68 -23 124 -61q56 -40 96 -88q38 -48 61 -108q21 -58 21 -123q0 -75 -25 -129q-25 -55 -93 -126q188 138 188 337q0 98 -46 180q-47 83 -131 139q-86 56 -209 90
q-120 33 -277 38zM241 28l-17 15q-36 32 -53 67q-17 34 -19 76l-2 39q-1 43 -34 43q-43 0 -43 -55q0 -61 46 -110q45 -51 122 -75zM111 732l141 634h379q76 0 131 20q53 19 108 68h28l-108 -279h-540l-50 -221q249 -14 398 -76q78 -31 140 -78t102 -103q85 -116 85 -267
q0 -131 -67 -234q-67 -105 -186 -165q-118 -60 -263 -60q-155 0 -262 70q-109 69 -109 169q0 49 30 80t77 31q90 0 99 -106l4 -45q6 -64 56 -105q49 -40 127 -40q82 0 153 40q73 42 112 110q40 70 40 152q0 85 -36 155t-104 123q-66 52 -165 82q-117 37 -320 45z" />
    <glyph glyph-name="six" unicode="6" horiz-adv-x="1110" 
d="M770 1341q22 -37 33 -74q9 -32 11 -88q3 -51 39 -51q37 0 37 54q0 99 -120 159zM626 823q58 -32 101 -74t68 -93q51 -100 51 -260q0 -153 -43 -246q-29 -65 -110 -127q75 31 135 94q58 61 90 145q31 81 31 174q0 321 -323 387zM490 1339q-94 -38 -165 -103
q-73 -68 -122 -159q-51 -93 -78 -206q-27 -114 -27 -248q0 -138 31 -244q30 -111 91 -192q62 -83 160 -150q-51 54 -82 103q-35 53 -56 118q-22 67 -29 139q-9 75 -9 174q0 316 103 538q35 76 77 129t106 101zM311 710q-7 -69 -7 -144q0 -153 24 -264q24 -112 72 -186
q32 -48 80 -76q46 -28 96 -28q54 0 98 26q43 25 75 77q30 47 47 119q16 65 16 151q0 122 -35 221q-36 99 -100 152q-65 53 -148 53q-56 0 -107 -23q-49 -22 -111 -78zM311 750q75 60 145 85q72 26 153 26q96 0 177 -30q80 -30 140 -87t93 -133q32 -78 32 -170
q0 -102 -34 -186q-35 -87 -98 -150q-65 -66 -151 -102q-87 -36 -184 -36q-107 0 -199 43q-94 44 -163 125q-81 95 -120 216q-40 120 -40 277q0 165 45 307q46 143 127 245q83 106 193 160q112 56 243 56q87 0 158 -28q73 -29 113 -78t40 -108q0 -47 -27 -76q-28 -30 -74 -30
q-39 0 -65 26q-27 27 -31 71l-4 43q-6 76 -33 110t-78 34q-64 0 -127 -51t-113 -143q-87 -161 -118 -416z" />
    <glyph glyph-name="seven" unicode="7" horiz-adv-x="851" 
d="M762 1248l54 81h-652l-52 -140q42 33 89 47q45 12 118 12h443zM284 51h124q1 155 26 311q24 150 68 292q42 135 112 278q-53 -71 -93.5 -137.5t-76.5 -140.5q-71 -144 -113 -300q-41 -154 -47 -303zM514 46v-46h-271q8 161 35 287q30 136 77 255q34 85 77 169
q37 71 97 162q19 28 42 60t43 59t53.5 71.5t55.5 74.5l24 32h-378q-82 0 -142 -15q-59 -15 -103 -48q-45 -34 -74 -85h-35l120 343h759v-47q-195 -286 -277 -497q-28 -69 -49 -152q-22 -82 -33 -174q-11 -86 -16 -202q-5 -123 -5 -247z" />
    <glyph glyph-name="eight" unicode="8" horiz-adv-x="1103" 
d="M248 610q-77 -53 -114 -116q-37 -64 -37 -149q0 -112 76 -197q77 -86 196 -116q-113 66 -164 143q-54 78 -54 182q0 64 22 118q21 56 75 135zM832 102q77 54 111 117q34 62 34 148q0 118 -68 201q-66 81 -219 143l-145 60q-295 121 -295 341q0 83 49 156q-32 -29 -56 -66
q-20 -31 -32 -73q-10 -37 -10 -86q0 -143 104 -241q40 -38 96 -71q59 -35 157 -76q132 -54 190 -84q54 -30 98 -71q24 -21 46 -54q20 -31 30 -66q10 -33 10 -73q0 -62 -22 -107q-23 -47 -78 -98zM388 693q-96 -85 -135 -159q-39 -73 -39 -167t44 -173t123 -122
q79 -44 173 -44q96 0 175 36q78 34 123 97q43 61 43 139q0 120 -102 193q-40 30 -87 54q-60 29 -168 73q-90 38 -150 73zM705 801q143 119 143 277q0 76 -38 140q-39 62 -105 98q-68 35 -149 35q-70 0 -130 -26q-59 -27 -90 -76q-33 -49 -33 -113q0 -105 94 -181
q92 -77 308 -154zM742 783q74 -30 133 -70.5t95 -86.5q73 -94 73 -231q0 -122 -63 -218q-64 -97 -180 -150q-118 -53 -266 -53q-136 0 -243 49q-108 47 -170 132q-61 83 -61 190q0 80 39 155q38 74 105 123q62 45 160 86q-105 71 -151 149q-48 77 -48 177q0 75 29 142
q28 65 83 114t129 74q76 26 163 26q79 0 151 -23q67 -22 120 -64q50 -40 78 -99q27 -58 27 -125q0 -90 -48 -161q-47 -71 -155 -136z" />
    <glyph glyph-name="nine" unicode="9" horiz-adv-x="1120" 
d="M341 9q-36 42 -48 70q-13 30 -20 88q-6 49 -33 49q-36 0 -36 -49q0 -42 33 -86q21 -27 41 -40q18 -13 63 -32zM458 534q-260 134 -260 441q0 118 36 203q35 84 117 152q-79 -38 -135 -97q-57 -61 -88 -140q-31 -78 -31 -165q0 -98 39 -181t112 -138q41 -30 88 -47
q47 -18 122 -28zM615 25q86 42 151.5 107t106.5 146q88 170 88 417q0 115 -17 212q-16 94 -53 175q-39 82 -92 141q-56 62 -131 109q61 -61 91 -114q30 -52 53 -138q41 -149 41 -372q0 -125 -18 -238q-20 -117 -55 -205q-31 -82 -66 -132q-34 -49 -99 -108zM813 674l1 61
q0 139 -23 269q-24 127 -62 200q-36 74 -91 114t-117 40q-103 0 -165 -93q-63 -94 -63 -252q0 -126 38 -231q38 -103 105 -162q68 -59 150 -59q57 0 111 26q53 26 116 87zM814 624q-68 -62 -148 -95q-75 -31 -166 -31q-197 0 -319 119q-123 119 -123 308q0 95 35 182
q35 86 100 151q64 64 151 100q88 35 183 35q115 0 215 -50q100 -52 169 -142q69 -89 110 -219q39 -129 39 -279q0 -163 -43 -298q-43 -137 -126 -235q-62 -72 -125 -115q-69 -47 -144 -71q-76 -24 -157 -24q-82 0 -150 27t-107 74t-39 105q0 48 28 76q27 28 73 28
q37 0 63 -23q25 -24 31 -64l6 -41q10 -67 38 -98q25 -31 75 -31q64 0 127 54q63 53 108 147q80 161 96 410z" />
    <glyph glyph-name="colon" unicode=":" horiz-adv-x="494" 
d="M251 38v148q0 25 -24 25q-35 0 -62 -30q-28 -29 -28 -69t28 -69q27 -30 61 -30q25 0 25 25zM250 628v147q0 26 -23 26q-35 0 -62 -30q-28 -29 -28 -69t28 -69q27 -31 61 -31q24 0 24 26zM104 112q0 36 17 65t46 46t65 17t65 -17t46 -46t17 -65t-17 -65t-46 -46t-65 -17
t-65 17t-46 46t-17 65zM104 701q0 36 17 65q16 28 46 47q29 17 65 17q37 0 66 -17q28 -18 45 -47t17 -65t-17 -65t-46 -46t-65 -17t-65 17t-46 46t-17 65z" />
    <glyph glyph-name="semicolon" unicode=";" horiz-adv-x="472" 
d="M250 628v147q0 26 -23 26q-35 0 -62 -30q-28 -29 -28 -69t28 -69q27 -31 61 -31q24 0 24 26zM208 -42v-3q48 89 48 148q0 41 -17 66q-18 23 -48 23q-25 0 -40 -18t-15 -45q0 -32 36 -83q36 -50 36 -88zM104 701q0 36 17 65q16 28 46 47q29 17 65 17q37 0 66 -17
q28 -18 45 -47t17 -65t-17 -65t-46 -46t-65 -17t-65 17t-46 46t-17 65zM143 -187l-19 17q56 83 56 119q0 33 -23 65l-22 30q-31 43 -31 83q0 48 33 79q34 32 80 32q55 0 90 -35q34 -35 34 -94q0 -130 -198 -296z" />
    <glyph glyph-name="less" unicode="&#x3c;" horiz-adv-x="1019" 
d="M665 62l-20 -18h200l-24 18l-1.5 1.5t-2.5 1.5l-13 10q-15 15 -15 38v20v10v651l-165 -6l40 -28q23 -15 27 -28q5 -15 5 -65v-524q0 -40 -3 -51q-4 -10 -24 -27l-1 -1l-1 -1q-1 0 -2 -1zM623 1348q26 -18 36 -48q11 -31 11 -81v-55v-6q-1 -1 -1 -4q0 -69 42 -69
q43 0 43 68q0 71 -36 125q-37 54 -95 70zM166 62l-21 -18h200l-24 18l-1.5 1.5t-2.5 1.5l-12 10q-15 14 -15 38l-1 20v10v785q0 132 14 214q14 81 48 127q35 47 103 84q-101 -31 -157 -81q-54 -48 -77 -135t-23 -237v-757q0 -40 -3 -51q-4 -10 -24 -27l-1 -1l-1 -1
q-1 0 -2 -1zM545 819l322 17v-644q0 -84 25 -118q24 -35 92 -47v-27h-439v27q67 12 93 47q24 35 24 118v432q0 94 -29 129q-30 35 -108 35h-158v-596q0 -55 13 -88q12 -34 42 -51q31 -19 83 -26v-27h-460v27q68 12 94 47q24 35 24 118v596h-86v31h86v91q0 100 11 177
q10 71 38 126q28 54 77 94q46 38 109 60q63 20 134 20q83 0 153 -30t111 -83t41 -114q0 -49 -30 -81t-75 -32t-70 28q-26 29 -26 78l1 54q1 5 1 23q0 120 -106 120q-63 0 -103 -46t-51 -128q-11 -80 -11 -235v-122h178z" />
    <glyph glyph-name="equal" unicode="=" horiz-adv-x="607" 
d="M675 1370l-707 -1393l-36 18l707 1393z" />
    <glyph glyph-name="greater" unicode="&#x3e;" horiz-adv-x="1027" 
d="M665 62l-20 -18h200l-24 18l-1.5 1.5t-2.5 1.5l-13 10q-15 15 -15 38v20v10v1197l-93 -10v-1187q0 -40 -3 -51q-4 -10 -24 -27l-1 -1l-1 -1q-1 0 -2 -1zM166 62l-21 -18h200l-24 18l-1.5 1.5t-2.5 1.5l-12 10q-15 14 -15 38l-1 20v10v785q0 132 14 214q14 81 48 127
q35 47 103 84q-101 -31 -157 -81q-54 -48 -77 -135t-23 -237v-757q0 -40 -3 -51q-4 -10 -24 -27l-1 -1l-1 -1q-1 0 -2 -1zM695 1362l172 20v-1190q0 -84 25 -118q24 -35 92 -47v-27h-439v27q67 12 93 47q24 35 24 118v1001q0 66 -6 88q-20 71 -111 71q-46 0 -81 -20
q-36 -21 -57 -59t-29 -97q-11 -80 -11 -235v-122h214v-31h-214v-596q0 -55 13 -88q12 -34 42 -51q31 -19 83 -26v-27h-460v27q68 12 94 47q24 35 24 118v596h-86v31h86v91q0 100 11 177q10 71 38 126q44 83 129 129t196 46q74 0 158 -26z" />
    <glyph glyph-name="question" unicode="?" horiz-adv-x="973" 
d="M433 38v147q0 25 -24 25q-35 0 -62 -30q-28 -29 -28 -69q0 -39 28 -68q27 -30 62 -30q24 0 24 25zM329 1337q-64 -19 -106 -49q-45 -31 -69 -72q-25 -40 -25 -87q0 -31 13 -50q14 -20 35 -20q19 0 29 16q9 17 15 58q10 72 34 118q21 41 74 86zM386 541q19 52 49 87
q31 35 137 120q130 107 170 168q41 62 41 147q0 110 -67 186t-184 97q144 -73 144 -259q0 -54 -11 -96q-11 -43 -39 -86q-27 -41 -86 -111l-66 -75q-49 -55 -66 -90q-17 -33 -22 -88zM286 111q0 53 38 91q37 37 91 37q35 0 64 -17t46 -46t17 -65q0 -35 -17 -64t-46 -46
t-64 -17q-53 0 -91 38t-38 89zM423 385l-35 -8q-40 110 -40 167q0 58 26 104q26 45 123 153q86 98 114 154q28 55 28 132q0 108 -54 181t-131 73q-76 0 -112 -69q-13 -28 -18 -51q-6 -24 -18 -85q-22 -118 -110 -118q-46 0 -75 33q-29 32 -29 83q0 71 51 129q50 57 141 92
q89 33 198 33q115 0 208 -41q92 -40 141 -117q49 -76 49 -176q0 -69 -21 -122t-69 -101q-49 -49 -144 -114q-73 -49 -108 -75q-28 -21 -59 -48q-66 -60 -66 -137q0 -33 10 -72z" />
    <glyph glyph-name="at" unicode="@" 
d="M82 1351v-1337h655v1337h-655zM751 0h-683v1365h683v-1365z" />
    <glyph glyph-name="A" unicode="A" horiz-adv-x="1543" 
d="M140 51h203q-34 40 -48 74q-14 33 -14 70q0 20 1 27q-32 -62 -61 -96q-30 -37 -81 -75zM750 1264l-57 -131l385 -867l10 -22q31 -66 31 -98q0 -43 -49 -95h264q-46 43 -78 97q-36 58 -77 151zM435 547h478l-241 543zM1043 252l-111 253h-515l-56 -128q-40 -93 -40 -155
q0 -51 24 -89q22 -37 70 -62q46 -25 122 -40v-31h-519v30q93 31 162 112q66 78 142 249l442 1000h26l481 -1081q4 -3 4 -5q3 -8 4 -10q1 -3 5 -11l44 -91q36 -73 82 -110t115 -52v-31h-638v31q83 6 116 19q72 27 72 94q0 32 -32 108z" />
    <glyph glyph-name="B" unicode="B" horiz-adv-x="1321" 
d="M231 80l-35 -27q76 10 132 10q43 0 125 -8l24 -2l-35 27q-34 25 -43 40q-10 14 -10 45v33v12q-1 2 -1 5v935q0 4 1 6v11v33q0 22 4 33q3 13 13 23q6 6 36 29l53 40l-36 -3q-71 -7 -135 -7q-63 0 -146 11l53 -41q34 -25 44 -40q9 -15 9 -45v-33v-17v-935v-17v-33
q0 -30 -9 -44q-9 -15 -44 -41zM860 756q123 36 190 112q66 77 66 182q0 107 -67 180q-68 73 -198 104q159 -112 159 -293q0 -192 -150 -285zM906 36q96 15 165 58q71 42 110 107q38 65 38 144q0 113 -75 201q-74 88 -210 133q174 -112 174 -318q0 -234 -202 -325zM647 698
h-171v-421q0 -130 60 -183q59 -54 202 -54q163 0 248 93q84 92 84 229q0 57 -14 108q-15 51 -43 90q-29 42 -69 71q-42 30 -91 44q-71 23 -206 23zM476 1103v-366h162q144 0 220 58q51 36 83 104q31 63 31 137q0 88 -37 156q-38 69 -103 108q-66 39 -148 39q-65 0 -112 -24
q-48 -25 -73 -69q-23 -46 -23 -143zM75 1l-20 -1v31q105 18 155 83q37 49 37 191v755q0 88 -10 129q-11 44 -37 73q-48 56 -145 72v31l16 -1l120 -8q57 -4 126 -4q45 0 123 5q88 6 108 8l101 11q54 6 112 6q103 0 187 -24q83 -24 142 -68q60 -46 91 -107q32 -64 32 -139
q0 -118 -74 -198q-76 -80 -217 -116q118 -12 208 -63t139 -133q48 -82 48 -186q0 -83 -32 -150q-30 -65 -95 -116q-63 -49 -152 -75q-87 -25 -195 -25q-55 0 -159 9q-149 12 -208 15q-102 5 -166 5q-67 0 -132 -4z" />
    <glyph glyph-name="C" unicode="C" horiz-adv-x="1477" 
d="M747 6q-123 33 -230 100q-102 63 -172 155q-70 91 -104 205q-36 114 -36 249q0 101 18 180q18 78 59 153q41 73 102 134t151 122q-106 -47 -185 -111q-78 -63 -135 -145q-53 -78 -83 -176q-28 -94 -28 -200q0 -110 32 -214q30 -98 91 -187q58 -85 143 -144
q81 -57 174 -86q90 -29 203 -35zM1262 1350l117 -357h-34q-51 98 -102 163q-55 68 -112 111q-59 43 -125 62q-68 20 -149 20q-118 0 -220 -45q-103 -45 -177 -127q-76 -84 -116 -194q-42 -112 -42 -241q0 -193 77 -355q76 -160 212 -252q134 -92 298 -92q112 0 212 44
q98 44 175 127t134 209h41q-84 -222 -253 -336q-169 -115 -413 -115q-285 0 -472 154q-82 70 -134 152q-56 86 -84 187q-29 102 -29 208q0 198 101 364t277 260q175 94 390 94q87 0 237 -26q99 -19 148 -19q23 0 43 4z" />
    <glyph glyph-name="D" unicode="D" horiz-adv-x="1559" 
d="M871 46q116 27 198 75q81 47 156 128q165 186 165 441q0 155 -58 284q-60 133 -166 223q-109 91 -251 130q49 -23 102 -58q47 -33 84 -72q35 -38 63 -80q115 -175 115 -416q0 -126 -32 -245q-31 -116 -92 -204q-52 -76 -117 -122q-69 -49 -167 -84zM237 80l-39 -29
q87 9 157 9q75 0 135 -7l-39 27q-30 20 -41 38q-12 18 -12 47q-1 11 -1 33v17v935v17q0 22 1 33q0 31 10 45q9 15 43 40l53 39q-94 -8 -152 -8q-66 0 -150 7l-18 1l53 -39q35 -25 43 -38q10 -16 10 -47q0 -13 1 -18v-15v-17v-935v-17v-14q-1 -5 -1 -19q0 -31 -9 -45
q-8 -13 -44 -40zM487 1120l-2 -773q0 -127 23 -187q23 -55 75 -83q53 -30 126 -30q115 0 212 48q94 45 170 136q73 90 110 209q38 123 38 260q0 184 -67 328q-67 145 -188 228q-121 82 -269 82q-117 0 -172 -52q-56 -53 -56 -166zM55 0l3 31q107 18 157 83q38 49 38 191v755
q0 86 -9 129q-11 43 -38 73q-49 55 -148 72v31q50 -2 39 -2l117 -6q57 -3 122 -3q118 0 254 12q121 10 188 10q161 0 290 -49q128 -49 226 -142q95 -91 147 -219q52 -126 52 -279q0 -152 -53 -282q-53 -129 -153 -221q-100 -91 -237 -141q-137 -49 -307 -49q-61 0 -198 12
q-96 9 -187 9q-73 0 -142 -4l-136 -10q-16 0 -25 -1z" />
    <glyph glyph-name="E" unicode="E" horiz-adv-x="1351" 
d="M234 80l-39 -29h292l-39 29q-34 25 -43 40q-10 14 -10 45v22q-1 3 -1 11v17v935v17q0 8 1 12v21q0 30 11 47q9 15 42 38l57 42h-328l57 -42q33 -25 44 -40q9 -15 9 -45q1 -11 1 -33v-17v-935v-17q0 -22 -1 -33q0 -31 -9 -45q-8 -13 -44 -40zM979 51h186l56 186
q-34 -38 -71 -72t-80 -62q-53 -34 -91 -52zM888 683v129q-31 -28 -43 -35q-14 -9 -65 -29q57 -17 108 -65zM1140 1195l-22 133h-144q54 -22 90 -50q32 -25 76 -83zM55 1365h1138l38 -372h-32q-52 172 -154 254q-103 81 -267 81h-56q-130 0 -185 -50q-55 -51 -55 -169v-340
h133q151 0 220 48q70 47 95 171h30v-506h-30q-19 99 -53 153q-34 51 -94 74q-61 21 -165 21h-136v-433q0 -100 19 -151q18 -53 65 -74t130 -21h92q137 0 258 84q135 94 265 262l8 11h35l-118 -408h-1181v31q107 18 157 83q38 49 38 191v755q0 93 -10 132q-11 43 -37 70
q-49 55 -148 72v31z" />
    <glyph glyph-name="F" unicode="F" horiz-adv-x="1215" 
d="M234 80l-39 -29h292l-39 29q-34 25 -43 40q-10 14 -10 45v22q-1 3 -1 11v17v935v17q0 8 1 12v21q0 30 11 47q9 15 42 38l57 42h-328l57 -42q35 -26 44 -39t9 -46q1 -11 1 -33v-17v-935v-17q0 -22 -1 -33q0 -31 -9 -45q-8 -13 -44 -40zM851 683v129q-22 -22 -43 -35
q-23 -13 -65 -29q56 -16 108 -65zM1112 1195l-22 133h-143q58 -25 92 -52q33 -26 73 -81zM55 1365h1109l39 -372h-31q-37 116 -93 190q-55 72 -137 109q-82 35 -192 35h-28q-131 0 -185 -48q-55 -49 -55 -170v-340h99q151 0 220 48q70 47 95 171h30v-533h-30
q-19 113 -54 171q-34 57 -93 81q-61 23 -169 23h-98v-425q0 -89 12 -130q12 -42 46 -73q61 -55 179 -71v-31h-664v31q107 18 157 83q38 49 38 191v755q0 93 -10 132q-11 43 -37 70q-49 55 -148 72v31z" />
    <glyph glyph-name="G" unicode="G" horiz-adv-x="1592" 
d="M698 4q-112 39 -182 82t-133 112q-85 97 -130 223q-46 125 -46 265q0 119 33 233t96 201q68 97 211 198q-142 -69 -242 -167q-100 -97 -150 -221q-51 -123 -51 -264q0 -173 75 -319q73 -145 210 -235t309 -108zM1465 632h-332l59 -44q33 -25 44 -40q9 -15 9 -45
q0 -13 1 -18v-15v-17v-152q0 -80 -17 -125q-18 -44 -68 -94q94 39 191 51v320v17q0 22 1 33q0 30 11 47q9 15 42 38zM1266 1348l115 -361h-30q-50 96 -106 167.5t-112 111.5q-116 86 -276 86q-118 0 -222 -49q-107 -50 -186 -142q-147 -169 -147 -428q0 -199 76 -358
t210 -251q133 -91 297 -91q102 0 180 34q79 33 112 90q31 52 31 172v34q0 89 -12 132q-13 44 -45 75q-61 57 -179 67v31h616v-31q-79 -18 -120 -83q-28 -49 -28 -191v-182l61 -92q-9 1 -32 1q-80 0 -148 -13q-77 -15 -184 -49q-112 -36 -184 -47q-74 -13 -163 -13
q-326 0 -511 182q-101 102 -157 238q-57 137 -57 279q0 149 58 281q58 133 161 233t240 157q138 56 290 56q91 0 209 -19q17 -1 43 -6q61 -11 93 -17q34 -7 59 -7q7 0 14 1t22 1q9 0 12 1z" />
    <glyph glyph-name="H" unicode="H" horiz-adv-x="1668" 
d="M1169 80l-39 -29h292l-39 29q-34 25 -43 40q-10 14 -10 45q0 30 -1 33v17v935v17q1 3 1 33q0 31 10 45q9 15 43 40l57 42h-328l57 -42q33 -25 44 -40q9 -15 9 -45q1 -11 1 -33v-17v-935v-17q0 -22 -1 -33q0 -31 -9 -45q-8 -13 -44 -40zM234 80l-39 -29h292l-39 29
q-34 25 -43 40q-10 14 -10 45v22q-1 3 -1 11v17v935v17q0 8 1 12v21q0 31 10 45q9 15 43 40l57 42h-328l57 -42q33 -25 44 -40q9 -15 9 -45q1 -11 1 -33v-17v-935v-17q0 -22 -1 -33q0 -31 -9 -45q-8 -13 -44 -40zM678 0h-623v31q107 18 157 83q38 49 38 191v755
q0 93 -10 132q-11 43 -37 70q-49 55 -148 72v31h623v-31q-108 -18 -158 -83q-20 -26 -29 -69t-9 -122v-334h703v334q0 93 -10 132q-11 43 -37 70q-49 55 -148 72v31h623v-31q-108 -18 -158 -83q-20 -26 -29 -69t-9 -122v-755q0 -82 11 -128q11 -45 37 -74q49 -55 148 -72
v-31h-623v31q107 18 157 83q38 49 38 191v375h-703v-375q0 -82 11 -128q11 -45 37 -74q49 -55 148 -72v-31z" />
    <glyph glyph-name="I" unicode="I" horiz-adv-x="733" 
d="M234 80l-39 -29h292l-39 29q-34 25 -43 40q-10 14 -10 45v22q-1 3 -1 11v17v935v17q0 8 1 12v21q0 31 10 45q9 15 43 40l57 42h-328l57 -42q35 -26 44 -39t9 -46q1 -11 1 -33v-17v-935v-17q0 -22 -1 -33q0 -31 -9 -45q-8 -13 -44 -40zM678 0h-623v31q107 18 157 83
q38 49 38 191v755q0 93 -10 132q-11 43 -37 70q-49 55 -148 72v31h623v-31q-108 -18 -158 -83q-20 -26 -29 -69t-9 -122v-755q0 -82 11 -128q11 -45 37 -74q49 -55 148 -72v-31z" />
    <glyph glyph-name="J" unicode="J" horiz-adv-x="900" 
d="M206 17q-36 27 -53 45q-18 18 -26 42q-7 21 -7 54q0 25 5 50q4 27 4 32q0 20 -11 34q-12 13 -31 13q-24 0 -38 -23q-15 -24 -15 -61q0 -66 47 -116q48 -51 125 -70zM682 1327h-328l57 -42q39 -28 46 -43t7 -75v-27v-822q0 -94 -6 -150q-8 -57 -25 -88q-19 -33 -53 -58
q106 43 148 134q42 90 42 269v725q0 4 1 6v11v33q1 29 11 45q9 15 43 40zM197 1365h650v-31q-104 -18 -152 -83q-21 -29 -28 -68q-8 -43 -8 -123v-661q0 -162 -53 -253q-50 -84 -130 -128q-81 -45 -181 -45q-82 0 -150 30t-108 83q-39 53 -39 115q0 59 34 97q33 38 86 38
q48 0 81 -30q33 -31 33 -78q0 -20 -6 -52l-5 -22q-7 -25 -7 -46q0 -40 25 -62q26 -23 63 -23q26 0 51 13q25 14 41 39t22 55q11 55 11 158v772q0 87 -11 131q-12 42 -45 72q-57 54 -174 71v31z" />
    <glyph glyph-name="K" unicode="K" horiz-adv-x="1568" 
d="M234 80l-39 -29h292l-39 29q-34 25 -43 40q-10 14 -10 45v22q-1 3 -1 11v17v935v17q0 8 1 12v21q0 30 11 47q9 15 42 38l57 42h-328l57 -42q35 -26 44 -39t9 -46q1 -11 1 -33v-17v-935v-17q0 -22 -1 -33q0 -31 -9 -45q-8 -13 -44 -40zM1035 1173q88 86 184 155h-247
q67 -52 67 -122q0 -8 -4 -33zM768 837l-78 -77l316 -475q47 -72 63 -104q15 -31 15 -55q0 -39 -39 -75h289q-53 37 -85 78l-59 76q-18 25 -22.5 31t-7.5 9zM981 253l-319 480l-180 -174v-254q0 -84 11 -128q11 -43 40 -75q51 -54 158 -71v-31h-636v31q107 18 157 83
q38 49 38 191v755q0 93 -10 132q-11 43 -37 70q-49 55 -148 72v31h623v-31q-108 -18 -158 -83q-20 -26 -29 -69t-9 -122v-447l393 383q74 71 102 115t28 88q0 57 -41 93q-40 36 -109 42v31h553v-29q-172 -48 -389 -256l-97 -93l-22 -21l-67 -67l411 -618q8 -10 11 -14t9 -14
l77 -107q48 -59 98 -85q47 -25 111 -30v-31h-650v31q80 5 110 23q30 20 30 64q0 28 -12 56q-11 25 -47 79z" />
    <glyph glyph-name="L" unicode="L" horiz-adv-x="1245" 
d="M234 80l-39 -29h292l-39 29q-34 25 -43 40q-10 14 -10 45v22q-1 3 -1 11v17v935v17q0 8 1 12v21q0 30 11 47q9 15 42 38l57 42h-327l56 -42q35 -26 44 -39t9 -46q1 -11 1 -33v-17v-935v-17q0 -22 -1 -33q0 -31 -9 -45q-8 -13 -44 -40zM911 51h179l54 186
q-97 -117 -233 -186zM55 1365h643v-31q-121 -18 -173 -82q-24 -28 -33 -72q-10 -41 -10 -120v-763q0 -74 9 -118q7 -42 30 -71q45 -57 171 -57h21q67 0 131 21q63 19 131 66q66 45 135 114q71 73 140 163h31l-120 -415h-1106v31q107 18 157 83q38 49 38 191v755
q0 93 -10 132q-11 43 -37 70q-49 55 -148 72v31z" />
    <glyph glyph-name="M" unicode="M" horiz-adv-x="2007" 
d="M157 51h228q-50 55 -65 86q-18 33 -27 85q-23 -59 -53 -96q-28 -35 -83 -75zM452 1129l504 -1010l55 130l-460 916q-34 69 -34 103q0 31 16 59h-230q56 -41 84 -85q38 -58 65 -113zM1523 89l-54 -38h307l-52 42q-34 27 -45 117l-110 955q-2 34 -2 36q0 24 10 40t41 41
l57 45h-232l126 -1103l4 -22q2 -32 2 -36q0 -25 -9 -39q-12 -15 -43 -38zM1427 1143l-456 -1082h-24l-546 1087l-59 -677q-5 -62 -5 -106q0 -145 60 -225q58 -79 192 -109v-31h-546v31q72 25 129 79t86 122q32 78 47 245l63 721q-37 71 -87 102q-49 31 -124 34v31h484
q-2 -6 -3 -8t-2 -5q-19 -45 -19 -72q0 -48 51 -150l387 -768l320 747q38 91 38 137q0 49 -40 119h481v-31q-99 -13 -145 -58q-45 -45 -45 -131q0 -27 3 -51l3 -25l84 -742q1 -7 2.5 -14.5t1.5 -11.5q2 -4 4 -20t5 -43q15 -97 60 -144q43 -46 137 -63v-31h-636v31
q106 26 155 69q49 42 49 107q0 29 -7 82z" />
    <glyph glyph-name="N" unicode="N" horiz-adv-x="1667" 
d="M172 51h204q-40 43 -60 77q-21 31 -39 80q-21 -54 -41 -84q-22 -34 -64 -73zM1469 1327h-192q48 -24 73 -49t49 -73q18 48 30 69q14 24 40 53zM303 1201l1096 -1170v157l-938 1002q-65 68 -103 137h-204q71 -42 149 -126zM1437 1006v-1038h-30l-1098 1169l1 -671
q0 -115 13 -180q14 -67 42 -117q67 -109 221 -138v-31h-523v31q135 50 180 189q16 44 22 102q6 56 6 140v716q-80 81 -120 110q-41 29 -96 46v31h388q24 -42 52 -76q5 -3 22 -24q6 -7 11.5 -13.5t8.5 -11.5q7 -7 11.5 -12t5.5 -7l845 -903v688q0 104 -26 173q-26 66 -83 104
t-150 51v31h477v-31q-107 -29 -143 -96q-37 -67 -37 -232z" />
    <glyph glyph-name="O" unicode="O" horiz-adv-x="1565" 
d="M1030 65q366 212 366 616q0 132 -40 249q-39 115 -115 211q-75 92 -175 147q219 -192 219 -598q0 -119 -21 -227q-22 -109 -60 -190q-23 -48 -41 -73q-25 -35 -54 -64q-30 -32 -79 -71zM481 66q-88 66 -147 156q-60 91 -88 207q-30 119 -30 259q0 209 64 355
q64 147 201 250q-119 -64 -203 -156q-86 -93 -129 -208q-45 -115 -45 -247q0 -130 45 -246q43 -116 129 -211q84 -94 203 -159zM318 688q0 -147 33 -272q32 -124 95 -214q63 -91 148 -136q86 -47 191 -47q172 0 299 136q77 83 121 221q42 137 42 313q0 152 -32 278
q-33 124 -93 211q-63 89 -146 134q-86 47 -193 47q-105 0 -191 -47q-86 -48 -147 -136q-60 -87 -94 -214q-33 -126 -33 -274zM66 681q0 144 56 277q55 131 156 232q98 98 230 154q131 54 275 54q194 0 359 -96q164 -98 261 -262q96 -165 96 -359q0 -143 -54 -274
q-56 -132 -155 -231t-229 -155t-275 -56q-197 0 -362 96q-166 96 -262 261q-96 164 -96 359z" />
    <glyph glyph-name="P" unicode="P" horiz-adv-x="1285" 
d="M234 80l-39 -29h292l-39 29q-34 25 -43 40q-10 14 -10 45v22q-1 3 -1 11v17v935v17q0 8 1 12v21q0 28 9 43q6 13 37 37l7 5l56 43l-36 -2q-91 -6 -164 -6q-45 0 -123 3l53 -38q33 -23 43 -38q10 -16 10 -47q1 -11 1 -33v-17v-935v-17q0 -22 -1 -33q0 -31 -9 -45
q-8 -13 -44 -40zM872 704q142 37 217 123q74 85 74 205q0 76 -35 138q-35 63 -99 103q-67 42 -154 58q181 -94 181 -304q0 -115 -46 -194t-138 -129zM482 1103v-402h164q160 0 242 51q63 38 97 110q34 71 34 163q0 146 -87 231q-88 86 -232 86q-72 0 -119 -22
q-50 -23 -72 -64q-27 -48 -27 -153zM668 658h-186v-353q0 -88 12 -129q12 -42 46 -74q62 -56 179 -71v-31h-664v31q107 18 157 83q38 49 38 191v755q0 93 -10 132q-11 43 -37 70q-48 53 -148 72v31q10 -1 25 -1l88 -5q53 -3 123 -3q111 0 201 9l140 12q68 6 130 6
q233 0 366 -94q132 -94 132 -261q0 -98 -50 -181q-49 -82 -136 -128q-121 -61 -365 -61h-41z" />
    <glyph glyph-name="Q" unicode="Q" horiz-adv-x="1564" 
d="M1437 -148q-106 -127 -234 -127q-153 0 -442 169q-119 69 -152 83q-43 18 -77 18q-33 0 -57 -10q-25 -10 -61 -37q39 15 63 15q34 0 76 -20q41 -20 141 -90q81 -55 145 -96q47 -30 104 -60q118 -61 214 -61q88 0 161 56q72 56 119 160zM1030 65q366 212 366 616
q0 132 -40 249q-39 115 -115 211q-75 92 -175 147q219 -192 219 -598q0 -119 -21 -227q-22 -109 -60 -190q-23 -48 -41 -73q-25 -35 -54 -64q-30 -32 -79 -71zM481 66q-88 66 -147 156q-60 91 -88 207q-30 119 -30 259q0 209 64 355q64 147 201 250q-119 -64 -203 -156
q-86 -93 -129 -208q-45 -115 -45 -247q0 -130 45 -246q43 -116 129 -211q84 -94 203 -159zM318 688q0 -147 33 -272q32 -124 95 -214q63 -91 148 -136q86 -47 191 -47q172 0 299 136q77 83 121 221q42 137 42 313q0 152 -32 278q-33 124 -93 211q-63 89 -146 134
q-86 47 -193 47q-105 0 -191 -47q-86 -48 -147 -136q-60 -87 -94 -214q-33 -126 -33 -274zM499 23q-132 57 -229 157q-97 99 -150 231q-54 131 -54 270q0 144 56 277q55 131 156 232q98 98 230 154q131 54 275 54q194 0 359 -96q164 -98 261 -262q96 -165 96 -359
q0 -144 -54 -275q-56 -132 -155 -231t-231 -155q-131 -55 -278 -55q-45 0 -76 4l6 -3q25 -13 59 -30l84 -45q134 -71 208 -96q75 -27 140 -27q62 0 109 22q48 21 89 68q42 48 78 119l28 -10q-37 -141 -88 -232q-51 -89 -120 -133q-71 -44 -160 -44q-85 0 -170 43
q-88 43 -218 147l-89 71q-67 56 -118 86q-45 24 -82 24q-43 0 -79 -24q-36 -25 -82 -84l-24 18q111 174 223 184z" />
    <glyph glyph-name="R" unicode="R" horiz-adv-x="1609" 
d="M234 80l-39 -29h292l-39 29q-34 25 -43 40q-10 14 -10 45v22q-1 3 -1 11v17v935v17q0 8 1 12v21q0 28 9 43q6 13 37 37l7 5l56 43l-36 -2q-91 -6 -164 -6q-45 0 -123 3l53 -38q33 -23 43 -38q10 -16 10 -47q1 -11 1 -33v-17v-935v-17q0 -22 -1 -33q0 -31 -9 -45
q-8 -13 -44 -40zM1503 -1q-52 28 -86 53q-37 27 -77 67q-50 53 -81 97q-33 44 -98 153q-68 112 -115 173q-53 67 -104 106q-53 41 -115 66q41 -40 66 -81q17 -28 50 -93q6 -10 13.5 -24t8.5 -17q3 -6 20 -42q107 -209 230 -317q123 -109 288 -141zM872 752q69 15 123 43
q56 29 91 64q37 37 56 82t19 96q0 109 -78 190t-206 104q59 -32 96 -74q40 -45 59 -97q20 -57 20 -118q0 -110 -43 -178q-43 -70 -137 -112zM482 1103v-347h179q155 0 223 35q62 32 96 97q34 64 34 150q0 88 -40 158q-40 69 -113 109q-74 38 -166 38q-138 0 -186 -86
q-27 -49 -27 -154zM656 716h-174v-411q0 -84 11 -128q11 -43 40 -75q51 -54 158 -71v-31h-636v31q107 18 157 83q38 49 38 191v755q0 93 -10 132q-11 43 -37 70q-48 53 -148 72v31q9 -1 25 -1l88 -5q53 -3 123 -3q111 0 201 9l140 12q66 6 130 6q118 0 211 -24
q92 -24 157 -69q64 -45 99 -110q35 -67 35 -147q0 -135 -92 -210t-274 -89q112 -43 190 -120t184 -250q124 -197 191 -270q71 -77 155 -108v-28q-106 1 -185 20q-78 18 -153 64q-96 59 -179 159q-85 101 -147 229l-53 111q-36 75 -67 114q-28 35 -69 48q-39 13 -109 13z" />
    <glyph glyph-name="S" unicode="S" horiz-adv-x="1072" 
d="M102 259l12 -136q70 -40 168 -73q-63 56 -101 99q-37 42 -79 110zM781 84q165 119 165 286q0 66 -27 129q-30 64 -79 106q-73 67 -261 145q-146 62 -201 89q-46 22 -95 62q-100 79 -100 202q0 34 8 66q8 29 24 57q18 30 53 73q-143 -104 -143 -257q0 -148 116 -234
q61 -46 140 -82q15 -6 40 -17.5t114 -50.5q175 -75 240 -136q105 -97 105 -229q0 -62 -23 -113q-24 -50 -76 -96zM847 1334h10l58 -333h-34q-26 86 -53 142q-24 50 -58 87q-51 57 -122 89q-73 32 -150 32q-109 0 -180 -59q-70 -60 -70 -154q0 -104 91 -171q46 -34 101 -60
q50 -26 167 -75q93 -37 132 -56q54 -25 87 -45q28 -16 66 -46q139 -112 139 -293q0 -118 -65 -215q-64 -96 -180 -150q-114 -55 -255 -55q-94 0 -224 29q-80 19 -197 64l-28 10l-30 379h30q17 -59 37 -103t47 -87.5t58 -82.5q129 -157 307 -157q90 0 162 35q70 34 110 95
q40 59 40 138q0 70 -31 125q-32 57 -101 105q-67 47 -192 101q-175 76 -215 98q-71 39 -121 89q-48 49 -71 104q-23 57 -23 120q0 98 53 181t144 129q92 47 202 47q69 0 156 -23l60 -16q68 -18 143 -18z" />
    <glyph glyph-name="T" unicode="T" horiz-adv-x="1402" 
d="M222 1328h-137l-14 -147q45 66 73 92q32 31 78 55zM569 80l-40 -29h293l-39 29q-35 27 -45 41q-9 14 -9 44v33v11q-1 2 -1 6v935q0 4 1 6v11v33q0 30 11 47q9 13 43 38l57 42h-308l47 -42q25 -22 34 -40q9 -19 9 -45v-33q1 -6 1 -17v-935q0 -11 -1 -17v-33q0 -30 -9 -45
q-11 -15 -44 -40zM1293 1195l-19 133h-145q56 -24 89 -50q35 -28 75 -83zM52 1365h1298l31 -372h-32q-30 103 -81 178q-53 76 -120 116q-68 40 -144 40q-58 0 -102 -24q-45 -26 -65 -68t-20 -132v-798q0 -89 12 -130q12 -42 46 -73q60 -54 178 -71v-31h-705v31
q130 18 190 82q26 28 37 71q10 40 10 121v798q0 99 -27 144q-20 36 -63 59q-42 21 -97 21q-112 0 -206 -89q-93 -88 -140 -245h-31z" />
    <glyph glyph-name="U" unicode="U" horiz-adv-x="1544" 
d="M497 1327h-336l61 -42q30 -19 42 -37q11 -19 11 -48q0 -30 1 -33v-17v-559q0 -71 12 -173q23 -193 153 -306q128 -111 330 -113q-203 44 -305 180q-47 62 -65 143q-19 77 -19 210v618v17v33q2 31 12 47q11 17 42 38zM1349 1327h-176q40 -23 63 -46q25 -27 43 -64
q28 66 70 110zM43 1365h636v-31q-116 -18 -168 -82q-25 -33 -32 -73q-9 -42 -9 -119v-552v-35q0 -65 11 -120.5t33.5 -103.5t54.5 -83q53 -59 135 -92q81 -34 171 -34q130 0 225 65q94 64 142 183q38 96 38 260v465q0 171 -78 244q-65 62 -163 77v31h465v-31
q-66 -18 -107 -54t-59 -95q-18 -58 -18 -148v-488q0 -122 -15 -196q-15 -75 -49 -135q-46 -82 -115 -136q-72 -57 -163 -85q-93 -29 -198 -29q-112 0 -207 33q-94 31 -166 94t-113 148q-56 118 -56 336v481q0 86 -9 129q-11 43 -38 73q-49 55 -148 72v31z" />
    <glyph glyph-name="V" unicode="V" horiz-adv-x="1541" 
d="M1379 1327h-244q61 -38 86 -72q24 -33 29 -88q29 59 55 91q30 36 74 69zM763 30l55 125l-410 944q-29 67 -29 115q0 30 13 55q15 27 50 56h-306q64 -52 103 -122q11 -20 39 -74q11 -21 29 -63zM498 1113l369 -846l313 721q40 92 40 155q0 77 -53 124q-53 46 -163 67v31
h519v-30q-64 -22 -115 -64q-49 -41 -93 -110q-48 -76 -97 -187l-444 -1007h-22l-484 1088q-66 152 -114 206q-49 54 -136 73v31h650v-31l-22 -1q-94 -7 -135 -34q-39 -25 -39 -83q0 -43 26 -103z" />
    <glyph glyph-name="W" unicode="W" horiz-adv-x="2260" 
d="M2103 1327h-252q64 -32 90 -65q27 -36 34 -94q49 97 128 159zM712 30l50 142l-356 927q-29 81 -29 119q0 33 16 56q18 26 56 53h-314q36 -29 64 -63q27 -35 50 -78q25 -50 53 -120zM1585 173l-401 1058l-54 -151l400 -1049zM808 296l385 1069h30l408 -1064l272 687
q37 92 37 156q0 149 -230 190v31h532v-30q-65 -23 -118 -68q-54 -45 -98 -116q-43 -72 -87 -177l-400 -1007h-27l-403 1061l-384 -1061h-26l-432 1088q-40 100 -73 155q-35 54 -74 82q-40 29 -102 42v31h648v-31q-85 -4 -123 -18q-73 -24 -73 -94q0 -44 25 -109z" />
    <glyph glyph-name="X" unicode="X" horiz-adv-x="1450" 
d="M1208 1328h-199q62 -39 62 -94q0 -12 -7 -39q63 75 144 133zM153 51h190q-34 44 -34 91q0 14 6 53q-61 -73 -162 -144zM954 51h276q-31 26 -59 54q-24 24 -58 68q-77 106 -96 134l-495 742q-84 125 -84 185q0 52 53 93h-324q44 -30 79 -68q32 -37 95 -128l62 -89
q5 -6 11 -15.5t8 -12t4.5 -6t2.5 -4.5l508 -763q19 -29 31 -60q14 -36 14 -55q0 -32 -28 -75zM905 223l-265 395l-235 -318q-57 -78 -57 -136q0 -116 203 -133v-31h-526v30q57 13 107 50q41 30 86 72q47 42 75 75l57 67l12 14l254 344l-240 362q-3 6 -6 11q-1 2 -16 21
l-58 83q-71 102 -125 150q-52 44 -116 55v31h634v-31q-86 -3 -122 -23q-34 -21 -34 -70q0 -47 47 -118l188 -288l182 230q85 106 85 164q0 93 -161 105v31h480v-30q-54 -11 -105 -40q-54 -32 -111 -85q-58 -55 -108 -112q-19 -21 -36 -41l-203 -255l342 -504
q98 -142 160 -198q62 -57 132 -69v-31h-646v31q65 5 99 15q34 9 50 28q15 18 15 50q0 41 -38 99z" />
    <glyph glyph-name="Y" unicode="Y" horiz-adv-x="1487" 
d="M591 80l-39 -29h292l-39 29q-34 25 -43 40q-10 14 -10 45v22q-1 3 -1 11v17v468l-296 422q-58 85 -58 137q0 28 15 50q14 20 47 40h-331q43 -26 85 -71q39 -45 114 -153l16 -23l302 -438v-432v-17q0 -22 -1 -33q0 -31 -9 -45q-8 -13 -44 -40zM1166 1186q71 86 151 145
h-245q50 -24 73 -57q21 -33 21 -88zM1114 1026l-275 -343v-378q0 -87 12 -129q10 -41 43 -74q57 -54 168 -71v-31h-677v31q123 18 178 82q24 27 35 69q9 41 9 123v335l-305 442l-11 15q-88 131 -145 180q-58 49 -128 57v31h633v-31l-21 -1q-80 -5 -107 -23q-29 -20 -29 -66
q0 -44 42 -106l288 -412l232 285q76 94 76 172q0 70 -51 109q-53 38 -148 42v31h536v-31q-52 -14 -95 -39q-46 -28 -87 -67q-39 -37 -95 -105l-63 -79z" />
    <glyph glyph-name="Z" unicode="Z" horiz-adv-x="1192" 
d="M373 1326h-128l-34 -143q39 56 73 86q34 31 89 57zM818 51h208l32 163q-46 -65 -103 -105q-54 -38 -137 -58zM91 51h120l809 1277h-120zM1171 446l-73 -446h-1065v32l821 1295h-169q-204 0 -320 -77q-117 -78 -195 -264h-37l78 379h920v-31l-817 -1283h237q146 0 257 34
q112 35 173 96q93 93 150 265h40z" />
    <glyph glyph-name="bracketleft" unicode="[" horiz-adv-x="608" 
d="M231 1429v-1493h198l-39 29q-35 26 -43 41q-10 16 -10 45v33q-1 6 -1 17v1150q0 11 1 17v33q0 32 10 46q9 15 43 40l57 42h-216zM620 -115h-427v1594h427v-50q-108 -17 -158 -77q-21 -25 -29 -63t-8 -115v-984q0 -86 9 -122q9 -37 38 -66q51 -51 148 -66v-51z" />
    <glyph glyph-name="backslash" unicode="\" horiz-adv-x="546" 
d="M546 -73l-40 -19l-506 1530l40 19z" />
    <glyph glyph-name="bracketright" unicode="]" horiz-adv-x="608" 
d="M178 -64h199v1493h-217l57 -42q33 -25 44 -40q10 -14 10 -46v-33v-17v-1150v-17v-33q0 -30 -9 -45t-45 -41zM415 1479v-1594h-427v51q108 17 158 76q23 26 30 63q7 35 7 115v984q0 87 -9 124q-9 36 -38 64q-51 52 -148 67v50h427z" />
    <glyph glyph-name="asciicircum" unicode="^" 
d="M82 1351v-1337h655v1337h-655zM751 0h-683v1365h683v-1365z" />
    <glyph glyph-name="underscore" unicode="_" horiz-adv-x="1024" 
d="M1024 -311h-1024v38h1024v-38z" />
    <glyph glyph-name="grave" unicode="`" horiz-adv-x="483" 
d="M166 1212l145 -160l-62 160h-83zM343 977l-241 262h202l77 -262h-38z" />
    <glyph glyph-name="a" unicode="a" horiz-adv-x="924" 
d="M344 807q-71 -18 -112 -58q-43 -40 -43 -91q0 -19 9 -30t24 -11q14 0 21 9q7 7 12 34q11 56 29 85q15 27 60 62zM344 17q-170 35 -170 186q0 98 79 168q33 30 135 79q-120 -22 -188 -63q-114 -70 -114 -185q0 -83 61 -134q59 -52 156 -52q29 0 41 1zM598 480v-436h148
l-23 18v1t-1 1q-1 1 -3 1l-13 10q-15 15 -15 38v20l-1 10v340q0 138 -32 208q-46 93 -141 118q64 -45 75 -143q6 -60 6 -186zM564 137v331q-95 -15 -166 -50q-68 -34 -107 -89q-37 -53 -37 -119t40 -109q39 -44 99 -44q73 0 171 80zM564 0v93q-124 -104 -264 -104
q-112 0 -180 59t-68 153q0 136 132 212t380 87v28v14q0 82 -7 128q-8 51 -20 74q-15 29 -42 47q-29 17 -60 17q-47 0 -74 -30q-27 -31 -34 -95q-7 -62 -26 -85q-18 -23 -62 -23q-34 0 -57 24q-23 25 -23 62q0 52 37 93q38 42 103 65q65 24 143 24q101 0 177 -40
q75 -40 113 -113q21 -40 29 -83q8 -50 8 -127v-288q0 -84 25 -118q24 -35 92 -47v-27h-322z" />
    <glyph glyph-name="b" unicode="b" horiz-adv-x="1067" 
d="M170 1213v-1163l92 58v1232l-164 -18l39 -28q1 0 4 -3l13 -10q10 -7 13 -20t3 -48zM662 805q94 -61 138 -157q43 -93 43 -245q0 -121 -28 -201t-98 -150q68 33 118 89q48 54 76 131q26 76 26 159q0 98 -34 176q-33 77 -97 131q-62 52 -144 67zM340 655v-509
q70 -64 124 -91q53 -28 104 -28q72 0 127 46q54 45 84 129q29 85 29 198q0 88 -16 158q-17 71 -48 125q-32 54 -75 82q-44 29 -95 29q-55 0 -111 -33q-57 -35 -123 -106zM340 1382v-665q76 64 143 93q63 28 146 28q85 0 157 -29q69 -29 124 -83q54 -55 83 -124
q29 -72 29 -157q0 -93 -33 -176q-36 -85 -95 -149q-61 -65 -141 -103q-80 -37 -167 -37q-143 0 -268 111l-153 -91h-30v1158q0 84 -25 119q-25 36 -92 46v22z" />
    <glyph glyph-name="c" unicode="c" horiz-adv-x="863" 
d="M623 784q29 -39 38 -63q9 -31 16 -88q8 -52 18 -69q9 -16 30 -16q33 0 33 48q0 100 -135 188zM453 6q-273 71 -273 406q0 127 37 210q36 83 128 162q-257 -132 -257 -403q0 -105 47 -191t131 -134q81 -48 187 -50zM799 202l23 -28q-68 -76 -121 -116q-54 -42 -113 -61
q-57 -18 -131 -18q-117 0 -209 51q-91 49 -144 143q-52 91 -52 206q0 92 35 179q35 86 96 149q62 64 146 99q85 35 176 35q87 0 159 -31q74 -32 118 -85q43 -52 43 -116q0 -40 -24 -69q-26 -29 -62 -29q-54 0 -81 52q-11 21 -19 91q-7 67 -26 96q-16 27 -46 43
q-30 15 -68 15q-69 0 -122 -48q-52 -48 -81 -134q-29 -87 -29 -200q0 -112 33 -201q34 -90 93 -136q59 -48 138 -48q44 0 87 17t88 53q46 37 93 91z" />
    <glyph glyph-name="d" unicode="d" horiz-adv-x="1102" 
d="M769 1213v-1169h148l-23 18l-1.5 1.5t-2.5 1.5l-13 10q-15 15 -15 38l-1 20v10v1197l-164 -18l39 -28q1 0 4 -3l13 -10q10 -7 13 -18q3 -12 3 -50zM391 10q-63 37 -90 61q-28 26 -57 69q-68 110 -68 256q0 124 37 208q38 87 128 177q-126 -74 -190 -176
q-65 -104 -65 -231q0 -136 81 -234q79 -97 224 -130zM735 173v514l-8 7q-67 58 -117 82q-54 26 -103 26q-71 0 -126 -46t-85 -132q-30 -85 -30 -202q0 -109 29 -199q28 -86 83 -137q53 -50 123 -50q109 0 234 137zM735 0v102l-4 -3q-136 -119 -287 -119q-110 0 -199 52
q-90 51 -141 143q-52 91 -52 200q0 122 60 228q58 106 160 171q100 64 215 64q132 0 248 -94v414q0 84 -25 119q-25 36 -92 46v22l321 37v-1190q0 -83 26 -118t92 -47v-27h-322z" />
    <glyph glyph-name="e" unicode="e" horiz-adv-x="925" 
d="M707 501h86q-3 74 -27 134t-66 102q-45 42 -101 59q59 -47 84 -109t25 -158q0 -20 -1 -28zM507 7q-70 9 -114 27q-43 18 -84 56q-59 54 -95 148q-34 90 -34 199q0 75 15 138q14 64 45 113q31 51 82 95q-113 -61 -175 -164q-61 -101 -61 -228q0 -108 49 -196
q51 -91 137 -139q88 -50 193 -50q30 0 42 1zM273 501h399q-2 136 -27 194q-22 54 -66 84q-44 29 -96 29q-192 0 -210 -307zM876 466h-603v-22q0 -118 35 -208q34 -88 100 -139q64 -49 151 -49q48 0 93 16q43 14 92 44q42 26 102 82l20 -27q-101 -99 -195 -143
q-92 -43 -207 -43q-119 0 -213 52q-94 53 -147 147q-52 94 -52 214q0 126 58 229q58 105 157 163q100 59 222 59q106 0 193 -43t136 -121q52 -79 58 -211z" />
    <glyph glyph-name="f" unicode="f" horiz-adv-x="588" 
d="M548 1348q26 -18 36 -48q11 -33 11 -84q0 -34 -1 -52v-6v-1v-2q0 -63 41 -63q40 0 40 62q0 69 -35 124q-35 54 -92 70zM166 62l-21 -18h200l-24 18l-1.5 1.5t-2.5 1.5l-12 10q-15 14 -15 38l-1 20v10v785q0 93 6 166q4 71 20 122q14 50 39 81q24 30 61 56
q-64 -22 -106 -57q-43 -34 -67 -85q-24 -50 -35 -125q-10 -70 -10 -186v-757q0 -40 -3 -51q-4 -10 -24 -27l-1 -1l-1 -1q-1 0 -2 -1zM367 941v-122h214v-31h-214v-596q0 -55 13 -88q12 -34 42 -51q31 -19 83 -26v-27h-460v27q68 12 94 47q24 35 24 118v596h-86v31h86v91
q0 115 10 182q11 71 33 120q37 81 112 128q73 46 165 46q70 0 130 -30q59 -30 93 -82q33 -52 33 -114q0 -48 -25 -76q-26 -29 -66 -29q-39 0 -63 28q-24 29 -24 75l2 49v19q0 124 -77 124q-45 0 -74 -45q-30 -48 -37 -129q-8 -80 -8 -235z" />
    <glyph glyph-name="g" unicode="g" horiz-adv-x="939" 
d="M590 985q35 -12 52 -28q18 -17 34 -47q17 -27 27 -36q9 -10 23 -10q28 0 28 29q0 23 -19 45q-19 23 -51 36q-33 14 -64 14q-10 0 -30 -3zM314 270q-107 96 -107 254q0 170 140 275q-102 -30 -163 -104q-60 -73 -60 -170q0 -82 49 -146q49 -65 141 -109zM584 264
q88 40 133 106q45 65 45 153q0 94 -48 167q-49 71 -129 103q50 -46 71 -105q21 -60 21 -149q0 -96 -21 -159q-23 -64 -72 -116zM837 -337q47 68 47 133q0 86 -49 144q-39 45 -86 62q-51 17 -136 17l-138 1l-114 1q-74 0 -116 9q-40 7 -58 28q-16 19 -16 58q0 17 12 48
q-30 -33 -39 -54q-10 -20 -10 -51q0 -40 19 -68q18 -29 54 -45q23 -9 61 -12q39 -3 128 -3l133 -1q128 0 179 -6q50 -6 79 -26q73 -46 73 -135q0 -39 -23 -100zM206 -93q-88 -76 -88 -172q0 -70 44 -126q43 -57 122 -88q79 -32 177 -32q77 0 146 21q70 22 119 58
q50 36 78 84q27 46 27 102q0 63 -40 100q-40 35 -111 37l-77 3h-25h-195q-49 0 -91 3q-48 2 -86 10zM646 536q0 129 -46 202t-125 73q-82 0 -132 -78q-50 -79 -50 -208q0 -126 49 -202q48 -76 128 -76q83 0 129 78q47 79 47 211zM283 255q-39 -39 -50 -57q-13 -19 -13 -45
q0 -46 64 -55q28 -4 94 -4h190q155 0 218 -31q46 -23 78 -58q33 -38 51 -84q17 -48 17 -101q0 -109 -61 -194q-63 -87 -172 -133q-114 -47 -252 -47q-189 0 -305 74t-116 194q0 62 32 114q32 51 107 106q-34 33 -48 60q-14 26 -14 60q0 32 11 60t40 60q27 31 85 83l16 14
q-85 49 -124 111q-40 61 -40 144q0 87 45 157q45 71 127 111q82 41 191 47q23 101 67 145t117 44q43 0 85 -17q39 -17 64 -47q24 -28 24 -62q0 -31 -20 -53q-21 -22 -51 -22q-22 0 -45 14q-21 13 -34 35l-15 29q-25 48 -67 48q-70 0 -91 -114q80 -3 145 -28q67 -26 114 -65
q49 -41 74 -96q26 -57 26 -120q0 -84 -50 -161q-51 -76 -135 -120q-85 -44 -183 -44q-89 0 -196 48z" />
    <glyph glyph-name="h" unicode="h" horiz-adv-x="1155" 
d="M173 62l-21 -18h200l-24 18l-1.5 1.5t-2.5 1.5l-13 10q-13 13 -15 38v20v1207l-164 -18l39 -28q1 0 4 -3l13 -10q10 -7 13 -20t3 -48v-1070q0 -42 -4 -51q-4 -10 -24 -27v0l-1 -1zM798 62l-20 -18h199l-23 18v1t-1 1q-1 1 -3 1l-13 10q-15 15 -15 38v20l-1 10v382
q0 79 -10 120q-11 45 -34 77q-61 84 -161 84q-14 0 -46 -4q62 -9 96 -36q34 -28 49 -83q14 -58 14 -152v-388q0 -40 -3 -51q-4 -10 -24 -27l-1 -1l-1 -1q-1 0 -2 -1zM374 1382v-749q59 70 119 121q59 48 110 67q54 20 115 20q76 0 142 -36q66 -37 100 -97q40 -67 40 -184
v-332q0 -84 25 -118q24 -35 92 -47v-27h-439v27q67 12 93 47q24 35 24 118v338q0 107 -14 151q-15 47 -48 72q-32 25 -79 25q-65 0 -124 -43q-64 -45 -156 -155v-388q0 -84 25 -118q24 -35 92 -47v-27h-439v27q67 12 93 47q25 34 25 118v966q0 85 -25 120t-93 45v22z" />
    <glyph glyph-name="i" unicode="i" horiz-adv-x="526" 
d="M257 1202q-34 -1 -60 -29q-26 -29 -26 -64t26 -64q25 -28 60 -28q22 0 22 23q1 12 1 73q0 58 -1 68q-2 20 -22 21zM173 62l-21 -18h200l-24 18l-1.5 1.5t-2.5 1.5l-13 10q-13 13 -15 38v20v10v651l-164 -18l39 -28q1 0 4 -3l13 -10q10 -7 13 -20t3 -48v-524q0 -42 -4 -51
q-4 -10 -24 -27v0l-1 -1zM143 1109q0 51 34 85q35 35 85 35t85 -35q34 -34 34 -85t-34 -85t-85 -34t-85 34t-34 85zM491 0h-439v27q67 12 93 47q25 34 25 118v420q0 85 -25 120t-93 45v22l322 37v-644q0 -84 25 -118q24 -35 92 -47v-27z" />
    <glyph glyph-name="j" unicode="j" horiz-adv-x="502" 
d="M248 1040v138q0 24 -22 24q-35 0 -60 -28q-26 -29 -26 -65q0 -35 26 -64q25 -28 60 -28q22 0 22 23zM-25 -491q-32 29 -44 58q-13 27 -13 76q0 27 1 34q2 34 2 31q0 17 -9 28t-25 11q-18 0 -31 -19t-13 -48q0 -52 35 -99q34 -46 97 -72zM283 794l-165 -18l40 -28h2
q0 -1 2 -3l13 -10q9 -6 12 -18t3 -50l1 -715v-26v-116q-1 -140 -21 -201q-19 -63 -75 -102q67 22 100 51q34 29 56 87q17 42 25 116q7 69 7 205v828zM112 1109q0 51 34 85q35 35 85 35t85 -35q34 -34 34 -85t-34 -85t-85 -34t-85 34t-34 85zM39 799l322 37v-875
q0 -56 -3 -107q-4 -101 -23 -168q-18 -65 -56 -109q-42 -49 -103 -76q-60 -28 -125 -28q-67 0 -122 27q-56 26 -88 73t-32 104q0 30 11 57q11 25 33 38q20 13 49 13q40 0 62 -25q23 -26 23 -70q0 -22 -1 -29q-2 -54 -2 -50q0 -42 16 -67t45 -25q67 0 92 99q19 64 19 267v34
v693q0 84 -25 119q-25 36 -92 46v22z" />
    <glyph glyph-name="k" unicode="k" horiz-adv-x="1076" 
d="M757 705q41 41 100 83h-132q36 -28 36 -59q0 -7 -4 -24zM687 46h231q-61 33 -128 126l-235 321l-66 -57l169 -231q51 -70 51 -111q0 -26 -22 -48zM173 62l-21 -18h200l-24 18l-1.5 1.5t-2.5 1.5l-13 10q-13 13 -15 38v20v10v1197l-164 -18l39 -28q1 0 4 -3l13 -10
q10 -7 13 -20t3 -48v-1070q0 -42 -4 -51q-4 -10 -24 -27v0l-1 -1zM374 1382v-1001l287 246q69 60 69 100q0 57 -107 65v27h385v-27q-59 -6 -121 -39q-61 -33 -141 -102q-4 -3 -10 -8t-7 -6l-3.5 -3.5t-3.5 -2.5l-107 -90l253 -341l19 -26q56 -75 102 -107q44 -34 101 -40
v-27h-521v27q107 8 107 63q0 32 -40 87l-16 22l-156 215l-90 -77v-145q0 -84 25 -118q24 -35 92 -47v-27h-439v27q67 12 93 47q25 34 25 118v966q0 85 -25 120t-93 45v22z" />
    <glyph glyph-name="l" unicode="l" horiz-adv-x="534" 
d="M173 62l-21 -18h200l-24 18l-1.5 1.5t-2.5 1.5l-13 10q-13 13 -15 38v20v10v1197l-164 -18l39 -28q1 0 4 -3l13 -10q10 -7 13 -20t3 -48v-1070q0 -42 -4 -51q-4 -10 -24 -27v0l-1 -1zM491 0h-439v27q67 12 93 47q25 34 25 118v966q0 85 -25 120t-93 45v22l322 37v-1190
q0 -84 25 -118q24 -35 92 -47v-27z" />
    <glyph glyph-name="m" unicode="m" horiz-adv-x="1722" 
d="M1365 62l-21 -18h200l-24 18q0 1 -1 2t-2 1l-13 10q-15 14 -15 38l-1 20v10l-1 382q0 76 -9 119q-9 44 -34 79q-61 84 -165 84q2 0 -40 -2q90 -14 124 -71q33 -58 33 -203v-388q0 -40 -3 -51q-4 -10 -24 -27l-1 -1l-1 -1q-1 0 -2 -1zM173 62l-21 -18h200l-24 18l-1.5 1.5
t-2.5 1.5l-13 10q-13 13 -15 38v20v10v651l-164 -18l39 -28q1 0 4 -3l13 -10q10 -7 13 -20t3 -48v-524q0 -42 -4 -51q-4 -10 -24 -27v0l-1 -1zM771 62l-21 -18h200l-23 18l-1.5 1.5t-2.5 1.5l-13 10q-15 15 -15 38l-1 20v10v382q-2 139 -44 198q-28 41 -72 63q-43 22 -94 22
h-9q-3 -1 -12 -1q-4 0 -9.5 -0.5t-8.5 -1.5q90 -14 124 -71q33 -58 33 -203v-388q0 -40 -3 -51q-4 -10 -24 -27l-1 -1l-1 -1q-1 0 -2 -1zM968 597q4 -31 4 -73v-332q0 -83 26 -118t92 -47v-27h-439v27q67 12 93 47q24 35 24 118v338q0 107 -14 151q-14 46 -46 71
q-34 26 -77 26q-64 0 -120 -40q-59 -42 -137 -139v-407q0 -84 25 -118q24 -35 92 -47v-27h-439v27q67 12 93 47q25 34 25 118v420q0 85 -25 120t-93 45v22l322 37v-188q81 101 157 147q75 45 163 45q103 0 171 -52q69 -53 94 -150q63 77 108 117q94 85 218 85q78 0 142 -34
q63 -34 100 -98q39 -67 39 -184v-332q0 -84 25 -118q24 -35 92 -47v-27h-439v27q68 12 94 47q24 35 24 118v338q0 109 -14 151q-13 47 -45 72t-76 25q-63 0 -123 -42q-61 -43 -136 -139z" />
    <glyph glyph-name="n" unicode="n" horiz-adv-x="1155" 
d="M173 62l-21 -18h200l-24 18l-1.5 1.5t-2.5 1.5l-13 10q-13 13 -15 38v20v205v104v352l-164 -18l39 -28q1 0 4 -3l13 -10q10 -7 13 -20t3 -48v-524q0 -42 -4 -51q-4 -10 -24 -27v0l-1 -1zM798 62l-20 -18h199l-23 18v1t-1 1q-1 1 -3 1l-13 10q-15 15 -15 38v20l-1 10v382
q0 79 -10 120q-11 45 -34 77q-61 84 -161 84q-14 0 -46 -4q62 -9 96 -36q34 -28 49 -83q14 -58 14 -152v-388q0 -40 -3 -51q-4 -10 -24 -27l-1 -1l-1 -1q-1 0 -2 -1zM374 836v-203q59 70 119 121q59 48 110 67q54 20 115 20q76 0 142 -36q66 -37 100 -97q40 -67 40 -184
v-332q0 -84 25 -118q24 -35 92 -47v-27h-439v27q67 12 93 47q24 35 24 118v338q0 107 -14 151q-15 47 -48 72q-32 25 -79 25q-65 0 -124 -43q-64 -45 -156 -155v-388q0 -84 25 -118q24 -35 92 -47v-27h-439v27q67 12 93 47q25 34 25 118v420q0 85 -25 120t-93 45v22z" />
    <glyph glyph-name="o" unicode="o" horiz-adv-x="1031" 
d="M634 33l-16 -12q131 58 202 159q69 101 69 230q0 134 -67 237q-67 104 -180 147q153 -112 153 -381q0 -134 -38 -227q-39 -91 -123 -153zM348 37q-49 39 -65 57q-20 20 -38 49q-64 103 -64 268q0 272 185 382q-84 -31 -147 -90q-62 -57 -98 -134q-35 -76 -35 -159
t34 -158q34 -76 95 -131q26 -21 53 -40q12 -8 80 -44zM271 416q0 -86 18 -160q16 -72 50 -124q32 -51 79 -80q44 -28 99 -28q52 0 99 29t78 79q32 50 50 124q17 76 17 160q0 116 -30 204q-32 90 -86 138q-55 49 -129 49q-110 0 -178 -108q-67 -107 -67 -283zM52 410
q0 116 63 216q61 97 169 157q107 57 233 57q94 0 179 -32q82 -32 148 -92q64 -60 100 -139q35 -81 35 -167q0 -115 -61 -215t-168 -157q-106 -58 -232 -58q-127 0 -234 57q-108 58 -169 157q-63 99 -63 216z" />
    <glyph glyph-name="p" unicode="p" horiz-adv-x="1093" 
d="M696 805q94 -61 138 -157q42 -96 42 -245q0 -118 -29 -202q-28 -81 -96 -149q68 32 117 88t76 130q26 75 26 160q0 148 -75 251q-76 103 -199 124zM166 -443l-21 -18h200l-24 18q2 0 -4 3l-12 10q-15 13 -15 38l-1 20v10v1156l-164 -18l39 -28q1 0 4 -3l13 -10
q10 -7 13 -18q3 -12 3 -50v-1029q0 -41 -3 -51q-4 -11 -24 -27q-3 -3 -4 -3zM367 656v-512l6 -5q65 -57 117 -84q52 -28 104 -28q72 0 126 45t84 130q29 87 29 198q0 88 -16 158q-17 71 -48 125q-32 54 -75 82q-44 29 -95 29q-52 0 -114 -37q-63 -36 -118 -101zM367 836
v-118q76 64 142 91q69 29 146 29q84 0 156 -29q69 -29 124 -83q54 -55 83 -124q29 -72 29 -157q0 -96 -34 -177q-34 -84 -96 -150q-61 -66 -140 -102q-78 -36 -166 -36q-126 0 -244 91v-384q0 -56 13 -88q12 -35 42 -51q31 -19 83 -26v-27h-460v27q68 12 94 47q24 34 24 118
v925q0 84 -25 119q-26 36 -93 46v22z" />
    <glyph glyph-name="q" unicode="q" horiz-adv-x="1083" 
d="M398 10q-40 22 -63 40q-27 21 -44 39q-19 20 -39 51q-69 110 -69 258q0 77 17 143q17 65 52 122t96 118q-254 -152 -254 -406q0 -94 37 -168q35 -74 104 -124q70 -51 163 -73zM740 -443l-21 -18h200l-24 18q2 0 -4 3l-13 10q-13 13 -15 38v20v10v1124l-92 -60v-1064
q0 -42 -4 -51q-4 -11 -24 -27q-1 -3 -3 -3zM737 168v524l-3 3q-63 56 -117 81q-55 26 -103 26q-71 0 -126 -46t-85 -132q-30 -85 -30 -202q0 -110 30 -199q30 -90 84 -138q53 -49 121 -49q54 0 114 36q59 34 115 96zM737 -313v410l-6 -4q-134 -113 -280 -113q-110 0 -199 52
q-90 51 -141 143q-52 91 -52 200q0 122 60 228q58 106 160 171q100 64 215 64q139 0 263 -106l155 104h29v-1149q0 -84 25 -118q24 -35 92 -47v-27h-459v27q80 12 109 47t29 118z" />
    <glyph glyph-name="r" unicode="r" horiz-adv-x="750" 
d="M618 798q23 -32 23 -67q0 -29 -11 -76q-10 -41 -10 -57q0 -42 34 -42q43 0 43 81q0 103 -79 161zM173 62l-21 -18h200l-24 18l-1.5 1.5t-2.5 1.5l-13 10q-13 13 -15 38v20v10v651l-164 -18l39 -28q1 0 4 -3l13 -10q10 -7 13 -20t3 -48v-524q0 -42 -4 -51q-4 -10 -24 -27
v0l-1 -1zM374 836v-195q58 111 105 157q47 44 107 44q76 0 127 -60t51 -149q0 -56 -23 -88q-24 -31 -67 -31q-38 0 -60 25q-23 26 -23 64q0 15 5 40l9 38q8 37 8 62q0 26 -14 43q-15 15 -39 15q-28 0 -55 -21q-27 -22 -57 -69q-28 -43 -74 -133v-386q0 -83 30 -118
q29 -35 108 -47v-27h-460v27q67 12 93 47q25 34 25 118v420q0 85 -25 120t-93 45v22z" />
    <glyph glyph-name="s" unicode="s" horiz-adv-x="744" 
d="M94 169l10 -109l18 -6q39 -15 90 -27l22 -5q-48 32 -77 63q-30 32 -63 84zM433 17q90 12 141 63t51 130t-58 138q-49 52 -193 128q-117 64 -158 103t-41 90q0 77 87 137q-73 -24 -112 -72q-40 -47 -40 -111q0 -75 52 -121q42 -39 161 -105q130 -70 167 -104
q53 -48 53 -120q0 -112 -110 -156zM590 791l42 -232h-27q-30 115 -94 180q-65 65 -149 65q-49 0 -83 -29q-34 -30 -34 -73q0 -39 27 -65q26 -26 119 -77q151 -82 212 -131q95 -74 95 -190q0 -58 -23 -106q-23 -47 -68 -82q-46 -35 -107 -53q-60 -19 -135 -19q-122 0 -290 55
l-24 304h24q90 -311 280 -311q68 0 111 40t43 105q0 66 -51 106q-33 26 -148 89q-118 65 -162 102q-71 59 -71 150q0 98 77 160q76 61 197 61q98 0 239 -49z" />
    <glyph glyph-name="t" unicode="t" horiz-adv-x="566" 
d="M242 324v594q-34 -57 -92 -91v-510v-23q0 -52 5 -100q4 -42 16 -70q11 -27 31 -51q56 -65 145 -65q20 0 28 1q-47 11 -68 26q-26 17 -39 47q-14 31 -20 83q-6 53 -6 131v28zM539 789h-218v-530q0 -81 10 -125q9 -47 30 -70q19 -22 54 -22q62 0 150 72l15 -24
q-69 -59 -122 -84q-57 -26 -113 -26q-111 0 -170 75q-59 74 -59 216v521h-92v24q76 11 131 54q57 44 91 122q34 75 49 190h25v-363h219v-30z" />
    <glyph glyph-name="u" unicode="u" horiz-adv-x="1095" 
d="M249 288v507l-164 -19l40 -28h2q0 -1 2 -3l13 -10q9 -6 12 -18t3 -50v-373q0 -72 13 -117q14 -46 42 -84q38 -43 81 -66q44 -23 84 -23q-5 0 29 2q-60 9 -93 39q-34 28 -49 87q-15 57 -15 156zM769 667v-623h148l-23 18v1t-1 1q-1 1 -3 1l-13 10q-15 15 -15 38v20l-1 10
v651l-164 -18l40 -28h2q0 -1 2 -3l13 -10q9 -6 12 -18t3 -50zM735 0v177q-84 -105 -163 -152t-169 -47q-80 0 -143 36q-63 34 -100 97q-37 64 -37 184v317q0 84 -25 119q-25 36 -92 46v22l322 37v-547q0 -109 14 -151q15 -45 48 -71q32 -26 75 -26q59 0 118 38
q55 36 136 131l16 19v383q0 84 -25 119q-25 36 -92 46v22l322 37v-644q0 -84 25 -118q24 -35 92 -47v-27h-322z" />
    <glyph glyph-name="v" unicode="v" horiz-adv-x="884" 
d="M436 37l48 101l-247 478q-33 66 -33 103q0 47 43 69h-231q46 -36 91 -121l24 -47l11 -20zM755 656l-309 -672h-23l-334 646l-15 26q-38 67 -47 80q-16 22 -35 36q-19 13 -56 25v22h470v-27q-68 -5 -90 -20q-25 -16 -25 -51q0 -34 31 -95l198 -398l204 444q19 42 19 63
q0 51 -81 55l-23 2v27h253v-27q-41 -3 -70 -27q-28 -25 -55 -82z" />
    <glyph glyph-name="w" unicode="w" horiz-adv-x="1275" 
d="M131 605l251 -571l45 117l-202 473l-8 19q-18 44 -18 72q0 47 51 72h-235q20 -15 40 -38q17 -21 30 -45q7 -13 35 -74zM619 577l239 -538l49 116l-241 545zM1137 631l-268 -652h-23l-244 552l-209 -552h-24l-278 636q-41 94 -72 130q-30 36 -83 47v27h467v-27
q-64 -3 -88 -18q-25 -15 -25 -53q0 -25 13 -57l163 -411l214 576h17l252 -570l158 388q24 59 24 86q0 32 -24 45q-25 13 -86 14v27h262v-27q-33 -2 -55 -15q-25 -15 -44 -48q-24 -39 -47 -98z" />
    <glyph glyph-name="x" unicode="x" horiz-adv-x="952" 
d="M599 43h190q-31 26 -57 54q-21 24 -65 87l-305 446l-10 14q-40 59 -40 94q0 33 37 51h-227q35 -24 62 -60q47 -64 74 -105l14 -21l309 -458q29 -47 29 -68q0 -15 -11 -34zM550 134l-151 223l-162 -215q-30 -39 -30 -65q0 -47 74 -49l17 -1v-27h-277v27q43 6 75 25
q33 19 68 58l37 41q12 15 18 21l161 213l-152 223l-13 19q-61 90 -97 124q-35 33 -78 41v27h443v-27q-51 -2 -67 -11q-18 -10 -18 -35q0 -22 13 -42l12 -20l5 -10l95 -143l129 165q27 35 27 56q0 22 -18 31t-61 9v27h251v-27q-54 -7 -91 -31q-35 -25 -93 -97l-126 -160
l223 -325q55 -78 88 -107q31 -28 83 -45v-27h-458v27q54 2 76 12q23 11 23 35q0 20 -26 60z" />
    <glyph glyph-name="y" unicode="y" horiz-adv-x="839" 
d="M428 46l45 111l-234 486q-22 45 -22 77q0 44 40 69h-222q26 -17 47 -42q19 -25 41 -71zM300 -224h-9q-53 0 -77 29q-25 28 -25 91l1 28q0 36 -33 36q-40 0 -40 -63q0 -60 35 -101t84 -41q30 0 64 21zM381 -44l25 61l-294 606l-10 21q-39 82 -70 115q-30 30 -75 33v27h442
v-27q-51 -6 -74 -21q-22 -15 -22 -46q0 -27 25 -78l178 -384l156 379q26 66 26 96q0 27 -22 39t-75 15v27h248v-27q-49 -10 -70 -28q-20 -16 -45 -70l-18 -39q-2 -7 -3 -8q-3 -7 -4 -9l-308 -750q-21 -53 -45 -90q-26 -39 -52 -54q-28 -16 -62 -16q-60 0 -103 49
q-43 47 -43 120q0 49 26 81q26 30 67 30q34 0 53 -18q18 -18 21 -52l3 -35q4 -61 40 -61q21 0 41 26q18 23 44 88z" />
    <glyph glyph-name="z" unicode="z" horiz-adv-x="820" 
d="M575 42h112l14 94q-33 -43 -55 -59q-24 -18 -71 -35zM64 45h108l496 746h-107zM781 332l-41 -332h-714v43l499 749h-113q-126 0 -195 -57q-71 -57 -117 -202h-26l77 286h615v-22l-503 -752h132q158 0 240 65q80 65 119 222h27z" />
    <glyph glyph-name="braceleft" unicode="{" 
d="M82 1351v-1337h655v1337h-655zM751 0h-683v1365h683v-1365z" />
    <glyph glyph-name="bar" unicode="|" 
d="M82 1351v-1337h655v1337h-655zM751 0h-683v1365h683v-1365z" />
    <glyph glyph-name="braceright" unicode="}" 
d="M82 1351v-1337h655v1337h-655zM751 0h-683v1365h683v-1365z" />
    <glyph glyph-name="asciitilde" unicode="~" 
d="M82 1351v-1337h655v1337h-655zM751 0h-683v1365h683v-1365z" />
    <glyph glyph-name="nonbreakingspace" unicode="&#xa0;" horiz-adv-x="678" 
 />
    <glyph glyph-name="exclamdown" unicode="&#xa1;" horiz-adv-x="549" 
d="M291 1182v150q0 25 -24 25q-35 0 -62 -30q-28 -29 -28 -70q0 -40 28 -69q27 -31 62 -31q24 0 24 25zM267 722q-7 -75 -15 -114q-6 -38 -27 -148l-25 -127q-10 -55 -17 -110q-5 -42 -5 -62q0 -58 22 -93q21 -36 55 -36q58 0 58 102q0 24 -8 85l-12 90q-26 213 -26 413z
M145 1257q0 35 17 66q16 28 46 47q29 17 65 17q37 0 66 -17q28 -18 45 -47q17 -31 17 -66q0 -54 -37 -91q-38 -38 -91 -38q-51 0 -89 38q-39 38 -39 91zM257 953l1 27h30l1 -27q9 -166 26 -284q15 -103 58 -292q24 -104 29 -133q6 -37 6 -76q0 -84 -36 -134t-97 -50
q-60 0 -98 51q-37 50 -37 135q0 64 33 206q24 101 44 205q6 29 13.5 80t12.5 98q10 101 14 194z" />
    <glyph glyph-name="cent" unicode="&#xa2;" horiz-adv-x="998" 
d="M684 1070q27 -37 37 -63q9 -26 17 -88q7 -51 18 -68q9 -16 29 -16q33 0 33 48q0 100 -134 187zM514 293q-273 71 -273 406q0 127 37 210q37 84 127 161q-126 -65 -191 -167q-66 -103 -66 -235q0 -162 104 -268t262 -107zM526 338v753q-62 -12 -105 -61q-44 -50 -68 -130
q-25 -79 -25 -187q0 -149 52 -246q51 -97 146 -129zM560 267v-135h-34v133h-6q-181 0 -293 112q-114 111 -114 288q0 118 53 221q53 101 148 165q96 63 212 75v114h34v-113h7q85 0 159 -31q72 -31 117 -85q43 -52 43 -115q0 -42 -23 -70q-24 -28 -63 -28q-54 0 -81 52
q-11 21 -19 90q-9 84 -41 119q-33 35 -99 35v-764q21 -3 32 -3q67 0 131 40q61 37 137 122l23 -28q-89 -101 -158 -142q-70 -43 -165 -52z" />
    <glyph glyph-name="sterling" unicode="&#xa3;" horiz-adv-x="1136" 
d="M752 1341q41 -34 59 -69q18 -36 27 -96q7 -54 16 -70q10 -22 37 -22q39 0 39 51q0 62 -50 121q-49 58 -128 85zM448 249l10 -5q35 91 35 187q0 72 -26 193q-12 51 -62 220q-47 155 -47 242q0 90 37 154q37 63 118 109q-120 -35 -190 -116q-70 -82 -70 -189q0 -82 34 -188
q17 -54 69 -186q56 -144 77 -220t21 -139q0 -30 -6 -62zM1005 205q-131 -101 -281 -101q-146 0 -289 93l-70 46q-82 55 -145 55q-87 0 -130 -97q30 36 58 52t62 16q68 0 163 -79l73 -61q74 -62 137 -89q60 -26 126 -26q93 0 167 47t129 144zM383 127l-20 19q-49 46 -77 62
t-60 16q-42 0 -68 -27q-27 -28 -27 -71t32 -75t76 -32q84 0 144 108zM829 679v-39h-280q11 -93 11 -130q0 -58 -11 -116q-11 -52 -44 -141l-9 -22q125 -52 240 -52q183 0 349 142l23 -16q-67 -169 -165 -252q-100 -83 -233 -83q-78 0 -145 29t-142 92q-48 -63 -94 -92
q-46 -28 -104 -28q-76 0 -127 53t-51 131q0 50 24 92t66 66t91 24q67 0 164 -57q2 -1 11 -6q4 -2 8.5 -4.5t8.5 -6.5q0 93 -21 178q-23 87 -73 199h-133v39h121q-11 31 -12 32l-36 91q-49 125 -49 239q0 101 55 183q55 80 153 127q98 45 220 45q103 0 190 -32
q84 -32 134 -90q49 -56 49 -126q0 -54 -28 -86q-28 -33 -74 -33q-96 0 -113 120l-10 67q-9 61 -49 100q-41 38 -94 38q-78 0 -134 -74q-56 -76 -56 -184q0 -73 45 -249q26 -102 38 -168h286z" />
    <glyph glyph-name="currency" unicode="&#xa4;" 
d="M82 1351v-1337h655v1337h-655zM751 0h-683v1365h683v-1365z" />
    <glyph glyph-name="yen" unicode="&#xa5;" horiz-adv-x="1408" 
d="M547 80l-39 -29h292l-39 29q-22 15 -33 27t-16 25t-5 33v33v17v459l-239 431q-57 104 -57 141q0 49 61 86h-325q57 -33 109 -95q50 -59 102 -152l243 -436v-434q0 -11 -1 -17v-33q0 -30 -9 -45q-11 -15 -44 -40zM1064 1187q59 86 133 144h-226q48 -23 71 -57
q20 -34 22 -87zM811 708l-16 -25v-103h266v-36h-266v-239q0 -86 11 -128t42 -75q54 -54 163 -71v-31h-664v31q119 18 174 82q25 29 34 70q8 42 8 122v239h-266v36h266v63l-36 65h-230v36h210l-190 338q-132 234 -275 252v31h599v-31q-135 0 -135 -85q0 -36 41 -112l232 -415
l179 289q2 3 6.5 10t6.5 9q61 91 61 159q0 65 -47 103q-46 37 -131 42v31h500v-31q-88 -21 -168 -92q-28 -24 -79 -86q-49 -59 -82 -112l-12 -18l-177 -282h225v-36h-250z" />
    <glyph glyph-name="section" unicode="&#xa7;" 
d="M82 1351v-1337h655v1337h-655zM751 0h-683v1365h683v-1365z" />
    <glyph glyph-name="dieresis" unicode="&#xa8;" horiz-adv-x="718" 
d="M532 1052v116v3q-2 17 -19 17q-25 0 -48 -24q-22 -25 -22 -54q0 -30 22 -53q22 -25 48 -25q19 0 19 20zM219 1052v116v3q0 17 -18 17q-25 0 -48 -24q-22 -25 -22 -54q0 -30 22 -53q22 -25 48 -25q18 0 18 20zM415 1110q0 27 14 50q14 24 36 37t50 13q18 0 39 -8
q19 -7 33 -20q14 -14 21 -32q8 -21 8 -40q0 -43 -30 -72q-31 -29 -71 -29q-39 0 -69 30q-31 28 -31 71zM102 1110q0 41 30 71q29 29 71 29q18 0 39 -8q18 -7 32 -21t21 -32q8 -21 8 -39q0 -42 -29 -71q-30 -30 -71 -30t-71 30t-30 71z" />
    <glyph glyph-name="copyright" unicode="&#xa9;" 
d="M82 1351v-1337h655v1337h-655zM751 0h-683v1365h683v-1365z" />
    <glyph glyph-name="ordfeminine" unicode="&#xaa;" 
d="M82 1351v-1337h655v1337h-655zM751 0h-683v1365h683v-1365z" />
    <glyph glyph-name="guillemotleft" unicode="&#xab;" horiz-adv-x="679" 
d="M512 281q-15 53 -33 94q-19 41 -51 89q61 99 88 186q-51 -71 -104 -124l-47 -45l-3 -3l-4 -4l-4.5 -4.5l-5.5 -5.5q111 -95 164 -183zM298 281q-19 63 -32 92q-21 43 -53 91q35 53 54 96q21 47 35 90q-52 -73 -105 -124l-46 -45l-3 -3l-4 -4l-4.5 -4.5l-5.5 -5.5
q111 -95 164 -183zM492 465q75 -157 94 -303h-28q-48 89 -105 158q-52 62 -146 145q107 101 156 161q50 60 95 142h28q-17 -134 -94 -303zM278 465q75 -157 94 -303h-28q-48 89 -105 158q-52 62 -146 145q107 101 156 161q50 60 95 142h28q-17 -134 -94 -303z" />
    <glyph glyph-name="logicalnot" unicode="&#xac;" 
d="M82 1351v-1337h655v1337h-655zM751 0h-683v1365h683v-1365z" />
    <glyph glyph-name="registered" unicode="&#xae;" 
d="M82 1351v-1337h655v1337h-655zM751 0h-683v1365h683v-1365z" />
    <glyph glyph-name="macron" unicode="&#xaf;" 
d="M82 1351v-1337h655v1337h-655zM751 0h-683v1365h683v-1365z" />
    <glyph glyph-name="degree" unicode="&#xb0;" 
d="M82 1351v-1337h655v1337h-655zM751 0h-683v1365h683v-1365z" />
    <glyph glyph-name="plusminus" unicode="&#xb1;" 
d="M82 1351v-1337h655v1337h-655zM751 0h-683v1365h683v-1365z" />
    <glyph glyph-name="acute" unicode="&#xb4;" horiz-adv-x="483" 
d="M200 1212l-50 -160l133 160h-83zM180 1239h201l-241 -262h-38z" />
    <glyph glyph-name="mu" unicode="&#xb5;" 
d="M82 1351v-1337h655v1337h-655zM751 0h-683v1365h683v-1365z" />
    <glyph glyph-name="paragraph" unicode="&#xb6;" 
d="M82 1351v-1337h655v1337h-655zM751 0h-683v1365h683v-1365z" />
    <glyph glyph-name="periodcentered" unicode="&#xb7;" horiz-adv-x="456" 
d="M246 607v148q0 25 -24 25q-35 0 -62 -30t-27 -69q0 -37 28 -68q27 -31 61 -31q24 0 24 25zM100 681q0 36 17 65t46 46t65 17t65 -17t46 -46t17 -65t-17 -65t-46 -46t-65 -17t-65 17t-46 46t-17 65z" />
    <glyph glyph-name="periodcentered" unicode="&#x2219;" horiz-adv-x="456" 
d="M246 607v148q0 25 -24 25q-35 0 -62 -30t-27 -69q0 -37 28 -68q27 -31 61 -31q24 0 24 25zM100 681q0 36 17 65t46 46t65 17t65 -17t46 -46t17 -65t-17 -65t-46 -46t-65 -17t-65 17t-46 46t-17 65z" />
    <glyph glyph-name="cedilla" unicode="&#xb8;" 
d="M82 1351v-1337h655v1337h-655zM751 0h-683v1365h683v-1365z" />
    <glyph glyph-name="ordmasculine" unicode="&#xba;" 
d="M82 1351v-1337h655v1337h-655zM751 0h-683v1365h683v-1365z" />
    <glyph glyph-name="guillemotright" unicode="&#xbb;" horiz-adv-x="679" 
d="M142 649q15 -54 30 -87q13 -29 53 -96q-31 -54 -48 -90q-21 -47 -37 -96q53 75 100 124l44 45l4 4l4 4l5 5l4 4q-106 93 -159 183zM357 649q27 -95 83 -183q-19 -31 -38 -66q-6 -12 -23 -50q-9 -21 -25 -70q53 75 100 124l45 45l4 4l4 4q2 3 8 9q-109 95 -158 183z
M187 465q-31 68 -47 110q-19 51 -28 92q-11 42 -19 101h28q32 -58 66 -105q31 -44 77 -93q44 -46 108 -105q-106 -98 -152 -154q-51 -64 -99 -149h-28q10 75 31 142q20 68 63 161zM401 465q-31 68 -47 110q-19 51 -28 92q-11 42 -19 101h28q32 -58 66 -105q31 -44 77 -93
q44 -46 108 -105q-106 -98 -152 -154q-51 -64 -99 -149h-28q10 75 31 142q20 68 63 161z" />
    <glyph glyph-name="questiondown" unicode="&#xbf;" horiz-adv-x="973" 
d="M619 35q87 30 136 86q48 56 48 127q0 65 -43 65q-37 0 -51 -74l-10 -54q-10 -54 -27 -86q-17 -33 -53 -64zM569 831q-22 -52 -62 -90q-38 -36 -155 -117q-124 -85 -172 -154t-48 -160q0 -109 71 -186q70 -76 191 -98q-78 35 -121 104q-43 67 -43 156q0 60 18 109
q16 48 57 98q24 30 60 67q40 40 97 93q60 57 81 90q20 34 26 88zM577 1187v147q0 26 -24 26q-35 0 -62 -31q-28 -31 -28 -68q0 -40 28 -69q27 -30 62 -30q24 0 24 25zM550 987l35 8q41 -111 41 -167q0 -40 -11 -71q-10 -30 -44 -74q-33 -45 -94 -112q-85 -97 -114 -153
q-28 -55 -28 -133q0 -71 25 -128q24 -59 66 -92q41 -34 93 -34q39 0 67 19q28 18 45 50q15 28 19 46q6 24 18 89q12 61 38 90t72 29q45 0 74 -32t29 -84q0 -69 -50 -128q-51 -59 -140 -92q-87 -34 -199 -34q-115 0 -208 41q-91 41 -141 117q-50 77 -50 176q0 70 21 122
q20 51 72 102q53 53 141 113q92 64 106 74q35 25 62 49q66 60 66 137q0 25 -11 72zM431 1261q0 35 17 64t46 46t65 17t65 -17t46 -46t17 -64q0 -36 -17 -65t-46 -46t-65 -17t-65 17t-46 46t-17 65z" />
    <glyph glyph-name="Agrave" unicode="&#xc0;" horiz-adv-x="1543" 
d="M140 51h203q-34 40 -48 74q-14 33 -14 70q0 20 1 27q-32 -62 -61 -96q-30 -37 -81 -75zM750 1264l-57 -131l385 -867l10 -22q31 -66 31 -98q0 -43 -49 -95h264q-46 43 -78 97q-36 58 -77 151zM435 547h478l-241 543zM1043 252l-111 253h-515l-56 -128q-40 -93 -40 -155
q0 -51 24 -89q22 -37 70 -62q46 -25 122 -40v-31h-519v30q93 31 162 112q66 78 142 249l442 1000h26l481 -1081q4 -3 4 -5q3 -8 4 -10q1 -3 5 -11l44 -91q36 -73 82 -110t115 -52v-31h-638v31q83 6 116 19q72 27 72 94q0 32 -32 108zM576 1733l145 -160l-62 160h-83z
M753 1498l-241 262h202l77 -262h-38z" />
    <glyph glyph-name="Aacute" unicode="&#xc1;" horiz-adv-x="1543" 
d="M140 51h203q-34 40 -48 74q-14 33 -14 70q0 20 1 27q-32 -62 -61 -96q-30 -37 -81 -75zM750 1264l-57 -131l385 -867l10 -22q31 -66 31 -98q0 -43 -49 -95h264q-46 43 -78 97q-36 58 -77 151zM435 547h478l-241 543zM1043 252l-111 253h-515l-56 -128q-40 -93 -40 -155
q0 -51 24 -89q22 -37 70 -62q46 -25 122 -40v-31h-519v30q93 31 162 112q66 78 142 249l442 1000h26l481 -1081q4 -3 4 -5q3 -8 4 -10q1 -3 5 -11l44 -91q36 -73 82 -110t115 -52v-31h-638v31q83 6 116 19q72 27 72 94q0 32 -32 108zM842 1733l-50 -160l133 160h-83z
M822 1760h201l-241 -262h-38z" />
    <glyph glyph-name="Acircumflex" unicode="&#xc2;" horiz-adv-x="1543" 
d="M140 51h203q-34 40 -48 74q-14 33 -14 70q0 20 1 27q-32 -62 -61 -96q-30 -37 -81 -75zM750 1264l-57 -131l385 -867l10 -22q31 -66 31 -98q0 -43 -49 -95h264q-46 43 -78 97q-36 58 -77 151zM435 547h478l-241 543zM1043 252l-111 253h-515l-56 -128q-40 -93 -40 -155
q0 -51 24 -89q22 -37 70 -62q46 -25 122 -40v-31h-519v30q93 31 162 112q66 78 142 249l442 1000h26l481 -1081q4 -3 4 -5q3 -8 4 -10q1 -3 5 -11l44 -91q36 -73 82 -110t115 -52v-31h-638v31q83 6 116 19q72 27 72 94q0 32 -32 108zM791 1645l137 -53l-157 124l-218 -165z
M1067 1510l-273 104l-273 -104l-20 35l293 228l292 -228z" />
    <glyph glyph-name="Atilde" unicode="&#xc3;" horiz-adv-x="1543" 
d="M140 51h203q-34 40 -48 74q-14 33 -14 70q0 20 1 27q-32 -62 -61 -96q-30 -37 -81 -75zM750 1264l-57 -131l385 -867l10 -22q31 -66 31 -98q0 -43 -49 -95h264q-46 43 -78 97q-36 58 -77 151zM435 547h478l-241 543zM1043 252l-111 253h-515l-56 -128q-40 -93 -40 -155
q0 -51 24 -89q22 -37 70 -62q46 -25 122 -40v-31h-519v30q93 31 162 112q66 78 142 249l442 1000h26l481 -1081q4 -3 4 -5q3 -8 4 -10q1 -3 5 -11l44 -91q36 -73 82 -110t115 -52v-31h-638v31q83 6 116 19q72 27 72 94q0 32 -32 108zM526 1615q56 39 102 39q37 0 136 -32
q80 -25 108 -32q34 -10 59 -10q36 0 62 19q26 18 57 59q-48 -22 -93 -22q-31 0 -66 9q-26 6 -128 38q-72 24 -107 24q-37 0 -66 -20q-30 -22 -64 -72zM500 1539l-29 12q71 185 192 185q38 0 154 -38q67 -22 89 -26q24 -6 53 -6q74 0 124 65l29 -11q-35 -100 -80 -144
q-46 -45 -113 -45q-43 0 -114 23l-54 17q-96 32 -138 32q-67 0 -113 -64z" />
    <glyph glyph-name="Adieresis" unicode="&#xc4;" horiz-adv-x="1543" 
d="M140 51h203q-34 40 -48 74q-14 33 -14 70q0 20 1 27q-32 -62 -61 -96q-30 -37 -81 -75zM750 1264l-57 -131l385 -867l10 -22q31 -66 31 -98q0 -43 -49 -95h264q-46 43 -78 97q-36 58 -77 151zM435 547h478l-241 543zM1043 252l-111 253h-515l-56 -128q-40 -93 -40 -155
q0 -51 24 -89q22 -37 70 -62q46 -25 122 -40v-31h-519v30q93 31 162 112q66 78 142 249l442 1000h26l481 -1081q4 -3 4 -5q3 -8 4 -10q1 -3 5 -11l44 -91q36 -73 82 -110t115 -52v-31h-638v31q83 6 116 19q72 27 72 94q0 32 -32 108zM955 1576v116v3q-2 17 -19 17
q-25 0 -48 -24q-22 -25 -22 -54q0 -30 22 -53q22 -25 48 -25q19 0 19 20zM642 1576v116v3q0 17 -18 17q-25 0 -48 -24q-22 -25 -22 -54q0 -30 22 -53q22 -25 48 -25q18 0 18 20zM838 1634q0 27 14 50q14 24 36 37t50 13q18 0 39 -8q19 -7 33 -20q14 -14 21 -32q8 -21 8 -40
q0 -43 -30 -72q-31 -29 -71 -29q-39 0 -69 30q-31 28 -31 71zM525 1634q0 41 30 71q29 29 71 29q18 0 39 -8q18 -7 32 -21t21 -32q8 -21 8 -39q0 -42 -29 -71q-30 -30 -71 -30t-71 30t-30 71z" />
    <glyph glyph-name="Aring" unicode="&#xc5;" horiz-adv-x="1543" 
d="M140 51h203q-34 40 -48 74q-14 33 -14 70q0 20 1 27q-32 -62 -61 -96q-30 -37 -81 -75zM750 1264l-57 -131l385 -867l10 -22q31 -66 31 -98q0 -43 -49 -95h264q-46 43 -78 97q-36 58 -77 151zM435 547h478l-241 543zM1043 252l-111 253h-515l-56 -128q-40 -93 -40 -155
q0 -51 24 -89q22 -37 70 -62q46 -25 122 -40v-31h-519v30q93 31 162 112q66 78 142 249l442 1000h26l481 -1081q4 -3 4 -5q3 -8 4 -10q1 -3 5 -11l44 -91q36 -73 82 -110t115 -52v-31h-638v31q83 6 116 19q72 27 72 94q0 32 -32 108zM823 1496q88 43 88 133q0 44 -21 81
q-22 36 -59 52q39 -39 39 -129q0 -93 -47 -137zM710 1496q-47 41 -47 135q0 47 11 78q11 30 36 54q-43 -22 -65 -55q-23 -35 -23 -78q0 -88 88 -134zM714 1632q0 -67 18 -106q18 -40 47 -40t47 40q17 42 17 106q0 65 -17 107q-16 39 -47 39q-30 0 -47 -39q-18 -40 -18 -107z
M593 1630q0 69 56 119q55 49 131 49q52 0 93 -22q40 -22 66 -62q25 -38 25 -84q0 -69 -53 -119q-55 -50 -131 -50q-75 0 -131 50t-56 119z" />
    <glyph glyph-name="AE" unicode="&#xc6;" horiz-adv-x="2147" 
d="M1044 80l-39 -29h292l-39 29q-35 27 -45 41q-9 14 -9 44v33v11q-1 2 -1 6v935q0 4 1 6v11v33q0 30 11 47q9 13 43 38l57 42h-217v-1112q0 -11 -1 -17v-33q0 -30 -9 -45q-11 -15 -44 -40zM1775 51h186l55 186q-33 -39 -69 -72q-40 -35 -81 -62q-53 -34 -91 -52zM1683 683
v129q-22 -22 -43 -35q-22 -13 -68 -29q60 -17 111 -65zM1929 1195l-16 133h-156q56 -22 94 -51q37 -29 78 -82zM153 51h204q-34 32 -45 62q-13 29 -13 73v25q-37 -58 -69 -93q-29 -32 -77 -67zM605 643h455v657zM1060 305v296h-482l-158 -231q-30 -43 -49 -92
q-20 -51 -20 -83q0 -128 200 -164v-31h-519v30q49 16 92 46q39 28 85 78q45 51 100 130l61 88l14 19l624 902q-32 18 -65 27q-34 10 -80 14l2 31h1124l37 -372h-31q-28 91 -67 152q-43 65 -92 103q-53 41 -119 60q-69 20 -157 20h-28q-86 0 -139 -21q-55 -23 -77 -69
q-24 -48 -24 -129v-340h119q151 0 220 48q70 47 95 171h30v-506h-30q-30 147 -94 198q-65 50 -219 50h-121v-433q0 -98 18 -151t65 -74t130 -21h79q137 0 258 84q135 94 265 262l8 11h34l-117 -408h-1168v31q108 18 158 83q23 30 30 70q8 43 8 121z" />
    <glyph glyph-name="Ccedilla" unicode="&#xc7;" horiz-adv-x="1477" 
d="M700 -145l-38 -51l5 -6q42 11 68 11q61 0 102 -38q40 -37 40 -96q0 -38 -17 -67q-18 -29 -63 -63q125 47 125 156q0 71 -49 114q-50 44 -128 44q-20 0 -45 -4zM747 6q-123 33 -230 100q-102 63 -172 155q-70 91 -104 205q-36 114 -36 249q0 101 18 180q18 78 59 153
q41 73 102 134t151 122q-106 -47 -185 -111q-78 -63 -135 -145q-53 -78 -83 -176q-28 -94 -28 -200q0 -110 32 -214q30 -98 91 -187q58 -85 143 -144q81 -57 174 -86q90 -29 203 -35zM802 -28h-6l-55 -72q10 0 15 1h15q55 0 98 -24q46 -27 70 -68q26 -44 26 -98
q0 -56 -29 -103q-30 -47 -80 -74q-49 -28 -109 -28q-92 0 -190 84l25 33q80 -69 143 -69q50 0 87 35q35 35 35 83q0 49 -33 81q-34 31 -89 31q-25 0 -69 -14l-32 30l127 173h-7q-140 9 -241 45q-100 34 -190 108q-79 67 -133 151q-57 88 -85 188q-29 102 -29 208
q0 198 101 364t277 260q175 94 390 94q87 0 237 -26q96 -18 148 -18q27 0 43 3l117 -357h-34q-51 98 -102 163q-55 68 -112 111q-59 43 -125 62q-68 20 -149 20q-118 0 -220 -45q-103 -45 -177 -127q-76 -84 -116 -194q-42 -112 -42 -241q0 -193 77 -355q76 -160 212 -252
q134 -92 298 -92q112 0 212 44q98 44 175 127t134 209h41q-82 -216 -246 -330q-163 -115 -403 -121z" />
    <glyph glyph-name="Egrave" unicode="&#xc8;" horiz-adv-x="1351" 
d="M234 80l-39 -29h292l-39 29q-34 25 -43 40q-10 14 -10 45v22q-1 3 -1 11v17v935v17q0 8 1 12v21q0 30 11 47q9 15 42 38l57 42h-328l57 -42q33 -25 44 -40q9 -15 9 -45q1 -11 1 -33v-17v-935v-17q0 -22 -1 -33q0 -31 -9 -45q-8 -13 -44 -40zM979 51h186l56 186
q-34 -38 -71 -72t-80 -62q-53 -34 -91 -52zM888 683v129q-31 -28 -43 -35q-14 -9 -65 -29q57 -17 108 -65zM1140 1195l-22 133h-144q54 -22 90 -50q32 -25 76 -83zM55 1365h1138l38 -372h-32q-52 172 -154 254q-103 81 -267 81h-56q-130 0 -185 -50q-55 -51 -55 -169v-340
h133q151 0 220 48q70 47 95 171h30v-506h-30q-19 99 -53 153q-34 51 -94 74q-61 21 -165 21h-136v-433q0 -100 19 -151q18 -53 65 -74t130 -21h92q137 0 258 84q135 94 265 262l8 11h35l-118 -408h-1181v31q107 18 157 83q38 49 38 191v755q0 93 -10 132q-11 43 -37 70
q-49 55 -148 72v31zM562 1733l145 -160l-62 160h-83zM739 1498l-241 262h202l77 -262h-38z" />
    <glyph glyph-name="Eacute" unicode="&#xc9;" horiz-adv-x="1351" 
d="M234 80l-39 -29h292l-39 29q-34 25 -43 40q-10 14 -10 45v22q-1 3 -1 11v17v935v17q0 8 1 12v21q0 30 11 47q9 15 42 38l57 42h-328l57 -42q33 -25 44 -40q9 -15 9 -45q1 -11 1 -33v-17v-935v-17q0 -22 -1 -33q0 -31 -9 -45q-8 -13 -44 -40zM979 51h186l56 186
q-34 -38 -71 -72t-80 -62q-53 -34 -91 -52zM888 683v129q-31 -28 -43 -35q-14 -9 -65 -29q57 -17 108 -65zM1140 1195l-22 133h-144q54 -22 90 -50q32 -25 76 -83zM55 1365h1138l38 -372h-32q-52 172 -154 254q-103 81 -267 81h-56q-130 0 -185 -50q-55 -51 -55 -169v-340
h133q151 0 220 48q70 47 95 171h30v-506h-30q-19 99 -53 153q-34 51 -94 74q-61 21 -165 21h-136v-433q0 -100 19 -151q18 -53 65 -74t130 -21h92q137 0 258 84q135 94 265 262l8 11h35l-118 -408h-1181v31q107 18 157 83q38 49 38 191v755q0 93 -10 132q-11 43 -37 70
q-49 55 -148 72v31zM705 1733l-50 -160l133 160h-83zM685 1760h201l-241 -262h-38z" />
    <glyph glyph-name="Ecircumflex" unicode="&#xca;" horiz-adv-x="1351" 
d="M234 80l-39 -29h292l-39 29q-34 25 -43 40q-10 14 -10 45v22q-1 3 -1 11v17v935v17q0 8 1 12v21q0 30 11 47q9 15 42 38l57 42h-328l57 -42q33 -25 44 -40q9 -15 9 -45q1 -11 1 -33v-17v-935v-17q0 -22 -1 -33q0 -31 -9 -45q-8 -13 -44 -40zM979 51h186l56 186
q-34 -38 -71 -72t-80 -62q-53 -34 -91 -52zM888 683v129q-31 -28 -43 -35q-14 -9 -65 -29q57 -17 108 -65zM1140 1195l-22 133h-144q54 -22 90 -50q32 -25 76 -83zM55 1365h1138l38 -372h-32q-52 172 -154 254q-103 81 -267 81h-56q-130 0 -185 -50q-55 -51 -55 -169v-340
h133q151 0 220 48q70 47 95 171h30v-506h-30q-19 99 -53 153q-34 51 -94 74q-61 21 -165 21h-136v-433q0 -100 19 -151q18 -53 65 -74t130 -21h92q137 0 258 84q135 94 265 262l8 11h35l-118 -408h-1181v31q107 18 157 83q38 49 38 191v755q0 93 -10 132q-11 43 -37 70
q-49 55 -148 72v31zM679 1645l137 -53l-157 124l-218 -165zM955 1510l-273 104l-273 -104l-20 35l293 228l292 -228z" />
    <glyph glyph-name="Edieresis" unicode="&#xcb;" horiz-adv-x="1351" 
d="M234 80l-39 -29h292l-39 29q-34 25 -43 40q-10 14 -10 45v22q-1 3 -1 11v17v935v17q0 8 1 12v21q0 30 11 47q9 15 42 38l57 42h-328l57 -42q33 -25 44 -40q9 -15 9 -45q1 -11 1 -33v-17v-935v-17q0 -22 -1 -33q0 -31 -9 -45q-8 -13 -44 -40zM979 51h186l56 186
q-34 -38 -71 -72t-80 -62q-53 -34 -91 -52zM888 683v129q-31 -28 -43 -35q-14 -9 -65 -29q57 -17 108 -65zM1140 1195l-22 133h-144q54 -22 90 -50q32 -25 76 -83zM55 1365h1138l38 -372h-32q-52 172 -154 254q-103 81 -267 81h-56q-130 0 -185 -50q-55 -51 -55 -169v-340
h133q151 0 220 48q70 47 95 171h30v-506h-30q-19 99 -53 153q-34 51 -94 74q-61 21 -165 21h-136v-433q0 -100 19 -151q18 -53 65 -74t130 -21h92q137 0 258 84q135 94 265 262l8 11h35l-118 -408h-1181v31q107 18 157 83q38 49 38 191v755q0 93 -10 132q-11 43 -37 70
q-49 55 -148 72v31zM832 1576v116v3q-2 17 -19 17q-25 0 -48 -24q-22 -25 -22 -54q0 -30 22 -53q22 -25 48 -25q19 0 19 20zM519 1576v116v3q0 17 -18 17q-25 0 -48 -24q-22 -25 -22 -54q0 -30 22 -53q22 -25 48 -25q18 0 18 20zM715 1634q0 27 14 50q14 24 36 37t50 13
q18 0 39 -8q19 -7 33 -20q14 -14 21 -32q8 -21 8 -40q0 -43 -30 -72q-31 -29 -71 -29q-39 0 -69 30q-31 28 -31 71zM402 1634q0 41 30 71q29 29 71 29q18 0 39 -8q18 -7 32 -21t21 -32q8 -21 8 -39q0 -42 -29 -71q-30 -30 -71 -30t-71 30t-30 71z" />
    <glyph glyph-name="Igrave" unicode="&#xcc;" horiz-adv-x="733" 
d="M234 80l-39 -29h292l-39 29q-34 25 -43 40q-10 14 -10 45v22q-1 3 -1 11v17v935v17q0 8 1 12v21q0 31 10 45q9 15 43 40l57 42h-328l57 -42q35 -26 44 -39t9 -46q1 -11 1 -33v-17v-935v-17q0 -22 -1 -33q0 -31 -9 -45q-8 -13 -44 -40zM678 0h-623v31q107 18 157 83
q38 49 38 191v755q0 93 -10 132q-11 43 -37 70q-49 55 -148 72v31h623v-31q-108 -18 -158 -83q-20 -26 -29 -69t-9 -122v-755q0 -82 11 -128q11 -45 37 -74q49 -55 148 -72v-31zM193 1733l145 -160l-62 160h-83zM370 1498l-241 262h202l77 -262h-38z" />
    <glyph glyph-name="Iacute" unicode="&#xcd;" horiz-adv-x="733" 
d="M234 80l-39 -29h292l-39 29q-34 25 -43 40q-10 14 -10 45v22q-1 3 -1 11v17v935v17q0 8 1 12v21q0 31 10 45q9 15 43 40l57 42h-328l57 -42q35 -26 44 -39t9 -46q1 -11 1 -33v-17v-935v-17q0 -22 -1 -33q0 -31 -9 -45q-8 -13 -44 -40zM678 0h-623v31q107 18 157 83
q38 49 38 191v755q0 93 -10 132q-11 43 -37 70q-49 55 -148 72v31h623v-31q-108 -18 -158 -83q-20 -26 -29 -69t-9 -122v-755q0 -82 11 -128q11 -45 37 -74q49 -55 148 -72v-31zM377 1733l-50 -160l133 160h-83zM357 1760h201l-241 -262h-38z" />
    <glyph glyph-name="Icircumflex" unicode="&#xce;" horiz-adv-x="733" 
d="M234 80l-39 -29h292l-39 29q-34 25 -43 40q-10 14 -10 45v22q-1 3 -1 11v17v935v17q0 8 1 12v21q0 31 10 45q9 15 43 40l57 42h-328l57 -42q35 -26 44 -39t9 -46q1 -11 1 -33v-17v-935v-17q0 -22 -1 -33q0 -31 -9 -45q-8 -13 -44 -40zM678 0h-623v31q107 18 157 83
q38 49 38 191v755q0 93 -10 132q-11 43 -37 70q-49 55 -148 72v31h623v-31q-108 -18 -158 -83q-20 -26 -29 -69t-9 -122v-755q0 -82 11 -128q11 -45 37 -74q49 -55 148 -72v-31zM365 1645l137 -53l-157 124l-218 -165zM641 1510l-273 104l-273 -104l-20 35l293 228l292 -228
z" />
    <glyph glyph-name="Idieresis" unicode="&#xcf;" horiz-adv-x="733" 
d="M234 80l-39 -29h292l-39 29q-34 25 -43 40q-10 14 -10 45v22q-1 3 -1 11v17v935v17q0 8 1 12v21q0 31 10 45q9 15 43 40l57 42h-328l57 -42q35 -26 44 -39t9 -46q1 -11 1 -33v-17v-935v-17q0 -22 -1 -33q0 -31 -9 -45q-8 -13 -44 -40zM678 0h-623v31q107 18 157 83
q38 49 38 191v755q0 93 -10 132q-11 43 -37 70q-49 55 -148 72v31h623v-31q-108 -18 -158 -83q-20 -26 -29 -69t-9 -122v-755q0 -82 11 -128q11 -45 37 -74q49 -55 148 -72v-31zM546 1573v116v3q-2 17 -19 17q-25 0 -48 -24q-22 -25 -22 -54q0 -30 22 -53q22 -25 48 -25
q19 0 19 20zM233 1573v116v3q0 17 -18 17q-25 0 -48 -24q-22 -25 -22 -54q0 -30 22 -53q22 -25 48 -25q18 0 18 20zM429 1631q0 27 14 50q14 24 36 37t50 13q18 0 39 -8q19 -7 33 -20q14 -14 21 -32q8 -21 8 -40q0 -43 -30 -72q-31 -29 -71 -29q-39 0 -69 30q-31 28 -31 71z
M116 1631q0 41 30 71q29 29 71 29q18 0 39 -8q18 -7 32 -21t21 -32q8 -21 8 -39q0 -42 -29 -71q-30 -30 -71 -30t-71 30t-30 71z" />
    <glyph glyph-name="Ntilde" unicode="&#xd1;" horiz-adv-x="1667" 
d="M172 51h204q-40 43 -60 77q-21 31 -39 80q-21 -54 -41 -84q-22 -34 -64 -73zM1469 1327h-192q48 -24 73 -49t49 -73q18 48 30 69q14 24 40 53zM303 1201l1096 -1170v157l-938 1002q-65 68 -103 137h-204q71 -42 149 -126zM1437 1006v-1038h-30l-1098 1169l1 -671
q0 -115 13 -180q14 -67 42 -117q67 -109 221 -138v-31h-523v31q135 50 180 189q16 44 22 102q6 56 6 140v716q-80 81 -120 110q-41 29 -96 46v31h388q24 -42 52 -76q5 -3 22 -24q6 -7 11.5 -13.5t8.5 -11.5q7 -7 11.5 -12t5.5 -7l845 -903v688q0 104 -26 173q-26 66 -83 104
t-150 51v31h477v-31q-107 -29 -143 -96q-37 -67 -37 -232zM580 1615q56 39 102 39q37 0 136 -32q80 -25 108 -32q34 -10 59 -10q36 0 62 19q26 18 57 59q-48 -22 -93 -22q-31 0 -66 9q-26 6 -128 38q-72 24 -107 24q-37 0 -66 -20q-30 -22 -64 -72zM554 1539l-29 12
q71 185 192 185q38 0 154 -38q67 -22 89 -26q24 -6 53 -6q74 0 124 65l29 -11q-35 -100 -80 -144q-46 -45 -113 -45q-43 0 -114 23l-54 17q-96 32 -138 32q-67 0 -113 -64z" />
    <glyph glyph-name="Ograve" unicode="&#xd2;" horiz-adv-x="1565" 
d="M1030 65q366 212 366 616q0 132 -40 249q-39 115 -115 211q-75 92 -175 147q219 -192 219 -598q0 -119 -21 -227q-22 -109 -60 -190q-23 -48 -41 -73q-25 -35 -54 -64q-30 -32 -79 -71zM481 66q-88 66 -147 156q-60 91 -88 207q-30 119 -30 259q0 209 64 355
q64 147 201 250q-119 -64 -203 -156q-86 -93 -129 -208q-45 -115 -45 -247q0 -130 45 -246q43 -116 129 -211q84 -94 203 -159zM318 688q0 -147 33 -272q32 -124 95 -214q63 -91 148 -136q86 -47 191 -47q172 0 299 136q77 83 121 221q42 137 42 313q0 152 -32 278
q-33 124 -93 211q-63 89 -146 134q-86 47 -193 47q-105 0 -191 -47q-86 -48 -147 -136q-60 -87 -94 -214q-33 -126 -33 -274zM66 681q0 144 56 277q55 131 156 232q98 98 230 154q131 54 275 54q194 0 359 -96q164 -98 261 -262q96 -165 96 -359q0 -143 -54 -274
q-56 -132 -155 -231t-229 -155t-275 -56q-197 0 -362 96q-166 96 -262 261q-96 164 -96 359zM660 1733l145 -160l-62 160h-83zM837 1498l-241 262h202l77 -262h-38z" />
    <glyph glyph-name="Oacute" unicode="&#xd3;" horiz-adv-x="1565" 
d="M1030 65q366 212 366 616q0 132 -40 249q-39 115 -115 211q-75 92 -175 147q219 -192 219 -598q0 -119 -21 -227q-22 -109 -60 -190q-23 -48 -41 -73q-25 -35 -54 -64q-30 -32 -79 -71zM481 66q-88 66 -147 156q-60 91 -88 207q-30 119 -30 259q0 209 64 355
q64 147 201 250q-119 -64 -203 -156q-86 -93 -129 -208q-45 -115 -45 -247q0 -130 45 -246q43 -116 129 -211q84 -94 203 -159zM318 688q0 -147 33 -272q32 -124 95 -214q63 -91 148 -136q86 -47 191 -47q172 0 299 136q77 83 121 221q42 137 42 313q0 152 -32 278
q-33 124 -93 211q-63 89 -146 134q-86 47 -193 47q-105 0 -191 -47q-86 -48 -147 -136q-60 -87 -94 -214q-33 -126 -33 -274zM66 681q0 144 56 277q55 131 156 232q98 98 230 154q131 54 275 54q194 0 359 -96q164 -98 261 -262q96 -165 96 -359q0 -143 -54 -274
q-56 -132 -155 -231t-229 -155t-275 -56q-197 0 -362 96q-166 96 -262 261q-96 164 -96 359zM842 1733l-50 -160l133 160h-83zM822 1760h201l-241 -262h-38z" />
    <glyph glyph-name="Ocircumflex" unicode="&#xd4;" horiz-adv-x="1565" 
d="M1030 65q366 212 366 616q0 132 -40 249q-39 115 -115 211q-75 92 -175 147q219 -192 219 -598q0 -119 -21 -227q-22 -109 -60 -190q-23 -48 -41 -73q-25 -35 -54 -64q-30 -32 -79 -71zM481 66q-88 66 -147 156q-60 91 -88 207q-30 119 -30 259q0 209 64 355
q64 147 201 250q-119 -64 -203 -156q-86 -93 -129 -208q-45 -115 -45 -247q0 -130 45 -246q43 -116 129 -211q84 -94 203 -159zM318 688q0 -147 33 -272q32 -124 95 -214q63 -91 148 -136q86 -47 191 -47q172 0 299 136q77 83 121 221q42 137 42 313q0 152 -32 278
q-33 124 -93 211q-63 89 -146 134q-86 47 -193 47q-105 0 -191 -47q-86 -48 -147 -136q-60 -87 -94 -214q-33 -126 -33 -274zM66 681q0 144 56 277q55 131 156 232q98 98 230 154q131 54 275 54q194 0 359 -96q164 -98 261 -262q96 -165 96 -359q0 -143 -54 -274
q-56 -132 -155 -231t-229 -155t-275 -56q-197 0 -362 96q-166 96 -262 261q-96 164 -96 359zM771 1645l137 -53l-157 124l-218 -165zM1047 1510l-273 104l-273 -104l-20 35l293 228l292 -228z" />
    <glyph glyph-name="Otilde" unicode="&#xd5;" horiz-adv-x="1565" 
d="M1030 65q366 212 366 616q0 132 -40 249q-39 115 -115 211q-75 92 -175 147q219 -192 219 -598q0 -119 -21 -227q-22 -109 -60 -190q-23 -48 -41 -73q-25 -35 -54 -64q-30 -32 -79 -71zM481 66q-88 66 -147 156q-60 91 -88 207q-30 119 -30 259q0 209 64 355
q64 147 201 250q-119 -64 -203 -156q-86 -93 -129 -208q-45 -115 -45 -247q0 -130 45 -246q43 -116 129 -211q84 -94 203 -159zM318 688q0 -147 33 -272q32 -124 95 -214q63 -91 148 -136q86 -47 191 -47q172 0 299 136q77 83 121 221q42 137 42 313q0 152 -32 278
q-33 124 -93 211q-63 89 -146 134q-86 47 -193 47q-105 0 -191 -47q-86 -48 -147 -136q-60 -87 -94 -214q-33 -126 -33 -274zM66 681q0 144 56 277q55 131 156 232q98 98 230 154q131 54 275 54q194 0 359 -96q164 -98 261 -262q96 -165 96 -359q0 -143 -54 -274
q-56 -132 -155 -231t-229 -155t-275 -56q-197 0 -362 96q-166 96 -262 261q-96 164 -96 359zM515 1615q56 39 102 39q37 0 136 -32q80 -25 108 -32q34 -10 59 -10q36 0 62 19q26 18 57 59q-48 -22 -93 -22q-31 0 -66 9q-26 6 -128 38q-72 24 -107 24q-37 0 -66 -20
q-30 -22 -64 -72zM489 1539l-29 12q71 185 192 185q38 0 154 -38q67 -22 89 -26q24 -6 53 -6q74 0 124 65l29 -11q-35 -100 -80 -144q-46 -45 -113 -45q-43 0 -114 23l-54 17q-96 32 -138 32q-67 0 -113 -64z" />
    <glyph glyph-name="Odieresis" unicode="&#xd6;" horiz-adv-x="1565" 
d="M1030 65q366 212 366 616q0 132 -40 249q-39 115 -115 211q-75 92 -175 147q219 -192 219 -598q0 -119 -21 -227q-22 -109 -60 -190q-23 -48 -41 -73q-25 -35 -54 -64q-30 -32 -79 -71zM481 66q-88 66 -147 156q-60 91 -88 207q-30 119 -30 259q0 209 64 355
q64 147 201 250q-119 -64 -203 -156q-86 -93 -129 -208q-45 -115 -45 -247q0 -130 45 -246q43 -116 129 -211q84 -94 203 -159zM318 688q0 -147 33 -272q32 -124 95 -214q63 -91 148 -136q86 -47 191 -47q172 0 299 136q77 83 121 221q42 137 42 313q0 152 -32 278
q-33 124 -93 211q-63 89 -146 134q-86 47 -193 47q-105 0 -191 -47q-86 -48 -147 -136q-60 -87 -94 -214q-33 -126 -33 -274zM66 681q0 144 56 277q55 131 156 232q98 98 230 154q131 54 275 54q194 0 359 -96q164 -98 261 -262q96 -165 96 -359q0 -143 -54 -274
q-56 -132 -155 -231t-229 -155t-275 -56q-197 0 -362 96q-166 96 -262 261q-96 164 -96 359zM955 1573v116v3q-2 17 -19 17q-25 0 -48 -24q-22 -25 -22 -54q0 -30 22 -53q22 -25 48 -25q19 0 19 20zM642 1573v116v3q0 17 -18 17q-25 0 -48 -24q-22 -25 -22 -54q0 -30 22 -53
q22 -25 48 -25q18 0 18 20zM838 1631q0 27 14 50q14 24 36 37t50 13q18 0 39 -8q19 -7 33 -20q14 -14 21 -32q8 -21 8 -40q0 -43 -30 -72q-31 -29 -71 -29q-39 0 -69 30q-31 28 -31 71zM525 1631q0 41 30 71q29 29 71 29q18 0 39 -8q18 -7 32 -21t21 -32q8 -21 8 -39
q0 -42 -29 -71q-30 -30 -71 -30t-71 30t-30 71z" />
    <glyph glyph-name="multiply" unicode="&#xd7;" horiz-adv-x="0" 
 />
    <glyph glyph-name="multiply" unicode="&#xfd;" horiz-adv-x="0" 
 />
    <glyph glyph-name="Oslash" unicode="&#xd8;" horiz-adv-x="1565" 
d="M1030 65q366 212 366 616q0 132 -40 249q-39 115 -115 211q-75 92 -175 147q219 -192 219 -598q0 -119 -21 -227q-22 -109 -60 -190q-23 -48 -41 -73q-25 -35 -54 -64q-30 -32 -79 -71zM481 66q-88 66 -147 156q-60 91 -88 207q-30 119 -30 259q0 209 64 355
q64 147 201 250q-119 -64 -203 -156q-86 -93 -129 -208q-45 -115 -45 -247q0 -130 45 -246q43 -116 129 -211q84 -94 203 -159zM1138 1151l-679 -970q128 -162 326 -162q172 0 299 136q80 86 122 223q41 138 41 312q0 280 -109 461zM434 217l679 971q-63 85 -146 127
q-86 44 -184 44q-105 0 -191 -47t-146 -134q-61 -88 -94 -215q-34 -126 -34 -277q0 -284 116 -469zM254 -39l101 144l-5 4q-137 108 -210 256q-74 148 -74 316q0 144 56 277q55 131 156 232q98 98 230 154q131 54 275 54q208 0 389 -115l5 -4l95 135l33 -23l-94 -135
q137 -102 213 -252q75 -151 75 -323q0 -143 -54 -274q-56 -132 -155 -231t-229 -155t-275 -56q-217 0 -397 117l-101 -145z" />
    <glyph glyph-name="Ugrave" unicode="&#xd9;" horiz-adv-x="1544" 
d="M497 1327h-336l61 -42q30 -19 42 -37q11 -19 11 -48q0 -30 1 -33v-17v-559q0 -71 12 -173q23 -193 153 -306q128 -111 330 -113q-203 44 -305 180q-47 62 -65 143q-19 77 -19 210v618v17v33q2 31 12 47q11 17 42 38zM1349 1327h-176q40 -23 63 -46q25 -27 43 -64
q28 66 70 110zM43 1365h636v-31q-116 -18 -168 -82q-25 -33 -32 -73q-9 -42 -9 -119v-552v-35q0 -65 11 -120.5t33.5 -103.5t54.5 -83q53 -59 135 -92q81 -34 171 -34q130 0 225 65q94 64 142 183q38 96 38 260v465q0 171 -78 244q-65 62 -163 77v31h465v-31
q-66 -18 -107 -54t-59 -95q-18 -58 -18 -148v-488q0 -122 -15 -196q-15 -75 -49 -135q-46 -82 -115 -136q-72 -57 -163 -85q-93 -29 -198 -29q-112 0 -207 33q-94 31 -166 94t-113 148q-56 118 -56 336v481q0 86 -9 129q-11 43 -38 73q-49 55 -148 72v31zM685 1733l145 -160
l-62 160h-83zM862 1498l-241 262h202l77 -262h-38z" />
    <glyph glyph-name="Uacute" unicode="&#xda;" horiz-adv-x="1544" 
d="M497 1327h-336l61 -42q30 -19 42 -37q11 -19 11 -48q0 -30 1 -33v-17v-559q0 -71 12 -173q23 -193 153 -306q128 -111 330 -113q-203 44 -305 180q-47 62 -65 143q-19 77 -19 210v618v17v33q2 31 12 47q11 17 42 38zM1349 1327h-176q40 -23 63 -46q25 -27 43 -64
q28 66 70 110zM43 1365h636v-31q-116 -18 -168 -82q-25 -33 -32 -73q-9 -42 -9 -119v-552v-35q0 -65 11 -120.5t33.5 -103.5t54.5 -83q53 -59 135 -92q81 -34 171 -34q130 0 225 65q94 64 142 183q38 96 38 260v465q0 171 -78 244q-65 62 -163 77v31h465v-31
q-66 -18 -107 -54t-59 -95q-18 -58 -18 -148v-488q0 -122 -15 -196q-15 -75 -49 -135q-46 -82 -115 -136q-72 -57 -163 -85q-93 -29 -198 -29q-112 0 -207 33q-94 31 -166 94t-113 148q-56 118 -56 336v481q0 86 -9 129q-11 43 -38 73q-49 55 -148 72v31zM883 1733l-50 -160
l133 160h-83zM863 1760h201l-241 -262h-38z" />
    <glyph glyph-name="Ucircumflex" unicode="&#xdb;" horiz-adv-x="1544" 
d="M497 1327h-336l61 -42q30 -19 42 -37q11 -19 11 -48q0 -30 1 -33v-17v-559q0 -71 12 -173q23 -193 153 -306q128 -111 330 -113q-203 44 -305 180q-47 62 -65 143q-19 77 -19 210v618v17v33q2 31 12 47q11 17 42 38zM1349 1327h-176q40 -23 63 -46q25 -27 43 -64
q28 66 70 110zM43 1365h636v-31q-116 -18 -168 -82q-25 -33 -32 -73q-9 -42 -9 -119v-552v-35q0 -65 11 -120.5t33.5 -103.5t54.5 -83q53 -59 135 -92q81 -34 171 -34q130 0 225 65q94 64 142 183q38 96 38 260v465q0 171 -78 244q-65 62 -163 77v31h465v-31
q-66 -18 -107 -54t-59 -95q-18 -58 -18 -148v-488q0 -122 -15 -196q-15 -75 -49 -135q-46 -82 -115 -136q-72 -57 -163 -85q-93 -29 -198 -29q-112 0 -207 33q-94 31 -166 94t-113 148q-56 118 -56 336v481q0 86 -9 129q-11 43 -38 73q-49 55 -148 72v31zM829 1645l137 -53
l-157 124l-218 -165zM1105 1510l-273 104l-273 -104l-20 35l293 228l292 -228z" />
    <glyph glyph-name="Udieresis" unicode="&#xdc;" horiz-adv-x="1544" 
d="M497 1327h-336l61 -42q30 -19 42 -37q11 -19 11 -48q0 -30 1 -33v-17v-559q0 -71 12 -173q23 -193 153 -306q128 -111 330 -113q-203 44 -305 180q-47 62 -65 143q-19 77 -19 210v618v17v33q2 31 12 47q11 17 42 38zM1349 1327h-176q40 -23 63 -46q25 -27 43 -64
q28 66 70 110zM43 1365h636v-31q-116 -18 -168 -82q-25 -33 -32 -73q-9 -42 -9 -119v-552v-35q0 -65 11 -120.5t33.5 -103.5t54.5 -83q53 -59 135 -92q81 -34 171 -34q130 0 225 65q94 64 142 183q38 96 38 260v465q0 171 -78 244q-65 62 -163 77v31h465v-31
q-66 -18 -107 -54t-59 -95q-18 -58 -18 -148v-488q0 -122 -15 -196q-15 -75 -49 -135q-46 -82 -115 -136q-72 -57 -163 -85q-93 -29 -198 -29q-112 0 -207 33q-94 31 -166 94t-113 148q-56 118 -56 336v481q0 86 -9 129q-11 43 -38 73q-49 55 -148 72v31zM996 1571v116v3
q-2 17 -19 17q-25 0 -48 -24q-22 -25 -22 -54q0 -30 22 -53q22 -25 48 -25q19 0 19 20zM683 1571v116v3q0 17 -18 17q-25 0 -48 -24q-22 -25 -22 -54q0 -30 22 -53q22 -25 48 -25q18 0 18 20zM879 1629q0 27 14 50q14 24 36 37t50 13q18 0 39 -8q19 -7 33 -20q14 -14 21 -32
q8 -21 8 -40q0 -43 -30 -72q-31 -29 -71 -29q-39 0 -69 30q-31 28 -31 71zM566 1629q0 41 30 71q29 29 71 29q18 0 39 -8q18 -7 32 -21t21 -32q8 -21 8 -39q0 -42 -29 -71q-30 -30 -71 -30t-71 30t-30 71z" />
    <glyph glyph-name="germandbls" unicode="&#xdf;" horiz-adv-x="981" 
d="M552 1350q45 -36 68 -99q21 -63 21 -157q0 -111 -20 -174q-21 -62 -73 -105q86 32 134 102q47 70 47 162q0 104 -44 172q-43 67 -133 99zM544 31q92 24 159 82q68 58 104 141q36 84 36 182q0 97 -36 176q-38 79 -106 126q-69 48 -167 63q77 -32 124 -80q45 -46 68 -120
q21 -72 21 -172q0 -284 -203 -398zM167 62l-22 -18h147v837q0 167 9 251t33 132q23 49 72 86q-64 -25 -107 -65q-44 -41 -63 -95q-17 -45 -25 -90q-7 -40 -10 -136q-1 -19 -1 -94v-727q0 -42 -4 -51q-5 -11 -25 -27q-1 -1 -2 -1.5t-2 -1.5zM165 192v597h-84v30h84v81
q0 125 11 199q11 71 39 126q26 51 66 87q40 35 96 55q54 19 116 19q74 0 131 -22q59 -22 99 -60q42 -41 64 -96q23 -58 23 -123q0 -92 -41 -157q-40 -64 -135 -114q91 -26 158 -81q70 -57 103 -131q35 -78 35 -169q0 -120 -60 -221q-61 -102 -165 -157q-105 -57 -231 -57
q-29 0 -49 3v26q83 3 148 55q66 54 101 143q36 92 36 204q0 172 -67 264q-68 92 -197 98v26q87 3 123 66t36 212q0 126 -30 190t-87 64q-41 0 -68 -34t-36 -96q-10 -72 -13 -220v-51q-1 -11 -1 -37v-911h-322v27q67 12 93 47q24 35 24 118z" />
    <glyph glyph-name="agrave" unicode="&#xe0;" horiz-adv-x="924" 
d="M344 807q-71 -18 -112 -58q-43 -40 -43 -91q0 -19 9 -30t24 -11q14 0 21 9q7 7 12 34q11 56 29 85q15 27 60 62zM344 17q-170 35 -170 186q0 98 79 168q33 30 135 79q-120 -22 -188 -63q-114 -70 -114 -185q0 -83 61 -134q59 -52 156 -52q29 0 41 1zM598 480v-436h148
l-23 18v1t-1 1q-1 1 -3 1l-13 10q-15 15 -15 38v20l-1 10v340q0 138 -32 208q-46 93 -141 118q64 -45 75 -143q6 -60 6 -186zM564 137v331q-95 -15 -166 -50q-68 -34 -107 -89q-37 -53 -37 -119t40 -109q39 -44 99 -44q73 0 171 80zM564 0v93q-124 -104 -264 -104
q-112 0 -180 59t-68 153q0 136 132 212t380 87v28v14q0 82 -7 128q-8 51 -20 74q-15 29 -42 47q-29 17 -60 17q-47 0 -74 -30q-27 -31 -34 -95q-7 -62 -26 -85q-18 -23 -62 -23q-34 0 -57 24q-23 25 -23 62q0 52 37 93q38 42 103 65q65 24 143 24q101 0 177 -40
q75 -40 113 -113q21 -40 29 -83q8 -50 8 -127v-288q0 -84 25 -118q24 -35 92 -47v-27h-322zM289 1212l145 -160l-62 160h-83zM466 977l-241 262h202l77 -262h-38z" />
    <glyph glyph-name="aacute" unicode="&#xe1;" horiz-adv-x="924" 
d="M344 807q-71 -18 -112 -58q-43 -40 -43 -91q0 -19 9 -30t24 -11q14 0 21 9q7 7 12 34q11 56 29 85q15 27 60 62zM344 17q-170 35 -170 186q0 98 79 168q33 30 135 79q-120 -22 -188 -63q-114 -70 -114 -185q0 -83 61 -134q59 -52 156 -52q29 0 41 1zM598 480v-436h148
l-23 18v1t-1 1q-1 1 -3 1l-13 10q-15 15 -15 38v20l-1 10v340q0 138 -32 208q-46 93 -141 118q64 -45 75 -143q6 -60 6 -186zM564 137v331q-95 -15 -166 -50q-68 -34 -107 -89q-37 -53 -37 -119t40 -109q39 -44 99 -44q73 0 171 80zM564 0v93q-124 -104 -264 -104
q-112 0 -180 59t-68 153q0 136 132 212t380 87v28v14q0 82 -7 128q-8 51 -20 74q-15 29 -42 47q-29 17 -60 17q-47 0 -74 -30q-27 -31 -34 -95q-7 -62 -26 -85q-18 -23 -62 -23q-34 0 -57 24q-23 25 -23 62q0 52 37 93q38 42 103 65q65 24 143 24q101 0 177 -40
q75 -40 113 -113q21 -40 29 -83q8 -50 8 -127v-288q0 -84 25 -118q24 -35 92 -47v-27h-322zM500 1212l-50 -160l133 160h-83zM480 1239h201l-241 -262h-38z" />
    <glyph glyph-name="acircumflex" unicode="&#xe2;" horiz-adv-x="924" 
d="M344 807q-71 -18 -112 -58q-43 -40 -43 -91q0 -19 9 -30t24 -11q14 0 21 9q7 7 12 34q11 56 29 85q15 27 60 62zM344 17q-170 35 -170 186q0 98 79 168q33 30 135 79q-120 -22 -188 -63q-114 -70 -114 -185q0 -83 61 -134q59 -52 156 -52q29 0 41 1zM598 480v-436h148
l-23 18v1t-1 1q-1 1 -3 1l-13 10q-15 15 -15 38v20l-1 10v340q0 138 -32 208q-46 93 -141 118q64 -45 75 -143q6 -60 6 -186zM564 137v331q-95 -15 -166 -50q-68 -34 -107 -89q-37 -53 -37 -119t40 -109q39 -44 99 -44q73 0 171 80zM564 0v93q-124 -104 -264 -104
q-112 0 -180 59t-68 153q0 136 132 212t380 87v28v14q0 82 -7 128q-8 51 -20 74q-15 29 -42 47q-29 17 -60 17q-47 0 -74 -30q-27 -31 -34 -95q-7 -62 -26 -85q-18 -23 -62 -23q-34 0 -57 24q-23 25 -23 62q0 52 37 93q38 42 103 65q65 24 143 24q101 0 177 -40
q75 -40 113 -113q21 -40 29 -83q8 -50 8 -127v-288q0 -84 25 -118q24 -35 92 -47v-27h-322zM460 1124l137 -53l-157 124l-218 -165zM736 989l-273 104l-273 -104l-20 35l293 228l292 -228z" />
    <glyph glyph-name="atilde" unicode="&#xe3;" horiz-adv-x="924" 
d="M344 807q-71 -18 -112 -58q-43 -40 -43 -91q0 -19 9 -30t24 -11q14 0 21 9q7 7 12 34q11 56 29 85q15 27 60 62zM344 17q-170 35 -170 186q0 98 79 168q33 30 135 79q-120 -22 -188 -63q-114 -70 -114 -185q0 -83 61 -134q59 -52 156 -52q29 0 41 1zM598 480v-436h148
l-23 18v1t-1 1q-1 1 -3 1l-13 10q-15 15 -15 38v20l-1 10v340q0 138 -32 208q-46 93 -141 118q64 -45 75 -143q6 -60 6 -186zM564 137v331q-95 -15 -166 -50q-68 -34 -107 -89q-37 -53 -37 -119t40 -109q39 -44 99 -44q73 0 171 80zM564 0v93q-124 -104 -264 -104
q-112 0 -180 59t-68 153q0 136 132 212t380 87v28v14q0 82 -7 128q-8 51 -20 74q-15 29 -42 47q-29 17 -60 17q-47 0 -74 -30q-27 -31 -34 -95q-7 -62 -26 -85q-18 -23 -62 -23q-34 0 -57 24q-23 25 -23 62q0 52 37 93q38 42 103 65q65 24 143 24q101 0 177 -40
q75 -40 113 -113q21 -40 29 -83q8 -50 8 -127v-288q0 -84 25 -118q24 -35 92 -47v-27h-322zM198 1094q56 39 102 39q37 0 136 -32q80 -25 108 -32q34 -10 59 -10q36 0 62 19q26 18 57 59q-48 -22 -93 -22q-31 0 -66 9q-26 6 -128 38q-72 24 -107 24q-37 0 -66 -20
q-30 -22 -64 -72zM172 1018l-29 12q71 185 192 185q38 0 154 -38q67 -22 89 -26q24 -6 53 -6q74 0 124 65l29 -11q-35 -100 -80 -144q-46 -45 -113 -45q-43 0 -114 23l-54 17q-96 32 -138 32q-67 0 -113 -64z" />
    <glyph glyph-name="adieresis" unicode="&#xe4;" horiz-adv-x="924" 
d="M344 807q-71 -18 -112 -58q-43 -40 -43 -91q0 -19 9 -30t24 -11q14 0 21 9q7 7 12 34q11 56 29 85q15 27 60 62zM344 17q-170 35 -170 186q0 98 79 168q33 30 135 79q-120 -22 -188 -63q-114 -70 -114 -185q0 -83 61 -134q59 -52 156 -52q29 0 41 1zM598 480v-436h148
l-23 18v1t-1 1q-1 1 -3 1l-13 10q-15 15 -15 38v20l-1 10v340q0 138 -32 208q-46 93 -141 118q64 -45 75 -143q6 -60 6 -186zM564 137v331q-95 -15 -166 -50q-68 -34 -107 -89q-37 -53 -37 -119t40 -109q39 -44 99 -44q73 0 171 80zM564 0v93q-124 -104 -264 -104
q-112 0 -180 59t-68 153q0 136 132 212t380 87v28v14q0 82 -7 128q-8 51 -20 74q-15 29 -42 47q-29 17 -60 17q-47 0 -74 -30q-27 -31 -34 -95q-7 -62 -26 -85q-18 -23 -62 -23q-34 0 -57 24q-23 25 -23 62q0 52 37 93q38 42 103 65q65 24 143 24q101 0 177 -40
q75 -40 113 -113q21 -40 29 -83q8 -50 8 -127v-288q0 -84 25 -118q24 -35 92 -47v-27h-322zM614 1052v116v3q-2 17 -19 17q-25 0 -48 -24q-22 -25 -22 -54q0 -30 22 -53q22 -25 48 -25q19 0 19 20zM301 1052v116v3q0 17 -18 17q-25 0 -48 -24q-22 -25 -22 -54q0 -30 22 -53
q22 -25 48 -25q18 0 18 20zM497 1110q0 27 14 50q14 24 36 37t50 13q18 0 39 -8q19 -7 33 -20q14 -14 21 -32q8 -21 8 -40q0 -43 -30 -72q-31 -29 -71 -29q-39 0 -69 30q-31 28 -31 71zM184 1110q0 41 30 71q29 29 71 29q18 0 39 -8q18 -7 32 -21t21 -32q8 -21 8 -39
q0 -42 -29 -71q-30 -30 -71 -30t-71 30t-30 71z" />
    <glyph glyph-name="aring" unicode="&#xe5;" horiz-adv-x="924" 
d="M344 807q-71 -18 -112 -58q-43 -40 -43 -91q0 -19 9 -30t24 -11q14 0 21 9q7 7 12 34q11 56 29 85q15 27 60 62zM344 17q-170 35 -170 186q0 98 79 168q33 30 135 79q-120 -22 -188 -63q-114 -70 -114 -185q0 -83 61 -134q59 -52 156 -52q29 0 41 1zM598 480v-436h148
l-23 18v1t-1 1q-1 1 -3 1l-13 10q-15 15 -15 38v20l-1 10v340q0 138 -32 208q-46 93 -141 118q64 -45 75 -143q6 -60 6 -186zM564 137v331q-95 -15 -166 -50q-68 -34 -107 -89q-37 -53 -37 -119t40 -109q39 -44 99 -44q73 0 171 80zM564 0v93q-124 -104 -264 -104
q-112 0 -180 59t-68 153q0 136 132 212t380 87v28v14q0 82 -7 128q-8 51 -20 74q-15 29 -42 47q-29 17 -60 17q-47 0 -74 -30q-27 -31 -34 -95q-7 -62 -26 -85q-18 -23 -62 -23q-34 0 -57 24q-23 25 -23 62q0 52 37 93q38 42 103 65q65 24 143 24q101 0 177 -40
q75 -40 113 -113q21 -40 29 -83q8 -50 8 -127v-288q0 -84 25 -118q24 -35 92 -47v-27h-322zM482 975q88 43 88 133q0 44 -21 81q-22 36 -59 52q39 -39 39 -129q0 -93 -47 -137zM369 975q-47 41 -47 135q0 47 11 78q11 30 36 54q-43 -22 -65 -55q-23 -35 -23 -78
q0 -88 88 -134zM373 1111q0 -67 18 -106q18 -40 47 -40t47 40q17 42 17 106q0 65 -17 107q-16 39 -47 39q-30 0 -47 -39q-18 -40 -18 -107zM252 1109q0 69 56 119q55 49 131 49q52 0 93 -22q40 -22 66 -62q25 -38 25 -84q0 -69 -53 -119q-55 -50 -131 -50q-75 0 -131 50
t-56 119z" />
    <glyph glyph-name="ae" unicode="&#xe6;" horiz-adv-x="1425" 
d="M316 807q-62 -18 -101 -59q-39 -40 -39 -90q0 -41 31 -41q13 0 20 10q7 8 10 33q9 53 24 83q16 31 55 64zM1225 501h86q-4 112 -56 191q-53 77 -139 104q59 -47 84 -109t25 -158v-28zM790 504h388q0 134 -27 192q-24 53 -65 83q-43 29 -95 29q-131 0 -178 -143
q-19 -57 -23 -161zM336 12q-80 17 -124 68q-45 50 -45 122q0 95 76 165q26 25 130 79q-151 -31 -223 -91t-72 -155q0 -83 62 -136q62 -54 155 -54q-7 0 41 2zM1024 7q-91 12 -146 43t-103 96q-42 59 -57 123q-16 62 -19 193q-2 106 -8 144q-7 42 -31 85q-52 92 -165 118
q63 -31 87 -94q23 -63 23 -197l-1 -51v-26q0 -73 8 -126q7 -49 26 -93q19 -45 46 -78q48 -62 130 -101q78 -37 170 -37q12 0 17 1h23zM608 159l16 12q-29 62 -41 113q-13 51 -13 115v64q-153 -24 -237 -90q-85 -67 -85 -164q0 -65 40 -108t100 -43q32 0 62 10q33 9 69 31
q31 19 89 60zM643 142q-97 -82 -182 -121q-84 -38 -167 -38q-111 0 -180 60q-69 59 -69 156q0 88 53 149q53 60 166 95q115 35 291 50l15 1q0 154 -18 214q-13 45 -53 74q-38 28 -88 28q-52 0 -76 -29q-23 -28 -31 -97q-7 -60 -18 -78q-18 -31 -60 -31q-36 0 -58 25
q-23 25 -23 63q0 54 34 94q35 41 97 63q63 23 141 23q109 0 194 -39q84 -39 120 -105q30 61 107 102q76 40 164 40q102 0 188 -43q87 -44 134 -119q52 -79 58 -211h-592v-23q0 -120 34 -209q34 -90 97 -139q61 -49 144 -49q133 0 288 121l19 -27q-100 -86 -196 -126
q-94 -39 -204 -39q-112 0 -191 40q-79 39 -138 125z" />
    <glyph glyph-name="ccedilla" unicode="&#xe7;" horiz-adv-x="863" 
d="M623 784q29 -39 38 -63q9 -31 16 -88q8 -52 18 -69q9 -16 30 -16q33 0 33 48q0 100 -135 188zM453 6q-273 71 -273 406q0 127 37 210q36 83 128 162q-257 -132 -257 -403q0 -163 103 -267q102 -107 262 -108zM413 -103l-28 -36l4 -4q24 7 45 7q46 0 77 -26q29 -27 29 -70
q0 -28 -12 -47q-13 -21 -46 -47q93 34 93 113q0 47 -36 80t-89 33q-23 0 -37 -3zM479 -22l-34 -46q5 1 17 1q65 0 108 -39q43 -40 43 -99q0 -41 -22 -75q-24 -37 -59 -55q-38 -20 -83 -20q-70 0 -141 60l20 27q56 -48 101 -48q35 0 60 24q24 22 24 58q0 32 -23 53
q-23 20 -60 20q-19 0 -49 -8l-26 27l89 121q-118 5 -205 55q-88 51 -138 140q-49 88 -49 204q0 92 35 179q34 84 96 149q61 64 146 100q85 35 176 35q87 0 159 -31q74 -32 118 -85q43 -52 43 -116q0 -42 -23 -70q-24 -28 -63 -28q-54 0 -81 52q-11 21 -19 91q-7 67 -26 96
q-16 27 -46 43q-30 15 -68 15q-69 0 -122 -48q-52 -48 -81 -134q-29 -87 -29 -200q0 -112 33 -201q34 -90 93 -136q59 -48 138 -48q44 0 87 17t88 53q46 37 93 91l23 -28q-64 -74 -116 -114q-48 -38 -104 -59q-54 -20 -123 -23z" />
    <glyph glyph-name="egrave" unicode="&#xe8;" horiz-adv-x="925" 
d="M707 501h86q-3 74 -27 134t-66 102q-45 42 -101 59q59 -47 84 -109t25 -158q0 -20 -1 -28zM507 7q-70 9 -114 27q-43 18 -84 56q-59 54 -95 148q-34 90 -34 199q0 75 15 138q14 64 45 113q31 51 82 95q-113 -61 -175 -164q-61 -101 -61 -228q0 -108 49 -196
q51 -91 137 -139q88 -50 193 -50q30 0 42 1zM273 501h399q-2 136 -27 194q-22 54 -66 84q-44 29 -96 29q-192 0 -210 -307zM876 466h-603v-22q0 -118 35 -208q34 -88 100 -139q64 -49 151 -49q48 0 93 16q43 14 92 44q42 26 102 82l20 -27q-101 -99 -195 -143
q-92 -43 -207 -43q-119 0 -213 52q-94 53 -147 147q-52 94 -52 214q0 126 58 229q58 105 157 163q100 59 222 59q106 0 193 -43t136 -121q52 -79 58 -211zM343 1212l145 -160l-62 160h-83zM520 977l-241 262h202l77 -262h-38z" />
    <glyph glyph-name="eacute" unicode="&#xe9;" horiz-adv-x="925" 
d="M707 501h86q-3 74 -27 134t-66 102q-45 42 -101 59q59 -47 84 -109t25 -158q0 -20 -1 -28zM507 7q-70 9 -114 27q-43 18 -84 56q-59 54 -95 148q-34 90 -34 199q0 75 15 138q14 64 45 113q31 51 82 95q-113 -61 -175 -164q-61 -101 -61 -228q0 -108 49 -196
q51 -91 137 -139q88 -50 193 -50q30 0 42 1zM273 501h399q-2 136 -27 194q-22 54 -66 84q-44 29 -96 29q-192 0 -210 -307zM876 466h-603v-22q0 -118 35 -208q34 -88 100 -139q64 -49 151 -49q48 0 93 16q43 14 92 44q42 26 102 82l20 -27q-101 -99 -195 -143
q-92 -43 -207 -43q-119 0 -213 52q-94 53 -147 147q-52 94 -52 214q0 126 58 229q58 105 157 163q100 59 222 59q106 0 193 -43t136 -121q52 -79 58 -211zM555 1212l-50 -160l133 160h-83zM535 1239h201l-241 -262h-38z" />
    <glyph glyph-name="ecircumflex" unicode="&#xea;" horiz-adv-x="925" 
d="M707 501h86q-3 74 -27 134t-66 102q-45 42 -101 59q59 -47 84 -109t25 -158q0 -20 -1 -28zM507 7q-70 9 -114 27q-43 18 -84 56q-59 54 -95 148q-34 90 -34 199q0 75 15 138q14 64 45 113q31 51 82 95q-113 -61 -175 -164q-61 -101 -61 -228q0 -108 49 -196
q51 -91 137 -139q88 -50 193 -50q30 0 42 1zM273 501h399q-2 136 -27 194q-22 54 -66 84q-44 29 -96 29q-192 0 -210 -307zM876 466h-603v-22q0 -118 35 -208q34 -88 100 -139q64 -49 151 -49q48 0 93 16q43 14 92 44q42 26 102 82l20 -27q-101 -99 -195 -143
q-92 -43 -207 -43q-119 0 -213 52q-94 53 -147 147q-52 94 -52 214q0 126 58 229q58 105 157 163q100 59 222 59q106 0 193 -43t136 -121q52 -79 58 -211zM501 1124l137 -53l-157 124l-218 -165zM777 989l-273 104l-273 -104l-20 35l293 228l292 -228z" />
    <glyph glyph-name="edieresis" unicode="&#xeb;" horiz-adv-x="925" 
d="M707 501h86q-3 74 -27 134t-66 102q-45 42 -101 59q59 -47 84 -109t25 -158q0 -20 -1 -28zM507 7q-70 9 -114 27q-43 18 -84 56q-59 54 -95 148q-34 90 -34 199q0 75 15 138q14 64 45 113q31 51 82 95q-113 -61 -175 -164q-61 -101 -61 -228q0 -108 49 -196
q51 -91 137 -139q88 -50 193 -50q30 0 42 1zM273 501h399q-2 136 -27 194q-22 54 -66 84q-44 29 -96 29q-192 0 -210 -307zM876 466h-603v-22q0 -118 35 -208q34 -88 100 -139q64 -49 151 -49q48 0 93 16q43 14 92 44q42 26 102 82l20 -27q-101 -99 -195 -143
q-92 -43 -207 -43q-119 0 -213 52q-94 53 -147 147q-52 94 -52 214q0 126 58 229q58 105 157 163q100 59 222 59q106 0 193 -43t136 -121q52 -79 58 -211zM669 1052v116v3q-2 17 -19 17q-25 0 -48 -24q-22 -25 -22 -54q0 -30 22 -53q22 -25 48 -25q19 0 19 20zM356 1052v116
v3q0 17 -18 17q-25 0 -48 -24q-22 -25 -22 -54q0 -30 22 -53q22 -25 48 -25q18 0 18 20zM552 1110q0 27 14 50q14 24 36 37t50 13q18 0 39 -8q19 -7 33 -20q14 -14 21 -32q8 -21 8 -40q0 -43 -30 -72q-31 -29 -71 -29q-39 0 -69 30q-31 28 -31 71zM239 1110q0 41 30 71
q29 29 71 29q18 0 39 -8q18 -7 32 -21t21 -32q8 -21 8 -39q0 -42 -29 -71q-30 -30 -71 -30t-71 30t-30 71z" />
    <glyph glyph-name="igrave" unicode="&#xec;" horiz-adv-x="526" 
d="M173 62l-21 -18h200l-24 18l-1.5 1.5t-2.5 1.5l-13 10q-13 13 -15 38v20v10v651l-164 -18l39 -28q1 0 4 -3l13 -10q10 -7 13 -20t3 -48v-524q0 -42 -4 -51q-4 -10 -24 -27v0l-1 -1zM491 0h-439v27q67 12 93 47q25 34 25 118v420q0 85 -25 120t-93 45v22l322 37v-644
q0 -84 25 -118q24 -35 92 -47v-27zM111 1212l145 -160l-62 160h-83zM288 977l-241 262h202l77 -262h-38z" />
    <glyph glyph-name="iacute" unicode="&#xed;" horiz-adv-x="526" 
d="M173 62l-21 -18h200l-24 18l-1.5 1.5t-2.5 1.5l-13 10q-13 13 -15 38v20v10v651l-164 -18l39 -28q1 0 4 -3l13 -10q10 -7 13 -20t3 -48v-524q0 -42 -4 -51q-4 -10 -24 -27v0l-1 -1zM491 0h-439v27q67 12 93 47q25 34 25 118v420q0 85 -25 120t-93 45v22l322 37v-644
q0 -84 25 -118q24 -35 92 -47v-27zM268 1212l-50 -160l133 160h-83zM248 1239h201l-241 -262h-38z" />
    <glyph glyph-name="icircumflex" unicode="&#xee;" horiz-adv-x="526" 
d="M173 62l-21 -18h200l-24 18l-1.5 1.5t-2.5 1.5l-13 10q-13 13 -15 38v20v10v651l-164 -18l39 -28q1 0 4 -3l13 -10q10 -7 13 -20t3 -48v-524q0 -42 -4 -51q-4 -10 -24 -27v0l-1 -1zM491 0h-439v27q67 12 93 47q25 34 25 118v420q0 85 -25 120t-93 45v22l322 37v-644
q0 -84 25 -118q24 -35 92 -47v-27zM255 1124l137 -53l-157 124l-218 -165zM531 989l-273 104l-273 -104l-20 35l293 228l292 -228z" />
    <glyph glyph-name="idieresis" unicode="&#xef;" horiz-adv-x="526" 
d="M173 62l-21 -18h200l-24 18l-1.5 1.5t-2.5 1.5l-13 10q-13 13 -15 38v20v10v651l-164 -18l39 -28q1 0 4 -3l13 -10q10 -7 13 -20t3 -48v-524q0 -42 -4 -51q-4 -10 -24 -27v0l-1 -1zM491 0h-439v27q67 12 93 47q25 34 25 118v420q0 85 -25 120t-93 45v22l322 37v-644
q0 -84 25 -118q24 -35 92 -47v-27zM423 1052v116v3q-2 17 -19 17q-25 0 -48 -24q-22 -25 -22 -54q0 -30 22 -53q22 -25 48 -25q19 0 19 20zM110 1052v116v3q0 17 -18 17q-25 0 -48 -24q-22 -25 -22 -54q0 -30 22 -53q22 -25 48 -25q18 0 18 20zM306 1110q0 27 14 50
q14 24 36 37t50 13q18 0 39 -8q19 -7 33 -20q14 -14 21 -32q8 -21 8 -40q0 -43 -30 -72q-31 -29 -71 -29q-39 0 -69 30q-31 28 -31 71zM-7 1110q0 41 30 71q29 29 71 29q18 0 39 -8q18 -7 32 -21t21 -32q8 -21 8 -39q0 -42 -29 -71q-30 -30 -71 -30t-71 30t-30 71z" />
    <glyph glyph-name="ntilde" unicode="&#xf1;" horiz-adv-x="1155" 
d="M173 62l-21 -18h200l-24 18l-1.5 1.5t-2.5 1.5l-13 10q-13 13 -15 38v20v205v104v352l-164 -18l39 -28q1 0 4 -3l13 -10q10 -7 13 -20t3 -48v-524q0 -42 -4 -51q-4 -10 -24 -27v0l-1 -1zM798 62l-20 -18h199l-23 18v1t-1 1q-1 1 -3 1l-13 10q-15 15 -15 38v20l-1 10v382
q0 79 -10 120q-11 45 -34 77q-61 84 -161 84q-14 0 -46 -4q62 -9 96 -36q34 -28 49 -83q14 -58 14 -152v-388q0 -40 -3 -51q-4 -10 -24 -27l-1 -1l-1 -1q-1 0 -2 -1zM374 836v-203q59 70 119 121q59 48 110 67q54 20 115 20q76 0 142 -36q66 -37 100 -97q40 -67 40 -184
v-332q0 -84 25 -118q24 -35 92 -47v-27h-439v27q67 12 93 47q24 35 24 118v338q0 107 -14 151q-15 47 -48 72q-32 25 -79 25q-65 0 -124 -43q-64 -45 -156 -155v-388q0 -84 25 -118q24 -35 92 -47v-27h-439v27q67 12 93 47q25 34 25 118v420q0 85 -25 120t-93 45v22z
M307 1094q56 39 102 39q37 0 136 -32q80 -25 108 -32q34 -10 59 -10q36 0 62 19q26 18 57 59q-48 -22 -93 -22q-31 0 -66 9q-26 6 -128 38q-72 24 -107 24q-37 0 -66 -20q-30 -22 -64 -72zM281 1018l-29 12q71 185 192 185q38 0 154 -38q67 -22 89 -26q24 -6 53 -6
q74 0 124 65l29 -11q-35 -100 -80 -144q-46 -45 -113 -45q-43 0 -114 23l-54 17q-96 32 -138 32q-67 0 -113 -64z" />
    <glyph glyph-name="ograve" unicode="&#xf2;" horiz-adv-x="1031" 
d="M634 33l-16 -12q131 58 202 159q69 101 69 230q0 134 -67 237q-67 104 -180 147q153 -112 153 -381q0 -134 -38 -227q-39 -91 -123 -153zM348 37q-49 39 -65 57q-20 20 -38 49q-64 103 -64 268q0 272 185 382q-84 -31 -147 -90q-62 -57 -98 -134q-35 -76 -35 -159
t34 -158q34 -76 95 -131q26 -21 53 -40q12 -8 80 -44zM271 416q0 -86 18 -160q16 -72 50 -124q32 -51 79 -80q44 -28 99 -28q52 0 99 29t78 79q32 50 50 124q17 76 17 160q0 116 -30 204q-32 90 -86 138q-55 49 -129 49q-110 0 -178 -108q-67 -107 -67 -283zM52 410
q0 116 63 216q61 97 169 157q107 57 233 57q94 0 179 -32q82 -32 148 -92q64 -60 100 -139q35 -81 35 -167q0 -115 -61 -215t-168 -157q-106 -58 -232 -58q-127 0 -234 57q-108 58 -169 157q-63 99 -63 216zM371 1212l145 -160l-62 160h-83zM548 977l-241 262h202l77 -262
h-38z" />
    <glyph glyph-name="oacute" unicode="&#xf3;" horiz-adv-x="1031" 
d="M634 33l-16 -12q131 58 202 159q69 101 69 230q0 134 -67 237q-67 104 -180 147q153 -112 153 -381q0 -134 -38 -227q-39 -91 -123 -153zM348 37q-49 39 -65 57q-20 20 -38 49q-64 103 -64 268q0 272 185 382q-84 -31 -147 -90q-62 -57 -98 -134q-35 -76 -35 -159
t34 -158q34 -76 95 -131q26 -21 53 -40q12 -8 80 -44zM271 416q0 -86 18 -160q16 -72 50 -124q32 -51 79 -80q44 -28 99 -28q52 0 99 29t78 79q32 50 50 124q17 76 17 160q0 116 -30 204q-32 90 -86 138q-55 49 -129 49q-110 0 -178 -108q-67 -107 -67 -283zM52 410
q0 116 63 216q61 97 169 157q107 57 233 57q94 0 179 -32q82 -32 148 -92q64 -60 100 -139q35 -81 35 -167q0 -115 -61 -215t-168 -157q-106 -58 -232 -58q-127 0 -234 57q-108 58 -169 157q-63 99 -63 216zM582 1212l-50 -160l133 160h-83zM562 1239h201l-241 -262h-38z
" />
    <glyph glyph-name="ocircumflex" unicode="&#xf4;" horiz-adv-x="1031" 
d="M634 33l-16 -12q131 58 202 159q69 101 69 230q0 134 -67 237q-67 104 -180 147q153 -112 153 -381q0 -134 -38 -227q-39 -91 -123 -153zM348 37q-49 39 -65 57q-20 20 -38 49q-64 103 -64 268q0 272 185 382q-84 -31 -147 -90q-62 -57 -98 -134q-35 -76 -35 -159
t34 -158q34 -76 95 -131q26 -21 53 -40q12 -8 80 -44zM271 416q0 -86 18 -160q16 -72 50 -124q32 -51 79 -80q44 -28 99 -28q52 0 99 29t78 79q32 50 50 124q17 76 17 160q0 116 -30 204q-32 90 -86 138q-55 49 -129 49q-110 0 -178 -108q-67 -107 -67 -283zM52 410
q0 116 63 216q61 97 169 157q107 57 233 57q94 0 179 -32q82 -32 148 -92q64 -60 100 -139q35 -81 35 -167q0 -115 -61 -215t-168 -157q-106 -58 -232 -58q-127 0 -234 57q-108 58 -169 157q-63 99 -63 216zM529 1124l137 -53l-157 124l-218 -165zM805 989l-273 104
l-273 -104l-20 35l293 228l292 -228z" />
    <glyph glyph-name="otilde" unicode="&#xf5;" horiz-adv-x="1031" 
d="M634 33l-16 -12q131 58 202 159q69 101 69 230q0 134 -67 237q-67 104 -180 147q153 -112 153 -381q0 -134 -38 -227q-39 -91 -123 -153zM348 37q-49 39 -65 57q-20 20 -38 49q-64 103 -64 268q0 272 185 382q-84 -31 -147 -90q-62 -57 -98 -134q-35 -76 -35 -159
t34 -158q34 -76 95 -131q26 -21 53 -40q12 -8 80 -44zM271 416q0 -86 18 -160q16 -72 50 -124q32 -51 79 -80q44 -28 99 -28q52 0 99 29t78 79q32 50 50 124q17 76 17 160q0 116 -30 204q-32 90 -86 138q-55 49 -129 49q-110 0 -178 -108q-67 -107 -67 -283zM52 410
q0 116 63 216q61 97 169 157q107 57 233 57q94 0 179 -32q82 -32 148 -92q64 -60 100 -139q35 -81 35 -167q0 -115 -61 -215t-168 -157q-106 -58 -232 -58q-127 0 -234 57q-108 58 -169 157q-63 99 -63 216zM250 1094q56 39 102 39q37 0 136 -32q80 -25 108 -32
q34 -10 59 -10q36 0 62 19q26 18 57 59q-48 -22 -93 -22q-31 0 -66 9q-26 6 -128 38q-72 24 -107 24q-37 0 -66 -20q-30 -22 -64 -72zM224 1018l-29 12q71 185 192 185q38 0 154 -38q67 -22 89 -26q24 -6 53 -6q74 0 124 65l29 -11q-35 -100 -80 -144q-46 -45 -113 -45
q-43 0 -114 23l-54 17q-96 32 -138 32q-67 0 -113 -64z" />
    <glyph glyph-name="odieresis" unicode="&#xf6;" horiz-adv-x="1031" 
d="M634 33l-16 -12q131 58 202 159q69 101 69 230q0 134 -67 237q-67 104 -180 147q153 -112 153 -381q0 -134 -38 -227q-39 -91 -123 -153zM348 37q-49 39 -65 57q-20 20 -38 49q-64 103 -64 268q0 272 185 382q-84 -31 -147 -90q-62 -57 -98 -134q-35 -76 -35 -159
t34 -158q34 -76 95 -131q26 -21 53 -40q12 -8 80 -44zM271 416q0 -86 18 -160q16 -72 50 -124q32 -51 79 -80q44 -28 99 -28q52 0 99 29t78 79q32 50 50 124q17 76 17 160q0 116 -30 204q-32 90 -86 138q-55 49 -129 49q-110 0 -178 -108q-67 -107 -67 -283zM52 410
q0 116 63 216q61 97 169 157q107 57 233 57q94 0 179 -32q82 -32 148 -92q64 -60 100 -139q35 -81 35 -167q0 -115 -61 -215t-168 -157q-106 -58 -232 -58q-127 0 -234 57q-108 58 -169 157q-63 99 -63 216zM696 1052v116v3q-2 17 -19 17q-25 0 -48 -24q-22 -25 -22 -54
q0 -30 22 -53q22 -25 48 -25q19 0 19 20zM383 1052v116v3q0 17 -18 17q-25 0 -48 -24q-22 -25 -22 -54q0 -30 22 -53q22 -25 48 -25q18 0 18 20zM579 1110q0 27 14 50q14 24 36 37t50 13q18 0 39 -8q19 -7 33 -20q14 -14 21 -32q8 -21 8 -40q0 -43 -30 -72q-31 -29 -71 -29
q-39 0 -69 30q-31 28 -31 71zM266 1110q0 41 30 71q29 29 71 29q18 0 39 -8q18 -7 32 -21t21 -32q8 -21 8 -39q0 -42 -29 -71q-30 -30 -71 -30t-71 30t-30 71z" />
    <glyph glyph-name="divide" unicode="&#xf7;" 
d="M82 1351v-1337h655v1337h-655zM751 0h-683v1365h683v-1365z" />
    <glyph glyph-name="oslash" unicode="&#xf8;" horiz-adv-x="1031" 
d="M618 21q131 58 202 159q69 101 69 230q0 134 -67 237q-67 104 -180 147q153 -112 153 -381q0 -55 -6 -102q-8 -50 -22 -93q-15 -47 -32 -76q-36 -60 -117 -121zM348 37q-49 39 -65 57q-20 20 -38 49q-64 103 -64 268q0 272 185 382q-84 -31 -147 -90q-62 -57 -98 -134
q-35 -76 -35 -159t34 -158q34 -76 95 -131q26 -21 53 -40q12 -8 80 -44zM716 656l-391 -501q66 -131 192 -131q73 0 128 49q54 48 86 139q30 89 30 205q0 139 -45 239zM309 190l390 500q-67 117 -183 117q-110 0 -178 -108q-67 -107 -67 -283q0 -126 38 -226zM144 -21l76 98
q-75 58 -122 148q-46 88 -46 185q0 116 63 216q61 97 169 157q107 57 233 57q132 0 247 -67l77 99l27 -21l-75 -96q91 -64 139 -153q47 -89 47 -192q0 -115 -61 -215t-168 -157q-106 -58 -232 -58q-149 0 -270 77l-77 -99z" />
    <glyph glyph-name="ugrave" unicode="&#xf9;" horiz-adv-x="1095" 
d="M249 288v507l-164 -19l40 -28h2q0 -1 2 -3l13 -10q9 -6 12 -18t3 -50v-373q0 -72 13 -117q14 -46 42 -84q38 -43 81 -66q44 -23 84 -23q-5 0 29 2q-60 9 -93 39q-34 28 -49 87q-15 57 -15 156zM769 667v-623h148l-23 18v1t-1 1q-1 1 -3 1l-13 10q-15 15 -15 38v20l-1 10
v651l-164 -18l40 -28h2q0 -1 2 -3l13 -10q9 -6 12 -18t3 -50zM735 0v177q-84 -105 -163 -152t-169 -47q-80 0 -143 36q-63 34 -100 97q-37 64 -37 184v317q0 84 -25 119q-25 36 -92 46v22l322 37v-547q0 -109 14 -151q15 -45 48 -71q32 -26 75 -26q59 0 118 38
q55 36 136 131l16 19v383q0 84 -25 119q-25 36 -92 46v22l322 37v-644q0 -84 25 -118q24 -35 92 -47v-27h-322zM384 1212l145 -160l-62 160h-83zM561 977l-241 262h202l77 -262h-38z" />
    <glyph glyph-name="uacute" unicode="&#xfa;" horiz-adv-x="1095" 
d="M249 288v507l-164 -19l40 -28h2q0 -1 2 -3l13 -10q9 -6 12 -18t3 -50v-373q0 -72 13 -117q14 -46 42 -84q38 -43 81 -66q44 -23 84 -23q-5 0 29 2q-60 9 -93 39q-34 28 -49 87q-15 57 -15 156zM769 667v-623h148l-23 18v1t-1 1q-1 1 -3 1l-13 10q-15 15 -15 38v20l-1 10
v651l-164 -18l40 -28h2q0 -1 2 -3l13 -10q9 -6 12 -18t3 -50zM735 0v177q-84 -105 -163 -152t-169 -47q-80 0 -143 36q-63 34 -100 97q-37 64 -37 184v317q0 84 -25 119q-25 36 -92 46v22l322 37v-547q0 -109 14 -151q15 -45 48 -71q32 -26 75 -26q59 0 118 38
q55 36 136 131l16 19v383q0 84 -25 119q-25 36 -92 46v22l322 37v-644q0 -84 25 -118q24 -35 92 -47v-27h-322zM569 1212l-50 -160l133 160h-83zM549 1239h201l-241 -262h-38z" />
    <glyph glyph-name="ucircumflex" unicode="&#xfb;" horiz-adv-x="1095" 
d="M249 288v507l-164 -19l40 -28h2q0 -1 2 -3l13 -10q9 -6 12 -18t3 -50v-373q0 -72 13 -117q14 -46 42 -84q38 -43 81 -66q44 -23 84 -23q-5 0 29 2q-60 9 -93 39q-34 28 -49 87q-15 57 -15 156zM769 667v-623h148l-23 18v1t-1 1q-1 1 -3 1l-13 10q-15 15 -15 38v20l-1 10
v651l-164 -18l40 -28h2q0 -1 2 -3l13 -10q9 -6 12 -18t3 -50zM735 0v177q-84 -105 -163 -152t-169 -47q-80 0 -143 36q-63 34 -100 97q-37 64 -37 184v317q0 84 -25 119q-25 36 -92 46v22l322 37v-547q0 -109 14 -151q15 -45 48 -71q32 -26 75 -26q59 0 118 38
q55 36 136 131l16 19v383q0 84 -25 119q-25 36 -92 46v22l322 37v-644q0 -84 25 -118q24 -35 92 -47v-27h-322zM542 1124l137 -53l-157 124l-218 -165zM818 989l-273 104l-273 -104l-20 35l293 228l292 -228z" />
    <glyph glyph-name="udieresis" unicode="&#xfc;" horiz-adv-x="1095" 
d="M249 288v507l-164 -19l40 -28h2q0 -1 2 -3l13 -10q9 -6 12 -18t3 -50v-373q0 -72 13 -117q14 -46 42 -84q38 -43 81 -66q44 -23 84 -23q-5 0 29 2q-60 9 -93 39q-34 28 -49 87q-15 57 -15 156zM769 667v-623h148l-23 18v1t-1 1q-1 1 -3 1l-13 10q-15 15 -15 38v20l-1 10
v651l-164 -18l40 -28h2q0 -1 2 -3l13 -10q9 -6 12 -18t3 -50zM735 0v177q-84 -105 -163 -152t-169 -47q-80 0 -143 36q-63 34 -100 97q-37 64 -37 184v317q0 84 -25 119q-25 36 -92 46v22l322 37v-547q0 -109 14 -151q15 -45 48 -71q32 -26 75 -26q59 0 118 38
q55 36 136 131l16 19v383q0 84 -25 119q-25 36 -92 46v22l322 37v-644q0 -84 25 -118q24 -35 92 -47v-27h-322zM709 1052v116v3q-2 17 -19 17q-25 0 -48 -24q-22 -25 -22 -54q0 -30 22 -53q22 -25 48 -25q19 0 19 20zM396 1052v116v3q0 17 -18 17q-25 0 -48 -24
q-22 -25 -22 -54q0 -30 22 -53q22 -25 48 -25q18 0 18 20zM592 1110q0 27 14 50q14 24 36 37t50 13q18 0 39 -8q19 -7 33 -20q14 -14 21 -32q8 -21 8 -40q0 -43 -30 -72q-31 -29 -71 -29q-39 0 -69 30q-31 28 -31 71zM279 1110q0 41 30 71q29 29 71 29q18 0 39 -8
q18 -7 32 -21t21 -32q8 -21 8 -39q0 -42 -29 -71q-30 -30 -71 -30t-71 30t-30 71z" />
    <glyph glyph-name="ydieresis" unicode="&#xff;" horiz-adv-x="839" 
d="M576 1052v116v3q-2 17 -19 17q-25 0 -48 -24q-22 -25 -22 -54q0 -30 22 -53q22 -25 48 -25q19 0 19 20zM263 1052v116v3q0 17 -18 17q-25 0 -48 -24q-22 -25 -22 -54q0 -30 22 -53q22 -25 48 -25q18 0 18 20zM459 1110q0 27 14 50q14 24 36 37t50 13q18 0 39 -8
q19 -7 33 -20q14 -14 21 -32q8 -21 8 -40q0 -43 -30 -72q-31 -29 -71 -29q-39 0 -69 30q-31 28 -31 71zM146 1110q0 41 30 71q29 29 71 29q18 0 39 -8q18 -7 32 -21t21 -32q8 -21 8 -39q0 -42 -29 -71q-30 -30 -71 -30t-71 30t-30 71z" />
    <glyph glyph-name="dotlessi" unicode="&#x131;" horiz-adv-x="526" 
d="M173 62l-21 -18h200l-24 18l-1.5 1.5t-2.5 1.5l-13 10q-13 13 -15 38v20v10v651l-164 -18l39 -28q1 0 4 -3l13 -10q10 -7 13 -20t3 -48v-524q0 -42 -4 -51q-4 -10 -24 -27v0l-1 -1zM491 0h-439v27q67 12 93 47q25 34 25 118v420q0 85 -25 120t-93 45v22l322 37v-644
q0 -84 25 -118q24 -35 92 -47v-27z" />
    <glyph glyph-name="OE" unicode="&#x152;" horiz-adv-x="2158" 
d="M1269 1303l38 23q-78 -3 -111 -3q-75 0 -191 12l46 -32l7 -5q30 -20 41 -36q9 -15 9 -45v-33q1 -6 1 -17v-942q0 -12 -1 -18v-32q0 -31 -8 -45q-7 -13 -35 -36q-2 -1 -6 -5l-47 -39q85 8 157 8q45 0 134 -4l18 -1l-52 36q-29 18 -41 38t-13 48v32v12q-1 2 -1 6v942
q0 4 1 6v11v33q2 44 25 63l22 18q1 1 2 1.5t2 1.5q2 2 3 2zM1786 51h186l55 186q-33 -39 -69 -72q-40 -35 -81 -62q-53 -34 -91 -52zM1694 683v129q-25 -25 -40 -34q-16 -10 -67 -30q56 -17 107 -65zM1946 1195l-21 133h-144q58 -25 92 -52q33 -27 73 -81zM629 1326
q-118 -25 -206 -73q-89 -49 -161 -130q-78 -87 -119 -201q-40 -111 -40 -240q0 -112 33 -216q31 -102 96 -188q63 -84 153 -143q90 -60 200 -89q-61 28 -107 59q-41 26 -82 67q-38 38 -68 83q-39 56 -66 123q-28 70 -41 144q-14 79 -14 150q0 129 34 244q35 120 95 203
q56 77 124 126q69 48 169 81zM1072 264l2 772l-1 37q0 81 -8 124q-8 40 -30 68q-30 39 -76 58q-49 20 -109 20q-114 0 -212 -48q-100 -49 -170 -136q-72 -90 -110 -211q-39 -123 -39 -264q0 -138 39 -254q37 -117 110 -206t168 -137q96 -48 207 -48q119 0 174 55t55 170z
M1501 1365h498l38 -372h-31q-52 172 -154 254q-103 81 -268 81h-41q-86 0 -139 -21q-55 -23 -77 -69q-24 -48 -24 -129v-340h119q151 0 220 48q70 47 95 171h30v-506h-30q-30 147 -94 197q-64 51 -219 51h-121v-433q0 -98 18 -151t65 -74t130 -21h78q138 0 259 84
q135 94 265 262l8 11h34l-117 -408h-533q-62 0 -83 1q-32 0 -132 4q-114 2 -102 2q-77 0 -228 -11q-112 -9 -168 -9q-257 0 -427 110q-100 66 -166 153q-69 90 -103 200q-35 111 -35 233q0 157 54 286q53 129 153 222q101 94 240 143q141 50 309 50q64 0 182 -13
q108 -12 225 -12q58 0 75 1l99 2l67 2q9 1 31 1z" />
    <glyph glyph-name="oe" unicode="&#x153;" horiz-adv-x="1627" 
d="M271 416q0 -86 18 -160q16 -72 50 -124q32 -51 79 -80q44 -28 99 -28q52 0 99 29t78 79q32 50 50 124q17 76 17 160q0 116 -30 204q-32 90 -86 138q-55 49 -129 49q-110 0 -178 -108q-67 -107 -67 -283zM348 37q-49 39 -65 57q-20 20 -38 49q-64 103 -64 268
q0 272 185 382q-84 -31 -147 -90q-62 -57 -98 -134q-35 -76 -35 -159t34 -158q34 -76 95 -131q26 -21 53 -40q12 -8 80 -44zM840 244q47 -111 137 -175q89 -63 198 -63q28 0 40 1q-90 12 -147 44q-55 32 -99 96q-80 116 -80 298q0 111 33 192q33 80 108 146
q-125 -81 -184 -213q-68 162 -204 224q153 -111 153 -381q0 -61 -11 -127q-10 -61 -31 -111q-16 -40 -42 -72q-24 -29 -77 -70l-16 -12q72 38 132 98q58 60 90 125zM1416 501h85q-3 110 -55 189q-52 78 -139 106q59 -47 84 -109t25 -158v-28zM981 501h399q-2 139 -27 194
q-22 54 -66 84q-44 29 -96 29q-192 0 -210 -307zM861 660q126 181 337 181q106 0 192 -43q87 -44 136 -120q52 -80 58 -212h-603v-22q0 -118 35 -208q34 -88 100 -139q64 -49 151 -49q48 0 93 16q43 14 92 44q42 26 102 82l20 -27q-76 -72 -134 -109q-60 -38 -124 -58
q-63 -19 -137 -19q-102 0 -191 48q-88 47 -135 126q-127 -171 -338 -171q-127 0 -233 58q-107 57 -168 157q-62 101 -62 215t62 215q61 98 168 157q106 58 232 58q209 0 347 -180z" />
    <glyph glyph-name="Ydieresis" unicode="&#x178;" horiz-adv-x="1487" 
d="M591 80l-39 -29h292l-39 29q-34 25 -43 40q-10 14 -10 45v22q-1 3 -1 11v17v468l-296 422q-58 85 -58 137q0 28 15 50q14 20 47 40h-331q43 -26 85 -71q39 -45 114 -153l16 -23l302 -438v-432v-17q0 -22 -1 -33q0 -31 -9 -45q-8 -13 -44 -40zM1166 1186q71 86 151 145
h-245q50 -24 73 -57q21 -33 21 -88zM1114 1026l-275 -343v-378q0 -87 12 -129q10 -41 43 -74q57 -54 168 -71v-31h-677v31q123 18 178 82q24 27 35 69q9 41 9 123v335l-305 442l-11 15q-88 131 -145 180q-58 49 -128 57v31h633v-31l-21 -1q-80 -5 -107 -23q-29 -20 -29 -66
q0 -44 42 -106l288 -412l232 285q76 94 76 172q0 70 -51 109q-53 38 -148 42v31h536v-31q-52 -14 -95 -39q-46 -28 -87 -67q-39 -37 -95 -105l-63 -79zM890 1573v116v3q-2 17 -19 17q-25 0 -48 -24q-22 -25 -22 -54q0 -30 22 -53q22 -25 48 -25q19 0 19 20zM577 1573v116v3
q0 17 -18 17q-25 0 -48 -24q-22 -25 -22 -54q0 -30 22 -53q22 -25 48 -25q18 0 18 20zM773 1631q0 27 14 50q14 24 36 37t50 13q18 0 39 -8q19 -7 33 -20q14 -14 21 -32q8 -21 8 -40q0 -43 -30 -72q-31 -29 -71 -29q-39 0 -69 30q-31 28 -31 71zM460 1631q0 41 30 71
q29 29 71 29q18 0 39 -8q18 -7 32 -21t21 -32q8 -21 8 -39q0 -42 -29 -71q-30 -30 -71 -30t-71 30t-30 71z" />
    <glyph glyph-name="florin" unicode="&#x192;" horiz-adv-x="1106" 
d="M949 1484q34 -25 34 -75q0 -36 -15 -108q-5 -25 -5 -34q0 -38 37 -38q25 0 42 26q15 26 15 71q0 59 -29 103q-28 41 -79 55zM-39 -340q-52 28 -52 94q0 38 13 93q6 25 6 37q0 35 -33 35q-28 0 -44 -27q-18 -29 -18 -70q0 -58 35 -102q34 -45 93 -60zM791 1490
q-92 -30 -145 -71q-56 -43 -99 -118q-23 -45 -41 -105q-14 -46 -35 -159l-169 -954l-4 -27q-23 -126 -44 -206q-20 -74 -47 -118q-26 -42 -71 -74q127 48 185 142q57 91 95 311l169 953q16 96 36 169q18 72 42 120q23 49 54 80q33 33 74 57zM261 70l133 752h-108l7 38h108
l33 187q11 70 30 136q25 96 68 162q42 65 109 108q102 69 237 69q113 0 183 -53q68 -54 68 -142q0 -59 -33 -97q-34 -39 -86 -39q-37 0 -60 20t-23 53q0 24 4 39l9 40q9 38 9 70q0 34 -17 54q-18 19 -50 19q-51 0 -90 -45q-40 -44 -64 -128q-16 -61 -36 -162q-7 -35 -8 -46
q-3 -16 -6 -27l-38 -218h242l-7 -38h-242l-128 -721q-18 -103 -44.5 -180.5t-59.5 -124.5q-55 -82 -146 -129q-92 -47 -199 -47q-116 0 -187 56q-72 55 -72 144q0 58 35 98q35 38 85 38q39 0 61 -19q23 -20 23 -52q0 -16 -5 -41l-9 -40q-9 -41 -9 -68q0 -36 20 -58
q19 -22 53 -22q52 0 95 48q21 23 38.5 56.5t27.5 72.5q18 65 49 237z" />
    <glyph glyph-name="hungarumlaut" unicode="&#x2ba;" 
d="M82 1351v-1337h655v1337h-655zM751 0h-683v1365h683v-1365z" />
    <glyph glyph-name="circumflex" unicode="&#x2c6;" horiz-adv-x="790" 
d="M392 1124l137 -53l-157 124l-218 -165zM668 989l-273 104l-273 -104l-20 35l293 228l292 -228z" />
    <glyph glyph-name="caron" unicode="&#x2c7;" 
d="M82 1351v-1337h655v1337h-655zM751 0h-683v1365h683v-1365z" />
    <glyph glyph-name="breve" unicode="&#x2d8;" 
d="M82 1351v-1337h655v1337h-655zM751 0h-683v1365h683v-1365z" />
    <glyph glyph-name="dotaccent" unicode="&#x2d9;" 
d="M82 1351v-1337h655v1337h-655zM751 0h-683v1365h683v-1365z" />
    <glyph glyph-name="ring" unicode="&#x2da;" horiz-adv-x="575" 
d="M332 975q88 43 88 133q0 44 -21 81q-22 36 -59 52q39 -39 39 -129q0 -93 -47 -137zM219 975q-47 41 -47 135q0 47 11 78q11 30 36 54q-43 -22 -65 -55q-23 -35 -23 -78q0 -88 88 -134zM223 1111q0 -67 18 -106q18 -40 47 -40t47 40q17 42 17 106q0 65 -17 107
q-16 39 -47 39q-30 0 -47 -39q-18 -40 -18 -107zM102 1109q0 69 56 119q55 49 131 49q52 0 93 -22q40 -22 66 -62q25 -38 25 -84q0 -69 -53 -119q-55 -50 -131 -50q-75 0 -131 50t-56 119z" />
    <glyph glyph-name="ogonek" unicode="&#x2db;" 
d="M82 1351v-1337h655v1337h-655zM751 0h-683v1365h683v-1365z" />
    <glyph glyph-name="tilde" unicode="&#x2dc;" horiz-adv-x="845" 
d="M157 1094q56 39 102 39q37 0 136 -32q80 -25 108 -32q34 -10 59 -10q36 0 62 19q26 18 57 59q-48 -22 -93 -22q-31 0 -66 9q-26 6 -128 38q-72 24 -107 24q-37 0 -66 -20q-30 -22 -64 -72zM131 1018l-29 12q71 185 192 185q38 0 154 -38q67 -22 89 -26q24 -6 53 -6
q74 0 124 65l29 -11q-35 -100 -80 -144q-46 -45 -113 -45q-43 0 -114 23l-54 17q-96 32 -138 32q-67 0 -113 -64z" />
    <glyph glyph-name="summation" unicode="&#x3a3;" 
d="M82 1351v-1337h655v1337h-655zM751 0h-683v1365h683v-1365z" />
    <glyph glyph-name="Omega" unicode="&#x3a9;" 
d="M82 1351v-1337h655v1337h-655zM751 0h-683v1365h683v-1365z" />
    <glyph glyph-name="pi" unicode="&#x3c0;" 
d="M82 1351v-1337h655v1337h-655zM751 0h-683v1365h683v-1365z" />
    <glyph glyph-name="endash" unicode="&#x2013;" horiz-adv-x="869" 
d="M776 444h-683v37h683v-37z" />
    <glyph glyph-name="emdash" unicode="&#x2014;" horiz-adv-x="2234" 
d="M2141 444h-2048v37h2048v-37z" />
    <glyph glyph-name="quoteleft" unicode="&#x2018;" horiz-adv-x="402" 
d="M190 1279q-40 -60 -50 -84q-12 -25 -12 -57q0 -35 18 -58t45 -23q23 0 37 17t14 41q0 28 -18 56l-11 19q-24 41 -24 72q0 5 1 7v10zM271 1399l17 -15q-28 -40 -39 -63q-11 -25 -11 -45q0 -30 21 -57l21 -28q29 -40 29 -75q0 -28 -13 -50t-38 -36t-53 -14q-48 0 -80 33
q-32 32 -32 84q0 115 178 266z" />
    <glyph glyph-name="quoteright" unicode="&#x2019;" horiz-adv-x="402" 
d="M189 1153v-13q44 86 44 135q0 38 -16 60q-17 23 -42 23q-23 0 -36 -16q-14 -17 -14 -42q0 -27 33 -74q31 -44 31 -73zM131 1016l-17 16q47 73 47 107q0 30 -21 58l-21 28q-29 41 -29 74q0 43 31 71q32 29 76 29q51 0 82 -31q30 -31 30 -85q0 -116 -178 -267z" />
    <glyph glyph-name="quotesinglbase" unicode="&#x201a;" 
d="M82 1351v-1337h655v1337h-655zM751 0h-683v1365h683v-1365z" />
    <glyph glyph-name="quotedblleft" unicode="&#x201c;" horiz-adv-x="658" 
d="M446 1279q-36 -52 -49 -83q-14 -33 -14 -58q0 -36 19 -58q20 -23 45 -23q23 0 37 17t14 41q0 28 -18 56l-11 19q-24 41 -24 72q0 5 1 7v10zM190 1279q-36 -52 -49 -83q-14 -33 -14 -58q0 -36 19 -58q20 -23 45 -23q23 0 37 17t14 41q0 28 -18 56l-11 19q-24 41 -24 72
q0 5 1 7v10zM527 1399l17 -15q-28 -40 -39 -63q-11 -25 -11 -45q0 -30 21 -57l21 -28q29 -40 29 -75q0 -28 -13 -50t-38 -36t-53 -14q-48 0 -80 33q-32 32 -32 84q0 115 178 266zM271 1399l17 -15q-28 -40 -39 -63q-11 -25 -11 -45q0 -30 21 -57l21 -28q29 -40 29 -75
q0 -28 -13 -50t-38 -36t-53 -14q-48 0 -80 33q-32 32 -32 84q0 115 178 266z" />
    <glyph glyph-name="quotedblright" unicode="&#x201d;" horiz-adv-x="658" 
d="M445 1152v-10q44 88 44 135q0 37 -16 59t-43 22q-22 0 -35 -16q-14 -17 -14 -41q0 -28 32 -75t32 -74zM188 1140q27 54 36 81t9 56q0 37 -16 59t-43 22q-22 0 -35 -16q-14 -17 -14 -41t20 -56l12 -19l12 -18q20 -32 20 -55v-6q-1 -2 -1 -7zM387 1016l-17 16q47 73 47 107
q0 30 -21 58l-21 28q-29 40 -29 74q0 43 31 71q32 29 76 29q51 0 82 -31q30 -31 30 -85q0 -116 -178 -267zM131 1016l-17 16q47 73 47 107q0 30 -21 58l-21 28q-29 41 -29 74q0 43 31 71q32 29 76 29q51 0 82 -31q30 -31 30 -85q0 -116 -178 -267z" />
    <glyph glyph-name="quotedblbase" unicode="&#x201e;" horiz-adv-x="658" 
d="M445 -34v-3q27 52 35 78q9 27 9 55q0 37 -15 59q-16 22 -43 22q-23 0 -36 -16q-14 -17 -14 -41q0 -28 32 -75q16 -21 26 -41q6 -15 6 -38zM189 -32v-6l10 20q34 67 34 113q0 38 -15 60q-16 22 -43 22q-23 0 -36 -16q-14 -17 -14 -41q0 -28 33 -75q31 -43 31 -77z
M387 -164l-17 15q47 73 47 107q0 29 -21 58l-21 28q-29 40 -29 74q0 44 31 72t76 28q51 0 82 -31q30 -31 30 -85q0 -118 -178 -266zM131 -164l-17 15q47 73 47 107q0 29 -21 58l-21 28q-29 41 -29 74q0 44 31 72t76 28q51 0 82 -31q30 -31 30 -85q0 -118 -178 -266z" />
    <glyph glyph-name="dagger" unicode="&#x2020;" 
d="M82 1351v-1337h655v1337h-655zM751 0h-683v1365h683v-1365z" />
    <glyph glyph-name="daggerdbl" unicode="&#x2021;" 
d="M82 1351v-1337h655v1337h-655zM751 0h-683v1365h683v-1365z" />
    <glyph glyph-name="bullet" unicode="&#x2022;" horiz-adv-x="644" 
d="M66 681q0 69 35 128q35 60 93 94t128 34t128 -34q59 -35 94 -94q34 -58 34 -128t-34 -128t-94 -93q-59 -35 -128 -35t-128 35q-58 35 -93 93q-35 59 -35 128z" />
    <glyph glyph-name="ellipsis" unicode="&#x2026;" horiz-adv-x="2048" 
d="M1725 38v148q0 25 -24 25q-35 0 -62 -30q-28 -29 -28 -69t28 -69q27 -30 61 -30q25 0 25 25zM1042 38v148q0 25 -24 25q-35 0 -62 -30q-28 -29 -28 -69t28 -69q27 -30 62 -30q24 0 24 25zM360 38v148q0 25 -24 25q-35 0 -62 -30q-28 -29 -28 -69t28 -69q27 -30 61 -30
q25 0 25 25zM1578 112q0 36 17 65t46 46t65 17t65 -17t46 -46t17 -65t-17 -65t-46 -46t-65 -17t-65 17t-46 46t-17 65zM896 112q0 36 17 65t46 46t65 17t65 -17t46 -46t17 -65t-17 -65t-46 -46t-65 -17t-65 17t-46 46t-17 65zM213 112q0 36 17 65t46 46t65 17t65 -17t46 -46
t17 -65t-17 -65t-46 -46t-65 -17t-65 17t-46 46t-17 65z" />
    <glyph glyph-name="perthousand" unicode="&#x2030;" horiz-adv-x="2317" 
d="M1701 372q0 -156 46 -251q46 -97 120 -97t120 96q45 95 45 253t-45 254q-47 95 -120 95q-75 0 -120 -97q-46 -96 -46 -253zM1957 31q93 49 143 136q50 88 50 200q0 118 -48 206q-50 89 -134 129q95 -98 95 -327q0 -125 -23 -203q-22 -76 -83 -141zM1736 40
q-111 114 -111 327q0 109 33 200t89 135q-100 -46 -153 -134q-54 -87 -54 -200q0 -217 196 -328zM285 1004q0 -157 46 -252q46 -97 120 -97t120 96q45 96 45 254q0 160 -45 254q-46 94 -120 94q-73 0 -120 -96q-46 -96 -46 -253zM541 662q93 49 143 136q50 89 50 199
q0 78 -22 144q-23 68 -64 118q-44 51 -97 75q47 -47 72 -131q24 -85 24 -199q0 -124 -24 -202q-26 -80 -82 -140zM320 672q-111 114 -111 326q0 110 33 200q31 89 89 136q-47 -23 -64 -35q-18 -12 -46 -43q-45 -48 -71 -117t-26 -139q0 -217 196 -328zM938 372
q0 -156 46 -251q46 -97 121 -97q73 0 119 96q45 95 45 253t-45 254q-47 95 -120 95q-75 0 -120 -97q-46 -96 -46 -253zM1195 31q93 49 142 136q50 88 50 200q0 118 -48 206q-50 89 -134 129q95 -98 95 -327q0 -125 -23 -203q-24 -79 -82 -141zM973 40q-111 114 -111 327
q0 75 15 139q13 64 42 115t66 81q-99 -46 -154 -134q-54 -87 -54 -200q0 -217 196 -328zM1509 367q0 104 48 194q47 89 131 142q83 51 179 51q97 0 179 -51q82 -52 130 -142t48 -194q0 -106 -47 -195q-49 -90 -130 -140q-82 -52 -179 -52q-98 0 -180 52q-85 53 -131 142
q-48 90 -48 193zM93 999q0 104 48 194q48 88 131 141q83 51 179 51q97 0 179 -51q82 -52 130 -142t48 -194t-48 -194t-129 -141q-82 -52 -179 -52q-98 0 -180 52q-85 53 -131 142q-48 89 -48 194zM747 367q0 108 48 196q47 86 131 140q83 51 179 51q97 0 179 -51
q81 -53 129 -142q48 -90 48 -194q0 -106 -47 -195q-49 -90 -130 -140q-82 -52 -179 -52q-98 0 -180 52q-84 52 -130 140q-48 89 -48 195zM1148 1370l-707 -1393l-36 18l707 1393z" />
    <glyph glyph-name="guilsinglleft" unicode="&#x2039;" horiz-adv-x="465" 
d="M299 281q-15 58 -32 94q-17 37 -52 89q35 53 54 96q21 47 35 90q-55 -74 -105 -124l-47 -45l-5.5 -5.5l-11.5 -11.5q109 -92 164 -183zM278 465q75 -157 94 -303h-28q-48 89 -105 158q-52 62 -146 145q107 101 156 161q50 60 95 142h28q-17 -134 -94 -303z" />
    <glyph glyph-name="guilsinglright" unicode="&#x203a;" horiz-adv-x="465" 
d="M143 649q17 -60 33 -95q17 -37 49 -88q-54 -90 -85 -186q53 75 100 124l44 45l4 4l4 4l5 5l4 4q-109 95 -158 183zM187 465q-31 68 -47 110q-19 51 -28 92q-11 42 -19 101h28q32 -58 66 -105q31 -44 77 -93q44 -46 108 -105q-106 -98 -152 -154q-51 -64 -99 -149h-28
q10 75 31 142q20 68 63 161z" />
    <glyph glyph-name="trademark" unicode="&#x2122;" 
d="M82 1351v-1337h655v1337h-655zM751 0h-683v1365h683v-1365z" />
    <glyph glyph-name="partialdiff" unicode="&#x2202;" 
d="M82 1351v-1337h655v1337h-655zM751 0h-683v1365h683v-1365z" />
    <glyph glyph-name="Delta" unicode="&#x2206;" 
d="M82 1351v-1337h655v1337h-655zM751 0h-683v1365h683v-1365z" />
    <glyph glyph-name="product" unicode="&#x220f;" 
d="M82 1351v-1337h655v1337h-655zM751 0h-683v1365h683v-1365z" />
    <glyph glyph-name="fraction" unicode="&#x2215;" 
d="M82 1351v-1337h655v1337h-655zM751 0h-683v1365h683v-1365z" />
    <glyph glyph-name="radical" unicode="&#x221a;" 
d="M82 1351v-1337h655v1337h-655zM751 0h-683v1365h683v-1365z" />
    <glyph glyph-name="infinity" unicode="&#x221e;" 
d="M82 1351v-1337h655v1337h-655zM751 0h-683v1365h683v-1365z" />
    <glyph glyph-name="integral" unicode="&#x222b;" 
d="M82 1351v-1337h655v1337h-655zM751 0h-683v1365h683v-1365z" />
    <glyph glyph-name="approxequal" unicode="&#x2248;" 
d="M82 1351v-1337h655v1337h-655zM751 0h-683v1365h683v-1365z" />
    <glyph glyph-name="notequal" unicode="&#x2260;" 
d="M82 1351v-1337h655v1337h-655zM751 0h-683v1365h683v-1365z" />
    <glyph glyph-name="lessequal" unicode="&#x2264;" 
d="M82 1351v-1337h655v1337h-655zM751 0h-683v1365h683v-1365z" />
    <glyph glyph-name="greaterequal" unicode="&#x2265;" 
d="M82 1351v-1337h655v1337h-655zM751 0h-683v1365h683v-1365z" />
    <glyph glyph-name="lozenge" unicode="&#x25ca;" 
d="M82 1351v-1337h655v1337h-655zM751 0h-683v1365h683v-1365z" />
    <glyph glyph-name="apple" unicode="&#xf000;" 
d="M82 1351v-1337h655v1337h-655zM751 0h-683v1365h683v-1365z" />
    <glyph glyph-name="fi" unicode="&#xf001;" 
d="M82 1351v-1337h655v1337h-655zM751 0h-683v1365h683v-1365z" />
    <glyph glyph-name="fl" unicode="&#xf002;" 
d="M82 1351v-1337h655v1337h-655zM751 0h-683v1365h683v-1365z" />
    <glyph glyph-name="HT" horiz-adv-x="678" 
 />
    </font>
</defs>
</svg>
